<?xml version="1.0" encoding="utf-8"?>
<!-- Generator: Adobe Illustrator 18.0.0, SVG Export Plug-In . SVG Version: 6.00 Build 0)  -->
<!DOCTYPE svg PUBLIC "-//W3C//DTD SVG 1.1//EN" "http://www.w3.org/Graphics/SVG/1.1/DTD/svg11.dtd">
<svg version="1.1" xmlns="http://www.w3.org/2000/svg" xmlns:xlink="http://www.w3.org/1999/xlink" x="0px" y="0px"
	 viewBox="0 0 860 320" enable-background="new 0 0 860 320" xml:space="preserve">
<g id="Ebene_1">
</g>
<g id="Mitarbeiter">
</g>
<g id="Ebene_8">
	<g>
		<polyline fill="none" stroke="#BEBEBE" stroke-width="3" stroke-miterlimit="10" points="839.4,126.7 580.3,126.7 561.9,144.1 
			428.9,144.1 		"/>
		<polyline fill="none" stroke="#BEBEBE" stroke-width="3" stroke-miterlimit="10" points="15,126.7 278.9,126.7 297.3,144.1 
			430.3,144.1 		"/>
	</g>
	<g>
		<polyline fill="none" stroke="#BEBEBE" stroke-width="3" stroke-miterlimit="10" points="839.4,287.7 580.3,287.7 561.9,270.4 
			428.9,270.4 		"/>
		<polyline fill="none" stroke="#BEBEBE" stroke-width="3" stroke-miterlimit="10" points="49.1,287.7 278.9,287.7 297.3,270.4 
			430.3,270.4 		"/>
	</g>
	<g>
		<line fill="none" stroke="#BEBEBE" stroke-width="3" stroke-miterlimit="10" x1="839.4" y1="208.1" x2="427.9" y2="208.1"/>
		<line fill="none" stroke="#BEBEBE" stroke-width="3" stroke-miterlimit="10" x1="15" y1="208.1" x2="431.3" y2="208.1"/>
	</g>
	<g>
		<path d="M744,274.7c-0.6,0-1.1-0.1-1.6-0.4s-0.8-0.6-1.1-1.1v1.2H740v-13h1.3v4.8c0.3-0.4,0.7-0.7,1.2-0.9s1-0.3,1.6-0.3
			c0.6,0,1.1,0.1,1.6,0.4s0.8,0.6,1.1,1.1c0.2,0.4,0.3,0.8,0.4,1.4s0.2,1.2,0.2,1.9c0,0.6,0,1.2-0.1,1.6s-0.2,0.9-0.3,1.3
			c-0.2,0.6-0.5,1-0.8,1.3s-0.7,0.5-1.1,0.6C744.6,274.7,744.3,274.7,744,274.7z M743.6,273.6c0.6,0,1.1-0.2,1.4-0.5
			s0.6-0.8,0.7-1.3c0-0.2,0.1-0.5,0.1-0.9s0.1-0.8,0.1-1.1c0-0.4,0-0.7,0-1.1c0-0.3-0.1-0.7-0.2-1c-0.1-0.4-0.2-0.7-0.4-0.9
			s-0.4-0.4-0.7-0.5c-0.3-0.1-0.6-0.2-0.9-0.2c-0.3,0-0.6,0.1-0.9,0.2s-0.5,0.3-0.8,0.5c-0.2,0.2-0.4,0.5-0.5,0.8
			c-0.1,0.3-0.2,0.7-0.2,1.1v2.2c0,0.4,0.1,0.7,0.2,1.1s0.3,0.6,0.5,0.8c0.2,0.2,0.4,0.4,0.7,0.5S743.3,273.6,743.6,273.6z"/>
		<path d="M749.3,263v-1.5h1.3v1.5H749.3z M749.3,274.4v-9.1h1.3v9.1H749.3z"/>
		<path d="M756,274.7c-0.5,0-0.9-0.1-1.2-0.2s-0.7-0.2-1-0.4c-0.5-0.4-0.9-0.8-1.1-1.4l1.1-0.5c0.2,0.3,0.3,0.6,0.6,0.8
			c0.2,0.2,0.5,0.4,0.8,0.5c0.3,0.1,0.6,0.1,0.9,0.1c0.4,0,0.8-0.1,1.1-0.2c0.3-0.1,0.5-0.3,0.7-0.5c0.1-0.2,0.2-0.5,0.2-0.8
			c0-0.3-0.1-0.6-0.2-0.8s-0.4-0.4-0.7-0.5c-0.6-0.2-1-0.4-1.2-0.4c-0.2-0.1-0.4-0.1-0.5-0.2c-0.5-0.2-0.9-0.4-1.2-0.6
			s-0.6-0.4-0.7-0.6s-0.3-0.4-0.3-0.7c-0.1-0.2-0.1-0.5-0.1-0.7c0-0.2,0-0.4,0.1-0.6c0-0.2,0.1-0.5,0.2-0.7c0.2-0.3,0.4-0.5,0.6-0.7
			c0.3-0.2,0.6-0.4,1-0.5s0.8-0.1,1.2-0.1c0.7,0,1.4,0.1,1.9,0.4s0.9,0.7,1.2,1.3l-1,0.5c-0.1-0.3-0.3-0.5-0.4-0.6s-0.3-0.3-0.5-0.4
			s-0.3-0.2-0.5-0.2s-0.4-0.1-0.6-0.1c-0.3,0-0.6,0-0.9,0.1c-0.2,0.1-0.5,0.2-0.6,0.3c-0.1,0.1-0.2,0.3-0.3,0.4s-0.1,0.4-0.1,0.6
			c0,0.2,0.1,0.4,0.2,0.6s0.3,0.3,0.5,0.5c0.2,0.1,0.5,0.3,0.8,0.4c0.3,0.1,0.7,0.3,1.2,0.4c0.7,0.2,1.2,0.4,1.5,0.7
			c0.3,0.2,0.5,0.4,0.6,0.6c0.1,0.1,0.2,0.3,0.2,0.5s0.1,0.5,0.1,0.8c0,0.4-0.1,0.7-0.2,0.9s-0.3,0.5-0.4,0.7
			c-0.3,0.3-0.6,0.6-1.2,0.7S756.4,274.7,756,274.7z"/>
		<path d="M764.8,274.4v-1l4.5-7.1H765v-1h5.7v1l-4.5,7.1h4.6v1H764.8z"/>
		<path d="M774.8,274.7c-0.3,0-0.7,0-1-0.1c-0.3-0.1-0.6-0.2-0.8-0.5c-0.2-0.2-0.4-0.5-0.6-0.8s-0.2-0.8-0.2-1.3v-6.7h1.3v6.2
			c0,0.4,0,0.7,0.1,0.9c0.1,0.3,0.2,0.5,0.3,0.6s0.3,0.3,0.6,0.4s0.5,0.1,0.8,0.1c0.4,0,0.7-0.1,1-0.2s0.6-0.4,0.8-0.6
			c0.2-0.3,0.4-0.6,0.5-0.9s0.2-0.7,0.2-1v-5.4h1.3v9.1h-1.3v-1.3c-0.4,0.6-0.8,1-1.3,1.2S775.4,274.7,774.8,274.7z"/>
		<path d="M789.7,274.7c-0.6,0-1.1-0.1-1.6-0.2s-0.8-0.4-1.1-0.6c-0.3-0.3-0.6-0.6-0.7-1c-0.2-0.4-0.3-0.8-0.4-1.3l1.2-0.1
			c0.1,0.8,0.4,1.3,0.8,1.7c0.4,0.4,0.9,0.5,1.6,0.5c0.3,0,0.6,0,0.9-0.1c0.3-0.1,0.5-0.2,0.7-0.4c0.4-0.4,0.6-0.8,0.7-1.3
			c0.1-0.5,0.2-1.1,0.2-1.7c0-0.5-0.1-0.9-0.2-1.3s-0.3-0.7-0.5-1c-0.2-0.2-0.5-0.4-0.7-0.5c-0.3-0.1-0.6-0.1-1-0.1
			c-0.4,0-0.8,0.1-1.1,0.2s-0.6,0.3-0.7,0.5c-0.2,0.2-0.4,0.4-0.5,0.7l-1-0.1l0.4-6.8h6v1.1h-4.9l-0.2,4.2c0.5-0.4,0.9-0.6,1.3-0.7
			s0.8-0.1,1.2-0.1c0.5,0,1,0.1,1.4,0.2s0.7,0.3,1,0.6c0.4,0.5,0.7,1,0.8,1.5s0.2,1.1,0.2,1.7c0,0.6-0.1,1.1-0.2,1.5
			c-0.1,0.5-0.3,0.9-0.4,1.2c-0.2,0.3-0.4,0.6-0.6,0.8c-0.3,0.3-0.7,0.5-1,0.6S790.3,274.7,789.7,274.7z"/>
		<path d="M802.9,274.7c-0.5,0-0.9-0.1-1.3-0.2c-0.4-0.1-0.7-0.2-0.9-0.4s-0.4-0.3-0.5-0.4c-0.2-0.2-0.3-0.4-0.5-0.6
			s-0.3-0.5-0.4-0.8l1.3-0.5c0.1,0.3,0.2,0.6,0.3,0.8s0.3,0.4,0.5,0.5c0.2,0.1,0.4,0.2,0.6,0.3s0.5,0.1,0.7,0.1c0.3,0,0.6,0,0.9-0.1
			s0.5-0.2,0.6-0.4c0.3-0.3,0.5-0.8,0.6-1.4c0.1-0.6,0.1-1.2,0.1-1.9v-8.3h1.4v8.2c0,0.9,0,1.5-0.1,2c-0.1,0.5-0.2,0.9-0.3,1.2
			c-0.2,0.3-0.3,0.6-0.6,0.8c-0.3,0.3-0.6,0.5-1.1,0.7C804,274.6,803.5,274.7,802.9,274.7z"/>
		<path d="M811.5,274.7c-0.2,0-0.5,0-0.7-0.1c-0.2,0-0.4-0.1-0.6-0.2s-0.4-0.2-0.5-0.3c-0.2-0.1-0.3-0.3-0.4-0.4
			c-0.2-0.3-0.3-0.5-0.4-0.8c-0.1-0.3-0.2-0.7-0.2-1c0-0.3,0-0.7,0.1-0.9c0.1-0.3,0.2-0.5,0.4-0.7c0.3-0.4,0.6-0.6,1.1-0.8
			s1-0.3,1.7-0.3h2.3v-1.2c0-0.5-0.1-0.9-0.4-1.2s-0.5-0.5-0.8-0.5c-0.3-0.1-0.6-0.1-0.8-0.1c-0.6,0-1,0.1-1.4,0.3s-0.6,0.5-0.8,0.9
			l-1.1-0.4c0.2-0.6,0.6-1.1,1.2-1.4s1.3-0.5,2.2-0.5c0.6,0,1.1,0.1,1.5,0.2c0.4,0.1,0.8,0.4,1.1,0.7c0.2,0.3,0.4,0.6,0.5,0.9
			s0.1,0.7,0.1,1.1v6.5h-1.3v-0.9c-0.3,0.3-0.6,0.6-0.9,0.7s-0.6,0.3-1,0.4S811.8,274.7,811.5,274.7z M811.9,273.6
			c0.5,0,0.9-0.1,1.3-0.3s0.7-0.5,0.8-0.8s0.3-0.6,0.3-0.9V270h-1.9c-0.4,0-0.8,0-1.1,0.1s-0.6,0.2-0.7,0.3s-0.3,0.3-0.4,0.6
			s-0.1,0.5-0.1,0.7c0,0.3,0,0.5,0.1,0.7s0.2,0.4,0.3,0.5C810.7,273.4,811.2,273.6,811.9,273.6z"/>
		<path d="M817.9,274.4v-13h1.3v5.1c0.4-0.6,0.8-1,1.3-1.2s1-0.4,1.6-0.4c0.5,0,1,0.1,1.4,0.3c0.4,0.2,0.7,0.6,0.9,1
			c0.2,0.4,0.3,0.9,0.3,1.4v6.7h-1.3v-6.2c0-0.7-0.1-1.2-0.4-1.5s-0.7-0.5-1.3-0.5c-0.4,0-0.7,0.1-1,0.2s-0.6,0.4-0.8,0.7
			c-0.2,0.3-0.4,0.6-0.5,0.9c-0.1,0.3-0.2,0.7-0.2,1v5.4H817.9z"/>
		<path d="M827.1,274.4v-9.1h1.3v2c0.2-0.5,0.5-1,0.9-1.3s0.7-0.5,1.1-0.6s0.6-0.1,0.9-0.1h0.2v1.3h-0.3c-0.5,0-1,0.1-1.3,0.4
			c-0.4,0.3-0.6,0.6-0.8,1s-0.3,0.8-0.4,1.2s-0.1,0.8-0.1,1.2v4.2H827.1z"/>
		<path d="M835.8,274.7c-0.5,0-0.9-0.1-1.2-0.2c-0.4-0.1-0.7-0.3-1-0.4c-0.3-0.2-0.5-0.4-0.7-0.7s-0.3-0.5-0.4-0.8
			c-0.1-0.4-0.2-0.8-0.3-1.2s-0.1-0.9-0.1-1.4c0-0.7,0-1.3,0.1-1.9s0.2-1,0.4-1.4c0.2-0.4,0.4-0.7,0.6-0.9c0.3-0.3,0.6-0.5,1-0.7
			c0.4-0.2,0.9-0.2,1.5-0.2c0.5,0,1,0.1,1.4,0.2s0.7,0.3,1,0.6c0.4,0.4,0.7,0.9,0.8,1.5c0.1,0.6,0.2,1.3,0.2,2.2v0.8h-5.7v0.2
			c0,0.6,0.1,1.1,0.2,1.5c0.1,0.4,0.3,0.7,0.5,1c0.2,0.2,0.5,0.4,0.8,0.5s0.6,0.1,1,0.1c0.4,0,0.7-0.1,1-0.2
			c0.3-0.1,0.5-0.3,0.7-0.5s0.3-0.3,0.4-0.5l1,0.6c-0.2,0.4-0.5,0.7-0.8,0.9c-0.3,0.3-0.7,0.4-1.1,0.5
			C836.7,274.7,836.2,274.7,835.8,274.7z M833.4,269.2h4.4c0-0.9-0.1-1.6-0.3-2.1c-0.2-0.5-0.5-0.8-0.8-0.9s-0.7-0.2-1-0.2
			c-0.3,0-0.6,0-0.9,0.1c-0.3,0.1-0.5,0.3-0.7,0.5c-0.2,0.2-0.4,0.6-0.5,1C833.5,268.1,833.5,268.6,833.4,269.2z"/>
	</g>
	<g>
		<path d="M60.8,277.5c-1.7,0-3.3-0.2-4.9-0.6c-1.6-0.4-2.9-1.1-4.1-2c-1.2-0.9-2.2-2.2-2.9-3.7c-0.7-1.5-1.1-3.4-1.1-5.6
			c0-1.6,0.2-3,0.6-4.3c0.4-1.3,1.1-2.4,1.9-3.3c0.9-0.9,1.8-1.6,2.9-2.1c-0.9-0.6-1.6-1.3-2.2-2c-0.6-0.8-1-1.5-1.3-2.3
			c-0.3-0.8-0.5-1.5-0.6-2.2S49,248,49,247.6c0-1.4,0.2-2.7,0.7-4s1.1-2.4,2.1-3.4c0.9-1,2.2-1.8,3.6-2.3c1.5-0.6,3.3-0.9,5.3-0.9
			c2.1,0,3.8,0.3,5.3,0.9c1.5,0.6,2.7,1.4,3.6,2.3c0.9,1,1.6,2.1,2.1,3.4c0.4,1.3,0.7,2.6,0.7,4c0,1-0.1,2.1-0.4,3.1
			c-0.3,1-0.8,2-1.4,2.9c-0.7,0.9-1.4,1.6-2.3,2.2c1.5,0.8,2.7,1.7,3.6,3c0.8,1.2,1.4,2.4,1.6,3.6s0.3,2.2,0.3,3.2
			c0,2.2-0.4,4.1-1.1,5.6c-0.7,1.5-1.7,2.7-2.9,3.7c-1.2,0.9-2.6,1.6-4.1,2C64.1,277.3,62.4,277.5,60.8,277.5z M60.8,271.8
			c1.5,0,2.7-0.3,3.6-0.8c1-0.5,1.6-1.3,1.9-2.3c0.3-1,0.5-2.1,0.5-3.3c0-1.5-0.3-2.7-0.8-3.6c-0.5-1-1.3-1.7-2.2-2
			c-1-0.4-2-0.6-3-0.6c-1.1,0-2,0.2-2.8,0.5s-1.4,0.7-1.9,1.3s-0.8,1.2-1.1,2c-0.2,0.8-0.3,1.6-0.3,2.6c0,1.2,0.1,2.2,0.4,3
			c0.3,0.8,0.7,1.5,1.2,2c0.5,0.5,1.2,0.9,1.9,1.1S59.8,271.8,60.8,271.8z M60.8,253.4c1.3,0,2.3-0.3,3-0.8c0.8-0.6,1.2-1.3,1.5-2.2
			s0.4-1.8,0.4-2.7c0-1.6-0.3-2.9-1.1-3.8c-0.8-0.9-2-1.4-3.8-1.4s-3,0.5-3.8,1.4c-0.8,0.9-1.2,2.2-1.2,3.8c0,1.8,0.4,3.2,1.2,4.2
			C57.7,252.9,59,253.4,60.8,253.4z"/>
		<path d="M81.1,259.5c-0.7-0.5-1.3-1.2-1.8-1.9c-0.5-0.7-0.8-1.6-1.1-2.5c-0.3-0.9-0.4-1.9-0.5-2.9c-0.1-1-0.1-2.1-0.1-3.2
			c0-1.1,0.1-2.3,0.2-3.5s0.4-2.5,1-3.8s1.3-2.3,2.4-3.1c0.7-0.5,1.6-0.9,2.6-1.2c1-0.3,2.1-0.4,3.5-0.4c1.4,0,2.5,0.1,3.5,0.4
			c1,0.3,1.8,0.7,2.6,1.2c0.7,0.5,1.4,1.3,1.9,2.2c0.6,1,1,2.1,1.2,3.4c0.3,1.3,0.4,2.9,0.4,4.8c0,1.1-0.1,2.3-0.2,3.6
			c-0.1,1.3-0.4,2.5-0.9,3.7c-0.5,1.2-1.2,2.1-2.1,2.9c-0.8,0.7-1.7,1.2-2.8,1.5c-1.1,0.3-2.3,0.5-3.6,0.5c-1.3,0-2.5-0.1-3.5-0.4
			C82.7,260.5,81.8,260.1,81.1,259.5z M89.2,256c0.4-0.3,0.7-1,1-1.9c0.3-0.9,0.4-2.6,0.4-5c0-1.3-0.1-2.5-0.2-3.5
			c-0.1-1-0.3-1.8-0.5-2.2c-0.2-0.5-0.4-0.8-0.7-1.1c-0.5-0.4-1.1-0.6-2-0.6c-0.9,0-1.5,0.2-2,0.6c-0.4,0.4-0.8,1-1,2
			c-0.3,0.9-0.4,2.6-0.4,4.9c0,1.4,0,2.5,0.1,3.3s0.2,1.5,0.4,2c0.1,0.5,0.3,0.8,0.5,1.1c0.2,0.2,0.3,0.4,0.5,0.5
			c0.2,0.2,0.5,0.3,0.8,0.5c0.3,0.1,0.7,0.2,1.2,0.2c0.5,0,0.9-0.1,1.2-0.2S89,256.2,89.2,256z M91.2,277.5l13.6-40.5h6l-13.6,40.5
			H91.2z M108.9,275.8c-0.7-0.5-1.3-1.2-1.8-1.9c-0.5-0.7-0.8-1.6-1.1-2.5c-0.3-0.9-0.4-1.9-0.5-2.9c-0.1-1-0.1-2.1-0.1-3.2
			c0-1.1,0.1-2.3,0.2-3.5s0.4-2.5,1-3.8s1.3-2.3,2.4-3.1c0.7-0.5,1.6-0.9,2.6-1.2s2.1-0.4,3.5-0.4c1.3,0,2.5,0.1,3.5,0.4
			s1.8,0.7,2.6,1.2c0.7,0.5,1.4,1.3,1.9,2.2c0.6,1,1,2.1,1.2,3.4c0.3,1.3,0.4,2.9,0.4,4.8c0,1.1,0,2.3-0.1,3.5
			c-0.1,1.2-0.4,2.5-0.9,3.7c-0.5,1.2-1.2,2.2-2.2,3c-0.8,0.7-1.7,1.2-2.8,1.5c-1.1,0.3-2.2,0.5-3.6,0.5c-1.4,0-2.5-0.1-3.5-0.4
			C110.5,276.7,109.6,276.3,108.9,275.8z M117,272.3c0.4-0.4,0.8-1,1-1.9c0.3-0.9,0.4-2.6,0.4-5c0-1.3-0.1-2.5-0.2-3.6
			c-0.1-1-0.3-1.8-0.5-2.2c-0.2-0.4-0.4-0.8-0.7-1.1c-0.4-0.4-1.1-0.6-2-0.6c-0.9,0-1.6,0.2-2,0.6c-0.1,0.1-0.3,0.3-0.5,0.7
			c-0.2,0.3-0.4,1-0.6,2c-0.2,1-0.3,2.4-0.3,4.2c0,1.4,0,2.5,0.1,3.3c0.1,0.9,0.2,1.5,0.4,2c0.1,0.5,0.3,0.8,0.5,1.1
			c0.2,0.2,0.3,0.4,0.5,0.5c0.4,0.4,1.1,0.6,2,0.6C115.8,272.9,116.5,272.7,117,272.3z"/>
	</g>
	<g>
		<path d="M734.5,195.7c-0.6,0-1.1-0.1-1.6-0.4s-0.8-0.6-1.1-1.1v1.2h-1.3v-13h1.3v4.8c0.3-0.4,0.7-0.7,1.2-0.9s1-0.3,1.6-0.3
			c0.6,0,1.1,0.1,1.6,0.4s0.8,0.6,1.1,1.1c0.2,0.4,0.3,0.8,0.4,1.4s0.2,1.2,0.2,1.9c0,0.6,0,1.2-0.1,1.6s-0.2,0.9-0.3,1.3
			c-0.2,0.6-0.5,1-0.8,1.3s-0.7,0.5-1.1,0.6C735.1,195.7,734.7,195.7,734.5,195.7z M734.1,194.6c0.6,0,1.1-0.2,1.4-0.5
			s0.6-0.8,0.7-1.3c0-0.2,0.1-0.5,0.1-0.9s0.1-0.8,0.1-1.1c0-0.4,0-0.7,0-1.1c0-0.3-0.1-0.7-0.2-1c-0.1-0.4-0.2-0.7-0.4-0.9
			s-0.4-0.4-0.7-0.5c-0.3-0.1-0.6-0.2-0.9-0.2c-0.3,0-0.6,0.1-0.9,0.2s-0.5,0.3-0.8,0.5c-0.2,0.2-0.4,0.5-0.5,0.8
			c-0.1,0.3-0.2,0.7-0.2,1.1v2.2c0,0.4,0.1,0.7,0.2,1.1s0.3,0.6,0.5,0.8c0.2,0.2,0.4,0.4,0.7,0.5S733.7,194.6,734.1,194.6z"/>
		<path d="M739.7,184v-1.5h1.3v1.5H739.7z M739.7,195.4v-9.1h1.3v9.1H739.7z"/>
		<path d="M746.4,195.7c-0.5,0-0.9-0.1-1.2-0.2s-0.7-0.2-1-0.4c-0.5-0.4-0.9-0.8-1.1-1.4l1.1-0.5c0.2,0.3,0.3,0.6,0.6,0.8
			c0.2,0.2,0.5,0.4,0.8,0.5c0.3,0.1,0.6,0.1,0.9,0.1c0.4,0,0.8-0.1,1.1-0.2c0.3-0.1,0.5-0.3,0.7-0.5c0.1-0.2,0.2-0.5,0.2-0.8
			c0-0.3-0.1-0.6-0.2-0.8s-0.4-0.4-0.7-0.5c-0.6-0.2-1-0.4-1.2-0.4c-0.2-0.1-0.4-0.1-0.5-0.2c-0.5-0.2-0.9-0.4-1.2-0.6
			s-0.6-0.4-0.7-0.6s-0.3-0.4-0.3-0.7c-0.1-0.2-0.1-0.5-0.1-0.7c0-0.2,0-0.4,0.1-0.6c0-0.2,0.1-0.5,0.2-0.7c0.2-0.3,0.4-0.5,0.6-0.7
			c0.3-0.2,0.6-0.4,1-0.5s0.8-0.1,1.2-0.1c0.7,0,1.4,0.1,1.9,0.4s0.9,0.7,1.2,1.3l-1,0.5c-0.1-0.3-0.3-0.5-0.4-0.6s-0.3-0.3-0.5-0.4
			s-0.3-0.2-0.5-0.2s-0.4-0.1-0.6-0.1c-0.3,0-0.6,0-0.9,0.1c-0.2,0.1-0.5,0.2-0.6,0.3c-0.1,0.1-0.2,0.3-0.3,0.4s-0.1,0.4-0.1,0.6
			c0,0.2,0.1,0.4,0.2,0.6s0.3,0.3,0.5,0.5c0.2,0.1,0.5,0.3,0.8,0.4c0.3,0.1,0.7,0.3,1.2,0.4c0.7,0.2,1.2,0.4,1.5,0.7
			c0.3,0.2,0.5,0.4,0.6,0.6c0.1,0.1,0.2,0.3,0.2,0.5s0.1,0.5,0.1,0.8c0,0.4-0.1,0.7-0.2,0.9s-0.3,0.5-0.4,0.7
			c-0.3,0.3-0.6,0.6-1.2,0.7S746.9,195.7,746.4,195.7z"/>
		<path d="M755.2,195.4v-1l4.5-7.1h-4.3v-1h5.7v1l-4.5,7.1h4.6v1H755.2z"/>
		<path d="M765.2,195.7c-0.3,0-0.7,0-1-0.1c-0.3-0.1-0.6-0.2-0.8-0.5c-0.2-0.2-0.4-0.5-0.6-0.8s-0.2-0.8-0.2-1.3v-6.7h1.3v6.2
			c0,0.4,0,0.7,0.1,0.9c0.1,0.3,0.2,0.5,0.3,0.6s0.3,0.3,0.6,0.4s0.5,0.1,0.8,0.1c0.4,0,0.7-0.1,1-0.2s0.6-0.4,0.8-0.6
			c0.2-0.3,0.4-0.6,0.5-0.9s0.2-0.7,0.2-1v-5.4h1.3v9.1h-1.3v-1.3c-0.4,0.6-0.8,1-1.3,1.2S765.8,195.7,765.2,195.7z"/>
		<path d="M777.9,195.4v-1.1h2v-10.1l-1.9,1.2l-0.6-1l2.9-1.8h1v11.7h1.9v1.1H777.9z"/>
		<path d="M789.6,195.7c-0.6,0-1.1-0.1-1.6-0.2c-0.4-0.2-0.8-0.4-1.1-0.7c-0.4-0.4-0.7-0.9-0.9-1.6c-0.2-0.7-0.3-1.3-0.4-2.1
			c0-0.7-0.1-1.4-0.1-2c0-1,0-2,0.1-2.7s0.2-1.4,0.5-1.8c0.2-0.5,0.5-0.8,0.7-1.1c0.3-0.3,0.7-0.5,1.1-0.7c0.4-0.2,1-0.2,1.6-0.2
			s1.1,0.1,1.6,0.2c0.4,0.2,0.8,0.4,1.1,0.7c0.4,0.4,0.7,0.9,0.9,1.6s0.3,1.3,0.4,2.1s0.1,1.4,0.1,2c0,1.1,0,2-0.1,2.7
			c-0.1,0.7-0.2,1.3-0.5,1.8s-0.5,0.9-0.7,1.1c-0.3,0.3-0.7,0.5-1.1,0.7C790.8,195.6,790.2,195.7,789.6,195.7z M789.6,194.6
			c0.3,0,0.6,0,0.9-0.1c0.3-0.1,0.5-0.2,0.7-0.4c0.3-0.3,0.5-0.7,0.6-1.2s0.3-1.1,0.3-1.8c0-0.7,0.1-1.3,0.1-2c0-1.1,0-1.9-0.1-2.6
			c-0.1-0.7-0.2-1.2-0.4-1.6s-0.3-0.6-0.5-0.8c-0.2-0.2-0.4-0.3-0.7-0.4c-0.3-0.1-0.5-0.1-0.9-0.1c-0.3,0-0.6,0-0.9,0.1
			s-0.5,0.2-0.7,0.4c-0.3,0.3-0.5,0.7-0.6,1.2s-0.3,1.1-0.3,1.8c0,0.7-0.1,1.4-0.1,2c0,1.1,0,2,0.1,2.6c0.1,0.7,0.2,1.2,0.4,1.5
			s0.3,0.6,0.5,0.8c0.2,0.2,0.4,0.3,0.7,0.4S789.3,194.6,789.6,194.6z"/>
		<path d="M802.9,195.7c-0.5,0-0.9-0.1-1.3-0.2c-0.4-0.1-0.7-0.2-0.9-0.4s-0.4-0.3-0.5-0.4c-0.2-0.2-0.3-0.4-0.5-0.6
			s-0.3-0.5-0.4-0.8l1.3-0.5c0.1,0.3,0.2,0.6,0.3,0.8s0.3,0.4,0.5,0.5c0.2,0.1,0.4,0.2,0.6,0.3s0.5,0.1,0.7,0.1c0.3,0,0.6,0,0.9-0.1
			s0.5-0.2,0.6-0.4c0.3-0.3,0.5-0.8,0.6-1.4c0.1-0.6,0.1-1.2,0.1-1.9v-8.3h1.4v8.2c0,0.9,0,1.5-0.1,2c-0.1,0.5-0.2,0.9-0.3,1.2
			c-0.2,0.3-0.3,0.6-0.6,0.8c-0.3,0.3-0.6,0.5-1.1,0.7C804,195.6,803.5,195.7,802.9,195.7z"/>
		<path d="M811.5,195.7c-0.2,0-0.5,0-0.7-0.1c-0.2,0-0.4-0.1-0.6-0.2s-0.4-0.2-0.5-0.3c-0.2-0.1-0.3-0.3-0.4-0.4
			c-0.2-0.3-0.3-0.5-0.4-0.8c-0.1-0.3-0.2-0.7-0.2-1c0-0.3,0-0.7,0.1-0.9c0.1-0.3,0.2-0.5,0.4-0.7c0.3-0.4,0.6-0.6,1.1-0.8
			s1-0.3,1.7-0.3h2.3v-1.2c0-0.5-0.1-0.9-0.4-1.2s-0.5-0.5-0.8-0.5c-0.3-0.1-0.6-0.1-0.8-0.1c-0.6,0-1,0.1-1.4,0.3s-0.6,0.5-0.8,0.9
			l-1.1-0.4c0.2-0.6,0.6-1.1,1.2-1.4s1.3-0.5,2.2-0.5c0.6,0,1.1,0.1,1.5,0.2c0.4,0.1,0.8,0.4,1.1,0.7c0.2,0.3,0.4,0.6,0.5,0.9
			s0.1,0.7,0.1,1.1v6.5h-1.3v-0.9c-0.3,0.3-0.6,0.6-0.9,0.7s-0.6,0.3-1,0.4S811.8,195.7,811.5,195.7z M811.9,194.6
			c0.5,0,0.9-0.1,1.3-0.3s0.7-0.5,0.8-0.8s0.3-0.6,0.3-0.9V191h-1.9c-0.4,0-0.8,0-1.1,0.1s-0.6,0.2-0.7,0.3s-0.3,0.3-0.4,0.6
			s-0.1,0.5-0.1,0.7c0,0.3,0,0.5,0.1,0.7s0.2,0.4,0.3,0.5C810.7,194.4,811.2,194.6,811.9,194.6z"/>
		<path d="M817.9,195.4v-13h1.3v5.1c0.4-0.6,0.8-1,1.3-1.2s1-0.4,1.6-0.4c0.5,0,1,0.1,1.4,0.3c0.4,0.2,0.7,0.6,0.9,1
			c0.2,0.4,0.3,0.9,0.3,1.4v6.7h-1.3v-6.2c0-0.7-0.1-1.2-0.4-1.5s-0.7-0.5-1.3-0.5c-0.4,0-0.7,0.1-1,0.2s-0.6,0.4-0.8,0.7
			c-0.2,0.3-0.4,0.6-0.5,0.9c-0.1,0.3-0.2,0.7-0.2,1v5.4H817.9z"/>
		<path d="M827.1,195.4v-9.1h1.3v2c0.2-0.5,0.5-1,0.9-1.3s0.7-0.5,1.1-0.6s0.6-0.1,0.9-0.1h0.2v1.3h-0.3c-0.5,0-1,0.1-1.3,0.4
			c-0.4,0.3-0.6,0.6-0.8,1s-0.3,0.8-0.4,1.2s-0.1,0.8-0.1,1.2v4.2H827.1z"/>
		<path d="M835.8,195.7c-0.5,0-0.9-0.1-1.2-0.2c-0.4-0.1-0.7-0.3-1-0.4c-0.3-0.2-0.5-0.4-0.7-0.7s-0.3-0.5-0.4-0.8
			c-0.1-0.4-0.2-0.8-0.3-1.2s-0.1-0.9-0.1-1.4c0-0.7,0-1.3,0.1-1.9s0.2-1,0.4-1.4c0.2-0.4,0.4-0.7,0.6-0.9c0.3-0.3,0.6-0.5,1-0.7
			c0.4-0.2,0.9-0.2,1.5-0.2c0.5,0,1,0.1,1.4,0.2s0.7,0.3,1,0.6c0.4,0.4,0.7,0.9,0.8,1.5c0.1,0.6,0.2,1.3,0.2,2.2v0.8h-5.7v0.2
			c0,0.6,0.1,1.1,0.2,1.5c0.1,0.4,0.3,0.7,0.5,1c0.2,0.2,0.5,0.4,0.8,0.5s0.6,0.1,1,0.1c0.4,0,0.7-0.1,1-0.2
			c0.3-0.1,0.5-0.3,0.7-0.5s0.3-0.3,0.4-0.5l1,0.6c-0.2,0.4-0.5,0.7-0.8,0.9c-0.3,0.3-0.7,0.4-1.1,0.5
			C836.7,195.7,836.2,195.7,835.8,195.7z M833.4,190.2h4.4c0-0.9-0.1-1.6-0.3-2.1c-0.2-0.5-0.5-0.8-0.8-0.9s-0.7-0.2-1-0.2
			c-0.3,0-0.6,0-0.9,0.1c-0.3,0.1-0.5,0.3-0.7,0.5c-0.2,0.2-0.4,0.6-0.5,1C833.5,189.1,833.5,189.6,833.4,190.2z"/>
	</g>
	<g>
		<path d="M16.9,196.6v-5.7c0.3-0.3,0.7-0.7,1.2-1.2s1.2-1.2,1.9-1.9c0.7-0.7,1.5-1.5,2.4-2.4c0.8-0.9,1.7-1.8,2.6-2.8
			c0.9-1,1.8-2,2.6-3c0.9-1,1.7-2,2.4-2.9s1.4-1.9,2-2.8c0.6-0.9,1-1.7,1.3-2.4c0.6-1.5,0.9-2.8,0.9-3.9c0-0.9-0.2-1.7-0.6-2.5
			s-0.9-1.3-1.7-1.7c-0.8-0.4-1.7-0.6-2.6-0.6c-1.1,0-2,0.2-2.7,0.6c-0.7,0.4-1.3,0.9-1.7,1.5c-0.5,0.8-0.9,1.6-1,2.6
			c-0.2,1-0.3,1.9-0.5,2.8l-6.8-0.8c0.1-1.7,0.4-3.2,0.7-4.4c0.3-1.2,0.8-2.2,1.3-2.9c0.5-0.8,1-1.4,1.5-1.9c0.9-0.9,1.9-1.6,3-2.1
			c1.1-0.5,2.2-0.8,3.4-0.9c1.2-0.1,2.2-0.2,3.2-0.2c3.1,0,5.6,0.6,7.4,1.8s3,2.6,3.5,4.2c0.5,1.6,0.8,3.1,0.8,4.5
			c0,1.8-0.3,3.6-1,5.3c-0.6,1.7-1.7,3.5-3.1,5.3c-1.4,1.9-3,3.7-4.7,5.6l-6.3,6.7h15v6.2H16.9z"/>
		<path d="M60.7,197.5c-2.1,0-4-0.3-5.6-0.9c-1.6-0.6-2.8-1.4-3.9-2.4c-1-1-1.8-2.2-2.3-3.6c-0.5-1.4-0.8-2.9-0.9-4.6l6.7-0.7
			c0.2,2.3,0.8,3.9,1.7,4.8c0.9,1,2.2,1.5,3.9,1.5c0.8,0,1.5-0.1,2-0.4c0.6-0.2,1-0.6,1.4-1c0.6-0.6,1.1-1.6,1.3-2.8
			c0.3-1.2,0.4-2.6,0.4-4.3c0-1.1-0.1-2.1-0.3-3c-0.2-0.9-0.6-1.6-1.1-2.2c-0.4-0.5-1-0.9-1.6-1.2s-1.4-0.4-2.2-0.4
			c-1.1,0-2,0.2-2.7,0.5s-1.4,0.9-1.9,1.5c-0.5,0.6-0.9,1.3-1.3,1.9l-5.3-0.6l1.5-21.9h20v6h-14l-0.5,8.3c0.7-0.4,1.3-0.7,1.9-0.9
			c0.6-0.2,1.2-0.4,2-0.4s1.5-0.1,2.3-0.1c1.6,0,3,0.2,4.3,0.7c1.2,0.5,2.2,1.1,3.1,2c1.1,1.1,1.9,2.6,2.4,4.3
			c0.5,1.7,0.8,3.7,0.8,5.9c0,1.5-0.2,3.1-0.5,4.6c-0.4,1.5-0.9,2.9-1.5,3.9c-0.7,1.1-1.4,1.9-2.1,2.6c-1,0.9-2.1,1.5-3.4,2
			C64,197.2,62.5,197.5,60.7,197.5z"/>
		<path d="M81.1,179.5c-0.7-0.5-1.3-1.2-1.8-1.9c-0.5-0.7-0.8-1.6-1.1-2.5c-0.3-0.9-0.4-1.9-0.5-2.9c-0.1-1-0.1-2.1-0.1-3.2
			c0-1.1,0.1-2.3,0.2-3.5s0.4-2.5,1-3.8c0.6-1.3,1.3-2.3,2.4-3.1c0.7-0.5,1.6-0.9,2.6-1.2c1-0.3,2.1-0.4,3.5-0.4
			c1.4,0,2.5,0.1,3.5,0.4c1,0.3,1.8,0.7,2.6,1.2c0.7,0.5,1.4,1.3,1.9,2.2c0.6,1,1,2.1,1.2,3.4c0.3,1.3,0.4,2.9,0.4,4.8
			c0,1.1-0.1,2.3-0.2,3.6c-0.1,1.3-0.4,2.5-0.9,3.7c-0.5,1.2-1.2,2.1-2.1,2.9c-0.8,0.7-1.7,1.2-2.8,1.5c-1.1,0.3-2.3,0.5-3.6,0.5
			c-1.3,0-2.5-0.1-3.5-0.4C82.7,180.5,81.8,180.1,81.1,179.5z M89.2,176c0.4-0.3,0.7-1,1-1.9c0.3-0.9,0.4-2.6,0.4-5
			c0-1.3-0.1-2.5-0.2-3.5c-0.1-1-0.3-1.8-0.5-2.2s-0.4-0.8-0.7-1.1c-0.5-0.4-1.1-0.6-2-0.6c-0.9,0-1.5,0.2-2,0.6c-0.4,0.4-0.8,1-1,2
			c-0.3,0.9-0.4,2.6-0.4,4.9c0,1.4,0,2.5,0.1,3.3c0.1,0.9,0.2,1.5,0.4,2c0.1,0.5,0.3,0.8,0.5,1.1c0.2,0.2,0.3,0.4,0.5,0.5
			c0.2,0.2,0.5,0.3,0.8,0.5s0.7,0.2,1.2,0.2s0.9-0.1,1.2-0.2S89,176.2,89.2,176z M91.2,197.5l13.6-40.5h6l-13.6,40.5H91.2z
			 M108.9,195.8c-0.7-0.5-1.3-1.2-1.8-1.9s-0.8-1.6-1.1-2.5s-0.4-1.9-0.5-2.9s-0.1-2.1-0.1-3.2c0-1.1,0.1-2.3,0.2-3.5s0.4-2.5,1-3.8
			s1.3-2.3,2.4-3.1c0.7-0.5,1.6-0.9,2.6-1.2c1-0.3,2.1-0.4,3.5-0.4c1.3,0,2.5,0.1,3.5,0.4s1.8,0.7,2.6,1.2s1.4,1.3,1.9,2.2
			c0.6,1,1,2.1,1.2,3.4c0.2,1.3,0.4,2.9,0.4,4.8c0,1.1,0,2.3-0.1,3.5c-0.1,1.2-0.4,2.5-0.9,3.7c-0.5,1.2-1.2,2.2-2.2,3
			c-0.8,0.7-1.7,1.2-2.8,1.5s-2.2,0.5-3.6,0.5c-1.4,0-2.5-0.1-3.5-0.4C110.5,196.7,109.6,196.3,108.9,195.8z M117,192.3
			c0.4-0.4,0.8-1,1-1.9c0.3-0.9,0.4-2.6,0.4-5c0-1.3-0.1-2.5-0.2-3.6s-0.3-1.8-0.5-2.2c-0.2-0.4-0.4-0.8-0.7-1.1
			c-0.4-0.4-1.1-0.6-2-0.6c-0.9,0-1.6,0.2-2,0.6c-0.1,0.1-0.3,0.3-0.5,0.7c-0.2,0.3-0.4,1-0.6,2s-0.3,2.4-0.3,4.2
			c0,1.4,0,2.5,0.1,3.3s0.2,1.5,0.4,2c0.1,0.5,0.3,0.8,0.5,1.1c0.2,0.2,0.3,0.4,0.5,0.5c0.4,0.4,1.1,0.6,2,0.6
			C115.8,192.9,116.5,192.7,117,192.3z"/>
	</g>
	<g>
		<path d="M741.6,114.8c-0.3,0-0.7,0-1-0.1c-0.3-0.1-0.6-0.2-0.8-0.5c-0.2-0.2-0.4-0.5-0.6-0.8s-0.2-0.8-0.2-1.3v-6.7h1.3v6.2
			c0,0.4,0,0.7,0.1,0.9c0.1,0.3,0.2,0.5,0.3,0.6s0.3,0.3,0.6,0.4s0.5,0.1,0.8,0.1c0.4,0,0.7-0.1,1-0.2s0.6-0.4,0.8-0.6
			c0.2-0.3,0.4-0.6,0.5-0.9s0.2-0.7,0.2-1v-5.4h1.3v9.1h-1.3v-1.3c-0.4,0.6-0.8,1-1.3,1.2S742.2,114.8,741.6,114.8z M740.3,103.8
			v-1.5h1.3v1.5H740.3z M743,103.8v-1.5h1.3v1.5H743z"/>
		<path d="M752.2,114.8c-0.6,0-1.1-0.1-1.6-0.4s-0.8-0.6-1.1-1.1v1.2h-1.3v-13h1.3v4.8c0.3-0.4,0.7-0.7,1.2-0.9s1-0.3,1.6-0.3
			c0.6,0,1.1,0.1,1.6,0.4s0.8,0.6,1.1,1.1c0.2,0.4,0.3,0.8,0.4,1.4s0.1,1.2,0.1,1.9c0,0.6,0,1.2-0.1,1.6s-0.2,0.9-0.3,1.3
			c-0.2,0.6-0.5,1-0.8,1.3s-0.7,0.5-1,0.6C752.8,114.8,752.5,114.8,752.2,114.8z M751.8,113.7c0.6,0,1.1-0.2,1.4-0.5
			s0.6-0.8,0.7-1.3c0-0.2,0.1-0.5,0.1-0.9s0.1-0.8,0.1-1.1c0-0.4,0-0.7,0-1.1c0-0.3-0.1-0.7-0.2-1c-0.1-0.4-0.2-0.7-0.4-0.9
			s-0.4-0.4-0.7-0.5c-0.3-0.1-0.6-0.2-0.9-0.2c-0.3,0-0.6,0.1-0.9,0.2s-0.5,0.3-0.8,0.5c-0.2,0.2-0.4,0.5-0.5,0.8
			c-0.1,0.3-0.2,0.7-0.2,1.1v2.2c0,0.4,0.1,0.7,0.2,1.1s0.3,0.6,0.5,0.8c0.2,0.2,0.4,0.4,0.7,0.5S751.5,113.7,751.8,113.7z"/>
		<path d="M760.8,114.8c-0.5,0-0.9-0.1-1.2-0.2c-0.4-0.1-0.7-0.3-1-0.4c-0.3-0.2-0.5-0.4-0.7-0.7s-0.3-0.5-0.4-0.8
			c-0.1-0.4-0.2-0.8-0.3-1.2s-0.1-0.9-0.1-1.4c0-0.7,0-1.3,0.1-1.9s0.2-1,0.4-1.4c0.2-0.4,0.4-0.7,0.6-0.9c0.3-0.3,0.6-0.5,1-0.7
			c0.4-0.2,0.9-0.3,1.5-0.3c0.5,0,1,0.1,1.4,0.2s0.7,0.3,1,0.6c0.4,0.4,0.7,0.9,0.8,1.5c0.1,0.6,0.2,1.3,0.2,2.2v0.8h-5.7v0.2
			c0,0.6,0.1,1.1,0.2,1.5c0.1,0.4,0.3,0.7,0.5,1c0.2,0.2,0.5,0.4,0.8,0.5s0.6,0.1,1,0.1c0.4,0,0.7-0.1,1-0.2
			c0.3-0.1,0.5-0.3,0.7-0.5s0.3-0.3,0.4-0.5l1,0.6c-0.2,0.4-0.5,0.7-0.8,0.9c-0.3,0.3-0.7,0.4-1.1,0.5
			C761.7,114.8,761.3,114.8,760.8,114.8z M758.5,109.4h4.4c0-0.9-0.1-1.6-0.3-2.1c-0.2-0.5-0.5-0.8-0.8-0.9s-0.7-0.2-1-0.2
			c-0.3,0-0.6,0-0.9,0.1c-0.3,0.1-0.5,0.3-0.7,0.5c-0.2,0.2-0.4,0.6-0.5,1C758.6,108.2,758.5,108.7,758.5,109.4z"/>
		<path d="M766.2,114.5v-9.1h1.3v2c0.2-0.5,0.5-1,0.9-1.3s0.7-0.5,1.1-0.6s0.6-0.1,0.9-0.1h0.2v1.3h-0.3c-0.5,0-1,0.1-1.3,0.4
			c-0.4,0.3-0.6,0.6-0.8,1s-0.3,0.8-0.4,1.2s-0.1,0.8-0.1,1.2v4.2H766.2z"/>
		<path d="M777.9,114.5v-1.1h2v-10.1l-1.9,1.2l-0.6-1l2.9-1.8h1v11.7h1.9v1.1H777.9z"/>
		<path d="M789.6,114.8c-0.6,0-1.1-0.1-1.6-0.2c-0.4-0.2-0.8-0.4-1.1-0.7c-0.4-0.4-0.7-0.9-0.9-1.6c-0.2-0.7-0.3-1.3-0.4-2.1
			c0-0.7-0.1-1.4-0.1-2c0-1,0-2,0.1-2.7s0.2-1.4,0.5-1.8c0.2-0.5,0.5-0.8,0.7-1.1c0.3-0.3,0.7-0.5,1.1-0.7c0.4-0.2,1-0.2,1.6-0.2
			s1.1,0.1,1.6,0.2c0.4,0.2,0.8,0.4,1.1,0.7c0.4,0.4,0.7,0.9,0.9,1.6s0.3,1.3,0.4,2.1s0.1,1.4,0.1,2c0,1.1,0,2-0.1,2.7
			c-0.1,0.7-0.2,1.3-0.5,1.8s-0.5,0.9-0.7,1.1c-0.3,0.3-0.7,0.5-1.1,0.7C790.8,114.8,790.2,114.8,789.6,114.8z M789.6,113.7
			c0.3,0,0.6,0,0.9-0.1c0.3-0.1,0.5-0.2,0.7-0.4c0.3-0.3,0.5-0.7,0.6-1.2s0.3-1.1,0.3-1.8c0-0.7,0.1-1.3,0.1-2c0-1.1,0-1.9-0.1-2.6
			c-0.1-0.7-0.2-1.2-0.4-1.6s-0.3-0.6-0.5-0.8c-0.2-0.2-0.4-0.3-0.7-0.4c-0.3-0.1-0.5-0.1-0.9-0.1c-0.3,0-0.6,0-0.9,0.1
			s-0.5,0.2-0.7,0.4c-0.3,0.3-0.5,0.7-0.6,1.2s-0.3,1.1-0.3,1.8c0,0.7-0.1,1.4-0.1,2c0,1.1,0,2,0.1,2.6c0.1,0.7,0.2,1.2,0.4,1.5
			s0.3,0.6,0.5,0.8c0.2,0.2,0.4,0.3,0.7,0.4S789.3,113.7,789.6,113.7z"/>
		<path d="M802.9,114.8c-0.5,0-0.9-0.1-1.3-0.2c-0.4-0.1-0.7-0.2-0.9-0.4s-0.4-0.3-0.5-0.4c-0.2-0.2-0.3-0.4-0.5-0.6
			s-0.3-0.5-0.4-0.8l1.3-0.5c0.1,0.3,0.2,0.6,0.3,0.8s0.3,0.4,0.5,0.5c0.2,0.1,0.4,0.2,0.6,0.3s0.5,0.1,0.7,0.1c0.3,0,0.6,0,0.9-0.1
			s0.5-0.2,0.6-0.4c0.3-0.3,0.5-0.8,0.6-1.4c0.1-0.6,0.1-1.2,0.1-1.9v-8.3h1.4v8.2c0,0.9,0,1.5-0.1,2c-0.1,0.5-0.2,0.9-0.3,1.2
			c-0.2,0.3-0.3,0.6-0.6,0.8c-0.3,0.3-0.6,0.5-1.1,0.7C804,114.8,803.5,114.8,802.9,114.8z"/>
		<path d="M811.5,114.8c-0.2,0-0.5,0-0.7-0.1c-0.2,0-0.4-0.1-0.6-0.2s-0.4-0.2-0.5-0.3c-0.2-0.1-0.3-0.3-0.4-0.4
			c-0.2-0.3-0.3-0.5-0.4-0.8c-0.1-0.3-0.2-0.7-0.2-1c0-0.3,0-0.7,0.1-0.9c0.1-0.3,0.2-0.5,0.4-0.7c0.3-0.4,0.6-0.6,1.1-0.8
			s1-0.3,1.7-0.3h2.3V108c0-0.5-0.1-0.9-0.4-1.2s-0.5-0.5-0.8-0.5c-0.3-0.1-0.6-0.1-0.8-0.1c-0.6,0-1,0.1-1.4,0.3s-0.6,0.5-0.8,0.9
			l-1.1-0.4c0.2-0.6,0.6-1.1,1.2-1.4s1.3-0.5,2.2-0.5c0.6,0,1.1,0.1,1.5,0.2c0.4,0.1,0.8,0.4,1.1,0.7c0.2,0.3,0.4,0.6,0.5,0.9
			s0.1,0.7,0.1,1.1v6.5h-1.3v-0.9c-0.3,0.3-0.6,0.6-0.9,0.7s-0.6,0.3-1,0.4S811.8,114.8,811.5,114.8z M811.9,113.7
			c0.5,0,0.9-0.1,1.3-0.3s0.7-0.5,0.8-0.8s0.3-0.6,0.3-0.9v-1.5h-1.9c-0.4,0-0.8,0-1.1,0.1s-0.6,0.2-0.7,0.3s-0.3,0.3-0.4,0.6
			s-0.1,0.5-0.1,0.7c0,0.3,0,0.5,0.1,0.7s0.2,0.4,0.3,0.5C810.7,113.5,811.2,113.7,811.9,113.7z"/>
		<path d="M817.9,114.5v-13h1.3v5.1c0.4-0.6,0.8-1,1.3-1.2s1-0.4,1.6-0.4c0.5,0,1,0.1,1.4,0.3c0.4,0.2,0.7,0.6,0.9,1
			c0.2,0.4,0.3,0.9,0.3,1.4v6.7h-1.3v-6.2c0-0.7-0.1-1.2-0.4-1.5s-0.7-0.5-1.3-0.5c-0.4,0-0.7,0.1-1,0.2s-0.6,0.4-0.8,0.7
			c-0.2,0.3-0.4,0.6-0.5,0.9c-0.1,0.3-0.2,0.7-0.2,1v5.4H817.9z"/>
		<path d="M827.1,114.5v-9.1h1.3v2c0.2-0.5,0.5-1,0.9-1.3s0.7-0.5,1.1-0.6s0.6-0.1,0.9-0.1h0.2v1.3h-0.3c-0.5,0-1,0.1-1.3,0.4
			c-0.4,0.3-0.6,0.6-0.8,1s-0.3,0.8-0.4,1.2s-0.1,0.8-0.1,1.2v4.2H827.1z"/>
		<path d="M835.8,114.8c-0.5,0-0.9-0.1-1.2-0.2c-0.4-0.1-0.7-0.3-1-0.4c-0.3-0.2-0.5-0.4-0.7-0.7s-0.3-0.5-0.4-0.8
			c-0.1-0.4-0.2-0.8-0.3-1.2s-0.1-0.9-0.1-1.4c0-0.7,0-1.3,0.1-1.9s0.2-1,0.4-1.4c0.2-0.4,0.4-0.7,0.6-0.9c0.3-0.3,0.6-0.5,1-0.7
			c0.4-0.2,0.9-0.3,1.5-0.3c0.5,0,1,0.1,1.4,0.2s0.7,0.3,1,0.6c0.4,0.4,0.7,0.9,0.8,1.5c0.1,0.6,0.2,1.3,0.2,2.2v0.8h-5.7v0.2
			c0,0.6,0.1,1.1,0.2,1.5c0.1,0.4,0.3,0.7,0.5,1c0.2,0.2,0.5,0.4,0.8,0.5s0.6,0.1,1,0.1c0.4,0,0.7-0.1,1-0.2
			c0.3-0.1,0.5-0.3,0.7-0.5s0.3-0.3,0.4-0.5l1,0.6c-0.2,0.4-0.5,0.7-0.8,0.9c-0.3,0.3-0.7,0.4-1.1,0.5
			C836.7,114.8,836.2,114.8,835.8,114.8z M833.4,109.4h4.4c0-0.9-0.1-1.6-0.3-2.1c-0.2-0.5-0.5-0.8-0.8-0.9s-0.7-0.2-1-0.2
			c-0.3,0-0.6,0-0.9,0.1c-0.3,0.1-0.5,0.3-0.7,0.5c-0.2,0.2-0.4,0.6-0.5,1C833.5,108.2,833.5,108.7,833.4,109.4z"/>
	</g>
	<g>
		<path d="M30,116.5c-1.7,0-3.2-0.2-4.5-0.7c-1.3-0.4-2.4-1.1-3.3-1.9c-1.1-0.9-2-2.1-2.6-3.4c-0.6-1.3-1.1-2.7-1.5-4.3
			c-0.3-1.5-0.6-3.1-0.7-4.8s-0.2-3.3-0.2-5c0-1.7,0-3.3,0.1-5c0.1-1.7,0.3-3.3,0.6-4.9c0.3-1.6,0.8-3,1.5-4.4
			c0.6-1.4,1.5-2.5,2.6-3.5c0.9-0.9,2.1-1.5,3.5-2c1.4-0.5,3-0.7,4.8-0.7c2.1,0,3.9,0.3,5.4,0.8c1.5,0.5,2.7,1.4,3.6,2.4
			c0.7,0.8,1.2,1.7,1.6,2.7c0.4,1,0.7,2.2,0.9,3.5l-6.6,1.4c-0.4-1.6-0.8-2.7-1.1-3.3c-0.4-0.6-0.9-1-1.5-1.3
			c-0.6-0.3-1.5-0.5-2.6-0.5c-0.7,0-1.3,0.1-1.8,0.3s-1,0.5-1.4,0.9c-0.8,0.7-1.4,1.7-1.8,3.1c-0.4,1.3-0.7,2.6-0.8,3.8
			c-0.1,1.2-0.1,2.2-0.2,3.1c1-1,2.1-1.7,3.3-2.2c1.2-0.5,2.6-0.7,4.3-0.7c1.7,0,3.1,0.2,4.4,0.7c1.2,0.4,2.3,1.1,3.2,2
			c1.1,1.1,1.9,2.5,2.4,4.1c0.5,1.7,0.8,3.6,0.8,5.9c0,2.3-0.3,4.5-0.9,6.3c-0.6,1.9-1.5,3.4-2.8,4.7c-1,0.9-2.2,1.7-3.7,2.2
			S32,116.5,30,116.5z M30.2,110.8c1.4,0,2.5-0.4,3.3-1.2c0.8-0.8,1.3-1.8,1.5-3c0.2-1.2,0.3-2.4,0.3-3.6c0-2.1-0.2-3.7-0.7-4.9
			c-0.5-1.2-1.1-2-1.9-2.3c-0.8-0.3-1.5-0.5-2.3-0.5c-1.1,0-2,0.2-2.7,0.6s-1.4,1-1.8,1.7s-0.8,1.5-1,2.4c-0.2,0.9-0.3,1.8-0.3,2.7
			c0,1.2,0.1,2.4,0.3,3.4c0.2,1,0.5,1.9,1,2.6c0.4,0.7,1,1.3,1.7,1.6C28.3,110.6,29.2,110.8,30.2,110.8z"/>
		<path d="M52.9,115.6l12.4-32.4H54.5v4.1h-5.8V76.9h23.7v5.7l-12.6,33H52.9z"/>
		<path d="M81.1,98.5c-0.7-0.5-1.3-1.2-1.8-1.9c-0.5-0.7-0.8-1.6-1.1-2.5c-0.3-0.9-0.4-1.9-0.5-2.9c-0.1-1-0.1-2.1-0.1-3.2
			c0-1.1,0.1-2.3,0.2-3.5c0.1-1.3,0.4-2.5,1-3.8c0.6-1.3,1.3-2.3,2.4-3.1c0.7-0.5,1.6-0.9,2.6-1.2c1-0.3,2.1-0.4,3.5-0.4
			c1.4,0,2.5,0.1,3.5,0.4c1,0.3,1.8,0.7,2.6,1.2c0.7,0.5,1.4,1.3,1.9,2.2c0.6,1,1,2.1,1.2,3.4c0.3,1.3,0.4,2.9,0.4,4.8
			c0,1.1-0.1,2.3-0.2,3.6c-0.1,1.3-0.4,2.5-0.9,3.7c-0.5,1.2-1.2,2.1-2.1,2.9c-0.8,0.7-1.7,1.2-2.8,1.5c-1.1,0.3-2.3,0.5-3.6,0.5
			c-1.3,0-2.5-0.1-3.5-0.4C82.7,99.5,81.8,99.1,81.1,98.5z M89.2,95c0.4-0.3,0.7-1,1-1.9c0.3-0.9,0.4-2.6,0.4-5
			c0-1.3-0.1-2.5-0.2-3.5c-0.1-1-0.3-1.8-0.5-2.2c-0.2-0.5-0.4-0.8-0.7-1.1c-0.5-0.4-1.1-0.6-2-0.6c-0.9,0-1.5,0.2-2,0.6
			c-0.4,0.4-0.8,1-1,2c-0.3,0.9-0.4,2.6-0.4,4.9c0,1.4,0,2.5,0.1,3.3c0.1,0.9,0.2,1.5,0.4,2c0.1,0.5,0.3,0.9,0.5,1.1
			c0.2,0.2,0.3,0.4,0.5,0.5c0.2,0.2,0.5,0.3,0.8,0.5c0.3,0.1,0.7,0.2,1.2,0.2c0.5,0,0.9-0.1,1.2-0.2S89,95.2,89.2,95z M91.2,116.5
			L104.9,76h6l-13.6,40.5H91.2z M108.9,114.8c-0.7-0.5-1.3-1.2-1.8-1.9c-0.5-0.7-0.8-1.6-1.1-2.5c-0.3-0.9-0.4-1.9-0.5-2.9
			c-0.1-1-0.1-2.1-0.1-3.2c0-1.1,0.1-2.3,0.2-3.5c0.1-1.3,0.4-2.5,1-3.8c0.6-1.3,1.3-2.3,2.4-3.1c0.7-0.5,1.6-0.9,2.6-1.2
			c1-0.3,2.1-0.4,3.5-0.4c1.3,0,2.5,0.1,3.5,0.4c1,0.3,1.8,0.7,2.6,1.2c0.7,0.5,1.4,1.3,1.9,2.2c0.6,1,1,2.1,1.2,3.4
			c0.3,1.3,0.4,2.9,0.4,4.8c0,1.1,0,2.3-0.1,3.5c-0.1,1.2-0.4,2.5-0.9,3.7c-0.5,1.2-1.2,2.2-2.2,3c-0.8,0.7-1.7,1.2-2.8,1.5
			c-1.1,0.3-2.2,0.5-3.6,0.5c-1.4,0-2.5-0.1-3.5-0.4C110.5,115.7,109.6,115.3,108.9,114.8z M117,111.3c0.4-0.4,0.8-1,1-1.9
			c0.3-0.9,0.4-2.6,0.4-5c0-1.3-0.1-2.5-0.2-3.6c-0.1-1-0.3-1.8-0.5-2.2c-0.2-0.4-0.4-0.8-0.7-1.1c-0.4-0.4-1.1-0.6-2-0.6
			c-0.9,0-1.6,0.2-2,0.6c-0.1,0.1-0.3,0.3-0.5,0.7c-0.2,0.3-0.4,1-0.6,2c-0.2,1-0.3,2.4-0.3,4.2c0,1.4,0,2.5,0.1,3.3
			c0.1,0.9,0.2,1.5,0.4,2c0.1,0.5,0.3,0.9,0.5,1.1c0.2,0.2,0.3,0.4,0.5,0.5c0.4,0.4,1.1,0.6,2,0.6
			C115.8,111.9,116.5,111.7,117,111.3z"/>
	</g>
	<g>
		<path fill="#FFFFFF" d="M307.4,196.6l114.2,109.7l11.2,3.5l14.5-16.5l13.6,11.2l19.4-18.7l12.4,7.5l16.8-15.5l-7.7-12.3l13.2-3.6
			l6.3-11.6l-15.4-19.4c0,0,47.9-52.9,47.9-54c0-1.1-83-73.2-83-73.2l-20.9,14l-74.3-6.9L304.3,177L307.4,196.6z"/>
		<path fill="none" stroke="#0C85BA" stroke-width="10" stroke-linecap="round" stroke-miterlimit="15" d="M481.2,247.2l15.1,15.1
			c4.6,4.6,12.2,4.6,16.9,0l2.9-2.9c4.6-4.6,4.6-12.2,0-16.9l-69.3-69.3l-29-2.3c-18.7,9.9-32.4,18.9-45.1,9.4
			c-12.7-9.4,3.4-18.5,3.4-18.5l33.2-24.1c0,0,36.5-13.3,40-14.9"/>
		<path fill="none" stroke="#0C85BA" stroke-width="10" stroke-linecap="round" stroke-miterlimit="15" d="M490.5,256.4l13.6,13.6
			c4.6,4.6,4.6,12.2,0,16.9l-2.9,2.9c-4.6,4.6-12.2,4.6-16.9,0l-27.8-27.8"/>
		<path fill="none" stroke="#0C85BA" stroke-width="10" stroke-linecap="round" stroke-miterlimit="15" d="M456.5,261.8l17.7,17.9
			c4.6,4.6,4.6,12.2,0,16.9l-2.9,2.9c-4.6,4.6-12.2,4.6-16.9,0l-22.7-22.7 M405.1,289.7l16.5,16.5c4.6,4.6,12.2,4.6,16.9,0l2.9-2.9
			c4.6-4.6,4.6-12.2,0-16.9L433,278"/>
		<path fill="#FFFFFF" stroke="#0C85BA" stroke-width="10" stroke-linecap="round" stroke-miterlimit="15" d="M404.9,288.2l-6.6,6.6
			c-5,5-13.1,5-18.1,0l-0.4-0.4c-5-5-5-13.1,0-18.1l6.6-6.6c5-5,13.1-5,18.1,0l0.4,0.4C409.9,275.1,409.9,283.2,404.9,288.2z"/>
		<path fill="#FFFFFF" stroke="#0C85BA" stroke-width="10" stroke-linecap="round" stroke-miterlimit="15" d="M387.1,269.1
			l-16.8,16.8c-5.2,5.2-13.7,5.2-18.9,0l-0.5-0.5c-5.2-5.2-5.2-13.7,0-18.9l16.8-16.8c5.2-5.2,13.7-5.2,18.9,0l0.5,0.5
			C392.3,255.3,392.3,263.9,387.1,269.1z"/>
		<path fill="#FFFFFF" stroke="#0C85BA" stroke-width="10" stroke-linecap="round" stroke-miterlimit="15" d="M369,248.4l-11,11
			c-5.2,5.2-13.7,5.2-18.9,0l-0.5-0.5c-5.2-5.2-5.2-13.7,0-18.9l11-11c5.2-5.2,13.7-5.2,18.9,0l0.5,0.5
			C374.2,234.7,374.2,243.2,369,248.4z"/>
		<path fill="none" stroke="#0C85BA" stroke-width="10" stroke-linecap="round" stroke-miterlimit="15" d="M506.1,228.6l52.5-52.5
			c4.5-4.5,4.5-11.9-1-17.4l-64.9-64.9c-3.5-3.5-10.8-3.5-15.3,1l-27.5,27.5"/>
		
			<rect x="497.8" y="83.9" transform="matrix(0.7071 -0.7071 0.7071 0.7071 51.3139 404.3339)" fill="#0C85BA" width="31.8" height="112.7"/>
		<path fill="none" stroke="#0C85BA" stroke-width="10" stroke-linecap="round" stroke-miterlimit="15" d="M343.6,232.8l-49.4-49.4
			c-4.5-4.5-4.5-11.9,1-17.4l64.9-64.9c3.5-3.5,10.8-3.5,15.3,1l12,12l64.7,4.8"/>
		
			<rect x="281.6" y="131.4" transform="matrix(0.7071 -0.7071 0.7071 0.7071 -4.9538 282.4359)" fill="#0C85BA" width="113.8" height="31.7"/>
		
			<circle fill="#FFFFFF" stroke="#0C85BA" stroke-width="10" stroke-linecap="round" stroke-miterlimit="15" cx="337.4" cy="142.9" r="25.4"/>
	</g>
</g>
<g id="Stahl">
</g>
<g id="Ebene_7">
</g>
<g id="Patente">
</g>
<g id="Lightbulb_Interface_Symbol">
</g>
<g id="Bright_Lightbulb">
</g>
<g id="Recycling_Symbol">
</g>
<g id="Global_Recycle_Symbol">
</g>
<g id="Globe_Grid">
</g>
<g id="Earth_Grid_Symbol">
	<g id="Recycling_Symbol_1_">
	</g>
</g>
<g id="Three_Curved_Arrows_Resembling_Recycling_Symbol">
</g>
<g id="Family_Of_Heterosexual_Couple">
</g>
<g id="Couple">
</g>
<g id="Woman_Standing_Silhouette_Black_Shape">
</g>
<g id="Woman_Searching_Job">
</g>
<g id="Couple_With_Baby">
</g>
<g id="Female_And_Male_Silhouettes_With_A_Vertical_Line_In_The_Middle">
</g>
<g id="Business_Woman">
</g>
<g id="Attention_Signal_And_Construction_Worker">
</g>
<g id="Handy_Man_Worker_Silhouette">
</g>
<g id="People_Working">
</g>
<g id="Tree_Silhouette">
	<g>
		<path fill="#1F7FB6" d="M362.2,36.7V16.5h2.2v10.4l8.2-10.4h2.3l-6.1,7.7l6.7,12.5H373l-5.7-10.6l-3,3.8v6.8H362.2z"/>
		<path fill="#1F7FB6" d="M381.6,37.1c-0.5,0-1.1-0.1-1.6-0.2c-0.5-0.1-0.9-0.4-1.3-0.7c-0.4-0.3-0.7-0.8-0.9-1.3
			c-0.2-0.5-0.3-1.2-0.3-2V22.5h2.1v9.6c0,0.6,0.1,1.1,0.2,1.5c0.1,0.4,0.3,0.7,0.5,1c0.2,0.3,0.5,0.4,0.9,0.5
			c0.3,0.1,0.8,0.2,1.2,0.2c0.5,0,1.1-0.1,1.5-0.4c0.5-0.3,0.9-0.6,1.2-1s0.6-0.9,0.8-1.4c0.2-0.5,0.3-1.1,0.3-1.6v-8.4h2v14.2h-2
			v-2c-0.6,0.9-1.3,1.5-2,1.9S382.5,37.1,381.6,37.1z"/>
		<path fill="#1F7FB6" d="M391.8,36.7V22.5h2v2c0.6-0.9,1.3-1.5,2-1.9s1.6-0.6,2.5-0.6c0.8,0,1.6,0.2,2.2,0.5
			c0.6,0.4,1.1,0.9,1.4,1.5c0.3,0.7,0.4,1.4,0.4,2.2v10.5h-2V27c0-1.1-0.2-1.9-0.7-2.4c-0.4-0.5-1.1-0.7-2.1-0.7
			c-0.5,0-1.1,0.1-1.5,0.4c-0.5,0.3-0.9,0.6-1.2,1c-0.3,0.4-0.6,0.9-0.8,1.4c-0.2,0.5-0.3,1.1-0.3,1.6v8.4H391.8z"/>
		<path fill="#1F7FB6" d="M410.6,37.1c-0.4,0-0.9-0.1-1.3-0.2c-0.4-0.1-0.8-0.3-1.2-0.5c-0.4-0.2-0.7-0.6-1-1
			c-0.3-0.4-0.6-0.9-0.8-1.5c-0.2-0.6-0.4-1.2-0.5-1.9c-0.1-0.7-0.2-1.6-0.2-2.5c0-1.1,0.1-2.1,0.3-3c0.2-0.8,0.4-1.6,0.8-2.2
			c0.4-0.8,1-1.4,1.7-1.8c0.7-0.4,1.5-0.5,2.4-0.5c0.7,0,1.4,0.1,1.9,0.3c0.6,0.2,1,0.4,1.3,0.7s0.6,0.6,0.9,0.9v-7.4h2.1v20.2h-2.1
			v-1.8c-0.5,0.8-1.1,1.4-1.8,1.7S411.6,37.1,410.6,37.1z M411.2,35.4c0.8,0,1.5-0.2,2.1-0.7c0.6-0.4,1-1,1.2-1.6
			c0.2-0.6,0.3-1.2,0.3-1.8v-3.5c0-0.9-0.2-1.7-0.6-2.4c-0.4-0.7-0.9-1.1-1.5-1.3c-0.6-0.2-1.1-0.3-1.6-0.3c-0.7,0-1.3,0.2-1.8,0.5
			s-0.8,0.6-0.9,1c-0.2,0.4-0.3,0.7-0.4,1.1c-0.1,0.5-0.2,1-0.3,1.5c0,0.5-0.1,1.1-0.1,1.7c0,0.7,0,1.3,0.1,1.8
			c0.1,0.6,0.1,1,0.2,1.3c0.1,0.4,0.2,0.8,0.4,1.2c0.2,0.3,0.4,0.6,0.7,0.9c0.3,0.2,0.6,0.4,0.9,0.6
			C410.4,35.3,410.8,35.4,411.2,35.4z"/>
		<path fill="#1F7FB6" d="M425.8,37.1c-0.7,0-1.4-0.1-1.9-0.3c-0.6-0.2-1.1-0.4-1.5-0.7c-0.4-0.3-0.8-0.6-1.1-1
			c-0.3-0.4-0.5-0.8-0.7-1.2c-0.2-0.6-0.4-1.2-0.5-1.9c-0.1-0.7-0.1-1.4-0.1-2.2c0-1.1,0.1-2.1,0.2-2.9c0.1-0.8,0.3-1.5,0.6-2.1
			c0.3-0.6,0.6-1.1,1-1.4c0.4-0.4,1-0.8,1.6-1.1s1.4-0.4,2.4-0.4c0.8,0,1.6,0.1,2.2,0.3c0.6,0.2,1.1,0.5,1.5,1
			c0.6,0.6,1,1.4,1.2,2.3c0.2,0.9,0.3,2.1,0.3,3.4v1.3h-8.9v0.3c0,0.9,0.1,1.7,0.3,2.3c0.2,0.6,0.5,1.1,0.8,1.5
			c0.3,0.4,0.8,0.6,1.2,0.8c0.5,0.2,1,0.2,1.5,0.2c0.6,0,1.1-0.1,1.5-0.3c0.5-0.2,0.8-0.4,1.1-0.7c0.3-0.3,0.5-0.5,0.6-0.8l1.6,0.9
			c-0.3,0.6-0.8,1.1-1.3,1.5c-0.5,0.4-1.1,0.7-1.7,0.9C427.2,37,426.5,37.1,425.8,37.1z M422.2,28.6h6.9c0-1.4-0.2-2.5-0.5-3.2
			c-0.3-0.8-0.7-1.2-1.3-1.4c-0.5-0.2-1.1-0.3-1.6-0.3c-0.5,0-0.9,0.1-1.4,0.2c-0.4,0.2-0.8,0.4-1.1,0.8c-0.3,0.4-0.6,0.9-0.8,1.5
			C422.3,26.8,422.2,27.6,422.2,28.6z"/>
		<path fill="#1F7FB6" d="M434.1,36.7V22.5h2v2c0.6-0.9,1.3-1.5,2-1.9s1.6-0.6,2.5-0.6c0.8,0,1.6,0.2,2.2,0.5
			c0.6,0.4,1.1,0.9,1.4,1.5c0.3,0.7,0.4,1.4,0.4,2.2v10.5h-2V27c0-1.1-0.2-1.9-0.7-2.4c-0.4-0.5-1.1-0.7-2.1-0.7
			c-0.5,0-1.1,0.1-1.5,0.4c-0.5,0.3-0.9,0.6-1.2,1c-0.3,0.4-0.6,0.9-0.8,1.4c-0.2,0.5-0.3,1.1-0.3,1.6v8.4H434.1z"/>
		<path fill="#1F7FB6" d="M452.7,36.9c-0.8,0-1.5-0.1-2-0.3s-0.9-0.5-1.2-0.9c-0.3-0.4-0.5-0.9-0.6-1.5c-0.1-0.6-0.2-1.2-0.2-1.9V24
			h-1.9v-1.6h1.9v-3.9h2v3.9h2.9V24h-2.9v8.3c0,0.5,0,0.9,0.1,1.2c0,0.4,0.1,0.7,0.3,0.9c0.2,0.3,0.4,0.4,0.7,0.6
			c0.3,0.1,0.7,0.2,1.2,0.2c0.3,0,0.6,0,0.9-0.1v1.7C453.5,36.9,453.1,36.9,452.7,36.9z"/>
		<path fill="#1F7FB6" d="M456,36.7V22.5h2v3.1c0.4-0.8,0.8-1.5,1.4-2c0.6-0.5,1.1-0.8,1.7-0.9c0.5-0.1,1-0.2,1.3-0.2h0.3v2.1h-0.5
			c-0.8,0-1.5,0.2-2.1,0.6c-0.6,0.4-1,0.9-1.3,1.5s-0.5,1.2-0.6,1.8c-0.1,0.6-0.2,1.2-0.2,1.8v6.5H456z"/>
		<path fill="#1F7FB6" d="M469.4,37.1c-0.7,0-1.4-0.1-1.9-0.3c-0.6-0.2-1.1-0.4-1.5-0.7c-0.4-0.3-0.8-0.6-1.1-1
			c-0.3-0.4-0.5-0.8-0.7-1.2c-0.2-0.6-0.4-1.2-0.5-1.9c-0.1-0.7-0.1-1.4-0.1-2.2c0-1.1,0.1-2.1,0.2-2.9c0.1-0.8,0.3-1.5,0.6-2.1
			c0.3-0.6,0.6-1.1,1-1.4c0.4-0.4,1-0.8,1.6-1.1s1.4-0.4,2.4-0.4c0.8,0,1.6,0.1,2.2,0.3c0.6,0.2,1.1,0.5,1.5,1
			c0.6,0.6,1,1.4,1.2,2.3c0.2,0.9,0.3,2.1,0.3,3.4v1.3h-8.9v0.3c0,0.9,0.1,1.7,0.3,2.3c0.2,0.6,0.5,1.1,0.8,1.5
			c0.3,0.4,0.8,0.6,1.2,0.8c0.5,0.2,1,0.2,1.5,0.2c0.6,0,1.1-0.1,1.5-0.3c0.5-0.2,0.8-0.4,1.1-0.7c0.3-0.3,0.5-0.5,0.6-0.8l1.6,0.9
			c-0.3,0.6-0.8,1.1-1.3,1.5c-0.5,0.4-1.1,0.7-1.7,0.9C470.8,37,470.2,37.1,469.4,37.1z M465.8,28.6h6.9c0-1.4-0.2-2.5-0.5-3.2
			c-0.3-0.8-0.7-1.2-1.3-1.4c-0.5-0.2-1.1-0.3-1.6-0.3c-0.5,0-0.9,0.1-1.4,0.2c-0.4,0.2-0.8,0.4-1.1,0.8c-0.3,0.4-0.6,0.9-0.8,1.5
			C465.9,26.8,465.8,27.6,465.8,28.6z"/>
		<path fill="#1F7FB6" d="M481.8,37.1c-0.5,0-1.1-0.1-1.6-0.2c-0.5-0.1-0.9-0.4-1.3-0.7c-0.4-0.3-0.7-0.8-0.9-1.3
			c-0.2-0.5-0.3-1.2-0.3-2V22.5h2.1v9.6c0,0.6,0.1,1.1,0.2,1.5c0.1,0.4,0.3,0.7,0.5,1c0.2,0.3,0.5,0.4,0.9,0.5
			c0.3,0.1,0.8,0.2,1.2,0.2c0.5,0,1.1-0.1,1.5-0.4c0.5-0.3,0.9-0.6,1.2-1s0.6-0.9,0.8-1.4c0.2-0.5,0.3-1.1,0.3-1.6v-8.4h2v14.2h-2
			v-2c-0.6,0.9-1.3,1.5-2,1.9S482.7,37.1,481.8,37.1z"/>
		<path fill="#1F7FB6" d="M497.3,37.1c-0.7,0-1.4-0.1-1.9-0.3c-0.6-0.2-1.1-0.4-1.5-0.7c-0.4-0.3-0.8-0.6-1.1-1
			c-0.3-0.4-0.5-0.8-0.7-1.2c-0.2-0.6-0.4-1.2-0.5-1.9c-0.1-0.7-0.1-1.4-0.1-2.2c0-1.1,0.1-2.1,0.2-2.9c0.1-0.8,0.3-1.5,0.6-2.1
			c0.3-0.6,0.6-1.1,1-1.4c0.4-0.4,1-0.8,1.6-1.1s1.4-0.4,2.4-0.4c0.8,0,1.6,0.1,2.2,0.3c0.6,0.2,1.1,0.5,1.5,1
			c0.6,0.6,1,1.4,1.2,2.3c0.2,0.9,0.3,2.1,0.3,3.4v1.3h-8.9v0.3c0,0.9,0.1,1.7,0.3,2.3c0.2,0.6,0.5,1.1,0.8,1.5
			c0.3,0.4,0.8,0.6,1.2,0.8c0.5,0.2,1,0.2,1.5,0.2c0.6,0,1.1-0.1,1.5-0.3c0.5-0.2,0.8-0.4,1.1-0.7c0.3-0.3,0.5-0.5,0.6-0.8l1.6,0.9
			c-0.3,0.6-0.8,1.1-1.3,1.5c-0.5,0.4-1.1,0.7-1.7,0.9C498.7,37,498,37.1,497.3,37.1z M493.7,28.6h6.9c0-1.4-0.2-2.5-0.5-3.2
			c-0.3-0.8-0.7-1.2-1.3-1.4c-0.5-0.2-1.1-0.3-1.6-0.3c-0.5,0-0.9,0.1-1.4,0.2c-0.4,0.2-0.8,0.4-1.1,0.8c-0.3,0.4-0.6,0.9-0.8,1.5
			C493.8,26.8,493.7,27.6,493.7,28.6z"/>
	</g>
</g>
</svg>
