<?xml version="1.0" encoding="utf-8"?>
<!-- Generator: Adobe Illustrator 18.0.0, SVG Export Plug-In . SVG Version: 6.00 Build 0)  -->
<!DOCTYPE svg PUBLIC "-//W3C//DTD SVG 1.1//EN" "http://www.w3.org/Graphics/SVG/1.1/DTD/svg11.dtd">
<svg version="1.1" xmlns="http://www.w3.org/2000/svg" xmlns:xlink="http://www.w3.org/1999/xlink" x="0px" y="0px"
	 viewBox="0 0 860 320" enable-background="new 0 0 860 320" xml:space="preserve">
<g id="Ebene_1">
</g>
<g id="Mitarbeiter">
</g>
<g id="Ebene_8">
</g>
<g id="Stahl">
</g>
<g id="Ebene_7">
</g>
<g id="Patente">
</g>
<g id="Lightbulb_Interface_Symbol">
</g>
<g id="Bright_Lightbulb">
</g>
<g id="Recycling_Symbol">
</g>
<g id="Global_Recycle_Symbol">
</g>
<g id="Globe_Grid">
</g>
<g id="Earth_Grid_Symbol">
	<g id="Recycling_Symbol_1_">
	</g>
</g>
<g id="Three_Curved_Arrows_Resembling_Recycling_Symbol">
</g>
<g id="Family_Of_Heterosexual_Couple">
</g>
<g id="Couple">
</g>
<g id="Woman_Standing_Silhouette_Black_Shape">
</g>
<g id="Woman_Searching_Job">
</g>
<g id="Couple_With_Baby">
</g>
<g id="Female_And_Male_Silhouettes_With_A_Vertical_Line_In_The_Middle">
</g>
<g id="Business_Woman">
</g>
<g id="Attention_Signal_And_Construction_Worker">
</g>
<g id="Handy_Man_Worker_Silhouette">
</g>
<g id="People_Working">
</g>
<g id="Tree_Silhouette">
	<g>
		<g>
			<polyline fill="none" stroke="#BEBEBE" stroke-width="3" stroke-miterlimit="10" points="838.6,126.8 579.4,126.8 561.1,144.1 
				428.1,144.1 			"/>
			<polyline fill="none" stroke="#BEBEBE" stroke-width="3" stroke-miterlimit="10" points="17.1,126.8 278.1,126.8 296.4,144.1 
				429.4,144.1 			"/>
		</g>
		<g>
			<polyline fill="none" stroke="#BEBEBE" stroke-width="3" stroke-miterlimit="10" points="838.6,287.8 579.4,287.8 561.1,270.5 
				428.1,270.5 			"/>
			<polyline fill="none" stroke="#BEBEBE" stroke-width="3" stroke-miterlimit="10" points="124.9,287.8 278.1,287.8 296.4,270.5 
				429.4,270.5 			"/>
		</g>
		<g>
			<line fill="none" stroke="#BEBEBE" stroke-width="3" stroke-miterlimit="10" x1="838.6" y1="208.1" x2="427.1" y2="208.1"/>
			<line fill="none" stroke="#BEBEBE" stroke-width="3" stroke-miterlimit="10" x1="55.1" y1="208.1" x2="430.4" y2="208.1"/>
		</g>
		<g>
			<path d="M703.5,274.5l4.2-13h1.5l4.5,13h-1.5l-1.2-3.7H706l-1.2,3.7H703.5z M706.4,269.6h4.1l-2.1-6.3L706.4,269.6z"/>
			<path d="M717.6,274.8c-0.3,0-0.7,0-1-0.1s-0.6-0.2-0.8-0.5s-0.4-0.5-0.6-0.8s-0.2-0.8-0.2-1.3v-6.7h1.3v6.2c0,0.4,0,0.7,0.1,0.9
				c0.1,0.3,0.2,0.5,0.3,0.6s0.3,0.3,0.6,0.4s0.5,0.1,0.8,0.1c0.4,0,0.7-0.1,1-0.2s0.6-0.4,0.8-0.6c0.2-0.3,0.4-0.6,0.5-0.9
				s0.2-0.7,0.2-1v-5.4h1.3v9.1h-1.3v-1.3c-0.4,0.6-0.8,1-1.3,1.2S718.2,274.8,717.6,274.8z"/>
			<path d="M727.2,274.8c-0.5,0-0.9-0.1-1.2-0.2s-0.7-0.2-1-0.4c-0.5-0.4-0.9-0.8-1.1-1.4l1.1-0.5c0.2,0.3,0.3,0.6,0.6,0.8
				s0.5,0.4,0.8,0.5c0.3,0.1,0.6,0.1,0.9,0.1c0.4,0,0.8-0.1,1.1-0.2c0.3-0.1,0.5-0.3,0.7-0.5s0.2-0.5,0.2-0.8c0-0.3-0.1-0.6-0.2-0.8
				s-0.4-0.4-0.7-0.5c-0.6-0.2-1-0.4-1.2-0.4c-0.2-0.1-0.4-0.1-0.5-0.2c-0.5-0.2-0.9-0.4-1.2-0.6s-0.6-0.4-0.7-0.6s-0.3-0.4-0.3-0.7
				c-0.1-0.2-0.1-0.5-0.1-0.7c0-0.2,0-0.4,0.1-0.6c0-0.2,0.1-0.5,0.2-0.7c0.2-0.3,0.4-0.5,0.6-0.7c0.3-0.2,0.6-0.4,1-0.5
				s0.8-0.1,1.2-0.1c0.7,0,1.4,0.1,1.9,0.4s0.9,0.7,1.2,1.3l-1,0.5c-0.1-0.3-0.3-0.5-0.4-0.6s-0.3-0.3-0.5-0.4s-0.3-0.2-0.5-0.2
				s-0.4-0.1-0.6-0.1c-0.3,0-0.6,0-0.9,0.1s-0.5,0.2-0.6,0.3c-0.1,0.1-0.2,0.3-0.3,0.4s-0.1,0.4-0.1,0.6c0,0.2,0.1,0.4,0.2,0.6
				s0.3,0.3,0.5,0.5c0.2,0.1,0.5,0.3,0.8,0.4c0.3,0.1,0.7,0.3,1.2,0.4c0.7,0.2,1.2,0.4,1.5,0.7c0.3,0.2,0.5,0.4,0.6,0.6
				c0.1,0.1,0.2,0.3,0.2,0.5s0.1,0.5,0.1,0.8c0,0.4-0.1,0.7-0.2,0.9s-0.3,0.5-0.4,0.7c-0.3,0.3-0.6,0.6-1.2,0.7
				S727.6,274.8,727.2,274.8z"/>
			<path d="M736.3,274.8c-0.6,0-1.1-0.1-1.6-0.4s-0.8-0.6-1.1-1.1v1.2h-1.3v-13h1.3v4.8c0.3-0.4,0.7-0.7,1.2-0.9s1-0.3,1.6-0.3
				c0.6,0,1.1,0.1,1.6,0.4s0.8,0.6,1.1,1.1c0.2,0.4,0.3,0.8,0.4,1.4s0.1,1.2,0.1,1.9c0,0.6,0,1.2-0.1,1.6s-0.2,0.9-0.3,1.3
				c-0.2,0.6-0.5,1-0.8,1.3s-0.7,0.5-1,0.6C736.9,274.7,736.6,274.8,736.3,274.8z M735.9,273.6c0.6,0,1.1-0.2,1.4-0.5
				s0.6-0.8,0.7-1.3c0-0.2,0.1-0.5,0.1-0.9s0.1-0.8,0.1-1.1c0-0.4,0-0.7,0-1.1c0-0.3-0.1-0.7-0.2-1c-0.1-0.4-0.2-0.7-0.4-0.9
				s-0.4-0.4-0.7-0.5c-0.3-0.1-0.6-0.2-0.9-0.2c-0.3,0-0.6,0.1-0.9,0.2s-0.5,0.3-0.8,0.5c-0.2,0.2-0.4,0.5-0.5,0.8
				c-0.1,0.3-0.2,0.7-0.2,1.1v2.2c0,0.4,0.1,0.7,0.2,1.1s0.3,0.6,0.5,0.8c0.2,0.2,0.4,0.4,0.7,0.5S735.5,273.6,735.9,273.6z"/>
			<path d="M741.5,263v-1.5h1.3v1.5H741.5z M741.5,274.5v-9.1h1.3v9.1H741.5z"/>
			<path d="M745.2,274.5v-13h1.3v13H745.2z"/>
			<path d="M751.8,274.8c-0.3,0-0.6,0-0.8-0.1s-0.5-0.2-0.8-0.3c-0.2-0.2-0.5-0.4-0.7-0.6s-0.4-0.6-0.5-1c-0.1-0.4-0.2-0.8-0.3-1.2
				s-0.1-1-0.1-1.6c0-0.7,0.1-1.4,0.2-1.9s0.3-1,0.5-1.4c0.3-0.5,0.6-0.9,1.1-1.1c0.4-0.2,1-0.4,1.6-0.4c0.5,0,0.9,0.1,1.2,0.2
				s0.6,0.3,0.9,0.5c0.2,0.2,0.4,0.4,0.6,0.6v-4.8h1.3v13h-1.3v-1.2c-0.3,0.5-0.7,0.9-1.1,1.1S752.4,274.8,751.8,274.8z
				 M752.2,273.6c0.5,0,1-0.1,1.3-0.4s0.6-0.6,0.8-1s0.2-0.8,0.2-1.2v-2.2c0-0.6-0.1-1.1-0.4-1.5s-0.6-0.7-1-0.8s-0.7-0.2-1-0.2
				c-0.5,0-0.8,0.1-1.1,0.3c-0.3,0.2-0.5,0.4-0.6,0.7s-0.2,0.5-0.2,0.7c-0.1,0.3-0.1,0.6-0.2,1c0,0.3,0,0.7,0,1.1
				c0,0.4,0,0.8,0.1,1.2s0.1,0.6,0.1,0.8c0.1,0.3,0.1,0.5,0.3,0.7s0.3,0.4,0.4,0.6s0.4,0.3,0.6,0.4
				C751.7,273.6,751.9,273.6,752.2,273.6z"/>
			<path d="M760.9,274.8c-0.3,0-0.7,0-1-0.1s-0.6-0.2-0.8-0.5s-0.4-0.5-0.6-0.8s-0.2-0.8-0.2-1.3v-6.7h1.3v6.2c0,0.4,0,0.7,0.1,0.9
				c0.1,0.3,0.2,0.5,0.3,0.6s0.3,0.3,0.6,0.4s0.5,0.1,0.8,0.1c0.4,0,0.7-0.1,1-0.2s0.6-0.4,0.8-0.6c0.2-0.3,0.4-0.6,0.5-0.9
				s0.2-0.7,0.2-1v-5.4h1.3v9.1h-1.3v-1.3c-0.4,0.6-0.8,1-1.3,1.2S761.4,274.8,760.9,274.8z"/>
			<path d="M767.5,274.5v-9.1h1.3v1.3c0.4-0.6,0.8-1,1.3-1.2s1-0.4,1.6-0.4c0.5,0,1,0.1,1.4,0.3s0.7,0.6,0.9,1
				c0.2,0.4,0.3,0.9,0.3,1.4v6.7H773v-6.2c0-0.7-0.1-1.2-0.4-1.5s-0.7-0.5-1.3-0.5c-0.4,0-0.7,0.1-1,0.2s-0.6,0.4-0.8,0.7
				c-0.2,0.3-0.4,0.6-0.5,0.9s-0.2,0.7-0.2,1v5.4H767.5z"/>
			<path d="M780.1,278.3c-0.9,0-1.6-0.2-2.2-0.5s-1-0.8-1.2-1.4l1.1-0.4c0.2,0.4,0.5,0.7,0.9,0.9c0.4,0.2,0.9,0.3,1.4,0.3
				c0.3,0,0.7,0,1-0.1s0.6-0.2,0.8-0.4c0.2-0.2,0.3-0.4,0.3-0.6c0.1-0.2,0.1-0.6,0.1-1.1v-1.6c-0.3,0.3-0.6,0.6-0.9,0.8
				s-0.6,0.3-0.9,0.3s-0.6,0.1-0.9,0.1c-0.3,0-0.6,0-0.8-0.1s-0.5-0.2-0.8-0.3c-0.2-0.1-0.5-0.4-0.7-0.6s-0.4-0.6-0.5-1
				c-0.1-0.4-0.2-0.8-0.3-1.2s-0.1-1-0.1-1.6c0-0.7,0.1-1.3,0.2-1.9s0.3-1,0.5-1.4c0.3-0.5,0.6-0.9,1.1-1.1s1-0.4,1.6-0.4
				c0.6,0,1.2,0.1,1.6,0.3s0.8,0.6,1,1.1v-1.1h1.3v9.7c0,0.5-0.1,1-0.2,1.3s-0.3,0.7-0.5,1c-0.3,0.3-0.7,0.5-1.2,0.7
				S780.7,278.3,780.1,278.3z M780,273.5c0.5,0,1-0.1,1.3-0.4s0.6-0.6,0.8-1s0.2-0.8,0.2-1.2v-2.1c0-0.6-0.1-1.1-0.4-1.5
				s-0.6-0.7-1-0.8s-0.7-0.2-1-0.2c-0.5,0-0.8,0.1-1.1,0.3c-0.3,0.2-0.5,0.4-0.6,0.7s-0.2,0.5-0.2,0.7c-0.1,0.3-0.1,0.6-0.2,0.9
				c0,0.3,0,0.7,0,1c0,0.4,0,0.7,0,1.1c0,0.3,0.1,0.6,0.1,0.9c0.1,0.3,0.1,0.5,0.3,0.7s0.3,0.4,0.4,0.6s0.4,0.3,0.6,0.4
				C779.4,273.4,779.7,273.5,780,273.5z"/>
			<path d="M788.9,274.8c-0.5,0-0.9-0.1-1.2-0.2s-0.7-0.2-1-0.4c-0.5-0.4-0.9-0.8-1.1-1.4l1.1-0.5c0.2,0.3,0.3,0.6,0.6,0.8
				s0.5,0.4,0.8,0.5c0.3,0.1,0.6,0.1,0.9,0.1c0.4,0,0.8-0.1,1.1-0.2c0.3-0.1,0.5-0.3,0.7-0.5s0.2-0.5,0.2-0.8c0-0.3-0.1-0.6-0.2-0.8
				s-0.4-0.4-0.7-0.5c-0.6-0.2-1-0.4-1.2-0.4c-0.2-0.1-0.4-0.1-0.5-0.2c-0.5-0.2-0.9-0.4-1.2-0.6s-0.6-0.4-0.7-0.6s-0.3-0.4-0.3-0.7
				c-0.1-0.2-0.1-0.5-0.1-0.7c0-0.2,0-0.4,0.1-0.6c0-0.2,0.1-0.5,0.2-0.7c0.2-0.3,0.4-0.5,0.6-0.7c0.3-0.2,0.6-0.4,1-0.5
				s0.8-0.1,1.2-0.1c0.7,0,1.4,0.1,1.9,0.4s0.9,0.7,1.2,1.3l-1,0.5c-0.1-0.3-0.3-0.5-0.4-0.6s-0.3-0.3-0.5-0.4s-0.3-0.2-0.5-0.2
				s-0.4-0.1-0.6-0.1c-0.3,0-0.6,0-0.9,0.1s-0.5,0.2-0.6,0.3c-0.1,0.1-0.2,0.3-0.3,0.4s-0.1,0.4-0.1,0.6c0,0.2,0.1,0.4,0.2,0.6
				s0.3,0.3,0.5,0.5c0.2,0.1,0.5,0.3,0.8,0.4c0.3,0.1,0.7,0.3,1.2,0.4c0.7,0.2,1.2,0.4,1.5,0.7c0.3,0.2,0.5,0.4,0.6,0.6
				c0.1,0.1,0.2,0.3,0.2,0.5s0.1,0.5,0.1,0.8c0,0.4-0.1,0.7-0.2,0.9s-0.3,0.5-0.4,0.7c-0.3,0.3-0.6,0.6-1.2,0.7
				S789.4,274.8,788.9,274.8z"/>
			<path d="M798,274.8c-0.6,0-1.1-0.1-1.6-0.4s-0.8-0.6-1.1-1.1v1.2H794v-13h1.3v4.8c0.3-0.4,0.7-0.7,1.2-0.9s1-0.3,1.6-0.3
				c0.6,0,1.1,0.1,1.6,0.4s0.8,0.6,1.1,1.1c0.2,0.4,0.3,0.8,0.4,1.4s0.1,1.2,0.1,1.9c0,0.6,0,1.2-0.1,1.6s-0.2,0.9-0.3,1.3
				c-0.2,0.6-0.5,1-0.8,1.3s-0.7,0.5-1,0.6C798.6,274.7,798.3,274.8,798,274.8z M797.6,273.6c0.6,0,1.1-0.2,1.4-0.5s0.6-0.8,0.7-1.3
				c0-0.2,0.1-0.5,0.1-0.9s0.1-0.8,0.1-1.1c0-0.4,0-0.7,0-1.1c0-0.3-0.1-0.7-0.2-1c-0.1-0.4-0.2-0.7-0.4-0.9s-0.4-0.4-0.7-0.5
				c-0.3-0.1-0.6-0.2-0.9-0.2c-0.3,0-0.6,0.1-0.9,0.2s-0.5,0.3-0.8,0.5c-0.2,0.2-0.4,0.5-0.5,0.8c-0.1,0.3-0.2,0.7-0.2,1.1v2.2
				c0,0.4,0.1,0.7,0.2,1.1s0.3,0.6,0.5,0.8c0.2,0.2,0.4,0.4,0.7,0.5S797.3,273.6,797.6,273.6z"/>
			<path d="M806.7,274.8c-0.5,0-0.9-0.1-1.2-0.2c-0.4-0.1-0.7-0.3-1-0.4c-0.3-0.2-0.5-0.4-0.7-0.7s-0.3-0.5-0.4-0.8
				c-0.1-0.4-0.2-0.8-0.3-1.2s-0.1-0.9-0.1-1.4c0-0.7,0-1.3,0.1-1.9s0.2-1,0.4-1.4s0.4-0.7,0.6-0.9c0.3-0.3,0.6-0.5,1-0.7
				c0.4-0.2,0.9-0.2,1.5-0.2c0.5,0,1,0.1,1.4,0.2s0.7,0.3,1,0.6c0.4,0.4,0.7,0.9,0.8,1.5s0.2,1.3,0.2,2.2v0.8h-5.7v0.2
				c0,0.6,0.1,1.1,0.2,1.5c0.1,0.4,0.3,0.7,0.5,1c0.2,0.2,0.5,0.4,0.8,0.5s0.6,0.1,1,0.1c0.4,0,0.7-0.1,1-0.2
				c0.3-0.1,0.5-0.3,0.7-0.5s0.3-0.3,0.4-0.5l1,0.6c-0.2,0.4-0.5,0.7-0.8,0.9c-0.3,0.3-0.7,0.4-1.1,0.5S807.1,274.8,806.7,274.8z
				 M804.3,269.3h4.4c0-0.9-0.1-1.6-0.3-2.1c-0.2-0.5-0.5-0.8-0.8-0.9s-0.7-0.2-1-0.2c-0.3,0-0.6,0-0.9,0.1s-0.5,0.3-0.7,0.5
				c-0.2,0.2-0.4,0.6-0.5,1C804.4,268.1,804.3,268.7,804.3,269.3z"/>
			<path d="M812,274.5v-9.1h1.3v2c0.2-0.5,0.5-1,0.9-1.3s0.7-0.5,1.1-0.6s0.6-0.1,0.9-0.1h0.2v1.3H816c-0.5,0-1,0.1-1.3,0.4
				c-0.4,0.3-0.6,0.6-0.8,1s-0.3,0.8-0.4,1.2s-0.1,0.8-0.1,1.2v4.2H812z"/>
			<path d="M820.3,274.8c-0.3,0-0.7,0-1-0.1s-0.6-0.2-0.8-0.5s-0.4-0.5-0.6-0.8s-0.2-0.8-0.2-1.3v-6.7h1.3v6.2c0,0.4,0,0.7,0.1,0.9
				c0.1,0.3,0.2,0.5,0.3,0.6s0.3,0.3,0.6,0.4s0.5,0.1,0.8,0.1c0.4,0,0.7-0.1,1-0.2s0.6-0.4,0.8-0.6c0.2-0.3,0.4-0.6,0.5-0.9
				s0.2-0.7,0.2-1v-5.4h1.3v9.1h-1.3v-1.3c-0.4,0.6-0.8,1-1.3,1.2S820.9,274.8,820.3,274.8z"/>
			<path d="M827.1,274.5v-8.1h-1.2v-1h1.2v-0.9c0-0.6,0.1-1.1,0.2-1.4s0.3-0.6,0.5-0.9c0.3-0.3,0.6-0.5,0.9-0.6s0.7-0.2,1.1-0.2
				c0.4,0,0.8,0,1,0.1v1.1c-0.2,0-0.5-0.1-0.8-0.1c-0.2,0-0.4,0-0.6,0.1s-0.4,0.2-0.6,0.4c-0.1,0.1-0.2,0.3-0.3,0.5
				c-0.1,0.2-0.1,0.5-0.1,1v0.8h2.1v1h-2.1v8.1H827.1z"/>
			<path d="M834.9,274.8c-0.5,0-0.9-0.1-1.2-0.2c-0.4-0.1-0.7-0.3-1-0.4c-0.3-0.2-0.5-0.4-0.7-0.7s-0.3-0.5-0.4-0.8
				c-0.1-0.4-0.2-0.8-0.3-1.2s-0.1-0.9-0.1-1.4c0-0.7,0-1.3,0.1-1.9s0.2-1,0.4-1.4s0.4-0.7,0.6-0.9c0.3-0.3,0.6-0.5,1-0.7
				c0.4-0.2,0.9-0.2,1.5-0.2c0.5,0,1,0.1,1.4,0.2s0.7,0.3,1,0.6c0.4,0.4,0.7,0.9,0.8,1.5s0.2,1.3,0.2,2.2v0.8h-5.7v0.2
				c0,0.6,0.1,1.1,0.2,1.5c0.1,0.4,0.3,0.7,0.5,1c0.2,0.2,0.5,0.4,0.8,0.5s0.6,0.1,1,0.1c0.4,0,0.7-0.1,1-0.2
				c0.3-0.1,0.5-0.3,0.7-0.5s0.3-0.3,0.4-0.5l1,0.6c-0.2,0.4-0.5,0.7-0.8,0.9c-0.3,0.3-0.7,0.4-1.1,0.5S835.4,274.8,834.9,274.8z
				 M832.6,269.3h4.4c0-0.9-0.1-1.6-0.3-2.1c-0.2-0.5-0.5-0.8-0.8-0.9s-0.7-0.2-1-0.2c-0.3,0-0.6,0-0.9,0.1s-0.5,0.3-0.7,0.5
				c-0.2,0.2-0.4,0.6-0.5,1C832.6,268.1,832.6,268.7,832.6,269.3z"/>
		</g>
		<g>
			<path d="M124.7,276.6v-5.7c0.3-0.3,0.7-0.7,1.2-1.2s1.2-1.2,1.9-1.9c0.7-0.7,1.5-1.5,2.4-2.4c0.8-0.9,1.7-1.8,2.6-2.8
				s1.8-2,2.6-3c0.9-1,1.7-2,2.4-2.9c0.7-1,1.4-1.9,2-2.8c0.6-0.9,1-1.7,1.3-2.4c0.6-1.5,0.9-2.8,0.9-3.9c0-0.9-0.2-1.7-0.6-2.5
				s-0.9-1.3-1.7-1.7c-0.8-0.4-1.7-0.6-2.6-0.6c-1.1,0-2,0.2-2.7,0.6s-1.3,0.9-1.7,1.5c-0.5,0.8-0.9,1.6-1,2.6
				c-0.2,1-0.3,1.9-0.5,2.8l-6.8-0.8c0.1-1.7,0.4-3.2,0.7-4.4c0.3-1.2,0.8-2.2,1.3-2.9s1-1.4,1.5-1.9c0.9-0.9,1.9-1.6,3-2.1
				c1.1-0.5,2.3-0.8,3.4-0.9c1.2-0.1,2.2-0.2,3.2-0.2c3.1,0,5.5,0.6,7.4,1.8s3,2.6,3.5,4.2c0.5,1.6,0.8,3.1,0.8,4.5
				c0,1.8-0.3,3.6-1,5.3c-0.6,1.7-1.7,3.5-3.1,5.3c-1.4,1.9-3,3.7-4.7,5.6l-6.3,6.7h15v6.2H124.7z"/>
			<path d="M155.8,276.6v-5.7c0.3-0.3,0.7-0.7,1.2-1.2s1.2-1.2,1.9-1.9c0.7-0.7,1.5-1.5,2.4-2.4c0.8-0.9,1.7-1.8,2.6-2.8
				s1.8-2,2.6-3c0.9-1,1.7-2,2.4-2.9c0.7-1,1.4-1.9,2-2.8c0.6-0.9,1-1.7,1.3-2.4c0.6-1.5,0.9-2.8,0.9-3.9c0-0.9-0.2-1.7-0.6-2.5
				s-0.9-1.3-1.7-1.7c-0.8-0.4-1.7-0.6-2.6-0.6c-1.1,0-2,0.2-2.7,0.6s-1.3,0.9-1.7,1.5c-0.5,0.8-0.9,1.6-1,2.6
				c-0.2,1-0.3,1.9-0.5,2.8l-6.8-0.8c0.1-1.7,0.4-3.2,0.7-4.4c0.3-1.2,0.8-2.2,1.3-2.9s1-1.4,1.5-1.9c0.9-0.9,1.9-1.6,3-2.1
				c1.1-0.5,2.3-0.8,3.4-0.9c1.2-0.1,2.2-0.2,3.2-0.2c3.1,0,5.5,0.6,7.4,1.8s3,2.6,3.5,4.2c0.5,1.6,0.8,3.1,0.8,4.5
				c0,1.8-0.3,3.6-1,5.3c-0.6,1.7-1.7,3.5-3.1,5.3c-1.4,1.9-3,3.7-4.7,5.6l-6.3,6.7h15v6.2H155.8z"/>
		</g>
		<g>
			<path d="M733.9,195.5l4.2-13h1.5l4.5,13h-1.5l-1.2-3.7h-4.9l-1.2,3.7H733.9z M736.8,190.6h4.1l-2.1-6.3L736.8,190.6z"/>
			<path d="M748,195.7c-0.3,0-0.7,0-1-0.1s-0.6-0.2-0.8-0.5s-0.4-0.5-0.6-0.8s-0.2-0.8-0.2-1.3v-6.7h1.3v6.2c0,0.4,0,0.7,0.1,0.9
				c0.1,0.3,0.2,0.5,0.3,0.6s0.3,0.3,0.6,0.4s0.5,0.1,0.8,0.1c0.4,0,0.7-0.1,1-0.2s0.6-0.4,0.8-0.6c0.2-0.3,0.4-0.6,0.5-0.9
				s0.2-0.7,0.2-1v-5.4h1.3v9.1h-1.3v-1.3c-0.4,0.6-0.8,1-1.3,1.2S748.6,195.7,748,195.7z"/>
			<path d="M757.5,195.7c-0.5,0-0.9-0.1-1.2-0.2s-0.7-0.2-1-0.4c-0.5-0.4-0.9-0.8-1.1-1.4l1.1-0.5c0.2,0.3,0.3,0.6,0.6,0.8
				s0.5,0.4,0.8,0.5c0.3,0.1,0.6,0.1,0.9,0.1c0.4,0,0.8-0.1,1.1-0.2c0.3-0.1,0.5-0.3,0.7-0.5s0.2-0.5,0.2-0.8c0-0.3-0.1-0.6-0.2-0.8
				s-0.4-0.4-0.7-0.5c-0.6-0.2-1-0.4-1.2-0.4c-0.2-0.1-0.4-0.1-0.5-0.2c-0.5-0.2-0.9-0.4-1.2-0.6s-0.6-0.4-0.7-0.6s-0.3-0.4-0.3-0.7
				c-0.1-0.2-0.1-0.5-0.1-0.7c0-0.2,0-0.4,0.1-0.6c0-0.2,0.1-0.5,0.2-0.7c0.2-0.3,0.4-0.5,0.6-0.7c0.3-0.2,0.6-0.4,1-0.5
				s0.8-0.1,1.2-0.1c0.7,0,1.4,0.1,1.9,0.4s0.9,0.7,1.2,1.3l-1,0.5c-0.1-0.3-0.3-0.5-0.4-0.6s-0.3-0.3-0.5-0.4s-0.3-0.2-0.5-0.2
				s-0.4-0.1-0.6-0.1c-0.3,0-0.6,0-0.9,0.1s-0.5,0.2-0.6,0.3c-0.1,0.1-0.2,0.3-0.3,0.4s-0.1,0.4-0.1,0.6c0,0.2,0.1,0.4,0.2,0.6
				s0.3,0.3,0.5,0.5c0.2,0.1,0.5,0.3,0.8,0.4c0.3,0.1,0.7,0.3,1.2,0.4c0.7,0.2,1.2,0.4,1.5,0.7c0.3,0.2,0.5,0.4,0.6,0.6
				c0.1,0.1,0.2,0.3,0.2,0.5s0.1,0.5,0.1,0.8c0,0.4-0.1,0.7-0.2,0.9s-0.3,0.5-0.4,0.7c-0.3,0.3-0.6,0.6-1.2,0.7
				S758,195.7,757.5,195.7z"/>
			<path d="M761.7,195.5v-1l4.5-7.1h-4.3v-1h5.7v1l-4.5,7.1h4.6v1H761.7z"/>
			<path d="M771.8,195.7c-0.3,0-0.7,0-1-0.1s-0.6-0.2-0.8-0.5s-0.4-0.5-0.6-0.8s-0.2-0.8-0.2-1.3v-6.7h1.3v6.2c0,0.4,0,0.7,0.1,0.9
				c0.1,0.3,0.2,0.5,0.3,0.6s0.3,0.3,0.6,0.4s0.5,0.1,0.8,0.1c0.4,0,0.7-0.1,1-0.2s0.6-0.4,0.8-0.6c0.2-0.3,0.4-0.6,0.5-0.9
				s0.2-0.7,0.2-1v-5.4h1.3v9.1h-1.3v-1.3c-0.4,0.6-0.8,1-1.3,1.2S772.3,195.7,771.8,195.7z"/>
			<path d="M782.4,195.7c-0.6,0-1.1-0.1-1.6-0.4s-0.8-0.6-1.1-1.1v1.2h-1.3v-13h1.3v4.8c0.3-0.4,0.7-0.7,1.2-0.9s1-0.3,1.6-0.3
				c0.6,0,1.1,0.1,1.6,0.4s0.8,0.6,1.1,1.1c0.2,0.4,0.3,0.8,0.4,1.4s0.1,1.2,0.1,1.9c0,0.6,0,1.2-0.1,1.6s-0.2,0.9-0.3,1.3
				c-0.2,0.6-0.5,1-0.8,1.3s-0.7,0.5-1,0.6C783,195.7,782.7,195.7,782.4,195.7z M782,194.6c0.6,0,1.1-0.2,1.4-0.5s0.6-0.8,0.7-1.3
				c0-0.2,0.1-0.5,0.1-0.9s0.1-0.8,0.1-1.1c0-0.4,0-0.7,0-1.1c0-0.3-0.1-0.7-0.2-1c-0.1-0.4-0.2-0.7-0.4-0.9s-0.4-0.4-0.7-0.5
				c-0.3-0.1-0.6-0.2-0.9-0.2c-0.3,0-0.6,0.1-0.9,0.2s-0.5,0.3-0.8,0.5c-0.2,0.2-0.4,0.5-0.5,0.8c-0.1,0.3-0.2,0.7-0.2,1.1v2.2
				c0,0.4,0.1,0.7,0.2,1.1s0.3,0.6,0.5,0.8c0.2,0.2,0.4,0.4,0.7,0.5S781.6,194.6,782,194.6z"/>
			<path d="M787.7,184v-1.5h1.3v1.5H787.7z M787.7,195.5v-9.1h1.3v9.1H787.7z"/>
			<path d="M791.3,195.5v-13h1.3v13H791.3z"/>
			<path d="M797.9,195.7c-0.3,0-0.6,0-0.8-0.1s-0.5-0.2-0.8-0.3c-0.2-0.2-0.5-0.4-0.7-0.6s-0.4-0.6-0.5-1c-0.1-0.4-0.2-0.8-0.3-1.2
				s-0.1-1-0.1-1.6c0-0.7,0.1-1.4,0.2-1.9s0.3-1,0.5-1.4c0.3-0.5,0.6-0.9,1.1-1.1c0.4-0.2,1-0.4,1.6-0.4c0.5,0,0.9,0.1,1.2,0.2
				s0.6,0.3,0.9,0.5c0.2,0.2,0.4,0.4,0.6,0.6v-4.8h1.3v13h-1.3v-1.2c-0.3,0.5-0.7,0.9-1.1,1.1S798.5,195.7,797.9,195.7z
				 M798.3,194.6c0.5,0,1-0.1,1.3-0.4s0.6-0.6,0.8-1s0.2-0.8,0.2-1.2v-2.2c0-0.6-0.1-1.1-0.4-1.5s-0.6-0.7-1-0.8s-0.7-0.2-1-0.2
				c-0.5,0-0.8,0.1-1.1,0.3c-0.3,0.2-0.5,0.4-0.6,0.7s-0.2,0.5-0.2,0.7c-0.1,0.3-0.1,0.6-0.2,1c0,0.3,0,0.7,0,1.1
				c0,0.4,0,0.8,0.1,1.2s0.1,0.6,0.1,0.8c0.1,0.3,0.1,0.5,0.3,0.7s0.3,0.4,0.4,0.6s0.4,0.3,0.6,0.4
				C797.8,194.6,798,194.6,798.3,194.6z"/>
			<path d="M807.7,195.7c-0.5,0-0.9-0.1-1.2-0.2c-0.4-0.1-0.7-0.3-1-0.4c-0.3-0.2-0.5-0.4-0.7-0.7s-0.3-0.5-0.4-0.8
				c-0.1-0.4-0.2-0.8-0.3-1.2s-0.1-0.9-0.1-1.4c0-0.7,0-1.3,0.1-1.9s0.2-1,0.4-1.4s0.4-0.7,0.6-0.9c0.3-0.3,0.6-0.5,1-0.7
				c0.4-0.2,0.9-0.2,1.5-0.2c0.5,0,1,0.1,1.4,0.2s0.7,0.3,1,0.6c0.4,0.4,0.7,0.9,0.8,1.5s0.2,1.3,0.2,2.2v0.8h-5.7v0.2
				c0,0.6,0.1,1.1,0.2,1.5c0.1,0.4,0.3,0.7,0.5,1c0.2,0.2,0.5,0.4,0.8,0.5s0.6,0.1,1,0.1c0.4,0,0.7-0.1,1-0.2
				c0.3-0.1,0.5-0.3,0.7-0.5s0.3-0.3,0.4-0.5l1,0.6c-0.2,0.4-0.5,0.7-0.8,0.9c-0.3,0.3-0.7,0.4-1.1,0.5S808.2,195.7,807.7,195.7z
				 M805.4,190.3h4.4c0-0.9-0.1-1.6-0.3-2.1c-0.2-0.5-0.5-0.8-0.8-0.9s-0.7-0.2-1-0.2c-0.3,0-0.6,0-0.9,0.1s-0.5,0.3-0.7,0.5
				c-0.2,0.2-0.4,0.6-0.5,1C805.4,189.1,805.4,189.6,805.4,190.3z"/>
			<path d="M813,195.5v-9.1h1.3v1.3c0.4-0.6,0.8-1,1.3-1.2s1-0.4,1.6-0.4c0.5,0,1,0.1,1.4,0.3s0.7,0.6,0.9,1
				c0.2,0.4,0.3,0.9,0.3,1.4v6.7h-1.3v-6.2c0-0.7-0.1-1.2-0.4-1.5s-0.7-0.5-1.3-0.5c-0.4,0-0.7,0.1-1,0.2s-0.6,0.4-0.8,0.7
				c-0.2,0.3-0.4,0.6-0.5,0.9s-0.2,0.7-0.2,1v5.4H813z"/>
			<path d="M825.1,195.7c-0.3,0-0.6,0-0.8-0.1s-0.5-0.2-0.8-0.3c-0.2-0.2-0.5-0.4-0.7-0.6s-0.4-0.6-0.5-1c-0.1-0.4-0.2-0.8-0.3-1.2
				s-0.1-1-0.1-1.6c0-0.7,0.1-1.4,0.2-1.9s0.3-1,0.5-1.4c0.3-0.5,0.6-0.9,1.1-1.1c0.4-0.2,1-0.4,1.6-0.4c0.5,0,0.9,0.1,1.2,0.2
				s0.6,0.3,0.9,0.5c0.2,0.2,0.4,0.4,0.6,0.6v-4.8h1.3v13h-1.3v-1.2c-0.3,0.5-0.7,0.9-1.1,1.1S825.7,195.7,825.1,195.7z
				 M825.5,194.6c0.5,0,1-0.1,1.3-0.4s0.6-0.6,0.8-1s0.2-0.8,0.2-1.2v-2.2c0-0.6-0.1-1.1-0.4-1.5s-0.6-0.7-1-0.8s-0.7-0.2-1-0.2
				c-0.5,0-0.8,0.1-1.1,0.3c-0.3,0.2-0.5,0.4-0.6,0.7s-0.2,0.5-0.2,0.7c-0.1,0.3-0.1,0.6-0.2,1c0,0.3,0,0.7,0,1.1
				c0,0.4,0,0.8,0.1,1.2s0.1,0.6,0.1,0.8c0.1,0.3,0.1,0.5,0.3,0.7s0.3,0.4,0.4,0.6s0.4,0.3,0.6,0.4
				C825,194.6,825.2,194.6,825.5,194.6z"/>
			<path d="M834.9,195.7c-0.5,0-0.9-0.1-1.2-0.2c-0.4-0.1-0.7-0.3-1-0.4c-0.3-0.2-0.5-0.4-0.7-0.7s-0.3-0.5-0.4-0.8
				c-0.1-0.4-0.2-0.8-0.3-1.2s-0.1-0.9-0.1-1.4c0-0.7,0-1.3,0.1-1.9s0.2-1,0.4-1.4s0.4-0.7,0.6-0.9c0.3-0.3,0.6-0.5,1-0.7
				c0.4-0.2,0.9-0.2,1.5-0.2c0.5,0,1,0.1,1.4,0.2s0.7,0.3,1,0.6c0.4,0.4,0.7,0.9,0.8,1.5s0.2,1.3,0.2,2.2v0.8h-5.7v0.2
				c0,0.6,0.1,1.1,0.2,1.5c0.1,0.4,0.3,0.7,0.5,1c0.2,0.2,0.5,0.4,0.8,0.5s0.6,0.1,1,0.1c0.4,0,0.7-0.1,1-0.2
				c0.3-0.1,0.5-0.3,0.7-0.5s0.3-0.3,0.4-0.5l1,0.6c-0.2,0.4-0.5,0.7-0.8,0.9c-0.3,0.3-0.7,0.4-1.1,0.5S835.4,195.7,834.9,195.7z
				 M832.6,190.3h4.4c0-0.9-0.1-1.6-0.3-2.1c-0.2-0.5-0.5-0.8-0.8-0.9s-0.7-0.2-1-0.2c-0.3,0-0.6,0-0.9,0.1s-0.5,0.3-0.7,0.5
				c-0.2,0.2-0.4,0.6-0.5,1C832.6,189.1,832.6,189.6,832.6,190.3z"/>
		</g>
		<g>
			<path d="M53.9,196.6V191h6.1v-25.2l-6.1,3.5l-3-5l11.2-6.8H67V191h5.8v5.7H53.9z"/>
			<path d="M80.2,196.6v-7.4h7.4v7.4H80.2z"/>
			<path d="M108.4,196.6v-7.5H93.5v-5.3l15.1-26.3h6.5v25.9h3.8v5.7h-3.7v7.5H108.4z M100.2,183.4h8.1v-14.1L100.2,183.4z"/>
			<path d="M139.5,196.6v-7.5h-14.9v-5.3l15.1-26.3h6.5v25.9h3.8v5.7h-3.7v7.5H139.5z M131.3,183.4h8.1v-14.1L131.3,183.4z"/>
			<path d="M155.8,196.6v-5.7c0.3-0.3,0.7-0.7,1.2-1.2s1.2-1.2,1.9-1.9c0.7-0.7,1.5-1.5,2.4-2.4c0.8-0.9,1.7-1.8,2.6-2.8
				s1.8-2,2.6-3c0.9-1,1.7-2,2.4-2.9c0.7-1,1.4-1.9,2-2.8c0.6-0.9,1-1.7,1.3-2.4c0.6-1.5,0.9-2.8,0.9-3.9c0-0.9-0.2-1.7-0.6-2.5
				s-0.9-1.3-1.7-1.7c-0.8-0.4-1.7-0.6-2.6-0.6c-1.1,0-2,0.2-2.7,0.6s-1.3,0.9-1.7,1.5c-0.5,0.8-0.9,1.6-1,2.6
				c-0.2,1-0.3,1.9-0.5,2.8l-6.8-0.8c0.1-1.7,0.4-3.2,0.7-4.4c0.3-1.2,0.8-2.2,1.3-2.9s1-1.4,1.5-1.9c0.9-0.9,1.9-1.6,3-2.1
				c1.1-0.5,2.3-0.8,3.4-0.9c1.2-0.1,2.2-0.2,3.2-0.2c3.1,0,5.5,0.6,7.4,1.8s3,2.6,3.5,4.2c0.5,1.6,0.8,3.1,0.8,4.5
				c0,1.8-0.3,3.6-1,5.3c-0.6,1.7-1.7,3.5-3.1,5.3c-1.4,1.9-3,3.7-4.7,5.6l-6.3,6.7h15v6.2H155.8z"/>
		</g>
		<g>
			<path d="M763.5,114.6v-13h1.8l3.2,7.8l3.3-7.8h1.7v13h-1.3v-11l-3.1,7.4h-1.3l-3-7.4v11H763.5z"/>
			<path d="M776.2,103.1v-1.5h1.3v1.5H776.2z M776.2,114.6v-9.1h1.3v9.1H776.2z"/>
			<path d="M782.7,114.7c-0.5,0-1-0.1-1.3-0.2s-0.6-0.3-0.8-0.6c-0.2-0.3-0.3-0.6-0.4-0.9c-0.1-0.4-0.1-0.8-0.1-1.2v-5.3h-1.2v-1
				h1.2V103h1.3v2.5h1.9v1h-1.9v5.3c0,0.3,0,0.6,0,0.8s0.1,0.4,0.2,0.6s0.2,0.3,0.4,0.4s0.4,0.1,0.8,0.1c0.2,0,0.4,0,0.6-0.1v1.1
				C783.2,114.7,782.9,114.7,782.7,114.7z"/>
			<path d="M787.2,114.8c-0.2,0-0.5,0-0.7-0.1s-0.4-0.1-0.6-0.2s-0.4-0.2-0.5-0.3c-0.2-0.1-0.3-0.3-0.4-0.4
				c-0.2-0.3-0.3-0.5-0.4-0.8s-0.2-0.7-0.2-1c0-0.3,0-0.7,0.1-0.9c0.1-0.3,0.2-0.5,0.4-0.7c0.3-0.4,0.6-0.6,1.1-0.8s1-0.3,1.7-0.3
				h2.3V108c0-0.5-0.1-0.9-0.4-1.2s-0.5-0.5-0.8-0.5c-0.3-0.1-0.6-0.1-0.8-0.1c-0.6,0-1,0.1-1.4,0.3s-0.6,0.5-0.8,0.9l-1.1-0.4
				c0.2-0.6,0.6-1.1,1.2-1.4s1.3-0.5,2.2-0.5c0.6,0,1.1,0.1,1.5,0.2c0.4,0.1,0.8,0.4,1.1,0.7c0.2,0.3,0.4,0.6,0.5,0.9
				s0.1,0.7,0.1,1.1v6.5H790v-0.9c-0.3,0.3-0.6,0.6-0.9,0.7s-0.6,0.3-1,0.4S787.5,114.8,787.2,114.8z M787.6,113.7
				c0.5,0,0.9-0.1,1.3-0.3s0.7-0.5,0.8-0.8s0.3-0.6,0.3-0.9v-1.5h-1.9c-0.4,0-0.8,0-1.1,0.1s-0.6,0.2-0.7,0.3s-0.3,0.3-0.4,0.6
				s-0.1,0.5-0.1,0.7c0,0.3,0,0.5,0.1,0.7s0.2,0.4,0.3,0.5C786.4,113.6,786.9,113.7,787.6,113.7z"/>
			<path d="M793.7,114.6v-9.1h1.3v2c0.2-0.5,0.5-1,0.9-1.3s0.7-0.5,1.1-0.6s0.6-0.1,0.9-0.1h0.2v1.3h-0.3c-0.5,0-1,0.1-1.3,0.4
				c-0.4,0.3-0.6,0.6-0.8,1s-0.3,0.8-0.4,1.2s-0.1,0.8-0.1,1.2v4.2H793.7z"/>
			<path d="M803.4,114.9c-0.6,0-1.1-0.1-1.6-0.4s-0.8-0.6-1.1-1.1v1.2h-1.3v-13h1.3v4.8c0.3-0.4,0.7-0.7,1.2-0.9s1-0.3,1.6-0.3
				c0.6,0,1.1,0.1,1.6,0.4s0.8,0.6,1.1,1.1c0.2,0.4,0.3,0.8,0.4,1.4s0.1,1.2,0.1,1.9c0,0.6,0,1.2-0.1,1.6s-0.2,0.9-0.3,1.3
				c-0.2,0.6-0.5,1-0.8,1.3s-0.7,0.5-1,0.6C804,114.8,803.7,114.9,803.4,114.9z M803,113.7c0.6,0,1.1-0.2,1.4-0.5s0.6-0.8,0.7-1.3
				c0-0.2,0.1-0.5,0.1-0.9s0.1-0.8,0.1-1.1c0-0.4,0-0.7,0-1.1c0-0.3-0.1-0.7-0.2-1c-0.1-0.4-0.2-0.7-0.4-0.9s-0.4-0.4-0.7-0.5
				c-0.3-0.1-0.6-0.2-0.9-0.2c-0.3,0-0.6,0.1-0.9,0.2s-0.5,0.3-0.8,0.5c-0.2,0.2-0.4,0.5-0.5,0.8c-0.1,0.3-0.2,0.7-0.2,1.1v2.2
				c0,0.4,0.1,0.7,0.2,1.1s0.3,0.6,0.5,0.8c0.2,0.2,0.4,0.4,0.7,0.5S802.6,113.7,803,113.7z"/>
			<path d="M812,114.9c-0.5,0-0.9-0.1-1.2-0.2c-0.4-0.1-0.7-0.3-1-0.4c-0.3-0.2-0.5-0.4-0.7-0.7s-0.3-0.5-0.4-0.8
				c-0.1-0.4-0.2-0.8-0.3-1.2s-0.1-0.9-0.1-1.4c0-0.7,0-1.3,0.1-1.9s0.2-1,0.4-1.4s0.4-0.7,0.6-0.9c0.3-0.3,0.6-0.5,1-0.7
				c0.4-0.2,0.9-0.3,1.5-0.3c0.5,0,1,0.1,1.4,0.2s0.7,0.3,1,0.6c0.4,0.4,0.7,0.9,0.8,1.5s0.2,1.3,0.2,2.2v0.8h-5.7v0.2
				c0,0.6,0.1,1.1,0.2,1.5c0.1,0.4,0.3,0.7,0.5,1c0.2,0.2,0.5,0.4,0.8,0.5s0.6,0.1,1,0.1c0.4,0,0.7-0.1,1-0.2
				c0.3-0.1,0.5-0.3,0.7-0.5s0.3-0.3,0.4-0.5l1,0.6c-0.2,0.4-0.5,0.7-0.8,0.9c-0.3,0.3-0.7,0.4-1.1,0.5S812.5,114.9,812,114.9z
				 M809.7,109.4h4.4c0-0.9-0.1-1.6-0.3-2.1c-0.2-0.5-0.5-0.8-0.8-0.9s-0.7-0.2-1-0.2c-0.3,0-0.6,0-0.9,0.1s-0.5,0.3-0.7,0.5
				c-0.2,0.2-0.4,0.6-0.5,1C809.8,108.2,809.7,108.8,809.7,109.4z"/>
			<path d="M817.3,103.1v-1.5h1.3v1.5H817.3z M817.3,114.6v-9.1h1.3v9.1H817.3z"/>
			<path d="M823.8,114.7c-0.5,0-1-0.1-1.3-0.2s-0.6-0.3-0.8-0.6c-0.2-0.3-0.3-0.6-0.4-0.9c-0.1-0.4-0.1-0.8-0.1-1.2v-5.3H820v-1h1.2
				V103h1.3v2.5h1.9v1h-1.9v5.3c0,0.3,0,0.6,0,0.8s0.1,0.4,0.2,0.6s0.2,0.3,0.4,0.4s0.4,0.1,0.8,0.1c0.2,0,0.4,0,0.6-0.1v1.1
				C824.3,114.7,824.1,114.7,823.8,114.7z"/>
			<path d="M829.2,114.9c-0.5,0-0.9-0.1-1.2-0.2c-0.4-0.1-0.7-0.3-1-0.4c-0.3-0.2-0.5-0.4-0.7-0.7s-0.3-0.5-0.4-0.8
				c-0.1-0.4-0.2-0.8-0.3-1.2s-0.1-0.9-0.1-1.4c0-0.7,0-1.3,0.1-1.9s0.2-1,0.4-1.4s0.4-0.7,0.6-0.9c0.3-0.3,0.6-0.5,1-0.7
				c0.4-0.2,0.9-0.3,1.5-0.3c0.5,0,1,0.1,1.4,0.2s0.7,0.3,1,0.6c0.4,0.4,0.7,0.9,0.8,1.5s0.2,1.3,0.2,2.2v0.8h-5.7v0.2
				c0,0.6,0.1,1.1,0.2,1.5c0.1,0.4,0.3,0.7,0.5,1c0.2,0.2,0.5,0.4,0.8,0.5s0.6,0.1,1,0.1c0.4,0,0.7-0.1,1-0.2
				c0.3-0.1,0.5-0.3,0.7-0.5s0.3-0.3,0.4-0.5l1,0.6c-0.2,0.4-0.5,0.7-0.8,0.9c-0.3,0.3-0.7,0.4-1.1,0.5S829.7,114.9,829.2,114.9z
				 M826.9,109.4h4.4c0-0.9-0.1-1.6-0.3-2.1c-0.2-0.5-0.5-0.8-0.8-0.9s-0.7-0.2-1-0.2c-0.3,0-0.6,0-0.9,0.1s-0.5,0.3-0.7,0.5
				c-0.2,0.2-0.4,0.6-0.5,1C827,108.2,826.9,108.8,826.9,109.4z"/>
			<path d="M834.6,114.6v-9.1h1.3v2c0.2-0.5,0.5-1,0.9-1.3s0.7-0.5,1.1-0.6s0.6-0.1,0.9-0.1h0.2v1.3h-0.3c-0.5,0-1,0.1-1.3,0.4
				c-0.4,0.3-0.6,0.6-0.8,1s-0.3,0.8-0.4,1.2s-0.1,0.8-0.1,1.2v4.2H834.6z"/>
		</g>
		<g>
			<path d="M17.8,115.6v-5.7c0.3-0.3,0.7-0.7,1.2-1.2s1.2-1.2,1.9-1.9c0.7-0.7,1.5-1.5,2.4-2.4c0.8-0.9,1.7-1.8,2.6-2.8s1.8-2,2.6-3
				c0.9-1,1.7-2,2.4-2.9c0.7-1,1.4-1.9,2-2.8c0.6-0.9,1-1.7,1.3-2.4c0.6-1.5,0.9-2.8,0.9-3.9c0-0.9-0.2-1.7-0.6-2.5
				s-0.9-1.3-1.7-1.7c-0.8-0.4-1.7-0.6-2.6-0.6c-1.1,0-2,0.2-2.7,0.6s-1.3,0.9-1.7,1.5c-0.5,0.8-0.9,1.6-1,2.6
				c-0.2,1-0.3,1.9-0.5,2.8l-6.8-0.8c0.1-1.7,0.4-3.2,0.7-4.4c0.3-1.2,0.8-2.2,1.3-2.9s1-1.4,1.5-1.9c0.9-0.9,1.9-1.6,3-2.1
				c1.1-0.5,2.3-0.8,3.4-0.9c1.2-0.1,2.2-0.2,3.2-0.2c3.1,0,5.5,0.6,7.4,1.8s3,2.6,3.5,4.2c0.5,1.6,0.8,3.1,0.8,4.5
				c0,1.8-0.3,3.6-1,5.3c-0.6,1.7-1.7,3.5-3.1,5.3c-1.4,1.9-3,3.7-4.7,5.6l-6.3,6.7h15v6.1H17.8z"/>
			<path d="M62,116.5c-1.7,0-3.2-0.2-4.5-0.7c-1.3-0.4-2.4-1.1-3.3-1.9c-1.1-0.9-2-2.1-2.6-3.4c-0.6-1.3-1.1-2.7-1.5-4.3
				c-0.3-1.5-0.6-3.1-0.7-4.8s-0.2-3.3-0.2-5c0-1.7,0-3.3,0.1-5c0.1-1.7,0.3-3.3,0.6-4.9c0.3-1.6,0.8-3,1.5-4.4
				c0.6-1.4,1.5-2.5,2.6-3.5c0.9-0.9,2.1-1.5,3.5-2c1.4-0.5,3-0.7,4.8-0.7c2.1,0,3.9,0.3,5.4,0.8c1.5,0.5,2.7,1.4,3.6,2.4
				c0.7,0.8,1.2,1.7,1.6,2.7c0.4,1,0.7,2.2,0.9,3.5l-6.6,1.4c-0.4-1.6-0.8-2.7-1.1-3.3c-0.4-0.6-0.9-1-1.5-1.3
				c-0.6-0.3-1.5-0.5-2.6-0.5c-0.7,0-1.3,0.1-1.8,0.3s-1,0.5-1.4,0.9c-0.8,0.7-1.4,1.7-1.8,3.1c-0.4,1.3-0.7,2.6-0.8,3.8
				c-0.1,1.2-0.1,2.2-0.2,3.1c1-1,2.1-1.7,3.3-2.2c1.2-0.5,2.6-0.7,4.3-0.7c1.7,0,3.1,0.2,4.4,0.7c1.2,0.4,2.3,1.1,3.2,2
				c1.1,1.1,1.9,2.5,2.4,4.1c0.5,1.7,0.8,3.6,0.8,5.9c0,2.3-0.3,4.5-0.9,6.3c-0.6,1.9-1.5,3.4-2.8,4.7c-1,0.9-2.2,1.7-3.7,2.2
				S64,116.5,62,116.5z M62.2,110.9c1.4,0,2.5-0.4,3.3-1.2c0.8-0.8,1.3-1.8,1.5-3c0.2-1.2,0.3-2.4,0.3-3.6c0-2.1-0.2-3.7-0.7-4.9
				c-0.5-1.2-1.1-2-1.9-2.3c-0.8-0.3-1.5-0.5-2.3-0.5c-1.1,0-2,0.2-2.7,0.6s-1.4,1-1.8,1.7s-0.8,1.5-1,2.4c-0.2,0.9-0.3,1.8-0.3,2.7
				c0,1.2,0.1,2.4,0.3,3.4c0.2,1,0.5,1.9,1,2.6c0.4,0.7,1,1.3,1.7,1.6C60.3,110.7,61.2,110.9,62.2,110.9z"/>
			<path d="M80.2,115.6v-7.4h7.4v7.4H80.2z"/>
			<path d="M105.6,116.5c-2.1,0-3.9-0.3-5.4-0.8c-1.5-0.5-2.7-1.4-3.7-2.4c-0.7-0.8-1.2-1.6-1.6-2.7c-0.4-1-0.7-2.2-0.9-3.5l6.7-1.4
				c0.4,1.6,0.7,2.7,1.1,3.3c0.4,0.6,0.8,1,1.5,1.3c0.6,0.3,1.5,0.5,2.5,0.5c0.7,0,1.3-0.1,1.8-0.3s1-0.5,1.4-0.9
				c0.7-0.7,1.3-1.6,1.8-2.9c0.4-1.2,0.7-2.5,0.8-3.7c0.1-1.2,0.2-2.2,0.2-3c-1,1-2.1,1.7-3.3,2.2c-1.2,0.5-2.6,0.7-4.3,0.7
				c-1.7,0-3.1-0.2-4.4-0.6s-2.3-1.1-3.1-1.9c-1.1-1.1-1.9-2.4-2.5-4.1c-0.5-1.7-0.8-3.7-0.8-6.1c0-2.6,0.3-4.8,0.8-6.6
				c0.6-1.9,1.5-3.4,2.7-4.6c1-0.9,2.2-1.7,3.7-2.1c1.5-0.5,3.2-0.7,5.2-0.7c1.8,0,3.3,0.2,4.7,0.6c1.3,0.4,2.4,1,3.4,1.8
				c1.4,1.2,2.5,2.8,3.3,4.9c0.8,2.1,1.2,4.2,1.4,6.5s0.2,4.3,0.2,6.1c0,3.1-0.1,5.8-0.4,8c-0.3,2.2-0.8,4.2-1.6,5.9
				c-0.8,1.7-1.7,3-2.8,4c-1,0.8-2.1,1.5-3.5,2C109,116.3,107.4,116.5,105.6,116.5z M105.3,97.5c1.5,0,2.7-0.5,3.7-1.4
				c1-0.9,1.6-1.9,1.9-3.1c0.3-1.1,0.4-2.2,0.4-3.1c0-1.2-0.1-2.4-0.3-3.4c-0.2-1-0.5-1.9-1-2.6c-0.4-0.7-1-1.3-1.7-1.7
				c-0.7-0.4-1.6-0.6-2.6-0.6c-1.5,0-2.6,0.4-3.3,1.2c-0.8,0.8-1.3,1.8-1.5,3.1c-0.2,1.2-0.3,2.4-0.3,3.6c0,1.5,0.1,2.7,0.3,3.7
				c0.2,1,0.5,1.8,1,2.4c0.4,0.6,0.9,1.1,1.5,1.3C103.9,97.4,104.6,97.5,105.3,97.5z"/>
			<path d="M137.8,116.5c-1.7,0-3.2-0.2-4.5-0.7c-1.3-0.4-2.4-1.1-3.3-1.9c-1.1-0.9-2-2.1-2.6-3.4c-0.6-1.3-1.1-2.7-1.5-4.3
				c-0.3-1.5-0.6-3.1-0.7-4.8s-0.2-3.3-0.2-5c0-1.7,0-3.3,0.1-5c0.1-1.7,0.3-3.3,0.6-4.9c0.3-1.6,0.8-3,1.5-4.4
				c0.6-1.4,1.5-2.5,2.6-3.5c0.9-0.9,2.1-1.5,3.5-2c1.4-0.5,3-0.7,4.8-0.7c2.1,0,3.9,0.3,5.4,0.8c1.5,0.5,2.7,1.4,3.6,2.4
				c0.7,0.8,1.2,1.7,1.6,2.7c0.4,1,0.7,2.2,0.9,3.5l-6.6,1.4c-0.4-1.6-0.8-2.7-1.1-3.3c-0.4-0.6-0.9-1-1.5-1.3
				c-0.6-0.3-1.5-0.5-2.6-0.5c-0.7,0-1.3,0.1-1.8,0.3s-1,0.5-1.4,0.9c-0.8,0.7-1.4,1.7-1.8,3.1c-0.4,1.3-0.7,2.6-0.8,3.8
				c-0.1,1.2-0.1,2.2-0.2,3.1c1-1,2.1-1.7,3.3-2.2c1.2-0.5,2.6-0.7,4.3-0.7c1.7,0,3.1,0.2,4.4,0.7c1.2,0.4,2.3,1.1,3.2,2
				c1.1,1.1,1.9,2.5,2.4,4.1c0.5,1.7,0.8,3.6,0.8,5.9c0,2.3-0.3,4.5-0.9,6.3c-0.6,1.9-1.5,3.4-2.8,4.7c-1,0.9-2.2,1.7-3.7,2.2
				S139.7,116.5,137.8,116.5z M138,110.9c1.4,0,2.5-0.4,3.3-1.2c0.8-0.8,1.3-1.8,1.5-3c0.2-1.2,0.3-2.4,0.3-3.6
				c0-2.1-0.2-3.7-0.7-4.9c-0.5-1.2-1.1-2-1.9-2.3c-0.8-0.3-1.5-0.5-2.3-0.5c-1.1,0-2,0.2-2.7,0.6s-1.4,1-1.8,1.7s-0.8,1.5-1,2.4
				c-0.2,0.9-0.3,1.8-0.3,2.7c0,1.2,0.1,2.4,0.3,3.4c0.2,1,0.5,1.9,1,2.6c0.4,0.7,1,1.3,1.7,1.6C136.1,110.7,136.9,110.9,138,110.9z
				"/>
			<path d="M160.8,115.6V110h6.1V84.8l-6.1,3.5l-3-5l11.2-6.8h4.8V110h5.8v5.7H160.8z"/>
		</g>
		<path fill="#1F7FB6" d="M385.7,130.4c0.8,1.2,1.5,2.5,2.2,3.8h15.2v39.9v17.9v92.8c0,6.5,5.2,11.7,11.7,11.7
			c6.5,0,11.7-5.2,11.7-11.7v-85.5h4.4v85.5c0,6.5,5.2,11.7,11.7,11.7c6.5,0,11.7-5.2,11.7-11.7v-92.8v-17.9v-39.9l15.2,0
			c2.4-7.8,7.4-12.4,13.1-14.1c1.7-0.5,2.1-0.7,3.1-1H371.8c1,0.3,2,0.7,3.1,1.3C377.7,121.8,381.9,124.7,385.7,130.4z M425.1,127.7
			h3.6h3.6l1.8,7.1l-0.3,0.4c-1.5,1.2-3.3,1.9-5.1,1.9c-1.8,0-3.6-0.6-5.1-1.9l-0.3-0.4L425.1,127.7z M424.9,139.3
			c1.2,0.5,2.5,0.7,3.8,0.7h0c0,0,0,0,0,0c1.3,0,2.6-0.2,3.8-0.7l5.2,38.2l-9,11.4l-9-11.4L424.9,139.3z"/>
		<circle fill="#1F7FB6" cx="428.7" cy="93.3" r="21.3"/>
		<path fill="#1F7FB6" d="M308.4,210.6c0.1,0,0.3,0,0.5,0c4.2-0.2,7.4-3.8,7.1-8c-0.4-6.3-0.5-12-0.5-17.3c0-22.9,3.3-35.8,6.6-42.5
			v31.3v17.9v92.8c0,6.5,5.2,11.7,11.7,11.7c6.5,0,11.7-5.2,11.7-11.7v-85.5h4.4v85.5c0,6.5,5.2,11.7,11.7,11.7
			c6.5,0,11.7-5.2,11.7-11.7v-92.8v-17.9v-31.3c0.6,1.2,1.1,2.5,1.7,4c2.7,7.4,4.9,19.5,4.9,38.5c0,5.2-0.2,11-0.5,17.3
			c-0.2,4.2,2.9,7.8,7.1,8c0.1,0,0.3,0,0.4,0c4,0,7.3-3.1,7.6-7.1c0.4-6.6,0.6-12.6,0.6-18.1c0-28.6-4.6-44.4-10.8-53.9
			c-3.1-4.7-6.7-7.7-10.1-9.4c-3.2-1.6-6-2-7.7-2c-0.1,0-0.3,0-0.4,0h-36.6c-0.2,0-0.3,0-0.5,0c-1.7,0-4.5,0.4-7.7,2
			c-5.1,2.5-10.6,8-14.4,17.8c-3.9,9.8-6.5,24-6.5,45.5c0,5.5,0.2,11.6,0.6,18.1C301,207.5,304.4,210.6,308.4,210.6z"/>
		<g>
			<path fill="#FFFFFF" d="M428.6,188.7l-9-11.4l5.2-38.2c1.2,0.5,2.5,0.7,3.8,0.7h0c0,0,0,0,0,0c1.3,0,2.6-0.2,3.8-0.7l5.2,38.2
				L428.6,188.7z"/>
			<path fill="#FFFFFF" d="M428.6,127.7h3.6l1.8,7.1l-0.3,0.4c-1.5,1.2-3.3,1.9-5.1,1.9c-1.8,0-3.6-0.6-5.1-1.9l-0.3-0.4l1.8-7.1
				H428.6z"/>
		</g>
		<path fill="#1F7FB6" d="M339.4,59.7c-6.1,3.1-11,9.4-12.8,15.4l-0.4,1.3h-3.4v7.4h3.7h5.2h2.2h28.4h2.1h8.1v-0.4v-7h-3.3l-0.4-1.3
			c-1.8-6.1-6.7-12.3-12.8-15.4v13.8v1.9c0,0.1,0,0.2,0,0.2c-0.1,0.6-0.2,1.2-0.5,1.8c-0.8,1.5-2.3,2.5-4.1,2.5h-0.9h-6.5
			c-1.6,0-3.1-0.9-3.9-2.2c-0.4-0.5-0.5-1.1-0.6-1.8c-0.1-0.2-0.1-0.4-0.1-0.6v-1.6V59.7z"/>
		<path fill="#1F7FB6" d="M343.9,78.2h7.4c1.1,0,1.9-0.6,2.4-1.5c0.2-0.4,0.4-0.8,0.4-1.3v-0.5v-2.2V58.9v-2v-0.8
			c0-0.5-0.1-0.9-0.2-1.3c-0.5-1.4-1.9-2.4-3.4-2.4h-6.5c-1.4,0-2.6,1.1-2.7,2.4c0,0.1-0.1,0.2-0.1,0.4v1.6v2V73v2.2v0.2
			c0,0.6,0.2,1.1,0.5,1.6C342.2,77.8,343,78.2,343.9,78.2z"/>
		<path fill="#1F7FB6" d="M327.2,87.2c-0.6,1.9-0.9,4-0.9,6.1c0,11.8,9.5,21.3,21.3,21.3c11.8,0,21.3-9.5,21.3-21.3
			c0-2.1-0.3-4.2-0.9-6.1H327.2z"/>
		<path fill="none" stroke="#FDFEFF" stroke-width="4" stroke-miterlimit="10" d="M337.3,120c0,16.4-2.4,37.2-15.3,37.2"/>
		<path fill="none" stroke="#FDFEFF" stroke-width="4" stroke-miterlimit="10" d="M357.9,120c0,16.4,2.4,37.2,15.3,37.2"/>
		<g>
			<path fill="#1F7FB6" d="M549.1,166.7c1.6-6.8-7.6-34.6-7.6-34.6c-1-2.6-5.9-10.7-19.7-10.8l-26.9,0.1
				c-13.3-0.7-18.2,6.9-19.5,10.9c0,0-8.9,28-7.5,34.4c1,4.1,8.4,9.2,16.2,13l-16.4,49.9l24-0.1l0.1,60.6c0.5,4.7,3.7,6.4,7.7,6.4
				c4,0,7.2-1.6,7.7-6.2h2.5c0.5,4.7,3.7,6.3,7.7,6.3c4,0,7.2-1.8,7.7-6.4l0.1-60.6l25.6,0l-15.6-51
				C542.1,175,548.2,170.5,549.1,166.7z"/>
			<polygon fill="#F9F9F9" points="504,121.4 498.7,131.1 509.3,148.6 519.9,131.1 514.6,121.4 			"/>
			<path fill="#1F7FB6" d="M488.7,116.2h20.6c-7.6,0-13.7-6.1-13.7-13.7v-6.9c13.7,0,13.7-13.7,13.7-13.7s0,13.7,13.7,13.7v6.9
				c0,7.6-6.2,13.7-13.7,13.7h20.6c3.8,0,6.9-3.1,6.9-6.9c-3.8,0-6.9-3.1-6.9-6.9V88.7c0-11.4-9.2-20.6-20.6-20.6
				c-11.4,0-20.6,9.2-20.6,20.6v13.7c0,3.8-3.1,6.9-6.9,6.9C481.9,113.1,484.9,116.2,488.7,116.2z"/>
		</g>
	</g>
	<g>
		<path fill="#1F7FB6" d="M372.4,36.7V16.5h2.7l5,12.1l5.2-12.1h2.6v20.2h-2.1V19.5l-4.8,11.6h-2l-4.7-11.5v17.1H372.4z"/>
		<path fill="#1F7FB6" d="M392.1,18.9v-2.4h2.1v2.4H392.1z M392.1,36.7V22.5h2.1v14.2H392.1z"/>
		<path fill="#1F7FB6" d="M402.2,36.9c-0.8,0-1.5-0.1-2-0.3s-0.9-0.5-1.2-0.9c-0.3-0.4-0.5-0.9-0.6-1.5c-0.1-0.6-0.2-1.2-0.2-1.9V24
			h-1.9v-1.6h1.9v-3.9h2v3.9h2.9V24h-2.9v8.3c0,0.5,0,0.9,0.1,1.2c0,0.4,0.1,0.7,0.3,0.9c0.2,0.3,0.4,0.4,0.7,0.6
			c0.3,0.1,0.7,0.2,1.2,0.2c0.3,0,0.6,0,0.9-0.1v1.7C403,36.9,402.6,36.9,402.2,36.9z"/>
		<path fill="#1F7FB6" d="M409.3,37c-0.4,0-0.7,0-1.1-0.1c-0.4-0.1-0.7-0.2-1-0.3s-0.6-0.3-0.9-0.5c-0.3-0.2-0.5-0.4-0.6-0.6
			c-0.3-0.4-0.5-0.8-0.7-1.3c-0.2-0.5-0.3-1-0.3-1.6c0-0.5,0.1-1,0.2-1.5s0.3-0.8,0.6-1.1c0.4-0.6,1-1,1.7-1.3s1.6-0.4,2.7-0.4h3.6
			v-1.9c0-0.8-0.2-1.4-0.5-1.8c-0.4-0.4-0.8-0.7-1.3-0.8c-0.5-0.1-0.9-0.2-1.3-0.2c-0.9,0-1.6,0.2-2.1,0.5c-0.5,0.3-0.9,0.8-1.2,1.5
			l-1.7-0.6c0.4-1,1-1.7,1.8-2.2c0.8-0.5,2-0.8,3.3-0.8c0.9,0,1.7,0.1,2.4,0.3s1.2,0.6,1.7,1.1c0.4,0.4,0.7,0.9,0.8,1.3
			c0.2,0.5,0.2,1.1,0.2,1.8v10.1h-2.1v-1.4c-0.5,0.5-0.9,0.9-1.4,1.1c-0.5,0.3-1,0.5-1.5,0.5C410.2,37,409.7,37,409.3,37z
			 M409.9,35.4c0.7,0,1.4-0.2,2-0.5c0.6-0.3,1-0.8,1.3-1.2s0.4-0.9,0.4-1.4v-2.4h-3c-0.7,0-1.2,0.1-1.7,0.2s-0.9,0.3-1.2,0.5
			c-0.3,0.2-0.5,0.5-0.7,0.9c-0.1,0.3-0.2,0.7-0.2,1.2c0,0.4,0,0.8,0.2,1.1s0.3,0.6,0.5,0.8C408,35.1,408.8,35.4,409.9,35.4z"/>
		<path fill="#1F7FB6" d="M419.3,36.7V22.5h2v3.1c0.4-0.8,0.8-1.5,1.4-2c0.6-0.5,1.1-0.8,1.7-0.9c0.5-0.1,1-0.2,1.3-0.2h0.3v2.1
			h-0.5c-0.8,0-1.5,0.2-2.1,0.6c-0.6,0.4-1,0.9-1.3,1.5s-0.5,1.2-0.6,1.8s-0.2,1.2-0.2,1.8v6.5H419.3z"/>
		<path fill="#1F7FB6" d="M434.4,37.1c-0.9,0-1.8-0.2-2.5-0.6s-1.3-1-1.8-1.7v1.8h-2.1V16.5h2.1v7.4c0.5-0.6,1.1-1.1,1.8-1.4
			c0.7-0.3,1.5-0.5,2.5-0.5c0.9,0,1.7,0.2,2.4,0.5c0.7,0.4,1.2,1,1.6,1.8c0.3,0.6,0.5,1.3,0.7,2.2c0.2,0.8,0.2,1.8,0.2,3
			c0,1-0.1,1.8-0.2,2.5c-0.1,0.7-0.3,1.4-0.5,1.9c-0.3,0.9-0.7,1.6-1.3,2.1c-0.5,0.5-1.1,0.8-1.6,0.9
			C435.3,37.1,434.8,37.1,434.4,37.1z M433.8,35.4c0.9,0,1.7-0.3,2.2-0.8s0.9-1.2,1-2c0.1-0.3,0.1-0.7,0.2-1.3s0.1-1.2,0.1-1.8
			c0-0.6,0-1.2-0.1-1.7c0-0.5-0.1-1-0.3-1.5c-0.1-0.6-0.4-1-0.6-1.4c-0.3-0.4-0.6-0.7-1.1-0.8c-0.4-0.2-0.9-0.3-1.4-0.3
			c-0.5,0-0.9,0.1-1.4,0.3c-0.4,0.2-0.8,0.4-1.2,0.8c-0.3,0.3-0.6,0.8-0.8,1.3s-0.3,1.1-0.3,1.8v3.5c0,0.6,0.1,1.2,0.3,1.7
			c0.2,0.5,0.4,0.9,0.7,1.3c0.3,0.4,0.7,0.6,1.1,0.8C432.8,35.3,433.2,35.4,433.8,35.4z"/>
		<path fill="#1F7FB6" d="M447.8,37.1c-0.7,0-1.4-0.1-1.9-0.3c-0.6-0.2-1.1-0.4-1.5-0.7c-0.4-0.3-0.8-0.6-1.1-1
			c-0.3-0.4-0.5-0.8-0.7-1.2c-0.2-0.6-0.4-1.2-0.5-1.9s-0.1-1.4-0.1-2.2c0-1.1,0.1-2.1,0.2-2.9c0.1-0.8,0.3-1.5,0.6-2.1
			c0.3-0.6,0.6-1.1,1-1.4c0.4-0.4,1-0.8,1.6-1.1s1.4-0.4,2.4-0.4c0.8,0,1.6,0.1,2.2,0.3c0.6,0.2,1.1,0.5,1.5,1
			c0.6,0.6,1,1.4,1.2,2.3s0.3,2.1,0.3,3.4v1.3h-8.9v0.3c0,0.9,0.1,1.7,0.3,2.3c0.2,0.6,0.5,1.1,0.8,1.5c0.3,0.4,0.8,0.6,1.2,0.8
			c0.5,0.2,1,0.2,1.5,0.2c0.6,0,1.1-0.1,1.5-0.3s0.8-0.4,1.1-0.7c0.3-0.3,0.5-0.5,0.6-0.8l1.6,0.9c-0.3,0.6-0.8,1.1-1.3,1.5
			s-1.1,0.7-1.7,0.9C449.2,37,448.5,37.1,447.8,37.1z M444.2,28.6h6.9c0-1.4-0.2-2.5-0.5-3.2c-0.3-0.8-0.7-1.2-1.3-1.4
			c-0.5-0.2-1.1-0.3-1.6-0.3c-0.5,0-0.9,0.1-1.4,0.2s-0.8,0.4-1.1,0.8c-0.3,0.4-0.6,0.9-0.8,1.5C444.3,26.8,444.2,27.6,444.2,28.6z"
			/>
		<path fill="#1F7FB6" d="M456.1,18.9v-2.4h2.1v2.4H456.1z M456.1,36.7V22.5h2.1v14.2H456.1z"/>
		<path fill="#1F7FB6" d="M466.2,36.9c-0.8,0-1.5-0.1-2-0.3s-0.9-0.5-1.2-0.9c-0.3-0.4-0.5-0.9-0.6-1.5c-0.1-0.6-0.2-1.2-0.2-1.9V24
			h-1.9v-1.6h1.9v-3.9h2v3.9h2.9V24h-2.9v8.3c0,0.5,0,0.9,0.1,1.2c0,0.4,0.1,0.7,0.3,0.9c0.2,0.3,0.4,0.4,0.7,0.6
			c0.3,0.1,0.7,0.2,1.2,0.2c0.3,0,0.6,0,0.9-0.1v1.7C467,36.9,466.6,36.9,466.2,36.9z"/>
		<path fill="#1F7FB6" d="M474.6,37.1c-0.7,0-1.4-0.1-1.9-0.3c-0.6-0.2-1.1-0.4-1.5-0.7c-0.4-0.3-0.8-0.6-1.1-1
			c-0.3-0.4-0.5-0.8-0.7-1.2c-0.2-0.6-0.4-1.2-0.5-1.9s-0.1-1.4-0.1-2.2c0-1.1,0.1-2.1,0.2-2.9c0.1-0.8,0.3-1.5,0.6-2.1
			c0.3-0.6,0.6-1.1,1-1.4c0.4-0.4,1-0.8,1.6-1.1s1.4-0.4,2.4-0.4c0.8,0,1.6,0.1,2.2,0.3c0.6,0.2,1.1,0.5,1.5,1
			c0.6,0.6,1,1.4,1.2,2.3s0.3,2.1,0.3,3.4v1.3H471v0.3c0,0.9,0.1,1.7,0.3,2.3c0.2,0.6,0.5,1.1,0.8,1.5c0.3,0.4,0.8,0.6,1.2,0.8
			c0.5,0.2,1,0.2,1.5,0.2c0.6,0,1.1-0.1,1.5-0.3s0.8-0.4,1.1-0.7c0.3-0.3,0.5-0.5,0.6-0.8l1.6,0.9c-0.3,0.6-0.8,1.1-1.3,1.5
			s-1.1,0.7-1.7,0.9C476,37,475.4,37.1,474.6,37.1z M471,28.6h6.9c0-1.4-0.2-2.5-0.5-3.2c-0.3-0.8-0.7-1.2-1.3-1.4
			c-0.5-0.2-1.1-0.3-1.6-0.3c-0.5,0-0.9,0.1-1.4,0.2s-0.8,0.4-1.1,0.8c-0.3,0.4-0.6,0.9-0.8,1.5C471.1,26.8,471,27.6,471,28.6z"/>
		<path fill="#1F7FB6" d="M483,36.7V22.5h2v3.1c0.4-0.8,0.8-1.5,1.4-2c0.6-0.5,1.1-0.8,1.7-0.9c0.5-0.1,1-0.2,1.3-0.2h0.3v2.1h-0.5
			c-0.8,0-1.5,0.2-2.1,0.6c-0.6,0.4-1,0.9-1.3,1.5s-0.5,1.2-0.6,1.8s-0.2,1.2-0.2,1.8v6.5H483z"/>
	</g>
</g>
</svg>
