<?xml version="1.0" encoding="utf-8"?>
<!-- Generator: Adobe Illustrator 18.0.0, SVG Export Plug-In . SVG Version: 6.00 Build 0)  -->
<!DOCTYPE svg PUBLIC "-//W3C//DTD SVG 1.1//EN" "http://www.w3.org/Graphics/SVG/1.1/DTD/svg11.dtd">
<svg version="1.1" xmlns="http://www.w3.org/2000/svg" xmlns:xlink="http://www.w3.org/1999/xlink" x="0px" y="0px"
	 viewBox="0 0 860 320" enable-background="new 0 0 860 320" xml:space="preserve">
<g id="Ebene_1">
</g>
<g id="Mitarbeiter">
</g>
<g id="Ebene_8">
</g>
<g id="Stahl">
</g>
<g id="Ebene_7">
</g>
<g id="Patente">
</g>
<g id="Lightbulb_Interface_Symbol">
</g>
<g id="Bright_Lightbulb">
</g>
<g id="Recycling_Symbol">
</g>
<g id="Global_Recycle_Symbol">
</g>
<g id="Globe_Grid">
</g>
<g id="Earth_Grid_Symbol">
	<g id="Recycling_Symbol_1_">
	</g>
</g>
<g id="Three_Curved_Arrows_Resembling_Recycling_Symbol">
</g>
<g id="Family_Of_Heterosexual_Couple">
</g>
<g id="Couple">
</g>
<g id="Woman_Standing_Silhouette_Black_Shape">
</g>
<g id="Woman_Searching_Job">
</g>
<g id="Couple_With_Baby">
</g>
<g id="Female_And_Male_Silhouettes_With_A_Vertical_Line_In_The_Middle">
</g>
<g id="Business_Woman">
</g>
<g id="Attention_Signal_And_Construction_Worker">
</g>
<g id="Handy_Man_Worker_Silhouette">
</g>
<g id="People_Working">
</g>
<g id="Tree_Silhouette">
	<g>
		<polyline fill="none" stroke="#BEBEBE" stroke-width="3" stroke-miterlimit="10" points="842.5,126.7 583.3,126.7 565,144 
			432,144 		"/>
		<polyline fill="none" stroke="#BEBEBE" stroke-width="3" stroke-miterlimit="10" points="18.1,126.7 282,126.7 300.3,144 
			433.3,144 		"/>
	</g>
	<g>
		<polyline fill="none" stroke="#BEBEBE" stroke-width="3" stroke-miterlimit="10" points="842.5,287.7 583.3,287.7 565,270.3 
			432,270.3 		"/>
		<polyline fill="none" stroke="#BEBEBE" stroke-width="3" stroke-miterlimit="10" points="47.4,287.7 282,287.7 300.3,270.3 
			433.3,270.3 		"/>
	</g>
	<g>
		<line fill="none" stroke="#BEBEBE" stroke-width="3" stroke-miterlimit="10" x1="842.5" y1="208" x2="431" y2="208"/>
		<line fill="none" stroke="#BEBEBE" stroke-width="3" stroke-miterlimit="10" x1="46.1" y1="208" x2="434.3" y2="208"/>
	</g>
	<g>
		<path d="M57,277.4c-2.1,0-3.9-0.3-5.4-0.8c-1.5-0.5-2.7-1.4-3.7-2.4c-0.7-0.8-1.2-1.6-1.6-2.7c-0.4-1-0.7-2.2-0.9-3.5l6.7-1.4
			c0.4,1.6,0.7,2.7,1.1,3.3s0.8,1,1.5,1.3c0.6,0.3,1.5,0.5,2.5,0.5c0.7,0,1.3-0.1,1.8-0.3s1-0.5,1.4-0.9c0.7-0.7,1.3-1.6,1.8-2.9
			c0.4-1.2,0.7-2.5,0.8-3.7s0.2-2.2,0.2-3c-1,1-2.1,1.7-3.3,2.2c-1.2,0.5-2.6,0.7-4.3,0.7c-1.7,0-3.1-0.2-4.4-0.6s-2.3-1.1-3.1-1.9
			c-1.1-1.1-1.9-2.4-2.5-4.1c-0.5-1.7-0.8-3.7-0.8-6.1c0-2.6,0.3-4.8,0.8-6.6c0.6-1.9,1.5-3.4,2.7-4.6c1-0.9,2.2-1.7,3.7-2.1
			c1.5-0.5,3.2-0.7,5.2-0.7c1.8,0,3.3,0.2,4.7,0.6c1.3,0.4,2.4,1,3.4,1.8c1.4,1.2,2.5,2.8,3.3,4.9c0.8,2.1,1.2,4.2,1.4,6.5
			s0.2,4.3,0.2,6.1c0,3.1-0.1,5.8-0.4,8c-0.3,2.2-0.8,4.2-1.6,5.9c-0.8,1.7-1.7,3-2.8,4c-1,0.8-2.1,1.5-3.5,2
			C60.5,277.2,58.9,277.4,57,277.4z M56.8,258.4c1.5,0,2.7-0.5,3.7-1.4s1.6-1.9,1.9-3.1c0.3-1.1,0.4-2.2,0.4-3.1
			c0-1.2-0.1-2.4-0.3-3.4c-0.2-1-0.5-1.9-1-2.6c-0.4-0.7-1-1.3-1.7-1.7c-0.7-0.4-1.6-0.6-2.6-0.6c-1.5,0-2.6,0.4-3.3,1.2
			c-0.8,0.8-1.3,1.8-1.5,3.1c-0.2,1.2-0.3,2.4-0.3,3.6c0,1.5,0.1,2.7,0.3,3.7c0.2,1,0.5,1.8,1,2.4c0.4,0.6,0.9,1.1,1.5,1.3
			C55.3,258.3,56,258.4,56.8,258.4z"/>
		<path d="M81,276.5l12.4-32.4H82.6v4.1h-5.8v-10.4h23.7v5.7l-12.6,33H81z"/>
		<path d="M109.2,259.5c-0.7-0.5-1.3-1.2-1.8-1.9c-0.5-0.7-0.8-1.6-1.1-2.5c-0.3-0.9-0.4-1.9-0.5-2.9c-0.1-1-0.1-2.1-0.1-3.2
			c0-1.1,0.1-2.3,0.2-3.5s0.4-2.5,1-3.8s1.3-2.3,2.4-3.1c0.7-0.5,1.6-0.9,2.6-1.2c1-0.3,2.1-0.4,3.5-0.4c1.4,0,2.5,0.1,3.5,0.4
			c1,0.3,1.8,0.7,2.6,1.2c0.7,0.5,1.4,1.3,1.9,2.2c0.6,1,1,2.1,1.2,3.4c0.3,1.3,0.4,2.9,0.4,4.8c0,1.1-0.1,2.3-0.2,3.6
			c-0.1,1.3-0.4,2.5-0.9,3.7c-0.5,1.2-1.2,2.1-2.1,2.9c-0.8,0.7-1.7,1.2-2.8,1.5c-1.1,0.3-2.3,0.5-3.6,0.5c-1.3,0-2.5-0.1-3.5-0.4
			C110.7,260.4,109.9,260,109.2,259.5z M117.2,255.9c0.4-0.3,0.7-1,1-1.9c0.3-0.9,0.4-2.6,0.4-5c0-1.3-0.1-2.5-0.2-3.5
			c-0.1-1-0.3-1.8-0.5-2.2c-0.2-0.5-0.4-0.8-0.7-1.1c-0.5-0.4-1.1-0.6-2-0.6c-0.9,0-1.5,0.2-2,0.6c-0.4,0.4-0.8,1-1,2
			c-0.3,0.9-0.4,2.6-0.4,4.9c0,1.4,0,2.5,0.1,3.3s0.2,1.5,0.4,2c0.1,0.5,0.3,0.8,0.5,1.1c0.2,0.2,0.3,0.4,0.5,0.5
			c0.2,0.2,0.5,0.3,0.8,0.5c0.3,0.1,0.7,0.2,1.2,0.2c0.5,0,0.9-0.1,1.2-0.2S117,256.1,117.2,255.9z M119.3,277.4l13.6-40.5h6
			l-13.6,40.5H119.3z M136.9,275.7c-0.7-0.5-1.3-1.2-1.8-1.9c-0.5-0.7-0.8-1.6-1.1-2.5c-0.3-0.9-0.4-1.9-0.5-2.9
			c-0.1-1-0.1-2.1-0.1-3.2c0-1.1,0.1-2.3,0.2-3.5s0.4-2.5,1-3.8s1.3-2.3,2.4-3.1c0.7-0.5,1.6-0.9,2.6-1.2s2.1-0.4,3.5-0.4
			c1.3,0,2.5,0.1,3.5,0.4s1.8,0.7,2.6,1.2c0.7,0.5,1.4,1.3,1.9,2.2c0.6,1,1,2.1,1.2,3.4c0.3,1.3,0.4,2.9,0.4,4.8
			c0,1.1,0,2.3-0.1,3.5c-0.1,1.2-0.4,2.5-0.9,3.7c-0.5,1.2-1.2,2.2-2.2,3c-0.8,0.7-1.7,1.2-2.8,1.5c-1.1,0.3-2.2,0.5-3.6,0.5
			c-1.4,0-2.5-0.1-3.5-0.4C138.5,276.7,137.7,276.3,136.9,275.7z M145,272.2c0.4-0.4,0.8-1,1-1.9c0.3-0.9,0.4-2.6,0.4-5
			c0-1.3-0.1-2.5-0.2-3.6c-0.1-1-0.3-1.8-0.5-2.2c-0.2-0.4-0.4-0.8-0.7-1.1c-0.4-0.4-1.1-0.6-2-0.6c-0.9,0-1.6,0.2-2,0.6
			c-0.1,0.1-0.3,0.3-0.5,0.7c-0.2,0.3-0.4,1-0.6,2c-0.2,1-0.3,2.4-0.3,4.2c0,1.4,0,2.5,0.1,3.3c0.1,0.9,0.2,1.5,0.4,2
			c0.1,0.5,0.3,0.8,0.5,1.1c0.2,0.2,0.3,0.4,0.5,0.5c0.4,0.4,1.1,0.6,2,0.6C143.9,272.8,144.6,272.6,145,272.2z"/>
	</g>
	<g>
		<path d="M597.5,176.6c-0.6,0-1.1-0.1-1.5-0.2c-0.4-0.1-0.8-0.3-1.1-0.6c-0.2-0.2-0.4-0.5-0.5-0.8c-0.1-0.3-0.2-0.6-0.3-0.9
			l1.2-0.3c0.1,0.2,0.1,0.5,0.2,0.7s0.2,0.4,0.3,0.5c0.4,0.4,0.9,0.5,1.6,0.5c0.7,0,1.2-0.2,1.6-0.6c0.4-0.4,0.7-1,0.8-1.7
			s0.2-1.7,0.2-2.9c-0.3,0.4-0.5,0.6-0.8,0.8c-0.2,0.2-0.6,0.4-0.9,0.5c-0.4,0.1-0.8,0.2-1.2,0.2c-0.2,0-0.4,0-0.7,0
			s-0.4-0.1-0.7-0.1s-0.4-0.2-0.6-0.3c-0.2-0.1-0.4-0.3-0.5-0.4c-0.3-0.3-0.6-0.8-0.8-1.3c-0.2-0.6-0.3-1.3-0.3-2.1
			c0-0.8,0.1-1.4,0.3-2s0.5-1,0.8-1.4c0.3-0.3,0.7-0.5,1.2-0.7s1-0.2,1.5-0.2c0.5,0,1,0.1,1.4,0.2s0.8,0.3,1.1,0.7
			c0.3,0.4,0.6,0.8,0.8,1.3c0.2,0.5,0.3,1.1,0.4,1.9s0.1,1.6,0.1,2.5c0,1.1-0.1,2.1-0.2,2.9c-0.1,0.8-0.3,1.4-0.5,1.9
			c-0.2,0.5-0.5,0.8-0.7,1.1C599.5,176.3,598.7,176.6,597.5,176.6z M597.4,170.9c0.4,0,0.8-0.1,1.2-0.3c0.3-0.2,0.6-0.4,0.8-0.7
			s0.4-0.6,0.5-1s0.1-0.7,0.1-1.1c0-1.1-0.2-2-0.6-2.6c-0.4-0.6-1-0.8-1.9-0.8c-0.4,0-0.8,0.1-1.1,0.2c-0.3,0.1-0.5,0.3-0.7,0.6
			c-0.2,0.3-0.3,0.6-0.4,1c-0.1,0.4-0.1,0.9-0.1,1.4c0,0.6,0.1,1.1,0.2,1.5c0.1,0.4,0.3,0.8,0.5,1s0.4,0.4,0.7,0.6
			S597.1,170.9,597.4,170.9z"/>
		<path d="M607.1,176.6c-0.6,0-1.1-0.1-1.5-0.2c-0.4-0.1-0.8-0.3-1.1-0.6c-0.2-0.2-0.4-0.5-0.5-0.8c-0.1-0.3-0.2-0.6-0.3-0.9
			l1.2-0.3c0.1,0.2,0.1,0.5,0.2,0.7s0.2,0.4,0.3,0.5c0.4,0.4,0.9,0.5,1.6,0.5c0.7,0,1.2-0.2,1.6-0.6c0.4-0.4,0.7-1,0.8-1.7
			s0.2-1.7,0.2-2.9c-0.3,0.4-0.5,0.6-0.8,0.8c-0.2,0.2-0.6,0.4-0.9,0.5c-0.4,0.1-0.8,0.2-1.2,0.2c-0.2,0-0.4,0-0.7,0
			s-0.4-0.1-0.7-0.1s-0.4-0.2-0.6-0.3c-0.2-0.1-0.4-0.3-0.5-0.4c-0.3-0.3-0.6-0.8-0.8-1.3c-0.2-0.6-0.3-1.3-0.3-2.1
			c0-0.8,0.1-1.4,0.3-2s0.5-1,0.8-1.4c0.3-0.3,0.7-0.5,1.2-0.7s1-0.2,1.5-0.2c0.5,0,1,0.1,1.4,0.2s0.8,0.3,1.1,0.7
			c0.3,0.4,0.6,0.8,0.8,1.3c0.2,0.5,0.3,1.1,0.4,1.9s0.1,1.6,0.1,2.5c0,1.1-0.1,2.1-0.2,2.9c-0.1,0.8-0.3,1.4-0.5,1.9
			c-0.2,0.5-0.5,0.8-0.7,1.1C609.1,176.3,608.3,176.6,607.1,176.6z M607,170.9c0.4,0,0.8-0.1,1.2-0.3c0.3-0.2,0.6-0.4,0.8-0.7
			s0.4-0.6,0.5-1s0.1-0.7,0.1-1.1c0-1.1-0.2-2-0.6-2.6c-0.4-0.6-1-0.8-1.9-0.8c-0.4,0-0.8,0.1-1.1,0.2c-0.3,0.1-0.5,0.3-0.7,0.6
			c-0.2,0.3-0.3,0.6-0.4,1c-0.1,0.4-0.1,0.9-0.1,1.4c0,0.6,0.1,1.1,0.2,1.5c0.1,0.4,0.3,0.8,0.5,1s0.4,0.4,0.7,0.6
			S606.7,170.9,607,170.9z"/>
		<path d="M615.3,170.9c-0.4,0-0.7,0-1-0.1c-0.3-0.1-0.5-0.2-0.7-0.4c-0.2-0.2-0.3-0.4-0.5-0.6c-0.1-0.2-0.2-0.5-0.3-0.7
			s-0.1-0.6-0.1-0.9s0-0.7,0-1s0-0.7,0-1.1s0.1-0.6,0.1-0.9s0.2-0.5,0.3-0.7c0.1-0.2,0.3-0.4,0.5-0.6c0.2-0.2,0.5-0.3,0.7-0.4
			c0.3-0.1,0.6-0.1,1-0.1c0.4,0,0.8,0,1,0.1c0.3,0.1,0.5,0.2,0.7,0.4c0.4,0.4,0.7,0.9,0.8,1.4c0.1,0.5,0.1,1.1,0.1,1.8
			c0,0.6,0,1.1-0.1,1.5c-0.1,0.4-0.2,0.8-0.3,1c-0.1,0.3-0.3,0.5-0.5,0.6c-0.2,0.2-0.5,0.3-0.7,0.4
			C616,170.9,615.7,170.9,615.3,170.9z M615.3,170.1c0.2,0,0.4,0,0.5-0.1s0.3-0.1,0.4-0.2c0.3-0.2,0.4-0.6,0.5-1.1s0.1-1,0.1-1.6
			c0-0.7,0-1.2-0.1-1.6s-0.1-0.6-0.2-0.8s-0.2-0.3-0.3-0.3c-0.1-0.1-0.3-0.2-0.4-0.2s-0.3-0.1-0.5-0.1c-0.2,0-0.4,0-0.5,0.1
			s-0.2,0.1-0.4,0.2c-0.3,0.2-0.5,0.6-0.5,1s-0.1,1-0.1,1.6c0,0.6,0,1.2,0.1,1.6s0.1,0.7,0.2,0.8c0.1,0.1,0.2,0.2,0.3,0.3
			c0.1,0.1,0.3,0.2,0.4,0.2C614.9,170.1,615.1,170.1,615.3,170.1z M616.7,176.6l4.2-13.3h1.1l-4.2,13.3H616.7z M623.3,176.6
			c-0.4,0-0.7,0-1-0.1s-0.5-0.2-0.7-0.4c-0.3-0.2-0.5-0.5-0.6-0.9s-0.2-0.7-0.2-1.1s0-0.8,0-1.2c0-0.6,0-1.1,0.1-1.6s0.2-0.8,0.3-1
			s0.3-0.5,0.5-0.6c0.2-0.2,0.5-0.3,0.7-0.4s0.6-0.1,1-0.1s0.7,0,1,0.1c0.3,0.1,0.5,0.2,0.8,0.4c0.4,0.4,0.6,0.9,0.7,1.4
			s0.1,1.2,0.1,1.8c0,0.6,0,1.1-0.1,1.5s-0.2,0.7-0.3,1c-0.1,0.3-0.3,0.5-0.5,0.7c-0.2,0.2-0.5,0.3-0.8,0.4
			C624,176.6,623.7,176.6,623.3,176.6z M623.3,175.8c0.2,0,0.4,0,0.5-0.1c0.1-0.1,0.3-0.1,0.4-0.2c0.3-0.2,0.4-0.6,0.5-1
			s0.1-1,0.1-1.6c0-0.7,0-1.2-0.1-1.6s-0.1-0.6-0.2-0.8c-0.1-0.2-0.2-0.3-0.3-0.3c-0.1-0.1-0.3-0.2-0.4-0.2s-0.3-0.1-0.5-0.1
			c-0.4,0-0.7,0.1-0.9,0.3c-0.3,0.2-0.4,0.6-0.5,1.1s-0.1,1-0.1,1.6c0,0.6,0,1.2,0.1,1.5c0.1,0.4,0.1,0.7,0.2,0.8
			c0.1,0.1,0.2,0.2,0.3,0.3c0.1,0.1,0.3,0.2,0.4,0.2S623.1,175.8,623.3,175.8z"/>
		<path d="M634.9,176.6c-0.3,0-0.7,0-1-0.1c-0.3-0.1-0.6-0.2-0.8-0.5c-0.2-0.2-0.4-0.5-0.6-0.8s-0.2-0.8-0.2-1.3v-6.7h1.3v6.2
			c0,0.4,0,0.7,0.1,0.9c0.1,0.3,0.2,0.5,0.3,0.6s0.3,0.3,0.6,0.4s0.5,0.1,0.8,0.1c0.4,0,0.7-0.1,1-0.2s0.6-0.4,0.8-0.6
			c0.2-0.3,0.4-0.6,0.5-0.9s0.2-0.7,0.2-1v-5.4h1.3v9.1h-1.3v-1.3c-0.4,0.6-0.8,1-1.3,1.2S635.5,176.6,634.9,176.6z"/>
		<path d="M641.5,176.3v-9.1h1.3v1.3c0.4-0.6,0.8-1,1.3-1.2s1-0.4,1.6-0.4c0.5,0,1,0.1,1.4,0.3c0.4,0.2,0.7,0.6,0.9,1
			c0.2,0.4,0.3,0.9,0.3,1.4v6.7H647v-6.2c0-0.7-0.1-1.2-0.4-1.5s-0.7-0.5-1.3-0.5c-0.4,0-0.7,0.1-1,0.2s-0.6,0.4-0.8,0.7
			c-0.2,0.3-0.4,0.6-0.5,0.9c-0.1,0.3-0.2,0.7-0.2,1v5.4H641.5z"/>
		<path d="M653.6,176.6c-0.5,0-0.9-0.1-1.2-0.2s-0.7-0.2-1-0.4c-0.5-0.4-0.9-0.8-1.1-1.4l1.1-0.5c0.2,0.3,0.3,0.6,0.6,0.8
			c0.2,0.2,0.5,0.4,0.8,0.5c0.3,0.1,0.6,0.1,0.9,0.1c0.4,0,0.8-0.1,1.1-0.2c0.3-0.1,0.5-0.3,0.7-0.5c0.1-0.2,0.2-0.5,0.2-0.8
			c0-0.3-0.1-0.6-0.2-0.8s-0.4-0.4-0.7-0.5c-0.6-0.2-1-0.4-1.2-0.4c-0.2-0.1-0.4-0.1-0.5-0.2c-0.5-0.2-0.9-0.4-1.2-0.6
			s-0.6-0.4-0.7-0.6s-0.3-0.4-0.3-0.7c-0.1-0.2-0.1-0.5-0.1-0.7c0-0.2,0-0.4,0.1-0.6c0-0.2,0.1-0.5,0.2-0.7c0.2-0.3,0.4-0.5,0.6-0.7
			c0.3-0.2,0.6-0.4,1-0.5s0.8-0.1,1.2-0.1c0.7,0,1.4,0.1,1.9,0.4s0.9,0.7,1.2,1.3l-1,0.5c-0.1-0.3-0.3-0.5-0.4-0.6s-0.3-0.3-0.5-0.4
			s-0.3-0.2-0.5-0.2s-0.4-0.1-0.6-0.1c-0.3,0-0.6,0-0.9,0.1c-0.2,0.1-0.5,0.2-0.6,0.3c-0.1,0.1-0.2,0.3-0.3,0.4s-0.1,0.4-0.1,0.6
			c0,0.2,0.1,0.4,0.2,0.6s0.3,0.3,0.5,0.5c0.2,0.1,0.5,0.3,0.8,0.4c0.3,0.1,0.7,0.3,1.2,0.4c0.7,0.2,1.2,0.4,1.5,0.7
			c0.3,0.2,0.5,0.4,0.6,0.6c0.1,0.1,0.2,0.3,0.2,0.5s0.1,0.5,0.1,0.8c0,0.4-0.1,0.7-0.2,0.9s-0.3,0.5-0.4,0.7
			c-0.3,0.3-0.6,0.6-1.2,0.7S654.1,176.6,653.6,176.6z"/>
		<path d="M662.1,176.6c-0.5,0-0.9-0.1-1.2-0.2c-0.4-0.1-0.7-0.3-1-0.4c-0.3-0.2-0.5-0.4-0.7-0.7s-0.3-0.5-0.4-0.8
			c-0.1-0.4-0.2-0.8-0.3-1.2s-0.1-0.9-0.1-1.4c0-0.7,0-1.3,0.1-1.9s0.2-1,0.4-1.4c0.2-0.4,0.4-0.7,0.6-0.9c0.3-0.3,0.6-0.5,1-0.7
			c0.4-0.2,0.9-0.2,1.5-0.2c0.5,0,1,0.1,1.4,0.2s0.7,0.3,1,0.6c0.4,0.4,0.7,0.9,0.8,1.5c0.1,0.6,0.2,1.3,0.2,2.2v0.8h-5.7v0.2
			c0,0.6,0.1,1.1,0.2,1.5c0.1,0.4,0.3,0.7,0.5,1c0.2,0.2,0.5,0.4,0.8,0.5s0.6,0.1,1,0.1c0.4,0,0.7-0.1,1-0.2
			c0.3-0.1,0.5-0.3,0.7-0.5s0.3-0.3,0.4-0.5l1,0.6c-0.2,0.4-0.5,0.7-0.8,0.9c-0.3,0.3-0.7,0.4-1.1,0.5
			C663,176.6,662.5,176.6,662.1,176.6z M659.7,171.2h4.4c0-0.9-0.1-1.6-0.3-2.1c-0.2-0.5-0.5-0.8-0.8-0.9s-0.7-0.2-1-0.2
			c-0.3,0-0.6,0-0.9,0.1c-0.3,0.1-0.5,0.3-0.7,0.5c-0.2,0.2-0.4,0.6-0.5,1C659.8,170,659.8,170.5,659.7,171.2z"/>
		<path d="M667.4,176.3v-9.1h1.3v2c0.2-0.5,0.5-1,0.9-1.3s0.7-0.5,1.1-0.6s0.6-0.1,0.9-0.1h0.2v1.3h-0.3c-0.5,0-1,0.1-1.3,0.4
			c-0.4,0.3-0.6,0.6-0.8,1s-0.3,0.8-0.4,1.2s-0.1,0.8-0.1,1.2v4.2H667.4z"/>
		<path d="M676.1,176.6c-0.5,0-0.9-0.1-1.2-0.2c-0.4-0.1-0.7-0.3-1-0.4c-0.3-0.2-0.5-0.4-0.7-0.7s-0.3-0.5-0.4-0.8
			c-0.1-0.4-0.2-0.8-0.3-1.2s-0.1-0.9-0.1-1.4c0-0.7,0-1.3,0.1-1.9s0.2-1,0.4-1.4c0.2-0.4,0.4-0.7,0.6-0.9c0.3-0.3,0.6-0.5,1-0.7
			c0.4-0.2,0.9-0.2,1.5-0.2c0.5,0,1,0.1,1.4,0.2s0.7,0.3,1,0.6c0.4,0.4,0.7,0.9,0.8,1.5c0.1,0.6,0.2,1.3,0.2,2.2v0.8h-5.7v0.2
			c0,0.6,0.1,1.1,0.2,1.5c0.1,0.4,0.3,0.7,0.5,1c0.2,0.2,0.5,0.4,0.8,0.5s0.6,0.1,1,0.1c0.4,0,0.7-0.1,1-0.2
			c0.3-0.1,0.5-0.3,0.7-0.5s0.3-0.3,0.4-0.5l1,0.6c-0.2,0.4-0.5,0.7-0.8,0.9c-0.3,0.3-0.7,0.4-1.1,0.5
			C677,176.6,676.5,176.6,676.1,176.6z M673.7,171.2h4.4c0-0.9-0.1-1.6-0.3-2.1c-0.2-0.5-0.5-0.8-0.8-0.9s-0.7-0.2-1-0.2
			c-0.3,0-0.6,0-0.9,0.1c-0.3,0.1-0.5,0.3-0.7,0.5c-0.2,0.2-0.4,0.6-0.5,1C673.8,170,673.7,170.5,673.7,171.2z"/>
		<path d="M681.4,176.3v-9.1h1.3v2c0.2-0.5,0.5-1,0.9-1.3s0.7-0.5,1.1-0.6s0.6-0.1,0.9-0.1h0.2v1.3h-0.3c-0.5,0-1,0.1-1.3,0.4
			c-0.4,0.3-0.6,0.6-0.8,1s-0.3,0.8-0.4,1.2s-0.1,0.8-0.1,1.2v4.2H681.4z"/>
		<path d="M692,176.3v-13h3.9c0.9,0,1.7,0.2,2.2,0.6c0.6,0.4,1,0.9,1.1,1.5c0.2,0.6,0.3,1.2,0.3,1.7c0,0.6-0.1,1.1-0.2,1.6
			c-0.1,0.5-0.4,0.9-0.7,1.2c-0.3,0.3-0.7,0.6-1.2,0.8s-1.1,0.3-1.8,0.3h-2.1v5.3H692z M693.4,169.9h2.2c0.8,0,1.4-0.2,1.9-0.7
			s0.7-1.1,0.7-2.1c0-0.7-0.1-1.2-0.4-1.6c-0.2-0.4-0.6-0.7-1-0.8s-0.9-0.2-1.4-0.2h-1.9V169.9z"/>
		<path d="M701.4,176.3v-9.1h1.3v2c0.2-0.5,0.5-1,0.9-1.3s0.7-0.5,1.1-0.6s0.6-0.1,0.9-0.1h0.2v1.3h-0.3c-0.5,0-1,0.1-1.3,0.4
			c-0.4,0.3-0.6,0.6-0.8,1s-0.3,0.8-0.4,1.2s-0.1,0.8-0.1,1.2v4.2H701.4z"/>
		<path d="M710.1,176.6c-0.5,0-0.9-0.1-1.3-0.2c-0.4-0.1-0.7-0.3-1-0.5c-0.3-0.2-0.5-0.4-0.7-0.7c-0.2-0.3-0.3-0.6-0.4-0.9
			c-0.1-0.4-0.2-0.8-0.3-1.3s-0.1-0.9-0.1-1.3s0-0.8,0.1-1.3s0.1-0.9,0.3-1.3c0.2-0.6,0.4-1,0.8-1.4s0.7-0.6,1.2-0.7
			c0.4-0.1,0.9-0.2,1.4-0.2c0.7,0,1.2,0.1,1.7,0.4s0.9,0.5,1.1,0.9c0.2,0.4,0.4,0.7,0.5,1.1c0.1,0.4,0.2,0.8,0.3,1.3
			c0,0.4,0.1,0.9,0.1,1.3s0,0.8-0.1,1.3s-0.1,0.9-0.3,1.3c-0.2,0.5-0.5,1-0.8,1.3s-0.7,0.6-1.2,0.7
			C711,176.6,710.5,176.6,710.1,176.6z M710.1,175.5c0.4,0,0.8-0.1,1.1-0.3c0.3-0.2,0.6-0.5,0.8-0.9c0.1-0.3,0.2-0.7,0.3-1
			c0.1-0.4,0.1-0.9,0.1-1.5s0-1.1-0.1-1.4c-0.1-0.3-0.2-0.7-0.3-1.1c-0.1-0.3-0.3-0.5-0.5-0.7s-0.5-0.3-0.7-0.4
			c-0.3-0.1-0.5-0.1-0.7-0.1c-0.4,0-0.8,0.1-1.1,0.3s-0.6,0.5-0.8,0.9c-0.2,0.4-0.3,0.8-0.3,1.1s-0.1,0.8-0.1,1.4
			c0,0.7,0,1.2,0.1,1.5c0.1,0.3,0.2,0.7,0.3,1c0.2,0.4,0.4,0.7,0.8,0.9S709.7,175.5,710.1,175.5z"/>
		<path d="M714.9,176.3v-1l4.5-7.1h-4.3v-1h5.7v1l-4.5,7.1h4.6v1H714.9z"/>
		<path d="M725.7,176.6c-0.5,0-0.9-0.1-1.2-0.2c-0.4-0.1-0.7-0.3-1-0.4c-0.3-0.2-0.5-0.4-0.7-0.7s-0.3-0.5-0.4-0.8
			c-0.1-0.4-0.2-0.8-0.3-1.2s-0.1-0.9-0.1-1.4c0-0.7,0-1.3,0.1-1.9s0.2-1,0.4-1.4c0.2-0.4,0.4-0.7,0.6-0.9c0.3-0.3,0.6-0.5,1-0.7
			c0.4-0.2,0.9-0.2,1.5-0.2c0.5,0,1,0.1,1.4,0.2s0.7,0.3,1,0.6c0.4,0.4,0.7,0.9,0.8,1.5c0.1,0.6,0.2,1.3,0.2,2.2v0.8h-5.7v0.2
			c0,0.6,0.1,1.1,0.2,1.5c0.1,0.4,0.3,0.7,0.5,1c0.2,0.2,0.5,0.4,0.8,0.5s0.6,0.1,1,0.1c0.4,0,0.7-0.1,1-0.2
			c0.3-0.1,0.5-0.3,0.7-0.5s0.3-0.3,0.4-0.5l1,0.6c-0.2,0.4-0.5,0.7-0.8,0.9c-0.3,0.3-0.7,0.4-1.1,0.5
			C726.6,176.6,726.1,176.6,725.7,176.6z M723.3,171.2h4.4c0-0.9-0.1-1.6-0.3-2.1c-0.2-0.5-0.5-0.8-0.8-0.9s-0.7-0.2-1-0.2
			c-0.3,0-0.6,0-0.9,0.1c-0.3,0.1-0.5,0.3-0.7,0.5c-0.2,0.2-0.4,0.6-0.5,1C723.4,170,723.3,170.5,723.3,171.2z"/>
		<path d="M733.9,176.6c-0.5,0-0.9-0.1-1.2-0.2s-0.7-0.2-1-0.4c-0.5-0.4-0.9-0.8-1.1-1.4l1.1-0.5c0.2,0.3,0.3,0.6,0.6,0.8
			c0.2,0.2,0.5,0.4,0.8,0.5c0.3,0.1,0.6,0.1,0.9,0.1c0.4,0,0.8-0.1,1.1-0.2c0.3-0.1,0.5-0.3,0.7-0.5c0.1-0.2,0.2-0.5,0.2-0.8
			c0-0.3-0.1-0.6-0.2-0.8s-0.4-0.4-0.7-0.5c-0.6-0.2-1-0.4-1.2-0.4c-0.2-0.1-0.4-0.1-0.5-0.2c-0.5-0.2-0.9-0.4-1.2-0.6
			s-0.6-0.4-0.7-0.6s-0.3-0.4-0.3-0.7c-0.1-0.2-0.1-0.5-0.1-0.7c0-0.2,0-0.4,0.1-0.6c0-0.2,0.1-0.5,0.2-0.7c0.2-0.3,0.4-0.5,0.6-0.7
			c0.3-0.2,0.6-0.4,1-0.5s0.8-0.1,1.2-0.1c0.7,0,1.4,0.1,1.9,0.4s0.9,0.7,1.2,1.3l-1,0.5c-0.1-0.3-0.3-0.5-0.4-0.6s-0.3-0.3-0.5-0.4
			s-0.3-0.2-0.5-0.2s-0.4-0.1-0.6-0.1c-0.3,0-0.6,0-0.9,0.1c-0.2,0.1-0.5,0.2-0.6,0.3c-0.1,0.1-0.2,0.3-0.3,0.4s-0.1,0.4-0.1,0.6
			c0,0.2,0.1,0.4,0.2,0.6s0.3,0.3,0.5,0.5c0.2,0.1,0.5,0.3,0.8,0.4c0.3,0.1,0.7,0.3,1.2,0.4c0.7,0.2,1.2,0.4,1.5,0.7
			c0.3,0.2,0.5,0.4,0.6,0.6c0.1,0.1,0.2,0.3,0.2,0.5s0.1,0.5,0.1,0.8c0,0.4-0.1,0.7-0.2,0.9s-0.3,0.5-0.4,0.7
			c-0.3,0.3-0.6,0.6-1.2,0.7S734.4,176.6,733.9,176.6z"/>
		<path d="M742,176.6c-0.5,0-0.9-0.1-1.2-0.2s-0.7-0.2-1-0.4c-0.5-0.4-0.9-0.8-1.1-1.4l1.1-0.5c0.2,0.3,0.3,0.6,0.6,0.8
			c0.2,0.2,0.5,0.4,0.8,0.5c0.3,0.1,0.6,0.1,0.9,0.1c0.4,0,0.8-0.1,1.1-0.2c0.3-0.1,0.5-0.3,0.7-0.5c0.1-0.2,0.2-0.5,0.2-0.8
			c0-0.3-0.1-0.6-0.2-0.8s-0.4-0.4-0.7-0.5c-0.6-0.2-1-0.4-1.2-0.4c-0.2-0.1-0.4-0.1-0.5-0.2c-0.5-0.2-0.9-0.4-1.2-0.6
			s-0.6-0.4-0.7-0.6s-0.3-0.4-0.3-0.7c-0.1-0.2-0.1-0.5-0.1-0.7c0-0.2,0-0.4,0.1-0.6c0-0.2,0.1-0.5,0.2-0.7c0.2-0.3,0.4-0.5,0.6-0.7
			c0.3-0.2,0.6-0.4,1-0.5s0.8-0.1,1.2-0.1c0.7,0,1.4,0.1,1.9,0.4s0.9,0.7,1.2,1.3l-1,0.5c-0.1-0.3-0.3-0.5-0.4-0.6s-0.3-0.3-0.5-0.4
			s-0.3-0.2-0.5-0.2s-0.4-0.1-0.6-0.1c-0.3,0-0.6,0-0.9,0.1c-0.2,0.1-0.5,0.2-0.6,0.3c-0.1,0.1-0.2,0.3-0.3,0.4s-0.1,0.4-0.1,0.6
			c0,0.2,0.1,0.4,0.2,0.6s0.3,0.3,0.5,0.5c0.2,0.1,0.5,0.3,0.8,0.4c0.3,0.1,0.7,0.3,1.2,0.4c0.7,0.2,1.2,0.4,1.5,0.7
			c0.3,0.2,0.5,0.4,0.6,0.6c0.1,0.1,0.2,0.3,0.2,0.5s0.1,0.5,0.1,0.8c0,0.4-0.1,0.7-0.2,0.9s-0.3,0.5-0.4,0.7
			c-0.3,0.3-0.6,0.6-1.2,0.7S742.5,176.6,742,176.6z"/>
		<path d="M750.5,180.2c-0.9,0-1.6-0.2-2.2-0.5c-0.6-0.3-1-0.8-1.2-1.4l1.1-0.4c0.2,0.4,0.5,0.7,0.9,0.9c0.4,0.2,0.9,0.3,1.4,0.3
			c0.3,0,0.7,0,1-0.1c0.3-0.1,0.6-0.2,0.8-0.4c0.2-0.2,0.3-0.4,0.3-0.6c0.1-0.2,0.1-0.6,0.1-1.1v-1.6c-0.3,0.3-0.6,0.6-0.9,0.8
			s-0.6,0.3-0.9,0.3c-0.3,0-0.6,0.1-0.9,0.1c-0.3,0-0.6,0-0.8-0.1s-0.5-0.2-0.8-0.3c-0.2-0.1-0.5-0.4-0.7-0.6s-0.4-0.6-0.5-1
			c-0.1-0.4-0.2-0.8-0.3-1.2s-0.1-1-0.1-1.6c0-0.7,0.1-1.3,0.2-1.9s0.3-1,0.5-1.4c0.3-0.5,0.6-0.9,1.1-1.1s1-0.4,1.6-0.4
			c0.6,0,1.2,0.1,1.6,0.3c0.5,0.2,0.8,0.6,1,1.1v-1.1h1.3v9.7c0,0.5-0.1,1-0.2,1.3s-0.3,0.7-0.5,1c-0.3,0.3-0.7,0.5-1.2,0.7
			C751.6,180.1,751.1,180.2,750.5,180.2z M750.4,175.3c0.5,0,1-0.1,1.3-0.4c0.4-0.3,0.6-0.6,0.8-1s0.2-0.8,0.2-1.2v-2.1
			c0-0.6-0.1-1.1-0.4-1.5s-0.6-0.7-1-0.8s-0.7-0.2-1-0.2c-0.5,0-0.8,0.1-1.1,0.3c-0.3,0.2-0.5,0.4-0.6,0.7s-0.2,0.5-0.2,0.7
			c-0.1,0.3-0.1,0.6-0.2,0.9c0,0.3,0,0.7,0,1c0,0.4,0,0.7,0,1.1c0,0.3,0.1,0.6,0.1,0.9c0.1,0.3,0.1,0.5,0.3,0.7s0.3,0.4,0.4,0.6
			s0.4,0.3,0.6,0.4C749.8,175.3,750.1,175.3,750.4,175.3z"/>
		<path d="M758.9,176.6c-0.2,0-0.5,0-0.7-0.1c-0.2,0-0.4-0.1-0.6-0.2s-0.4-0.2-0.5-0.3c-0.2-0.1-0.3-0.3-0.4-0.4
			c-0.2-0.3-0.3-0.5-0.4-0.8c-0.1-0.3-0.2-0.7-0.2-1c0-0.3,0-0.7,0.1-0.9c0.1-0.3,0.2-0.5,0.4-0.7c0.3-0.4,0.6-0.6,1.1-0.8
			s1-0.3,1.7-0.3h2.3v-1.2c0-0.5-0.1-0.9-0.4-1.2s-0.5-0.5-0.8-0.5c-0.3-0.1-0.6-0.1-0.8-0.1c-0.6,0-1,0.1-1.4,0.3s-0.6,0.5-0.8,0.9
			l-1.1-0.4c0.2-0.6,0.6-1.1,1.2-1.4s1.3-0.5,2.2-0.5c0.6,0,1.1,0.1,1.5,0.2c0.4,0.1,0.8,0.4,1.1,0.7c0.2,0.3,0.4,0.6,0.5,0.9
			s0.2,0.7,0.2,1.1v6.5h-1.3v-0.9c-0.3,0.3-0.6,0.6-0.9,0.7s-0.6,0.3-1,0.4S759.1,176.6,758.9,176.6z M759.3,175.5
			c0.5,0,0.9-0.1,1.3-0.3s0.7-0.5,0.8-0.8s0.3-0.6,0.3-0.9v-1.5h-1.9c-0.4,0-0.8,0-1.1,0.1s-0.6,0.2-0.7,0.3s-0.3,0.3-0.4,0.6
			s-0.1,0.5-0.1,0.7c0,0.3,0,0.5,0.1,0.7s0.2,0.4,0.3,0.5C758,175.3,758.6,175.5,759.3,175.5z"/>
		<path d="M768.3,176.6c-0.5,0-0.9-0.1-1.2-0.2s-0.7-0.2-1-0.4c-0.5-0.4-0.9-0.8-1.1-1.4l1.1-0.5c0.2,0.3,0.3,0.6,0.6,0.8
			c0.2,0.2,0.5,0.4,0.8,0.5c0.3,0.1,0.6,0.1,0.9,0.1c0.4,0,0.8-0.1,1.1-0.2c0.3-0.1,0.5-0.3,0.7-0.5c0.1-0.2,0.2-0.5,0.2-0.8
			c0-0.3-0.1-0.6-0.2-0.8s-0.4-0.4-0.7-0.5c-0.6-0.2-1-0.4-1.2-0.4c-0.2-0.1-0.4-0.1-0.5-0.2c-0.5-0.2-0.9-0.4-1.2-0.6
			s-0.6-0.4-0.7-0.6s-0.3-0.4-0.3-0.7c-0.1-0.2-0.1-0.5-0.1-0.7c0-0.2,0-0.4,0.1-0.6c0-0.2,0.1-0.5,0.2-0.7c0.2-0.3,0.4-0.5,0.6-0.7
			c0.3-0.2,0.6-0.4,1-0.5s0.8-0.1,1.2-0.1c0.7,0,1.4,0.1,1.9,0.4s0.9,0.7,1.2,1.3l-1,0.5c-0.1-0.3-0.3-0.5-0.4-0.6s-0.3-0.3-0.5-0.4
			s-0.3-0.2-0.5-0.2s-0.4-0.1-0.6-0.1c-0.3,0-0.6,0-0.9,0.1c-0.2,0.1-0.5,0.2-0.6,0.3c-0.1,0.1-0.2,0.3-0.3,0.4s-0.1,0.4-0.1,0.6
			c0,0.2,0.1,0.4,0.2,0.6s0.3,0.3,0.5,0.5c0.2,0.1,0.5,0.3,0.8,0.4c0.3,0.1,0.7,0.3,1.2,0.4c0.7,0.2,1.2,0.4,1.5,0.7
			c0.3,0.2,0.5,0.4,0.6,0.6c0.1,0.1,0.2,0.3,0.2,0.5s0.1,0.5,0.1,0.8c0,0.4-0.1,0.7-0.2,0.9s-0.3,0.5-0.4,0.7
			c-0.3,0.3-0.6,0.6-1.2,0.7S768.8,176.6,768.3,176.6z"/>
		<path d="M776.7,176.6c-0.5,0-0.9-0.1-1.2-0.2c-0.4-0.1-0.7-0.3-1-0.4c-0.3-0.2-0.5-0.4-0.7-0.7s-0.3-0.5-0.4-0.8
			c-0.1-0.4-0.2-0.8-0.3-1.2s-0.1-0.9-0.1-1.4c0-0.7,0-1.3,0.1-1.9s0.2-1,0.4-1.4c0.2-0.4,0.4-0.7,0.6-0.9c0.3-0.3,0.6-0.5,1-0.7
			c0.4-0.2,0.9-0.2,1.5-0.2c0.5,0,1,0.1,1.4,0.2s0.7,0.3,1,0.6c0.4,0.4,0.7,0.9,0.8,1.5c0.1,0.6,0.2,1.3,0.2,2.2v0.8h-5.7v0.2
			c0,0.6,0.1,1.1,0.2,1.5c0.1,0.4,0.3,0.7,0.5,1c0.2,0.2,0.5,0.4,0.8,0.5s0.6,0.1,1,0.1c0.4,0,0.7-0.1,1-0.2
			c0.3-0.1,0.5-0.3,0.7-0.5s0.3-0.3,0.4-0.5l1,0.6c-0.2,0.4-0.5,0.7-0.8,0.9c-0.3,0.3-0.7,0.4-1.1,0.5
			C777.6,176.6,777.2,176.6,776.7,176.6z M774.4,171.2h4.4c0-0.9-0.1-1.6-0.3-2.1c-0.2-0.5-0.5-0.8-0.8-0.9s-0.7-0.2-1-0.2
			c-0.3,0-0.6,0-0.9,0.1c-0.3,0.1-0.5,0.3-0.7,0.5c-0.2,0.2-0.4,0.6-0.5,1C774.5,170,774.4,170.5,774.4,171.2z"/>
		<path d="M788.2,176.3l-2.6-9.1h1.3l1.9,7.4l1.9-7.4h1.3l1.9,7.4l1.9-7.4h1.2l-2.6,9.1h-1.2l-1.9-6.9l-1.9,6.9H788.2z"/>
		<path d="M801.6,176.6c-0.5,0-0.9-0.1-1.2-0.2c-0.4-0.1-0.7-0.3-1-0.4c-0.3-0.2-0.5-0.4-0.7-0.7s-0.3-0.5-0.4-0.8
			c-0.1-0.4-0.2-0.8-0.3-1.2s-0.1-0.9-0.1-1.4c0-0.7,0-1.3,0.1-1.9s0.2-1,0.4-1.4c0.2-0.4,0.4-0.7,0.6-0.9c0.3-0.3,0.6-0.5,1-0.7
			c0.4-0.2,0.9-0.2,1.5-0.2c0.5,0,1,0.1,1.4,0.2s0.7,0.3,1,0.6c0.4,0.4,0.7,0.9,0.8,1.5c0.1,0.6,0.2,1.3,0.2,2.2v0.8h-5.7v0.2
			c0,0.6,0.1,1.1,0.2,1.5c0.1,0.4,0.3,0.7,0.5,1c0.2,0.2,0.5,0.4,0.8,0.5s0.6,0.1,1,0.1c0.4,0,0.7-0.1,1-0.2
			c0.3-0.1,0.5-0.3,0.7-0.5s0.3-0.3,0.4-0.5l1,0.6c-0.2,0.4-0.5,0.7-0.8,0.9c-0.3,0.3-0.7,0.4-1.1,0.5
			C802.5,176.6,802.1,176.6,801.6,176.6z M799.3,171.2h4.4c0-0.9-0.1-1.6-0.3-2.1c-0.2-0.5-0.5-0.8-0.8-0.9s-0.7-0.2-1-0.2
			c-0.3,0-0.6,0-0.9,0.1c-0.3,0.1-0.5,0.3-0.7,0.5c-0.2,0.2-0.4,0.6-0.5,1C799.4,170,799.3,170.5,799.3,171.2z"/>
		<path d="M807,176.3v-9.1h1.3v2c0.2-0.5,0.5-1,0.9-1.3s0.7-0.5,1.1-0.6s0.6-0.1,0.9-0.1h0.2v1.3h-0.3c-0.5,0-1,0.1-1.3,0.4
			c-0.4,0.3-0.6,0.6-0.8,1s-0.3,0.8-0.4,1.2s-0.1,0.8-0.1,1.2v4.2H807z"/>
		<path d="M815.2,176.6c-0.3,0-0.6,0-0.8-0.1s-0.5-0.2-0.8-0.3c-0.2-0.2-0.5-0.4-0.7-0.6s-0.4-0.6-0.5-1c-0.1-0.4-0.2-0.8-0.3-1.2
			s-0.1-1-0.1-1.6c0-0.7,0.1-1.4,0.2-1.9c0.1-0.5,0.3-1,0.5-1.4c0.3-0.5,0.6-0.9,1.1-1.1c0.4-0.2,1-0.4,1.6-0.4
			c0.5,0,0.9,0.1,1.2,0.2c0.4,0.1,0.6,0.3,0.9,0.5c0.2,0.2,0.4,0.4,0.6,0.6v-4.8h1.3v13H818v-1.2c-0.3,0.5-0.7,0.9-1.1,1.1
			S815.8,176.6,815.2,176.6z M815.6,175.5c0.5,0,1-0.1,1.3-0.4c0.4-0.3,0.6-0.6,0.8-1s0.2-0.8,0.2-1.2v-2.2c0-0.6-0.1-1.1-0.4-1.5
			s-0.6-0.7-1-0.8s-0.7-0.2-1-0.2c-0.5,0-0.8,0.1-1.1,0.3c-0.3,0.2-0.5,0.4-0.6,0.7s-0.2,0.5-0.2,0.7c-0.1,0.3-0.1,0.6-0.2,1
			c0,0.3,0,0.7,0,1.1c0,0.4,0,0.8,0.1,1.2s0.1,0.6,0.1,0.8c0.1,0.3,0.1,0.5,0.3,0.7s0.3,0.4,0.4,0.6s0.4,0.3,0.6,0.4
			C815.1,175.5,815.3,175.5,815.6,175.5z"/>
		<path d="M825,176.6c-0.5,0-0.9-0.1-1.2-0.2c-0.4-0.1-0.7-0.3-1-0.4c-0.3-0.2-0.5-0.4-0.7-0.7s-0.3-0.5-0.4-0.8
			c-0.1-0.4-0.2-0.8-0.3-1.2s-0.1-0.9-0.1-1.4c0-0.7,0-1.3,0.1-1.9s0.2-1,0.4-1.4c0.2-0.4,0.4-0.7,0.6-0.9c0.3-0.3,0.6-0.5,1-0.7
			c0.4-0.2,0.9-0.2,1.5-0.2c0.5,0,1,0.1,1.4,0.2s0.7,0.3,1,0.6c0.4,0.4,0.7,0.9,0.8,1.5c0.1,0.6,0.2,1.3,0.2,2.2v0.8h-5.7v0.2
			c0,0.6,0.1,1.1,0.2,1.5c0.1,0.4,0.3,0.7,0.5,1c0.2,0.2,0.5,0.4,0.8,0.5s0.6,0.1,1,0.1c0.4,0,0.7-0.1,1-0.2
			c0.3-0.1,0.5-0.3,0.7-0.5s0.3-0.3,0.4-0.5l1,0.6c-0.2,0.4-0.5,0.7-0.8,0.9c-0.3,0.3-0.7,0.4-1.1,0.5
			C825.9,176.6,825.5,176.6,825,176.6z M822.7,171.2h4.4c0-0.9-0.1-1.6-0.3-2.1c-0.2-0.5-0.5-0.8-0.8-0.9s-0.7-0.2-1-0.2
			c-0.3,0-0.6,0-0.9,0.1c-0.3,0.1-0.5,0.3-0.7,0.5c-0.2,0.2-0.4,0.6-0.5,1C822.7,170,822.7,170.5,822.7,171.2z"/>
		<path d="M830.3,176.3v-9.1h1.3v1.3c0.4-0.6,0.8-1,1.3-1.2s1-0.4,1.6-0.4c0.5,0,1,0.1,1.4,0.3c0.4,0.2,0.7,0.6,0.9,1
			c0.2,0.4,0.3,0.9,0.3,1.4v6.7h-1.3v-6.2c0-0.7-0.1-1.2-0.4-1.5s-0.7-0.5-1.3-0.5c-0.4,0-0.7,0.1-1,0.2s-0.6,0.4-0.8,0.7
			c-0.2,0.3-0.4,0.6-0.5,0.9c-0.1,0.3-0.2,0.7-0.2,1v5.4H830.3z"/>
		<path d="M581.4,196.3l-3.3-9.1h1.3l2.6,7.3l2.6-7.3h1.2l-3.3,9.1H581.4z"/>
		<path d="M590.3,196.6c-0.5,0-0.9-0.1-1.3-0.2c-0.4-0.1-0.7-0.3-1-0.5c-0.3-0.2-0.5-0.4-0.7-0.7c-0.2-0.3-0.3-0.6-0.4-0.9
			c-0.1-0.4-0.2-0.8-0.3-1.3s-0.1-0.9-0.1-1.3s0-0.8,0.1-1.3s0.1-0.9,0.3-1.3c0.2-0.6,0.4-1,0.8-1.4s0.7-0.6,1.2-0.7
			c0.4-0.1,0.9-0.2,1.4-0.2c0.7,0,1.2,0.1,1.7,0.4s0.9,0.5,1.1,0.9c0.2,0.4,0.4,0.7,0.5,1.1c0.1,0.4,0.2,0.8,0.3,1.3
			c0,0.4,0.1,0.9,0.1,1.3s0,0.8-0.1,1.3s-0.1,0.9-0.3,1.3c-0.2,0.5-0.5,1-0.8,1.3s-0.7,0.6-1.2,0.7
			C591.2,196.6,590.8,196.6,590.3,196.6z M590.3,195.5c0.4,0,0.8-0.1,1.1-0.3c0.3-0.2,0.6-0.5,0.8-0.9c0.1-0.3,0.2-0.7,0.3-1
			c0.1-0.4,0.1-0.9,0.1-1.5s0-1.1-0.1-1.4c-0.1-0.3-0.2-0.7-0.3-1.1c-0.1-0.3-0.3-0.5-0.5-0.7s-0.5-0.3-0.7-0.4
			c-0.3-0.1-0.5-0.1-0.7-0.1c-0.4,0-0.8,0.1-1.1,0.3s-0.6,0.5-0.8,0.9c-0.2,0.4-0.3,0.8-0.3,1.1s-0.1,0.8-0.1,1.4
			c0,0.7,0,1.2,0.1,1.5c0.1,0.3,0.2,0.7,0.3,1c0.2,0.4,0.4,0.7,0.8,0.9S589.9,195.5,590.3,195.5z"/>
		<path d="M596.1,196.3v-9.1h1.3v1.3c0.4-0.6,0.8-1,1.3-1.2s1-0.4,1.6-0.4c0.5,0,1,0.1,1.4,0.3c0.4,0.2,0.7,0.6,0.9,1
			c0.2,0.4,0.3,0.9,0.3,1.4v6.7h-1.3v-6.2c0-0.7-0.1-1.2-0.4-1.5s-0.7-0.5-1.3-0.5c-0.4,0-0.7,0.1-1,0.2s-0.6,0.4-0.8,0.7
			c-0.2,0.3-0.4,0.6-0.5,0.9c-0.1,0.3-0.2,0.7-0.2,1v5.4H596.1z"/>
		<path d="M612.5,196.6c-0.3,0-0.7,0-1-0.1c-0.3-0.1-0.6-0.2-0.8-0.5c-0.2-0.2-0.4-0.5-0.6-0.8s-0.2-0.8-0.2-1.3v-6.7h1.3v6.2
			c0,0.4,0,0.7,0.1,0.9c0.1,0.3,0.2,0.5,0.3,0.6s0.3,0.3,0.6,0.4s0.5,0.1,0.8,0.1c0.4,0,0.7-0.1,1-0.2s0.6-0.4,0.8-0.6
			c0.2-0.3,0.4-0.6,0.5-0.9s0.2-0.7,0.2-1v-5.4h1.3v9.1h-1.3v-1.3c-0.4,0.6-0.8,1-1.3,1.2S613.1,196.6,612.5,196.6z"/>
		<path d="M619.1,196.3v-9.1h1.3v1.3c0.4-0.6,0.8-1,1.3-1.2s1-0.4,1.6-0.4c0.5,0,1,0.1,1.4,0.3c0.4,0.2,0.7,0.6,0.9,1
			c0.2,0.4,0.3,0.9,0.3,1.4v6.7h-1.3v-6.2c0-0.7-0.1-1.2-0.4-1.5s-0.7-0.5-1.3-0.5c-0.4,0-0.7,0.1-1,0.2s-0.6,0.4-0.8,0.7
			c-0.2,0.3-0.4,0.6-0.5,0.9c-0.1,0.3-0.2,0.7-0.2,1v5.4H619.1z"/>
		<path d="M631.3,196.6c-0.5,0-0.9-0.1-1.2-0.2s-0.7-0.2-1-0.4c-0.5-0.4-0.9-0.8-1.1-1.4l1.1-0.5c0.2,0.3,0.3,0.6,0.6,0.8
			c0.2,0.2,0.5,0.4,0.8,0.5c0.3,0.1,0.6,0.1,0.9,0.1c0.4,0,0.8-0.1,1.1-0.2c0.3-0.1,0.5-0.3,0.7-0.5c0.1-0.2,0.2-0.5,0.2-0.8
			c0-0.3-0.1-0.6-0.2-0.8s-0.4-0.4-0.7-0.5c-0.6-0.2-1-0.4-1.2-0.4c-0.2-0.1-0.4-0.1-0.5-0.2c-0.5-0.2-0.9-0.4-1.2-0.6
			s-0.6-0.4-0.7-0.6s-0.3-0.4-0.3-0.7c-0.1-0.2-0.1-0.5-0.1-0.7c0-0.2,0-0.4,0.1-0.6c0-0.2,0.1-0.5,0.2-0.7c0.2-0.3,0.4-0.5,0.6-0.7
			c0.3-0.2,0.6-0.4,1-0.5s0.8-0.1,1.2-0.1c0.7,0,1.4,0.1,1.9,0.4s0.9,0.7,1.2,1.3l-1,0.5c-0.1-0.3-0.3-0.5-0.4-0.6s-0.3-0.3-0.5-0.4
			s-0.3-0.2-0.5-0.2s-0.4-0.1-0.6-0.1c-0.3,0-0.6,0-0.9,0.1c-0.2,0.1-0.5,0.2-0.6,0.3c-0.1,0.1-0.2,0.3-0.3,0.4s-0.1,0.4-0.1,0.6
			c0,0.2,0.1,0.4,0.2,0.6s0.3,0.3,0.5,0.5c0.2,0.1,0.5,0.3,0.8,0.4c0.3,0.1,0.7,0.3,1.2,0.4c0.7,0.2,1.2,0.4,1.5,0.7
			c0.3,0.2,0.5,0.4,0.6,0.6c0.1,0.1,0.2,0.3,0.2,0.5s0.1,0.5,0.1,0.8c0,0.4-0.1,0.7-0.2,0.9s-0.3,0.5-0.4,0.7
			c-0.3,0.3-0.6,0.6-1.2,0.7S631.8,196.6,631.3,196.6z"/>
		<path d="M644.4,196.6c-0.5,0-0.9-0.1-1.2-0.2c-0.4-0.1-0.7-0.3-1-0.4c-0.3-0.2-0.5-0.4-0.7-0.7s-0.3-0.5-0.4-0.8
			c-0.1-0.4-0.2-0.8-0.3-1.2s-0.1-0.9-0.1-1.4c0-0.7,0-1.3,0.1-1.9s0.2-1,0.4-1.4c0.2-0.4,0.4-0.7,0.6-0.9c0.3-0.3,0.6-0.5,1-0.7
			c0.4-0.2,0.9-0.2,1.5-0.2c0.5,0,1,0.1,1.4,0.2s0.7,0.3,1,0.6c0.4,0.4,0.7,0.9,0.8,1.5c0.1,0.6,0.2,1.3,0.2,2.2v0.8H642v0.2
			c0,0.6,0.1,1.1,0.2,1.5c0.1,0.4,0.3,0.7,0.5,1c0.2,0.2,0.5,0.4,0.8,0.5s0.6,0.1,1,0.1c0.4,0,0.7-0.1,1-0.2
			c0.3-0.1,0.5-0.3,0.7-0.5s0.3-0.3,0.4-0.5l1,0.6c-0.2,0.4-0.5,0.7-0.8,0.9c-0.3,0.3-0.7,0.4-1.1,0.5
			C645.3,196.6,644.8,196.6,644.4,196.6z M642,191.2h4.4c0-0.9-0.1-1.6-0.3-2.1c-0.2-0.5-0.5-0.8-0.8-0.9s-0.7-0.2-1-0.2
			c-0.3,0-0.6,0-0.9,0.1c-0.3,0.1-0.5,0.3-0.7,0.5c-0.2,0.2-0.4,0.6-0.5,1C642.1,190,642,190.5,642,191.2z"/>
		<path d="M649.7,196.3v-9.1h1.3v1.3c0.4-0.6,0.8-1,1.3-1.2s1-0.4,1.6-0.4c0.5,0,1,0.1,1.4,0.3c0.4,0.2,0.7,0.6,0.9,1
			c0.2,0.4,0.3,0.9,0.3,1.4v6.7h-1.3v-6.2c0-0.7-0.1-1.2-0.4-1.5s-0.7-0.5-1.3-0.5c-0.4,0-0.7,0.1-1,0.2s-0.6,0.4-0.8,0.7
			c-0.2,0.3-0.4,0.6-0.5,0.9c-0.1,0.3-0.2,0.7-0.2,1v5.4H649.7z"/>
		<path d="M662.3,196.6c-0.5,0-0.9-0.1-1.2-0.2c-0.4-0.1-0.7-0.3-1-0.4c-0.3-0.2-0.5-0.4-0.7-0.7s-0.3-0.5-0.4-0.8
			c-0.1-0.4-0.2-0.8-0.3-1.2s-0.1-0.9-0.1-1.4c0-0.7,0-1.3,0.1-1.9s0.2-1,0.4-1.4c0.2-0.4,0.4-0.7,0.6-0.9c0.3-0.3,0.6-0.5,1-0.7
			c0.4-0.2,0.9-0.2,1.5-0.2c0.5,0,1,0.1,1.4,0.2s0.7,0.3,1,0.6c0.4,0.4,0.7,0.9,0.8,1.5c0.1,0.6,0.2,1.3,0.2,2.2v0.8h-5.7v0.2
			c0,0.6,0.1,1.1,0.2,1.5c0.1,0.4,0.3,0.7,0.5,1c0.2,0.2,0.5,0.4,0.8,0.5s0.6,0.1,1,0.1c0.4,0,0.7-0.1,1-0.2
			c0.3-0.1,0.5-0.3,0.7-0.5s0.3-0.3,0.4-0.5l1,0.6c-0.2,0.4-0.5,0.7-0.8,0.9c-0.3,0.3-0.7,0.4-1.1,0.5
			C663.2,196.6,662.7,196.6,662.3,196.6z M659.9,191.2h4.4c0-0.9-0.1-1.6-0.3-2.1c-0.2-0.5-0.5-0.8-0.8-0.9s-0.7-0.2-1-0.2
			c-0.3,0-0.6,0-0.9,0.1c-0.3,0.1-0.5,0.3-0.7,0.5c-0.2,0.2-0.4,0.6-0.5,1C660,190,659.9,190.5,659.9,191.2z"/>
		<path d="M667.6,196.3v-9.1h1.3v2c0.2-0.5,0.5-1,0.9-1.3s0.7-0.5,1.1-0.6s0.6-0.1,0.9-0.1h0.2v1.3h-0.3c-0.5,0-1,0.1-1.3,0.4
			c-0.4,0.3-0.6,0.6-0.8,1s-0.3,0.8-0.4,1.2s-0.1,0.8-0.1,1.2v4.2H667.6z"/>
		<path d="M676.4,200.2c-0.9,0-1.6-0.2-2.2-0.5c-0.6-0.3-1-0.8-1.2-1.4l1.1-0.4c0.2,0.4,0.5,0.7,0.9,0.9c0.4,0.2,0.9,0.3,1.4,0.3
			c0.3,0,0.7,0,1-0.1c0.3-0.1,0.6-0.2,0.8-0.4c0.2-0.2,0.3-0.4,0.3-0.6c0.1-0.2,0.1-0.6,0.1-1.1v-1.6c-0.3,0.3-0.6,0.6-0.9,0.8
			s-0.6,0.3-0.9,0.3c-0.3,0-0.6,0.1-0.9,0.1c-0.3,0-0.6,0-0.8-0.1s-0.5-0.2-0.8-0.3c-0.2-0.1-0.5-0.4-0.7-0.6s-0.4-0.6-0.5-1
			c-0.1-0.4-0.2-0.8-0.3-1.2s-0.1-1-0.1-1.6c0-0.7,0.1-1.3,0.2-1.9s0.3-1,0.5-1.4c0.3-0.5,0.6-0.9,1.1-1.1s1-0.4,1.6-0.4
			c0.6,0,1.2,0.1,1.6,0.3c0.5,0.2,0.8,0.6,1,1.1v-1.1h1.3v9.7c0,0.5-0.1,1-0.2,1.3s-0.3,0.7-0.5,1c-0.3,0.3-0.7,0.5-1.2,0.7
			C677.5,200.1,677,200.2,676.4,200.2z M676.3,195.3c0.5,0,1-0.1,1.3-0.4c0.4-0.3,0.6-0.6,0.8-1s0.2-0.8,0.2-1.2v-2.1
			c0-0.6-0.1-1.1-0.4-1.5s-0.6-0.7-1-0.8s-0.7-0.2-1-0.2c-0.5,0-0.8,0.1-1.1,0.3c-0.3,0.2-0.5,0.4-0.6,0.7s-0.2,0.5-0.2,0.7
			c-0.1,0.3-0.1,0.6-0.2,0.9c0,0.3,0,0.7,0,1c0,0.4,0,0.7,0,1.1c0,0.3,0.1,0.6,0.1,0.9c0.1,0.3,0.1,0.5,0.3,0.7s0.3,0.4,0.4,0.6
			s0.4,0.3,0.6,0.4C675.7,195.3,676,195.3,676.3,195.3z"/>
		<path d="M685.6,196.6c-0.5,0-0.9-0.1-1.2-0.2c-0.4-0.1-0.7-0.3-1-0.4c-0.3-0.2-0.5-0.4-0.7-0.7s-0.3-0.5-0.4-0.8
			c-0.1-0.4-0.2-0.8-0.3-1.2s-0.1-0.9-0.1-1.4c0-0.7,0-1.3,0.1-1.9s0.2-1,0.4-1.4c0.2-0.4,0.4-0.7,0.6-0.9c0.3-0.3,0.6-0.5,1-0.7
			c0.4-0.2,0.9-0.2,1.5-0.2c0.5,0,1,0.1,1.4,0.2s0.7,0.3,1,0.6c0.4,0.4,0.7,0.9,0.8,1.5c0.1,0.6,0.2,1.3,0.2,2.2v0.8h-5.7v0.2
			c0,0.6,0.1,1.1,0.2,1.5c0.1,0.4,0.3,0.7,0.5,1c0.2,0.2,0.5,0.4,0.8,0.5s0.6,0.1,1,0.1c0.4,0,0.7-0.1,1-0.2
			c0.3-0.1,0.5-0.3,0.7-0.5s0.3-0.3,0.4-0.5l1,0.6c-0.2,0.4-0.5,0.7-0.8,0.9c-0.3,0.3-0.7,0.4-1.1,0.5
			C686.5,196.6,686.1,196.6,685.6,196.6z M683.3,191.2h4.4c0-0.9-0.1-1.6-0.3-2.1c-0.2-0.5-0.5-0.8-0.8-0.9s-0.7-0.2-1-0.2
			c-0.3,0-0.6,0-0.9,0.1c-0.3,0.1-0.5,0.3-0.7,0.5c-0.2,0.2-0.4,0.6-0.5,1C683.4,190,683.3,190.5,683.3,191.2z"/>
		<path d="M693.7,196.5c-0.5,0-1-0.1-1.3-0.2s-0.6-0.3-0.8-0.6c-0.2-0.3-0.3-0.6-0.4-0.9c-0.1-0.4-0.1-0.8-0.1-1.2v-5.3H690v-1h1.2
			v-2.5h1.3v2.5h1.9v1h-1.9v5.3c0,0.3,0,0.6,0,0.8s0.1,0.4,0.2,0.6s0.2,0.3,0.4,0.4s0.4,0.1,0.8,0.1c0.2,0,0.4,0,0.6-0.1v1.1
			C694.3,196.5,694,196.5,693.7,196.5z"/>
		<path d="M695.8,184.9v-1.5h1.3v1.5H695.8z M695.8,196.3v-9.1h1.3v9.1H695.8z"/>
		<path d="M702.5,196.6c-0.5,0-0.9-0.1-1.2-0.2s-0.7-0.2-1-0.4c-0.5-0.4-0.9-0.8-1.1-1.4l1.1-0.5c0.2,0.3,0.3,0.6,0.6,0.8
			c0.2,0.2,0.5,0.4,0.8,0.5c0.3,0.1,0.6,0.1,0.9,0.1c0.4,0,0.8-0.1,1.1-0.2c0.3-0.1,0.5-0.3,0.7-0.5c0.1-0.2,0.2-0.5,0.2-0.8
			c0-0.3-0.1-0.6-0.2-0.8s-0.4-0.4-0.7-0.5c-0.6-0.2-1-0.4-1.2-0.4c-0.2-0.1-0.4-0.1-0.5-0.2c-0.5-0.2-0.9-0.4-1.2-0.6
			s-0.6-0.4-0.7-0.6s-0.3-0.4-0.3-0.7c-0.1-0.2-0.1-0.5-0.1-0.7c0-0.2,0-0.4,0.1-0.6c0-0.2,0.1-0.5,0.2-0.7c0.2-0.3,0.4-0.5,0.6-0.7
			c0.3-0.2,0.6-0.4,1-0.5s0.8-0.1,1.2-0.1c0.7,0,1.4,0.1,1.9,0.4s0.9,0.7,1.2,1.3l-1,0.5c-0.1-0.3-0.3-0.5-0.4-0.6s-0.3-0.3-0.5-0.4
			s-0.3-0.2-0.5-0.2s-0.4-0.1-0.6-0.1c-0.3,0-0.6,0-0.9,0.1c-0.2,0.1-0.5,0.2-0.6,0.3c-0.1,0.1-0.2,0.3-0.3,0.4s-0.1,0.4-0.1,0.6
			c0,0.2,0.1,0.4,0.2,0.6s0.3,0.3,0.5,0.5c0.2,0.1,0.5,0.3,0.8,0.4c0.3,0.1,0.7,0.3,1.2,0.4c0.7,0.2,1.2,0.4,1.5,0.7
			c0.3,0.2,0.5,0.4,0.6,0.6c0.1,0.1,0.2,0.3,0.2,0.5s0.1,0.5,0.1,0.8c0,0.4-0.1,0.7-0.2,0.9s-0.3,0.5-0.4,0.7
			c-0.3,0.3-0.6,0.6-1.2,0.7S703,196.6,702.5,196.6z"/>
		<path d="M711,196.6c-0.5,0-0.9-0.1-1.3-0.2s-0.7-0.3-1-0.5c-0.3-0.2-0.5-0.4-0.7-0.7s-0.3-0.6-0.4-0.9c-0.1-0.4-0.2-0.8-0.3-1.3
			s-0.1-0.9-0.1-1.3s0-0.8,0.1-1.3s0.1-0.9,0.3-1.3c0.2-0.6,0.5-1,0.8-1.4s0.7-0.6,1.2-0.7s0.9-0.2,1.4-0.2c0.6,0,1.1,0.1,1.6,0.3
			c0.4,0.2,0.8,0.5,1,0.8s0.4,0.7,0.5,1l-1.2,0.4c-0.1-0.3-0.2-0.5-0.3-0.7s-0.3-0.3-0.4-0.5s-0.3-0.2-0.5-0.3s-0.4-0.1-0.7-0.1
			c-0.4,0-0.8,0.1-1.1,0.3s-0.6,0.5-0.7,0.9c-0.2,0.4-0.3,0.8-0.3,1.1s-0.1,0.8-0.1,1.4c0,0.8,0,1.3,0.1,1.6
			c0.1,0.3,0.2,0.6,0.3,0.9c0.2,0.4,0.4,0.8,0.8,1s0.7,0.3,1.2,0.3c0.4,0,0.8-0.1,1.2-0.3s0.6-0.6,0.8-1.1l1.1,0.4
			c-0.2,0.5-0.5,0.9-0.8,1.3s-0.7,0.6-1.1,0.7S711.4,196.6,711,196.6z"/>
		<path d="M715.5,196.3v-13h1.3v5.1c0.4-0.6,0.8-1,1.3-1.2s1-0.4,1.6-0.4c0.5,0,1,0.1,1.4,0.3c0.4,0.2,0.7,0.6,0.9,1
			c0.2,0.4,0.3,0.9,0.3,1.4v6.7h-1.3v-6.2c0-0.7-0.1-1.2-0.4-1.5s-0.7-0.5-1.3-0.5c-0.4,0-0.7,0.1-1,0.2s-0.6,0.4-0.8,0.7
			c-0.2,0.3-0.4,0.6-0.5,0.9c-0.1,0.3-0.2,0.7-0.2,1v5.4H715.5z"/>
		<path d="M730.9,196.3l-2.6-9.1h1.3l1.9,7.4l1.9-7.4h1.3l1.9,7.4l1.9-7.4h1.2l-2.6,9.1h-1.2l-1.9-6.9l-1.9,6.9H730.9z"/>
		<path d="M741,184.9v-1.5h1.3v1.5H741z M741,196.3v-9.1h1.3v9.1H741z"/>
		<path d="M748.1,196.6c-0.5,0-0.9-0.1-1.2-0.2c-0.4-0.1-0.7-0.3-1-0.4c-0.3-0.2-0.5-0.4-0.7-0.7s-0.3-0.5-0.4-0.8
			c-0.1-0.4-0.2-0.8-0.3-1.2s-0.1-0.9-0.1-1.4c0-0.7,0-1.3,0.1-1.9s0.2-1,0.4-1.4c0.2-0.4,0.4-0.7,0.6-0.9c0.3-0.3,0.6-0.5,1-0.7
			c0.4-0.2,0.9-0.2,1.5-0.2c0.5,0,1,0.1,1.4,0.2s0.7,0.3,1,0.6c0.4,0.4,0.7,0.9,0.8,1.5c0.1,0.6,0.2,1.3,0.2,2.2v0.8h-5.7v0.2
			c0,0.6,0.1,1.1,0.2,1.5c0.1,0.4,0.3,0.7,0.5,1c0.2,0.2,0.5,0.4,0.8,0.5s0.6,0.1,1,0.1c0.4,0,0.7-0.1,1-0.2
			c0.3-0.1,0.5-0.3,0.7-0.5s0.3-0.3,0.4-0.5l1,0.6c-0.2,0.4-0.5,0.7-0.8,0.9c-0.3,0.3-0.7,0.4-1.1,0.5
			C749,196.6,748.5,196.6,748.1,196.6z M745.7,191.2h4.4c0-0.9-0.1-1.6-0.3-2.1c-0.2-0.5-0.5-0.8-0.8-0.9s-0.7-0.2-1-0.2
			c-0.3,0-0.6,0-0.9,0.1c-0.3,0.1-0.5,0.3-0.7,0.5c-0.2,0.2-0.4,0.6-0.5,1C745.8,190,745.8,190.5,745.7,191.2z"/>
		<path d="M756.3,196.6c-0.3,0-0.6,0-0.8-0.1s-0.5-0.2-0.8-0.3c-0.2-0.2-0.5-0.4-0.7-0.6s-0.4-0.6-0.5-1c-0.1-0.4-0.2-0.8-0.3-1.2
			s-0.1-1-0.1-1.6c0-0.7,0.1-1.4,0.2-1.9c0.1-0.5,0.3-1,0.5-1.4c0.3-0.5,0.6-0.9,1.1-1.1c0.4-0.2,1-0.4,1.6-0.4
			c0.5,0,0.9,0.1,1.2,0.2c0.4,0.1,0.6,0.3,0.9,0.5c0.2,0.2,0.4,0.4,0.6,0.6v-4.8h1.3v13H759v-1.2c-0.3,0.5-0.7,0.9-1.1,1.1
			S756.9,196.6,756.3,196.6z M756.7,195.5c0.5,0,1-0.1,1.3-0.4c0.4-0.3,0.6-0.6,0.8-1s0.2-0.8,0.2-1.2v-2.2c0-0.6-0.1-1.1-0.4-1.5
			s-0.6-0.7-1-0.8s-0.7-0.2-1-0.2c-0.5,0-0.8,0.1-1.1,0.3c-0.3,0.2-0.5,0.4-0.6,0.7s-0.2,0.5-0.2,0.7c-0.1,0.3-0.1,0.6-0.2,1
			c0,0.3,0,0.7,0,1.1c0,0.4,0,0.8,0.1,1.2s0.1,0.6,0.1,0.8c0.1,0.3,0.1,0.5,0.3,0.7s0.3,0.4,0.4,0.6s0.4,0.3,0.6,0.4
			C756.1,195.5,756.4,195.5,756.7,195.5z"/>
		<path d="M766.1,196.6c-0.5,0-0.9-0.1-1.2-0.2c-0.4-0.1-0.7-0.3-1-0.4c-0.3-0.2-0.5-0.4-0.7-0.7s-0.3-0.5-0.4-0.8
			c-0.1-0.4-0.2-0.8-0.3-1.2s-0.1-0.9-0.1-1.4c0-0.7,0-1.3,0.1-1.9s0.2-1,0.4-1.4c0.2-0.4,0.4-0.7,0.6-0.9c0.3-0.3,0.6-0.5,1-0.7
			c0.4-0.2,0.9-0.2,1.5-0.2c0.5,0,1,0.1,1.4,0.2s0.7,0.3,1,0.6c0.4,0.4,0.7,0.9,0.8,1.5c0.1,0.6,0.2,1.3,0.2,2.2v0.8h-5.7v0.2
			c0,0.6,0.1,1.1,0.2,1.5c0.1,0.4,0.3,0.7,0.5,1c0.2,0.2,0.5,0.4,0.8,0.5s0.6,0.1,1,0.1c0.4,0,0.7-0.1,1-0.2
			c0.3-0.1,0.5-0.3,0.7-0.5s0.3-0.3,0.4-0.5l1,0.6c-0.2,0.4-0.5,0.7-0.8,0.9c-0.3,0.3-0.7,0.4-1.1,0.5
			C767,196.6,766.5,196.6,766.1,196.6z M763.7,191.2h4.4c0-0.9-0.1-1.6-0.3-2.1c-0.2-0.5-0.5-0.8-0.8-0.9s-0.7-0.2-1-0.2
			c-0.3,0-0.6,0-0.9,0.1c-0.3,0.1-0.5,0.3-0.7,0.5c-0.2,0.2-0.4,0.6-0.5,1C763.8,190,763.8,190.5,763.7,191.2z"/>
		<path d="M771.4,196.3v-9.1h1.3v2c0.2-0.5,0.5-1,0.9-1.3s0.7-0.5,1.1-0.6s0.6-0.1,0.9-0.1h0.2v1.3h-0.3c-0.5,0-1,0.1-1.3,0.4
			c-0.4,0.3-0.6,0.6-0.8,1s-0.3,0.8-0.4,1.2s-0.1,0.8-0.1,1.2v4.2H771.4z"/>
		<path d="M779.5,196.3l-3.3-9.1h1.3l2.6,7.3l2.6-7.3h1.2l-3.3,9.1H779.5z"/>
		<path d="M788.4,196.6c-0.5,0-0.9-0.1-1.2-0.2c-0.4-0.1-0.7-0.3-1-0.4c-0.3-0.2-0.5-0.4-0.7-0.7s-0.3-0.5-0.4-0.8
			c-0.1-0.4-0.2-0.8-0.3-1.2s-0.1-0.9-0.1-1.4c0-0.7,0-1.3,0.1-1.9s0.2-1,0.4-1.4c0.2-0.4,0.4-0.7,0.6-0.9c0.3-0.3,0.6-0.5,1-0.7
			c0.4-0.2,0.9-0.2,1.5-0.2c0.5,0,1,0.1,1.4,0.2s0.7,0.3,1,0.6c0.4,0.4,0.7,0.9,0.8,1.5c0.1,0.6,0.2,1.3,0.2,2.2v0.8h-5.7v0.2
			c0,0.6,0.1,1.1,0.2,1.5c0.1,0.4,0.3,0.7,0.5,1c0.2,0.2,0.5,0.4,0.8,0.5s0.6,0.1,1,0.1c0.4,0,0.7-0.1,1-0.2
			c0.3-0.1,0.5-0.3,0.7-0.5s0.3-0.3,0.4-0.5l1,0.6c-0.2,0.4-0.5,0.7-0.8,0.9c-0.3,0.3-0.7,0.4-1.1,0.5
			C789.3,196.6,788.9,196.6,788.4,196.6z M786.1,191.2h4.4c0-0.9-0.1-1.6-0.3-2.1c-0.2-0.5-0.5-0.8-0.8-0.9s-0.7-0.2-1-0.2
			c-0.3,0-0.6,0-0.9,0.1c-0.3,0.1-0.5,0.3-0.7,0.5c-0.2,0.2-0.4,0.6-0.5,1C786.2,190,786.1,190.5,786.1,191.2z"/>
		<path d="M793.8,196.3v-9.1h1.3v2c0.2-0.5,0.5-1,0.9-1.3s0.7-0.5,1.1-0.6s0.6-0.1,0.9-0.1h0.2v1.3h-0.3c-0.5,0-1,0.1-1.3,0.4
			c-0.4,0.3-0.6,0.6-0.8,1s-0.3,0.8-0.4,1.2s-0.1,0.8-0.1,1.2v4.2H793.8z"/>
		<path d="M801.1,196.3l-2.6-9.1h1.3l1.9,7.4l1.9-7.4h1.3l1.9,7.4l1.9-7.4h1.2l-2.6,9.1h-1.2l-1.9-6.9l-1.9,6.9H801.1z"/>
		<path d="M814.5,196.6c-0.5,0-0.9-0.1-1.2-0.2c-0.4-0.1-0.7-0.3-1-0.4c-0.3-0.2-0.5-0.4-0.7-0.7s-0.3-0.5-0.4-0.8
			c-0.1-0.4-0.2-0.8-0.3-1.2s-0.1-0.9-0.1-1.4c0-0.7,0-1.3,0.1-1.9s0.2-1,0.4-1.4c0.2-0.4,0.4-0.7,0.6-0.9c0.3-0.3,0.6-0.5,1-0.7
			c0.4-0.2,0.9-0.2,1.5-0.2c0.5,0,1,0.1,1.4,0.2s0.7,0.3,1,0.6c0.4,0.4,0.7,0.9,0.8,1.5c0.1,0.6,0.2,1.3,0.2,2.2v0.8h-5.7v0.2
			c0,0.6,0.1,1.1,0.2,1.5c0.1,0.4,0.3,0.7,0.5,1c0.2,0.2,0.5,0.4,0.8,0.5s0.6,0.1,1,0.1c0.4,0,0.7-0.1,1-0.2
			c0.3-0.1,0.5-0.3,0.7-0.5s0.3-0.3,0.4-0.5l1,0.6c-0.2,0.4-0.5,0.7-0.8,0.9c-0.3,0.3-0.7,0.4-1.1,0.5
			C815.4,196.6,815,196.6,814.5,196.6z M812.2,191.2h4.4c0-0.9-0.1-1.6-0.3-2.1c-0.2-0.5-0.5-0.8-0.8-0.9s-0.7-0.2-1-0.2
			c-0.3,0-0.6,0-0.9,0.1c-0.3,0.1-0.5,0.3-0.7,0.5c-0.2,0.2-0.4,0.6-0.5,1C812.3,190,812.2,190.5,812.2,191.2z"/>
		<path d="M819.8,196.3v-9.1h1.3v2c0.2-0.5,0.5-1,0.9-1.3s0.7-0.5,1.1-0.6s0.6-0.1,0.9-0.1h0.2v1.3h-0.3c-0.5,0-1,0.1-1.3,0.4
			c-0.4,0.3-0.6,0.6-0.8,1s-0.3,0.8-0.4,1.2s-0.1,0.8-0.1,1.2v4.2H819.8z"/>
		<path d="M828.5,196.5c-0.5,0-1-0.1-1.3-0.2s-0.6-0.3-0.8-0.6c-0.2-0.3-0.3-0.6-0.4-0.9c-0.1-0.4-0.1-0.8-0.1-1.2v-5.3h-1.2v-1h1.2
			v-2.5h1.3v2.5h1.9v1h-1.9v5.3c0,0.3,0,0.6,0,0.8s0.1,0.4,0.2,0.6s0.2,0.3,0.4,0.4s0.4,0.1,0.8,0.1c0.2,0,0.4,0,0.6-0.1v1.1
			C829,196.5,828.8,196.5,828.5,196.5z"/>
		<path d="M834,196.6c-0.5,0-0.9-0.1-1.2-0.2c-0.4-0.1-0.7-0.3-1-0.4c-0.3-0.2-0.5-0.4-0.7-0.7s-0.3-0.5-0.4-0.8
			c-0.1-0.4-0.2-0.8-0.3-1.2s-0.1-0.9-0.1-1.4c0-0.7,0-1.3,0.1-1.9s0.2-1,0.4-1.4c0.2-0.4,0.4-0.7,0.6-0.9c0.3-0.3,0.6-0.5,1-0.7
			c0.4-0.2,0.9-0.2,1.5-0.2c0.5,0,1,0.1,1.4,0.2s0.7,0.3,1,0.6c0.4,0.4,0.7,0.9,0.8,1.5c0.1,0.6,0.2,1.3,0.2,2.2v0.8h-5.7v0.2
			c0,0.6,0.1,1.1,0.2,1.5c0.1,0.4,0.3,0.7,0.5,1c0.2,0.2,0.5,0.4,0.8,0.5s0.6,0.1,1,0.1c0.4,0,0.7-0.1,1-0.2
			c0.3-0.1,0.5-0.3,0.7-0.5s0.3-0.3,0.4-0.5l1,0.6c-0.2,0.4-0.5,0.7-0.8,0.9c-0.3,0.3-0.7,0.4-1.1,0.5
			C834.9,196.6,834.4,196.6,834,196.6z M831.6,191.2h4.4c0-0.9-0.1-1.6-0.3-2.1c-0.2-0.5-0.5-0.8-0.8-0.9s-0.7-0.2-1-0.2
			c-0.3,0-0.6,0-0.9,0.1c-0.3,0.1-0.5,0.3-0.7,0.5c-0.2,0.2-0.4,0.6-0.5,1C831.7,190,831.7,190.5,831.6,191.2z"/>
		<path d="M842.1,196.5c-0.5,0-1-0.1-1.3-0.2s-0.6-0.3-0.8-0.6c-0.2-0.3-0.3-0.6-0.4-0.9c-0.1-0.4-0.1-0.8-0.1-1.2v-5.3h-1.2v-1h1.2
			v-2.5h1.3v2.5h1.9v1h-1.9v5.3c0,0.3,0,0.6,0,0.8s0.1,0.4,0.2,0.6s0.2,0.3,0.4,0.4s0.4,0.1,0.8,0.1c0.2,0,0.4,0,0.6-0.1v1.1
			C842.6,196.5,842.4,196.5,842.1,196.5z"/>
	</g>
	<g>
		<path d="M611.1,256.5c-0.6,0-1.1-0.1-1.5-0.2c-0.4-0.1-0.8-0.3-1-0.6c-0.2-0.2-0.4-0.5-0.5-0.8c-0.1-0.3-0.2-0.6-0.3-0.9l1.2-0.3
			c0.1,0.2,0.1,0.5,0.2,0.7s0.2,0.4,0.3,0.5c0.4,0.4,0.9,0.5,1.6,0.5c0.7,0,1.2-0.2,1.6-0.6c0.4-0.4,0.7-1,0.8-1.7s0.2-1.7,0.2-2.9
			c-0.3,0.4-0.5,0.6-0.8,0.8c-0.2,0.2-0.6,0.4-0.9,0.5c-0.4,0.1-0.8,0.2-1.2,0.2c-0.2,0-0.4,0-0.7,0s-0.4-0.1-0.7-0.1
			s-0.4-0.2-0.6-0.3c-0.2-0.1-0.4-0.3-0.5-0.4c-0.3-0.3-0.6-0.8-0.8-1.3c-0.2-0.6-0.3-1.3-0.3-2.1c0-0.8,0.1-1.4,0.3-2
			s0.5-1,0.8-1.4c0.3-0.3,0.7-0.5,1.2-0.7s1-0.2,1.5-0.2c0.5,0,1,0.1,1.4,0.2s0.8,0.3,1.1,0.7c0.3,0.4,0.6,0.8,0.8,1.3
			c0.2,0.5,0.3,1.1,0.4,1.9s0.1,1.6,0.1,2.5c0,1.1-0.1,2.1-0.2,2.9c-0.1,0.8-0.3,1.4-0.5,1.9c-0.2,0.5-0.4,0.8-0.7,1.1
			C613.1,256.2,612.3,256.5,611.1,256.5z M611,250.7c0.4,0,0.8-0.1,1.2-0.2c0.3-0.2,0.6-0.4,0.8-0.7s0.4-0.6,0.5-1s0.2-0.7,0.2-1.1
			c0-1.1-0.2-2-0.6-2.6c-0.4-0.6-1-0.8-1.9-0.8c-0.4,0-0.8,0.1-1.1,0.2c-0.3,0.1-0.5,0.3-0.7,0.6c-0.2,0.3-0.3,0.6-0.4,1
			c-0.1,0.4-0.1,0.9-0.1,1.4c0,0.6,0.1,1.1,0.2,1.5c0.1,0.4,0.3,0.8,0.5,1s0.4,0.4,0.7,0.6S610.7,250.7,611,250.7z"/>
		<path d="M618.9,256.2l4.2-11.5h-4.6v1.7h-1.2v-2.9h7.1v1.1l-4.2,11.5H618.9z"/>
		<path d="M628.8,250.8c-0.4,0-0.7,0-1-0.1c-0.3-0.1-0.5-0.2-0.7-0.4c-0.2-0.2-0.3-0.4-0.5-0.6c-0.1-0.2-0.2-0.5-0.3-0.7
			s-0.1-0.6-0.1-0.9s0-0.7,0-1s0-0.7,0-1s0.1-0.6,0.1-0.9s0.2-0.5,0.3-0.7c0.1-0.2,0.3-0.4,0.5-0.6c0.2-0.2,0.5-0.3,0.7-0.4
			c0.3-0.1,0.6-0.1,1-0.1c0.4,0,0.8,0,1,0.1c0.3,0.1,0.5,0.2,0.7,0.4c0.4,0.4,0.7,0.9,0.8,1.4c0.1,0.5,0.1,1.1,0.1,1.8
			c0,0.6,0,1.1-0.1,1.5c-0.1,0.4-0.2,0.8-0.3,1c-0.1,0.3-0.3,0.5-0.5,0.6c-0.2,0.2-0.5,0.3-0.7,0.4
			C629.6,250.8,629.3,250.8,628.8,250.8z M628.8,250c0.2,0,0.4,0,0.5-0.1s0.3-0.1,0.4-0.2c0.3-0.2,0.4-0.6,0.5-1.1s0.1-1,0.1-1.6
			c0-0.7,0-1.2-0.1-1.6s-0.1-0.6-0.2-0.8s-0.2-0.3-0.3-0.3c-0.1-0.1-0.3-0.2-0.4-0.2s-0.3-0.1-0.5-0.1c-0.2,0-0.4,0-0.5,0.1
			s-0.2,0.1-0.4,0.2c-0.3,0.2-0.5,0.6-0.5,1s-0.1,1-0.1,1.6c0,0.6,0,1.2,0.1,1.6s0.1,0.7,0.2,0.8c0.1,0.1,0.2,0.2,0.3,0.3
			c0.1,0.1,0.3,0.2,0.4,0.2C628.5,250,628.7,250,628.8,250z M630.2,256.5l4.2-13.3h1.1l-4.2,13.3H630.2z M636.9,256.5
			c-0.4,0-0.7,0-1-0.1s-0.5-0.2-0.7-0.4c-0.3-0.2-0.5-0.5-0.6-0.9s-0.2-0.7-0.2-1.1s0-0.8,0-1.2c0-0.6,0-1.1,0.1-1.6s0.2-0.8,0.3-1
			s0.3-0.5,0.5-0.6c0.2-0.2,0.5-0.3,0.7-0.4s0.6-0.1,1-0.1s0.7,0,1,0.1c0.3,0.1,0.5,0.2,0.8,0.4c0.4,0.4,0.6,0.9,0.7,1.4
			s0.1,1.2,0.1,1.8c0,0.6,0,1.1-0.1,1.5s-0.2,0.7-0.3,1c-0.1,0.3-0.3,0.5-0.5,0.7c-0.2,0.2-0.5,0.3-0.8,0.4
			C637.6,256.4,637.3,256.5,636.9,256.5z M636.9,255.7c0.2,0,0.4,0,0.5-0.1c0.1-0.1,0.3-0.1,0.4-0.2c0.3-0.2,0.4-0.6,0.5-1
			s0.1-1,0.1-1.6c0-0.7,0-1.2-0.1-1.6s-0.1-0.6-0.2-0.8c-0.1-0.2-0.2-0.3-0.3-0.3c-0.1-0.1-0.3-0.2-0.4-0.2s-0.3-0.1-0.5-0.1
			c-0.4,0-0.7,0.1-0.9,0.3c-0.3,0.2-0.4,0.6-0.5,1.1s-0.1,1-0.1,1.6c0,0.6,0,1.2,0.1,1.5c0.1,0.4,0.1,0.7,0.2,0.8
			c0.1,0.1,0.2,0.2,0.3,0.3c0.1,0.1,0.3,0.2,0.4,0.2S636.7,255.7,636.9,255.7z"/>
		<path d="M647.4,256.2l-2.6-9.1h1.3l1.9,7.4l1.9-7.4h1.3l1.9,7.4l1.9-7.4h1.2l-2.6,9.1h-1.2l-1.9-6.9l-1.9,6.9H647.4z"/>
		<path d="M657.5,244.8v-1.5h1.3v1.5H657.5z M657.5,256.2v-9.1h1.3v9.1H657.5z"/>
		<path d="M664.5,256.5c-0.5,0-0.9-0.1-1.2-0.2c-0.4-0.1-0.7-0.3-1-0.4c-0.3-0.2-0.5-0.4-0.7-0.7s-0.3-0.5-0.4-0.8
			c-0.1-0.4-0.2-0.8-0.3-1.2s-0.1-0.9-0.1-1.4c0-0.7,0-1.3,0.1-1.8s0.2-1,0.4-1.4c0.2-0.4,0.4-0.7,0.6-0.9c0.3-0.3,0.6-0.5,1-0.7
			c0.4-0.2,0.9-0.3,1.5-0.3c0.5,0,1,0.1,1.4,0.2s0.7,0.3,1,0.6c0.4,0.4,0.7,0.9,0.8,1.5c0.1,0.6,0.2,1.3,0.2,2.2v0.8h-5.7v0.2
			c0,0.6,0.1,1.1,0.2,1.5c0.1,0.4,0.3,0.7,0.5,1c0.2,0.2,0.5,0.4,0.8,0.5s0.6,0.1,1,0.1c0.4,0,0.7-0.1,1-0.2
			c0.3-0.1,0.5-0.3,0.7-0.5s0.3-0.3,0.4-0.5l1,0.6c-0.2,0.4-0.5,0.7-0.8,0.9c-0.3,0.3-0.7,0.4-1.1,0.5
			C665.4,256.4,665,256.5,664.5,256.5z M662.2,251h4.4c0-0.9-0.1-1.6-0.3-2.1c-0.2-0.5-0.5-0.8-0.8-0.9s-0.7-0.2-1-0.2
			c-0.3,0-0.6,0-0.9,0.1c-0.3,0.1-0.5,0.3-0.7,0.5c-0.2,0.2-0.4,0.6-0.5,1C662.3,249.9,662.2,250.4,662.2,251z"/>
		<path d="M672.8,256.5c-0.3,0-0.6,0-0.8-0.1s-0.5-0.2-0.8-0.3c-0.2-0.2-0.5-0.4-0.7-0.6s-0.4-0.6-0.5-1c-0.1-0.4-0.2-0.8-0.3-1.2
			s-0.1-1-0.1-1.6c0-0.7,0.1-1.4,0.2-1.9c0.1-0.5,0.3-1,0.5-1.4c0.3-0.5,0.6-0.9,1.1-1.1c0.4-0.2,1-0.4,1.6-0.4
			c0.5,0,0.9,0.1,1.2,0.2c0.4,0.1,0.6,0.3,0.9,0.5c0.2,0.2,0.4,0.4,0.6,0.6v-4.8h1.3v13h-1.3V255c-0.3,0.5-0.7,0.9-1.1,1.1
			S673.4,256.5,672.8,256.5z M673.2,255.4c0.5,0,1-0.1,1.3-0.4c0.4-0.3,0.6-0.6,0.8-1s0.2-0.8,0.2-1.2v-2.2c0-0.6-0.1-1.1-0.4-1.5
			s-0.6-0.7-1-0.8s-0.7-0.2-1-0.2c-0.5,0-0.8,0.1-1.1,0.3c-0.3,0.2-0.5,0.4-0.6,0.7s-0.2,0.5-0.2,0.7c-0.1,0.3-0.1,0.6-0.2,1
			c0,0.3,0,0.7,0,1.1c0,0.4,0,0.8,0.1,1.2s0.1,0.6,0.1,0.8c0.1,0.3,0.1,0.5,0.3,0.7s0.3,0.4,0.4,0.6s0.4,0.3,0.6,0.4
			C672.6,255.3,672.9,255.4,673.2,255.4z"/>
		<path d="M682.5,256.5c-0.5,0-0.9-0.1-1.2-0.2c-0.4-0.1-0.7-0.3-1-0.4c-0.3-0.2-0.5-0.4-0.7-0.7s-0.3-0.5-0.4-0.8
			c-0.1-0.4-0.2-0.8-0.3-1.2s-0.1-0.9-0.1-1.4c0-0.7,0-1.3,0.1-1.8s0.2-1,0.4-1.4c0.2-0.4,0.4-0.7,0.6-0.9c0.3-0.3,0.6-0.5,1-0.7
			c0.4-0.2,0.9-0.3,1.5-0.3c0.5,0,1,0.1,1.4,0.2s0.7,0.3,1,0.6c0.4,0.4,0.7,0.9,0.8,1.5c0.1,0.6,0.2,1.3,0.2,2.2v0.8h-5.7v0.2
			c0,0.6,0.1,1.1,0.2,1.5c0.1,0.4,0.3,0.7,0.5,1c0.2,0.2,0.5,0.4,0.8,0.5s0.6,0.1,1,0.1c0.4,0,0.7-0.1,1-0.2
			c0.3-0.1,0.5-0.3,0.7-0.5s0.3-0.3,0.4-0.5l1,0.6c-0.2,0.4-0.5,0.7-0.8,0.9c-0.3,0.3-0.7,0.4-1.1,0.5
			C683.4,256.4,683,256.5,682.5,256.5z M680.2,251h4.4c0-0.9-0.1-1.6-0.3-2.1c-0.2-0.5-0.5-0.8-0.8-0.9s-0.7-0.2-1-0.2
			c-0.3,0-0.6,0-0.9,0.1c-0.3,0.1-0.5,0.3-0.7,0.5c-0.2,0.2-0.4,0.6-0.5,1C680.3,249.9,680.2,250.4,680.2,251z"/>
		<path d="M687.9,256.2v-9.1h1.3v2c0.2-0.5,0.5-1,0.9-1.3s0.7-0.5,1.1-0.6s0.6-0.1,0.9-0.1h0.2v1.3h-0.3c-0.5,0-1,0.1-1.3,0.4
			c-0.4,0.3-0.6,0.6-0.8,1s-0.3,0.8-0.4,1.2s-0.1,0.8-0.1,1.2v4.2H687.9z"/>
		<path d="M695.6,256.4c-0.2,0-0.5,0-0.7-0.1c-0.2,0-0.4-0.1-0.6-0.2s-0.4-0.2-0.5-0.3c-0.2-0.1-0.3-0.3-0.4-0.4
			c-0.2-0.3-0.3-0.5-0.4-0.8c-0.1-0.3-0.2-0.7-0.2-1c0-0.3,0-0.7,0.1-0.9c0.1-0.3,0.2-0.5,0.4-0.7c0.3-0.4,0.6-0.6,1.1-0.8
			s1-0.3,1.7-0.3h2.3v-1.2c0-0.5-0.1-0.9-0.4-1.2s-0.5-0.5-0.8-0.5c-0.3-0.1-0.6-0.1-0.8-0.1c-0.6,0-1,0.1-1.4,0.3s-0.6,0.5-0.8,0.9
			l-1.1-0.4c0.2-0.6,0.6-1.1,1.2-1.4s1.3-0.5,2.2-0.5c0.6,0,1.1,0.1,1.5,0.2c0.4,0.1,0.8,0.4,1.1,0.7c0.2,0.3,0.4,0.6,0.5,0.9
			s0.2,0.7,0.2,1.1v6.5h-1.3v-0.9c-0.3,0.3-0.6,0.6-0.9,0.7s-0.6,0.3-1,0.4S695.9,256.4,695.6,256.4z M696.1,255.4
			c0.5,0,0.9-0.1,1.3-0.3s0.7-0.5,0.8-0.8s0.3-0.6,0.3-0.9v-1.5h-1.9c-0.4,0-0.8,0-1.1,0.1s-0.6,0.2-0.7,0.3s-0.3,0.3-0.4,0.6
			s-0.1,0.5-0.1,0.7c0,0.3,0,0.5,0.1,0.7s0.2,0.4,0.3,0.5C694.8,255.2,695.4,255.4,696.1,255.4z"/>
		<path d="M704.7,256.5c-0.3,0-0.7,0-1-0.1c-0.3-0.1-0.6-0.2-0.8-0.5c-0.2-0.2-0.4-0.5-0.6-0.8s-0.2-0.8-0.2-1.3v-6.7h1.3v6.2
			c0,0.4,0,0.7,0.1,0.9c0.1,0.3,0.2,0.5,0.3,0.6s0.3,0.3,0.6,0.4s0.5,0.1,0.8,0.1c0.4,0,0.7-0.1,1-0.2s0.6-0.4,0.8-0.6
			c0.2-0.3,0.4-0.6,0.5-0.9s0.2-0.7,0.2-1v-5.4h1.3v9.1h-1.3v-1.3c-0.4,0.6-0.8,1-1.3,1.2S705.3,256.5,704.7,256.5z"/>
		<path d="M711.5,256.2v-8.1h-1.2v-1h1.2v-0.9c0-0.6,0.1-1.1,0.2-1.4s0.3-0.6,0.5-0.9c0.3-0.3,0.6-0.5,0.9-0.6
			c0.4-0.1,0.7-0.2,1.1-0.2c0.4,0,0.8,0,1,0.1v1.1c-0.2,0-0.5-0.1-0.8-0.1c-0.2,0-0.4,0-0.6,0.1s-0.4,0.2-0.6,0.4
			c-0.1,0.1-0.2,0.3-0.3,0.5c-0.1,0.2-0.1,0.5-0.1,1v0.8h2.1v1h-2.1v8.1H711.5z"/>
		<path d="M720.2,256.5c-0.6,0-1.1-0.1-1.6-0.4s-0.8-0.6-1.1-1.1v1.2h-1.3v-13h1.3v4.8c0.3-0.4,0.7-0.7,1.2-0.9s1-0.3,1.6-0.3
			c0.6,0,1.1,0.1,1.6,0.4s0.8,0.6,1.1,1.1c0.2,0.4,0.3,0.8,0.4,1.4s0.2,1.2,0.2,1.9c0,0.6,0,1.2-0.1,1.6s-0.2,0.9-0.3,1.3
			c-0.2,0.6-0.5,1-0.8,1.3s-0.7,0.5-1.1,0.6C720.8,256.5,720.5,256.5,720.2,256.5z M719.8,255.4c0.6,0,1.1-0.2,1.4-0.5
			s0.6-0.8,0.7-1.3c0-0.2,0.1-0.5,0.1-0.9s0.1-0.8,0.1-1.1c0-0.4,0-0.7,0-1.1c0-0.3-0.1-0.7-0.2-1c-0.1-0.4-0.2-0.7-0.4-0.9
			s-0.4-0.4-0.7-0.5c-0.3-0.1-0.6-0.2-0.9-0.2c-0.3,0-0.6,0.1-0.9,0.2s-0.5,0.3-0.8,0.5c-0.2,0.2-0.4,0.5-0.5,0.8
			c-0.1,0.3-0.2,0.7-0.2,1.1v2.2c0,0.4,0.1,0.7,0.2,1.1s0.3,0.6,0.5,0.8c0.2,0.2,0.4,0.4,0.7,0.5S719.5,255.4,719.8,255.4z"/>
		<path d="M728.8,256.5c-0.5,0-0.9-0.1-1.2-0.2c-0.4-0.1-0.7-0.3-1-0.4c-0.3-0.2-0.5-0.4-0.7-0.7s-0.3-0.5-0.4-0.8
			c-0.1-0.4-0.2-0.8-0.3-1.2s-0.1-0.9-0.1-1.4c0-0.7,0-1.3,0.1-1.8s0.2-1,0.4-1.4c0.2-0.4,0.4-0.7,0.6-0.9c0.3-0.3,0.6-0.5,1-0.7
			c0.4-0.2,0.9-0.3,1.5-0.3c0.5,0,1,0.1,1.4,0.2s0.7,0.3,1,0.6c0.4,0.4,0.7,0.9,0.8,1.5c0.1,0.6,0.2,1.3,0.2,2.2v0.8h-5.7v0.2
			c0,0.6,0.1,1.1,0.2,1.5c0.1,0.4,0.3,0.7,0.5,1c0.2,0.2,0.5,0.4,0.8,0.5s0.6,0.1,1,0.1c0.4,0,0.7-0.1,1-0.2
			c0.3-0.1,0.5-0.3,0.7-0.5s0.3-0.3,0.4-0.5l1,0.6c-0.2,0.4-0.5,0.7-0.8,0.9c-0.3,0.3-0.7,0.4-1.1,0.5
			C729.7,256.4,729.3,256.5,728.8,256.5z M726.5,251h4.4c0-0.9-0.1-1.6-0.3-2.1c-0.2-0.5-0.5-0.8-0.8-0.9s-0.7-0.2-1-0.2
			c-0.3,0-0.6,0-0.9,0.1c-0.3,0.1-0.5,0.3-0.7,0.5c-0.2,0.2-0.4,0.6-0.5,1C726.6,249.9,726.5,250.4,726.5,251z"/>
		<path d="M734.2,256.2v-9.1h1.3v2c0.2-0.5,0.5-1,0.9-1.3s0.7-0.5,1.1-0.6s0.6-0.1,0.9-0.1h0.2v1.3h-0.3c-0.5,0-1,0.1-1.3,0.4
			c-0.4,0.3-0.6,0.6-0.8,1s-0.3,0.8-0.4,1.2s-0.1,0.8-0.1,1.2v4.2H734.2z"/>
		<path d="M742.8,256.5c-0.5,0-0.9-0.1-1.2-0.2c-0.4-0.1-0.7-0.3-1-0.4c-0.3-0.2-0.5-0.4-0.7-0.7s-0.3-0.5-0.4-0.8
			c-0.1-0.4-0.2-0.8-0.3-1.2s-0.1-0.9-0.1-1.4c0-0.7,0-1.3,0.1-1.8s0.2-1,0.4-1.4c0.2-0.4,0.4-0.7,0.6-0.9c0.3-0.3,0.6-0.5,1-0.7
			c0.4-0.2,0.9-0.3,1.5-0.3c0.5,0,1,0.1,1.4,0.2s0.7,0.3,1,0.6c0.4,0.4,0.7,0.9,0.8,1.5c0.1,0.6,0.2,1.3,0.2,2.2v0.8h-5.7v0.2
			c0,0.6,0.1,1.1,0.2,1.5c0.1,0.4,0.3,0.7,0.5,1c0.2,0.2,0.5,0.4,0.8,0.5s0.6,0.1,1,0.1c0.4,0,0.7-0.1,1-0.2
			c0.3-0.1,0.5-0.3,0.7-0.5s0.3-0.3,0.4-0.5l1,0.6c-0.2,0.4-0.5,0.7-0.8,0.9c-0.3,0.3-0.7,0.4-1.1,0.5
			C743.7,256.4,743.3,256.5,742.8,256.5z M740.5,251h4.4c0-0.9-0.1-1.6-0.3-2.1c-0.2-0.5-0.5-0.8-0.8-0.9s-0.7-0.2-1-0.2
			c-0.3,0-0.6,0-0.9,0.1c-0.3,0.1-0.5,0.3-0.7,0.5c-0.2,0.2-0.4,0.6-0.5,1C740.6,249.9,740.5,250.4,740.5,251z"/>
		<path d="M748.2,244.8v-1.5h1.3v1.5H748.2z M748.2,256.2v-9.1h1.3v9.1H748.2z"/>
		<path d="M754.6,256.3c-0.5,0-1-0.1-1.3-0.2s-0.6-0.3-0.8-0.6c-0.2-0.3-0.3-0.6-0.4-0.9c-0.1-0.4-0.1-0.8-0.1-1.2v-5.3h-1.2v-1h1.2
			v-2.5h1.3v2.5h1.9v1h-1.9v5.3c0,0.3,0,0.6,0,0.8s0.1,0.4,0.2,0.6s0.2,0.3,0.4,0.4s0.4,0.1,0.8,0.1c0.2,0,0.4,0,0.6-0.1v1.1
			C755.1,256.3,754.9,256.3,754.6,256.3z"/>
		<path d="M760.1,256.5c-0.5,0-0.9-0.1-1.2-0.2c-0.4-0.1-0.7-0.3-1-0.4c-0.3-0.2-0.5-0.4-0.7-0.7s-0.3-0.5-0.4-0.8
			c-0.1-0.4-0.2-0.8-0.3-1.2s-0.1-0.9-0.1-1.4c0-0.7,0-1.3,0.1-1.8s0.2-1,0.4-1.4c0.2-0.4,0.4-0.7,0.6-0.9c0.3-0.3,0.6-0.5,1-0.7
			c0.4-0.2,0.9-0.3,1.5-0.3c0.5,0,1,0.1,1.4,0.2s0.7,0.3,1,0.6c0.4,0.4,0.7,0.9,0.8,1.5c0.1,0.6,0.2,1.3,0.2,2.2v0.8h-5.7v0.2
			c0,0.6,0.1,1.1,0.2,1.5c0.1,0.4,0.3,0.7,0.5,1c0.2,0.2,0.5,0.4,0.8,0.5s0.6,0.1,1,0.1c0.4,0,0.7-0.1,1-0.2
			c0.3-0.1,0.5-0.3,0.7-0.5s0.3-0.3,0.4-0.5l1,0.6c-0.2,0.4-0.5,0.7-0.8,0.9c-0.3,0.3-0.7,0.4-1.1,0.5
			C761,256.4,760.5,256.5,760.1,256.5z M757.7,251h4.4c0-0.9-0.1-1.6-0.3-2.1c-0.2-0.5-0.5-0.8-0.8-0.9s-0.7-0.2-1-0.2
			c-0.3,0-0.6,0-0.9,0.1c-0.3,0.1-0.5,0.3-0.7,0.5c-0.2,0.2-0.4,0.6-0.5,1C757.8,249.9,757.7,250.4,757.7,251z"/>
		<path d="M768.2,256.3c-0.5,0-1-0.1-1.3-0.2s-0.6-0.3-0.8-0.6c-0.2-0.3-0.3-0.6-0.4-0.9c-0.1-0.4-0.1-0.8-0.1-1.2v-5.3h-1.2v-1h1.2
			v-2.5h1.3v2.5h1.9v1h-1.9v5.3c0,0.3,0,0.6,0,0.8s0.1,0.4,0.2,0.6s0.2,0.3,0.4,0.4s0.4,0.1,0.8,0.1c0.2,0,0.4,0,0.6-0.1v1.1
			C768.7,256.3,768.4,256.3,768.2,256.3z"/>
		<path d="M773.6,256.5c-0.5,0-0.9-0.1-1.2-0.2c-0.4-0.1-0.7-0.3-1-0.4c-0.3-0.2-0.5-0.4-0.7-0.7s-0.3-0.5-0.4-0.8
			c-0.1-0.4-0.2-0.8-0.3-1.2s-0.1-0.9-0.1-1.4c0-0.7,0-1.3,0.1-1.8s0.2-1,0.4-1.4c0.2-0.4,0.4-0.7,0.6-0.9c0.3-0.3,0.6-0.5,1-0.7
			c0.4-0.2,0.9-0.3,1.5-0.3c0.5,0,1,0.1,1.4,0.2s0.7,0.3,1,0.6c0.4,0.4,0.7,0.9,0.8,1.5c0.1,0.6,0.2,1.3,0.2,2.2v0.8h-5.7v0.2
			c0,0.6,0.1,1.1,0.2,1.5c0.1,0.4,0.3,0.7,0.5,1c0.2,0.2,0.5,0.4,0.8,0.5s0.6,0.1,1,0.1c0.4,0,0.7-0.1,1-0.2
			c0.3-0.1,0.5-0.3,0.7-0.5s0.3-0.3,0.4-0.5l1,0.6c-0.2,0.4-0.5,0.7-0.8,0.9c-0.3,0.3-0.7,0.4-1.1,0.5
			C774.5,256.4,774.1,256.5,773.6,256.5z M771.3,251h4.4c0-0.9-0.1-1.6-0.3-2.1c-0.2-0.5-0.5-0.8-0.8-0.9s-0.7-0.2-1-0.2
			c-0.3,0-0.6,0-0.9,0.1c-0.3,0.1-0.5,0.3-0.7,0.5c-0.2,0.2-0.4,0.6-0.5,1C771.4,249.9,771.3,250.4,771.3,251z"/>
		<path d="M781.9,256.5c-0.5,0-0.9-0.1-1.2-0.2s-0.7-0.2-1-0.4c-0.5-0.4-0.9-0.8-1.1-1.4l1.1-0.5c0.2,0.3,0.3,0.6,0.6,0.8
			c0.2,0.2,0.5,0.4,0.8,0.5c0.3,0.1,0.6,0.1,0.9,0.1c0.4,0,0.8-0.1,1.1-0.2c0.3-0.1,0.5-0.3,0.7-0.5c0.1-0.2,0.2-0.5,0.2-0.8
			c0-0.3-0.1-0.6-0.2-0.8s-0.4-0.4-0.7-0.5c-0.6-0.2-1-0.4-1.2-0.4c-0.2-0.1-0.4-0.1-0.5-0.2c-0.5-0.2-0.9-0.4-1.2-0.6
			s-0.6-0.4-0.7-0.6s-0.3-0.4-0.3-0.7c-0.1-0.2-0.1-0.5-0.1-0.7c0-0.2,0-0.4,0.1-0.6c0-0.2,0.1-0.5,0.2-0.7c0.2-0.3,0.4-0.5,0.6-0.7
			c0.3-0.2,0.6-0.4,1-0.5s0.8-0.1,1.2-0.1c0.7,0,1.4,0.1,1.9,0.4s0.9,0.7,1.2,1.3l-1,0.5c-0.1-0.3-0.3-0.5-0.4-0.6s-0.3-0.3-0.5-0.4
			s-0.3-0.2-0.5-0.2s-0.4-0.1-0.6-0.1c-0.3,0-0.6,0-0.9,0.1c-0.2,0.1-0.5,0.2-0.6,0.3c-0.1,0.1-0.2,0.3-0.3,0.4s-0.1,0.4-0.1,0.6
			c0,0.2,0.1,0.4,0.2,0.6s0.3,0.3,0.5,0.5c0.2,0.1,0.5,0.3,0.8,0.4c0.3,0.1,0.7,0.3,1.2,0.4c0.7,0.2,1.2,0.4,1.5,0.7
			c0.3,0.2,0.5,0.4,0.6,0.6c0.1,0.1,0.2,0.3,0.2,0.5s0.1,0.5,0.1,0.8c0,0.4-0.1,0.7-0.2,0.9s-0.3,0.5-0.4,0.7
			c-0.3,0.3-0.6,0.6-1.2,0.7S782.4,256.5,781.9,256.5z"/>
		<path d="M793.6,256.2l-3-13h1.5l2.2,11l2.5-11h1.4l2.3,11l2.3-11h1.4l-3,13h-1.5l-2.4-10.4l-2.4,10.4H793.6z"/>
		<path d="M807.3,256.4c-0.2,0-0.5,0-0.7-0.1c-0.2,0-0.4-0.1-0.6-0.2s-0.4-0.2-0.5-0.3c-0.2-0.1-0.3-0.3-0.4-0.4
			c-0.2-0.3-0.3-0.5-0.4-0.8c-0.1-0.3-0.2-0.7-0.2-1c0-0.3,0-0.7,0.1-0.9c0.1-0.3,0.2-0.5,0.4-0.7c0.3-0.4,0.6-0.6,1.1-0.8
			s1-0.3,1.7-0.3h2.3v-1.2c0-0.5-0.1-0.9-0.4-1.2s-0.5-0.5-0.8-0.5c-0.3-0.1-0.6-0.1-0.8-0.1c-0.6,0-1,0.1-1.4,0.3s-0.6,0.5-0.8,0.9
			l-1.1-0.4c0.2-0.6,0.6-1.1,1.2-1.4s1.3-0.5,2.2-0.5c0.6,0,1.1,0.1,1.5,0.2c0.4,0.1,0.8,0.4,1.1,0.7c0.2,0.3,0.4,0.6,0.5,0.9
			s0.1,0.7,0.1,1.1v6.5h-1.3v-0.9c-0.3,0.3-0.6,0.6-0.9,0.7s-0.6,0.3-1,0.4S807.6,256.4,807.3,256.4z M807.7,255.4
			c0.5,0,0.9-0.1,1.3-0.3s0.7-0.5,0.8-0.8s0.3-0.6,0.3-0.9v-1.5h-1.9c-0.4,0-0.8,0-1.1,0.1s-0.6,0.2-0.7,0.3s-0.3,0.3-0.4,0.6
			s-0.1,0.5-0.1,0.7c0,0.3,0,0.5,0.1,0.7s0.2,0.4,0.3,0.5C806.5,255.2,807,255.4,807.7,255.4z"/>
		<path d="M816.7,256.5c-0.5,0-0.9-0.1-1.2-0.2s-0.7-0.2-1-0.4c-0.5-0.4-0.9-0.8-1.1-1.4l1.1-0.5c0.2,0.3,0.3,0.6,0.6,0.8
			c0.2,0.2,0.5,0.4,0.8,0.5c0.3,0.1,0.6,0.1,0.9,0.1c0.4,0,0.8-0.1,1.1-0.2c0.3-0.1,0.5-0.3,0.7-0.5c0.1-0.2,0.2-0.5,0.2-0.8
			c0-0.3-0.1-0.6-0.2-0.8s-0.4-0.4-0.7-0.5c-0.6-0.2-1-0.4-1.2-0.4c-0.2-0.1-0.4-0.1-0.5-0.2c-0.5-0.2-0.9-0.4-1.2-0.6
			s-0.6-0.4-0.7-0.6s-0.3-0.4-0.3-0.7c-0.1-0.2-0.1-0.5-0.1-0.7c0-0.2,0-0.4,0.1-0.6c0-0.2,0.1-0.5,0.2-0.7c0.2-0.3,0.4-0.5,0.6-0.7
			c0.3-0.2,0.6-0.4,1-0.5s0.8-0.1,1.2-0.1c0.7,0,1.4,0.1,1.9,0.4s0.9,0.7,1.2,1.3l-1,0.5c-0.1-0.3-0.3-0.5-0.4-0.6s-0.3-0.3-0.5-0.4
			s-0.3-0.2-0.5-0.2s-0.4-0.1-0.6-0.1c-0.3,0-0.6,0-0.9,0.1c-0.2,0.1-0.5,0.2-0.6,0.3c-0.1,0.1-0.2,0.3-0.3,0.4s-0.1,0.4-0.1,0.6
			c0,0.2,0.1,0.4,0.2,0.6s0.3,0.3,0.5,0.5c0.2,0.1,0.5,0.3,0.8,0.4c0.3,0.1,0.7,0.3,1.2,0.4c0.7,0.2,1.2,0.4,1.5,0.7
			c0.3,0.2,0.5,0.4,0.6,0.6c0.1,0.1,0.2,0.3,0.2,0.5s0.1,0.5,0.1,0.8c0,0.4-0.1,0.7-0.2,0.9s-0.3,0.5-0.4,0.7
			c-0.3,0.3-0.6,0.6-1.2,0.7S817.2,256.5,816.7,256.5z"/>
		<path d="M824.8,256.5c-0.5,0-0.9-0.1-1.2-0.2s-0.7-0.2-1-0.4c-0.5-0.4-0.9-0.8-1.1-1.4l1.1-0.5c0.2,0.3,0.3,0.6,0.6,0.8
			c0.2,0.2,0.5,0.4,0.8,0.5c0.3,0.1,0.6,0.1,0.9,0.1c0.4,0,0.8-0.1,1.1-0.2c0.3-0.1,0.5-0.3,0.7-0.5c0.1-0.2,0.2-0.5,0.2-0.8
			c0-0.3-0.1-0.6-0.2-0.8s-0.4-0.4-0.7-0.5c-0.6-0.2-1-0.4-1.2-0.4c-0.2-0.1-0.4-0.1-0.5-0.2c-0.5-0.2-0.9-0.4-1.2-0.6
			s-0.6-0.4-0.7-0.6s-0.3-0.4-0.3-0.7c-0.1-0.2-0.1-0.5-0.1-0.7c0-0.2,0-0.4,0.1-0.6c0-0.2,0.1-0.5,0.2-0.7c0.2-0.3,0.4-0.5,0.6-0.7
			c0.3-0.2,0.6-0.4,1-0.5s0.8-0.1,1.2-0.1c0.7,0,1.4,0.1,1.9,0.4s0.9,0.7,1.2,1.3l-1,0.5c-0.1-0.3-0.3-0.5-0.4-0.6s-0.3-0.3-0.5-0.4
			s-0.3-0.2-0.5-0.2s-0.4-0.1-0.6-0.1c-0.3,0-0.6,0-0.9,0.1c-0.2,0.1-0.5,0.2-0.6,0.3c-0.1,0.1-0.2,0.3-0.3,0.4s-0.1,0.4-0.1,0.6
			c0,0.2,0.1,0.4,0.2,0.6s0.3,0.3,0.5,0.5c0.2,0.1,0.5,0.3,0.8,0.4c0.3,0.1,0.7,0.3,1.2,0.4c0.7,0.2,1.2,0.4,1.5,0.7
			c0.3,0.2,0.5,0.4,0.6,0.6c0.1,0.1,0.2,0.3,0.2,0.5s0.1,0.5,0.1,0.8c0,0.4-0.1,0.7-0.2,0.9s-0.3,0.5-0.4,0.7
			c-0.3,0.3-0.6,0.6-1.2,0.7S825.2,256.5,824.8,256.5z"/>
		<path d="M833.2,256.5c-0.5,0-0.9-0.1-1.2-0.2c-0.4-0.1-0.7-0.3-1-0.4c-0.3-0.2-0.5-0.4-0.7-0.7s-0.3-0.5-0.4-0.8
			c-0.1-0.4-0.2-0.8-0.3-1.2s-0.1-0.9-0.1-1.4c0-0.7,0-1.3,0.1-1.8s0.2-1,0.4-1.4c0.2-0.4,0.4-0.7,0.6-0.9c0.3-0.3,0.6-0.5,1-0.7
			c0.4-0.2,0.9-0.3,1.5-0.3c0.5,0,1,0.1,1.4,0.2s0.7,0.3,1,0.6c0.4,0.4,0.7,0.9,0.8,1.5c0.1,0.6,0.2,1.3,0.2,2.2v0.8h-5.7v0.2
			c0,0.6,0.1,1.1,0.2,1.5c0.1,0.4,0.3,0.7,0.5,1c0.2,0.2,0.5,0.4,0.8,0.5s0.6,0.1,1,0.1c0.4,0,0.7-0.1,1-0.2
			c0.3-0.1,0.5-0.3,0.7-0.5s0.3-0.3,0.4-0.5l1,0.6c-0.2,0.4-0.5,0.7-0.8,0.9c-0.3,0.3-0.7,0.4-1.1,0.5
			C834.1,256.4,833.7,256.5,833.2,256.5z M830.8,251h4.4c0-0.9-0.1-1.6-0.3-2.1c-0.2-0.5-0.5-0.8-0.8-0.9s-0.7-0.2-1-0.2
			c-0.3,0-0.6,0-0.9,0.1c-0.3,0.1-0.5,0.3-0.7,0.5c-0.2,0.2-0.4,0.6-0.5,1C830.9,249.9,830.9,250.4,830.8,251z"/>
		<path d="M838.5,256.2v-9.1h1.3v2c0.2-0.5,0.5-1,0.9-1.3s0.7-0.5,1.1-0.6s0.6-0.1,0.9-0.1h0.2v1.3h-0.3c-0.5,0-1,0.1-1.3,0.4
			c-0.4,0.3-0.6,0.6-0.8,1s-0.3,0.8-0.4,1.2s-0.1,0.8-0.1,1.2v4.2H838.5z"/>
		<path d="M653.4,264.8v-1.5h1.3v1.5H653.4z M653.4,276.2v-9.1h1.3v9.1H653.4z"/>
		<path d="M657,276.2v-9.1h1.3v1.3c0.4-0.6,0.8-1,1.3-1.2s1-0.4,1.6-0.4c0.5,0,1,0.1,1.4,0.3c0.4,0.2,0.7,0.6,0.9,1
			c0.2,0.4,0.3,0.9,0.3,1.4v6.7h-1.3V270c0-0.7-0.1-1.2-0.4-1.5s-0.7-0.5-1.3-0.5c-0.4,0-0.7,0.1-1,0.2s-0.6,0.4-0.8,0.7
			c-0.2,0.3-0.4,0.6-0.5,0.9c-0.1,0.3-0.2,0.7-0.2,1v5.4H657z"/>
		<path d="M673.5,276.5c-0.3,0-0.7,0-1-0.1c-0.3-0.1-0.6-0.2-0.8-0.5c-0.2-0.2-0.4-0.5-0.6-0.8s-0.2-0.8-0.2-1.3v-6.7h1.3v6.2
			c0,0.4,0,0.7,0.1,0.9c0.1,0.3,0.2,0.5,0.3,0.6s0.3,0.3,0.6,0.4s0.5,0.1,0.8,0.1c0.4,0,0.7-0.1,1-0.2s0.6-0.4,0.8-0.6
			c0.2-0.3,0.4-0.6,0.5-0.9s0.2-0.7,0.2-1v-5.4h1.3v9.1h-1.3v-1.3c-0.4,0.6-0.8,1-1.3,1.2S674.1,276.5,673.5,276.5z"/>
		<path d="M680.1,276.2v-9.1h1.3v1.3c0.4-0.6,0.8-1,1.3-1.2s1-0.4,1.6-0.4c0.5,0,1,0.1,1.4,0.3c0.4,0.2,0.7,0.6,0.9,1
			c0.2,0.4,0.3,0.9,0.3,1.4v6.7h-1.3V270c0-0.7-0.1-1.2-0.4-1.5s-0.7-0.5-1.3-0.5c-0.4,0-0.7,0.1-1,0.2s-0.6,0.4-0.8,0.7
			c-0.2,0.3-0.4,0.6-0.5,0.9c-0.1,0.3-0.2,0.7-0.2,1v5.4H680.1z"/>
		<path d="M692.3,276.5c-0.5,0-0.9-0.1-1.2-0.2s-0.7-0.2-1-0.4c-0.5-0.4-0.9-0.8-1.1-1.4l1.1-0.5c0.2,0.3,0.3,0.6,0.6,0.8
			c0.2,0.2,0.5,0.4,0.8,0.5c0.3,0.1,0.6,0.1,0.9,0.1c0.4,0,0.8-0.1,1.1-0.2c0.3-0.1,0.5-0.3,0.7-0.5c0.1-0.2,0.2-0.5,0.2-0.8
			c0-0.3-0.1-0.6-0.2-0.8s-0.4-0.4-0.7-0.5c-0.6-0.2-1-0.4-1.2-0.4c-0.2-0.1-0.4-0.1-0.5-0.2c-0.5-0.2-0.9-0.4-1.2-0.6
			s-0.6-0.4-0.7-0.6s-0.3-0.4-0.3-0.7c-0.1-0.2-0.1-0.5-0.1-0.7c0-0.2,0-0.4,0.1-0.6c0-0.2,0.1-0.5,0.2-0.7c0.2-0.3,0.4-0.5,0.6-0.7
			c0.3-0.2,0.6-0.4,1-0.5s0.8-0.1,1.2-0.1c0.7,0,1.4,0.1,1.9,0.4s0.9,0.7,1.2,1.3l-1,0.5c-0.1-0.3-0.3-0.5-0.4-0.6s-0.3-0.3-0.5-0.4
			s-0.3-0.2-0.5-0.2s-0.4-0.1-0.6-0.1c-0.3,0-0.6,0-0.9,0.1c-0.2,0.1-0.5,0.2-0.6,0.3c-0.1,0.1-0.2,0.3-0.3,0.4s-0.1,0.4-0.1,0.6
			c0,0.2,0.1,0.4,0.2,0.6s0.3,0.3,0.5,0.5c0.2,0.1,0.5,0.3,0.8,0.4c0.3,0.1,0.7,0.3,1.2,0.4c0.7,0.2,1.2,0.4,1.5,0.7
			c0.3,0.2,0.5,0.4,0.6,0.6c0.1,0.1,0.2,0.3,0.2,0.5s0.1,0.5,0.1,0.8c0,0.4-0.1,0.7-0.2,0.9s-0.3,0.5-0.4,0.7
			c-0.3,0.3-0.6,0.6-1.2,0.7S692.7,276.5,692.3,276.5z"/>
		<path d="M700.7,276.5c-0.5,0-0.9-0.1-1.2-0.2c-0.4-0.1-0.7-0.3-1-0.4c-0.3-0.2-0.5-0.4-0.7-0.7s-0.3-0.5-0.4-0.8
			c-0.1-0.4-0.2-0.8-0.3-1.2s-0.1-0.9-0.1-1.4c0-0.7,0-1.3,0.1-1.8s0.2-1,0.4-1.4c0.2-0.4,0.4-0.7,0.6-0.9c0.3-0.3,0.6-0.5,1-0.7
			c0.4-0.2,0.9-0.3,1.5-0.3c0.5,0,1,0.1,1.4,0.2s0.7,0.3,1,0.6c0.4,0.4,0.7,0.9,0.8,1.5c0.1,0.6,0.2,1.3,0.2,2.2v0.8h-5.7v0.2
			c0,0.6,0.1,1.1,0.2,1.5c0.1,0.4,0.3,0.7,0.5,1c0.2,0.2,0.5,0.4,0.8,0.5s0.6,0.1,1,0.1c0.4,0,0.7-0.1,1-0.2
			c0.3-0.1,0.5-0.3,0.7-0.5s0.3-0.3,0.4-0.5l1,0.6c-0.2,0.4-0.5,0.7-0.8,0.9c-0.3,0.3-0.7,0.4-1.1,0.5
			C701.6,276.4,701.2,276.5,700.7,276.5z M698.4,271h4.4c0-0.9-0.1-1.6-0.3-2.1c-0.2-0.5-0.5-0.8-0.8-0.9s-0.7-0.2-1-0.2
			c-0.3,0-0.6,0-0.9,0.1c-0.3,0.1-0.5,0.3-0.7,0.5c-0.2,0.2-0.4,0.6-0.5,1C698.4,269.9,698.4,270.4,698.4,271z"/>
		<path d="M706,276.2v-9.1h1.3v2c0.2-0.5,0.5-1,0.9-1.3s0.7-0.5,1.1-0.6s0.6-0.1,0.9-0.1h0.2v1.3H710c-0.5,0-1,0.1-1.3,0.4
			c-0.4,0.3-0.6,0.6-0.8,1s-0.3,0.8-0.4,1.2s-0.1,0.8-0.1,1.2v4.2H706z"/>
		<path d="M714.7,276.5c-0.5,0-0.9-0.1-1.2-0.2c-0.4-0.1-0.7-0.3-1-0.4c-0.3-0.2-0.5-0.4-0.7-0.7s-0.3-0.5-0.4-0.8
			c-0.1-0.4-0.2-0.8-0.3-1.2s-0.1-0.9-0.1-1.4c0-0.7,0-1.3,0.1-1.8s0.2-1,0.4-1.4c0.2-0.4,0.4-0.7,0.6-0.9c0.3-0.3,0.6-0.5,1-0.7
			c0.4-0.2,0.9-0.3,1.5-0.3c0.5,0,1,0.1,1.4,0.2s0.7,0.3,1,0.6c0.4,0.4,0.7,0.9,0.8,1.5c0.1,0.6,0.2,1.3,0.2,2.2v0.8h-5.7v0.2
			c0,0.6,0.1,1.1,0.2,1.5c0.1,0.4,0.3,0.7,0.5,1c0.2,0.2,0.5,0.4,0.8,0.5s0.6,0.1,1,0.1c0.4,0,0.7-0.1,1-0.2
			c0.3-0.1,0.5-0.3,0.7-0.5s0.3-0.3,0.4-0.5l1,0.6c-0.2,0.4-0.5,0.7-0.8,0.9c-0.3,0.3-0.7,0.4-1.1,0.5
			C715.6,276.4,715.1,276.5,714.7,276.5z M712.3,271h4.4c0-0.9-0.1-1.6-0.3-2.1c-0.2-0.5-0.5-0.8-0.8-0.9s-0.7-0.2-1-0.2
			c-0.3,0-0.6,0-0.9,0.1c-0.3,0.1-0.5,0.3-0.7,0.5c-0.2,0.2-0.4,0.6-0.5,1C712.4,269.9,712.4,270.4,712.3,271z"/>
		<path d="M720,276.2v-9.1h1.3v2c0.2-0.5,0.5-1,0.9-1.3s0.7-0.5,1.1-0.6s0.6-0.1,0.9-0.1h0.2v1.3H724c-0.5,0-1,0.1-1.3,0.4
			c-0.4,0.3-0.6,0.6-0.8,1s-0.3,0.8-0.4,1.2s-0.1,0.8-0.1,1.2v4.2H720z"/>
		<path d="M734.2,276.5c-0.6,0-1.1-0.1-1.6-0.2s-0.9-0.3-1.2-0.5c-0.4-0.2-0.7-0.5-0.9-0.8s-0.5-0.7-0.6-1.1l1.3-0.6
			c0.1,0.3,0.3,0.6,0.5,0.8s0.4,0.5,0.6,0.7s0.5,0.3,0.8,0.4c0.3,0.1,0.7,0.2,1.1,0.2c0.4,0,0.8-0.1,1.2-0.2s0.7-0.3,1-0.6
			c0.2-0.2,0.3-0.4,0.4-0.6c0.1-0.2,0.2-0.5,0.2-0.9c0-0.4-0.1-0.7-0.2-1c-0.1-0.3-0.3-0.5-0.5-0.6c-0.2-0.1-0.4-0.3-0.6-0.4
			c-0.1-0.1-0.3-0.1-0.5-0.2c-0.2-0.1-0.5-0.2-0.7-0.3s-0.5-0.2-0.7-0.3c-0.2-0.1-0.4-0.1-0.4-0.2c-0.7-0.3-1.2-0.5-1.6-0.8
			s-0.7-0.5-0.9-0.8c-0.2-0.3-0.4-0.6-0.5-0.9s-0.1-0.7-0.1-1c0-0.2,0-0.4,0-0.6c0-0.2,0.1-0.4,0.2-0.7s0.2-0.6,0.5-0.9
			c0.2-0.3,0.5-0.6,0.9-0.8c0.4-0.2,0.8-0.4,1.2-0.5c0.4-0.1,0.9-0.1,1.4-0.1c1,0,1.8,0.2,2.4,0.6c0.6,0.4,1.1,0.9,1.5,1.7l-1.2,0.6
			c-0.2-0.5-0.5-0.9-0.8-1.1s-0.7-0.4-1-0.5c-0.3-0.1-0.7-0.1-1-0.1c-0.5,0-0.9,0.1-1.3,0.2c-0.4,0.1-0.7,0.3-0.9,0.6
			c-0.2,0.2-0.3,0.5-0.4,0.7s-0.1,0.5-0.1,0.9c0,0.3,0.1,0.6,0.2,0.9s0.4,0.5,0.7,0.7s0.7,0.4,1.1,0.6c0.4,0.2,0.9,0.3,1.4,0.5
			c0.8,0.3,1.3,0.5,1.8,0.8s0.8,0.5,0.9,0.7c0.2,0.2,0.3,0.3,0.4,0.5c0.2,0.3,0.3,0.6,0.3,0.9c0.1,0.3,0.1,0.6,0.1,0.9
			c0,0.7-0.2,1.3-0.5,1.9c-0.4,0.6-0.9,1-1.5,1.3C735.7,276.4,735,276.5,734.2,276.5z"/>
		<path d="M743.2,276.3c-0.5,0-1-0.1-1.3-0.2s-0.6-0.3-0.8-0.6c-0.2-0.3-0.3-0.6-0.4-0.9c-0.1-0.4-0.1-0.8-0.1-1.2v-5.3h-1.2v-1h1.2
			v-2.5h1.3v2.5h1.9v1H742v5.3c0,0.3,0,0.6,0,0.8s0.1,0.4,0.2,0.6s0.2,0.3,0.4,0.4s0.4,0.1,0.8,0.1c0.2,0,0.4,0,0.6-0.1v1.1
			C743.8,276.3,743.5,276.3,743.2,276.3z"/>
		<path d="M747.8,276.4c-0.2,0-0.5,0-0.7-0.1c-0.2,0-0.4-0.1-0.6-0.2s-0.4-0.2-0.5-0.3c-0.2-0.1-0.3-0.3-0.4-0.4
			c-0.2-0.3-0.3-0.5-0.4-0.8c-0.1-0.3-0.2-0.7-0.2-1c0-0.3,0-0.7,0.1-0.9c0.1-0.3,0.2-0.5,0.4-0.7c0.3-0.4,0.6-0.6,1.1-0.8
			s1-0.3,1.7-0.3h2.3v-1.2c0-0.5-0.1-0.9-0.4-1.2s-0.5-0.5-0.8-0.5c-0.3-0.1-0.6-0.1-0.8-0.1c-0.6,0-1,0.1-1.4,0.3s-0.6,0.5-0.8,0.9
			l-1.1-0.4c0.2-0.6,0.6-1.1,1.2-1.4s1.3-0.5,2.2-0.5c0.6,0,1.1,0.1,1.5,0.2c0.4,0.1,0.8,0.4,1.1,0.7c0.2,0.3,0.4,0.6,0.5,0.9
			s0.2,0.7,0.2,1.1v6.5h-1.3v-0.9c-0.3,0.3-0.6,0.6-0.9,0.7s-0.6,0.3-1,0.4S748.1,276.4,747.8,276.4z M748.2,275.4
			c0.5,0,0.9-0.1,1.3-0.3s0.7-0.5,0.8-0.8s0.3-0.6,0.3-0.9v-1.5h-1.9c-0.4,0-0.8,0-1.1,0.1s-0.6,0.2-0.7,0.3s-0.3,0.3-0.4,0.6
			s-0.1,0.5-0.1,0.7c0,0.3,0,0.5,0.1,0.7s0.2,0.4,0.3,0.5C747,275.2,747.5,275.4,748.2,275.4z"/>
		<path d="M754.3,276.2v-13h1.3v5.1c0.4-0.6,0.8-1,1.3-1.2s1-0.4,1.6-0.4c0.5,0,1,0.1,1.4,0.3c0.4,0.2,0.7,0.6,0.9,1
			c0.2,0.4,0.3,0.9,0.3,1.4v6.7h-1.3V270c0-0.7-0.1-1.2-0.4-1.5s-0.7-0.5-1.3-0.5c-0.4,0-0.7,0.1-1,0.2s-0.6,0.4-0.8,0.7
			c-0.2,0.3-0.4,0.6-0.5,0.9c-0.1,0.3-0.2,0.7-0.2,1v5.4H754.3z"/>
		<path d="M763.5,276.2v-13h1.3v13H763.5z"/>
		<path d="M767.2,279.7v-12.6h1.3v1.2c0.6-1,1.5-1.5,2.8-1.5c0.6,0,1.1,0.1,1.6,0.4s0.8,0.6,1.1,1.1c0.2,0.4,0.3,0.8,0.4,1.4
			s0.1,1.2,0.1,1.9c0,0.7,0,1.2-0.1,1.7c-0.1,0.5-0.2,0.9-0.3,1.3c-0.2,0.5-0.5,0.9-0.8,1.2s-0.7,0.5-1,0.6s-0.7,0.1-0.9,0.1
			c-0.6,0-1.1-0.1-1.5-0.3c-0.4-0.2-0.8-0.5-1.2-0.9v4.4H767.2z M770.8,275.4c0.6,0,1.1-0.2,1.4-0.5s0.6-0.8,0.7-1.3
			c0-0.2,0.1-0.5,0.1-0.9s0.1-0.8,0.1-1.1c0-0.4,0-0.7,0-1.1c0-0.3-0.1-0.7-0.2-1c-0.1-0.4-0.2-0.7-0.4-0.9s-0.4-0.4-0.7-0.5
			c-0.3-0.1-0.6-0.2-0.9-0.2c-0.3,0-0.6,0.1-0.9,0.2s-0.5,0.3-0.8,0.5c-0.2,0.2-0.4,0.5-0.5,0.8c-0.1,0.3-0.2,0.7-0.2,1.1v2.2
			c0,0.4,0.1,0.7,0.2,1.1s0.3,0.6,0.5,0.8c0.2,0.2,0.4,0.4,0.7,0.5S770.5,275.4,770.8,275.4z"/>
		<path d="M776.5,276.2v-9.1h1.3v2c0.2-0.5,0.5-1,0.9-1.3s0.7-0.5,1.1-0.6s0.6-0.1,0.9-0.1h0.2v1.3h-0.3c-0.5,0-1,0.1-1.3,0.4
			c-0.4,0.3-0.6,0.6-0.8,1s-0.3,0.8-0.4,1.2s-0.1,0.8-0.1,1.2v4.2H776.5z"/>
		<path d="M785.1,276.5c-0.5,0-0.9-0.1-1.3-0.2c-0.4-0.1-0.7-0.3-1-0.5c-0.3-0.2-0.5-0.4-0.7-0.7c-0.2-0.3-0.3-0.6-0.4-0.9
			c-0.1-0.4-0.2-0.8-0.3-1.3s-0.1-0.9-0.1-1.3s0-0.8,0.1-1.3s0.1-0.9,0.3-1.3c0.2-0.6,0.4-1,0.8-1.4s0.7-0.6,1.2-0.7
			c0.4-0.1,0.9-0.2,1.4-0.2c0.7,0,1.2,0.1,1.7,0.4s0.9,0.5,1.1,0.9c0.2,0.4,0.4,0.7,0.5,1c0.1,0.4,0.2,0.8,0.3,1.3
			c0,0.4,0.1,0.9,0.1,1.3s0,0.8-0.1,1.3s-0.1,0.9-0.3,1.3c-0.2,0.5-0.5,1-0.8,1.3s-0.7,0.6-1.2,0.7
			C786,276.4,785.6,276.5,785.1,276.5z M785.1,275.4c0.4,0,0.8-0.1,1.1-0.3c0.3-0.2,0.6-0.5,0.8-0.9c0.1-0.3,0.2-0.7,0.3-1
			c0.1-0.4,0.1-0.9,0.1-1.5s0-1.1-0.1-1.4c-0.1-0.3-0.2-0.7-0.3-1.1c-0.1-0.3-0.3-0.5-0.5-0.7s-0.5-0.3-0.7-0.4
			c-0.3-0.1-0.5-0.1-0.7-0.1c-0.4,0-0.8,0.1-1.1,0.3s-0.6,0.5-0.8,0.9c-0.2,0.4-0.3,0.8-0.3,1.1s-0.1,0.8-0.1,1.4
			c0,0.7,0,1.2,0.1,1.5c0.1,0.3,0.2,0.7,0.3,1c0.2,0.4,0.4,0.7,0.8,0.9S784.7,275.4,785.1,275.4z"/>
		<path d="M793.7,276.5c-0.3,0-0.6,0-0.8-0.1s-0.5-0.2-0.8-0.3c-0.2-0.2-0.5-0.4-0.7-0.6s-0.4-0.6-0.5-1c-0.1-0.4-0.2-0.8-0.3-1.2
			s-0.1-1-0.1-1.6c0-0.7,0.1-1.4,0.2-1.9c0.1-0.5,0.3-1,0.5-1.4c0.3-0.5,0.6-0.9,1.1-1.1c0.4-0.2,1-0.4,1.6-0.4
			c0.5,0,0.9,0.1,1.2,0.2c0.4,0.1,0.6,0.3,0.9,0.5c0.2,0.2,0.4,0.4,0.6,0.6v-4.8h1.3v13h-1.3V275c-0.3,0.5-0.7,0.9-1.1,1.1
			S794.3,276.5,793.7,276.5z M794.1,275.4c0.5,0,1-0.1,1.3-0.4c0.4-0.3,0.6-0.6,0.8-1s0.2-0.8,0.2-1.2v-2.2c0-0.6-0.1-1.1-0.4-1.5
			s-0.6-0.7-1-0.8s-0.7-0.2-1-0.2c-0.5,0-0.8,0.1-1.1,0.3c-0.3,0.2-0.5,0.4-0.6,0.7s-0.2,0.5-0.2,0.7c-0.1,0.3-0.1,0.6-0.2,1
			c0,0.3,0,0.7,0,1.1c0,0.4,0,0.8,0.1,1.2s0.1,0.6,0.1,0.8c0.1,0.3,0.1,0.5,0.3,0.7s0.3,0.4,0.4,0.6s0.4,0.3,0.6,0.4
			C793.6,275.3,793.8,275.4,794.1,275.4z"/>
		<path d="M802.8,276.5c-0.3,0-0.7,0-1-0.1c-0.3-0.1-0.6-0.2-0.8-0.5c-0.2-0.2-0.4-0.5-0.6-0.8s-0.2-0.8-0.2-1.3v-6.7h1.3v6.2
			c0,0.4,0,0.7,0.1,0.9c0.1,0.3,0.2,0.5,0.3,0.6s0.3,0.3,0.6,0.4s0.5,0.1,0.8,0.1c0.4,0,0.7-0.1,1-0.2s0.6-0.4,0.8-0.6
			c0.2-0.3,0.4-0.6,0.5-0.9s0.2-0.7,0.2-1v-5.4h1.3v9.1h-1.3v-1.3c-0.4,0.6-0.8,1-1.3,1.2S803.4,276.5,802.8,276.5z"/>
		<path d="M809.4,276.2v-13h1.3v7.6l3.7-3.8h1.5l-2.9,3l3.1,6.1h-1.5l-2.6-5.1l-1.3,1.4v3.7H809.4z"/>
		<path d="M820.1,276.3c-0.5,0-1-0.1-1.3-0.2s-0.6-0.3-0.8-0.6c-0.2-0.3-0.3-0.6-0.4-0.9c-0.1-0.4-0.1-0.8-0.1-1.2v-5.3h-1.2v-1h1.2
			v-2.5h1.3v2.5h1.9v1h-1.9v5.3c0,0.3,0,0.6,0,0.8s0.1,0.4,0.2,0.6s0.2,0.3,0.4,0.4s0.4,0.1,0.8,0.1c0.2,0,0.4,0,0.6-0.1v1.1
			C820.6,276.3,820.4,276.3,820.1,276.3z"/>
		<path d="M822.2,264.8v-1.5h1.3v1.5H822.2z M822.2,276.2v-9.1h1.3v9.1H822.2z"/>
		<path d="M829.3,276.5c-0.5,0-0.9-0.1-1.3-0.2c-0.4-0.1-0.7-0.3-1-0.5c-0.3-0.2-0.5-0.4-0.7-0.7c-0.2-0.3-0.3-0.6-0.4-0.9
			c-0.1-0.4-0.2-0.8-0.3-1.3s-0.1-0.9-0.1-1.3s0-0.8,0.1-1.3s0.1-0.9,0.3-1.3c0.2-0.6,0.4-1,0.8-1.4s0.7-0.6,1.2-0.7
			c0.4-0.1,0.9-0.2,1.4-0.2c0.7,0,1.2,0.1,1.7,0.4s0.9,0.5,1.1,0.9c0.2,0.4,0.4,0.7,0.5,1c0.1,0.4,0.2,0.8,0.3,1.3
			c0,0.4,0.1,0.9,0.1,1.3s0,0.8-0.1,1.3s-0.1,0.9-0.3,1.3c-0.2,0.5-0.5,1-0.8,1.3s-0.7,0.6-1.2,0.7
			C830.2,276.4,829.7,276.5,829.3,276.5z M829.3,275.4c0.4,0,0.8-0.1,1.1-0.3c0.3-0.2,0.6-0.5,0.8-0.9c0.1-0.3,0.2-0.7,0.3-1
			c0.1-0.4,0.1-0.9,0.1-1.5s0-1.1-0.1-1.4c-0.1-0.3-0.2-0.7-0.3-1.1c-0.1-0.3-0.3-0.5-0.5-0.7s-0.5-0.3-0.7-0.4
			c-0.3-0.1-0.5-0.1-0.7-0.1c-0.4,0-0.8,0.1-1.1,0.3s-0.6,0.5-0.8,0.9c-0.2,0.4-0.3,0.8-0.3,1.1s-0.1,0.8-0.1,1.4
			c0,0.7,0,1.2,0.1,1.5c0.1,0.3,0.2,0.7,0.3,1c0.2,0.4,0.4,0.7,0.8,0.9S828.8,275.4,829.3,275.4z"/>
		<path d="M835,276.2v-9.1h1.3v1.3c0.4-0.6,0.8-1,1.3-1.2s1-0.4,1.6-0.4c0.5,0,1,0.1,1.4,0.3c0.4,0.2,0.7,0.6,0.9,1
			c0.2,0.4,0.3,0.9,0.3,1.4v6.7h-1.3V270c0-0.7-0.1-1.2-0.4-1.5s-0.7-0.5-1.3-0.5c-0.4,0-0.7,0.1-1,0.2s-0.6,0.4-0.8,0.7
			c-0.2,0.3-0.4,0.6-0.5,0.9c-0.1,0.3-0.2,0.7-0.2,1v5.4H835z"/>
	</g>
	<g>
		<path d="M57,197.4c-2.1,0-3.9-0.3-5.4-0.8c-1.5-0.5-2.7-1.4-3.7-2.4c-0.7-0.8-1.2-1.6-1.6-2.7c-0.4-1-0.7-2.2-0.9-3.5l6.7-1.4
			c0.4,1.6,0.7,2.7,1.1,3.3c0.4,0.6,0.8,1,1.5,1.3s1.5,0.5,2.5,0.5c0.7,0,1.3-0.1,1.8-0.3c0.5-0.2,1-0.5,1.4-0.9
			c0.7-0.7,1.3-1.6,1.8-2.9c0.4-1.2,0.7-2.5,0.8-3.7c0.1-1.2,0.2-2.2,0.2-3c-1,1-2.1,1.7-3.3,2.2c-1.2,0.5-2.6,0.7-4.3,0.7
			c-1.7,0-3.1-0.2-4.4-0.6c-1.2-0.4-2.3-1.1-3.1-1.9c-1.1-1.1-1.9-2.4-2.5-4.1c-0.5-1.7-0.8-3.7-0.8-6.1c0-2.6,0.3-4.8,0.8-6.6
			c0.6-1.9,1.5-3.4,2.7-4.6c1-0.9,2.2-1.7,3.7-2.1s3.2-0.7,5.2-0.7c1.8,0,3.3,0.2,4.7,0.6c1.3,0.4,2.4,1,3.4,1.8
			c1.4,1.2,2.5,2.8,3.3,4.9c0.8,2.1,1.2,4.2,1.4,6.5c0.1,2.3,0.2,4.3,0.2,6.1c0,3.1-0.1,5.8-0.4,8c-0.3,2.2-0.8,4.2-1.6,5.9
			c-0.8,1.7-1.7,3-2.8,4c-1,0.8-2.1,1.5-3.5,2C60.5,197.2,58.9,197.4,57,197.4z M56.8,178.4c1.5,0,2.7-0.5,3.7-1.4s1.6-1.9,1.9-3.1
			c0.3-1.1,0.4-2.2,0.4-3.1c0-1.2-0.1-2.4-0.3-3.4s-0.5-1.9-1-2.6c-0.4-0.7-1-1.3-1.7-1.7c-0.7-0.4-1.6-0.6-2.6-0.6
			c-1.5,0-2.6,0.4-3.3,1.2c-0.8,0.8-1.3,1.8-1.5,3.1c-0.2,1.2-0.3,2.4-0.3,3.6c0,1.5,0.1,2.7,0.3,3.7c0.2,1,0.5,1.8,1,2.4
			c0.4,0.6,0.9,1.1,1.5,1.3C55.3,178.3,56,178.4,56.8,178.4z"/>
		<path d="M88.2,197.4c-2.1,0-3.9-0.3-5.4-0.8c-1.5-0.5-2.7-1.4-3.7-2.4c-0.7-0.8-1.2-1.6-1.6-2.7c-0.4-1-0.7-2.2-0.9-3.5l6.7-1.4
			c0.4,1.6,0.7,2.7,1.1,3.3c0.4,0.6,0.8,1,1.5,1.3s1.5,0.5,2.5,0.5c0.7,0,1.3-0.1,1.8-0.3c0.5-0.2,1-0.5,1.4-0.9
			c0.7-0.7,1.3-1.6,1.8-2.9c0.4-1.2,0.7-2.5,0.8-3.7c0.1-1.2,0.2-2.2,0.2-3c-1,1-2.1,1.7-3.3,2.2c-1.2,0.5-2.6,0.7-4.3,0.7
			c-1.7,0-3.1-0.2-4.4-0.6c-1.2-0.4-2.3-1.1-3.1-1.9c-1.1-1.1-1.9-2.4-2.5-4.1c-0.5-1.7-0.8-3.7-0.8-6.1c0-2.6,0.3-4.8,0.8-6.6
			c0.6-1.9,1.5-3.4,2.7-4.6c1-0.9,2.2-1.7,3.7-2.1s3.2-0.7,5.2-0.7c1.8,0,3.3,0.2,4.7,0.6c1.3,0.4,2.4,1,3.4,1.8
			c1.4,1.2,2.5,2.8,3.3,4.9c0.8,2.1,1.2,4.2,1.4,6.5c0.1,2.3,0.2,4.3,0.2,6.1c0,3.1-0.1,5.8-0.4,8c-0.3,2.2-0.8,4.2-1.6,5.9
			c-0.8,1.7-1.7,3-2.8,4c-1,0.8-2.1,1.5-3.5,2C91.6,197.2,90,197.4,88.2,197.4z M87.9,178.4c1.5,0,2.7-0.5,3.7-1.4s1.6-1.9,1.9-3.1
			c0.3-1.1,0.4-2.2,0.4-3.1c0-1.2-0.1-2.4-0.3-3.4s-0.5-1.9-1-2.6c-0.4-0.7-1-1.3-1.7-1.7c-0.7-0.4-1.6-0.6-2.6-0.6
			c-1.5,0-2.6,0.4-3.3,1.2c-0.8,0.8-1.3,1.8-1.5,3.1c-0.2,1.2-0.3,2.4-0.3,3.6c0,1.5,0.1,2.7,0.3,3.7c0.2,1,0.5,1.8,1,2.4
			c0.4,0.6,0.9,1.1,1.5,1.3C86.5,178.3,87.1,178.4,87.9,178.4z"/>
		<path d="M109.2,179.5c-0.7-0.5-1.3-1.2-1.8-1.9s-0.8-1.6-1.1-2.5s-0.4-1.9-0.5-2.9s-0.1-2.1-0.1-3.2c0-1.1,0.1-2.3,0.2-3.5
			s0.4-2.5,1-3.8s1.3-2.3,2.4-3.1c0.7-0.5,1.6-0.9,2.6-1.2c1-0.3,2.1-0.4,3.5-0.4c1.4,0,2.5,0.1,3.5,0.4c1,0.3,1.8,0.7,2.6,1.2
			c0.7,0.5,1.4,1.3,1.9,2.2c0.6,1,1,2.1,1.2,3.4c0.2,1.3,0.4,2.9,0.4,4.8c0,1.1-0.1,2.3-0.2,3.6c-0.1,1.3-0.4,2.5-0.9,3.7
			c-0.5,1.2-1.2,2.1-2.1,2.9c-0.8,0.7-1.7,1.2-2.8,1.5s-2.3,0.5-3.6,0.5c-1.3,0-2.5-0.1-3.5-0.4C110.7,180.4,109.9,180,109.2,179.5z
			 M117.2,175.9c0.4-0.3,0.7-1,1-1.9c0.3-0.9,0.4-2.6,0.4-5c0-1.3-0.1-2.5-0.2-3.5c-0.1-1-0.3-1.8-0.5-2.2c-0.2-0.5-0.4-0.8-0.7-1.1
			c-0.5-0.4-1.1-0.6-2-0.6c-0.9,0-1.5,0.2-2,0.6c-0.4,0.4-0.8,1-1,2c-0.3,0.9-0.4,2.6-0.4,4.9c0,1.4,0,2.5,0.1,3.3
			c0.1,0.9,0.2,1.5,0.4,2c0.1,0.5,0.3,0.8,0.5,1.1c0.2,0.2,0.3,0.4,0.5,0.5c0.2,0.2,0.5,0.3,0.8,0.5c0.3,0.1,0.7,0.2,1.2,0.2
			c0.5,0,0.9-0.1,1.2-0.2S117,176.1,117.2,175.9z M119.3,197.4l13.6-40.5h6l-13.6,40.5H119.3z M136.9,195.7
			c-0.7-0.5-1.3-1.2-1.8-1.9c-0.5-0.7-0.8-1.6-1.1-2.5c-0.3-0.9-0.4-1.9-0.5-2.9c-0.1-1-0.1-2.1-0.1-3.2c0-1.1,0.1-2.3,0.2-3.5
			s0.4-2.5,1-3.8s1.3-2.3,2.4-3.1c0.7-0.5,1.6-0.9,2.6-1.2c1-0.3,2.1-0.4,3.5-0.4c1.3,0,2.5,0.1,3.5,0.4s1.8,0.7,2.6,1.2
			c0.7,0.5,1.4,1.3,1.9,2.2c0.6,1,1,2.1,1.2,3.4c0.3,1.3,0.4,2.9,0.4,4.8c0,1.1,0,2.3-0.1,3.5s-0.4,2.5-0.9,3.7s-1.2,2.2-2.2,3
			c-0.8,0.7-1.7,1.2-2.8,1.5c-1.1,0.3-2.2,0.5-3.6,0.5c-1.4,0-2.5-0.1-3.5-0.4C138.5,196.7,137.7,196.3,136.9,195.7z M145,192.2
			c0.4-0.4,0.8-1,1-1.9c0.3-0.9,0.4-2.6,0.4-5c0-1.3-0.1-2.5-0.2-3.6c-0.1-1-0.3-1.8-0.5-2.2c-0.2-0.4-0.4-0.8-0.7-1.1
			c-0.4-0.4-1.1-0.6-2-0.6c-0.9,0-1.6,0.2-2,0.6c-0.1,0.1-0.3,0.3-0.5,0.7c-0.2,0.3-0.4,1-0.6,2c-0.2,1-0.3,2.4-0.3,4.2
			c0,1.4,0,2.5,0.1,3.3c0.1,0.9,0.2,1.5,0.4,2c0.1,0.5,0.3,0.8,0.5,1.1c0.2,0.2,0.3,0.4,0.5,0.5c0.4,0.4,1.1,0.6,2,0.6
			C143.9,192.8,144.6,192.6,145,192.2z"/>
	</g>
	<g>
		<path d="M639,115.8c-0.6,0-1.1-0.1-1.6-0.2s-0.9-0.3-1.2-0.5c-0.4-0.2-0.7-0.5-0.9-0.8s-0.5-0.7-0.6-1.1l1.3-0.6
			c0.1,0.3,0.3,0.6,0.5,0.8s0.4,0.5,0.6,0.7s0.5,0.3,0.8,0.4c0.3,0.1,0.7,0.2,1.1,0.2c0.4,0,0.8-0.1,1.2-0.2s0.7-0.3,1-0.6
			c0.2-0.2,0.3-0.4,0.4-0.6c0.1-0.2,0.2-0.5,0.2-0.9c0-0.4-0.1-0.7-0.2-1c-0.1-0.3-0.3-0.5-0.5-0.6c-0.2-0.1-0.4-0.3-0.6-0.4
			c-0.1-0.1-0.3-0.1-0.5-0.2c-0.2-0.1-0.5-0.2-0.7-0.3s-0.5-0.2-0.7-0.3c-0.2-0.1-0.4-0.1-0.4-0.2c-0.7-0.3-1.2-0.5-1.6-0.8
			s-0.7-0.5-0.9-0.8c-0.2-0.3-0.4-0.6-0.5-0.9s-0.1-0.7-0.1-1c0-0.2,0-0.4,0-0.6c0-0.2,0.1-0.4,0.2-0.7s0.2-0.6,0.5-0.9
			c0.2-0.3,0.5-0.6,0.9-0.8c0.4-0.2,0.8-0.4,1.2-0.5c0.4-0.1,0.9-0.1,1.4-0.1c1,0,1.8,0.2,2.4,0.6c0.6,0.4,1.1,0.9,1.5,1.7l-1.2,0.6
			c-0.2-0.5-0.5-0.9-0.8-1.1s-0.7-0.4-1-0.5c-0.3-0.1-0.7-0.1-1-0.1c-0.5,0-0.9,0.1-1.3,0.2c-0.4,0.1-0.7,0.3-0.9,0.6
			c-0.2,0.2-0.3,0.5-0.4,0.7s-0.1,0.5-0.1,0.9c0,0.3,0.1,0.6,0.2,0.9s0.4,0.5,0.7,0.7s0.7,0.4,1.1,0.6c0.4,0.2,0.9,0.3,1.4,0.5
			c0.8,0.3,1.3,0.5,1.8,0.8s0.8,0.5,0.9,0.7c0.2,0.2,0.3,0.4,0.4,0.5c0.2,0.3,0.3,0.6,0.3,0.9c0.1,0.3,0.1,0.6,0.1,0.9
			c0,0.7-0.2,1.3-0.5,1.9c-0.4,0.6-0.9,1-1.5,1.3C640.5,115.6,639.8,115.8,639,115.8z"/>
		<path d="M648,115.6c-0.5,0-1-0.1-1.3-0.2s-0.6-0.3-0.8-0.6c-0.2-0.3-0.3-0.6-0.4-0.9c-0.1-0.4-0.1-0.8-0.1-1.2v-5.3h-1.2v-1h1.2
			v-2.5h1.3v2.5h1.9v1h-1.9v5.3c0,0.3,0,0.6,0,0.8s0.1,0.4,0.2,0.6s0.2,0.3,0.4,0.4s0.4,0.1,0.8,0.1c0.2,0,0.4,0,0.6-0.1v1.1
			C648.6,115.6,648.3,115.6,648,115.6z"/>
		<path d="M652.6,115.7c-0.2,0-0.5,0-0.7-0.1c-0.2,0-0.4-0.1-0.6-0.2s-0.4-0.2-0.5-0.3c-0.2-0.1-0.3-0.3-0.4-0.4
			c-0.2-0.3-0.3-0.5-0.4-0.8c-0.1-0.3-0.2-0.7-0.2-1c0-0.3,0-0.7,0.1-0.9c0.1-0.3,0.2-0.5,0.4-0.7c0.3-0.4,0.6-0.6,1.1-0.8
			s1-0.3,1.7-0.3h2.3v-1.2c0-0.5-0.1-0.9-0.4-1.2s-0.5-0.5-0.8-0.5c-0.3-0.1-0.6-0.1-0.8-0.1c-0.6,0-1,0.1-1.4,0.3s-0.6,0.5-0.8,0.9
			l-1.1-0.4c0.2-0.6,0.6-1.1,1.2-1.4s1.3-0.5,2.2-0.5c0.6,0,1.1,0.1,1.5,0.2c0.4,0.1,0.8,0.4,1.1,0.7c0.2,0.3,0.4,0.6,0.5,0.9
			s0.2,0.7,0.2,1.1v6.5h-1.3v-0.9c-0.3,0.3-0.6,0.6-0.9,0.7s-0.6,0.3-1,0.4S652.9,115.7,652.6,115.7z M653,114.6
			c0.5,0,0.9-0.1,1.3-0.3s0.7-0.5,0.8-0.8s0.3-0.6,0.3-0.9v-1.5h-1.9c-0.4,0-0.8,0-1.1,0.1s-0.6,0.2-0.7,0.3s-0.3,0.3-0.4,0.6
			s-0.1,0.5-0.1,0.7c0,0.3,0,0.5,0.1,0.7s0.2,0.4,0.3,0.5C651.8,114.4,652.3,114.6,653,114.6z"/>
		<path d="M659.1,115.5v-13h1.3v5.1c0.4-0.6,0.8-1,1.3-1.2s1-0.4,1.6-0.4c0.5,0,1,0.1,1.4,0.3c0.4,0.2,0.7,0.6,0.9,1
			c0.2,0.4,0.3,0.9,0.3,1.4v6.7h-1.3v-6.2c0-0.7-0.1-1.2-0.4-1.5s-0.7-0.5-1.3-0.5c-0.4,0-0.7,0.1-1,0.2s-0.6,0.4-0.8,0.7
			c-0.2,0.3-0.4,0.6-0.5,0.9c-0.1,0.3-0.2,0.7-0.2,1v5.4H659.1z"/>
		<path d="M668.3,115.5v-13h1.3v13H668.3z"/>
		<path d="M675.7,115.5v-1l4.5-7.1h-4.3v-1h5.7v1l-4.5,7.1h4.6v1H675.7z"/>
		<path d="M685.7,115.8c-0.3,0-0.7,0-1-0.1c-0.3-0.1-0.6-0.2-0.8-0.5c-0.2-0.2-0.4-0.5-0.6-0.8s-0.2-0.8-0.2-1.3v-6.7h1.3v6.2
			c0,0.4,0,0.7,0.1,0.9c0.1,0.3,0.2,0.5,0.3,0.6s0.3,0.3,0.6,0.4s0.5,0.1,0.8,0.1c0.4,0,0.7-0.1,1-0.2s0.6-0.4,0.8-0.6
			c0.2-0.3,0.4-0.6,0.5-0.9s0.2-0.7,0.2-1v-5.4h1.3v9.1h-1.3v-1.3c-0.4,0.6-0.8,1-1.3,1.2S686.3,115.8,685.7,115.8z"/>
		<path d="M698.4,115.5v-1.1h2v-10.1l-1.9,1.2l-0.6-1l2.9-1.8h1v11.7h1.9v1.1H698.4z"/>
		<path d="M710.1,115.8c-0.6,0-1.1-0.1-1.6-0.2c-0.4-0.2-0.8-0.4-1.1-0.7c-0.4-0.4-0.7-0.9-0.9-1.6c-0.2-0.7-0.3-1.3-0.4-2.1
			c0-0.7-0.1-1.4-0.1-2c0-1,0-2,0.1-2.7s0.2-1.4,0.5-1.8c0.2-0.5,0.5-0.8,0.7-1.1c0.3-0.3,0.7-0.5,1.1-0.7c0.4-0.2,1-0.2,1.6-0.2
			s1.1,0.1,1.6,0.2c0.4,0.2,0.8,0.4,1.1,0.7c0.4,0.4,0.7,0.9,0.9,1.6s0.3,1.3,0.4,2.1s0.1,1.4,0.1,2c0,1.1,0,2-0.1,2.7
			c-0.1,0.7-0.2,1.3-0.5,1.8s-0.5,0.9-0.7,1.1c-0.3,0.3-0.7,0.5-1.1,0.7C711.3,115.7,710.8,115.8,710.1,115.8z M710.1,114.7
			c0.3,0,0.6,0,0.9-0.1c0.3-0.1,0.5-0.2,0.7-0.4c0.3-0.3,0.5-0.7,0.6-1.2s0.3-1.1,0.3-1.8c0-0.7,0.1-1.3,0.1-2c0-1.1,0-1.9-0.1-2.6
			c-0.1-0.7-0.2-1.2-0.4-1.6s-0.3-0.6-0.5-0.8c-0.2-0.2-0.4-0.3-0.7-0.4c-0.3-0.1-0.5-0.1-0.9-0.1c-0.3,0-0.6,0-0.9,0.1
			s-0.5,0.2-0.7,0.4c-0.3,0.3-0.5,0.7-0.6,1.2s-0.3,1.1-0.3,1.8c0,0.7-0.1,1.4-0.1,2c0,1.1,0,2,0.1,2.6c0.1,0.7,0.2,1.2,0.4,1.5
			s0.3,0.6,0.5,0.8c0.2,0.2,0.4,0.3,0.7,0.4S709.8,114.7,710.1,114.7z"/>
		<path d="M719.7,115.8c-0.6,0-1.1-0.1-1.6-0.2c-0.4-0.2-0.8-0.4-1.1-0.7c-0.4-0.4-0.7-0.9-0.9-1.6c-0.2-0.7-0.3-1.3-0.4-2.1
			c0-0.7-0.1-1.4-0.1-2c0-1,0-2,0.1-2.7s0.2-1.4,0.5-1.8c0.2-0.5,0.5-0.8,0.7-1.1c0.3-0.3,0.7-0.5,1.1-0.7c0.4-0.2,1-0.2,1.6-0.2
			s1.1,0.1,1.6,0.2c0.4,0.2,0.8,0.4,1.1,0.7c0.4,0.4,0.7,0.9,0.9,1.6s0.3,1.3,0.4,2.1s0.1,1.4,0.1,2c0,1.1,0,2-0.1,2.7
			c-0.1,0.7-0.2,1.3-0.5,1.8s-0.5,0.9-0.7,1.1c-0.3,0.3-0.7,0.5-1.1,0.7C720.9,115.7,720.3,115.8,719.7,115.8z M719.7,114.7
			c0.3,0,0.6,0,0.9-0.1c0.3-0.1,0.5-0.2,0.7-0.4c0.3-0.3,0.5-0.7,0.6-1.2s0.3-1.1,0.3-1.8c0-0.7,0.1-1.3,0.1-2c0-1.1,0-1.9-0.1-2.6
			c-0.1-0.7-0.2-1.2-0.4-1.6s-0.3-0.6-0.5-0.8c-0.2-0.2-0.4-0.3-0.7-0.4c-0.3-0.1-0.5-0.1-0.9-0.1c-0.3,0-0.6,0-0.9,0.1
			s-0.5,0.2-0.7,0.4c-0.3,0.3-0.5,0.7-0.6,1.2s-0.3,1.1-0.3,1.8c0,0.7-0.1,1.4-0.1,2c0,1.1,0,2,0.1,2.6c0.1,0.7,0.2,1.2,0.4,1.5
			s0.3,0.6,0.5,0.8c0.2,0.2,0.4,0.3,0.7,0.4S719.4,114.7,719.7,114.7z"/>
		<path d="M727.7,110.1c-0.4,0-0.7,0-1-0.1c-0.3-0.1-0.5-0.2-0.7-0.4c-0.2-0.2-0.3-0.4-0.5-0.6c-0.1-0.2-0.2-0.5-0.3-0.7
			s-0.1-0.6-0.1-0.9s0-0.7,0-1s0-0.7,0-1.1s0.1-0.6,0.1-0.9s0.2-0.5,0.3-0.7c0.1-0.2,0.3-0.4,0.5-0.6c0.2-0.2,0.5-0.3,0.7-0.4
			c0.3-0.1,0.6-0.1,1-0.1c0.4,0,0.8,0,1,0.1c0.3,0.1,0.5,0.2,0.7,0.4c0.4,0.4,0.7,0.9,0.8,1.4c0.1,0.5,0.1,1.1,0.1,1.8
			c0,0.6,0,1.1-0.1,1.5c-0.1,0.4-0.2,0.8-0.3,1c-0.1,0.3-0.3,0.5-0.5,0.6c-0.2,0.2-0.5,0.3-0.7,0.4
			C728.4,110,728.1,110.1,727.7,110.1z M727.7,109.2c0.2,0,0.4,0,0.5-0.1s0.3-0.1,0.4-0.2c0.3-0.2,0.4-0.6,0.5-1.1s0.1-1,0.1-1.6
			c0-0.7,0-1.2-0.1-1.6s-0.1-0.6-0.2-0.8s-0.2-0.3-0.3-0.3c-0.1-0.1-0.3-0.2-0.4-0.2s-0.3-0.1-0.5-0.1c-0.2,0-0.4,0-0.5,0.1
			s-0.2,0.1-0.4,0.2c-0.3,0.2-0.5,0.6-0.5,1s-0.1,1-0.1,1.6c0,0.6,0,1.2,0.1,1.6s0.1,0.7,0.2,0.8c0.1,0.1,0.2,0.2,0.3,0.3
			c0.1,0.1,0.3,0.2,0.4,0.2C727.3,109.2,727.5,109.2,727.7,109.2z M729.1,115.8l4.2-13.3h1.1l-4.2,13.3H729.1z M735.7,115.8
			c-0.4,0-0.7,0-1-0.1s-0.5-0.2-0.7-0.4c-0.3-0.2-0.5-0.5-0.6-0.9s-0.2-0.7-0.2-1.1s0-0.8,0-1.2c0-0.6,0-1.1,0.1-1.6s0.2-0.8,0.3-1
			s0.3-0.5,0.5-0.6c0.2-0.2,0.5-0.3,0.7-0.4s0.6-0.1,1-0.1s0.7,0,1,0.1c0.3,0.1,0.5,0.2,0.8,0.4c0.4,0.4,0.6,0.9,0.7,1.4
			s0.1,1.2,0.1,1.8c0,0.6,0,1.1-0.1,1.5s-0.2,0.7-0.3,1c-0.1,0.3-0.3,0.5-0.5,0.7c-0.2,0.2-0.5,0.3-0.8,0.4
			C736.4,115.7,736.1,115.8,735.7,115.8z M735.7,114.9c0.2,0,0.4,0,0.5-0.1c0.1-0.1,0.3-0.1,0.4-0.2c0.3-0.2,0.4-0.6,0.5-1
			s0.1-1,0.1-1.6c0-0.7,0-1.2-0.1-1.6s-0.1-0.6-0.2-0.8c-0.1-0.2-0.2-0.3-0.3-0.3c-0.1-0.1-0.3-0.2-0.4-0.2s-0.3-0.1-0.5-0.1
			c-0.4,0-0.7,0.1-0.9,0.3c-0.3,0.2-0.4,0.6-0.5,1.1s-0.1,1-0.1,1.6c0,0.6,0,1.2,0.1,1.5c0.1,0.4,0.1,0.7,0.2,0.8
			c0.1,0.1,0.2,0.2,0.3,0.3c0.1,0.1,0.3,0.2,0.4,0.2S735.5,114.9,735.7,114.9z"/>
		<path d="M744.7,115.5v-9.1h1.3v2c0.2-0.5,0.5-1,0.9-1.3s0.7-0.5,1.1-0.6s0.6-0.1,0.9-0.1h0.2v1.3h-0.3c-0.5,0-1,0.1-1.3,0.4
			c-0.4,0.3-0.6,0.6-0.8,1s-0.3,0.8-0.4,1.2s-0.1,0.8-0.1,1.2v4.2H744.7z"/>
		<path d="M753.3,115.8c-0.5,0-0.9-0.1-1.2-0.2c-0.4-0.1-0.7-0.3-1-0.4c-0.3-0.2-0.5-0.4-0.7-0.7s-0.3-0.5-0.4-0.8
			c-0.1-0.4-0.2-0.8-0.3-1.2s-0.1-0.9-0.1-1.4c0-0.7,0-1.3,0.1-1.9s0.2-1,0.4-1.4c0.2-0.4,0.4-0.7,0.6-0.9c0.3-0.3,0.6-0.5,1-0.7
			c0.4-0.2,0.9-0.3,1.5-0.3c0.5,0,1,0.1,1.4,0.2s0.7,0.3,1,0.6c0.4,0.4,0.7,0.9,0.8,1.5c0.1,0.6,0.2,1.3,0.2,2.2v0.8h-5.7v0.2
			c0,0.6,0.1,1.1,0.2,1.5c0.1,0.4,0.3,0.7,0.5,1c0.2,0.2,0.5,0.4,0.8,0.5s0.6,0.1,1,0.1c0.4,0,0.7-0.1,1-0.2
			c0.3-0.1,0.5-0.3,0.7-0.5s0.3-0.3,0.4-0.5l1,0.6c-0.2,0.4-0.5,0.7-0.8,0.9c-0.3,0.3-0.7,0.4-1.1,0.5
			C754.2,115.7,753.8,115.8,753.3,115.8z M751,110.3h4.4c0-0.9-0.1-1.6-0.3-2.1c-0.2-0.5-0.5-0.8-0.8-0.9s-0.7-0.2-1-0.2
			c-0.3,0-0.6,0-0.9,0.1c-0.3,0.1-0.5,0.3-0.7,0.5c-0.2,0.2-0.4,0.6-0.5,1C751,109.1,751,109.7,751,110.3z"/>
		<path d="M762,115.8c-0.5,0-0.9-0.1-1.3-0.2s-0.7-0.3-1-0.5c-0.3-0.2-0.5-0.4-0.7-0.7s-0.3-0.6-0.4-0.9c-0.1-0.4-0.2-0.8-0.3-1.3
			s-0.1-0.9-0.1-1.3s0-0.8,0.1-1.3s0.1-0.9,0.3-1.3c0.2-0.6,0.5-1,0.8-1.4s0.7-0.6,1.2-0.7s0.9-0.2,1.4-0.2c0.6,0,1.1,0.1,1.6,0.3
			c0.4,0.2,0.8,0.5,1,0.8s0.4,0.7,0.5,1l-1.2,0.4c-0.1-0.3-0.2-0.5-0.3-0.7s-0.3-0.3-0.4-0.5s-0.3-0.2-0.5-0.3s-0.4-0.1-0.7-0.1
			c-0.4,0-0.8,0.1-1.1,0.3s-0.6,0.5-0.7,0.9c-0.2,0.4-0.3,0.8-0.3,1.1s-0.1,0.8-0.1,1.4c0,0.8,0,1.3,0.1,1.6
			c0.1,0.3,0.2,0.6,0.3,0.9c0.2,0.4,0.4,0.8,0.8,1s0.7,0.3,1.2,0.3c0.4,0,0.8-0.1,1.2-0.3s0.6-0.6,0.8-1.1l1.1,0.4
			c-0.2,0.5-0.5,0.9-0.8,1.3s-0.7,0.6-1.1,0.7S762.4,115.8,762,115.8z"/>
		<path d="M766.6,118.9c-0.1,0-0.1,0-0.2,0v-1.2h0.3c0.2,0,0.3,0,0.4-0.1s0.3-0.1,0.4-0.2c0.1-0.1,0.2-0.2,0.3-0.4
			c0.1-0.2,0.2-0.3,0.3-0.6l0.5-1.4l-3.2-8.7h1.3l2.5,7l2.6-7h1.3l-4,10.5c-0.2,0.4-0.3,0.8-0.5,1.1c-0.2,0.3-0.4,0.5-0.6,0.7
			s-0.4,0.3-0.7,0.3c-0.2,0.1-0.5,0.1-0.8,0.1C766.8,118.9,766.7,118.9,766.6,118.9z"/>
		<path d="M777.9,115.8c-0.5,0-0.9-0.1-1.3-0.2s-0.7-0.3-1-0.5c-0.3-0.2-0.5-0.4-0.7-0.7s-0.3-0.6-0.4-0.9c-0.1-0.4-0.2-0.8-0.3-1.3
			s-0.1-0.9-0.1-1.3s0-0.8,0.1-1.3s0.1-0.9,0.3-1.3c0.2-0.6,0.5-1,0.8-1.4s0.7-0.6,1.2-0.7s0.9-0.2,1.4-0.2c0.6,0,1.1,0.1,1.6,0.3
			c0.4,0.2,0.8,0.5,1,0.8s0.4,0.7,0.5,1l-1.2,0.4c-0.1-0.3-0.2-0.5-0.3-0.7s-0.3-0.3-0.4-0.5s-0.3-0.2-0.5-0.3s-0.4-0.1-0.7-0.1
			c-0.4,0-0.8,0.1-1.1,0.3s-0.6,0.5-0.7,0.9c-0.2,0.4-0.3,0.8-0.3,1.1s-0.1,0.8-0.1,1.4c0,0.8,0,1.3,0.1,1.6
			c0.1,0.3,0.2,0.6,0.3,0.9c0.2,0.4,0.4,0.8,0.8,1s0.7,0.3,1.2,0.3c0.4,0,0.8-0.1,1.2-0.3s0.6-0.6,0.8-1.1l1.1,0.4
			c-0.2,0.5-0.5,0.9-0.8,1.3s-0.7,0.6-1.1,0.7S778.3,115.8,777.9,115.8z"/>
		<path d="M782.5,115.5v-13h1.3v13H782.5z"/>
		<path d="M786.2,104v-1.5h1.3v1.5H786.2z M786.2,115.5v-9.1h1.3v9.1H786.2z"/>
		<path d="M789.9,115.5v-9.1h1.3v1.3c0.4-0.6,0.8-1,1.3-1.2s1-0.4,1.6-0.4c0.5,0,1,0.1,1.4,0.3c0.4,0.2,0.7,0.6,0.9,1
			c0.2,0.4,0.3,0.9,0.3,1.4v6.7h-1.3v-6.2c0-0.7-0.1-1.2-0.4-1.5s-0.7-0.5-1.3-0.5c-0.4,0-0.7,0.1-1,0.2s-0.6,0.4-0.8,0.7
			c-0.2,0.3-0.4,0.6-0.5,0.9c-0.1,0.3-0.2,0.7-0.2,1v5.4H789.9z"/>
		<path d="M802.5,119.3c-0.9,0-1.6-0.2-2.2-0.5c-0.6-0.3-1-0.8-1.2-1.4l1.1-0.4c0.2,0.4,0.5,0.7,0.9,0.9c0.4,0.2,0.9,0.3,1.4,0.3
			c0.3,0,0.7,0,1-0.1c0.3-0.1,0.6-0.2,0.8-0.4c0.2-0.2,0.3-0.4,0.3-0.6c0.1-0.2,0.1-0.6,0.1-1.1v-1.6c-0.3,0.3-0.6,0.6-0.9,0.8
			s-0.6,0.3-0.9,0.3c-0.3,0-0.6,0.1-0.9,0.1c-0.3,0-0.6,0-0.8-0.1s-0.5-0.2-0.8-0.3c-0.2-0.1-0.5-0.4-0.7-0.6s-0.4-0.6-0.5-1
			c-0.1-0.4-0.2-0.8-0.3-1.2s-0.1-1-0.1-1.6c0-0.7,0.1-1.3,0.2-1.9s0.3-1,0.5-1.4c0.3-0.5,0.6-0.9,1.1-1.1s1-0.4,1.6-0.4
			c0.6,0,1.2,0.1,1.6,0.3c0.5,0.2,0.8,0.6,1,1.1v-1.1h1.3v9.7c0,0.5-0.1,1-0.2,1.3s-0.3,0.7-0.5,1c-0.3,0.3-0.7,0.5-1.2,0.7
			C803.6,119.2,803.1,119.3,802.5,119.3z M802.4,114.5c0.5,0,1-0.1,1.3-0.4c0.4-0.3,0.6-0.6,0.8-1s0.2-0.8,0.2-1.2v-2.1
			c0-0.6-0.1-1.1-0.4-1.5s-0.6-0.7-1-0.8s-0.7-0.2-1-0.2c-0.5,0-0.8,0.1-1.1,0.3c-0.3,0.2-0.5,0.4-0.6,0.7s-0.2,0.5-0.2,0.7
			c-0.1,0.3-0.1,0.6-0.2,0.9c0,0.3,0,0.7,0,1c0,0.4,0,0.7,0,1.1c0,0.3,0.1,0.6,0.1,0.9c0.1,0.3,0.1,0.5,0.3,0.7s0.3,0.4,0.4,0.6
			s0.4,0.3,0.6,0.4C801.8,114.4,802.1,114.5,802.4,114.5z"/>
		<path d="M808.6,115.5v-8.1h-1.2v-1h1.2v-0.9c0-0.6,0.1-1.1,0.2-1.4s0.3-0.6,0.5-0.9c0.3-0.3,0.6-0.5,0.9-0.6
			c0.4-0.1,0.7-0.2,1.1-0.2c0.4,0,0.8,0,1,0.1v1.1c-0.2,0-0.5-0.1-0.8-0.1c-0.2,0-0.4,0-0.6,0.1s-0.4,0.2-0.6,0.4
			c-0.1,0.1-0.2,0.3-0.3,0.5c-0.1,0.2-0.1,0.5-0.1,1v0.8h2.1v1h-2.1v8.1H808.6z"/>
		<path d="M815.5,115.7c-0.2,0-0.5,0-0.7-0.1c-0.2,0-0.4-0.1-0.6-0.2s-0.4-0.2-0.5-0.3c-0.2-0.1-0.3-0.3-0.4-0.4
			c-0.2-0.3-0.3-0.5-0.4-0.8c-0.1-0.3-0.2-0.7-0.2-1c0-0.3,0-0.7,0.1-0.9c0.1-0.3,0.2-0.5,0.4-0.7c0.3-0.4,0.6-0.6,1.1-0.8
			s1-0.3,1.7-0.3h2.3v-1.2c0-0.5-0.1-0.9-0.4-1.2s-0.5-0.5-0.8-0.5c-0.3-0.1-0.6-0.1-0.8-0.1c-0.6,0-1,0.1-1.4,0.3s-0.6,0.5-0.8,0.9
			L813,108c0.2-0.6,0.6-1.1,1.2-1.4s1.3-0.5,2.2-0.5c0.6,0,1.1,0.1,1.5,0.2c0.4,0.1,0.8,0.4,1.1,0.7c0.2,0.3,0.4,0.6,0.5,0.9
			s0.1,0.7,0.1,1.1v6.5h-1.3v-0.9c-0.3,0.3-0.6,0.6-0.9,0.7s-0.6,0.3-1,0.4S815.8,115.7,815.5,115.7z M815.9,114.6
			c0.5,0,0.9-0.1,1.3-0.3s0.7-0.5,0.8-0.8s0.3-0.6,0.3-0.9v-1.5h-1.9c-0.4,0-0.8,0-1.1,0.1s-0.6,0.2-0.7,0.3s-0.3,0.3-0.4,0.6
			s-0.1,0.5-0.1,0.7c0,0.3,0,0.5,0.1,0.7s0.2,0.4,0.3,0.5C814.7,114.4,815.2,114.6,815.9,114.6z M814.6,104.7v-1.5h1.3v1.5H814.6z
			 M817.3,104.7v-1.5h1.3v1.5H817.3z"/>
		<path d="M822,115.5v-13h1.3v5.1c0.4-0.6,0.8-1,1.3-1.2s1-0.4,1.6-0.4c0.5,0,1,0.1,1.4,0.3c0.4,0.2,0.7,0.6,0.9,1
			c0.2,0.4,0.3,0.9,0.3,1.4v6.7h-1.3v-6.2c0-0.7-0.1-1.2-0.4-1.5s-0.7-0.5-1.3-0.5c-0.4,0-0.7,0.1-1,0.2s-0.6,0.4-0.8,0.7
			c-0.2,0.3-0.4,0.6-0.5,0.9c-0.1,0.3-0.2,0.7-0.2,1v5.4H822z"/>
		<path d="M831.2,104v-1.5h1.3v1.5H831.2z M831.2,115.5v-9.1h1.3v9.1H831.2z"/>
		<path d="M838.3,119.3c-0.9,0-1.6-0.2-2.2-0.5c-0.6-0.3-1-0.8-1.2-1.4l1.1-0.4c0.2,0.4,0.5,0.7,0.9,0.9c0.4,0.2,0.9,0.3,1.4,0.3
			c0.3,0,0.7,0,1-0.1c0.3-0.1,0.6-0.2,0.8-0.4c0.2-0.2,0.3-0.4,0.3-0.6c0.1-0.2,0.1-0.6,0.1-1.1v-1.6c-0.3,0.3-0.6,0.6-0.9,0.8
			s-0.6,0.3-0.9,0.3c-0.3,0-0.6,0.1-0.9,0.1c-0.3,0-0.6,0-0.8-0.1s-0.5-0.2-0.8-0.3c-0.2-0.1-0.5-0.4-0.7-0.6s-0.4-0.6-0.5-1
			c-0.1-0.4-0.2-0.8-0.3-1.2s-0.1-1-0.1-1.6c0-0.7,0.1-1.3,0.2-1.9s0.3-1,0.5-1.4c0.3-0.5,0.6-0.9,1.1-1.1s1-0.4,1.6-0.4
			c0.6,0,1.2,0.1,1.6,0.3c0.5,0.2,0.8,0.6,1,1.1v-1.1h1.3v9.7c0,0.5-0.1,1-0.2,1.3s-0.3,0.7-0.5,1c-0.3,0.3-0.7,0.5-1.2,0.7
			C839.4,119.2,838.9,119.3,838.3,119.3z M838.2,114.5c0.5,0,1-0.1,1.3-0.4c0.4-0.3,0.6-0.6,0.8-1s0.2-0.8,0.2-1.2v-2.1
			c0-0.6-0.1-1.1-0.4-1.5s-0.6-0.7-1-0.8s-0.7-0.2-1-0.2c-0.5,0-0.8,0.1-1.1,0.3c-0.3,0.2-0.5,0.4-0.6,0.7s-0.2,0.5-0.2,0.7
			c-0.1,0.3-0.1,0.6-0.2,0.9c0,0.3,0,0.7,0,1c0,0.4,0,0.7,0,1.1c0,0.3,0.1,0.6,0.1,0.9c0.1,0.3,0.1,0.5,0.3,0.7s0.3,0.4,0.4,0.6
			s0.4,0.3,0.6,0.4C837.6,114.4,837.9,114.5,838.2,114.5z"/>
	</g>
	<g>
		<path d="M18.9,115.5v-5.7H25V84.7l-6.1,3.5l-3-5l11.2-6.8h4.8v33.5h5.8v5.7H18.9z"/>
		<path d="M57.7,116.4c-2,0-3.6-0.2-5-0.7s-2.6-1.1-3.5-2c-1.1-0.9-2-2.1-2.6-3.4c-0.6-1.3-1.1-2.8-1.4-4.3
			c-0.3-1.5-0.5-3.2-0.5-4.8c-0.1-1.7-0.1-3.3-0.1-5c0-1.6,0-3.3,0.1-5c0.1-1.7,0.2-3.3,0.5-4.8c0.3-1.5,0.7-3,1.4-4.3
			c0.6-1.3,1.5-2.5,2.6-3.4c1-0.8,2.1-1.5,3.5-2c1.4-0.5,3.1-0.7,5-0.7c1.9,0,3.6,0.2,5,0.7c1.4,0.5,2.6,1.1,3.5,2
			c1.5,1.3,2.6,3.1,3.3,5.2c0.7,2.1,1.1,4.3,1.2,6.6c0.1,2.2,0.1,4.2,0.1,5.8c0,3.4-0.1,6.1-0.3,8.2s-0.7,3.9-1.5,5.6
			s-1.7,2.9-2.8,3.8c-1,0.8-2.1,1.5-3.5,2S59.6,116.4,57.7,116.4z M57.7,110.5c0.9,0,1.6-0.1,2.1-0.3c0.5-0.2,1-0.5,1.3-0.8
			c0.6-0.6,1.2-1.5,1.5-2.8c0.4-1.2,0.6-2.8,0.8-4.6c0.1-1.8,0.2-3.8,0.2-5.8c0-3.2-0.1-5.7-0.3-7.4c-0.2-1.7-0.5-3-0.9-3.8
			C62,84,61.5,83.4,61.1,83c-0.4-0.3-0.8-0.6-1.3-0.8s-1.2-0.3-2.1-0.3s-1.6,0.1-2.1,0.3c-0.5,0.2-1,0.5-1.3,0.8
			c-0.7,0.6-1.2,1.6-1.6,2.8s-0.6,2.8-0.7,4.6c-0.1,1.8-0.2,3.8-0.2,5.8c0,3,0.1,5.4,0.3,7.3c0.2,1.9,0.5,3.3,0.9,4.1
			s0.8,1.4,1.3,1.8c0.4,0.3,0.8,0.6,1.3,0.8C56.2,110.4,56.8,110.5,57.7,110.5z"/>
		<path d="M88.8,116.4c-2,0-3.6-0.2-5-0.7s-2.6-1.1-3.5-2c-1.1-0.9-2-2.1-2.6-3.4c-0.6-1.3-1.1-2.8-1.4-4.3
			c-0.3-1.5-0.5-3.2-0.5-4.8c-0.1-1.7-0.1-3.3-0.1-5c0-1.6,0-3.3,0.1-5c0.1-1.7,0.2-3.3,0.5-4.8c0.3-1.5,0.7-3,1.4-4.3
			c0.6-1.3,1.5-2.5,2.6-3.4c1-0.8,2.1-1.5,3.5-2c1.4-0.5,3.1-0.7,5-0.7c1.9,0,3.6,0.2,5,0.7c1.4,0.5,2.6,1.1,3.5,2
			c1.5,1.3,2.6,3.1,3.3,5.2c0.7,2.1,1.1,4.3,1.2,6.6c0.1,2.2,0.1,4.2,0.1,5.8c0,3.4-0.1,6.1-0.3,8.2s-0.7,3.9-1.5,5.6
			s-1.7,2.9-2.8,3.8c-1,0.8-2.1,1.5-3.5,2S90.8,116.4,88.8,116.4z M88.8,110.5c0.9,0,1.6-0.1,2.1-0.3c0.5-0.2,1-0.5,1.3-0.8
			c0.6-0.6,1.2-1.5,1.5-2.8c0.4-1.2,0.6-2.8,0.8-4.6c0.1-1.8,0.2-3.8,0.2-5.8c0-3.2-0.1-5.7-0.3-7.4c-0.2-1.7-0.5-3-0.9-3.8
			c-0.4-0.8-0.8-1.5-1.2-1.9c-0.4-0.3-0.8-0.6-1.3-0.8s-1.2-0.3-2.1-0.3s-1.6,0.1-2.1,0.3c-0.5,0.2-1,0.5-1.3,0.8
			c-0.7,0.6-1.2,1.6-1.6,2.8s-0.6,2.8-0.7,4.6c-0.1,1.8-0.2,3.8-0.2,5.8c0,3,0.1,5.4,0.3,7.3c0.2,1.9,0.5,3.3,0.9,4.1
			s0.8,1.4,1.3,1.8c0.4,0.3,0.8,0.6,1.3,0.8C87.3,110.4,88,110.5,88.8,110.5z"/>
		<path d="M109.2,98.5c-0.7-0.5-1.3-1.2-1.8-1.9c-0.5-0.7-0.8-1.6-1.1-2.5c-0.3-0.9-0.4-1.9-0.5-2.9c-0.1-1-0.1-2.1-0.1-3.2
			c0-1.1,0.1-2.3,0.2-3.5c0.1-1.3,0.4-2.5,1-3.8c0.6-1.3,1.3-2.3,2.4-3.1c0.7-0.5,1.6-0.9,2.6-1.2c1-0.3,2.1-0.4,3.5-0.4
			c1.4,0,2.5,0.1,3.5,0.4c1,0.3,1.8,0.7,2.6,1.2c0.7,0.5,1.4,1.3,1.9,2.2c0.6,1,1,2.1,1.2,3.4c0.3,1.3,0.4,2.9,0.4,4.8
			c0,1.1-0.1,2.3-0.2,3.6c-0.1,1.3-0.4,2.5-0.9,3.7c-0.5,1.2-1.2,2.1-2.1,2.9c-0.8,0.7-1.7,1.2-2.8,1.5c-1.1,0.3-2.3,0.5-3.6,0.5
			c-1.3,0-2.5-0.1-3.5-0.4C110.7,99.4,109.9,99,109.2,98.5z M117.2,94.9c0.4-0.3,0.7-1,1-1.9c0.3-0.9,0.4-2.6,0.4-5
			c0-1.3-0.1-2.5-0.2-3.5c-0.1-1-0.3-1.8-0.5-2.2c-0.2-0.5-0.4-0.8-0.7-1.1c-0.5-0.4-1.1-0.6-2-0.6c-0.9,0-1.5,0.2-2,0.6
			c-0.4,0.4-0.8,1-1,2c-0.3,0.9-0.4,2.6-0.4,4.9c0,1.4,0,2.5,0.1,3.3c0.1,0.9,0.2,1.5,0.4,2c0.1,0.5,0.3,0.9,0.5,1.1
			c0.2,0.2,0.3,0.4,0.5,0.5c0.2,0.2,0.5,0.3,0.8,0.5c0.3,0.1,0.7,0.2,1.2,0.2c0.5,0,0.9-0.1,1.2-0.2S117,95.1,117.2,94.9z
			 M119.3,116.4l13.6-40.5h6l-13.6,40.5H119.3z M136.9,114.7c-0.7-0.5-1.3-1.2-1.8-1.9c-0.5-0.7-0.8-1.6-1.1-2.5
			c-0.3-0.9-0.4-1.9-0.5-2.9c-0.1-1-0.1-2.1-0.1-3.2c0-1.1,0.1-2.3,0.2-3.5c0.1-1.3,0.4-2.5,1-3.8c0.6-1.3,1.3-2.3,2.4-3.1
			c0.7-0.5,1.6-0.9,2.6-1.2c1-0.3,2.1-0.4,3.5-0.4c1.3,0,2.5,0.1,3.5,0.4c1,0.3,1.8,0.7,2.6,1.2c0.7,0.5,1.4,1.3,1.9,2.2
			c0.6,1,1,2.1,1.2,3.4c0.3,1.3,0.4,2.9,0.4,4.8c0,1.1,0,2.3-0.1,3.5c-0.1,1.2-0.4,2.5-0.9,3.7c-0.5,1.2-1.2,2.2-2.2,3
			c-0.8,0.7-1.7,1.2-2.8,1.5c-1.1,0.3-2.2,0.5-3.6,0.5c-1.4,0-2.5-0.1-3.5-0.4C138.5,115.7,137.7,115.3,136.9,114.7z M145,111.2
			c0.4-0.4,0.8-1,1-1.9c0.3-0.9,0.4-2.6,0.4-5c0-1.3-0.1-2.5-0.2-3.6c-0.1-1-0.3-1.8-0.5-2.2c-0.2-0.4-0.4-0.8-0.7-1.1
			c-0.4-0.4-1.1-0.6-2-0.6c-0.9,0-1.6,0.2-2,0.6c-0.1,0.1-0.3,0.3-0.5,0.7c-0.2,0.3-0.4,1-0.6,2c-0.2,1-0.3,2.4-0.3,4.2
			c0,1.4,0,2.5,0.1,3.3c0.1,0.9,0.2,1.5,0.4,2c0.1,0.5,0.3,0.9,0.5,1.1c0.2,0.2,0.3,0.4,0.5,0.5c0.4,0.4,1.1,0.6,2,0.6
			C143.9,111.8,144.6,111.6,145,111.2z"/>
	</g>
	<g>
		<circle fill="#FFFFFF" cx="431.5" cy="185.4" r="116.3"/>
		<path fill="#1F7FB6" d="M530.8,116.2c-1.8-2.6-3.7-5.1-5.8-7.5c-22.1-26.5-55.3-43.4-92.3-43.4c-0.1,0-0.1,0-0.2,0
			c0,0-0.1,0-0.1,0c-0.1,0-0.3,0-0.4,0c-36.8,0.2-69.7,17-91.6,43.3c-2,2.4-3.9,4.9-5.8,7.5c-13.9,19.6-22.1,43.5-22.1,69.3
			s8.2,49.7,22.1,69.3c1.8,2.6,3.7,5.1,5.8,7.5c21.9,26.3,54.8,43.1,91.6,43.3c0.1,0,0.3,0,0.4,0c0,0,0.1,0,0.1,0c0.1,0,0.1,0,0.2,0
			c37.1,0,70.3-16.9,92.3-43.3c2-2.4,3.9-4.9,5.8-7.5c13.9-19.6,22.1-43.5,22.1-69.3C552.8,159.7,544.6,135.8,530.8,116.2z
			 M397.5,81c-11,10.7-20.2,26.2-26.5,44.9c-8.5-3.2-16.1-7-22.7-11.3C361.2,99.3,378.2,87.5,397.5,81z M342.5,122.1
			c7.5,5,16.1,9.4,25.7,12.9c-4.1,15.1-6.5,31.8-6.6,49.4h-39.2C322.6,161.3,330.1,139.8,342.5,122.1z M322.8,194.4h39.1
			c0.6,14.8,2.9,28.8,6.4,41.6c-9.6,3.6-18.2,8-25.7,12.9C331.5,233.2,324.4,214.6,322.8,194.4z M348.3,256.4
			c6.6-4.3,14.2-8.1,22.6-11.3c6.3,18.7,15.5,34.3,26.6,44.9C378.2,283.5,361.2,271.7,348.3,256.4z M427.7,295.5
			c-20.2-2.8-37.7-23.5-47.6-53.4c14.3-4.3,30.4-6.9,47.6-7.3V295.5z M427.7,224.9c-18.1,0.4-35.2,3.2-50.4,7.9
			c-3.1-11.8-5.1-24.8-5.7-38.4h56.1V224.9z M427.7,184.5h-56.3c0.1-16.6,2.2-32.2,6-46.3c15.2,4.6,32.2,7.4,50.3,7.9V184.5z
			 M427.7,136.3c-17.2-0.4-33.3-3-47.6-7.3c9.9-29.9,27.3-50.6,47.6-53.4V136.3z M542.9,184.5h-39.8c-0.1-17.6-2.4-34.2-6.5-49.2
			c9.8-3.6,18.6-8.1,26.2-13.1C535.3,139.8,542.7,161.3,542.9,184.5z M517,114.6c-6.7,4.4-14.5,8.3-23.2,11.5
			c-6.4-18.9-15.7-34.7-26.9-45.4C486.7,87.1,503.9,99.1,517,114.6z M437.6,75.6c20,3.1,37.2,23.8,47,53.5
			c-14.1,4.2-30.1,6.7-47,7.1V75.6z M437.6,146.1c17.9-0.4,34.7-3.2,49.8-7.7c3.7,14,5.8,29.6,5.9,46.1h-55.7V146.1z M437.6,194.4
			h55.5c-0.6,13.6-2.6,26.5-5.7,38.3c-15.1-4.6-31.9-7.3-49.8-7.7L437.6,194.4L437.6,194.4z M437.6,295.4v-60.6
			c17,0.4,32.9,2.9,47.1,7.1C474.9,271.6,457.6,292.3,437.6,295.4z M466.9,290.3c11.2-10.7,20.5-26.4,26.9-45.4
			c8.7,3.2,16.4,7.1,23.1,11.4C503.9,271.9,486.7,283.9,466.9,290.3z M522.8,248.9c-7.6-5.1-16.4-9.5-26.2-13.1
			c3.5-12.8,5.7-26.7,6.3-41.4h39.6C541,214.6,533.9,233.2,522.8,248.9z"/>
		<path fill="#FFFFFF" stroke="#FFFFFF" stroke-width="20" stroke-miterlimit="10" d="M501.8,155.7c0-12.4-9.4-22.6-21.5-23.9
			c-3.4-9.2-12.2-15.7-22.5-15.7c-4.5,0-8.7,1.3-12.4,3.4c-4.1-7.4-12-12.3-21-12.3c-12,0-21.9,8.8-23.7,20.2c-1-0.1-2-0.2-3-0.2
			c-13.3,0-24,10.8-24,24c0,0.7,0,1.3,0.1,1.9c-6.7,4.3-11.2,11.7-11.2,20.3c0,7.6,3.5,14.3,9,18.7c0,0.4-0.1,0.9-0.1,1.3
			c0,13.3,10.8,24,24,24c4,0,7.7-1,11-2.7c4.6,3.3,11.1,7.4,14.3,6.6c0,0,1.2,18.3,0.9,22.9c-0.5,8.8-3.1,18.7-5,26.6h28.9
			c0,0-4.3-17.7-4.4-23.7c-0.2-5.9,1.9-16.8,1.9-16.8l10-10.4c3.9,2.6,8.5,4.1,13.5,4.1c12.4,0,22.6-9.5,23.9-21.5
			c9.2-3.4,15.7-12.2,15.7-22.5c0-6.1-2.3-11.7-6-15.9C501.2,161.6,501.8,158.7,501.8,155.7z M412.1,210.9c1.9-1.8,3.5-4,4.8-6.4
			l4.7,9.9C421.6,214.4,419,215.5,412.1,210.9z M429.7,217c-2.4,0.4-6.6-7.1-9.5-13.2c3.3,1.7,7,2.6,10.9,2.6c1,0,2-0.1,3-0.2
			C433.3,211.1,432,216.6,429.7,217z M440.1,221.8c-5.6,1.6-2.3-10.1-0.6-16.9c1.2-0.4,2.3-0.9,3.4-1.6c0.7,4.9,2.8,9.4,6,12.9
			C446.1,218.7,442.9,221,440.1,221.8z"/>
		<path fill="#0C85BA" d="M501.8,155.7c0-12.4-9.4-22.6-21.5-23.9c-3.4-9.2-12.2-15.7-22.5-15.7c-4.5,0-8.7,1.3-12.4,3.4
			c-4.1-7.4-12-12.3-21-12.3c-12,0-21.9,8.8-23.7,20.2c-1-0.1-2-0.2-3-0.2c-13.3,0-24,10.8-24,24c0,0.7,0,1.3,0.1,1.9
			c-6.7,4.3-11.2,11.7-11.2,20.3c0,7.6,3.5,14.3,9,18.7c0,0.4-0.1,0.9-0.1,1.3c0,13.3,10.8,24,24,24c4,0,7.7-1,11-2.7
			c4.6,3.3,11.1,7.4,14.3,6.6c0,0,1.2,18.3,0.9,22.9c-0.5,8.8-3.1,18.7-5,26.6h28.9c0,0-4.3-17.7-4.4-23.7
			c-0.2-5.9,1.9-16.8,1.9-16.8l10-10.4c3.9,2.6,8.5,4.1,13.5,4.1c12.4,0,22.6-9.5,23.9-21.5c9.2-3.4,15.7-12.2,15.7-22.5
			c0-6.1-2.3-11.7-6-15.9C501.2,161.6,501.8,158.7,501.8,155.7z M412.1,210.9c1.9-1.8,3.5-4,4.8-6.4l4.7,9.9
			C421.6,214.4,419,215.5,412.1,210.9z M429.7,217c-2.4,0.4-6.6-7.1-9.5-13.2c3.3,1.7,7,2.6,10.9,2.6c1,0,2-0.1,3-0.2
			C433.3,211.1,432,216.6,429.7,217z M440.1,221.8c-5.6,1.6-2.3-10.1-0.6-16.9c1.2-0.4,2.3-0.9,3.4-1.6c0.7,4.9,2.8,9.4,6,12.9
			C446.1,218.7,442.9,221,440.1,221.8z"/>
	</g>
	<g>
		<path fill="#1F7FB6" d="M360.9,37.1c-1,0-1.9-0.1-2.6-0.3s-1.4-0.6-2-1.1s-1-1.2-1.3-2c-0.3-0.8-0.4-1.9-0.4-3.1v-14h2.1v14
			c0,1.7,0.4,2.9,1.1,3.6c0.7,0.7,1.8,1.1,3.1,1.1c1.4,0,2.5-0.4,3.2-1.1c0.7-0.7,1.1-2,1.1-3.6v-14h2.1v14c0,1.2-0.1,2.3-0.4,3.1
			c-0.3,0.8-0.7,1.5-1.3,2s-1.2,0.9-2,1.1S361.9,37.1,360.9,37.1z"/>
		<path fill="#1F7FB6" d="M371.3,36.7V22.5h2v2c0.4-0.6,0.8-1.1,1.3-1.5s1.1-0.6,1.6-0.8s1-0.2,1.4-0.2s0.8,0,1.2,0.1s0.7,0.2,1,0.4
			c0.3,0.2,0.6,0.5,0.8,0.8c0.2,0.3,0.4,0.7,0.5,1.2c0.4-0.7,0.9-1.2,1.5-1.6c0.6-0.4,1.1-0.6,1.7-0.8s1-0.2,1.4-0.2
			c0.9,0,1.6,0.2,2.2,0.5c0.6,0.4,1,0.9,1.3,1.5c0.2,0.7,0.4,1.4,0.4,2.2v10.5h-2.1V27c0-0.9-0.1-1.6-0.3-2
			c-0.2-0.5-0.5-0.8-0.9-0.9c-0.4-0.1-0.8-0.2-1.3-0.2c-0.7,0-1.4,0.3-2,0.8s-1,1.1-1.3,1.8s-0.4,1.3-0.4,1.8v8.4h-2.1V27
			c0-0.9-0.1-1.6-0.3-2c-0.2-0.5-0.5-0.8-0.9-0.9c-0.4-0.1-0.8-0.2-1.3-0.2c-0.7,0-1.4,0.3-2,0.8s-1,1.1-1.3,1.8s-0.4,1.3-0.4,1.8
			v8.4H371.3z"/>
		<path fill="#1F7FB6" d="M395.7,36.7l-4-14.2h2.1l2.9,11.5l2.9-11.5h2l2.9,11.5l2.9-11.5h1.9l-4,14.2h-1.9l-3-10.8l-3,10.8H395.7z"
			/>
		<path fill="#1F7FB6" d="M416.5,37.1c-0.7,0-1.4-0.1-1.9-0.3c-0.6-0.2-1.1-0.4-1.5-0.7c-0.4-0.3-0.8-0.6-1.1-1
			c-0.3-0.4-0.5-0.8-0.7-1.2c-0.2-0.6-0.4-1.2-0.5-1.9s-0.1-1.4-0.1-2.2c0-1.1,0.1-2.1,0.2-2.9c0.1-0.8,0.3-1.5,0.6-2.1
			c0.3-0.6,0.6-1.1,1-1.4c0.4-0.4,1-0.8,1.6-1.1s1.4-0.4,2.4-0.4c0.8,0,1.6,0.1,2.2,0.3c0.6,0.2,1.1,0.5,1.5,1
			c0.6,0.6,1,1.4,1.2,2.3s0.3,2.1,0.3,3.4v1.3h-8.9v0.3c0,0.9,0.1,1.7,0.3,2.3c0.2,0.6,0.5,1.1,0.8,1.5c0.3,0.4,0.8,0.6,1.2,0.8
			c0.5,0.2,1,0.2,1.5,0.2c0.6,0,1.1-0.1,1.5-0.3s0.8-0.4,1.1-0.7c0.3-0.3,0.5-0.5,0.6-0.8l1.6,0.9c-0.3,0.6-0.8,1.1-1.3,1.5
			s-1.1,0.7-1.7,0.9C417.9,37,417.2,37.1,416.5,37.1z M412.9,28.6h6.9c0-1.4-0.2-2.5-0.5-3.2c-0.3-0.8-0.7-1.2-1.3-1.4
			c-0.5-0.2-1.1-0.3-1.6-0.3c-0.5,0-0.9,0.1-1.4,0.2s-0.8,0.4-1.1,0.8c-0.3,0.4-0.6,0.9-0.8,1.5C413,26.8,412.9,27.6,412.9,28.6z"/>
		<path fill="#1F7FB6" d="M424.8,36.7V16.5h2.1v20.2H424.8z"/>
		<path fill="#1F7FB6" d="M434.9,36.9c-0.8,0-1.5-0.1-2-0.3s-0.9-0.5-1.2-0.9c-0.3-0.4-0.5-0.9-0.6-1.5c-0.1-0.6-0.2-1.2-0.2-1.9V24
			H429v-1.6h1.9v-3.9h2v3.9h2.9V24h-2.9v8.3c0,0.5,0,0.9,0.1,1.2c0,0.4,0.1,0.7,0.3,0.9c0.2,0.3,0.4,0.4,0.7,0.6
			c0.3,0.1,0.7,0.2,1.2,0.2c0.3,0,0.6,0,0.9-0.1v1.7C435.7,36.9,435.3,36.9,434.9,36.9z"/>
		<path fill="#1F7FB6" d="M442.7,37.1c-0.7,0-1.3-0.1-1.9-0.2c-0.6-0.2-1.1-0.4-1.5-0.7c-0.8-0.6-1.4-1.3-1.8-2.2l1.7-0.8
			c0.2,0.5,0.5,1,0.9,1.3c0.4,0.4,0.8,0.6,1.2,0.7s0.9,0.2,1.3,0.2c0.6,0,1.2-0.1,1.7-0.3c0.5-0.2,0.8-0.5,1.1-0.8s0.3-0.8,0.3-1.2
			c0-0.5-0.1-0.9-0.4-1.2c-0.2-0.3-0.6-0.6-1-0.8c-0.9-0.3-1.6-0.6-1.9-0.7c-0.3-0.1-0.6-0.2-0.8-0.3c-0.8-0.3-1.4-0.6-1.9-0.9
			c-0.5-0.3-0.9-0.6-1.1-0.9c-0.2-0.3-0.4-0.6-0.5-1s-0.2-0.7-0.2-1.1c0-0.3,0-0.6,0.1-1s0.2-0.7,0.4-1.1c0.2-0.4,0.6-0.8,1-1.1
			s0.9-0.6,1.5-0.7s1.2-0.2,1.9-0.2c1.2,0,2.1,0.2,2.9,0.7s1.4,1.1,1.8,2l-1.6,0.8c-0.2-0.4-0.4-0.7-0.6-1c-0.2-0.3-0.5-0.5-0.8-0.6
			s-0.5-0.3-0.8-0.3s-0.6-0.1-0.9-0.1c-0.5,0-1,0.1-1.3,0.2c-0.4,0.1-0.7,0.3-1,0.5c-0.2,0.2-0.4,0.4-0.5,0.7
			c-0.1,0.3-0.2,0.6-0.2,1c0,0.3,0.1,0.7,0.3,0.9s0.4,0.5,0.8,0.8s0.8,0.5,1.3,0.7s1.1,0.4,1.8,0.6c1.1,0.3,1.9,0.7,2.3,1
			c0.4,0.3,0.7,0.7,0.9,1c0.1,0.2,0.3,0.5,0.4,0.8s0.2,0.8,0.2,1.3c0,0.6-0.1,1.1-0.3,1.5s-0.4,0.7-0.7,1.1c-0.4,0.5-1,0.9-1.8,1.2
			S443.5,37.1,442.7,37.1z"/>
		<path fill="#1F7FB6" d="M455.9,37.1c-0.7,0-1.4-0.1-2-0.3c-0.6-0.2-1.1-0.4-1.5-0.7s-0.8-0.7-1.1-1.1s-0.5-0.9-0.7-1.5
			c-0.2-0.7-0.4-1.3-0.4-2s-0.1-1.3-0.1-2s0-1.3,0.1-2c0.1-0.7,0.2-1.3,0.4-2c0.3-0.9,0.7-1.6,1.2-2.1s1.2-0.9,1.9-1.1
			c0.7-0.2,1.4-0.3,2.2-0.3c0.9,0,1.7,0.2,2.4,0.5c0.7,0.3,1.2,0.8,1.5,1.3c0.3,0.5,0.6,1,0.7,1.5l-1.8,0.6c-0.2-0.4-0.3-0.8-0.5-1
			s-0.4-0.5-0.6-0.7c-0.2-0.2-0.5-0.3-0.8-0.4c-0.3-0.1-0.6-0.1-1-0.1c-0.7,0-1.3,0.2-1.8,0.5s-0.9,0.8-1.2,1.5
			c-0.2,0.6-0.4,1.2-0.5,1.7c-0.1,0.5-0.1,1.3-0.1,2.2c0,1.2,0.1,2,0.2,2.5s0.2,0.9,0.4,1.4c0.3,0.7,0.7,1.2,1.2,1.5
			c0.5,0.3,1.2,0.5,1.8,0.5c0.7,0,1.3-0.2,1.8-0.5s1-0.9,1.3-1.7l1.7,0.7c-0.3,0.8-0.7,1.5-1.2,2c-0.5,0.5-1.1,0.9-1.7,1.1
			S456.6,37.1,455.9,37.1z"/>
		<path fill="#1F7FB6" d="M463,36.7V16.5h2v7.9c0.6-0.9,1.3-1.5,2-1.9s1.6-0.6,2.5-0.6c0.8,0,1.6,0.2,2.2,0.5s1.1,0.9,1.4,1.5
			c0.3,0.7,0.4,1.4,0.4,2.2v10.5h-2V27c0-1.1-0.2-1.9-0.7-2.4c-0.4-0.5-1.1-0.7-2.1-0.7c-0.5,0-1.1,0.1-1.5,0.4
			c-0.5,0.3-0.9,0.6-1.2,1c-0.3,0.4-0.6,0.9-0.8,1.4c-0.2,0.5-0.3,1.1-0.3,1.6v8.4H463z"/>
		<path fill="#1F7FB6" d="M481.4,37.1c-0.5,0-1.1-0.1-1.6-0.2c-0.5-0.1-0.9-0.4-1.3-0.7c-0.4-0.3-0.7-0.8-0.9-1.3s-0.3-1.2-0.3-2
			V22.5h2.1v9.6c0,0.6,0.1,1.1,0.2,1.5c0.1,0.4,0.3,0.7,0.5,1c0.2,0.3,0.5,0.4,0.9,0.5c0.3,0.1,0.8,0.2,1.2,0.2
			c0.5,0,1.1-0.1,1.5-0.4c0.5-0.3,0.9-0.6,1.2-1s0.6-0.9,0.8-1.4c0.2-0.5,0.3-1.1,0.3-1.6v-8.4h2v14.2h-2v-2c-0.6,0.9-1.3,1.5-2,1.9
			S482.3,37.1,481.4,37.1z"/>
		<path fill="#1F7FB6" d="M496,36.9c-0.8,0-1.5-0.1-2-0.3s-0.9-0.5-1.2-0.9c-0.3-0.4-0.5-0.9-0.6-1.5c-0.1-0.6-0.2-1.2-0.2-1.9V24
			h-1.9v-1.6h1.9v-3.9h2v3.9h2.9V24H494v8.3c0,0.5,0,0.9,0.1,1.2c0,0.4,0.1,0.7,0.3,0.9c0.2,0.3,0.4,0.4,0.7,0.6
			c0.3,0.1,0.7,0.2,1.2,0.2c0.3,0,0.6,0,0.9-0.1v1.7C496.8,36.9,496.4,36.9,496,36.9z"/>
		<path fill="#1F7FB6" d="M497.8,36.7v-1.6l7.1-11.1h-6.7v-1.6h8.9V24L500,35.1h7.1v1.6H497.8z"/>
	</g>
</g>
</svg>
