<?xml version="1.0" encoding="UTF-8" standalone="no"?>
<svg width="42px" height="42px" viewBox="0 0 42 42" version="1.1" xmlns="http://www.w3.org/2000/svg" xmlns:xlink="http://www.w3.org/1999/xlink" xmlns:sketch="http://www.bohemiancoding.com/sketch/ns">
    <!-- Generator: Sketch 3.3.3 (12081) - http://www.bohemiancoding.com/sketch -->
    <title>WhatsApp</title>
    <desc>Created with Sketch.</desc>
    <defs></defs>
    <g id="00_00-Style-Inventory" stroke="none" stroke-width="1" fill="none" fill-rule="evenodd" sketch:type="MSPage">
        <g id="Icons" sketch:type="MSArtboardGroup" transform="translate(-609.000000, -145.000000)">
            <g id="Social-Media" sketch:type="MSLayerGroup" transform="translate(25.000000, 100.000000)">
                <g id="Social-Media-on-white" transform="translate(0.000000, 45.000000)" sketch:type="MSShapeGroup">
                    <g id="WhatsApp" transform="translate(584.000000, 0.000000)">
                        <rect id="Rectangle-57" fill="#43D854" x="0" y="0" width="42" height="42" rx="3"></rect>
                        <path d="M28.2847208,17.6085865 C27.9216745,17.8074895 26.1363752,18.7706243 25.8018126,18.9067666 C25.46725,19.042909 25.2229662,19.1138768 24.9627508,18.7522788 C24.7020527,18.3921292 23.9614769,17.5854133 23.7369869,17.3464401 C23.5115313,17.1074668 23.2947656,17.0852592 22.9317194,17.284645 C22.5686731,17.4830652 21.3907038,17.9190104 20.0254181,19.2316737 C18.962349,20.2532241 18.2652229,21.4925058 18.0629405,21.8710008 C17.8606581,22.2490131 18.0614922,22.4421228 18.2536364,22.619301 C18.4264696,22.7790993 18.6398558,23.0378663 18.8329655,23.2469076 C19.0255925,23.4559489 19.0936637,23.60754 19.2259438,23.8498927 C19.3587067,24.0922454 19.3051188,24.3104594 19.2196677,24.4987413 C19.1337339,24.6875061 18.4621949,26.5355661 18.181703,27.2877285 C17.9012111,28.0394081 17.5883734,27.9278872 17.3725733,27.9360944 C17.1567732,27.9443015 16.911041,27.9843718 16.6643434,27.9935445 C16.4176457,28.0027172 16.0135636,27.9254733 15.6606556,27.5672548 C15.3077476,27.2104846 14.318543,26.3511463 14.2504719,24.5306045 C14.1824007,22.7105453 15.4414761,20.90159 15.6172059,20.6486163 C15.7929357,20.394677 18.0223875,16.4489626 21.7276802,14.8258754 C25.4334558,13.2037538 25.452284,13.6981147 26.132513,13.7348055 C26.8132247,13.7705308 28.3552059,14.5477974 28.6960445,15.3998941 C29.0368832,16.2515079 29.0644013,16.9925665 28.9775019,17.1504337 C28.8906026,17.3078181 28.6472843,17.4101663 28.2847208,17.6085865 M21.4891897,8.83657744 C19.0386274,8.83657744 16.7565533,9.5718427 14.8510431,10.8314009 L10.2144787,9.34735265 L11.7217001,13.8274982 C10.2772393,15.8170111 9.42417715,18.2612974 9.42417715,20.90159 C9.42417715,27.5551855 14.8365599,32.9675682 21.4891897,32.9675682 C28.1423024,32.9675682 33.5546851,27.5551855 33.5546851,20.90159 C33.5546851,14.2489601 28.1423024,8.83657744 21.4891897,8.83657744 M21.4891897,35.3954401 C13.4847918,35.3954401 6.99582242,28.9064707 6.99582242,20.90159 C6.99582242,18.1632942 7.75619194,15.6026593 9.07561411,13.4176228 L6.45946017,5.64205988 L14.4841346,8.21090194 C16.5605469,7.06286465 18.9483486,6.4082227 21.4891897,6.4082227 C29.4935877,6.4082227 35.9830398,12.8976749 35.9830398,20.90159 C35.9830398,28.9064707 29.4935877,35.3954401 21.4891897,35.3954401" id="Shape" fill="#FFFFFF" transform="translate(21.221250, 20.518750) rotate(-90.000000) translate(-21.221250, -20.518750) "></path>
                    </g>
                </g>
            </g>
        </g>
    </g>
</svg>