<?xml version="1.0" encoding="UTF-8" standalone="no"?>
<svg width="42px" height="42px" viewBox="0 0 42 42" version="1.1" xmlns="http://www.w3.org/2000/svg" xmlns:xlink="http://www.w3.org/1999/xlink">
    <!-- Generator: Sketch 3.7.2 (28276) - http://www.bohemiancoding.com/sketch -->
    <title>youtube@1x</title>
    <desc>Created with Sketch.</desc>
    <defs>
        <linearGradient x1="50.0884375%" y1="0.0249532127%" x2="50.0884375%" y2="100.089395%" id="linearGradient-1">
            <stop stop-color="#00A0F0" offset="0%"></stop>
            <stop stop-color="#00A0F0" offset="100%"></stop>
        </linearGradient>
    </defs>
    <g id="00_00-Style-Inventory" stroke="none" stroke-width="1" fill="none" fill-rule="evenodd">
        <g id="Icons" transform="translate(-295.000000, -455.000000)">
            <g id="Social-Media" transform="translate(25.000000, 100.000000)">
                <g id="Social-media-on-electricBlue" transform="translate(0.000000, 325.000000)">
                    <g id="youtube" transform="translate(270.000000, 30.000000)">
                        <rect id="Rectangle-57" fill="#FFFFFF" x="0" y="0" width="42" height="42" rx="3"></rect>
                        <g id="Unbenannt-3" stroke-width="1" transform="translate(7.170732, 11.268293)" fill="url(#linearGradient-1)">
                            <g id="Lozenge_3_" transform="translate(-0.000000, 0.000000)">
                                <path d="M27.2977731,4.23117709 C27.2977731,4.23117709 27.0332131,2.33319194 26.2034571,1.4990456 C25.1572428,0.398939555 23.9907741,0.398939555 23.4496288,0.32640509 C19.6135101,0.0483563096 13.8533192,0.0483563096 13.8533192,0.0483563096 L13.8412937,0.0483563096 C13.8412937,0.0483563096 8.08110286,0.0483563096 4.24498409,0.32640509 C3.70383881,0.386850477 2.5373701,0.398939555 1.49115589,1.4990456 C0.673425239,2.33319194 0.396839873,4.23117709 0.396839873,4.23117709 C0.396839873,4.23117709 0.120254507,6.46765642 0.120254507,8.69204666 L0.120254507,10.7834571 C0.120254507,13.0199364 0.396839873,15.2443266 0.396839873,15.2443266 C0.396839873,15.2443266 0.661399788,17.1423118 1.49115589,17.9764581 C2.5373701,19.0765642 3.90827147,19.0402969 4.50954401,19.1490986 C6.69817603,19.3546129 13.8292683,19.4271474 13.8292683,19.4271474 C13.8292683,19.4271474 19.5894592,19.4150583 23.4255779,19.1370095 C23.9667232,19.0765642 25.1331919,19.0644751 26.1794062,17.964369 C26.9971368,17.1302227 27.2737222,15.2322375 27.2737222,15.2322375 C27.2737222,15.2322375 27.5503075,12.9957582 27.5503075,10.771368 L27.5503075,8.70413574 C27.5743584,6.46765642 27.2977731,4.23117709 27.2977731,4.23117709 L27.2977731,4.23117709 Z M11.0273383,13.3221633 L11.0273383,5.57306469 L18.4350159,9.46574761 L11.0273383,13.3221633 L11.0273383,13.3221633 Z" id="Shape"></path>
                            </g>
                        </g>
                    </g>
                </g>
            </g>
        </g>
    </g>
</svg>