<?xml version="1.0" encoding="UTF-8" standalone="no"?>
<svg width="275px" height="20px" viewBox="0 0 275 20" version="1.1" xmlns="http://www.w3.org/2000/svg" xmlns:xlink="http://www.w3.org/1999/xlink" xmlns:sketch="http://www.bohemiancoding.com/sketch/ns">
    <!-- Generator: Sketch 3.4.2 (15857) - http://www.bohemiancoding.com/sketch -->
    <title>Claim</title>
    <desc>Created with Sketch.</desc>
    <defs></defs>
    <g id="00_01-Header-Internet" stroke="none" stroke-width="1" fill="none" fill-rule="evenodd" sketch:type="MSPage">
        <g id="00_01_Header_T_INTERNET" sketch:type="MSArtboardGroup" transform="translate(-165.000000, -99.000000)" fill="#FFFFFF">
            <g id="00_01_Header_T-INTERNET" sketch:type="MSLayerGroup" transform="translate(-1.000000, 0.000000)">
                <g id="Logo-negativ-Copy" sketch:type="MSShapeGroup">
                    <path d="M438.406832,114.005317 L440.78799,114.005317 L440.78799,111.431495 L438.406832,111.431495 L438.406832,114.005317 Z M434.231693,114.005317 L434.231693,109.090822 C434.231693,108.645198 434.288832,108.128366 434.403683,107.540614 C434.518535,106.952861 434.797337,106.437752 435.239802,105.995287 C435.682267,105.553109 436.278347,105.331733 437.028327,105.331733 C437.278129,105.331733 437.463901,105.345228 437.585644,105.372218 L437.585644,103.315228 L437.322059,103.315228 C436.63295,103.315228 436.011317,103.514495 435.457733,103.91303 C434.903574,104.311851 434.464554,104.869168 434.140386,105.58498 L434.12,103.335614 L432.194802,103.335614 L432.194802,114.005317 L434.231693,114.005317 L434.231693,114.005317 Z M423.77705,106.268921 C423.895347,105.860337 424.052406,105.536168 424.248228,105.296129 C424.44405,105.056376 424.677198,104.887545 424.947386,104.789634 C425.217574,104.691723 425.51504,104.642624 425.839208,104.642624 C426.183762,104.642624 426.526594,104.710099 426.867703,104.845337 C427.208812,104.980574 427.482158,105.291248 427.688317,105.777644 C427.894475,106.263752 427.997554,106.939366 427.997554,107.804198 L423.579505,107.804198 C423.593,107.189455 423.658752,106.677792 423.77705,106.268921 L423.77705,106.268921 Z M427.607347,114.106673 C428.130782,113.951337 428.573248,113.713307 428.934743,113.392297 C429.29595,113.071574 429.605188,112.667871 429.861881,112.181475 L428.250802,111.350525 C428.162941,111.499257 428.034594,111.671535 427.865762,111.867356 C427.696931,112.063465 427.455455,112.233733 427.141337,112.37902 C426.827218,112.524307 426.470891,112.59695 426.072356,112.59695 C425.700525,112.59695 425.361139,112.549574 425.053911,112.455109 C424.746396,112.360644 424.481376,112.198416 424.258564,111.968713 C424.035465,111.73901 423.863188,111.431495 423.741733,111.046455 C423.61999,110.661416 423.559406,110.181911 423.559406,109.607653 L423.559406,109.313921 L429.993673,109.313921 L429.993673,108.199287 C429.993673,107.719782 429.969842,107.216446 429.922752,106.689564 C429.875376,106.162683 429.765693,105.671119 429.593416,105.215158 C429.421139,104.759198 429.166168,104.355495 428.828505,104.004337 C428.524436,103.700267 428.142554,103.458792 427.683436,103.279624 C427.223743,103.100743 426.656376,103.011158 425.98105,103.011158 C425.251455,103.011158 424.633267,103.104188 424.126772,103.28996 C423.61999,103.475733 423.194465,103.747644 422.849911,104.105693 C422.593218,104.362386 422.361792,104.695168 422.155921,105.103752 C421.949762,105.512337 421.792703,106.042663 421.684743,106.694446 C421.576495,107.346515 421.522515,108.08099 421.522515,108.898446 C421.522515,109.526683 421.556396,110.092614 421.623871,110.595663 C421.691347,111.099 421.809644,111.563287 421.978475,111.988812 C422.262158,112.725297 422.726733,113.30099 423.371911,113.716465 C424.016802,114.131941 424.866416,114.339822 425.920178,114.339822 C426.521426,114.339822 427.083911,114.26201 427.607347,114.106673 L427.607347,114.106673 Z M413.03901,114.005317 L413.03901,107.712891 C413.03901,107.34795 413.118257,106.946257 413.27704,106.50695 C413.435822,106.067931 413.711178,105.686337 414.102822,105.362168 C414.494752,105.037713 414.947267,104.875772 415.460653,104.875772 C416.068792,104.875772 416.51097,105.031109 416.78805,105.341782 C417.065129,105.652455 417.203525,106.132248 417.203525,106.780584 L417.203525,114.005317 L419.240416,114.005317 L419.240416,106.243653 C419.240416,105.615416 419.127,105.04805 418.900743,104.541267 C418.674485,104.034772 418.326485,103.653178 417.85703,103.396198 C417.387574,103.139505 416.838871,103.011158 416.210634,103.011158 C415.48104,103.011158 414.861129,103.149842 414.351188,103.426634 C413.84096,103.703713 413.403663,104.081861 413.03901,104.561653 L413.03901,99.0594059 L411.002406,99.0594059 L411.002406,114.005317 L413.03901,114.005317 L413.03901,114.005317 Z M409.449614,114.106673 L409.449614,112.424673 C409.192921,112.451663 408.936228,112.465158 408.679535,112.465158 C408.36197,112.465158 408.103554,112.424673 407.904287,112.343703 C407.70502,112.262446 407.54796,112.14099 407.433109,111.978762 C407.318257,111.816535 407.240733,111.614109 407.19996,111.370911 C407.159475,111.127713 407.139376,110.84403 407.139376,110.519574 L407.139376,104.936356 L409.338208,104.936356 L409.338208,103.335614 L407.139376,103.335614 L407.139376,100.599564 L405.112822,100.599564 L405.112822,103.335614 L403.734604,103.335614 L403.734604,104.936356 L405.112822,104.936356 L405.112822,110.53996 C405.112822,111.087228 405.158188,111.585396 405.249495,112.034465 C405.340802,112.483822 405.506188,112.865416 405.745941,113.179535 C405.985693,113.493653 406.31503,113.736851 406.73395,113.909129 C407.152871,114.081406 407.689802,114.167545 408.34503,114.167545 C408.736673,114.167545 409.105059,114.147158 409.449614,114.106673 L409.449614,114.106673 Z M396.441535,106.268921 C396.559832,105.860337 396.716891,105.536168 396.912713,105.296129 C397.108822,105.056376 397.341683,104.887545 397.612158,104.789634 C397.882059,104.691723 398.179525,104.642624 398.503693,104.642624 C398.848248,104.642624 399.191079,104.710099 399.532188,104.845337 C399.873297,104.980574 400.146931,105.291248 400.353089,105.777644 C400.55896,106.263752 400.66204,106.939366 400.66204,107.804198 L396.24399,107.804198 C396.257485,107.189455 396.323525,106.677792 396.441535,106.268921 L396.441535,106.268921 Z M400.271832,114.106673 C400.795267,113.951337 401.237733,113.713307 401.599228,113.392297 C401.960723,113.071574 402.269673,112.667871 402.526366,112.181475 L400.915287,111.350525 C400.827426,111.499257 400.699079,111.671535 400.530248,111.867356 C400.361416,112.063465 400.119941,112.233733 399.805822,112.37902 C399.491703,112.524307 399.135376,112.59695 398.736842,112.59695 C398.365297,112.59695 398.025624,112.549574 397.718396,112.455109 C397.410881,112.360644 397.145861,112.198416 396.92305,111.968713 C396.69995,111.73901 396.52796,111.431495 396.406218,111.046455 C396.284475,110.661416 396.223891,110.181911 396.223891,109.607653 L396.223891,109.313921 L402.658158,109.313921 L402.658158,108.199287 C402.658158,107.719782 402.634327,107.216446 402.587238,106.689564 C402.539861,106.162683 402.430178,105.671119 402.257901,105.215158 C402.085624,104.759198 401.830653,104.355495 401.49299,104.004337 C401.188921,103.700267 400.80704,103.458792 400.347921,103.279624 C399.888515,103.100743 399.320861,103.011158 398.645535,103.011158 C397.915941,103.011158 397.29804,103.104188 396.791257,103.28996 C396.284475,103.475733 395.85895,103.747644 395.514396,104.105693 C395.257703,104.362386 395.026277,104.695168 394.820406,105.103752 C394.614248,105.512337 394.457188,106.042663 394.349228,106.694446 C394.24098,107.346515 394.187,108.08099 394.187,108.898446 C394.187,109.526683 394.220881,110.092614 394.288356,110.595663 C394.355832,111.099 394.474129,111.563287 394.643248,111.988812 C394.926931,112.725297 395.391218,113.30099 396.036396,113.716465 C396.681287,114.131941 397.530901,114.339822 398.584663,114.339822 C399.185911,114.339822 399.748396,114.26201 400.271832,114.106673 L400.271832,114.106673 Z M386.11897,111.877406 C385.787911,111.580228 385.565099,111.154703 385.450248,110.600832 C385.39598,110.344139 385.352337,110.026574 385.318455,109.648139 C385.284574,109.26999 385.267921,108.888396 385.267921,108.503356 C385.267921,108.084436 385.283139,107.711168 385.313287,107.383554 C385.343723,107.055941 385.39598,106.74699 385.470347,106.456416 C385.531218,106.233604 385.622525,105.990406 385.74398,105.726822 C385.865723,105.463525 386.07504,105.23899 386.372218,105.052931 C386.669396,104.867158 387.040941,104.774416 387.486851,104.774416 C387.790921,104.774416 388.121693,104.843614 388.48003,104.98201 C388.837792,105.120693 389.157079,105.404376 389.437604,105.833347 C389.717554,106.262317 389.85796,106.780584 389.85796,107.388723 L389.85796,109.70901 C389.85796,110.107832 389.78704,110.507802 389.645198,110.909782 C389.503356,111.311762 389.243218,111.64799 388.865069,111.917891 C388.486634,112.188366 388.040723,112.323317 387.527337,112.323317 C386.919485,112.323317 386.449743,112.174871 386.11897,111.877406 L386.11897,111.877406 Z M389.650366,118.149733 C390.234386,117.980614 390.702406,117.713871 391.053564,117.349218 C391.303366,117.07903 391.504644,116.74797 391.656535,116.35604 C391.808426,115.964396 391.884515,115.373198 391.884515,114.58302 L391.884515,103.335614 L389.959317,103.335614 L389.918832,104.581752 C389.661851,104.102248 389.28198,103.720653 388.778931,103.436683 C388.275594,103.153 387.665733,103.011158 386.949921,103.011158 C386.193337,103.011158 385.558208,103.153 385.044822,103.436683 C384.531436,103.720653 384.129455,104.159673 383.839168,104.75403 C383.602574,105.220327 383.43202,105.753812 383.327505,106.355059 C383.222703,106.956307 383.170446,107.672406 383.170446,108.503356 C383.170446,109.239554 383.209208,109.879564 383.286733,110.423386 C383.364545,110.967208 383.477673,111.441832 383.626406,111.84697 C383.882812,112.54297 384.281347,113.08995 384.82201,113.488485 C385.362386,113.887307 386.058099,114.086287 386.909436,114.086287 C387.40904,114.086287 387.890554,114.010485 388.353119,113.858307 C388.81597,113.706416 389.317584,113.346644 389.85796,112.779277 L389.85796,114.420792 C389.85796,114.880198 389.827525,115.244851 389.766653,115.51504 C389.706069,115.785228 389.597822,116.00804 389.442485,116.183762 C389.233168,116.39997 388.969584,116.553871 388.652307,116.644891 C388.334455,116.736198 387.986743,116.781851 387.608594,116.781851 C386.993564,116.781851 386.498842,116.680495 386.124139,116.477782 C385.749149,116.275069 385.463743,115.99799 385.267921,115.646832 L383.484564,116.285119 C383.754465,116.954129 384.242584,117.474119 384.948634,117.845663 C385.654396,118.217208 386.564881,118.40298 387.679515,118.40298 C388.409109,118.40298 389.065772,118.318564 389.650366,118.149733 L389.650366,118.149733 Z M375.644228,112.308099 C375.303119,112.102228 375.044703,111.769446 374.869267,111.31004 C374.754129,111.019752 374.662822,110.67003 374.595634,110.261158 C374.527871,109.852574 374.494277,109.330861 374.494277,108.695733 C374.494277,108.114871 374.519545,107.626752 374.570079,107.231663 C374.620901,106.836287 374.720535,106.439475 374.869267,106.040941 C375.037812,105.581535 375.29795,105.252198 375.649396,105.052931 C376.000554,104.85395 376.395644,104.75403 376.83495,104.75403 C377.280861,104.75403 377.672505,104.85395 378.010168,105.052931 C378.348119,105.252198 378.601366,105.588426 378.770198,106.061327 C378.891941,106.42598 378.984683,106.799248 379.049,107.180842 C379.11303,107.562723 379.145188,108.067495 379.145188,108.695733 C379.145188,109.317366 379.114752,109.817257 379.053881,110.195406 C378.993297,110.573842 378.898545,110.945099 378.770198,111.31004 C378.594475,111.769446 378.334624,112.102228 377.990069,112.308099 C377.645515,112.514257 377.253584,112.61705 376.814564,112.61705 C376.375545,112.61705 375.985337,112.514257 375.644228,112.308099 L375.644228,112.308099 Z M378.450911,114.106673 C378.981238,113.951337 379.452416,113.667653 379.864446,113.255624 C380.276475,112.843594 380.597485,112.326762 380.827188,111.705129 C380.989416,111.239119 381.099099,110.749277 381.156525,110.235891 C381.21395,109.722505 381.242663,109.202515 381.242663,108.675347 C381.242663,108.148465 381.212228,107.633644 381.151356,107.130307 C381.090772,106.62697 380.989416,106.145743 380.847574,105.686337 C380.712337,105.287802 380.529723,104.923149 380.300307,104.592089 C380.070604,104.26103 379.790079,103.978782 379.459307,103.745921 C379.128248,103.512772 378.744931,103.332168 378.309069,103.203822 C377.873495,103.075475 377.381931,103.011158 376.83495,103.011158 C376.267584,103.011158 375.715149,103.090693 375.178218,103.249475 C374.641,103.408257 374.168099,103.696822 373.759515,104.115743 C373.350644,104.534663 373.041693,105.058099 372.832376,105.686337 C372.67704,106.145743 372.569079,106.625248 372.508208,107.125139 C372.447337,107.62503 372.416901,108.141861 372.416901,108.675347 C372.416901,109.202515 372.447337,109.722505 372.508208,110.235891 C372.569079,110.749277 372.67704,111.239119 372.832376,111.705129 C372.967614,112.097059 373.146495,112.455109 373.369307,112.779277 C373.592406,113.103446 373.86604,113.380525 374.190208,113.610228 C374.514376,113.839931 374.894535,114.018812 375.330109,114.147158 C375.76597,114.275505 376.267584,114.339822 376.83495,114.339822 C377.381931,114.339822 377.920584,114.26201 378.450911,114.106673 L378.450911,114.106673 Z M371.239099,114.106673 L371.239099,112.424673 C370.982406,112.451663 370.725713,112.465158 370.46902,112.465158 C370.151455,112.465158 369.89304,112.424673 369.693772,112.343703 C369.494505,112.262446 369.337446,112.14099 369.222594,111.978762 C369.107743,111.816535 369.030218,111.614109 368.989733,111.370911 C368.949248,111.127713 368.928861,110.84403 368.928861,110.519574 L368.928861,104.936356 L371.127693,104.936356 L371.127693,103.335614 L368.928861,103.335614 L368.928861,100.599564 L366.902307,100.599564 L366.902307,103.335614 L365.524089,103.335614 L365.524089,104.936356 L366.902307,104.936356 L366.902307,110.53996 C366.902307,111.087228 366.94796,111.585396 367.03898,112.034465 C367.130287,112.483822 367.295673,112.865416 367.535713,113.179535 C367.775178,113.493653 368.104515,113.736851 368.523436,113.909129 C368.942356,114.081406 369.479287,114.167545 370.134515,114.167545 C370.526446,114.167545 370.894545,114.147158 371.239099,114.106673 L371.239099,114.106673 Z M358.849495,114.005317 L361.230653,114.005317 L361.230653,111.431495 L358.849495,111.431495 L358.849495,114.005317 Z M349.14196,114.005317 L351.107644,106.80097 L353.083663,114.005317 L355.008861,114.005317 L358.038644,103.335614 L356.093059,103.335614 L354.11704,111.158149 L352.13097,103.335614 L350.195723,103.335614 L348.23004,111.158149 L346.25402,103.335614 L344.176931,103.335614 L347.186327,114.005317 L349.14196,114.005317 L349.14196,114.005317 Z M337.481663,112.308099 C337.140554,112.102228 336.882139,111.769446 336.706416,111.31004 C336.591564,111.019752 336.500257,110.67003 336.432782,110.261158 C336.365307,109.852574 336.331713,109.330861 336.331713,108.695733 C336.331713,108.114871 336.35698,107.626752 336.407515,107.231663 C336.458337,106.836287 336.55797,106.439475 336.706416,106.040941 C336.875248,105.581535 337.135386,105.252198 337.486832,105.052931 C337.83799,104.85395 338.233079,104.75403 338.672386,104.75403 C339.11801,104.75403 339.509941,104.85395 339.847604,105.052931 C340.185267,105.252198 340.438802,105.588426 340.607634,106.061327 C340.729376,106.42598 340.822119,106.799248 340.886436,107.180842 C340.950465,107.562723 340.982624,108.067495 340.982624,108.695733 C340.982624,109.317366 340.952188,109.817257 340.891317,110.195406 C340.830446,110.573842 340.73598,110.945099 340.607634,111.31004 C340.431911,111.769446 340.172059,112.102228 339.827505,112.308099 C339.48295,112.514257 339.09102,112.61705 338.652,112.61705 C338.212693,112.61705 337.822772,112.514257 337.481663,112.308099 L337.481663,112.308099 Z M340.288347,114.106673 C340.818673,113.951337 341.289851,113.667653 341.701881,113.255624 C342.113911,112.843594 342.434921,112.326762 342.664624,111.705129 C342.826851,111.239119 342.936535,110.749277 342.99396,110.235891 C343.051386,109.722505 343.080099,109.202515 343.080099,108.675347 C343.080099,108.148465 343.049663,107.633644 342.988792,107.130307 C342.927921,106.62697 342.826851,106.145743 342.68501,105.686337 C342.549772,105.287802 342.367158,104.923149 342.137743,104.592089 C341.90804,104.26103 341.627515,103.978782 341.296743,103.745921 C340.965683,103.512772 340.582366,103.332168 340.146505,103.203822 C339.710931,103.075475 339.219366,103.011158 338.672386,103.011158 C338.104733,103.011158 337.552584,103.090693 337.015653,103.249475 C336.478436,103.408257 336.005535,103.696822 335.59695,104.115743 C335.188079,104.534663 334.879129,105.058099 334.669812,105.686337 C334.514188,106.145743 334.406515,106.625248 334.345644,107.125139 C334.284772,107.62503 334.254337,108.141861 334.254337,108.675347 C334.254337,109.202515 334.284772,109.722505 334.345644,110.235891 C334.406515,110.749277 334.514188,111.239119 334.669812,111.705129 C334.804762,112.097059 334.983931,112.455109 335.206743,112.779277 C335.429842,113.103446 335.703475,113.380525 336.027644,113.610228 C336.351812,113.839931 336.73197,114.018812 337.167545,114.147158 C337.603406,114.275505 338.104733,114.339822 338.672386,114.339822 C339.219366,114.339822 339.75802,114.26201 340.288347,114.106673 L340.288347,114.106673 Z M329.793505,114.005317 L329.793505,109.090822 C329.793505,108.645198 329.850931,108.128366 329.965782,107.540614 C330.080634,106.952861 330.359149,106.437752 330.801614,105.995287 C331.244079,105.553109 331.840446,105.331733 332.590139,105.331733 C332.839941,105.331733 333.026,105.345228 333.147455,105.372218 L333.147455,103.315228 L332.884158,103.315228 C332.19505,103.315228 331.573416,103.514495 331.019545,103.91303 C330.465673,104.311851 330.026653,104.869168 329.702198,105.58498 L329.682099,103.335614 L327.756901,103.335614 L327.756901,114.005317 L329.793505,114.005317 L329.793505,114.005317 Z M322.921079,114.005317 L322.921079,109.090822 C322.921079,108.645198 322.978218,108.128366 323.093356,107.540614 C323.208208,106.952861 323.486723,106.437752 323.929188,105.995287 C324.371653,105.553109 324.967733,105.331733 325.717713,105.331733 C325.967515,105.331733 326.153287,105.345228 326.27503,105.372218 L326.27503,103.315228 L326.011446,103.315228 C325.322624,103.315228 324.70099,103.514495 324.147119,103.91303 C323.593248,104.311851 323.154228,104.869168 322.829772,105.58498 L322.809673,103.335614 L320.884475,103.335614 L320.884475,114.005317 L322.921079,114.005317 L322.921079,114.005317 Z M312.983267,112.308099 C312.642158,112.102228 312.383743,111.769446 312.208307,111.31004 C312.093168,111.019752 312.002149,110.67003 311.934673,110.261158 C311.866911,109.852574 311.833317,109.330861 311.833317,108.695733 C311.833317,108.114871 311.858584,107.626752 311.909406,107.231663 C311.959941,106.836287 312.059574,106.439475 312.208307,106.040941 C312.376851,105.581535 312.63699,105.252198 312.988436,105.052931 C313.339594,104.85395 313.734683,104.75403 314.17399,104.75403 C314.619901,104.75403 315.011545,104.85395 315.349495,105.052931 C315.687158,105.252198 315.940406,105.588426 316.109238,106.061327 C316.23098,106.42598 316.323723,106.799248 316.38804,107.180842 C316.452069,107.562723 316.484228,108.067495 316.484228,108.695733 C316.484228,109.317366 316.453792,109.817257 316.393208,110.195406 C316.332337,110.573842 316.237584,110.945099 316.109238,111.31004 C315.933515,111.769446 315.673663,112.102228 315.329109,112.308099 C314.984554,112.514257 314.592624,112.61705 314.153604,112.61705 C313.714584,112.61705 313.324376,112.514257 312.983267,112.308099 L312.983267,112.308099 Z M315.790238,114.106673 C316.320277,113.951337 316.791455,113.667653 317.203772,113.255624 C317.615515,112.843594 317.936525,112.326762 318.166228,111.705129 C318.328455,111.239119 318.438139,110.749277 318.495564,110.235891 C318.55299,109.722505 318.581703,109.202515 318.581703,108.675347 C318.581703,108.148465 318.551267,107.633644 318.490683,107.130307 C318.429812,106.62697 318.328455,106.145743 318.186614,105.686337 C318.051376,105.287802 317.86905,104.923149 317.639347,104.592089 C317.409644,104.26103 317.129406,103.978782 316.798347,103.745921 C316.467287,103.512772 316.08397,103.332168 315.648396,103.203822 C315.212535,103.075475 314.721257,103.011158 314.17399,103.011158 C313.606624,103.011158 313.054188,103.090693 312.517257,103.249475 C311.980327,103.408257 311.507426,103.696822 311.098554,104.115743 C310.68997,104.534663 310.380733,105.058099 310.171416,105.686337 C310.016079,106.145743 309.908119,106.625248 309.847248,107.125139 C309.786376,107.62503 309.755941,108.141861 309.755941,108.675347 C309.755941,109.202515 309.786376,109.722505 309.847248,110.235891 C309.908119,110.749277 310.016079,111.239119 310.171416,111.705129 C310.306653,112.097059 310.485535,112.455109 310.708634,112.779277 C310.931446,113.103446 311.205079,113.380525 311.529248,113.610228 C311.853416,113.839931 312.233574,114.018812 312.669149,114.147158 C313.10501,114.275505 313.606624,114.339822 314.17399,114.339822 C314.721257,114.339822 315.259911,114.26201 315.790238,114.106673 L315.790238,114.106673 Z M295.648733,114.005317 L295.648733,107.712891 C295.648733,107.34795 295.706158,106.995069 295.82101,106.65396 C295.935861,106.312851 296.094644,106.010505 296.297356,105.747208 C296.499782,105.483624 296.741257,105.272584 297.021782,105.113802 C297.30202,104.95502 297.604366,104.875772 297.928535,104.875772 C298.529782,104.875772 298.94698,105.027663 299.180129,105.331733 C299.41299,105.635515 299.529564,106.118752 299.529564,106.780584 L299.529564,114.005317 L301.556119,114.005317 L301.556119,107.712891 C301.556119,107.34795 301.628762,106.949703 301.77405,106.517287 C301.919337,106.084871 302.182634,105.703277 302.564515,105.372218 C302.946109,105.041158 303.380248,104.875772 303.866356,104.875772 C304.454109,104.875772 304.862693,105.027663 305.092683,105.331733 C305.322099,105.635515 305.43695,106.118752 305.43695,106.780584 L305.43695,114.005317 L307.473842,114.005317 L307.473842,106.243653 C307.473842,105.615416 307.372485,105.044604 307.169772,104.531218 C306.967059,104.017832 306.641168,103.636238 306.192099,103.386149 C305.742743,103.136347 305.207248,103.011158 304.585901,103.011158 C303.856307,103.011158 303.216297,103.158168 302.665871,103.451901 C302.115158,103.745921 301.664079,104.163119 301.312921,104.703495 C301.20496,104.37904 301.029238,104.080139 300.78604,103.806792 C300.542842,103.533158 300.240495,103.332168 299.879287,103.203822 C299.517792,103.075475 299.117535,103.011158 298.678515,103.011158 C297.955525,103.011158 297.335901,103.163337 296.819069,103.467119 C296.302238,103.771188 295.881881,104.176614 295.557426,104.683109 L295.537327,103.335614 L293.612129,103.335614 L293.612129,114.005317 L295.648733,114.005317 L295.648733,114.005317 Z M285.711208,112.308099 C285.369812,112.102228 285.111396,111.769446 284.93596,111.31004 C284.821109,111.019752 284.729802,110.67003 284.662327,110.261158 C284.594851,109.852574 284.56097,109.330861 284.56097,108.695733 C284.56097,108.114871 284.586238,107.626752 284.637059,107.231663 C284.687594,106.836287 284.787228,106.439475 284.93596,106.040941 C285.104792,105.581535 285.364931,105.252198 285.716089,105.052931 C286.067248,104.85395 286.462624,104.75403 286.901644,104.75403 C287.347554,104.75403 287.739198,104.85395 288.077149,105.052931 C288.414812,105.252198 288.668059,105.588426 288.837178,106.061327 C288.958634,106.42598 289.051376,106.799248 289.115693,107.180842 C289.179723,107.562723 289.211881,108.067495 289.211881,108.695733 C289.211881,109.317366 289.181733,109.817257 289.120861,110.195406 C289.05999,110.573842 288.965238,110.945099 288.837178,111.31004 C288.661455,111.769446 288.401317,112.102228 288.056762,112.308099 C287.712208,112.514257 287.320564,112.61705 286.881545,112.61705 C286.442238,112.61705 286.05203,112.514257 285.711208,112.308099 L285.711208,112.308099 Z M288.517891,114.106673 C289.048218,113.951337 289.519396,113.667653 289.931426,113.255624 C290.343455,112.843594 290.664178,112.326762 290.894168,111.705129 C291.056109,111.239119 291.165792,110.749277 291.223505,110.235891 C291.280644,109.722505 291.309356,109.202515 291.309356,108.675347 C291.309356,108.148465 291.279208,107.633644 291.218337,107.130307 C291.157465,106.62697 291.056109,106.145743 290.914267,105.686337 C290.77903,105.287802 290.596703,104.923149 290.367,104.592089 C290.137297,104.26103 289.857059,103.978782 289.526,103.745921 C289.194941,103.512772 288.811624,103.332168 288.37605,103.203822 C287.940188,103.075475 287.448911,103.011158 286.901644,103.011158 C286.334277,103.011158 285.782129,103.090693 285.244911,103.249475 C284.70798,103.408257 284.235079,103.696822 283.826495,104.115743 C283.417624,104.534663 283.108673,105.058099 282.899356,105.686337 C282.743733,106.145743 282.635772,106.625248 282.574901,107.125139 C282.514317,107.62503 282.483881,108.141861 282.483881,108.675347 C282.483881,109.202515 282.514317,109.722505 282.574901,110.235891 C282.635772,110.749277 282.743733,111.239119 282.899356,111.705129 C283.034307,112.097059 283.213475,112.455109 283.436287,112.779277 C283.659099,113.103446 283.932733,113.380525 284.256901,113.610228 C284.581356,113.839931 284.961228,114.018812 285.397089,114.147158 C285.832663,114.275505 286.334277,114.339822 286.901644,114.339822 C287.448911,114.339822 287.987564,114.26201 288.517891,114.106673 L288.517891,114.106673 Z M281.306079,114.106673 L281.306079,112.424673 C281.049099,112.451663 280.792406,112.465158 280.536,112.465158 C280.218149,112.465158 279.96002,112.424673 279.760752,112.343703 C279.561485,112.262446 279.404426,112.14099 279.289574,111.978762 C279.174723,111.816535 279.096911,111.614109 279.056426,111.370911 C279.015941,111.127713 278.995554,110.84403 278.995554,110.519574 L278.995554,104.936356 L281.194386,104.936356 L281.194386,103.335614 L278.995554,103.335614 L278.995554,100.599564 L276.969,100.599564 L276.969,103.335614 L275.591069,103.335614 L275.591069,104.936356 L276.969,104.936356 L276.969,110.53996 C276.969,111.087228 277.014653,111.585396 277.10596,112.034465 C277.19698,112.483822 277.362653,112.865416 277.602406,113.179535 C277.842158,113.493653 278.171495,113.736851 278.590416,113.909129 C279.00905,114.081406 279.546267,114.167545 280.201495,114.167545 C280.593139,114.167545 280.961525,114.147158 281.306079,114.106673 L281.306079,114.106673 Z M268.501287,114.005317 L270.882446,114.005317 L270.882446,111.431495 L268.501287,111.431495 L268.501287,114.005317 Z M260.200109,111.877406 C259.86905,111.580228 259.646238,111.154703 259.531386,110.600832 C259.477119,110.344139 259.433475,110.026574 259.399594,109.648139 C259.365713,109.26999 259.349059,108.888396 259.349059,108.503356 C259.349059,108.084436 259.364277,107.711168 259.394713,107.383554 C259.424861,107.055941 259.477119,106.74699 259.551772,106.456416 C259.612356,106.233604 259.703663,105.990406 259.825119,105.726822 C259.946861,105.463525 260.156178,105.23899 260.453356,105.052931 C260.750535,104.867158 261.122079,104.774416 261.56799,104.774416 C261.872059,104.774416 262.202832,104.843614 262.561168,104.98201 C262.918931,105.120693 263.238218,105.404376 263.518743,105.833347 C263.79898,106.262317 263.939099,106.780584 263.939099,107.388723 L263.939099,109.70901 C263.939099,110.107832 263.868178,110.507802 263.726337,110.909782 C263.584495,111.311762 263.324356,111.64799 262.946208,111.917891 C262.567772,112.188366 262.121861,112.323317 261.608475,112.323317 C261.000624,112.323317 260.531168,112.174871 260.200109,111.877406 L260.200109,111.877406 Z M263.731505,118.149733 C264.315525,117.980614 264.783545,117.713871 265.134703,117.349218 C265.384505,117.07903 265.585782,116.74797 265.737673,116.35604 C265.889564,115.964396 265.965653,115.373198 265.965653,114.58302 L265.965653,103.335614 L264.040455,103.335614 L263.99997,104.581752 C263.74299,104.102248 263.363119,103.720653 262.860069,103.436683 C262.356733,103.153 261.746871,103.011158 261.031059,103.011158 C260.274475,103.011158 259.639347,103.153 259.12596,103.436683 C258.612574,103.720653 258.210594,104.159673 257.920307,104.75403 C257.683713,105.220327 257.513158,105.753812 257.408644,106.355059 C257.303842,106.956307 257.251584,107.672406 257.251584,108.503356 C257.251584,109.239554 257.290347,109.879564 257.367871,110.423386 C257.445683,110.967208 257.558812,111.441832 257.707545,111.84697 C257.964238,112.54297 258.362485,113.08995 258.903149,113.488485 C259.443525,113.887307 260.139238,114.086287 260.990574,114.086287 C261.490178,114.086287 261.971693,114.010485 262.434545,113.858307 C262.897109,113.706416 263.398723,113.346644 263.939099,112.779277 L263.939099,114.420792 C263.939099,114.880198 263.908663,115.244851 263.848079,115.51504 C263.787208,115.785228 263.67896,116.00804 263.523624,116.183762 C263.314307,116.39997 263.050723,116.553871 262.733446,116.644891 C262.415594,116.736198 262.067881,116.781851 261.689733,116.781851 C261.07499,116.781851 260.57998,116.680495 260.205277,116.477782 C259.830287,116.275069 259.544881,115.99799 259.349059,115.646832 L257.565703,116.285119 C257.835604,116.954129 258.323723,117.474119 259.029772,117.845663 C259.735535,118.217208 260.64602,118.40298 261.760653,118.40298 C262.490248,118.40298 263.146911,118.318564 263.731505,118.149733 L263.731505,118.149733 Z M248.767792,114.005317 L248.767792,107.712891 C248.767792,107.34795 248.847327,106.946257 249.006109,106.50695 C249.164604,106.067931 249.43996,105.686337 249.831891,105.362168 C250.223535,105.037713 250.67605,104.875772 251.189723,104.875772 C251.797574,104.875772 252.24004,105.031109 252.517119,105.341782 C252.793911,105.652455 252.932594,106.132248 252.932594,106.780584 L252.932594,114.005317 L254.969198,114.005317 L254.969198,106.243653 C254.969198,105.615416 254.856069,105.04805 254.629812,104.541267 C254.403267,104.034772 254.055554,103.653178 253.586099,103.396198 C253.116356,103.139505 252.567653,103.011158 251.939416,103.011158 C251.182832,103.011158 250.541099,103.163337 250.014218,103.467119 C249.487337,103.771188 249.041426,104.176614 248.676772,104.683109 L248.656386,103.335614 L246.731188,103.335614 L246.731188,114.005317 L248.767792,114.005317 L248.767792,114.005317 Z M242.017109,101.136495 L244.053713,101.136495 L244.053713,99.0594059 L242.017109,99.0594059 L242.017109,101.136495 Z M242.017109,114.005604 L244.053713,114.005604 L244.053713,103.335614 L242.017109,103.335614 L242.017109,114.005604 Z M237.181287,114.005317 L237.181287,109.090822 C237.181287,108.645198 237.238426,108.128366 237.353564,107.540614 C237.468129,106.952861 237.746931,106.437752 238.189396,105.995287 C238.631861,105.553109 239.227941,105.331733 239.977921,105.331733 C240.227723,105.331733 240.413495,105.345228 240.535238,105.372218 L240.535238,103.315228 L240.271653,103.315228 C239.582832,103.315228 238.961198,103.514495 238.407327,103.91303 C237.853455,104.311851 237.414149,104.869168 237.08998,105.58498 L237.069881,103.335614 L235.144396,103.335614 L235.144396,114.005317 L237.181287,114.005317 L237.181287,114.005317 Z M226.726931,106.268921 C226.844941,105.860337 227.002,105.536168 227.198109,105.296129 C227.393931,105.056376 227.626792,104.887545 227.897267,104.789634 C228.167168,104.691723 228.464634,104.642624 228.788802,104.642624 C229.133356,104.642624 229.476188,104.710099 229.817297,104.845337 C230.158406,104.980574 230.43204,105.291248 230.638198,105.777644 C230.844069,106.263752 230.947149,106.939366 230.947149,107.804198 L226.529099,107.804198 C226.542594,107.189455 226.608634,106.677792 226.726931,106.268921 L226.726931,106.268921 Z M230.556941,114.106673 C231.080376,113.951337 231.522842,113.713307 231.884337,113.392297 C232.245832,113.071574 232.554782,112.667871 232.811475,112.181475 L231.200396,111.350525 C231.112535,111.499257 230.984188,111.671535 230.815356,111.867356 C230.646525,112.063465 230.40505,112.233733 230.090931,112.37902 C229.776812,112.524307 229.420485,112.59695 229.02195,112.59695 C228.650406,112.59695 228.310733,112.549574 228.003505,112.455109 C227.69599,112.360644 227.43097,112.198416 227.208158,111.968713 C226.985059,111.73901 226.813069,111.431495 226.691327,111.046455 C226.569871,110.661416 226.509,110.181911 226.509,109.607653 L226.509,109.313921 L232.943267,109.313921 L232.943267,108.199287 C232.943267,107.719782 232.919436,107.216446 232.872347,106.689564 C232.82497,106.162683 232.715287,105.671119 232.54301,105.215158 C232.370733,104.759198 232.115762,104.355495 231.778099,104.004337 C231.47403,103.700267 231.092436,103.458792 230.63303,103.279624 C230.173624,103.100743 229.60597,103.011158 228.930644,103.011158 C228.20105,103.011158 227.583149,103.104188 227.076366,103.28996 C226.569871,103.475733 226.144059,103.747644 225.799792,104.105693 C225.542812,104.362386 225.311673,104.695168 225.105515,105.103752 C224.899356,105.512337 224.742297,106.042663 224.634337,106.694446 C224.526376,107.346515 224.472109,108.08099 224.472109,108.898446 C224.472109,109.526683 224.50599,110.092614 224.573465,110.595663 C224.640941,111.099 224.759238,111.563287 224.928356,111.988812 C225.21204,112.725297 225.676327,113.30099 226.321505,113.716465 C226.966396,114.131941 227.81601,114.339822 228.869772,114.339822 C229.47102,114.339822 230.033505,114.26201 230.556941,114.106673 L230.556941,114.106673 Z M216.429347,106.268921 C216.547644,105.860337 216.704703,105.536168 216.900525,105.296129 C217.096347,105.056376 217.329495,104.887545 217.599683,104.789634 C217.869871,104.691723 218.167337,104.642624 218.491505,104.642624 C218.836059,104.642624 219.178604,104.710099 219.52,104.845337 C219.861109,104.980574 220.134455,105.291248 220.340614,105.777644 C220.546772,106.263752 220.649851,106.939366 220.649851,107.804198 L216.231802,107.804198 C216.245297,107.189455 216.31105,106.677792 216.429347,106.268921 L216.429347,106.268921 Z M220.259644,114.106673 C220.783079,113.951337 221.225545,113.713307 221.58704,113.392297 C221.948248,113.071574 222.257485,112.667871 222.514178,112.181475 L220.903099,111.350525 C220.815238,111.499257 220.686891,111.671535 220.518059,111.867356 C220.349228,112.063465 220.107752,112.233733 219.793634,112.37902 C219.479515,112.524307 219.122901,112.59695 218.724653,112.59695 C218.352822,112.59695 218.013436,112.549574 217.706208,112.455109 C217.398693,112.360644 217.133673,112.198416 216.910861,111.968713 C216.687762,111.73901 216.515485,111.431495 216.39403,111.046455 C216.272287,110.661416 216.211703,110.181911 216.211703,109.607653 L216.211703,109.313921 L222.64597,109.313921 L222.64597,108.199287 C222.64597,107.719782 222.622139,107.216446 222.57505,106.689564 C222.527673,106.162683 222.41799,105.671119 222.245713,105.215158 C222.073436,104.759198 221.818465,104.355495 221.480515,104.004337 C221.176733,103.700267 220.794851,103.458792 220.335733,103.279624 C219.87604,103.100743 219.308673,103.011158 218.633347,103.011158 C217.903752,103.011158 217.285564,103.104188 216.779069,103.28996 C216.272287,103.475733 215.846762,103.747644 215.502208,104.105693 C215.245515,104.362386 215.014089,104.695168 214.808218,105.103752 C214.602059,105.512337 214.445,106.042663 214.33704,106.694446 C214.228792,107.346515 214.174812,108.08099 214.174812,108.898446 C214.174812,109.526683 214.208693,110.092614 214.276168,110.595663 C214.343644,111.099 214.461941,111.563287 214.630772,111.988812 C214.914455,112.725297 215.37903,113.30099 216.024208,113.716465 C216.669099,114.131941 217.518713,114.339822 218.572475,114.339822 C219.173723,114.339822 219.735921,114.26201 220.259644,114.106673 L220.259644,114.106673 Z M205.691307,114.005317 L205.691307,107.712891 C205.691307,107.34795 205.770554,106.946257 205.929337,106.50695 C206.088119,106.067931 206.363475,105.686337 206.755119,105.362168 C207.14705,105.037713 207.599564,104.875772 208.11295,104.875772 C208.721089,104.875772 209.163267,105.031109 209.440347,105.341782 C209.717426,105.652455 209.855822,106.132248 209.855822,106.780584 L209.855822,114.005317 L211.892426,114.005317 L211.892426,106.243653 C211.892426,105.615416 211.779297,105.04805 211.55304,104.541267 C211.326782,104.034772 210.978782,103.653178 210.509327,103.396198 C210.039871,103.139505 209.491168,103.011158 208.862931,103.011158 C208.106347,103.011158 207.464614,103.163337 206.937733,103.467119 C206.410851,103.771188 205.964941,104.176614 205.6,104.683109 L205.579901,103.335614 L203.654703,103.335614 L203.654703,114.005317 L205.691307,114.005317 L205.691307,114.005317 Z M198.73303,101.136495 L200.769634,101.136495 L200.769634,99.0594059 L198.73303,99.0594059 L198.73303,101.136495 Z M198.73303,114.005604 L200.769634,114.005604 L200.769634,103.335614 L198.73303,103.335614 L198.73303,114.005604 Z M190.289723,111.877406 C189.958663,111.580228 189.735851,111.154703 189.621,110.600832 C189.56702,110.344139 189.523089,110.026574 189.489208,109.648139 C189.455327,109.26999 189.438673,108.888396 189.438673,108.503356 C189.438673,108.084436 189.453891,107.711168 189.484327,107.383554 C189.514762,107.055941 189.56702,106.74699 189.641386,106.456416 C189.70197,106.233604 189.793277,105.990406 189.91502,105.726822 C190.036475,105.463525 190.245792,105.23899 190.543257,105.052931 C190.840436,104.867158 191.21198,104.774416 191.657604,104.774416 C191.961673,104.774416 192.292733,104.843614 192.650782,104.98201 C193.008832,105.120693 193.327832,105.404376 193.608356,105.833347 C193.888594,106.262317 194.028713,106.780584 194.028713,107.388723 L194.028713,109.70901 C194.028713,110.107832 193.957792,110.507802 193.81595,110.909782 C193.674109,111.311762 193.41397,111.64799 193.035822,111.917891 C192.657386,112.188366 192.211475,112.323317 191.698376,112.323317 C191.090238,112.323317 190.620782,112.174871 190.289723,111.877406 L190.289723,111.877406 Z M193.821119,118.149733 C194.405426,117.980614 194.873158,117.713871 195.224604,117.349218 C195.474406,117.07903 195.675396,116.74797 195.827287,116.35604 C195.979465,115.964396 196.055267,115.373198 196.055267,114.58302 L196.055267,103.335614 L194.130069,103.335614 L194.089584,104.581752 C193.832891,104.102248 193.452733,103.720653 192.949683,103.436683 C192.446347,103.153 191.836772,103.011158 191.120673,103.011158 C190.364089,103.011158 189.72896,103.153 189.215861,103.436683 C188.702188,103.720653 188.300208,104.159673 188.009921,104.75403 C187.773327,105.220327 187.602772,105.753812 187.498257,106.355059 C187.393455,106.956307 187.341198,107.672406 187.341198,108.503356 C187.341198,109.239554 187.37996,109.879564 187.457772,110.423386 C187.535297,110.967208 187.648426,111.441832 187.797158,111.84697 C188.053851,112.54297 188.452386,113.08995 188.992762,113.488485 C189.533139,113.887307 190.229139,114.086287 191.080188,114.086287 C191.580079,114.086287 192.061307,114.010485 192.524158,113.858307 C192.986723,113.706416 193.488337,113.346644 194.028713,112.779277 L194.028713,114.420792 C194.028713,114.880198 193.998564,115.244851 193.937693,115.51504 C193.876822,115.785228 193.768574,116.00804 193.613238,116.183762 C193.403921,116.39997 193.140337,116.553871 192.823059,116.644891 C192.505495,116.736198 192.157495,116.781851 191.779347,116.781851 C191.164604,116.781851 190.669881,116.680495 190.294891,116.477782 C189.919901,116.275069 189.634495,115.99799 189.438673,115.646832 L187.655317,116.285119 C187.925505,116.954129 188.413624,117.474119 189.119386,117.845663 C189.825149,118.217208 190.735634,118.40298 191.850267,118.40298 C192.579861,118.40298 193.236812,118.318564 193.821119,118.149733 L193.821119,118.149733 Z M178.857693,114.005317 L178.857693,107.712891 C178.857693,107.34795 178.936941,106.946257 179.095723,106.50695 C179.254218,106.067931 179.529574,105.686337 179.921505,105.362168 C180.313149,105.037713 180.76595,104.875772 181.279337,104.875772 C181.887188,104.875772 182.329653,105.031109 182.606733,105.341782 C182.883525,105.652455 183.022208,106.132248 183.022208,106.780584 L183.022208,114.005317 L185.058812,114.005317 L185.058812,106.243653 C185.058812,105.615416 184.945683,105.04805 184.719426,104.541267 C184.492881,104.034772 184.145168,103.653178 183.675713,103.396198 C183.206257,103.139505 182.657267,103.011158 182.02903,103.011158 C181.272446,103.011158 180.630713,103.163337 180.103832,103.467119 C179.57695,103.771188 179.13104,104.176614 178.766386,104.683109 L178.746,103.335614 L176.820802,103.335614 L176.820802,114.005317 L178.857693,114.005317 L178.857693,114.005317 Z M168.40305,106.268921 C168.521347,105.860337 168.678406,105.536168 168.874228,105.296129 C169.07005,105.056376 169.303198,104.887545 169.573386,104.789634 C169.843574,104.691723 170.14104,104.642624 170.465208,104.642624 C170.809762,104.642624 171.152594,104.710099 171.493703,104.845337 C171.834812,104.980574 172.108158,105.291248 172.314317,105.777644 C172.520475,106.263752 172.623554,106.939366 172.623554,107.804198 L168.205505,107.804198 C168.219,107.189455 168.284752,106.677792 168.40305,106.268921 L168.40305,106.268921 Z M172.233347,114.106673 C172.756782,113.951337 173.199248,113.713307 173.560743,113.392297 C173.92195,113.071574 174.231188,112.667871 174.487881,112.181475 L172.876802,111.350525 C172.788941,111.499257 172.660594,111.671535 172.491762,111.867356 C172.322931,112.063465 172.081455,112.233733 171.767337,112.37902 C171.453218,112.524307 171.096604,112.59695 170.698356,112.59695 C170.326525,112.59695 169.987139,112.549574 169.679911,112.455109 C169.372396,112.360644 169.107376,112.198416 168.884564,111.968713 C168.661465,111.73901 168.489188,111.431495 168.367733,111.046455 C168.24599,110.661416 168.185406,110.181911 168.185406,109.607653 L168.185406,109.313921 L174.619673,109.313921 L174.619673,108.199287 C174.619673,107.719782 174.595842,107.216446 174.548752,106.689564 C174.501376,106.162683 174.391693,105.671119 174.219416,105.215158 C174.047139,104.759198 173.792168,104.355495 173.454218,104.004337 C173.150436,103.700267 172.768554,103.458792 172.309436,103.279624 C171.849743,103.100743 171.282376,103.011158 170.60705,103.011158 C169.877455,103.011158 169.259267,103.104188 168.752772,103.28996 C168.24599,103.475733 167.820465,103.747644 167.475911,104.105693 C167.219218,104.362386 166.987792,104.695168 166.781921,105.103752 C166.575762,105.512337 166.418703,106.042663 166.310743,106.694446 C166.202495,107.346515 166.148515,108.08099 166.148515,108.898446 C166.148515,109.526683 166.182396,110.092614 166.249871,110.595663 C166.317347,111.099 166.435644,111.563287 166.604475,111.988812 C166.888158,112.725297 167.352733,113.30099 167.997911,113.716465 C168.642802,114.131941 169.492416,114.339822 170.546178,114.339822 C171.147426,114.339822 171.709624,114.26201 172.233347,114.106673 L172.233347,114.106673 Z" id="Claim"></path>
                </g>
            </g>
        </g>
    </g>
</svg>