<?xml version="1.0" encoding="UTF-8" standalone="no"?>
<svg width="342px" height="25px" viewBox="0 0 342 25" version="1.1" xmlns="http://www.w3.org/2000/svg" xmlns:xlink="http://www.w3.org/1999/xlink" xmlns:sketch="http://www.bohemiancoding.com/sketch/ns">
    <!-- Generator: Sketch 3.4.2 (15857) - http://www.bohemiancoding.com/sketch -->
    <title>Claim</title>
    <desc>Created with Sketch.</desc>
    <defs></defs>
    <g id="00_01-Header-Internet" stroke="none" stroke-width="1" fill="none" fill-rule="evenodd" sketch:type="MSPage">
        <g id="00_01_Header_D_INTERNET" sketch:type="MSArtboardGroup" transform="translate(-351.000000, -123.000000)" fill="#FFFFFF">
            <g id="00_01_Header_D-INTERNET" sketch:type="MSLayerGroup" transform="translate(-1.000000, 0.000000)">
                <g id="Logo-negativ" transform="translate(94.000000, 0.546875)" sketch:type="MSShapeGroup">
                    <path d="M596.396986,141.52267 L599.352882,141.52267 L599.352882,138.327607 L596.396986,138.327607 L596.396986,141.52267 Z M591.214098,141.52267 L591.214098,135.421968 C591.214098,134.868784 591.285028,134.227206 591.427601,133.497588 C591.570174,132.76797 591.916271,132.12853 592.465533,131.579267 C593.014796,131.030361 593.75475,130.755551 594.685753,130.755551 C594.995849,130.755551 595.226461,130.772303 595.377588,130.805808 L595.377588,128.252324 L595.050383,128.252324 C594.194945,128.252324 593.423268,128.499689 592.736066,128.994417 C592.048151,129.489502 591.503165,130.181338 591.100753,131.069925 L591.075446,128.277631 L588.685565,128.277631 L588.685565,141.52267 L591.214098,141.52267 L591.214098,141.52267 Z M578.236027,131.918947 C578.382878,131.411744 578.577846,131.009331 578.820933,130.711353 C579.064021,130.413732 579.353444,130.20415 579.688847,130.082606 C580.02425,129.961063 580.393514,129.900113 580.795927,129.900113 C581.223646,129.900113 581.649227,129.983874 582.072669,130.151754 C582.496111,130.319634 582.835435,130.705294 583.091354,131.309091 C583.347272,131.912532 583.475232,132.751218 583.475232,133.824793 L577.990802,133.824793 C578.007554,133.061671 578.089177,132.426508 578.236027,131.918947 L578.236027,131.918947 Z M582.990839,141.648491 C583.640616,141.455661 584.189879,141.160178 584.638628,140.761686 C585.08702,140.363551 585.470898,139.862406 585.789549,139.258609 L583.789605,138.227093 C583.680537,138.411725 583.521211,138.625585 583.311629,138.868672 C583.102046,139.112116 582.802287,139.32348 582.412349,139.503835 C582.022412,139.68419 581.580079,139.774368 581.08535,139.774368 C580.62377,139.774368 580.202467,139.715556 579.821084,139.59829 C579.439344,139.481023 579.110357,139.279639 578.833765,138.994493 C578.556817,138.709347 578.342957,138.327607 578.192186,137.849631 C578.041059,137.371655 577.965851,136.776412 577.965851,136.063547 L577.965851,135.698916 L585.953152,135.698916 L585.953152,134.315244 C585.953152,133.720002 585.923568,133.095175 585.865113,132.441121 C585.806301,131.787067 585.670144,131.176855 585.456284,130.610839 C585.242425,130.044824 584.925913,129.54368 584.506748,129.107763 C584.129286,128.730301 583.65523,128.430541 583.085294,128.208127 C582.514645,127.986069 581.810334,127.874862 580.972005,127.874862 C580.066309,127.874862 579.29891,127.990346 578.670162,128.220958 C578.041059,128.45157 577.512825,128.789112 577.085106,129.233584 C576.766455,129.552234 576.479171,129.96534 576.223608,130.472544 C575.96769,130.979747 575.772721,131.638078 575.638702,132.447181 C575.504327,133.256639 575.437318,134.168394 575.437318,135.183158 C575.437318,135.963033 575.479377,136.665562 575.563139,137.290032 C575.6469,137.914858 575.793751,138.49121 576.003333,139.019443 C576.355488,139.933693 576.932197,140.64834 577.733101,141.164099 C578.533649,141.679857 579.588333,141.937914 580.896441,141.937914 C581.642811,141.937914 582.341063,141.841321 582.990839,141.648491 L582.990839,141.648491 Z M564.906158,141.52267 L564.906158,133.711447 C564.906158,133.258421 565.004533,132.759772 565.20164,132.21443 C565.398748,131.669445 565.740566,131.195745 566.226741,130.793333 C566.713271,130.390564 567.275009,130.189536 567.912311,130.189536 C568.667235,130.189536 569.216142,130.382366 569.560099,130.768026 C569.904057,131.153686 570.075857,131.749285 570.075857,132.55411 L570.075857,141.52267 L572.604391,141.52267 L572.604391,131.887581 C572.604391,131.107707 572.4636,130.403396 572.182731,129.774292 C571.901862,129.145545 571.469866,128.671846 570.887098,128.352838 C570.304331,128.034188 569.623188,127.874862 568.843313,127.874862 C567.937618,127.874862 567.168079,128.047019 566.535055,128.39062 C565.901674,128.734578 565.358827,129.204 564.906158,129.799599 L564.906158,122.969279 L562.37798,122.969279 L562.37798,141.52267 L564.906158,141.52267 L564.906158,141.52267 Z M560.450392,141.648491 L560.450392,139.560508 C560.131742,139.594013 559.813091,139.610765 559.49444,139.610765 C559.100225,139.610765 558.779436,139.560508 558.532072,139.459994 C558.284707,139.359123 558.089739,139.208352 557.947166,139.006968 C557.804593,138.805583 557.708356,138.554298 557.657742,138.2524 C557.607485,137.950501 557.582535,137.598346 557.582535,137.195577 L557.582535,130.264743 L560.312097,130.264743 L560.312097,128.277631 L557.582535,128.277631 L557.582535,124.881184 L555.066833,124.881184 L555.066833,128.277631 L553.355956,128.277631 L553.355956,130.264743 L555.066833,130.264743 L555.066833,137.220884 C555.066833,137.900244 555.123149,138.518655 555.236495,139.076116 C555.349841,139.633933 555.555146,140.107632 555.852767,140.497569 C556.150388,140.887507 556.559217,141.189405 557.079252,141.403265 C557.599287,141.617125 558.265816,141.724054 559.079196,141.724054 C559.56537,141.724054 560.022673,141.698748 560.450392,141.648491 L560.450392,141.648491 Z M544.302566,131.918947 C544.449416,131.411744 544.644385,131.009331 544.887472,130.711353 C545.130915,130.413732 545.419982,130.20415 545.755742,130.082606 C546.090789,129.961063 546.460053,129.900113 546.862465,129.900113 C547.290185,129.900113 547.715765,129.983874 548.139207,130.151754 C548.562649,130.319634 548.90233,130.705294 549.158248,131.309091 C549.413811,131.912532 549.54177,132.751218 549.54177,133.824793 L544.05734,133.824793 C544.074092,133.061671 544.156072,132.426508 544.302566,131.918947 L544.302566,131.918947 Z M549.057378,141.648491 C549.707155,141.455661 550.256417,141.160178 550.705166,140.761686 C551.153915,140.363551 551.537437,139.862406 551.856087,139.258609 L549.856144,138.227093 C549.747075,138.411725 549.58775,138.625585 549.378167,138.868672 C549.168585,139.112116 548.868825,139.32348 548.478888,139.503835 C548.08895,139.68419 547.646617,139.774368 547.151889,139.774368 C546.690665,139.774368 546.269005,139.715556 545.887622,139.59829 C545.505883,139.481023 545.176895,139.279639 544.900303,138.994493 C544.623355,138.709347 544.409852,138.327607 544.258725,137.849631 C544.107597,137.371655 544.03239,136.776412 544.03239,136.063547 L544.03239,135.698916 L552.01969,135.698916 L552.01969,134.315244 C552.01969,133.720002 551.990106,133.095175 551.931651,132.441121 C551.87284,131.787067 551.736682,131.176855 551.522823,130.610839 C551.308963,130.044824 550.992451,129.54368 550.573286,129.107763 C550.195824,128.730301 549.721768,128.430541 549.151833,128.208127 C548.58154,127.986069 547.876873,127.874862 547.038543,127.874862 C546.132848,127.874862 545.365804,127.990346 544.736701,128.220958 C544.107597,128.45157 543.579364,128.789112 543.151645,129.233584 C542.832994,129.552234 542.545709,129.96534 542.290147,130.472544 C542.034228,130.979747 541.839259,131.638078 541.705241,132.447181 C541.570866,133.256639 541.503856,134.168394 541.503856,135.183158 C541.503856,135.963033 541.545915,136.665562 541.629677,137.290032 C541.713439,137.914858 541.860289,138.49121 542.070228,139.019443 C542.422383,139.933693 542.998735,140.64834 543.799639,141.164099 C544.600187,141.679857 545.654871,141.937914 546.962979,141.937914 C547.709349,141.937914 548.407601,141.841321 549.057378,141.648491 L549.057378,141.648491 Z M531.488454,138.881147 C531.077487,138.512239 530.800895,137.984006 530.658322,137.296447 C530.590956,136.977797 530.536779,136.583582 530.49472,136.113804 C530.452661,135.644382 530.431988,135.170683 530.431988,134.692707 C530.431988,134.172671 530.450878,133.709309 530.488304,133.302619 C530.526086,132.895929 530.590956,132.512408 530.683273,132.151698 C530.758836,131.875106 530.872182,131.573208 531.022953,131.246003 C531.17408,130.919154 531.43392,130.640423 531.802828,130.409455 C532.171735,130.178843 532.632959,130.063715 533.186499,130.063715 C533.563962,130.063715 533.974572,130.149616 534.4194,130.321416 C534.863515,130.493573 535.259868,130.845729 535.608103,131.378239 C535.955625,131.910749 536.129921,132.55411 536.129921,133.309035 L536.129921,136.189368 C536.129921,136.684453 536.041882,137.180963 535.865804,137.679969 C535.689726,138.178975 535.366798,138.596357 534.897376,138.931404 C534.427598,139.267164 533.874058,139.434687 533.236756,139.434687 C532.482188,139.434687 531.899064,139.250411 531.488454,138.881147 L531.488454,138.881147 Z M535.87222,146.667419 C536.597204,146.457481 537.178189,146.126355 537.614106,145.673685 C537.924203,145.338282 538.174062,144.927315 538.362615,144.440784 C538.551168,143.95461 538.645622,143.220715 538.645622,142.239812 L538.645622,128.277631 L536.255741,128.277631 L536.205484,129.824549 C535.886477,129.229306 535.414917,128.755607 534.790446,128.403095 C534.16562,128.05094 533.408557,127.874862 532.51997,127.874862 C531.58077,127.874862 530.792341,128.05094 530.155039,128.403095 C529.517738,128.755607 529.018732,129.300593 528.658378,130.038409 C528.364678,130.617255 528.152957,131.279507 528.023215,132.025877 C527.893117,132.772247 527.828247,133.66119 527.828247,134.692707 C527.828247,135.6066 527.876365,136.401089 527.972602,137.076172 C528.069195,137.751256 528.20963,138.340439 528.394262,138.843365 C528.712556,139.707358 529.207285,140.386362 529.878448,140.881091 C530.549254,141.376176 531.41289,141.623184 532.469713,141.623184 C533.089906,141.623184 533.687644,141.529086 534.261857,141.340176 C534.836426,141.151623 535.459114,140.705013 536.129921,140.000702 L536.129921,142.038428 C536.129921,142.60872 536.092139,143.06139 536.016575,143.396793 C535.941368,143.732196 535.806993,144.008788 535.614162,144.226925 C535.354323,144.495319 535.027118,144.686366 534.63326,144.799356 C534.238689,144.912701 533.807049,144.969374 533.337627,144.969374 C532.574148,144.969374 531.960014,144.843553 531.49487,144.591912 C531.029369,144.34027 530.675075,143.996313 530.431988,143.560396 L528.218184,144.352745 C528.553231,145.183234 529.159166,145.828733 530.035634,146.289957 C530.911746,146.751181 532.041994,146.981793 533.425666,146.981793 C534.331361,146.981793 535.146523,146.877002 535.87222,146.667419 L535.87222,146.667419 Z M518.485433,139.415796 C518.061991,139.160234 517.741201,138.747129 517.523421,138.176836 C517.380492,137.816483 517.267146,137.382348 517.183741,136.874788 C517.099623,136.367584 517.05792,135.719946 517.05792,134.931517 C517.05792,134.210453 517.089286,133.604518 517.152018,133.114066 C517.215107,132.623258 517.338789,132.130668 517.523421,131.63594 C517.732647,131.065648 518.055575,130.656819 518.491849,130.409455 C518.927766,130.162447 519.418217,130.038409 519.963559,130.038409 C520.517099,130.038409 521.003273,130.162447 521.422438,130.409455 C521.84196,130.656819 522.156333,131.074202 522.365916,131.661247 C522.517043,132.113916 522.632171,132.577279 522.712012,133.050978 C522.791496,133.525033 522.831417,134.151642 522.831417,134.931517 C522.831417,135.703193 522.793635,136.323743 522.718071,136.793164 C522.642864,137.262943 522.525241,137.72381 522.365916,138.176836 C522.147779,138.747129 521.825207,139.160234 521.397488,139.415796 C520.969769,139.671715 520.483238,139.799318 519.938253,139.799318 C519.393267,139.799318 518.908875,139.671715 518.485433,139.415796 L518.485433,139.415796 Z M521.969563,141.648491 C522.627894,141.455661 523.2128,141.103505 523.724281,140.592024 C524.235762,140.080543 524.634253,139.438964 524.919399,138.667288 C525.120784,138.088797 525.256941,137.480723 525.328228,136.843422 C525.399514,136.20612 525.435158,135.56062 525.435158,134.90621 C525.435158,134.252156 525.397376,133.613072 525.321812,132.988246 C525.246605,132.363419 525.120784,131.766038 524.944706,131.195745 C524.776826,130.701017 524.550135,130.248347 524.265345,129.83738 C523.980199,129.426414 523.631965,129.07604 523.221354,128.786973 C522.810387,128.49755 522.33455,128.273354 521.793485,128.114028 C521.252776,127.954703 520.642564,127.874862 519.963559,127.874862 C519.259248,127.874862 518.573472,127.973594 517.906943,128.170701 C517.240057,128.367809 516.653012,128.726023 516.145809,129.246059 C515.638249,129.766094 515.254727,130.415871 514.994888,131.195745 C514.802058,131.766038 514.668039,132.36128 514.592475,132.98183 C514.516911,133.602379 514.479129,134.243958 514.479129,134.90621 C514.479129,135.56062 514.516911,136.20612 514.592475,136.843422 C514.668039,137.480723 514.802058,138.088797 514.994888,138.667288 C515.162767,139.153818 515.384825,139.59829 515.661417,140.000702 C515.938365,140.403115 516.278045,140.747072 516.680458,141.032219 C517.08287,141.317365 517.554787,141.539422 518.095496,141.698748 C518.63656,141.858073 519.259248,141.937914 519.963559,141.937914 C520.642564,141.937914 521.311231,141.841321 521.969563,141.648491 L521.969563,141.648491 Z M513.017043,141.648491 L513.017043,139.560508 C512.698392,139.594013 512.379741,139.610765 512.06109,139.610765 C511.666876,139.610765 511.346086,139.560508 511.098722,139.459994 C510.851358,139.359123 510.656389,139.208352 510.513816,139.006968 C510.371243,138.805583 510.275006,138.554298 510.224749,138.2524 C510.174492,137.950501 510.149185,137.598346 510.149185,137.195577 L510.149185,130.264743 L512.878747,130.264743 L512.878747,128.277631 L510.149185,128.277631 L510.149185,124.881184 L507.633483,124.881184 L507.633483,128.277631 L505.922606,128.277631 L505.922606,130.264743 L507.633483,130.264743 L507.633483,137.220884 C507.633483,137.900244 507.690156,138.518655 507.803145,139.076116 C507.916491,139.633933 508.121796,140.107632 508.419774,140.497569 C508.717039,140.887507 509.125867,141.189405 509.645902,141.403265 C510.165937,141.617125 510.832467,141.724054 511.645846,141.724054 C512.132377,141.724054 512.589323,141.698748 513.017043,141.648491 L513.017043,141.648491 Z M497.636972,141.52267 L500.592868,141.52267 L500.592868,138.327607 L497.636972,138.327607 L497.636972,141.52267 Z M485.586339,141.52267 L488.026477,132.579417 L490.479447,141.52267 L492.869328,141.52267 L496.630406,128.277631 L494.215218,128.277631 L491.762248,137.988283 L489.296803,128.277631 L486.894447,128.277631 L484.454309,137.988283 L482.001339,128.277631 L479.422905,128.277631 L483.158676,141.52267 L485.586339,141.52267 L485.586339,141.52267 Z M471.111607,139.415796 C470.688165,139.160234 470.367376,138.747129 470.149239,138.176836 C470.006666,137.816483 469.89332,137.382348 469.809559,136.874788 C469.725797,136.367584 469.684094,135.719946 469.684094,134.931517 C469.684094,134.210453 469.71546,133.604518 469.778193,133.114066 C469.841281,132.623258 469.964963,132.130668 470.149239,131.63594 C470.358822,131.065648 470.68175,130.656819 471.118023,130.409455 C471.55394,130.162447 472.044392,130.038409 472.589734,130.038409 C473.142917,130.038409 473.629448,130.162447 474.048613,130.409455 C474.467778,130.656819 474.782508,131.074202 474.99209,131.661247 C475.143218,132.113916 475.258345,132.577279 475.338186,133.050978 C475.417671,133.525033 475.457591,134.151642 475.457591,134.931517 C475.457591,135.703193 475.419809,136.323743 475.344246,136.793164 C475.268682,137.262943 475.151415,137.72381 474.99209,138.176836 C474.773953,138.747129 474.451382,139.160234 474.023662,139.415796 C473.595943,139.671715 473.109413,139.799318 472.564427,139.799318 C472.019085,139.799318 471.535049,139.671715 471.111607,139.415796 L471.111607,139.415796 Z M474.595737,141.648491 C475.254068,141.455661 475.838974,141.103505 476.350455,140.592024 C476.861936,140.080543 477.260428,139.438964 477.545574,138.667288 C477.746958,138.088797 477.883116,137.480723 477.954402,136.843422 C478.025689,136.20612 478.061332,135.56062 478.061332,134.90621 C478.061332,134.252156 478.02355,133.613072 477.947986,132.988246 C477.872423,132.363419 477.746958,131.766038 477.570881,131.195745 C477.403001,130.701017 477.17631,130.248347 476.89152,129.83738 C476.606374,129.426414 476.258139,129.07604 475.847529,128.786973 C475.436562,128.49755 474.960724,128.273354 474.419659,128.114028 C473.878951,127.954703 473.268738,127.874862 472.589734,127.874862 C471.885066,127.874862 471.199646,127.973594 470.533117,128.170701 C469.866232,128.367809 469.279187,128.726023 468.771983,129.246059 C468.264423,129.766094 467.880901,130.415871 467.621062,131.195745 C467.427875,131.766038 467.294213,132.36128 467.218649,132.98183 C467.143086,133.602379 467.105304,134.243958 467.105304,134.90621 C467.105304,135.56062 467.143086,136.20612 467.218649,136.843422 C467.294213,137.480723 467.427875,138.088797 467.621062,138.667288 C467.788585,139.153818 468.010999,139.59829 468.287591,140.000702 C468.564539,140.403115 468.90422,140.747072 469.306632,141.032219 C469.709045,141.317365 470.180962,141.539422 470.72167,141.698748 C471.262735,141.858073 471.885066,141.937914 472.589734,141.937914 C473.268738,141.937914 473.937406,141.841321 474.595737,141.648491 L474.595737,141.648491 Z M461.567766,141.52267 L461.567766,135.421968 C461.567766,134.868784 461.639052,134.227206 461.781625,133.497588 C461.924198,132.76797 462.269938,132.12853 462.819201,131.579267 C463.368464,131.030361 464.108774,130.755551 465.03942,130.755551 C465.349516,130.755551 465.580485,130.772303 465.731256,130.805808 L465.731256,128.252324 L465.404407,128.252324 C464.548969,128.252324 463.777292,128.499689 463.089733,128.994417 C462.402175,129.489502 461.857189,130.181338 461.45442,131.069925 L461.42947,128.277631 L459.039588,128.277631 L459.039588,141.52267 L461.567766,141.52267 L461.567766,141.52267 Z M453.036549,141.52267 L453.036549,135.421968 C453.036549,134.868784 453.107479,134.227206 453.250409,133.497588 C453.392982,132.76797 453.738721,132.12853 454.287984,131.579267 C454.837247,131.030361 455.577201,130.755551 456.508203,130.755551 C456.8183,130.755551 457.048912,130.772303 457.200039,130.805808 L457.200039,128.252324 L456.872834,128.252324 C456.017752,128.252324 455.246075,128.499689 454.558517,128.994417 C453.870958,129.489502 453.325972,130.181338 452.923203,131.069925 L452.898253,128.277631 L450.508372,128.277631 L450.508372,141.52267 L453.036549,141.52267 L453.036549,141.52267 Z M440.700057,139.415796 C440.276615,139.160234 439.955826,138.747129 439.738045,138.176836 C439.595116,137.816483 439.482127,137.382348 439.398365,136.874788 C439.314247,136.367584 439.272544,135.719946 439.272544,134.931517 C439.272544,134.210453 439.30391,133.604518 439.366999,133.114066 C439.429731,132.623258 439.553413,132.130668 439.738045,131.63594 C439.947271,131.065648 440.270199,130.656819 440.706473,130.409455 C441.14239,130.162447 441.632842,130.038409 442.178184,130.038409 C442.731723,130.038409 443.217898,130.162447 443.637419,130.409455 C444.056584,130.656819 444.370957,131.074202 444.58054,131.661247 C444.731667,132.113916 444.846795,132.577279 444.926636,133.050978 C445.006121,133.525033 445.046041,134.151642 445.046041,134.931517 C445.046041,135.703193 445.008259,136.323743 444.933052,136.793164 C444.857488,137.262943 444.739865,137.72381 444.58054,138.176836 C444.362403,138.747129 444.039831,139.160234 443.612112,139.415796 C443.184393,139.671715 442.697862,139.799318 442.152877,139.799318 C441.607891,139.799318 441.123499,139.671715 440.700057,139.415796 L440.700057,139.415796 Z M444.184543,141.648491 C444.842518,141.455661 445.427424,141.103505 445.939261,140.592024 C446.450386,140.080543 446.848878,139.438964 447.134024,138.667288 C447.335408,138.088797 447.471565,137.480723 447.542852,136.843422 C447.614139,136.20612 447.649782,135.56062 447.649782,134.90621 C447.649782,134.252156 447.612,133.613072 447.536793,132.988246 C447.461229,132.363419 447.335408,131.766038 447.15933,131.195745 C446.991451,130.701017 446.765116,130.248347 446.47997,129.83738 C446.194824,129.426414 445.846945,129.07604 445.435978,128.786973 C445.025011,128.49755 444.549174,128.273354 444.008465,128.114028 C443.467401,127.954703 442.857544,127.874862 442.178184,127.874862 C441.473873,127.874862 440.788096,127.973594 440.121567,128.170701 C439.455038,128.367809 438.867993,128.726023 438.360433,129.246059 C437.853229,129.766094 437.469351,130.415871 437.209512,131.195745 C437.016682,131.766038 436.882663,132.36128 436.807099,132.98183 C436.731536,133.602379 436.693754,134.243958 436.693754,134.90621 C436.693754,135.56062 436.731536,136.20612 436.807099,136.843422 C436.882663,137.480723 437.016682,138.088797 437.209512,138.667288 C437.377392,139.153818 437.599449,139.59829 437.876397,140.000702 C438.152989,140.403115 438.492669,140.747072 438.895082,141.032219 C439.297495,141.317365 439.769411,141.539422 440.31012,141.698748 C440.851185,141.858073 441.473873,141.937914 442.178184,141.937914 C442.857544,141.937914 443.526212,141.841321 444.184543,141.648491 L444.184543,141.648491 Z M419.181503,141.52267 L419.181503,133.711447 C419.181503,133.258421 419.252789,132.820366 419.395362,132.396924 C419.537935,131.973482 419.735043,131.598158 419.986684,131.271309 C420.237969,130.944104 420.537729,130.682126 420.885964,130.485019 C421.233842,130.287911 421.609166,130.189536 422.011578,130.189536 C422.757948,130.189536 423.275845,130.378089 423.565268,130.755551 C423.854335,131.132657 423.999047,131.732533 423.999047,132.55411 L423.999047,141.52267 L426.514749,141.52267 L426.514749,133.711447 C426.514749,133.258421 426.604926,132.764049 426.785281,132.227262 C426.965636,131.690474 427.292485,131.216775 427.76654,130.805808 C428.24024,130.394841 428.779166,130.189536 429.382606,130.189536 C430.112224,130.189536 430.619428,130.378089 430.90493,130.755551 C431.18972,131.132657 431.332293,131.732533 431.332293,132.55411 L431.332293,141.52267 L433.860827,141.52267 L433.860827,131.887581 C433.860827,131.107707 433.735006,130.399118 433.483364,129.761817 C433.231723,129.124515 432.827172,128.650816 432.269711,128.340363 C431.711894,128.030267 431.047147,127.874862 430.275827,127.874862 C429.370131,127.874862 428.575643,128.057356 427.892361,128.421986 C427.208723,128.786973 426.648768,129.30487 426.21285,129.975676 C426.078832,129.572907 425.860695,129.201861 425.558796,128.862537 C425.256898,128.522857 424.881574,128.273354 424.433182,128.114028 C423.984433,127.954703 423.487566,127.874862 422.94258,127.874862 C422.045083,127.874862 421.275901,128.063771 420.634322,128.440877 C419.992743,128.818339 419.470926,129.321622 419.068157,129.95037 L419.043207,128.277631 L416.653326,128.277631 L416.653326,141.52267 L419.181503,141.52267 L419.181503,141.52267 Z M406.845367,139.415796 C406.421569,139.160234 406.100779,138.747129 405.882999,138.176836 C405.740426,137.816483 405.62708,137.382348 405.543319,136.874788 C405.459557,136.367584 405.417498,135.719946 405.417498,134.931517 C405.417498,134.210453 405.448864,133.604518 405.511952,133.114066 C405.574685,132.623258 405.698367,132.130668 405.882999,131.63594 C406.092581,131.065648 406.415509,130.656819 406.851426,130.409455 C407.287344,130.162447 407.778151,130.038409 408.323137,130.038409 C408.876677,130.038409 409.362851,130.162447 409.782373,130.409455 C410.201537,130.656819 410.515911,131.074202 410.72585,131.661247 C410.876621,132.113916 410.991749,132.577279 411.07159,133.050978 C411.151074,133.525033 411.190995,134.151642 411.190995,134.931517 C411.190995,135.703193 411.153569,136.323743 411.078005,136.793164 C411.002442,137.262943 410.884819,137.72381 410.72585,138.176836 C410.507713,138.747129 410.184785,139.160234 409.757066,139.415796 C409.329347,139.671715 408.843172,139.799318 408.298187,139.799318 C407.752845,139.799318 407.268453,139.671715 406.845367,139.415796 L406.845367,139.415796 Z M410.329497,141.648491 C410.987828,141.455661 411.572734,141.103505 412.084215,140.592024 C412.595696,140.080543 412.993831,139.438964 413.279334,138.667288 C413.480362,138.088797 413.616519,137.480723 413.688162,136.843422 C413.759092,136.20612 413.794735,135.56062 413.794735,134.90621 C413.794735,134.252156 413.75731,133.613072 413.681746,132.988246 C413.606182,132.363419 413.480362,131.766038 413.304284,131.195745 C413.136404,130.701017 412.910069,130.248347 412.624923,129.83738 C412.339777,129.426414 411.991899,129.07604 411.580932,128.786973 C411.169965,128.49755 410.694127,128.273354 410.153419,128.114028 C409.612354,127.954703 409.002498,127.874862 408.323137,127.874862 C407.618826,127.874862 406.933406,127.973594 406.26652,128.170701 C405.599991,128.367809 405.012947,128.726023 404.505743,129.246059 C403.998183,129.766094 403.614661,130.415871 403.354822,131.195745 C403.161635,131.766038 403.027617,132.36128 402.952053,132.98183 C402.876846,133.602379 402.839064,134.243958 402.839064,134.90621 C402.839064,135.56062 402.876846,136.20612 402.952053,136.843422 C403.027617,137.480723 403.161635,138.088797 403.354822,138.667288 C403.522345,139.153818 403.744759,139.59829 404.021351,140.000702 C404.297943,140.403115 404.637623,140.747072 405.040036,141.032219 C405.442804,141.317365 405.914365,141.539422 406.45543,141.698748 C406.996138,141.858073 407.618826,141.937914 408.323137,141.937914 C409.002498,141.937914 409.671166,141.841321 410.329497,141.648491 L410.329497,141.648491 Z M401.376977,141.648491 L401.376977,139.560508 C401.05797,139.594013 400.739319,139.610765 400.421024,139.610765 C400.026453,139.610765 399.70602,139.560508 399.458656,139.459994 C399.211292,139.359123 399.016323,139.208352 398.87375,139.006968 C398.731177,138.805583 398.634584,138.554298 398.584327,138.2524 C398.53407,137.950501 398.508763,137.598346 398.508763,137.195577 L398.508763,130.264743 L401.238324,130.264743 L401.238324,128.277631 L398.508763,128.277631 L398.508763,124.881184 L395.993061,124.881184 L395.993061,128.277631 L394.28254,128.277631 L394.28254,130.264743 L395.993061,130.264743 L395.993061,137.220884 C395.993061,137.900244 396.049734,138.518655 396.163079,139.076116 C396.276069,139.633933 396.48173,140.107632 396.779351,140.497569 C397.076973,140.887507 397.485801,141.189405 398.005836,141.403265 C398.525515,141.617125 399.192401,141.724054 400.00578,141.724054 C400.491954,141.724054 400.949258,141.698748 401.376977,141.648491 L401.376977,141.648491 Z M385.481504,141.52267 L388.437401,141.52267 L388.437401,138.327607 L385.481504,138.327607 L385.481504,141.52267 Z M375.176679,138.881147 C374.765712,138.512239 374.48912,137.984006 374.346547,137.296447 C374.279181,136.977797 374.225004,136.583582 374.182944,136.113804 C374.140885,135.644382 374.120212,135.170683 374.120212,134.692707 C374.120212,134.172671 374.139103,133.709309 374.176885,133.302619 C374.214311,132.895929 374.279181,132.512408 374.371854,132.151698 C374.447061,131.875106 374.560407,131.573208 374.711178,131.246003 C374.862305,130.919154 375.122145,130.640423 375.491052,130.409455 C375.85996,130.178843 376.321184,130.063715 376.874724,130.063715 C377.252186,130.063715 377.662797,130.149616 378.107625,130.321416 C378.55174,130.493573 378.948093,130.845729 379.296328,131.378239 C379.644206,131.910749 379.818145,132.55411 379.818145,133.309035 L379.818145,136.189368 C379.818145,136.684453 379.730106,137.180963 379.554029,137.679969 C379.377951,138.178975 379.055023,138.596357 378.585601,138.931404 C378.115823,139.267164 377.562283,139.434687 376.924981,139.434687 C376.170413,139.434687 375.587646,139.250411 375.176679,138.881147 L375.176679,138.881147 Z M379.560445,146.667419 C380.285429,146.457481 380.866414,146.126355 381.302331,145.673685 C381.612428,145.338282 381.862287,144.927315 382.05084,144.440784 C382.239393,143.95461 382.333847,143.220715 382.333847,142.239812 L382.333847,128.277631 L379.943966,128.277631 L379.893709,129.824549 C379.574702,129.229306 379.103141,128.755607 378.478671,128.403095 C377.853845,128.05094 377.096782,127.874862 376.208195,127.874862 C375.268995,127.874862 374.480566,128.05094 373.843264,128.403095 C373.205962,128.755607 372.706957,129.300593 372.346603,130.038409 C372.052903,130.617255 371.841182,131.279507 371.71144,132.025877 C371.581342,132.772247 371.516472,133.66119 371.516472,134.692707 C371.516472,135.6066 371.56459,136.401089 371.660827,137.076172 C371.75742,137.751256 371.897854,138.340439 372.082487,138.843365 C372.401137,139.707358 372.89551,140.386362 373.566672,140.881091 C374.237479,141.376176 375.101115,141.623184 376.157938,141.623184 C376.778131,141.623184 377.375869,141.529086 377.950438,141.340176 C378.524651,141.151623 379.147339,140.705013 379.818145,140.000702 L379.818145,142.038428 C379.818145,142.60872 379.780363,143.06139 379.705156,143.396793 C379.629592,143.732196 379.495217,144.008788 379.302387,144.226925 C379.042548,144.495319 378.715343,144.686366 378.321484,144.799356 C377.926913,144.912701 377.495274,144.969374 377.025852,144.969374 C376.262729,144.969374 375.648239,144.843553 375.183095,144.591912 C374.717594,144.34027 374.363299,143.996313 374.120212,143.560396 L371.906409,144.352745 C372.241456,145.183234 372.847391,145.828733 373.723859,146.289957 C374.599971,146.751181 375.730219,146.981793 377.113891,146.981793 C378.019586,146.981793 378.834748,146.877002 379.560445,146.667419 L379.560445,146.667419 Z M360.984955,141.52267 L360.984955,133.711447 C360.984955,133.258421 361.083687,132.759772 361.280794,132.21443 C361.477545,131.669445 361.819364,131.195745 362.305894,130.793333 C362.792069,130.390564 363.353806,130.189536 363.991465,130.189536 C364.746033,130.189536 365.295295,130.382366 365.639253,130.768026 C365.982854,131.153686 366.155011,131.749285 366.155011,132.55411 L366.155011,141.52267 L368.683188,141.52267 L368.683188,131.887581 C368.683188,131.107707 368.542754,130.403396 368.261885,129.774292 C367.980659,129.145545 367.549019,128.671846 366.966252,128.352838 C366.383128,128.034188 365.701985,127.874862 364.92211,127.874862 C363.98291,127.874862 363.186283,128.063771 362.532229,128.440877 C361.878175,128.818339 361.324635,129.321622 360.871966,129.95037 L360.846659,128.277631 L358.456778,128.277631 L358.456778,141.52267 L360.984955,141.52267 L360.984955,141.52267 Z M352.604866,125.547713 L355.133043,125.547713 L355.133043,122.969279 L352.604866,122.969279 L352.604866,125.547713 Z M352.604866,141.523026 L355.133043,141.523026 L355.133043,128.277631 L352.604866,128.277631 L352.604866,141.523026 Z M346.601826,141.52267 L346.601826,135.421968 C346.601826,134.868784 346.672756,134.227206 346.815686,133.497588 C346.957903,132.76797 347.303999,132.12853 347.853261,131.579267 C348.402524,131.030361 349.142479,130.755551 350.073481,130.755551 C350.383577,130.755551 350.614189,130.772303 350.765317,130.805808 L350.765317,128.252324 L350.438111,128.252324 C349.583029,128.252324 348.811353,128.499689 348.123794,128.994417 C347.436235,129.489502 346.890893,130.181338 346.488481,131.069925 L346.46353,128.277631 L344.073293,128.277631 L344.073293,141.52267 L346.601826,141.52267 L346.601826,141.52267 Z M333.624112,131.918947 C333.770606,131.411744 333.965574,131.009331 334.209018,130.711353 C334.452105,130.413732 334.741172,130.20415 335.076932,130.082606 C335.411978,129.961063 335.781243,129.900113 336.183655,129.900113 C336.611374,129.900113 337.036955,129.983874 337.460397,130.151754 C337.883839,130.319634 338.223519,130.705294 338.479438,131.309091 C338.735,131.912532 338.86296,132.751218 338.86296,133.824793 L333.37853,133.824793 C333.395282,133.061671 333.477262,132.426508 333.624112,131.918947 L333.624112,131.918947 Z M338.378568,141.648491 C339.028344,141.455661 339.577607,141.160178 340.026356,140.761686 C340.475105,140.363551 340.858626,139.862406 341.177277,139.258609 L339.177333,138.227093 C339.068265,138.411725 338.90894,138.625585 338.699357,138.868672 C338.489775,139.112116 338.190015,139.32348 337.800077,139.503835 C337.41014,139.68419 336.967807,139.774368 336.473078,139.774368 C336.011855,139.774368 335.590195,139.715556 335.208812,139.59829 C334.827072,139.481023 334.498085,139.279639 334.221493,138.994493 C333.944545,138.709347 333.731042,138.327607 333.579914,137.849631 C333.429143,137.371655 333.35358,136.776412 333.35358,136.063547 L333.35358,135.698916 L341.34088,135.698916 L341.34088,134.315244 C341.34088,133.720002 341.311296,133.095175 341.252841,132.441121 C341.194029,131.787067 341.057872,131.176855 340.844013,130.610839 C340.630153,130.044824 340.313641,129.54368 339.894476,129.107763 C339.517014,128.730301 339.043315,128.430541 338.473022,128.208127 C337.90273,127.986069 337.198063,127.874862 336.359733,127.874862 C335.454037,127.874862 334.686994,127.990346 334.057891,128.220958 C333.429143,128.45157 332.900554,128.789112 332.473191,129.233584 C332.154184,129.552234 331.867255,129.96534 331.611337,130.472544 C331.355418,130.979747 331.160449,131.638078 331.026431,132.447181 C330.892412,133.256639 330.825046,134.168394 330.825046,135.183158 C330.825046,135.963033 330.867105,136.665562 330.950867,137.290032 C331.034628,137.914858 331.181479,138.49121 331.391418,139.019443 C331.743573,139.933693 332.319925,140.64834 333.120829,141.164099 C333.921377,141.679857 334.976061,141.937914 336.284169,141.937914 C337.030539,141.937914 337.728791,141.841321 338.378568,141.648491 L338.378568,141.648491 Z M320.84101,131.918947 C320.98786,131.411744 321.182829,131.009331 321.425916,130.711353 C321.669003,130.413732 321.958426,130.20415 322.29383,130.082606 C322.629233,129.961063 322.998497,129.900113 323.400909,129.900113 C323.828629,129.900113 324.253853,129.983874 324.677651,130.151754 C325.101093,130.319634 325.440417,130.705294 325.696336,131.309091 C325.952255,131.912532 326.080214,132.751218 326.080214,133.824793 L320.595784,133.824793 C320.612537,133.061671 320.69416,132.426508 320.84101,131.918947 L320.84101,131.918947 Z M325.595822,141.648491 C326.245599,141.455661 326.794862,141.160178 327.24361,140.761686 C327.692003,140.363551 328.075881,139.862406 328.394532,139.258609 L326.394588,138.227093 C326.285519,138.411725 326.126194,138.625585 325.916611,138.868672 C325.707029,139.112116 325.407269,139.32348 325.017332,139.503835 C324.627394,139.68419 324.184705,139.774368 323.690333,139.774368 C323.228752,139.774368 322.807449,139.715556 322.426066,139.59829 C322.044327,139.481023 321.715339,139.279639 321.438748,138.994493 C321.161799,138.709347 320.94794,138.327607 320.797169,137.849631 C320.646041,137.371655 320.570834,136.776412 320.570834,136.063547 L320.570834,135.698916 L328.558134,135.698916 L328.558134,134.315244 C328.558134,133.720002 328.52855,133.095175 328.470095,132.441121 C328.411284,131.787067 328.275127,131.176855 328.061267,130.610839 C327.847407,130.044824 327.530895,129.54368 327.111374,129.107763 C326.734268,128.730301 326.260213,128.430541 325.690277,128.208127 C325.119628,127.986069 324.415317,127.874862 323.576987,127.874862 C322.671292,127.874862 321.903892,127.990346 321.275145,128.220958 C320.646041,128.45157 320.117808,128.789112 319.690089,129.233584 C319.371438,129.552234 319.084153,129.96534 318.828591,130.472544 C318.572672,130.979747 318.377704,131.638078 318.243685,132.447181 C318.10931,133.256639 318.0423,134.168394 318.0423,135.183158 C318.0423,135.963033 318.084359,136.665562 318.168121,137.290032 C318.251883,137.914858 318.398733,138.49121 318.608315,139.019443 C318.960471,139.933693 319.537179,140.64834 320.338083,141.164099 C321.138631,141.679857 322.193316,141.937914 323.501423,141.937914 C324.247794,141.937914 324.945689,141.841321 325.595822,141.648491 L325.595822,141.648491 Z M307.51114,141.52267 L307.51114,133.711447 C307.51114,133.258421 307.609515,132.759772 307.806623,132.21443 C308.00373,131.669445 308.345549,131.195745 308.831723,130.793333 C309.318254,130.390564 309.879992,130.189536 310.517293,130.189536 C311.272218,130.189536 311.821124,130.382366 312.165082,130.768026 C312.509039,131.153686 312.68084,131.749285 312.68084,132.55411 L312.68084,141.52267 L315.209017,141.52267 L315.209017,131.887581 C315.209017,131.107707 315.068582,130.403396 314.787713,129.774292 C314.506844,129.145545 314.074848,128.671846 313.492081,128.352838 C312.909313,128.034188 312.22817,127.874862 311.448296,127.874862 C310.509095,127.874862 309.712468,128.063771 309.058414,128.440877 C308.40436,128.818339 307.85082,129.321622 307.397794,129.95037 L307.372844,128.277631 L304.982963,128.277631 L304.982963,141.52267 L307.51114,141.52267 L307.51114,141.52267 Z M298.87335,125.547713 L301.401527,125.547713 L301.401527,122.969279 L298.87335,122.969279 L298.87335,125.547713 Z M298.87335,141.523026 L301.401527,141.523026 L301.401527,128.277631 L298.87335,128.277631 L298.87335,141.523026 Z M288.39209,138.881147 C287.981124,138.512239 287.704532,137.984006 287.561959,137.296447 C287.494949,136.977797 287.440415,136.583582 287.398356,136.113804 C287.356297,135.644382 287.335624,135.170683 287.335624,134.692707 C287.335624,134.172671 287.354515,133.709309 287.392297,133.302619 C287.430079,132.895929 287.494949,132.512408 287.587265,132.151698 C287.662473,131.875106 287.775818,131.573208 287.926946,131.246003 C288.077717,130.919154 288.337556,130.640423 288.70682,130.409455 C289.075728,130.178843 289.536952,130.063715 290.090136,130.063715 C290.467598,130.063715 290.878565,130.149616 291.323036,130.321416 C291.767508,130.493573 292.163505,130.845729 292.511739,131.378239 C292.859618,131.910749 293.033557,132.55411 293.033557,133.309035 L293.033557,136.189368 C293.033557,136.684453 292.945518,137.180963 292.76944,137.679969 C292.593363,138.178975 292.270435,138.596357 291.801013,138.931404 C291.331234,139.267164 290.777694,139.434687 290.140749,139.434687 C289.385825,139.434687 288.803057,139.250411 288.39209,138.881147 L288.39209,138.881147 Z M292.775856,146.667419 C293.501197,146.457481 294.081825,146.126355 294.518099,145.673685 C294.828196,145.338282 295.077698,144.927315 295.266251,144.440784 C295.455161,143.95461 295.549259,143.220715 295.549259,142.239812 L295.549259,128.277631 L293.159378,128.277631 L293.109121,129.824549 C292.79047,129.229306 292.318553,128.755607 291.694083,128.403095 C291.069256,128.05094 290.31255,127.874862 289.423607,127.874862 C288.484406,127.874862 287.695977,128.05094 287.059032,128.403095 C286.421374,128.755607 285.922368,129.300593 285.562015,130.038409 C285.268314,130.617255 285.056593,131.279507 284.926852,132.025877 C284.796754,132.772247 284.731883,133.66119 284.731883,134.692707 C284.731883,135.6066 284.780002,136.401089 284.876595,137.076172 C284.972832,137.751256 285.113266,138.340439 285.297898,138.843365 C285.616549,139.707358 286.111278,140.386362 286.782084,140.881091 C287.45289,141.376176 288.316883,141.623184 289.37335,141.623184 C289.993899,141.623184 290.59128,141.529086 291.16585,141.340176 C291.740063,141.151623 292.362751,140.705013 293.033557,140.000702 L293.033557,142.038428 C293.033557,142.60872 292.996132,143.06139 292.920568,143.396793 C292.845004,143.732196 292.710629,144.008788 292.517799,144.226925 C292.257959,144.495319 291.930754,144.686366 291.536896,144.799356 C291.142681,144.912701 290.710685,144.969374 290.241263,144.969374 C289.478141,144.969374 288.864007,144.843553 288.398506,144.591912 C287.933005,144.34027 287.578711,143.996313 287.335624,143.560396 L285.12182,144.352745 C285.457224,145.183234 286.063159,145.828733 286.939271,146.289957 C287.815382,146.751181 288.94563,146.981793 290.329302,146.981793 C291.234998,146.981793 292.050516,146.877002 292.775856,146.667419 L292.775856,146.667419 Z M274.200723,141.52267 L274.200723,133.711447 C274.200723,133.258421 274.299098,132.759772 274.496205,132.21443 C274.692956,131.669445 275.034775,131.195745 275.521306,130.793333 C276.00748,130.390564 276.569574,130.189536 277.206876,130.189536 C277.961444,130.189536 278.510707,130.382366 278.854664,130.768026 C279.198266,131.153686 279.370423,131.749285 279.370423,132.55411 L279.370423,141.52267 L281.8986,141.52267 L281.8986,131.887581 C281.8986,131.107707 281.758165,130.403396 281.477296,129.774292 C281.196071,129.145545 280.764431,128.671846 280.181663,128.352838 C279.598896,128.034188 278.917397,127.874862 278.137522,127.874862 C277.198322,127.874862 276.401695,128.063771 275.747641,128.440877 C275.093587,128.818339 274.540047,129.321622 274.087377,129.95037 L274.06207,128.277631 L271.672189,128.277631 L271.672189,141.52267 L274.200723,141.52267 L274.200723,141.52267 Z M261.222652,131.918947 C261.369502,131.411744 261.564471,131.009331 261.807558,130.711353 C262.050645,130.413732 262.340068,130.20415 262.675472,130.082606 C263.010875,129.961063 263.380139,129.900113 263.782552,129.900113 C264.210271,129.900113 264.635851,129.983874 265.059293,130.151754 C265.482736,130.319634 265.822059,130.705294 266.077978,131.309091 C266.333897,131.912532 266.461856,132.751218 266.461856,133.824793 L260.977426,133.824793 C260.994179,133.061671 261.075802,132.426508 261.222652,131.918947 L261.222652,131.918947 Z M265.977464,141.648491 C266.627241,141.455661 267.176504,141.160178 267.625252,140.761686 C268.073645,140.363551 268.457523,139.862406 268.776174,139.258609 L266.77623,138.227093 C266.667161,138.411725 266.507836,138.625585 266.298254,138.868672 C266.088671,139.112116 265.788911,139.32348 265.398974,139.503835 C265.009036,139.68419 264.566347,139.774368 264.071975,139.774368 C263.610395,139.774368 263.189091,139.715556 262.807708,139.59829 C262.425969,139.481023 262.096981,139.279639 261.82039,138.994493 C261.543441,138.709347 261.329582,138.327607 261.178811,137.849631 C261.027683,137.371655 260.952476,136.776412 260.952476,136.063547 L260.952476,135.698916 L268.939776,135.698916 L268.939776,134.315244 C268.939776,133.720002 268.910192,133.095175 268.851737,132.441121 C268.792926,131.787067 268.656769,131.176855 268.442909,130.610839 C268.229049,130.044824 267.912537,129.54368 267.493016,129.107763 C267.11591,128.730301 266.641855,128.430541 266.071919,128.208127 C265.50127,127.986069 264.796959,127.874862 263.958629,127.874862 C263.052934,127.874862 262.285534,127.990346 261.656787,128.220958 C261.027683,128.45157 260.49945,128.789112 260.071731,129.233584 C259.75308,129.552234 259.465795,129.96534 259.210233,130.472544 C258.954314,130.979747 258.759346,131.638078 258.625327,132.447181 C258.490952,133.256639 258.423942,134.168394 258.423942,135.183158 C258.423942,135.963033 258.466002,136.665562 258.549763,137.290032 C258.633525,137.914858 258.780375,138.49121 258.989958,139.019443 C259.342113,139.933693 259.918821,140.64834 260.719725,141.164099 C261.520273,141.679857 262.574958,141.937914 263.883066,141.937914 C264.629436,141.937914 265.327331,141.841321 265.977464,141.648491 L265.977464,141.648491 Z" id="Claim"></path>
                </g>
            </g>
        </g>
    </g>
</svg>