<?xml version="1.0" encoding="UTF-8" standalone="no"?>
<svg width="171px" height="32px" viewBox="0 0 171 32" version="1.1" xmlns="http://www.w3.org/2000/svg" xmlns:xlink="http://www.w3.org/1999/xlink" xmlns:sketch="http://www.bohemiancoding.com/sketch/ns">
    <!-- Generator: Sketch 3.3.3 (12081) - http://www.bohemiancoding.com/sketch -->
    <title>Logo TK Copy</title>
    <desc>Created with Sketch.</desc>
    <defs></defs>
    <g id="00_01-Header-Internet" stroke="none" stroke-width="1" fill="none" fill-rule="evenodd" sketch:type="MSPage">
        <g id="00_01_Header_M-INTERNET" sketch:type="MSArtboardGroup" transform="translate(-15.000000, -47.000000)">
            <g id="00_01_Header_M-INTERNET-(mit-Firmennavigator)" sketch:type="MSLayerGroup">
                <g id="Logo-TK-Copy" transform="translate(16.000000, 32.000000)" sketch:type="MSShapeGroup">
                    <path d="M50.5072464,39.9252022 L50.5072464,38.0589348 C50.2304731,38.0890904 49.9538312,38.1039654 49.6771893,38.1039654 C49.3348679,38.1039654 49.056387,38.0589348 48.8417465,37.9690089 C48.6269746,37.879083 48.457653,37.7442617 48.3339129,37.5644098 C48.2100414,37.3844227 48.1264971,37.1596755 48.0827546,36.8897625 C48.0391434,36.6199847 48.0172065,36.3051763 48.0172065,35.9454726 L48.0172065,29.7508605 L50.387053,29.7508605 L50.387053,27.9745191 L48.0172065,27.9745191 L48.0172065,23.8164251 L45.8331015,23.8164251 L45.8331015,27.9745191 L44.3478261,27.9745191 L44.3478261,29.7508605 L45.8331015,29.7508605 L45.8331015,35.9679203 C45.8331015,36.5749541 45.8822298,37.1278972 45.9804862,37.6262085 C46.0787427,38.1246551 46.2571282,38.5480508 46.5156425,38.8965306 C46.7740255,39.2451458 47.1289574,39.5149236 47.580438,39.7059993 C48.0317873,39.8972102 48.6105548,39.9926804 49.3168717,39.9926804 C49.738928,39.9926804 50.1358947,39.9702328 50.5072464,39.9252022 L50.5072464,39.9252022 Z M54.6393279,39.9926804 L54.6393279,32.9436523 C54.6393279,32.5350031 54.7283142,32.0848472 54.9064235,31.5927751 C55.0842595,31.1009761 55.3930461,30.6733486 55.83251,30.3101655 C56.2718372,29.9468459 56.7795102,29.7652544 57.3553925,29.7652544 C58.0372108,29.7652544 58.5332651,29.939473 58.8441021,30.2875007 C59.1546657,30.6356649 59.3099475,31.1727935 59.3099475,31.8992962 L59.3099475,39.9926804 L61.5942029,39.9926804 L61.5942029,31.297723 C61.5942029,30.5938852 61.4672163,29.9583148 61.2135164,29.3907389 C60.9595432,28.823163 60.569425,28.395672 60.0430252,28.1079927 C59.516352,27.8203135 58.9008291,27.6766787 58.19632,27.6766787 C57.3780833,27.6766787 56.6828692,27.831919 56.110951,28.1421265 C55.5388961,28.4524705 55.0484462,28.8761386 54.6393279,29.4134037 L54.6393279,23.8164251 L52.3550725,23.8164251 L52.3550725,39.9926804 L54.6393279,39.9926804 L54.6393279,39.9926804 Z M65.9717367,44.1654458 C66.3942407,44.0441328 66.8055137,43.7519409 67.2056892,43.2891441 C67.6058647,42.8262104 67.9762243,42.1394089 68.3171691,41.2287398 L73.2971014,28.1715708 L71.0740081,28.1715708 L68.0171377,36.4701478 L65.1048011,28.1715708 L62.826087,28.1715708 L66.8610008,39.6004617 L66.33862,40.7392431 C66.1829887,41.1565818 65.9662548,41.5247654 65.6882846,41.8432463 C65.4104481,42.162138 65.0120107,42.3215154 64.4933736,42.3215154 C64.3080601,42.3215154 64.133844,42.3061801 63.9709927,42.2760572 L63.9709927,44.302231 C64.1710137,44.3324908 64.4340091,44.3478261 64.7601127,44.3478261 C65.1454471,44.3478261 65.5493663,44.2868957 65.9717367,44.1654458 L65.9717367,44.1654458 Z M79.5617905,40.492129 C79.9365006,40.4103189 80.26749,40.3030661 80.5550216,40.1706518 C80.8424218,40.0382376 81.089909,39.8921883 81.2973518,39.732504 C81.5046633,39.5728197 81.6665475,39.4110269 81.7830043,39.2475473 C82.0085656,38.9436411 82.1905376,38.6145733 82.3287891,38.2597818 C82.4669092,37.9055525 82.5362319,37.4593923 82.5362319,36.9218635 C82.5362319,36.4700806 82.4888351,36.0845049 82.3943042,35.7649957 C82.299642,35.4456271 82.1905376,35.1767221 82.0668597,34.9584213 C81.8922401,34.6779898 81.6410767,34.3958715 81.3136321,34.1113636 C80.9861875,33.8269962 80.3457406,33.5289938 79.3925539,33.2173564 C78.9122844,33.0693392 78.4866327,32.9213219 78.1154676,32.7731642 C77.7443025,32.6252875 77.429462,32.4675711 77.1713401,32.2997339 C76.9129557,32.1323184 76.7182482,31.9493 76.5873492,31.7506786 C76.4563188,31.5519166 76.3908037,31.3240572 76.3908037,31.0669599 C76.3908037,30.5371622 76.5471736,30.1359835 76.8601759,29.8632832 C77.049369,29.6842007 77.2786065,29.5595176 77.5478883,29.4893746 C77.8170388,29.4192316 78.133586,29.3840898 78.49753,29.3840898 C79.0359623,29.3840898 79.4907611,29.5068049 79.8619262,29.7522352 C80.2330913,29.9976655 80.5240364,30.3774779 80.7351555,30.8915321 L82.4925113,29.9802351 C82.179509,29.1621342 81.6809897,28.552635 80.9970849,28.1510346 C80.3130487,27.7499965 79.4725113,27.5494071 78.4756041,27.5494071 C77.9152459,27.5494071 77.3749755,27.6233454 76.8547929,27.7715032 C76.3343477,27.9195205 75.8977987,28.1376807 75.5448833,28.4258434 C75.1918366,28.7141467 74.9243929,29.0492588 74.7426835,29.4308986 C74.5825061,29.7348048 74.4714323,30.0502376 74.4097246,30.3774779 C74.3477544,30.7047183 74.3169005,31.0046886 74.3169005,31.2773889 C74.3169005,31.5888858 74.3606211,31.9182346 74.4479309,32.2648733 C74.5352407,32.6115119 74.6842582,32.9291937 74.8953772,33.2173564 C75.0627757,33.4433884 75.3029104,33.678979 75.6159128,33.9242687 C75.9286526,34.1696989 76.3216123,34.3899677 76.7946607,34.5846532 L78.4756041,35.250801 C78.774033,35.3754841 79.0777135,35.5078984 79.3871709,35.6480438 C79.6963658,35.7883299 79.9418836,35.9772521 80.1238556,36.2148107 C80.3056963,36.4526503 80.3968136,36.7699104 80.3968136,37.1672938 C80.3968136,37.4401346 80.3383882,37.6717893 80.2220627,37.8626795 C80.1056059,38.0535698 79.949236,38.2073502 79.7528217,38.3243021 C79.5562762,38.4409729 79.3270388,38.5248915 79.0651094,38.5754956 C78.80318,38.6262404 78.5228696,38.6515425 78.224572,38.6515425 C77.8971275,38.6515425 77.606051,38.6088101 77.3513428,38.5229235 C77.0966345,38.4373181 76.867397,38.3183983 76.6637617,38.1664452 C76.4598638,38.0146326 76.2816992,37.8373775 76.1288743,37.6348202 C75.9760493,37.4322629 75.8413428,37.2100262 75.7250172,36.9686724 L73.9130435,37.8334416 C74.058516,38.2464279 74.2586065,38.6204771 74.5134461,38.9553081 C74.768023,39.2904203 75.073673,39.5787235 75.4302646,39.8199368 C75.8014297,40.0617123 76.214346,40.2542893 76.6691447,40.3986518 C77.1238121,40.5427331 77.6789186,40.6148441 78.3338078,40.6148441 C78.7775779,40.6148441 79.1868179,40.573939 79.5617905,40.492129 L79.5617905,40.492129 Z M90.0327597,40.492129 C90.4074755,40.4103189 90.7386013,40.3030661 91.0261372,40.1706518 C91.3135418,40.0382376 91.5609014,39.8921883 91.7683474,39.732504 C91.9757934,39.5728197 92.1375488,39.4110269 92.2541387,39.2475473 C92.4795721,38.9436411 92.6615468,38.6145733 92.7999317,38.2597818 C92.9380539,37.9055525 93.0072464,37.4593923 93.0072464,36.9218635 C93.0072464,36.4700806 92.9598489,36.0845049 92.8653166,35.7649957 C92.7706529,35.4456271 92.6615468,35.1767221 92.537867,34.9584213 C92.3632447,34.6779898 92.1122088,34.3958715 91.7847593,34.1113636 C91.4573097,33.8269962 90.8168531,33.5289938 89.8636519,33.2173564 C89.383375,33.0693392 88.9575856,32.9213219 88.5865461,32.7731642 C88.2153753,32.6252875 87.9005301,32.4675711 87.642273,32.2997339 C87.3838845,32.1323184 87.1893054,31.9493 87.0582731,31.7506786 C86.9273721,31.5519166 86.8618559,31.3240572 86.8618559,31.0669599 C86.8618559,30.5371622 87.0182281,30.1359835 87.3312353,29.8632832 C87.5203,29.6842007 87.7495409,29.5595176 88.0188268,29.4893746 C88.2879814,29.4192316 88.6045335,29.3840898 88.968483,29.3840898 C89.5069235,29.3840898 89.9618605,29.5068049 90.3328999,29.7522352 C90.7040707,29.9976655 90.9950203,30.3774779 91.2061425,30.8915321 L92.9636565,29.9802351 C92.6506493,29.1621342 92.1521225,28.552635 91.4682072,28.1510346 C90.7840293,27.7499965 89.9436105,27.5494071 88.9466881,27.5494071 C88.38619,27.5494071 87.8459114,27.6233454 87.3257209,27.7715032 C86.8053991,27.9195205 86.3687121,28.1376807 86.0159227,28.4258434 C85.6628706,28.7141467 85.3954228,29.0492588 85.2135793,29.4308986 C85.0533995,29.7348048 84.9424553,30.0502376 84.8806154,30.3774779 C84.8187755,30.7047183 84.7879212,31.0046886 84.7879212,31.2773889 C84.7879212,31.5888858 84.8315111,31.9182346 84.9188222,32.2648733 C85.0061333,32.6115119 85.1552844,32.9291937 85.3664066,33.2173564 C85.5336764,33.4433884 85.7738148,33.678979 86.0868219,33.9242687 C86.3995664,34.1696989 86.7925322,34.3899677 87.2657191,34.5846532 L88.9466881,35.250801 C89.2449902,35.3754841 89.5488066,35.5078984 89.8581375,35.6480438 C90.167337,35.7883299 90.4129899,35.9772521 90.5949646,36.2148107 C90.7768081,36.4526503 90.8677955,36.7699104 90.8677955,37.1672938 C90.8677955,37.4401346 90.8095005,37.6717893 90.6931732,37.8626795 C90.5767146,38.0535698 90.4203424,38.2073502 90.2237939,38.3243021 C90.0273766,38.4409729 89.7981357,38.5248915 89.536071,38.5754956 C89.2741376,38.6262404 88.9939543,38.6515425 88.6956522,38.6515425 C88.3682026,38.6515425 88.0769905,38.6088101 87.8224096,38.5229235 C87.5675661,38.4373181 87.3383252,38.3183983 87.1346868,38.1664452 C86.930917,38.0146326 86.7526185,37.8373775 86.5999225,37.6348202 C86.4470952,37.4322629 86.3122553,37.2100262 86.195928,36.9686724 L84.384058,37.8334416 C84.5295328,38.2464279 84.7294949,38.6204771 84.9843384,38.9553081 C85.2390506,39.2904203 85.5445739,39.5787235 85.9013022,39.8199368 C86.2723417,40.0617123 86.6852642,40.2542893 87.1402011,40.3986518 C87.5948755,40.5427331 88.1498592,40.6148441 88.8047583,40.6148441 C89.2485351,40.6148441 89.6579127,40.573939 90.0327597,40.492129 L90.0327597,40.492129 Z M102.107481,40.3459391 C102.678422,40.166716 103.160963,39.8921883 103.555237,39.5220749 C103.949379,39.1519616 104.28636,38.6864031 104.566446,38.1255401 L102.809226,37.1672938 C102.713383,37.3387857 102.573406,37.5374071 102.389296,37.7632986 C102.205053,37.9893306 101.941716,38.1858435 101.599152,38.353259 C101.256587,38.5210962 100.867763,38.6047336 100.43321,38.6047336 C100.027903,38.6047336 99.6576886,38.5503341 99.3225686,38.4409729 C98.9871827,38.3320333 98.6980569,38.145079 98.4549254,37.8801099 C98.2117939,37.6152813 98.0239618,37.2607709 97.8912963,36.8167193 C97.7587637,36.3726676 97.692431,35.8195358 97.692431,35.1571833 L97.692431,34.8182759 L104.710145,34.8182759 L104.710145,33.5327891 C104.710145,32.9797979 104.684223,32.3992555 104.632779,31.7915836 C104.581201,31.1839118 104.46143,30.6170044 104.273598,30.0911426 C104.085766,29.5652808 103.807541,29.099863 103.439188,28.6946078 C103.107657,28.3440333 102.691316,28.0655697 102.19043,27.8590766 C101.689279,27.6525834 101.070351,27.5494071 100.333778,27.5494071 C99.5380504,27.5494071 98.8638224,27.6565193 98.3112266,27.8707437 C97.7587637,28.0851086 97.2945673,28.3987139 96.9187703,28.8115597 C96.6386838,29.1077347 96.38638,29.4913425 96.161726,29.9626642 C95.936939,30.4341265 95.7655905,31.0455937 95.6478132,31.7973469 C95.5299031,32.5493812 95.4710145,33.396439 95.4710145,34.339223 C95.4710145,35.0637061 95.5078365,35.7163595 95.5816134,36.2966207 C95.6551245,36.8771631 95.7840679,37.412724 95.9683108,37.9035846 C96.2777751,38.7527508 96.7842437,39.4169307 97.4879825,39.8961242 C98.1914554,40.3751771 99.1181201,40.6148441 100.267445,40.6148441 C100.923063,40.6148441 101.536408,40.5251622 102.107481,40.3459391 L102.107481,40.3459391 Z M97.5391986,31.3362849 C97.670924,30.8537416 97.84615,30.4707868 98.0647408,30.1875643 C98.2831956,29.9044857 98.543112,29.705165 98.8446259,29.5894582 C99.1458679,29.4738954 99.4774244,29.4158981 99.8391595,29.4158981 C100.223325,29.4158981 100.605723,29.4957703 100.986217,29.6552269 C101.366576,29.8146835 101.67176,30.1816638 101.901634,30.7557363 C102.131372,31.3302405 102.246377,32.1279551 102.246377,33.1488801 L97.3188406,33.1488801 C97.3337939,32.4231224 97.4073372,31.8188281 97.5391986,31.3362849 L97.5391986,31.3362849 Z M109.458168,39.9926804 L109.458168,32.8708087 C109.458168,32.4579366 109.547155,32.0031289 109.725264,31.5059718 C109.9031,31.0090907 110.211887,30.5770441 110.651351,30.2101079 C111.090678,29.8430338 111.598351,29.6595658 112.174233,29.6595658 C112.856051,29.6595658 113.352242,29.8355848 113.662943,30.1872089 C113.973506,30.538971 114.128925,31.0816502 114.128925,31.8156604 L114.128925,39.9926804 L116.413043,39.9926804 L116.413043,31.2078707 C116.413043,30.4967595 116.286057,29.8546213 116.032357,29.2811801 C115.778384,28.707739 115.388402,28.2758303 114.861866,27.9851783 C114.335193,27.6945262 113.719806,27.5494071 113.015161,27.5494071 C112.166578,27.5494071 111.446896,27.7214257 110.855978,28.0654628 C110.26506,28.4094999 109.765041,28.868308 109.355923,29.4417492 L109.333232,27.9163432 L107.173913,27.9163432 L107.173913,39.9926804 L109.458168,39.9926804 L109.458168,39.9926804 Z M121.077175,39.9926804 L121.077175,35.202487 L122.598772,33.602024 L125.620107,39.9926804 L128.115942,39.9926804 L124.20793,31.8992962 L127.864186,28.0398618 L125.247872,28.0398618 L121.077175,32.4555397 L121.077175,23.8164251 L118.876812,23.8164251 L118.876812,39.9926804 L121.077175,39.9926804 L121.077175,39.9926804 Z M132.290784,39.9926804 L132.290784,34.5582855 C132.290784,34.0652787 132.356236,33.493833 132.488532,32.8439483 C132.619435,32.1940635 132.938338,31.6246394 133.443848,31.1352716 C133.949357,30.6460386 134.630333,30.4012873 135.486775,30.4012873 C135.772256,30.4012873 135.98393,30.4163821 136.123188,30.4461674 L136.123188,28.1715708 L135.822389,28.1715708 C135.035577,28.1715708 134.325356,28.3920626 133.691728,28.8326418 C133.059493,29.2734907 132.558161,29.8898164 132.187732,30.6814844 L132.164058,28.1939434 L129.963768,28.1939434 L129.963768,39.9926804 L132.290784,39.9926804 L132.290784,39.9926804 Z M142.935545,40.0934802 C143.520387,39.7459043 144.015461,39.2857314 144.42213,38.7128237 L144.445252,40.2366727 L146.594203,40.2366727 L146.594203,28.1715708 L144.321483,28.1715708 L144.321483,35.2869544 C144.321483,35.6918625 144.234437,36.1367376 144.060345,36.6217176 C143.887612,37.1069733 143.580231,37.5365507 143.13956,37.9107254 C142.698889,38.285038 142.198373,38.4721942 141.640734,38.4721942 C140.962046,38.4721942 140.457451,38.2985441 140.125588,37.9508303 C139.793724,37.6033922 139.627792,37.0591506 139.627792,36.3181055 L139.627792,28.1715708 L137.355072,28.1715708 L137.355072,36.9483453 C137.355072,37.6512149 137.45708,38.2373531 137.661094,38.7070354 C137.863748,39.1768555 138.130327,39.5530975 138.45811,39.8354857 C138.785893,40.1182874 139.154479,40.3186741 139.566588,40.4371972 C139.977337,40.5555825 140.389446,40.6148441 140.804275,40.6148441 C141.640734,40.6148441 142.352064,40.4409183 142.935545,40.0934802 L142.935545,40.0934802 Z M150.745544,43.7256624 L150.745544,38.7295613 C150.920616,38.9560065 151.156344,39.1900816 151.44997,39.4317867 C151.743595,39.673628 152.107526,39.8639674 152.539004,40.0038947 C152.970482,40.1435496 153.480536,40.2134451 154.069166,40.2134451 C154.550272,40.2134451 155.039648,40.1341484 155.535917,39.975555 C156.032186,39.8169616 156.47607,39.5394231 156.864814,39.1428034 C157.254937,38.7464561 157.560969,38.2501023 157.781533,37.6534696 C157.957984,37.1929492 158.087566,36.6509521 158.171656,36.0278871 C158.255746,35.4048221 158.297101,34.6742569 158.297101,33.8360553 C158.297101,32.8921248 158.244718,32.0631881 158.137193,31.3497903 C158.029668,30.6361199 157.843567,30.0112837 157.576133,29.4750091 C156.918577,28.1912744 155.760616,27.5494071 154.10363,27.5494071 C153.286164,27.5494071 152.595524,27.7135867 152.034464,28.0420822 C151.473405,28.3704414 151.01987,28.8067095 150.676617,29.3504778 L150.618719,27.9118285 L148.442029,27.9118285 L148.442029,43.7256624 L150.745544,43.7256624 L150.745544,43.7256624 Z M152.382222,37.9169226 C152.074087,37.7774567 151.810534,37.5794831 151.591561,37.323002 C151.3739,37.0666568 151.204754,36.7592876 151.085433,36.4010304 C150.964802,36.0429092 150.905797,35.6450572 150.905797,35.2076105 L150.905797,32.334341 C150.905797,31.851857 150.976603,31.4274725 151.118214,31.0617317 C151.259824,30.696127 151.447328,30.3906627 151.679412,30.1454748 C151.911497,29.9005591 152.182918,29.7175526 152.491053,29.5968636 C152.800499,29.4763107 153.117812,29.4158981 153.445616,29.4158981 C153.794398,29.4158981 154.119579,29.4820254 154.421158,29.6138716 C154.722736,29.745854 154.969244,29.9495422 155.161993,30.2246642 C155.354741,30.5000583 155.50553,30.8562746 155.614361,31.2937213 C155.694345,31.6179625 155.750727,31.9876492 155.783507,32.4022371 C155.816288,32.8170971 155.833333,33.2582175 155.833333,33.7257344 C155.833333,34.0878014 155.816288,34.491232 155.783507,34.9361623 C155.750727,35.3812285 155.708768,35.7469693 155.658942,36.0333847 C155.534377,36.6894866 155.291803,37.202449 154.928597,37.5718635 C154.56408,37.9414141 154.055329,38.1261894 153.402346,38.1261894 C153.031272,38.1261894 152.691668,38.0565245 152.382222,37.9169226 L152.382222,37.9169226 Z M162.44812,43.7256624 L162.44812,38.7295613 C162.623168,38.9560065 162.858863,39.1900816 163.152448,39.4317867 C163.447411,39.673628 163.809912,39.8639674 164.24133,40.0038947 C164.672748,40.1435496 165.18273,40.2134451 165.771278,40.2134451 C166.252316,40.2134451 166.741624,40.1341484 167.237823,39.975555 C167.734022,39.8169616 168.177845,39.5394231 168.567913,39.1428034 C168.956603,38.7464561 169.262592,38.2501023 169.484504,37.6534696 C169.659552,37.1929492 169.789115,36.6509521 169.873193,36.0278871 C169.957272,35.4048221 170,34.6742569 170,33.8360553 C170,32.8921248 169.946245,32.0631881 169.838735,31.3497903 C169.732604,30.6361199 169.545151,30.0112837 169.277754,29.4750091 C168.62029,28.1912744 167.463869,27.5494071 165.805736,27.5494071 C164.988386,27.5494071 164.29922,27.7135867 163.73686,28.0420822 C163.175879,28.3704414 162.723786,28.8067095 162.379203,29.3504778 L162.322692,27.9118285 L160.144928,27.9118285 L160.144928,43.7256624 L162.44812,43.7256624 L162.44812,43.7256624 Z M164.086432,37.9169226 C163.776986,37.7774567 163.513432,37.5794831 163.295771,37.323002 C163.076798,37.0666568 162.908963,36.7592876 162.788332,36.4010304 C162.669011,36.0429092 162.608696,35.6450572 162.608696,35.2076105 L162.608696,32.334341 C162.608696,31.851857 162.679501,31.4274725 162.821112,31.0617317 C162.962723,30.696127 163.150226,30.3906627 163.382311,30.1454748 C163.615707,29.9005591 163.885817,29.7175526 164.195263,29.5968636 C164.503398,29.4763107 164.822022,29.4158981 165.148514,29.4158981 C165.497297,29.4158981 165.822477,29.4820254 166.124056,29.6138716 C166.425635,29.745854 166.673454,29.9495422 166.866202,30.2246642 C167.057639,30.5000583 167.208429,30.8562746 167.318571,31.2937213 C167.397243,31.6179625 167.453626,31.9876492 167.486406,32.4022371 C167.519186,32.8170971 167.536232,33.2582175 167.536232,33.7257344 C167.536232,34.0878014 167.519186,34.491232 167.486406,34.9361623 C167.453626,35.3812285 167.411667,35.7469693 167.361841,36.0333847 C167.237275,36.6894866 166.994701,37.202449 166.631495,37.5718635 C166.268289,37.9414141 165.759539,38.1261894 165.105244,38.1261894 C164.734171,38.1261894 164.394567,38.0565245 164.086432,37.9169226 L164.086432,37.9169226 Z" id="Fill-2" fill="#FFFFFF"></path>
                    <path d="M22.3598274,45.9903382 C27.6997935,45.9903382 32.0289855,41.4402806 32.0289855,35.8272307 C32.0289855,30.2143088 27.6997935,25.6642512 22.3598274,25.6642512 C17.0197394,25.6642512 12.6907301,30.2143088 12.6907301,35.8272307 C12.6907301,41.4402806 17.0197394,45.9903382 22.3598274,45.9903382 L22.3598274,45.9903382 Z M9.66915815,45.9903382 C15.0092188,45.9903382 19.3382554,41.4402806 19.3382554,35.8273587 C19.3382554,30.2145008 15.0092188,25.6642512 9.66915815,25.6642512 C4.32903661,25.6642512 0,30.2145008 0,35.8273587 C0,41.4402806 4.32903661,45.9903382 9.66915815,45.9903382 L9.66915815,45.9903382 Z M15.7123021,36.7512077 C21.0524236,36.7512077 25.3814602,32.2009084 25.3814602,26.5881322 C25.3814602,20.9752281 21.0524236,16.4251208 15.7123021,16.4251208 C10.3721805,16.4251208 6.04320481,20.9752281 6.04320481,26.5881322 C6.04320481,32.2009084 10.3721805,36.7512077 15.7123021,36.7512077 L15.7123021,36.7512077 Z M5.43888433,45.0045495 C5.43888433,45.0046134 9.95561483,21.352657 16.146719,21.352657 C22.3341938,21.352657 26.5901012,45.3743961 26.5901012,45.3743961" id="Imported-Layers" stroke="#FFFFFF" stroke-width="2"></path>
                </g>
            </g>
        </g>
    </g>
</svg>