<?xml version="1.0" encoding="UTF-8" standalone="no"?>
<svg width="42px" height="42px" viewBox="0 0 42 42" version="1.1" xmlns="http://www.w3.org/2000/svg" xmlns:xlink="http://www.w3.org/1999/xlink">
    <!-- Generator: Sketch 3.7.2 (28276) - http://www.bohemiancoding.com/sketch -->
    <title>facebook</title>
    <desc>Created with Sketch.</desc>
    <defs></defs>
    <g id="00_00-Style-Inventory" stroke="none" stroke-width="1" fill="none" fill-rule="evenodd">
        <g id="Icons" transform="translate(-43.000000, -455.000000)">
            <g id="Social-Media" transform="translate(25.000000, 100.000000)">
                <g id="Social-media-on-electricBlue" transform="translate(0.000000, 325.000000)">
                    <g id="facebook" transform="translate(18.000000, 30.000000)">
                        <rect id="Rectangle-87" fill="#00A0F0" x="3" y="0" width="36" height="42"></rect>
                        <path d="M39.6820098,0 L2.31814759,0 C1.0376665,0 0,1.0376665 0,2.31814759 L0,39.6818524 C0,40.9620188 1.0376665,42 2.31814759,42 L22.4335188,42 L22.4335188,25.7353566 L16.9601978,25.7353566 L16.9601978,19.3966841 L22.4335188,19.3966841 L22.4335188,14.7221492 C22.4335188,9.29745405 25.7468443,6.34355083 30.5861406,6.34355083 C32.9041308,6.34355083 34.896375,6.51602316 35.4770528,6.5932895 L35.4770528,12.2623728 L32.1207666,12.2639465 C29.4888327,12.2639465 28.979284,13.5145282 28.979284,15.3497218 L28.979284,19.3966841 L35.256112,19.3966841 L34.4387568,25.7353566 L28.979284,25.7353566 L28.979284,42 L39.6820098,42 C40.9620188,42 42,40.9620188 42,39.6818524 L42,2.31814759 C42,1.0376665 40.9620188,0 39.6820098,0" id="Imported-Layers" fill="#FFFFFF"></path>
                    </g>
                </g>
            </g>
        </g>
    </g>
</svg>