<?xml version="1.0" encoding="UTF-8" standalone="no"?>
<svg width="42px" height="42px" viewBox="0 0 42 42" version="1.1" xmlns="http://www.w3.org/2000/svg" xmlns:xlink="http://www.w3.org/1999/xlink">
    <!-- Generator: Sketch 3.7.2 (28276) - http://www.bohemiancoding.com/sketch -->
    <title>twitter@1x</title>
    <desc>Created with Sketch.</desc>
    <defs></defs>
    <g id="00_00-Style-Inventory" stroke="none" stroke-width="1" fill="none" fill-rule="evenodd">
        <g id="Icons" transform="translate(-127.000000, -455.000000)">
            <g id="Social-Media" transform="translate(25.000000, 100.000000)">
                <g id="Social-media-on-electricBlue" transform="translate(0.000000, 325.000000)">
                    <g id="twitter" transform="translate(102.000000, 30.000000)">
                        <rect id="Rectangle-57" fill="#FFFFFF" x="0" y="0" width="42" height="42" rx="3"></rect>
                        <g id="TwitterLogo_#55acee" stroke-width="1" transform="translate(7.170732, 11.268293)" fill="#00A0F0">
                            <path d="M27.6585366,2.66783719 C26.6408797,3.12033792 25.547245,3.4261639 24.3993839,3.56370952 C25.5710197,2.859549 26.4707138,1.74457746 26.8944087,0.41608563 C25.7980425,1.06800722 24.5836123,1.54150495 23.2910797,1.79671496 C22.2559206,0.690973992 20.7811831,0 19.1491282,0 C16.0152224,0 13.4744693,2.54733263 13.4744693,5.68927617 C13.4744693,6.13518363 13.5247502,6.5694261 13.6214676,6.98581603 C8.90538309,6.74855999 4.724178,4.48352046 1.92544449,1.04143129 C1.43700155,1.88171734 1.15716867,2.85904183 1.15716867,3.90169034 C1.15716867,5.87551049 2.15904323,7.61694348 3.68163358,8.6371749 C2.75138652,8.60765736 1.87647879,8.35173731 1.1113392,7.92560964 C1.11093453,7.94934538 1.11093453,7.97318257 1.11093453,7.99712118 C1.11093453,10.7537138 3.06693199,13.0532412 5.66282207,13.5758334 C5.18662056,13.7058728 4.68532919,13.7753557 4.16774964,13.7753557 C3.80212562,13.7753557 3.44661847,13.7397521 3.10021652,13.6733123 C3.82225821,15.9336858 5.9178686,17.5785528 8.40095548,17.6245028 C6.45891931,19.1503868 4.01215203,20.0599528 1.35363846,20.0599528 C0.895647333,20.0599528 0.443928668,20.0330726 0,19.9805293 C2.5112118,21.5947631 5.49397136,22.5365854 8.69849291,22.5365854 C19.135875,22.5365854 24.8434137,13.8672556 24.8434137,6.34900823 C24.8434137,6.10231875 24.8379506,5.85694792 24.8270244,5.61299718 C25.935632,4.81085063 26.8977473,3.80877604 27.6585366,2.66783719" id="Fill-1"></path>
                        </g>
                    </g>
                </g>
            </g>
        </g>
    </g>
</svg>