<?xml version="1.0" encoding="UTF-8" standalone="no"?>
<svg width="42px" height="42px" viewBox="0 0 42 42" version="1.1" xmlns="http://www.w3.org/2000/svg" xmlns:xlink="http://www.w3.org/1999/xlink">
    <!-- Generator: Sketch 3.7.1 (28215) - http://www.bohemiancoding.com/sketch -->
    <title>google+@1x</title>
    <desc>Created with Sketch.</desc>
    <defs></defs>
    <g id="00_00-Style-Inventory" stroke="none" stroke-width="1" fill="none" fill-rule="evenodd">
        <g id="Icons" transform="translate(-211.000000, -455.000000)">
            <g id="Social-Media" transform="translate(25.000000, 100.000000)">
                <g id="Social-media-on-electricBlue" transform="translate(0.000000, 325.000000)">
                    <g id="google+" transform="translate(186.000000, 30.000000)">
                        <rect id="Rectangle-57" fill="#FFFFFF" x="0" y="0" width="42" height="42" rx="3"></rect>
                        <g id="icon" stroke-width="1" transform="translate(9.500000, 13.500000)" fill="#00A0F0">
                            <path d="M7.14285714,6.42857143 L7.14285714,9 L11.1938776,9 C11.0306122,10.1035714 9.96938776,12.2357143 7.14285714,12.2357143 C4.70408163,12.2357143 2.71428571,10.1142857 2.71428571,7.5 C2.71428571,4.88571429 4.70408163,2.76428571 7.14285714,2.76428571 C8.53061224,2.76428571 9.45918367,3.38571429 9.98979592,3.92142857 L11.9285714,1.96071429 C10.6836735,0.739285714 9.07142857,0 7.14285714,0 C3.19387755,0 0,3.35357143 0,7.5 C0,11.6464286 3.19387755,15 7.14285714,15 C11.2653061,15 14,11.9571429 14,7.67142857 C14,7.17857143 13.9489796,6.80357143 13.8877551,6.42857143 L7.14285714,6.42857143 L7.14285714,6.42857143 Z" id="Shape"></path>
                            <polyline id="Shape" points="23 6 21 6 21 4 19 4 19 6 17 6 17 8 19 8 19 10 21 10 21 8 23 8"></polyline>
                        </g>
                    </g>
                </g>
            </g>
        </g>
    </g>
</svg>