<?xml version="1.0" encoding="UTF-8" standalone="no"?>
<svg width="42px" height="42px" viewBox="0 0 42 42" version="1.1" xmlns="http://www.w3.org/2000/svg" xmlns:xlink="http://www.w3.org/1999/xlink">
    <!-- Generator: Sketch 3.7.1 (28215) - http://www.bohemiancoding.com/sketch -->
    <title>Mail</title>
    <desc>Created with Sketch.</desc>
    <defs></defs>
    <g id="00_00-Style-Inventory" stroke="none" stroke-width="1" fill="none" fill-rule="evenodd">
        <g id="Icons" transform="translate(-361.000000, -146.000000)">
            <g id="Social-Media" transform="translate(25.000000, 100.000000)">
                <g id="Social-Media-on-white" transform="translate(0.000000, 45.000000)">
                    <g id="Mail" transform="translate(336.000000, 1.000000)">
                        <rect id="Rectangle-57" fill="#199CDE" x="0" y="0" width="42" height="42" rx="3"></rect>
                        <path d="M35.686,14.184 C35.678,12.175 33.997,10.655 32.146,10.655 L9.853,10.655 C8,10.655 6.312,12.192 6.312,14.198 L6.312,27.803 C6.312,29.757 7.9,31.345 9.854,31.345 L32.146,31.345 C34.042,31.345 35.688,29.773 35.688,27.803 L35.688,14.197 C35.688,14.192 35.686,14.188 35.686,14.184 L35.686,14.184 Z M33.861,28.622 C33.856,28.631 33.852,28.638 33.848,28.646 L24.734,21.001 L33.848,13.354 C33.852,13.363 33.858,13.372 33.861,13.381 C33.971,13.604 34.052,13.895 34.052,14.194 C34.052,14.195 34.053,14.196 34.053,14.198 L34.053,27.803 C34.053,28.105 33.971,28.399 33.861,28.622 L33.861,28.622 Z M32.146,12.291 C32.273,12.291 32.398,12.306 32.522,12.333 L21,22 L9.478,12.332 C9.598,12.307 9.72,12.293 9.843,12.292 L9.854,12.291 L32.146,12.291 L32.146,12.291 Z M8.152,28.647 C8.025,28.392 7.946,28.108 7.946,27.803 L7.946,14.198 C7.946,13.893 8.025,13.609 8.152,13.353 L17.267,21.001 L8.152,28.647 L8.152,28.647 Z M9.854,29.711 C9.724,29.711 9.597,29.697 9.474,29.673 L18.538,22.067 L20.475,23.692 C20.778,23.948 21.222,23.948 21.525,23.692 L23.462,22.068 L32.527,29.673 L32.146,29.711 L9.854,29.711 L9.854,29.711 Z" id="tk-mail" fill="#FFFFFF"></path>
                    </g>
                </g>
            </g>
        </g>
    </g>
</svg>