<?xml version="1.0" encoding="UTF-8" standalone="no"?>
<svg width="42px" height="42px" viewBox="0 0 42 42" version="1.1" xmlns="http://www.w3.org/2000/svg" xmlns:xlink="http://www.w3.org/1999/xlink" xmlns:sketch="http://www.bohemiancoding.com/sketch/ns">
    <!-- Generator: Sketch 3.3.3 (12081) - http://www.bohemiancoding.com/sketch -->
    <title>youtube copy</title>
    <desc>Created with Sketch.</desc>
    <defs>
        <linearGradient x1="50.0884375%" y1="0.0249532127%" x2="50.0884375%" y2="100.089395%" id="linearGradient-1">
            <stop stop-color="#E52F28" offset="0%"></stop>
            <stop stop-color="#BF181F" offset="100%"></stop>
        </linearGradient>
    </defs>
    <g id="00_00-Style-Inventory" stroke="none" stroke-width="1" fill="none" fill-rule="evenodd" sketch:type="MSPage">
        <g id="Icons" sketch:type="MSArtboardGroup" transform="translate(-277.000000, -146.000000)">
            <g id="Social-Media" sketch:type="MSLayerGroup" transform="translate(25.000000, 100.000000)">
                <g id="Social-Media-on-white" transform="translate(0.000000, 45.000000)" sketch:type="MSShapeGroup">
                    <g id="youtube-copy" transform="translate(252.000000, 1.000000)">
                        <rect id="Rectangle-57" fill="url(#linearGradient-1)" x="0" y="0" width="42" height="42" rx="3"></rect>
                        <g id="YouTube_light_color_icon" transform="translate(7.000000, 11.000000)">
                            <path d="M11,5.64102564 L17.576087,10.2564103 L18.5,9.75374461 L11,5.64102564 L11,5.64102564 Z" id="The_Sharpness" opacity="0.12" fill="#000000"></path>
                            <g id="Lozenge" fill="#FFFFFF">
                                <path d="M27.6989247,4.31988873 C27.6989247,4.31988873 27.4252199,2.36161335 26.5876833,1.49930459 C25.5257087,0.367176634 24.3323558,0.361613352 23.7876833,0.294853964 C19.8737048,0.0083449235 14.0054741,0.0083449235 14.0054741,0.0083449235 L13.9945259,0.0083449235 C13.9945259,0.0083449235 8.12629521,0.0083449235 4.21231672,0.294853964 C3.66764418,0.361613352 2.4742913,0.367176634 1.41231672,1.49930459 C0.574780059,2.36161335 0.301075269,4.31988873 0.301075269,4.31988873 C0.301075269,4.31988873 0.0218963832,6.61752434 0.0218963832,8.91794159 L0.0218963832,11.0737135 C0.0218963832,13.3741307 0.301075269,15.6717663 0.301075269,15.6717663 C0.301075269,15.6717663 0.574780059,17.6300417 1.41231672,18.4923505 C2.47702835,19.6244784 3.87292278,19.5883171 4.49423265,19.7079277 C6.73040078,19.9248957 14,19.9944367 14,19.9944367 C14,19.9944367 19.8737048,19.9860918 23.7876833,19.6968011 C24.3350929,19.6300417 25.5257087,19.6244784 26.5876833,18.4923505 C27.4252199,17.6300417 27.6989247,15.6717663 27.6989247,15.6717663 C27.6989247,15.6717663 27.9781036,13.3713491 27.9781036,11.0737135 L27.9781036,8.91794159 C27.9781036,6.61752434 27.6989247,4.31988873 27.6989247,4.31988873 L27.6989247,4.31988873 Z M11.1124145,13.6856745 L11.1124145,5.70236439 L18.6666667,9.70792768 L11.1124145,13.6856745 L11.1124145,13.6856745 Z" id="Shape"></path>
                            </g>
                        </g>
                    </g>
                </g>
            </g>
        </g>
    </g>
</svg>