<?xml version="1.0" encoding="UTF-8" standalone="no"?>
<svg width="42px" height="42px" viewBox="0 0 42 42" version="1.1" xmlns="http://www.w3.org/2000/svg" xmlns:xlink="http://www.w3.org/1999/xlink">
    <!-- Generator: Sketch 3.7.2 (28276) - http://www.bohemiancoding.com/sketch -->
    <title>engineered hover@1x</title>
    <desc>Created with Sketch.</desc>
    <defs></defs>
    <g id="00_00-Style-Inventory" stroke="none" stroke-width="1" fill="none" fill-rule="evenodd">
        <g id="Icons" transform="translate(-623.000000, -596.000000)">
            <g id="Social-Media" transform="translate(25.000000, 100.000000)">
                <g id="Social-media-on-electricBlue" transform="translate(0.000000, 466.000000)">
                    <g id="engineered-hover" transform="translate(598.000000, 30.000000)">
                        <rect id="Rectangle-57" fill="#FFFFFF" x="0" y="0" width="42" height="42" rx="3"></rect>
                        <path d="M8.30273438,31 L9.52050781,25.2509766 L7.2265625,25.2509766 L7.2265625,23.2827148 L9.93115234,23.2827148 L10.9506836,18.5249023 L8.65673828,18.5249023 L8.65673828,16.5566406 L11.347168,16.5566406 L12.5649414,10.8217773 L14.7739258,10.8217773 L13.5561523,16.5566406 L16.331543,16.5566406 L17.5493164,10.8217773 L19.7583008,10.8217773 L18.5405273,16.5566406 L20.862793,16.5566406 L20.862793,18.5249023 L18.1298828,18.5249023 L17.1245117,23.2827148 L19.4467773,23.2827148 L19.4467773,25.2509766 L16.7138672,25.2509766 L15.4960938,31 L13.2871094,31 L14.5048828,25.2509766 L11.7294922,25.2509766 L10.5117188,31 L8.30273438,31 Z M12.1259766,23.2827148 L14.9155273,23.2827148 L15.9350586,18.5249023 L13.1455078,18.5249023 L12.1259766,23.2827148 Z M27.7283164,31.4672852 C26.2556528,31.4672852 25.0685716,31.1770049 24.1670371,30.5964355 C23.2655027,30.0158662 22.616502,29.2111054 22.2200156,28.1821289 C21.9840119,27.5873994 21.8188117,26.9383987 21.7244102,26.2351074 C21.6300087,25.5318161 21.5828086,24.7412153 21.5828086,23.8632812 C21.5828086,22.7210229 21.6583287,21.6944219 21.8093711,20.7834473 C21.9604135,19.8724727 22.1798938,19.1314319 22.4678184,18.5603027 C22.755743,17.9891736 23.0790633,17.5242531 23.4377891,17.1655273 C23.9192368,16.6651993 24.5139574,16.2852389 25.2219688,16.0256348 C25.9299801,15.7660306 26.793741,15.6362305 27.8132774,15.6362305 C28.7572925,15.6362305 29.5502533,15.7613106 30.1921836,16.0114746 C30.8341139,16.2616386 31.3674745,16.599119 31.7922813,17.0239258 C32.2642888,17.5148137 32.6206492,18.0788542 32.8613731,18.7160645 C33.1020969,19.3532747 33.2554971,20.0400354 33.3215781,20.7763672 C33.3876592,21.512699 33.4206992,22.2159797 33.4206992,22.8862305 L33.4206992,24.4438477 L24.429,24.4438477 L24.429,24.8544922 C24.429,25.6569051 24.5139601,26.3271457 24.6838828,26.8652344 C24.8538056,27.403323 25.0945258,27.8328434 25.4060508,28.1538086 C25.7175758,28.4747737 26.0880962,28.701334 26.5176231,28.8334961 C26.94715,28.9656582 27.4215104,29.0317383 27.9407188,29.0317383 C28.4976877,29.0317383 28.9956482,28.9302582 29.4346153,28.7272949 C29.8735823,28.5243317 30.2110626,28.2859714 30.4470664,28.012207 C30.6830702,27.7384426 30.8624304,27.4977224 30.9851524,27.2900391 L33.2366172,28.4511719 C32.8778915,29.1308628 32.446011,29.6949034 31.9409629,30.1433105 C31.4359148,30.5917177 30.8175942,30.9244781 30.0859824,31.1416016 C29.3543707,31.358725 28.5684899,31.4672852 27.7283164,31.4672852 L27.7283164,31.4672852 Z M24.4573203,22.3339844 L30.6311485,22.3339844 C30.6311485,21.125645 30.4871883,20.181644 30.1992637,19.5019531 C29.9113391,18.8222622 29.5290187,18.3880218 29.052291,18.1992188 C28.5755634,18.0104157 28.0964829,17.9160156 27.6150352,17.9160156 C27.1619079,17.9160156 26.7465475,17.9844557 26.3689414,18.1213379 C25.9913354,18.2582201 25.665655,18.4942203 25.3918906,18.8293457 C25.1181263,19.1644711 24.898646,19.6175915 24.7334434,20.1887207 C24.5682407,20.7598499 24.4762006,21.4749306 24.4573203,22.3339844 L24.4573203,22.3339844 Z" id="#e" fill="#003C7D"></path>
                    </g>
                </g>
            </g>
        </g>
    </g>
</svg>