<?xml version="1.0" encoding="UTF-8" standalone="no"?>
<svg width="42px" height="42px" viewBox="0 0 42 42" version="1.1" xmlns="http://www.w3.org/2000/svg" xmlns:xlink="http://www.w3.org/1999/xlink">
    <!-- Generator: Sketch 3.7.2 (28276) - http://www.bohemiancoding.com/sketch -->
    <title>Mail @1x</title>
    <desc>Created with Sketch.</desc>
    <defs></defs>
    <g id="00_00-Style-Inventory" stroke="none" stroke-width="1" fill="none" fill-rule="evenodd">
        <g id="Icons" transform="translate(-691.000000, -456.000000)">
            <g id="Social-Media" transform="translate(25.000000, 100.000000)">
                <g id="Social-Media-on-white" transform="translate(0.000000, 45.000000)">
                    <g id="Mail" transform="translate(666.000000, 311.000000)">
                        <g id="Group">
                            <rect id="Rectangle-57" fill="#FFFFFF" x="0" y="0" width="42" height="42" rx="3"></rect>
                            <path d="M35.374,14.529 C35.366,12.52 33.685,11 31.834,11 L9.541,11 C7.688,11 6,12.537 6,14.543 L6,28.148 C6,30.102 7.588,31.69 9.542,31.69 L31.834,31.69 C33.73,31.69 35.376,30.118 35.376,28.148 L35.376,14.542 C35.376,14.537 35.374,14.533 35.374,14.529 L35.374,14.529 Z M33.549,28.967 C33.544,28.976 33.54,28.983 33.536,28.991 L24.422,21.346 L33.536,13.699 C33.54,13.708 33.546,13.717 33.549,13.726 C33.659,13.949 33.74,14.24 33.74,14.539 C33.74,14.54 33.741,14.541 33.741,14.543 L33.741,28.148 C33.741,28.45 33.659,28.744 33.549,28.967 L33.549,28.967 Z M31.834,12.636 C31.961,12.636 32.086,12.651 32.21,12.678 L20.688,22.345 L9.166,12.677 C9.286,12.652 9.408,12.638 9.531,12.637 L9.542,12.636 L31.834,12.636 L31.834,12.636 Z M7.84,28.992 C7.713,28.737 7.634,28.453 7.634,28.148 L7.634,14.543 C7.634,14.238 7.713,13.954 7.84,13.698 L16.955,21.346 L7.84,28.992 L7.84,28.992 Z M9.542,30.056 C9.412,30.056 9.285,30.042 9.162,30.018 L18.226,22.412 L20.163,24.037 C20.466,24.293 20.91,24.293 21.213,24.037 L23.15,22.413 L32.215,30.018 L31.834,30.056 L9.542,30.056 L9.542,30.056 Z" id="tk-mail" fill="#00A0F0"></path>
                        </g>
                    </g>
                </g>
            </g>
        </g>
    </g>
</svg>