<?xml version="1.0" encoding="UTF-8" standalone="no"?>
<svg width="42px" height="42px" viewBox="0 0 42 42" version="1.1" xmlns="http://www.w3.org/2000/svg" xmlns:xlink="http://www.w3.org/1999/xlink" xmlns:sketch="http://www.bohemiancoding.com/sketch/ns">
    <!-- Generator: Sketch 3.3.3 (12081) - http://www.bohemiancoding.com/sketch -->
    <title>twitter copy</title>
    <desc>Created with Sketch.</desc>
    <defs></defs>
    <g id="00_00-Style-Inventory" stroke="none" stroke-width="1" fill="none" fill-rule="evenodd" sketch:type="MSPage">
        <g id="Icons" sketch:type="MSArtboardGroup" transform="translate(-109.000000, -146.000000)">
            <g id="Social-Media" sketch:type="MSLayerGroup" transform="translate(25.000000, 100.000000)">
                <g id="Social-Media-on-white" transform="translate(0.000000, 45.000000)" sketch:type="MSShapeGroup">
                    <g id="twitter-copy" transform="translate(84.000000, 1.000000)">
                        <rect id="Rectangle-57" fill="#5D9EC9" x="0" y="0" width="42" height="42" rx="3"></rect>
                        <path d="M34.8292683,13.9361299 C33.8116114,14.3886306 32.7179767,14.6944566 31.5701156,14.8320022 C32.7417514,14.1278417 33.6414455,13.0128701 34.0651404,11.6843783 C32.9687742,12.3362999 31.754344,12.8097976 30.4618115,13.0650076 C29.4266524,11.9592667 27.9519148,11.2682927 26.3198599,11.2682927 C23.1859541,11.2682927 20.645201,13.8156253 20.645201,16.9575688 C20.645201,17.4034763 20.6954819,17.8377188 20.7921993,18.2541087 C16.0761148,18.0168527 11.8949097,15.7518131 9.09617619,12.309724 C8.60773326,13.15001 8.32790037,14.1273345 8.32790037,15.169983 C8.32790037,17.1438032 9.32977494,18.8852362 10.8523653,19.9054676 C9.92211823,19.87595 9.0472105,19.62003 8.28207091,19.1939023 C8.28166623,19.2176381 8.28166623,19.2414752 8.28166623,19.2654139 C8.28166623,22.0220065 10.2376637,24.3215339 12.8335538,24.8441261 C12.3573523,24.9741655 11.8560609,25.0436484 11.3384813,25.0436484 C10.9728573,25.0436484 10.6173502,25.0080447 10.2709482,24.9416049 C10.9929899,27.2019785 13.0886003,28.8468455 15.5716872,28.8927955 C13.629651,30.4186795 11.1828837,31.3282455 8.52437017,31.3282455 C8.06637904,31.3282455 7.61466038,31.3013653 7.17073171,31.248822 C9.68194351,32.8630557 12.6647031,33.804878 15.8692246,33.804878 C26.3066068,33.804878 32.0141454,25.1355483 32.0141454,17.6173009 C32.0141454,17.3706114 32.0086823,17.1252406 31.9977561,16.8812899 C33.1063637,16.0791433 34.068479,15.0770687 34.8292683,13.9361299" id="Fill-1" fill="#FFFFFF"></path>
                    </g>
                </g>
            </g>
        </g>
    </g>
</svg>