<?xml version="1.0" encoding="UTF-8" standalone="no"?>
<svg width="42px" height="42px" viewBox="0 0 42 42" version="1.1" xmlns="http://www.w3.org/2000/svg" xmlns:xlink="http://www.w3.org/1999/xlink" xmlns:sketch="http://www.bohemiancoding.com/sketch/ns">
    <!-- Generator: Sketch 3.3.3 (12081) - http://www.bohemiancoding.com/sketch -->
    <title>LinkedIn</title>
    <desc>Created with Sketch.</desc>
    <defs></defs>
    <g id="00_00-Style-Inventory" stroke="none" stroke-width="1" fill="none" fill-rule="evenodd" sketch:type="MSPage">
        <g id="Icons" sketch:type="MSArtboardGroup" transform="translate(-445.000000, -145.000000)">
            <g id="Social-Media" sketch:type="MSLayerGroup" transform="translate(25.000000, 100.000000)">
                <g id="Social-Media-on-white" transform="translate(0.000000, 45.000000)" sketch:type="MSShapeGroup">
                    <g id="LinkedIn" transform="translate(420.000000, 0.000000)">
                        <path d="M39.6047463,41.9133358 C40.8796343,41.9133358 41.9131791,40.879791 41.9131791,39.604903 L41.9131791,2.39509701 C41.9131791,1.11989552 40.8796343,0.0866641791 39.6047463,0.0866641791 L2.39525373,0.0866641791 C1.11989552,0.0866641791 0.0866641791,1.11989552 0.0866641791,2.39509701 L0.0866641791,39.604903 C0.0866641791,40.879791 1.11989552,41.9133358 2.39525373,41.9133358 L39.6047463,41.9133358" id="Fill-1" fill="#007ABA"></path>
                        <path d="M9.98940366,7.69286405 C8.0980734,7.69286405 6.56720052,9.22649085 6.56689453,11.1135372 C6.56689453,13.0024196 8.09776741,14.5357404 9.98970965,14.5357404 C11.87645,14.5357404 13.4094649,13.0024196 13.4094649,11.1135372 C13.4094649,9.22618486 11.876144,7.69286405 9.98940366,7.69286405 L9.98940366,7.69286405 Z" id="Shape" fill="#FFFFFF"></path>
                        <rect id="Rectangle-path" fill="#FFFFFF" x="7.17887649" y="17.1785845" width="5.90164806" height="18.9879644"></rect>
                        <path d="M27.9877932,16.5666025 C25.1169858,16.5666025 23.1919965,18.1406201 22.4040698,19.6332441 L22.3251241,19.6332441 L22.3251241,17.0387466 L16.6649029,17.0387466 L16.6645969,17.0387466 L16.6645969,36.026405 L22.5610431,36.026405 L22.5610431,26.6330938 C22.5610431,24.1567088 23.0325752,21.7580455 26.1028887,21.7580455 C29.1291395,21.7580455 29.1695303,24.590298 29.1695303,26.7919031 L29.1695303,36.026099 L35.0668945,36.026099 L35.0668945,25.6113899 C35.0668945,20.4991986 33.963797,16.5666025 27.9877932,16.5666025 L27.9877932,16.5666025 Z" id="Shape" fill="#FFFFFF"></path>
                    </g>
                </g>
            </g>
        </g>
    </g>
</svg>