<?xml version="1.0" encoding="UTF-8" standalone="no"?>
<svg width="142px" height="109px" viewBox="0 0 142 109" version="1.1" xmlns="http://www.w3.org/2000/svg" xmlns:xlink="http://www.w3.org/1999/xlink" xmlns:sketch="http://www.bohemiancoding.com/sketch/ns">
    <!-- Generator: Sketch 3.4.2 (15857) - http://www.bohemiancoding.com/sketch -->
    <title>Logo primary</title>
    <desc>Created with Sketch.</desc>
    <defs></defs>
    <g id="00_01-Header-Internet" stroke="none" stroke-width="1" fill="none" fill-rule="evenodd" sketch:type="MSPage">
        <g id="00_01_Header_D_INTERNET" sketch:type="MSArtboardGroup" transform="translate(-131.000000, -38.000000)" fill="#FFFFFF">
            <g id="00_01_Header_D-INTERNET" sketch:type="MSLayerGroup" transform="translate(-1.000000, 0.000000)">
                <g id="Logo-negativ" transform="translate(94.000000, 0.546875)" sketch:type="MSShapeGroup">
                    <g id="Logo-primary" transform="translate(37.781865, 37.781865)">
                        <path d="M96.2207875,25.183039 C95.9973042,11.4468359 84.76112,0.339680356 70.9721649,0.339680356 C57.1835662,0.339680356 45.947382,11.4468359 45.7238987,25.183039 C36.8063091,29.0866899 30.5576876,37.9910914 30.5576876,48.3319167 C30.5576876,62.2595241 41.8886829,73.5905194 55.8170032,73.5905194 C61.4988968,73.5905194 66.7477246,71.7035648 70.9721649,68.524898 C75.1969616,71.7035648 80.445433,73.5905194 86.127683,73.5905194 C100.055647,73.5905194 111.386642,62.2595241 111.386642,48.3319167 C111.386642,37.9910914 105.138377,29.0866899 96.2207875,25.183039 L96.2207875,25.183039 Z M80.964399,46.0118963 C80.3809187,39.6328204 77.4168244,33.9341745 72.9692573,29.811674 C75.5965226,27.9396895 78.6351113,26.6123341 81.9232029,25.9949927 C84.1551845,30.1927005 86.2100189,35.289688 88.0310336,40.6008916 C86.0624558,42.8367939 83.6647331,44.6848974 80.964399,46.0118963 L80.964399,46.0118963 Z M70.9721649,65.257836 C66.6454284,61.3798483 63.8107192,55.8726067 63.4403857,49.7102419 C65.8202867,50.4551862 68.3498896,50.8575987 70.9721649,50.8575987 C73.5944402,50.8575987 76.1243995,50.4551862 78.5043005,49.7102419 C78.1336105,55.8726067 75.2989013,61.3798483 70.9721649,65.257836 L70.9721649,65.257836 Z M53.9132962,40.6005351 C55.7343108,35.289688 57.7891453,30.1923441 60.0214833,25.9946363 C63.3095749,26.6123341 66.3481636,27.939333 68.9754289,29.811674 C64.5271489,33.9341745 61.5634111,39.6328204 60.9792179,46.0115399 C58.2795967,44.6845409 55.8822304,42.8364374 53.9132962,40.6005351 L53.9132962,40.6005351 Z M52.0673313,38.2070896 C49.8759831,34.9318296 48.5126281,31.0591884 48.2780953,26.8889259 C50.6387491,26.0562991 53.1747677,25.5986395 55.8170032,25.5986395 C56.3366821,25.5986395 56.8503016,25.6225205 57.3614261,25.6567381 C55.5625103,29.1333826 53.7963863,33.3157638 52.0673313,38.2070896 L52.0673313,38.2070896 Z M61.3260269,23.6849524 C64.3043785,18.7255479 67.561104,15.4951984 70.9721649,15.4951984 C74.3835822,15.4951984 77.6399513,18.7255479 80.6183028,23.6849524 C77.0646689,24.4790845 73.7894089,26.0185173 70.9721649,28.1382225 C68.1545644,26.0185173 64.8796609,24.4790845 61.3260269,23.6849524 L61.3260269,23.6849524 Z M70.9721649,48.3315603 C68.3302858,48.3315603 65.7942672,47.8739007 63.4336134,47.0412739 C63.7822046,40.8432658 66.6247553,35.3025196 70.9721649,31.405641 C75.3195744,35.3025196 78.1621252,40.8432658 78.5110728,47.0416303 C76.150419,47.8739007 73.614044,48.3315603 70.9721649,48.3315603 L70.9721649,48.3315603 Z M84.5832601,25.6567381 C85.0940282,25.6225205 85.6080041,25.5986395 86.127683,25.5986395 C88.7699185,25.5986395 91.3055807,26.0562991 93.6665909,26.8889259 C93.4320581,31.0591884 92.0690595,34.932186 89.8769985,38.2074461 C88.1482999,33.3161202 86.3821759,29.1333826 84.5832601,25.6567381 L84.5832601,25.6567381 Z M70.9721649,2.86571885 C83.0438273,2.86571885 92.9444582,12.3250861 93.6601751,24.2199579 C91.2799175,23.4750136 88.7499583,23.0726011 86.127683,23.0726011 C85.1585425,23.0726011 84.2033029,23.1328382 83.2623206,23.239768 C79.3044919,16.4140819 75.1944666,12.96916 70.9721649,12.96916 C66.7498632,12.96916 62.6398378,16.4140819 58.6823656,23.239768 C57.7410269,23.1328382 56.7861437,23.0726011 55.8170032,23.0726011 C53.1947279,23.0726011 50.6647687,23.4750136 48.2848676,24.2199579 C49.0005844,12.3250861 58.9005025,2.86571885 70.9721649,2.86571885 L70.9721649,2.86571885 Z M33.0837261,48.3319167 C33.0837261,39.380466 38.2858612,31.6237778 45.8240563,27.9186599 C46.2774386,32.8705793 48.1665319,37.4104625 51.0696762,41.1237783 C51.0236964,41.2617178 50.9777166,41.3946672 50.9320932,41.5333195 C47.3007569,52.5617034 44.8745196,63.6991558 44.0383285,67.7692607 C37.4760462,63.7779274 33.0837261,56.5580268 33.0837261,48.3319167 L33.0837261,48.3319167 Z M55.8170032,71.0648374 C52.4440807,71.0648374 49.2436715,70.3209624 46.3622696,68.9971713 C47.5898238,62.7072036 49.9109135,52.8671663 53.00368,43.3293838 C55.2463545,45.6016423 57.9149661,47.4497458 60.8790603,48.7471608 C60.9952574,55.8918541 64.0890932,62.3229692 68.9754289,66.851803 C65.2585488,69.5000979 60.7183092,71.0648374 55.8170032,71.0648374 L55.8170032,71.0648374 Z M72.9689008,66.851803 C77.8552366,62.3229692 80.9487159,55.8918541 81.0652694,48.7471608 C84.0290073,47.4497458 86.6979753,45.6016423 88.9402934,43.3293838 C92.0334163,52.8671663 94.3548624,62.7072036 95.5820601,68.9971713 C92.7010147,70.3209624 89.5006055,71.0648374 86.127683,71.0648374 C81.2260206,71.0648374 76.6854245,69.5000979 72.9689008,66.851803 L72.9689008,66.851803 Z M97.9060013,67.7692607 C97.0701666,63.6991558 94.6435729,52.5617034 91.0122366,41.5333195 C90.9666132,41.3946672 90.9206334,41.2617178 90.8746536,41.1237783 C93.7781543,37.4104625 95.6668911,32.8705793 96.1202735,27.9186599 C103.658469,31.6237778 108.86096,39.380466 108.86096,48.3319167 C108.86096,56.5580268 104.46864,63.7779274 97.9060013,67.7692607 L97.9060013,67.7692607 Z" id="Fill-1"></path>
                        <path d="M135.059832,101.8788 C134.700548,101.722683 134.394016,101.500981 134.140592,101.21334 C133.886812,100.926056 133.690061,100.581742 133.550696,100.179329 C133.411688,99.7779858 133.341827,99.3324449 133.341827,98.8419936 L133.341827,95.6216242 C133.341827,95.0805593 133.424163,94.6050781 133.588835,94.1951805 C133.753863,93.7852829 133.97093,93.4423947 134.241819,93.1679415 C134.512352,92.8931319 134.827438,92.6881831 135.186366,92.5527387 C135.54565,92.4180071 135.915271,92.3502849 136.295941,92.3502849 C136.701561,92.3502849 137.079736,92.4244229 137.430466,92.5719861 C137.781552,92.7199056 138.068837,92.948379 138.293033,93.2566933 C138.516873,93.565364 138.692238,93.964925 138.819484,94.45502 C138.912157,94.8185813 138.977384,95.2327561 139.015879,95.6971879 C139.053661,96.1623326 139.073264,96.6570611 139.073264,97.1810172 C139.073264,97.5866376 139.053661,98.0393071 139.015879,98.5376 C138.977384,99.0369622 138.928909,99.4468598 138.870098,99.7672928 C138.726099,100.503326 138.443091,101.077896 138.020362,101.492427 C137.597633,101.906245 137.005955,102.112976 136.244971,102.112976 C135.814044,102.112976 135.419116,102.03563 135.059832,101.8788 L135.059832,101.8788 Z M133.341827,108.25146 L133.341827,102.658675 C133.536083,102.911742 133.795922,103.174076 134.121701,103.444965 C134.446768,103.715141 134.848111,103.928645 135.325731,104.085118 C135.803351,104.241236 136.367584,104.319651 137.018786,104.319651 C137.55094,104.319651 138.092362,104.230899 138.641624,104.053752 C139.191244,103.875892 139.681339,103.565083 140.112622,103.121324 C140.543906,102.677566 140.881804,102.121887 141.12703,101.454289 C141.320929,100.938531 141.464928,100.331882 141.557957,99.6343434 C141.650629,98.9371611 141.697322,98.1191481 141.697322,97.1810172 C141.697322,96.1245507 141.638154,95.1964 141.520175,94.3976343 C141.401483,93.5988686 141.194395,92.8995477 140.898556,92.299315 C140.17179,90.8625349 138.891127,90.1436101 137.056925,90.1436101 C136.151942,90.1436101 135.389533,90.3275294 134.767914,90.6953679 C134.146652,91.0632065 133.645864,91.5511628 133.26555,92.1595934 L133.202462,90.5499434 L130.792977,90.5499434 L130.792977,108.25146 L133.341827,108.25146 L133.341827,108.25146 Z M122.026514,101.8788 C121.667587,101.722683 121.361411,101.500981 121.107987,101.21334 C120.853851,100.926056 120.657813,100.581742 120.517735,100.179329 C120.37837,99.7779858 120.308509,99.3324449 120.308509,98.8419936 L120.308509,95.6216242 C120.308509,95.0805593 120.391201,94.6050781 120.555873,94.1951805 C120.720545,93.7852829 120.938682,93.4423947 121.208858,93.1679415 C121.479747,92.8931319 121.79412,92.6881831 122.153761,92.5527387 C122.513045,92.4180071 122.883022,92.3502849 123.263336,92.3502849 C123.669313,92.3502849 124.047131,92.4244229 124.398218,92.5719861 C124.748947,92.7199056 125.036232,92.948379 125.260785,93.2566933 C125.484268,93.565364 125.659633,93.964925 125.786523,94.45502 C125.879552,94.8185813 125.945135,95.2327561 125.983274,95.6971879 C126.021056,96.1623326 126.039947,96.6570611 126.039947,97.1810172 C126.039947,97.5866376 126.021056,98.0393071 125.983274,98.5376 C125.945135,99.0369622 125.896304,99.4468598 125.837136,99.7672928 C125.693494,100.503326 125.41013,101.077896 124.987757,101.492427 C124.565028,101.906245 123.97335,102.112976 123.212722,102.112976 C122.781439,102.112976 122.386155,102.03563 122.026514,101.8788 L122.026514,101.8788 Z M120.308509,108.25146 L120.308509,102.658675 C120.503121,102.911742 120.762961,103.174076 121.08874,103.444965 C121.414163,103.715141 121.815863,103.928645 122.293126,104.085118 C122.770746,104.241236 123.334979,104.319651 123.985825,104.319651 C124.518692,104.319651 125.0594,104.230899 125.609019,104.053752 C126.158282,103.875892 126.648734,103.565083 127.079661,103.121324 C127.510944,102.677566 127.848843,102.121887 128.094068,101.454289 C128.28868,100.938531 128.432323,100.331882 128.525352,99.6343434 C128.618381,98.9371611 128.664717,98.1191481 128.664717,97.1810172 C128.664717,96.1245507 128.605193,95.1964 128.486857,94.3976343 C128.368521,93.5988686 128.16179,92.8995477 127.865951,92.299315 C127.138829,90.8625349 125.858166,90.1436101 124.023963,90.1436101 C123.119694,90.1436101 122.356571,90.3275294 121.735665,90.6953679 C121.114403,91.0632065 120.613615,91.5511628 120.232945,92.1595934 L120.169144,90.5499434 L117.760372,90.5499434 L117.760372,108.25146 L120.308509,108.25146 L120.308509,108.25146 Z M111.060863,103.742943 C111.715986,103.357996 112.271665,102.84901 112.728611,102.214916 L112.753918,103.901199 L115.163047,103.901199 L115.163047,90.5499434 L112.614196,90.5499434 L112.614196,98.4235416 C112.614196,98.8719339 112.517247,99.3641674 112.322634,99.9009551 C112.128022,100.437743 111.783352,100.912867 111.289336,101.327399 C110.794964,101.741217 110.234652,101.948304 109.609469,101.948304 C108.848841,101.948304 108.282113,101.756187 107.909998,101.371596 C107.538238,100.987005 107.352181,100.384991 107.352181,99.5651955 L107.352181,90.5499434 L104.803687,90.5499434 L104.803687,100.262021 C104.803687,101.040114 104.917745,101.688465 105.145862,102.208857 C105.374336,102.728536 105.672313,103.145205 106.040152,103.45744 C106.407634,103.770388 106.821809,103.99209 107.28232,104.1229 C107.742831,104.254068 108.205837,104.319651 108.670981,104.319651 C109.609469,104.319651 110.406096,104.127534 111.060863,103.742943 L111.060863,103.742943 Z M98.9079336,103.901199 L98.9079336,97.7513095 C98.9079336,97.1938488 98.9795766,96.5472799 99.1235754,95.8116028 C99.2668613,95.0762822 99.6154525,94.4314954 100.169349,93.8779554 C100.722889,93.324059 101.469259,93.0474673 102.407033,93.0474673 C102.720338,93.0474673 102.952375,93.064576 103.104929,93.0977243 L103.104929,90.5242802 L102.775228,90.5242802 C101.912661,90.5242802 101.134925,90.7737831 100.44202,91.2724325 C99.7487583,91.7710818 99.1987827,92.4686206 98.7935187,93.3643359 L98.768212,90.5499434 L96.3594398,90.5499434 L96.3594398,103.901199 L98.9079336,103.901199 L98.9079336,103.901199 Z M86.5971048,103.901199 L86.5971048,98.5500752 L88.3593081,96.7629217 L91.8591207,103.901199 L94.7497898,103.901199 L90.223451,94.8606404 L94.4582279,90.5499434 L91.4281935,90.5499434 L86.5971048,95.4819026 L86.5971048,85.8318438 L84.0486111,85.8318438 L84.0486111,103.901199 L86.5971048,103.901199 L86.5971048,103.901199 Z M73.2750765,103.901199 L73.2750765,96.0268881 C73.2750765,95.5706543 73.3741648,95.0680842 73.5730542,94.518465 C73.7715873,93.9692022 74.1162577,93.4915824 74.6059962,93.0852491 C75.0960911,92.6796287 75.6628191,92.477175 76.3054673,92.477175 C77.0660946,92.477175 77.6196346,92.6714308 77.9660872,93.0602988 C78.3128962,93.4495233 78.4864789,94.0490431 78.4864789,94.8606404 L78.4864789,103.901199 L81.0353291,103.901199 L81.0353291,94.1884083 C81.0353291,93.4028307 80.8931124,92.6928167 80.6097485,92.0583665 C80.3267409,91.4246292 79.8915366,90.9470094 79.3041355,90.6255071 C78.7167344,90.3043613 78.0298886,90.1436101 77.2435981,90.1436101 C76.2972693,90.1436101 75.49387,90.3343016 74.834826,90.7146153 C74.1750691,91.094929 73.6176083,91.6021327 73.161018,92.23587 L73.1353549,90.5499434 L70.7265828,90.5499434 L70.7265828,103.901199 L73.2750765,103.901199 L73.2750765,103.901199 Z M60.3230253,94.2204873 C60.4705885,93.7090063 60.6669829,93.3033859 60.9122086,93.0032696 C61.1574343,92.7035097 61.4489962,92.4917887 61.7876073,92.3688194 C62.125149,92.2469194 62.4976212,92.185613 62.9028852,92.185613 C63.3341687,92.185613 63.7633137,92.2697311 64.1899636,92.4390367 C64.6166135,92.6076293 64.9591454,92.9968538 65.2168462,93.6056409 C65.4749035,94.2140715 65.6039321,95.0591734 65.6039321,96.141303 L60.075661,96.141303 C60.0920569,95.3721213 60.1747493,94.7316117 60.3230253,94.2204873 L60.3230253,94.2204873 Z M65.1156193,104.027733 C65.7707426,103.833833 66.3242826,103.535856 66.7769521,103.134512 C67.2289087,102.732813 67.6156382,102.227748 67.9367841,101.619317 L65.9208008,100.579603 C65.8110195,100.765304 65.6499119,100.980946 65.4392602,101.225815 C65.2275392,101.471041 64.9252843,101.684544 64.532139,101.865969 C64.1393502,102.048106 63.6930964,102.138996 63.1944471,102.138996 C62.7296589,102.138996 62.3047911,102.079828 61.9205567,101.961136 C61.5356093,101.8428 61.2041269,101.63999 60.9250401,101.352705 C60.6459533,101.065421 60.4303116,100.680473 60.2784712,100.198933 C60.1262745,99.7170358 60.0499979,99.1168032 60.0499979,98.3985913 L60.0499979,98.0303963 L68.101456,98.0303963 L68.101456,96.6360316 C68.101456,96.0354425 68.0718721,95.405626 68.0127042,94.7465819 C67.9535364,94.0871814 67.8163098,93.4719786 67.600668,92.9020427 C67.3853827,92.3310376 67.0663754,91.8259724 66.6432898,91.3868474 C66.2629761,91.0061772 65.7853563,90.7039223 65.2107868,90.4800826 C64.6358609,90.2558864 63.925847,90.1436101 63.0803886,90.1436101 C62.1675645,90.1436101 61.3941056,90.2601636 60.7600118,90.4925577 C60.1262745,90.7249518 59.5934076,91.0653451 59.1624805,91.513381 C58.8413346,91.8345268 58.5519113,92.2508402 58.293854,92.7619647 C58.0361532,93.273802 57.8394023,93.9371233 57.7043143,94.7529977 C57.5688699,95.5688721 57.5015041,96.488112 57.5015041,97.5107174 C57.5015041,98.2966515 57.5439196,99.0052397 57.6280377,99.6343434 C57.7125123,100.264516 57.8604319,100.845502 58.0721529,101.378012 C58.4271598,102.299747 59.0085016,103.020098 59.8158216,103.539776 C60.6224288,104.059812 61.6856675,104.319651 63.0048249,104.319651 C63.7568979,104.319651 64.4608525,104.222345 65.1156193,104.027733 L65.1156193,104.027733 Z M52.0177872,104.186702 C52.452635,104.09795 52.8375824,103.981397 53.1712034,103.837398 C53.5051808,103.694468 53.792822,103.535856 54.0337705,103.362273 C54.274719,103.189403 54.462559,103.014038 54.597647,102.836535 C54.8599814,102.506834 55.071346,102.149689 55.2317407,101.764742 C55.3924919,101.380507 55.4726892,100.895759 55.4726892,100.312635 C55.4726892,99.8225399 55.4174422,99.4040879 55.3076609,99.0579918 C55.1982361,98.7108263 55.071346,98.4192644 54.9273472,98.1829495 C54.724537,97.8781996 54.4329751,97.5723803 54.0526614,97.2637096 C53.6719913,96.9550389 52.9284727,96.631398 51.8210363,96.2934998 C51.2632191,96.1327487 50.7684906,95.9723539 50.3379199,95.8116028 C49.9062799,95.6512081 49.5405799,95.4801204 49.24082,95.2979833 C48.9407037,95.1162026 48.714369,94.918026 48.5621722,94.7020278 C48.4103319,94.4867425 48.3340553,94.2397346 48.3340553,93.9602914 C48.3340553,93.3857219 48.5154795,92.9505176 48.8793973,92.654322 C49.0989598,92.4600662 49.3655715,92.3246218 49.678163,92.2483452 C49.9907544,92.172425 50.358593,92.1342867 50.7813221,92.1342867 C51.4068615,92.1342867 51.9350948,92.267949 52.3660219,92.5338478 C52.7973055,92.800103 53.1355601,93.2124956 53.3804293,93.7699563 L55.4220758,92.7815685 C55.0585145,91.8936946 54.4796678,91.232512 53.6848229,90.7969512 C52.8903344,90.3617469 51.9137088,90.1436101 50.7560154,90.1436101 C50.1051693,90.1436101 49.4774914,90.2245203 48.8733379,90.3849151 C48.2688281,90.5453098 47.7612679,90.7823375 47.3513703,91.094929 C46.9414727,91.4075204 46.6310199,91.7710818 46.4192989,92.185613 C46.2335974,92.5153133 46.1045688,92.8574886 46.0329258,93.2124956 C45.9609264,93.5675026 45.9249267,93.8929256 45.9249267,94.1884083 C45.9249267,94.5266629 45.9758966,94.8841649 46.0771235,95.2602014 C46.1790632,95.6362379 46.3515766,95.9809083 46.5971588,96.2934998 C46.7910582,96.5387255 47.0705014,96.7946442 47.4337063,97.060543 C47.7972676,97.3267982 48.2535015,97.5659645 48.8031207,97.7769727 L50.7560154,98.4998182 C51.102468,98.6349062 51.4553364,98.778905 51.814977,98.9307453 C52.1739047,99.0829421 52.4590508,99.2878908 52.6704154,99.5455917 C52.88178,99.8040054 52.9876405,100.147963 52.9876405,100.579603 C52.9876405,100.875086 52.9199183,101.126727 52.7848303,101.333815 C52.6493859,101.540902 52.4676052,101.708069 52.2394883,101.834602 C52.0113714,101.961136 51.7447597,102.052026 51.4407226,102.106917 C51.1363291,102.162164 50.8109061,102.189253 50.4644535,102.189253 C50.0841398,102.189253 49.7458852,102.143273 49.450046,102.050244 C49.1542069,101.956859 48.8879517,101.828187 48.6509239,101.663515 C48.4146091,101.498843 48.2071652,101.306369 48.0300182,101.086094 C47.8521583,100.866531 47.6956843,100.625583 47.5605963,100.363605 L45.4558613,101.302092 C45.6251668,101.750128 45.8572045,102.155748 46.1534001,102.518953 C46.4488828,102.882515 46.8042462,103.195462 47.218421,103.45744 C47.6497045,103.719419 48.1291065,103.928645 48.6576962,104.085118 C49.1859294,104.241236 49.8307162,104.319651 50.5913435,104.319651 C51.1063888,104.319651 51.5822264,104.275454 52.0177872,104.186702 L52.0177872,104.186702 Z M40.3595866,104.186702 C40.794791,104.09795 41.1797383,103.981397 41.5133593,103.837398 C41.8473367,103.694468 42.1346215,103.535856 42.37557,103.362273 C42.6165185,103.189403 42.8043585,103.014038 42.9398029,102.836535 C43.2017809,102.506834 43.4131455,102.149689 43.5738967,101.764742 C43.7346478,101.380507 43.8148452,100.895759 43.8148452,100.312635 C43.8148452,99.8225399 43.7595981,99.4040879 43.6498168,99.0579918 C43.5400356,98.7108263 43.4131455,98.4192644 43.2695032,98.1829495 C43.0666929,97.8781996 42.7754874,97.5723803 42.3944609,97.2637096 C42.0141472,96.9550389 41.2706286,96.631398 40.1631922,96.2934998 C39.6053751,96.1327487 39.1106465,95.9723539 38.6797194,95.8116028 C38.2487922,95.6512081 37.8827359,95.4801204 37.582976,95.2979833 C37.2828596,95.1162026 37.0565249,94.918026 36.9046846,94.7020278 C36.7524878,94.4867425 36.6762112,94.2397346 36.6762112,93.9602914 C36.6762112,93.3857219 36.8579919,92.9505176 37.2215532,92.654322 C37.4414722,92.4600662 37.707371,92.3246218 38.0203189,92.2483452 C38.3329104,92.172425 38.7007489,92.1342867 39.1231216,92.1342867 C39.7490174,92.1342867 40.2772507,92.267949 40.7081778,92.5338478 C41.1394614,92.800103 41.4773596,93.2124956 41.7225853,93.7699563 L43.7642317,92.7815685 C43.4006704,91.8936946 42.8214673,91.232512 42.0273352,90.7969512 C41.2324903,90.3617469 40.2562212,90.1436101 39.0981713,90.1436101 C38.4473253,90.1436101 37.8192908,90.2245203 37.2151374,90.3849151 C36.6106276,90.5453098 36.1034239,90.7823375 35.6938827,91.094929 C35.2832722,91.4075204 34.9728194,91.7710818 34.7614548,92.185613 C34.5753969,92.5153133 34.4463683,92.8574886 34.3747253,93.2124956 C34.3030823,93.5675026 34.2674391,93.8929256 34.2674391,94.1884083 C34.2674391,94.5266629 34.3176961,94.8841649 34.418923,95.2602014 C34.5208627,95.6362379 34.6937326,95.9809083 34.9393147,96.2934998 C35.1335705,96.5387255 35.4123009,96.7946442 35.7762187,97.060543 C36.1394236,97.3267982 36.5960138,97.5659645 37.1452766,97.7769727 L39.0981713,98.4998182 C39.4446239,98.6349062 39.7974923,98.778905 40.1567764,98.9307453 C40.5160606,99.0829421 40.8015632,99.2878908 41.0129278,99.5455917 C41.2239359,99.8040054 41.3297964,100.147963 41.3297964,100.579603 C41.3297964,100.875086 41.2620742,101.126727 41.1266298,101.333815 C40.9911854,101.540902 40.8101176,101.708069 40.5812878,101.834602 C40.3535273,101.961136 40.0869156,102.052026 39.7825221,102.106917 C39.478485,102.162164 39.1527056,102.189253 38.806253,102.189253 C38.4262957,102.189253 38.0876847,102.143273 37.792202,102.050244 C37.4960064,101.956859 37.2301076,101.828187 36.9934363,101.663515 C36.7564086,101.498843 36.5493212,101.306369 36.3718177,101.086094 C36.1946706,100.866531 36.0378403,100.625583 35.9027523,100.363605 L33.7976608,101.302092 C33.9669663,101.750128 34.199004,102.155748 34.4951996,102.518953 C34.7910387,102.882515 35.1460457,103.195462 35.5605769,103.45744 C35.991504,103.719419 36.470906,103.928645 36.9994957,104.085118 C37.5277289,104.241236 38.1725156,104.319651 38.933143,104.319651 C39.4489011,104.319651 39.9243823,104.275454 40.3595866,104.186702 L40.3595866,104.186702 Z M24.8209034,108.364449 C25.3028004,108.229718 25.7718658,107.903938 26.2280997,107.388537 C26.68469,106.872779 27.1070627,106.107874 27.4962872,105.093467 L33.176755,90.5499434 L30.6407364,90.5499434 L27.1537554,99.7933124 L23.8318027,90.5499434 L21.2323391,90.5499434 L25.8353109,103.279937 L25.2393554,104.548125 C25.0614955,105.013269 24.8148441,105.42281 24.497619,105.778174 C24.1803939,106.133181 23.7259422,106.310684 23.1342639,106.310684 C22.9232558,106.310684 22.7243663,106.293575 22.5383085,106.260071 L22.5383085,108.517003 C22.7667818,108.550864 23.0665417,108.567616 23.4390139,108.567616 C23.8784954,108.567616 24.3390064,108.499894 24.8209034,108.364449 L24.8209034,108.364449 Z M12.1497212,103.901199 L12.1497212,96.0268881 C12.1497212,95.5706543 12.2491659,95.0680842 12.4480554,94.518465 C12.6462319,93.9692022 12.9909023,93.4915824 13.4809973,93.0852491 C13.9710923,92.6796287 14.5378202,92.477175 15.1804684,92.477175 C15.9410957,92.477175 16.4942793,92.6714308 16.8410883,93.0602988 C17.1878973,93.4495233 17.3611236,94.0490431 17.3611236,94.8606404 L17.3611236,103.901199 L19.9096173,103.901199 L19.9096173,94.1884083 C19.9096173,93.4028307 19.7677571,92.6928167 19.4847496,92.0583665 C19.201742,91.4246292 18.7661813,90.9470094 18.1787802,90.6255071 C17.5913791,90.3043613 16.9048897,90.1436101 16.1185992,90.1436101 C15.2054187,90.1436101 14.4298211,90.3175493 13.792163,90.663289 C13.1534357,91.0104544 12.6063115,91.483797 12.1497212,92.0840297 L12.1497212,85.8318438 L9.60122744,85.8318438 L9.60122744,103.901199 L12.1497212,103.901199 L12.1497212,103.901199 Z M7.3984734,103.901556 L7.3984734,101.797177 C7.07732754,101.830325 6.75618169,101.847434 6.43503583,101.847434 C6.03725695,101.847434 5.71397249,101.796821 5.46482604,101.695237 C5.21532316,101.593654 5.01857231,101.441457 4.87528637,101.239003 C4.73164399,101.036193 4.63433787,100.783126 4.58372443,100.478376 C4.53311098,100.174339 4.50744783,99.819332 4.50744783,99.4133552 L4.50744783,92.5527387 L7.25910822,92.5527387 L7.25910822,90.5499434 L4.50744783,90.5499434 L4.50744783,85.8322003 L1.97178566,85.8322003 L1.97178566,90.5499434 L0.247007856,90.5499434 L0.247007856,92.5527387 L1.97178566,92.5527387 L1.97178566,99.4386619 C1.97178566,100.123369 2.02881489,100.747126 2.14287335,101.309221 C2.25657538,101.871315 2.46437564,102.348578 2.76413553,102.741724 C3.06389543,103.134869 3.47628805,103.43855 4.00060054,103.654191 C4.5245566,103.869477 5.19643223,103.978545 6.01622742,103.978545 C6.50632237,103.978545 6.96754627,103.952525 7.3984734,103.901556 L7.3984734,103.901556 Z" id="Fill-2"></path>
                    </g>
                </g>
            </g>
        </g>
    </g>
</svg>