<?xml version="1.0" encoding="UTF-8" standalone="no"?>
<svg width="81px" height="81px" viewBox="0 0 81 81" version="1.1" xmlns="http://www.w3.org/2000/svg" xmlns:xlink="http://www.w3.org/1999/xlink" xmlns:sketch="http://www.bohemiancoding.com/sketch/ns">
    <!-- Generator: Sketch 3.3.3 (12081) - http://www.bohemiancoding.com/sketch -->
    <title>immediately</title>
    <desc>Created with Sketch.</desc>
    <defs></defs>
    <g id="E-3_1-CTA-Kit:-5-step-configuration-wizard" stroke="none" stroke-width="1" fill="none" fill-rule="evenodd" sketch:type="MSPage">
        <g id="3_1-CTA-Kit:-5-step-configuration-wizard_D" sketch:type="MSArtboardGroup" transform="translate(-1157.000000, -1540.000000)">
            <g id="Steps_04" sketch:type="MSLayerGroup" transform="translate(1141.000000, 1363.000000)">
                <g id="text-+-icons" transform="translate(16.000000, 99.000000)" sketch:type="MSShapeGroup">
                    <g id="Immediately" transform="translate(0.000000, 78.000000)">
                        <g id="immediately">
                            <ellipse id="Oval-1-Copy-9" stroke="#00A0F0" stroke-width="3" cx="40.5" cy="40.5" rx="40.5" ry="40.5"></ellipse>
                            <g id="zeiger" transform="translate(54.428571, 31.285714) scale(-1, 1) translate(-54.428571, -31.285714) translate(38.428571, 19.285714)" fill="#00A0F0">
                                <rect id="Rectangle-345" x="28" y="0" width="3.85714286" height="23.1428571" rx="3"></rect>
                                <path d="M2.93025248,23.1428571 C1.86420347,23.1428571 1,22.2868321 1,21.2142857 L1,21.2142857 C1,20.1491651 1.85750238,19.2857143 2.93025248,19.2857143 L29.9268904,19.2857143 C30.9929394,19.2857143 31.8571429,20.1417393 31.8571429,21.2142857 L31.8571429,21.2142857 C31.8571429,22.2794063 30.9996405,23.1428571 29.9268904,23.1428571 L2.93025248,23.1428571 L2.93025248,23.1428571 Z" id="Rectangle-345-Copy"></path>
                            </g>
                            <path d="M27.328125,65 L27.328125,53.4765625 L28.796875,53.4765625 L33.34375,63.0625 L33.34375,53.4765625 L34.53125,53.4765625 L34.53125,65 L33.1484375,65 L28.515625,55.2578125 L28.515625,65 L27.328125,65 Z M39.890625,65.2578125 C39.4739563,65.2578125 39.1028662,65.2083338 38.7773438,65.109375 C38.4518213,65.0104162 38.16797,64.8710946 37.9257812,64.6914062 C37.6835925,64.5117179 37.4804696,64.2968762 37.3164062,64.046875 C37.1523429,63.7968738 37.023438,63.5182307 36.9296875,63.2109375 C36.8098952,62.8359356 36.7291669,62.4570332 36.6875,62.0742188 C36.6458331,61.6914043 36.625,61.3125019 36.625,60.9375 C36.625,60.5624981 36.6484373,60.1822936 36.6953125,59.796875 C36.7421877,59.4114564 36.820312,59.0390643 36.9296875,58.6796875 C37.0859383,58.179685 37.3151027,57.772137 37.6171875,57.4570312 C37.9192723,57.1419255 38.2695293,56.9231777 38.6679688,56.8007812 C39.0664082,56.6783848 39.4739563,56.6171875 39.890625,56.6171875 C40.4739613,56.6171875 40.9843728,56.7252593 41.421875,56.9414062 C41.8593772,57.1575532 42.1861968,57.4257796 42.4023438,57.7460938 C42.6184907,58.0664079 42.773437,58.3776027 42.8671875,58.6796875 C42.9817714,59.049481 43.0585936,59.4244773 43.0976562,59.8046875 C43.1367189,60.1848977 43.15625,60.5624981 43.15625,60.9375 C43.15625,61.3125019 43.138021,61.6914043 43.1015625,62.0742188 C43.065104,62.4570332 42.9817715,62.8359356 42.8515625,63.2109375 C42.6796866,63.6953149 42.4427098,64.0924464 42.140625,64.4023438 C41.8385402,64.7122411 41.4882832,64.932291 41.0898438,65.0625 C40.6914043,65.192709 40.2916687,65.2578125 39.890625,65.2578125 L39.890625,65.2578125 Z M39.890625,64.28125 C40.2656269,64.28125 40.6054672,64.1927092 40.9101562,64.015625 C41.2148453,63.8385408 41.4401034,63.565106 41.5859375,63.1953125 C41.7005214,62.898436 41.7877601,62.5885433 41.8476562,62.265625 C41.9075524,61.9427067 41.9375,61.5000028 41.9375,60.9375 C41.9375,60.3749972 41.9101565,59.9479181 41.8554688,59.65625 C41.800781,59.3645819 41.7109381,59.0442726 41.5859375,58.6953125 C41.4869787,58.4401029 41.3411468,58.2278654 41.1484375,58.0585938 C40.9557282,57.8893221 40.7434907,57.7721357 40.5117188,57.7070312 C40.2799468,57.6419268 40.0729176,57.609375 39.890625,57.609375 C39.5208315,57.609375 39.1822932,57.6966137 38.875,57.8710938 C38.5677068,58.0455738 38.3411466,58.3203106 38.1953125,58.6953125 C38.0546868,59.0390642 37.9609377,59.3645818 37.9140625,59.671875 C37.8671873,59.9791682 37.84375,60.401039 37.84375,60.9375 C37.84375,61.531253 37.8710935,61.9804672 37.9257812,62.2851562 C37.980469,62.5898453 38.0703119,62.8932277 38.1953125,63.1953125 C38.3411466,63.565106 38.5677068,63.8385408 38.875,64.015625 C39.1822932,64.1927092 39.5208315,64.28125 39.890625,64.28125 L39.890625,64.28125 Z M46.3359375,65 L44.0625,56.875 L45.234375,56.875 L46.9140625,63.4296875 L48.578125,56.875 L49.6953125,56.875 L51.375,63.4296875 L53.0390625,56.875 L54.1484375,56.875 L51.875,65 L50.8046875,65 L49.109375,58.84375 L47.40625,65 L46.3359375,65 Z" id="Now" fill="#199CDE"></path>
                        </g>
                    </g>
                </g>
            </g>
        </g>
    </g>
</svg>