<?xml version="1.0" encoding="UTF-8" standalone="no"?>
<svg width="81px" height="81px" viewBox="0 0 81 81" version="1.1" xmlns="http://www.w3.org/2000/svg" xmlns:xlink="http://www.w3.org/1999/xlink" xmlns:sketch="http://www.bohemiancoding.com/sketch/ns">
    <!-- Generator: Sketch 3.3.3 (12081) - http://www.bohemiancoding.com/sketch -->
    <title>house icon 2</title>
    <desc>Created with Sketch.</desc>
    <defs></defs>
    <g id="E-3_1-CTA-Kit:-5-step-configuration-wizard" stroke="none" stroke-width="1" fill="none" fill-rule="evenodd" sketch:type="MSPage">
        <g id="3_1-CTA-Kit:-5-step-configuration-wizard_D" sketch:type="MSArtboardGroup" transform="translate(-1264.000000, -810.000000)">
            <g id="Steps_02" sketch:type="MSLayerGroup" transform="translate(1141.000000, 633.000000)">
                <g id="text-+-icons" transform="translate(16.000000, 95.000000)" sketch:type="MSShapeGroup">
                    <g id="Curved-+-Rectangle-93" transform="translate(107.000000, 80.000000)">
                        <g id="house-icon-2" transform="translate(0.000000, 2.000000)">
                            <g id="house2" transform="translate(19.285714, 21.214286)" fill="#00A0F0">
                                <g id="Group">
                                    <path d="M47.0571429,19.6714286 L38.9571429,11.5714286 L38.9571429,4.62857143 C38.9571429,3.85714286 38.3785714,3.27857143 37.6071429,3.27857143 C36.8357143,3.27857143 36.45,3.85714286 36.45,4.62857143 L36.45,9.06428571 L27.9642857,0.578571429 C27.7714286,0.385714286 27.3857143,0.192857143 27,0.192857143 C26.6142857,0.192857143 26.4214286,0.385714286 26.0357143,0.578571429 L6.94285714,19.6714286 C6.36428571,20.25 6.36428571,21.0214286 6.94285714,21.4071429 C7.32857143,21.9857143 8.29285714,21.9857143 8.67857143,21.4071429 L27,3.08571429 L45.1285714,21.4071429 C45.3214286,21.6 45.7071429,21.7928571 46.0928571,21.7928571 C46.4785714,21.7928571 46.6714286,21.6 47.0571429,21.4071429 C47.4428571,21.2142857 47.4428571,20.25 47.0571429,19.6714286 L47.0571429,19.6714286 Z" id="Shape"></path>
                                    <path d="M40.1142857,18.9 C39.3428571,18.9 38.7642857,19.4785714 38.7642857,20.25 L38.7642857,37.8 L34.5214286,37.8 L28.9285714,37.8 L15.0428571,37.8 L15.0428571,20.8285714 C15.0428571,20.0571429 14.4642857,19.6714286 13.6928571,19.6714286 C12.9214286,19.6714286 12.5357143,20.25 12.5357143,20.8285714 L12.5357143,28.1571429 L7.90714286,28.1571429 L7.90714286,31.4357143 L5.4,31.4357143 L5.4,34.7142857 L2.89285714,34.7142857 L2.89285714,37.9928571 L0.385714286,37.9928571 L0.385714286,40.5 L2.89285714,40.5 L5.4,40.5 L5.4,37.2214286 L7.90714286,37.2214286 L7.90714286,33.9428571 L10.4142857,33.9428571 L10.4142857,30.6642857 L12.5357143,30.6642857 L12.5357143,39.15 C12.5357143,39.9214286 13.1142857,40.3071429 13.6928571,40.3071429 L28.9285714,40.3071429 L34.5214286,40.3071429 L40.1142857,40.3071429 C40.8857143,40.3071429 41.2714286,39.7285714 41.2714286,39.15 L41.2714286,20.25 C41.2714286,19.4785714 40.8857143,18.9 40.1142857,18.9 L40.1142857,18.9 Z" id="Shape"></path>
                                </g>
                            </g>
                            <ellipse id="circle" stroke="#00A0F0" stroke-width="3" cx="40.5" cy="40.5" rx="40.5" ry="40.5"></ellipse>
                        </g>
                    </g>
                </g>
            </g>
        </g>
    </g>
</svg>