<?xml version="1.0" encoding="UTF-8" standalone="no"?>
<svg width="81px" height="81px" viewBox="0 0 81 81" version="1.1" xmlns="http://www.w3.org/2000/svg" xmlns:xlink="http://www.w3.org/1999/xlink" xmlns:sketch="http://www.bohemiancoding.com/sketch/ns">
    <!-- Generator: Sketch 3.3.3 (12081) - http://www.bohemiancoding.com/sketch -->
    <title>stairs-icons-3</title>
    <desc>Created with Sketch.</desc>
    <defs></defs>
    <g id="E-3_1-CTA-Kit:-5-step-configuration-wizard" stroke="none" stroke-width="1" fill="none" fill-rule="evenodd" sketch:type="MSPage">
        <g id="3_1-CTA-Kit:-5-step-configuration-wizard_T" sketch:type="MSArtboardGroup" transform="translate(-450.000000, -261.000000)">
            <g id="Steps_01" sketch:type="MSLayerGroup" transform="translate(23.000000, 35.000000)">
                <g id="text-+-icons" transform="translate(214.000000, 144.000000)" sketch:type="MSShapeGroup">
                    <g id="Straight-+-Rectangle-93-+-Curved-+-Rectangle-93-+-Spiraled-+-Rectangle-93" transform="translate(0.000000, 82.000000)">
                        <g id="Spiraled-+-Rectangle-93" transform="translate(213.000000, 0.000000)">
                            <g id="stairs-icons-3">
                                <ellipse id="circle" stroke="#00A0F0" stroke-width="3" cx="40.5" cy="40.5" rx="40.5" ry="40.5"></ellipse>
                                <g id="Ebene_6" transform="translate(19.285714, 13.500000)" fill="#00A0F0">
                                    <path d="M34.2,36.3342857 C34.2,36.3342857 30.2914286,35.1385714 24.9171429,33.2254286 C24.9171429,33.2254286 24.6728571,33.2254286 24.6728571,32.9862857 C23.6957143,32.508 22.4742857,32.2688571 21.4971429,31.7905714 L21.4971429,22.7031429 L26.3828571,22.7031429 C27.1157143,22.7031429 27.6042857,22.2248571 27.6042857,21.5074286 C27.6042857,20.79 27.1157143,20.3117143 26.3828571,20.3117143 L21.4971429,20.3117143 L21.4971429,19.116 L31.2685714,19.116 C32.0014286,19.116 32.49,18.6377143 32.49,17.9202857 C32.49,17.2028571 32.0014286,16.7245714 31.2685714,16.7245714 L21.4971429,16.7245714 L21.4971429,15.5288571 L33.7114286,15.5288571 C34.4442857,15.5288571 34.9328571,15.0505714 34.9328571,14.3331429 C34.9328571,13.6157143 34.4442857,13.1374286 33.7114286,13.1374286 L21.4971429,13.1374286 L21.4971429,11.9417143 L31.2685714,11.9417143 C32.0014286,11.9417143 32.49,11.4634286 32.49,10.746 C32.49,10.0285714 32.0014286,9.55028571 31.2685714,9.55028571 L21.4971429,9.55028571 L21.4971429,8.83285714 C28.0928571,5.724 34.4442857,2.61514286 34.4442857,2.376 C34.9328571,2.13685714 35.1771429,1.41942857 34.9328571,0.702 C34.6885714,-0.0154285714 33.9557143,-0.0154285714 33.2228571,0.223714286 C32.7342857,0.462857143 27.1157143,3.09342857 21.2528571,5.96314286 L21.2528571,2.85428571 C21.2528571,2.13685714 20.7642857,1.65857143 20.0314286,1.65857143 C19.2985714,1.65857143 18.81,2.13685714 18.81,2.85428571 L18.81,7.398 C13.68,10.0285714 8.55,12.42 7.08428571,13.3765714 C2.93142857,15.5288571 0.732857143,18.1594286 0.732857143,20.79 C0.732857143,23.4205714 3.17571429,26.0511429 7.57285714,28.2034286 C7.81714286,28.2034286 8.06142857,28.4425714 8.30571429,28.4425714 C8.06142857,28.6817143 7.81714286,28.9208571 7.81714286,29.3991429 C7.81714286,30.1165714 8.30571429,30.5948571 9.03857143,30.5948571 L12.9471429,30.5948571 C13.9242857,31.0731429 14.6571429,31.3122857 15.6342857,31.7905714 L6.84,31.7905714 C6.10714286,31.7905714 5.61857143,32.2688571 5.61857143,32.9862857 C5.61857143,33.7037143 6.10714286,34.182 6.84,34.182 L19.0542857,34.182 L19.0542857,35.3777143 L9.28285714,35.3777143 C8.55,35.3777143 8.06142857,35.856 8.06142857,36.5734286 C8.06142857,37.2908571 8.55,37.7691429 9.28285714,37.7691429 L19.0542857,37.7691429 L19.0542857,38.9648571 L14.1685714,38.9648571 C13.4357143,38.9648571 12.9471429,39.4431429 12.9471429,40.1605714 C12.9471429,40.878 13.4357143,41.3562857 14.1685714,41.3562857 L19.0542857,41.3562857 L19.0542857,56.1831429 C19.0542857,56.9005714 19.5428571,57.3788571 20.2757143,57.3788571 C21.0085714,57.3788571 21.4971429,56.9005714 21.4971429,56.1831429 L21.4971429,53.0742857 L33.7114286,53.0742857 C34.4442857,53.0742857 34.9328571,52.596 34.9328571,51.8785714 C34.9328571,51.1611429 34.4442857,50.6828571 33.7114286,50.6828571 L21.4971429,50.6828571 L21.4971429,49.4871429 L31.2685714,49.4871429 C32.0014286,49.4871429 32.49,49.0088571 32.49,48.2914286 C32.49,47.574 32.0014286,47.0957143 31.2685714,47.0957143 L21.4971429,47.0957143 L21.4971429,45.9 L26.3828571,45.9 C27.1157143,45.9 27.6042857,45.4217143 27.6042857,44.7042857 C27.6042857,43.9868571 27.1157143,43.5085714 26.3828571,43.5085714 L21.4971429,43.5085714 L21.4971429,34.182 C22.23,34.4211429 22.9628571,34.6602857 23.6957143,35.1385714 L23.6957143,39.4431429 C23.6957143,39.9214286 24.1842857,40.3997143 24.6728571,40.3997143 C25.1614286,40.3997143 25.65,39.9214286 25.65,39.4431429 L25.65,35.856 C26.1385714,36.0951429 26.6271429,36.3342857 27.36,36.3342857 L27.36,41.5954286 C27.36,42.0737143 27.8485714,42.552 28.3371429,42.552 C28.8257143,42.552 29.3142857,42.0737143 29.3142857,41.5954286 L29.3142857,36.8125714 C30.0471429,37.0517143 30.78,37.2908571 31.2685714,37.53 L31.2685714,38.0082857 L31.2685714,43.9868571 C31.2685714,44.4651429 31.7571429,44.9434286 32.2457143,44.9434286 C32.7342857,44.9434286 33.2228571,44.4651429 33.2228571,43.9868571 L33.2228571,38.2474286 C33.7114286,38.4865714 34.2,38.4865714 34.2,38.4865714 L34.4442857,38.4865714 C34.9328571,38.4865714 35.4214286,38.2474286 35.6657143,37.53 C35.1771429,37.2908571 34.9328571,36.5734286 34.2,36.3342857 L34.2,36.3342857 Z M3.17571429,20.5508571 C3.17571429,19.5942857 3.66428571,17.9202857 7.32857143,15.768 L7.32857143,20.5508571 C7.32857143,21.0291429 7.81714286,21.5074286 8.30571429,21.5074286 C8.79428571,21.5074286 9.28285714,21.0291429 9.28285714,20.5508571 L9.28285714,14.8114286 C9.77142857,14.5722857 10.5042857,14.094 11.2371429,13.8548571 L11.2371429,18.1594286 C11.2371429,18.6377143 11.7257143,19.116 12.2142857,19.116 C12.7028571,19.116 13.1914286,18.6377143 13.1914286,18.1594286 L13.1914286,12.8982857 C13.68,12.6591429 14.1685714,12.42 14.9014286,12.1808571 L14.9014286,16.0071429 C14.9014286,16.4854286 15.39,16.9637143 15.8785714,16.9637143 C16.3671429,16.9637143 16.8557143,16.4854286 16.8557143,16.0071429 L16.8557143,11.4634286 C17.5885714,10.9851429 18.3214286,10.746 19.2985714,10.2677143 L19.2985714,25.0945714 L14.4128571,25.0945714 C13.68,25.0945714 13.1914286,25.5728571 13.1914286,26.2902857 C13.1914286,27.0077143 13.68,27.486 14.4128571,27.486 L19.2985714,27.486 L19.2985714,28.6817143 L13.9242857,28.6817143 C12.4585714,27.9642857 10.7485714,27.2468571 9.28285714,26.5294286 C5.13,24.138 3.17571429,22.464 3.17571429,20.5508571 L3.17571429,20.5508571 Z" id="Shape"></path>
                                </g>
                            </g>
                        </g>
                    </g>
                </g>
            </g>
        </g>
    </g>
</svg>