<?xml version="1.0" encoding="UTF-8" standalone="no"?>
<svg width="81px" height="81px" viewBox="0 0 81 81" version="1.1" xmlns="http://www.w3.org/2000/svg" xmlns:xlink="http://www.w3.org/1999/xlink" xmlns:sketch="http://www.bohemiancoding.com/sketch/ns">
    <!-- Generator: Sketch 3.3.3 (12081) - http://www.bohemiancoding.com/sketch -->
    <title>stairs-icons-2</title>
    <desc>Created with Sketch.</desc>
    <defs></defs>
    <g id="E-3_1-CTA-Kit:-5-step-configuration-wizard" stroke="none" stroke-width="1" fill="none" fill-rule="evenodd" sketch:type="MSPage">
        <g id="3_1-CTA-Kit:-5-step-configuration-wizard_T" sketch:type="MSArtboardGroup" transform="translate(-344.000000, -261.000000)" fill="#00A0F0">
            <g id="Steps_01" sketch:type="MSLayerGroup" transform="translate(23.000000, 35.000000)">
                <g id="text-+-icons" transform="translate(214.000000, 144.000000)" sketch:type="MSShapeGroup">
                    <g id="Straight-+-Rectangle-93-+-Curved-+-Rectangle-93-+-Spiraled-+-Rectangle-93" transform="translate(0.000000, 82.000000)">
                        <g id="Curved-+-Rectangle-93" transform="translate(107.000000, 0.000000)">
                            <g id="stairs-icons-2">
                                <g id="Ebene_5" transform="translate(23.142857, 15.428571)">
                                    <path d="M34.7142857,20.7162978 C34.7142857,20.7162978 34.7142857,20.4808853 34.7142857,20.7162978 C34.7142857,20.4808853 34.7142857,20.2454728 34.4680851,20.2454728 C34.4680851,20.2454728 34.4680851,20.0100604 34.2218845,20.0100604 C34.2218845,20.0100604 34.2218845,19.7746479 33.9756839,19.7746479 L33.9756839,19.7746479 L32.4984802,18.5975855 L32.4984802,15.3018109 C32.4984802,15.3018109 32.4984802,15.3018109 32.4984802,15.0663984 L32.4984802,14.8309859 L32.4984802,14.5955734 C32.4984802,14.5955734 32.4984802,14.360161 32.2522796,14.360161 C32.2522796,14.360161 32.006079,14.360161 32.006079,14.1247485 C32.006079,14.1247485 32.006079,14.1247485 31.7598784,14.1247485 L28.3130699,12.4768612 L28.3130699,11.0643863 C28.3130699,10.5935614 28.0668693,10.1227364 27.5744681,9.88732394 L25.8510638,9.41649899 L25.8510638,7.76861167 C25.8510638,7.29778672 25.6048632,6.82696177 25.112462,6.5915493 L23.6352584,6.12072435 L23.6352584,4.94366197 C23.6352584,4.47283702 23.3890578,4.00201207 22.8966565,3.7665996 L21.1732523,3.06036217 L21.1732523,2.11871227 C21.1732523,1.64788732 20.9270517,1.17706237 20.4346505,1.17706237 L18.4650456,0.235412475 C18.218845,0.235412475 17.9726444,0 17.7264438,0 C17.7264438,0 6.1550152,0.706237425 5.66261398,0.941649899 C5.17021277,1.41247485 4.92401216,2.11871227 5.41641337,2.58953722 L15.0182371,15.3018109 C15.0182371,15.3018109 16.9878419,17.6559356 16.7416413,21.4225352 L16.7416413,21.4225352 C16.4954407,21.6579477 16.2492401,21.8933602 16.2492401,22.3641851 L16.2492401,24.2474849 L13.0486322,26.3661972 L13.0486322,26.3661972 C13.0486322,26.3661972 13.0486322,26.3661972 13.0486322,26.6016097 L12.8024316,26.8370221 L12.8024316,27.0724346 L12.8024316,27.3078471 L12.8024316,27.3078471 L12.8024316,30.3682093 L6.40121581,32.4869215 C6.40121581,32.4869215 6.1550152,32.4869215 6.1550152,32.722334 C6.1550152,32.722334 6.1550152,32.722334 5.90881459,32.722334 L5.90881459,32.722334 C5.66261398,32.722334 5.66261398,32.9577465 5.66261398,33.193159 L5.66261398,33.193159 L5.66261398,33.6639839 L5.66261398,33.6639839 L5.66261398,36.7243461 L0.738601824,38.8430584 L0.738601824,38.8430584 C0.492401216,38.8430584 0.492401216,39.0784708 0.246200608,39.3138833 L0.246200608,39.3138833 L0,39.5492958 C0,39.5492958 0,39.5492958 0,39.7847082 L0,39.7847082 L0,44.2575453 L0,44.2575453 L0,44.4929577 L0,44.4929577 C0.246200608,44.7283702 0.492401216,44.9637827 0.738601824,45.1991952 L20.6808511,50.1428571 L20.9270517,50.1428571 C21.1732523,50.1428571 21.4194529,50.1428571 21.4194529,49.9074447 L21.4194529,49.9074447 C21.9118541,49.6720322 33.9756839,41.668008 34.2218845,24.9537223 L34.2218845,24.9537223 L34.7142857,20.7162978 L34.7142857,20.7162978 L34.7142857,20.7162978 Z M2.46200608,41.4325956 L19.9422492,44.9637827 L19.9422492,47.7887324 L2.46200608,43.5513078 L2.46200608,41.4325956 L2.46200608,41.4325956 Z M20.9270517,42.8450704 L5.41641337,39.5492958 L7.38601824,38.8430584 L22.6504559,41.4325956 L20.9270517,42.8450704 L20.9270517,42.8450704 Z M23.3890578,39.0784708 L8.12462006,36.4889336 L8.12462006,35.0764588 L23.3890578,37.4305835 L23.3890578,39.0784708 L23.3890578,39.0784708 Z M24.3738602,35.0764588 L11.8176292,33.193159 L14.2796353,32.2515091 L25.6048632,33.6639839 L24.3738602,35.0764588 L24.3738602,35.0764588 Z M22.1580547,8.23943662 L23.881459,8.94567404 L23.881459,9.18108652 L15.0182371,10.1227364 L15.0182371,9.41649899 L15.0182371,9.18108652 L22.1580547,8.23943662 L22.1580547,8.23943662 Z M18.9574468,23.5412475 L32.2522796,22.8350101 L32.2522796,24.0120724 L18.9574468,23.5412475 L18.9574468,23.5412475 Z M19.2036474,18.362173 L19.2036474,17.8913481 L30.2826748,16.7142857 L30.2826748,17.4205231 L19.2036474,18.362173 L19.2036474,18.362173 Z M17.2340426,12.0060362 L23.881459,11.2997988 L25.6048632,11.7706237 L17.2340426,12.7122736 L17.2340426,12.0060362 L17.2340426,12.0060362 L17.2340426,12.0060362 Z M26.5896657,14.1247485 L26.5896657,14.1247485 L26.8358663,14.360161 L27.5744681,14.8309859 L18.218845,15.7726358 C17.9726444,15.5372233 17.9726444,15.3018109 17.7264438,15.0663984 L26.5896657,14.1247485 L26.5896657,14.1247485 Z M19.449848,20.7162978 L30.2826748,20.0100604 L31.0212766,20.4808853 L19.2036474,20.9517103 C19.449848,20.9517103 19.449848,20.9517103 19.449848,20.7162978 L19.449848,20.7162978 Z M27.0820669,31.7806841 L15.5106383,30.3682093 L15.5106383,28.7203219 L27.0820669,30.1327968 L27.0820669,31.7806841 L27.0820669,31.7806841 Z M27.8206687,27.778672 L17.2340426,26.6016097 L17.9726444,26.1307847 L29.7902736,26.3661972 L27.8206687,27.778672 L27.8206687,27.778672 Z M21.4194529,5.88531187 L13.0486322,6.5915493 L13.0486322,6.12072435 C13.0486322,6.12072435 13.0486322,6.12072435 13.0486322,5.88531187 L20.4346505,5.17907445 L21.4194529,5.88531187 L21.4194529,5.88531187 Z M18.9574468,3.06036217 L18.9574468,3.06036217 L11.0790274,4.00201207 L11.0790274,3.7665996 C11.0790274,3.53118712 11.0790274,3.29577465 10.8328267,3.06036217 L17.7264438,2.58953722 L18.9574468,3.06036217 L18.9574468,3.06036217 Z M22.4042553,46.8470825 L22.4042553,44.4929577 L25.6048632,41.1971831 L25.6048632,41.1971831 C25.6048632,41.1971831 25.6048632,40.9617706 25.8510638,40.9617706 L25.8510638,40.7263581 L25.8510638,40.7263581 L25.8510638,36.9597586 L29.0516717,33.8993964 L29.0516717,33.8993964 C29.0516717,33.8993964 29.0516717,33.6639839 29.2978723,33.6639839 C29.2978723,33.6639839 29.2978723,33.6639839 29.2978723,33.4285714 C29.2978723,33.4285714 29.2978723,33.4285714 29.2978723,33.193159 L29.2978723,33.193159 L29.2978723,29.8973843 L32.006079,28.0140845 C31.2674772,37.9014085 25.6048632,44.0221328 22.4042553,46.8470825 L22.4042553,46.8470825 Z" id="Shape"></path>
                                </g>
                                <path d="M40.5,78 L40.5,78 C61.2106781,78 78,61.2106781 78,40.5 C78,19.7893219 61.2106781,3 40.5,3 C19.7893219,3 3,19.7893219 3,40.5 C3,61.2106781 19.7893219,78 40.5,78 L40.5,78 Z M40.5,81 L40.5,81 C18.1324676,81 0,62.8675324 0,40.5 C0,18.1324676 18.1324676,0 40.5,0 C62.8675324,0 81,18.1324676 81,40.5 C81,62.8675324 62.8675324,81 40.5,81 L40.5,81 Z" id="Shape"></path>
                            </g>
                        </g>
                    </g>
                </g>
            </g>
        </g>
    </g>
</svg>