<?xml version="1.0" encoding="UTF-8" standalone="no"?>
<svg width="81px" height="81px" viewBox="0 0 81 81" version="1.1" xmlns="http://www.w3.org/2000/svg" xmlns:xlink="http://www.w3.org/1999/xlink" xmlns:sketch="http://www.bohemiancoding.com/sketch/ns">
    <!-- Generator: Sketch 3.3.3 (12081) - http://www.bohemiancoding.com/sketch -->
    <title>house icon 1</title>
    <desc>Created with Sketch.</desc>
    <defs></defs>
    <g id="E-3_1-CTA-Kit:-5-step-configuration-wizard" stroke="none" stroke-width="1" fill="none" fill-rule="evenodd" sketch:type="MSPage">
        <g id="3_1-CTA-Kit:-5-step-configuration-wizard_D" sketch:type="MSArtboardGroup" transform="translate(-1157.000000, -810.000000)">
            <g id="Steps_02" sketch:type="MSLayerGroup" transform="translate(1141.000000, 633.000000)">
                <g id="text-+-icons" transform="translate(16.000000, 95.000000)" sketch:type="MSShapeGroup">
                    <g id="Straight-+-Rectangle-93" transform="translate(0.000000, 82.000000)">
                        <g id="house-icon-1">
                            <g id="house1" transform="translate(19.285714, 21.214286)" fill="#00A0F0">
                                <g id="Group">
                                    <path d="M34.3285714,18.9 C33.5571429,18.9 32.9785714,19.4785714 32.9785714,20.25 L32.9785714,37.8 L23.1428571,37.8 L23.1428571,40.3071429 L34.1357143,40.3071429 C34.9071429,40.3071429 35.2928571,39.7285714 35.2928571,39.15 L35.2928571,20.25 C35.4857143,19.4785714 35.1,18.9 34.3285714,18.9 L34.3285714,18.9 Z" id="Shape"></path>
                                    <path d="M41.2714286,19.6714286 L33.1714286,11.5714286 L33.1714286,4.62857143 C33.1714286,3.85714286 32.5928571,3.27857143 31.8214286,3.27857143 C31.05,3.27857143 30.6642857,3.85714286 30.6642857,4.62857143 L30.6642857,9.06428571 L22.1785714,0.578571429 C21.9857143,0.385714286 21.6,0.192857143 21.2142857,0.192857143 C20.8285714,0.192857143 20.6357143,0.385714286 20.25,0.578571429 L1.15714286,19.6714286 C0.578571429,20.25 0.578571429,21.0214286 1.15714286,21.4071429 C1.54285714,21.9857143 2.50714286,21.9857143 2.89285714,21.4071429 L21.2142857,3.08571429 L39.3428571,21.4071429 C39.5357143,21.6 39.9214286,21.7928571 40.3071429,21.7928571 C40.6928571,21.7928571 40.8857143,21.6 41.2714286,21.4071429 C41.6571429,21.2142857 41.6571429,20.25 41.2714286,19.6714286 L41.2714286,19.6714286 Z" id="Shape"></path>
                                    <path d="M24.3,33.9428571 L24.3,30.6642857 L26.4214286,30.6642857 L26.4214286,28.1571429 L21.7928571,28.1571429 L21.7928571,31.4357143 L19.2857143,31.4357143 L19.2857143,34.7142857 L16.7785714,34.7142857 L16.7785714,37.9928571 L9.64285714,37.9928571 L9.64285714,21.0214286 C9.64285714,20.25 9.06428571,19.8642857 8.29285714,19.8642857 C7.52142857,19.8642857 7.13571429,20.4428571 7.13571429,21.0214286 L7.13571429,39.3428571 C7.13571429,40.1142857 7.71428571,40.5 8.29285714,40.5 L14.2714286,40.5 L16.7785714,40.5 L19.2857143,40.5 L19.2857143,37.9928571 L19.2857143,37.4142857 L21.7928571,37.4142857 L21.7928571,34.1357143 L24.3,34.1357143 L24.3,33.9428571 Z" id="Shape"></path>
                                </g>
                            </g>
                            <ellipse id="circle" stroke="#00A0F0" stroke-width="3" cx="40.5" cy="40.5" rx="40.5" ry="40.5"></ellipse>
                        </g>
                    </g>
                </g>
            </g>
        </g>
    </g>
</svg>