<?xml version="1.0" encoding="UTF-8" standalone="no"?>
<svg width="81px" height="81px" viewBox="0 0 81 81" version="1.1" xmlns="http://www.w3.org/2000/svg" xmlns:xlink="http://www.w3.org/1999/xlink" xmlns:sketch="http://www.bohemiancoding.com/sketch/ns">
    <!-- Generator: Sketch 3.3.3 (12081) - http://www.bohemiancoding.com/sketch -->
    <title>house icon 3</title>
    <desc>Created with Sketch.</desc>
    <defs></defs>
    <g id="E-3_1-CTA-Kit:-5-step-configuration-wizard" stroke="none" stroke-width="1" fill="none" fill-rule="evenodd" sketch:type="MSPage">
        <g id="3_1-CTA-Kit:-5-step-configuration-wizard_D" sketch:type="MSArtboardGroup" transform="translate(-1157.000000, -1175.000000)">
            <g id="Steps_03" sketch:type="MSLayerGroup" transform="translate(1141.000000, 998.000000)">
                <g id="text-+-icons" transform="translate(16.000000, 95.000000)" sketch:type="MSShapeGroup">
                    <g id="one-floor" transform="translate(0.000000, 80.000000)">
                        <g id="house-icon-3" transform="translate(0.000000, 2.000000)">
                            <g id="house3" transform="translate(19.285714, 27.000000)" fill="#00A0F0">
                                <g id="Group">
                                    <path d="M34.3285714,18.9 C33.5571429,18.9 32.9785714,19.4785714 32.9785714,20.25 L32.9785714,37.8 L25.65,37.8 L25.65,30.6642857 C25.65,29.8928571 25.0714286,29.3142857 24.4928571,29.3142857 L17.9357143,29.3142857 C17.1642857,29.3142857 16.5857143,29.8928571 16.5857143,30.6642857 L16.5857143,37.8 L9.45,37.8 L9.45,20.8285714 C9.45,20.0571429 8.87142857,19.6714286 8.1,19.6714286 C7.32857143,19.6714286 6.94285714,20.25 6.94285714,20.8285714 L6.94285714,39.15 C6.94285714,39.9214286 7.52142857,40.3071429 8.1,40.3071429 L17.9357143,40.3071429 C18.7071429,40.3071429 19.0928571,39.7285714 19.0928571,39.15 L19.0928571,32.0142857 L23.1428571,32.0142857 L23.1428571,39.15 C23.1428571,39.9214286 23.7214286,40.3071429 24.4928571,40.3071429 L34.3285714,40.3071429 C35.1,40.3071429 35.4857143,39.7285714 35.4857143,39.15 L35.4857143,20.25 C35.4857143,19.4785714 35.1,18.9 34.3285714,18.9 L34.3285714,18.9 Z" id="Shape"></path>
                                    <path d="M41.2714286,19.6714286 L33.1714286,11.5714286 L33.1714286,4.62857143 C33.1714286,3.85714286 32.5928571,3.27857143 31.8214286,3.27857143 C31.05,3.27857143 30.6642857,3.85714286 30.6642857,4.62857143 L30.6642857,9.06428571 L22.1785714,0.578571429 C21.9857143,0.385714286 21.6,0.192857143 21.2142857,0.192857143 C20.8285714,0.192857143 20.6357143,0.385714286 20.25,0.578571429 L1.15714286,19.6714286 C0.578571429,20.25 0.578571429,21.0214286 1.15714286,21.4071429 C1.54285714,21.9857143 2.50714286,21.9857143 2.89285714,21.4071429 L21.2142857,3.08571429 L39.3428571,21.4071429 C39.5357143,21.6 39.9214286,21.7928571 40.3071429,21.7928571 C40.6928571,21.7928571 40.8857143,21.6 41.2714286,21.4071429 C41.6571429,21.2142857 41.6571429,20.25 41.2714286,19.6714286 L41.2714286,19.6714286 Z" id="Shape"></path>
                                </g>
                            </g>
                            <ellipse id="circle" stroke="#00A0F0" stroke-width="3" cx="40.5" cy="40.5" rx="40.5" ry="40.5"></ellipse>
                        </g>
                    </g>
                </g>
            </g>
        </g>
    </g>
</svg>