<?xml version="1.0" encoding="UTF-8" standalone="no"?>
<svg width="81px" height="81px" viewBox="0 0 81 81" version="1.1" xmlns="http://www.w3.org/2000/svg" xmlns:xlink="http://www.w3.org/1999/xlink" xmlns:sketch="http://www.bohemiancoding.com/sketch/ns">
    <!-- Generator: Sketch 3.3.3 (12081) - http://www.bohemiancoding.com/sketch -->
    <title>stairs-icons-1 + stairs-icons-2 + stairs-icons-3</title>
    <desc>Created with Sketch.</desc>
    <defs></defs>
    <g id="E-3_1-CTA-Kit:-5-step-configuration-wizard" stroke="none" stroke-width="1" fill="none" fill-rule="evenodd" sketch:type="MSPage">
        <g id="3_1-CTA-Kit:-5-step-configuration-wizard_T" sketch:type="MSArtboardGroup" transform="translate(-237.000000, -261.000000)" fill="#00A0F0">
            <g id="Steps_01" sketch:type="MSLayerGroup" transform="translate(23.000000, 35.000000)">
                <g id="text-+-icons" transform="translate(214.000000, 144.000000)" sketch:type="MSShapeGroup">
                    <g id="Straight-+-Rectangle-93-+-Curved-+-Rectangle-93-+-Spiraled-+-Rectangle-93" transform="translate(0.000000, 82.000000)">
                        <g id="Straight-+-Rectangle-93">
                            <g id="stairs-icons-1-+-stairs-icons-2-+-stairs-icons-3">
                                <g id="stairs-icons-1">
                                    <g id="Ebene_4" transform="translate(19.285714, 11.500000)">
                                        <path d="M37.8323353,44.0585774 L37.8323353,39.9916318 L35.6497006,35.4728033 L35.6497006,31.8577406 L33.9520958,27.790795 L33.9520958,24.6276151 L32.497006,21.0125523 L32.497006,18.3012552 L31.0419162,15.1380753 L31.0419162,12.6527197 L29.8293413,9.94142259 L29.8293413,7.68200837 L28.6167665,5.19665272 L28.6167665,3.38912134 L27.6467066,1.35564854 L27.6467066,0.677824268 C27.6467066,0.451882845 27.4041916,0 26.9191617,0 L13.5808383,0 C13.0958084,0 12.8532934,0.225941423 12.8532934,0.677824268 L12.8532934,1.35564854 L11.8832335,3.38912134 L11.8832335,5.19665272 L10.6706587,7.68200837 L10.6706587,9.94142259 L9.45808383,12.6527197 L9.45808383,15.1380753 L8.00299401,18.3012552 L8.00299401,21.0125523 L6.54790419,24.6276151 L6.54790419,27.790795 L4.8502994,31.8577406 L4.8502994,35.4728033 L2.66766467,39.9916318 L2.66766467,44.0585774 L-1.38555833e-13,49.2552301 L-1.38555833e-13,52.41841 C-1.38555833e-13,53.3221757 0.72754491,54 1.45508982,54 L38.8023952,54 C39.7724551,54 40.5,53.3221757 40.5,52.41841 L40.5,49.2552301 L37.8323353,44.0585774 L37.8323353,44.0585774 Z M11.8832335,7.68200837 L13.0958084,5.19665272 L26.9191617,5.19665272 L28.1317365,7.68200837 L28.1317365,8.35983264 L12.1257485,8.35983264 L12.1257485,7.68200837 L11.8832335,7.68200837 Z M10.9131737,12.6527197 L12.1257485,9.94142259 L27.8892216,9.94142259 L29.1017964,12.6527197 L29.1017964,13.3305439 L10.9131737,13.3305439 L10.9131737,12.6527197 L10.9131737,12.6527197 Z M9.7005988,18.3012552 L11.1556886,15.1380753 L29.1017964,15.1380753 L30.5568862,18.3012552 L30.5568862,18.9790795 L9.7005988,18.9790795 L9.7005988,18.3012552 L9.7005988,18.3012552 Z M9.94311377,21.2384937 L30.0718563,21.2384937 L31.7694611,24.8535565 L31.7694611,25.5313808 L8.24550898,25.5313808 L8.24550898,24.8535565 L9.94311377,21.2384937 L9.94311377,21.2384937 Z M8.48802395,27.790795 L31.2844311,27.790795 L33.2245509,31.6317992 L33.2245509,32.5355649 L6.79041916,32.5355649 L6.79041916,31.6317992 L8.48802395,27.790795 L8.48802395,27.790795 Z M7.2754491,35.2468619 L32.9820359,35.2468619 L35.1646707,39.7656904 L35.1646707,40.8953975 L5.33532934,40.8953975 L5.33532934,39.7656904 L7.2754491,35.2468619 L7.2754491,35.2468619 Z M14.0658683,1.35564854 L26.1916168,1.35564854 L27.1616766,3.38912134 L27.1616766,3.84100418 L13.0958084,3.84100418 L13.0958084,3.38912134 L14.0658683,1.35564854 L14.0658683,1.35564854 Z M37.1047904,50.8368201 L2.91017964,50.8368201 L2.91017964,49.2552301 L5.33532934,44.0585774 L34.6796407,44.0585774 L37.1047904,49.2552301 L37.1047904,50.8368201 L37.1047904,50.8368201 Z" id="Shape"></path>
                                    </g>
                                    <path d="M40.5,78 L40.5,78 C61.2106781,78 78,61.2106781 78,40.5 C78,19.7893219 61.2106781,3 40.5,3 C19.7893219,3 3,19.7893219 3,40.5 C3,61.2106781 19.7893219,78 40.5,78 L40.5,78 Z M40.5,81 L40.5,81 C18.1324676,81 0,62.8675324 0,40.5 C0,18.1324676 18.1324676,0 40.5,0 C62.8675324,0 81,18.1324676 81,40.5 C81,62.8675324 62.8675324,81 40.5,81 L40.5,81 Z" id="Shape"></path>
                                </g>
                            </g>
                        </g>
                    </g>
                </g>
            </g>
        </g>
    </g>
</svg>