<?xml version="1.0" encoding="UTF-8" standalone="no"?>
<svg width="81px" height="81px" viewBox="0 0 81 81" version="1.1" xmlns="http://www.w3.org/2000/svg" xmlns:xlink="http://www.w3.org/1999/xlink" xmlns:sketch="http://www.bohemiancoding.com/sketch/ns">
    <!-- Generator: Sketch 3.3.3 (12081) - http://www.bohemiancoding.com/sketch -->
    <title>house icon 1</title>
    <desc>Created with Sketch.</desc>
    <defs></defs>
    <g id="E-3_1-CTA-Kit:-5-step-configuration-wizard" stroke="none" stroke-width="1" fill="none" fill-rule="evenodd" sketch:type="MSPage">
        <g id="3_1-CTA-Kit:-5-step-configuration-wizard_D" sketch:type="MSArtboardGroup" transform="translate(-1264.000000, -1175.000000)">
            <g id="Steps_03" sketch:type="MSLayerGroup" transform="translate(1141.000000, 998.000000)">
                <g id="text-+-icons" transform="translate(16.000000, 95.000000)" sketch:type="MSShapeGroup">
                    <g id="two-or-more" transform="translate(106.000000, 80.000000)">
                        <g id="house-icon-1" transform="translate(1.000000, 2.000000)">
                            <g id="house4" transform="translate(19.285714, 15.428571)" fill="#00A0F0">
                                <g id="Group">
                                    <path d="M34.3285714,18.9 C33.5571429,18.9 32.9785714,19.4785714 32.9785714,20.25 L32.9785714,49.3714286 L25.65,49.3714286 L25.65,42.2357143 C25.65,41.4642857 25.0714286,40.8857143 24.4928571,40.8857143 L17.9357143,40.8857143 C17.1642857,40.8857143 16.5857143,41.4642857 16.5857143,42.2357143 L16.5857143,49.3714286 L9.45,49.3714286 L9.45,20.8285714 C9.45,20.0571429 8.87142857,19.6714286 8.1,19.6714286 C7.32857143,19.6714286 6.94285714,20.25 6.94285714,20.8285714 L6.94285714,50.7214286 C6.94285714,51.4928571 7.52142857,51.8785714 8.1,51.8785714 L17.9357143,51.8785714 C18.7071429,51.8785714 19.0928571,51.3 19.0928571,50.7214286 L19.0928571,43.5857143 L23.1428571,43.5857143 L23.1428571,50.7214286 C23.1428571,51.4928571 23.7214286,51.8785714 24.4928571,51.8785714 L34.3285714,51.8785714 C35.1,51.8785714 35.4857143,51.3 35.4857143,50.7214286 L35.4857143,20.25 C35.4857143,19.4785714 35.1,18.9 34.3285714,18.9 L34.3285714,18.9 Z" id="Shape"></path>
                                    <path d="M41.2714286,19.6714286 L33.1714286,11.5714286 L33.1714286,4.62857143 C33.1714286,3.85714286 32.5928571,3.27857143 31.8214286,3.27857143 C31.05,3.27857143 30.6642857,3.85714286 30.6642857,4.62857143 L30.6642857,9.06428571 L22.1785714,0.578571429 C21.9857143,0.385714286 21.6,0.192857143 21.2142857,0.192857143 C20.8285714,0.192857143 20.6357143,0.385714286 20.25,0.578571429 L1.15714286,19.6714286 C0.578571429,20.25 0.578571429,21.0214286 1.15714286,21.4071429 C1.54285714,21.9857143 2.50714286,21.9857143 2.89285714,21.4071429 L21.2142857,3.08571429 L39.3428571,21.4071429 C39.5357143,21.6 39.9214286,21.7928571 40.3071429,21.7928571 C40.6928571,21.7928571 40.8857143,21.6 41.2714286,21.4071429 C41.6571429,21.0214286 41.6571429,20.25 41.2714286,19.6714286 L41.2714286,19.6714286 Z" id="Shape"></path>
                                    <path d="M24.4928571,20.25 L17.9357143,20.25 C17.1642857,20.25 16.5857143,20.8285714 16.5857143,21.6 L16.5857143,22.95 L16.5857143,28.7357143 L16.5857143,30.0857143 C16.5857143,30.8571429 17.1642857,31.4357143 17.7428571,31.4357143 L24.3,31.4357143 C25.0714286,31.4357143 25.65,30.8571429 25.65,30.0857143 L25.65,28.7357143 L25.65,22.95 L25.65,21.6 C25.8428571,20.8285714 25.2642857,20.25 24.4928571,20.25 L24.4928571,20.25 Z M19.0928571,28.7357143 L19.0928571,22.95 L23.1428571,22.95 L23.1428571,28.7357143 L19.0928571,28.7357143 L19.0928571,28.7357143 Z" id="Shape"></path>
                                </g>
                            </g>
                            <ellipse id="circle" stroke="#00A0F0" stroke-width="3" cx="40.5" cy="40.5" rx="40.5" ry="40.5"></ellipse>
                        </g>
                    </g>
                </g>
            </g>
        </g>
    </g>
</svg>