<?xml version="1.0" encoding="UTF-8" standalone="no"?>
<svg width="81px" height="81px" viewBox="0 0 81 81" version="1.1" xmlns="http://www.w3.org/2000/svg" xmlns:xlink="http://www.w3.org/1999/xlink" xmlns:sketch="http://www.bohemiancoding.com/sketch/ns">
    <!-- Generator: Sketch 3.3.3 (12081) - http://www.bohemiancoding.com/sketch -->
    <title>1-2-months</title>
    <desc>Created with Sketch.</desc>
    <defs></defs>
    <g id="Page-1" stroke="none" stroke-width="1" fill="none" fill-rule="evenodd" sketch:type="MSPage">
        <g id="Artboard-1" sketch:type="MSArtboardGroup">
            <g id="1-2-months" sketch:type="MSLayerGroup">
                <path d="M40.5,78 L40.5,78 C61.2106781,78 78,61.2106781 78,40.5 C78,19.7893219 61.2106781,3 40.5,3 C19.7893219,3 3,19.7893219 3,40.5 C3,61.2106781 19.7893219,78 40.5,78 L40.5,78 Z M40.5,81 L40.5,81 C18.1324676,81 0,62.8675324 0,40.5 C0,18.1324676 18.1324676,0 40.5,0 C62.8675324,0 81,18.1324676 81,40.5 C81,62.8675324 62.8675324,81 40.5,81 L40.5,81 Z" id="Shape" fill="#00A0F0" sketch:type="MSShapeGroup"></path>
                <g id="zeiger" transform="translate(53.928571, 31.285714) scale(-1, 1) translate(-53.928571, -31.285714) translate(38.428571, 19.285714)" fill="#00A0F0" sketch:type="MSShapeGroup">
                    <rect id="Rectangle-345" x="27" y="0" width="3.85714286" height="23.1428571" rx="3"></rect>
                    <path d="M1.93025248,23.1428571 C0.864203474,23.1428571 -2.46979275e-13,22.2868321 -2.46913601e-13,21.2142857 L-2.46913601e-13,21.2142857 C-2.46848381e-13,20.1491651 0.857502375,19.2857143 1.93025248,19.2857143 L28.9268904,19.2857143 C29.9929394,19.2857143 30.8571429,20.1417393 30.8571429,21.2142857 L30.8571429,21.2142857 C30.8571429,22.2794063 29.9996405,23.1428571 28.9268904,23.1428571 L1.93025248,23.1428571 L1.93025248,23.1428571 Z" id="Rectangle-345-Copy"></path>
                </g>
                <path d="M31.3203125,65 L31.3203125,63.9921875 L33.09375,63.9921875 L33.09375,55.046875 L31.3671875,56.1171875 L30.8203125,55.2421875 L33.4140625,53.609375 L34.296875,53.609375 L34.296875,63.9921875 L35.9609375,63.9921875 L35.9609375,65 L31.3203125,65 Z M38.140625,61.4609375 L38.140625,60.265625 L42.34375,60.265625 L42.34375,61.4609375 L38.140625,61.4609375 Z M43.796875,65 L43.796875,64.171875 L47.03125,60.5078125 C47.6927116,59.7630171 48.1783839,59.1158882 48.4882812,58.5664062 C48.7981786,58.0169243 48.9856768,57.5885432 49.0507812,57.28125 C49.1158857,56.9739568 49.1484375,56.6562516 49.1484375,56.328125 C49.1484375,55.734372 48.9817725,55.2656267 48.6484375,54.921875 C48.3151025,54.5781233 47.8203158,54.40625 47.1640625,54.40625 C46.8046857,54.40625 46.5052095,54.4544266 46.265625,54.5507812 C46.0260405,54.6471359 45.8177092,54.7916657 45.640625,54.984375 C45.2760398,55.3802103 45.0468755,55.9557254 44.953125,56.7109375 L43.8359375,56.453125 C43.9088545,56.0052061 44.0117181,55.6106788 44.1445312,55.2695312 C44.2773444,54.9283837 44.4765612,54.6250013 44.7421875,54.359375 C45.0651058,54.0312484 45.4427062,53.8046881 45.875,53.6796875 C46.3072938,53.5546869 46.7890598,53.4921875 47.3203125,53.4921875 C47.8880237,53.4921875 48.3684876,53.5716138 48.7617188,53.7304688 C49.1549499,53.8893237 49.4752592,54.1015612 49.7226562,54.3671875 C49.9700533,54.6328138 50.148437,54.9388004 50.2578125,55.2851562 C50.367188,55.6315121 50.421875,55.9895815 50.421875,56.359375 C50.421875,56.8802109 50.3268239,57.3971329 50.1367188,57.9101562 C49.9466136,58.4231796 49.6445333,58.9544243 49.2304688,59.5039062 C48.8164042,60.0533882 48.3463568,60.6171846 47.8203125,61.1953125 L45.2578125,63.9921875 L50.421875,63.9921875 L50.421875,65 L43.796875,65 Z" id="1-2" fill="#199CDE" sketch:type="MSShapeGroup"></path>
            </g>
        </g>
    </g>
</svg>