<?xml version="1.0" encoding="UTF-8" standalone="no"?>
<svg width="81px" height="81px" viewBox="0 0 81 81" version="1.1" xmlns="http://www.w3.org/2000/svg" xmlns:xlink="http://www.w3.org/1999/xlink" xmlns:sketch="http://www.bohemiancoding.com/sketch/ns">
    <!-- Generator: Sketch 3.3.3 (12081) - http://www.bohemiancoding.com/sketch -->
    <title>2-3-months</title>
    <desc>Created with Sketch.</desc>
    <defs></defs>
    <g id="Page-1" stroke="none" stroke-width="1" fill="none" fill-rule="evenodd" sketch:type="MSPage">
        <g id="Artboard-1" sketch:type="MSArtboardGroup">
            <g id="2-3-months" sketch:type="MSLayerGroup">
                <path d="M40.5,78 L40.5,78 C61.2106781,78 78,61.2106781 78,40.5 C78,19.7893219 61.2106781,3 40.5,3 C19.7893219,3 3,19.7893219 3,40.5 C3,61.2106781 19.7893219,78 40.5,78 L40.5,78 Z M40.5,81 L40.5,81 C18.1324676,81 0,62.8675324 0,40.5 C0,18.1324676 18.1324676,0 40.5,0 C62.8675324,0 81,18.1324676 81,40.5 C81,62.8675324 62.8675324,81 40.5,81 L40.5,81 Z" id="Shape" fill="#00A0F0" sketch:type="MSShapeGroup"></path>
                <g id="zeiger" transform="translate(53.928571, 31.285714) scale(-1, 1) translate(-53.928571, -31.285714) translate(38.428571, 19.285714)" fill="#00A0F0" sketch:type="MSShapeGroup">
                    <rect id="Rectangle-345" x="27" y="0" width="3.85714286" height="23.1428571" rx="3"></rect>
                    <path d="M1.93025248,23.1428571 C0.864203474,23.1428571 -2.46979275e-13,22.2868321 -2.46913601e-13,21.2142857 L-2.46913601e-13,21.2142857 C-2.46848381e-13,20.1491651 0.857502375,19.2857143 1.93025248,19.2857143 L28.9268904,19.2857143 C29.9929394,19.2857143 30.8571429,20.1417393 30.8571429,21.2142857 L30.8571429,21.2142857 C30.8571429,22.2794063 29.9996405,23.1428571 28.9268904,23.1428571 L1.93025248,23.1428571 L1.93025248,23.1428571 Z" id="Rectangle-345-Copy"></path>
                </g>
                <path d="M32.828125,65 L32.828125,64.171875 L36.0625,60.5078125 C36.7239616,59.7630171 37.2096339,59.1158882 37.5195312,58.5664062 C37.8294286,58.0169243 38.0169268,57.5885432 38.0820312,57.28125 C38.1471357,56.9739568 38.1796875,56.6562516 38.1796875,56.328125 C38.1796875,55.734372 38.0130225,55.2656267 37.6796875,54.921875 C37.3463525,54.5781233 36.8515658,54.40625 36.1953125,54.40625 C35.8359357,54.40625 35.5364595,54.4544266 35.296875,54.5507812 C35.0572905,54.6471359 34.8489592,54.7916657 34.671875,54.984375 C34.3072898,55.3802103 34.0781255,55.9557254 33.984375,56.7109375 L32.8671875,56.453125 C32.9401045,56.0052061 33.0429681,55.6106788 33.1757812,55.2695312 C33.3085944,54.9283837 33.5078112,54.6250013 33.7734375,54.359375 C34.0963558,54.0312484 34.4739562,53.8046881 34.90625,53.6796875 C35.3385438,53.5546869 35.8203098,53.4921875 36.3515625,53.4921875 C36.9192737,53.4921875 37.3997376,53.5716138 37.7929688,53.7304688 C38.1861999,53.8893237 38.5065092,54.1015612 38.7539062,54.3671875 C39.0013033,54.6328138 39.179687,54.9388004 39.2890625,55.2851562 C39.398438,55.6315121 39.453125,55.9895815 39.453125,56.359375 C39.453125,56.8802109 39.3580739,57.3971329 39.1679688,57.9101562 C38.9778636,58.4231796 38.6757833,58.9544243 38.2617188,59.5039062 C37.8476542,60.0533882 37.3776068,60.6171846 36.8515625,61.1953125 L34.2890625,63.9921875 L39.453125,63.9921875 L39.453125,65 L32.828125,65 Z M44.3046875,62.7265625 L44.3046875,59.6875 L41.265625,59.6875 L41.265625,58.7578125 L44.3046875,58.7578125 L44.3046875,55.734375 L45.234375,55.734375 L45.234375,58.7578125 L48.2734375,58.7578125 L48.2734375,59.6875 L45.234375,59.6875 L45.234375,62.7265625 L44.3046875,62.7265625 Z" id="2+" fill="#199CDE" sketch:type="MSShapeGroup"></path>
            </g>
        </g>
    </g>
</svg>