<?xml version="1.0" encoding="utf-8"?>
<!-- Generator: Adobe Illustrator 18.0.0, SVG Export Plug-In . SVG Version: 6.00 Build 0)  -->
<!DOCTYPE svg PUBLIC "-//W3C//DTD SVG 1.1//EN" "http://www.w3.org/Graphics/SVG/1.1/DTD/svg11.dtd">
<svg version="1.1" xmlns="http://www.w3.org/2000/svg" xmlns:xlink="http://www.w3.org/1999/xlink" x="0px" y="0px"
	 viewBox="0 0 860 320" enable-background="new 0 0 860 320" xml:space="preserve">
<g id="Ebene_1">
</g>
<g id="Mitarbeiter">
</g>
<g id="Ebene_8">
</g>
<g id="Stahl">
</g>
<g id="Ebene_7">
</g>
<g id="Patente">
	<g>
		<polyline fill="none" stroke="#BEBEBE" stroke-width="3" stroke-miterlimit="10" points="840.9,149.9 581.8,149.9 563.4,167.3 
			430.4,167.3 		"/>
		<polyline fill="none" stroke="#BEBEBE" stroke-width="3" stroke-miterlimit="10" points="19.4,149.9 280.4,149.9 298.8,167.3 
			431.8,167.3 		"/>
	</g>
	<g>
		<polyline fill="none" stroke="#BEBEBE" stroke-width="3" stroke-miterlimit="10" points="840.9,240.9 581.8,240.9 563.4,223.6 
			430.4,223.6 		"/>
		<polyline fill="none" stroke="#BEBEBE" stroke-width="3" stroke-miterlimit="10" points="50.4,240.9 280.4,240.9 298.8,223.6 
			431.8,223.6 		"/>
	</g>
	<g>
		<path d="M670.7,207.6v-13h3.9c0.9,0,1.7,0.2,2.2,0.6c0.6,0.4,1,0.9,1.1,1.5c0.2,0.6,0.3,1.2,0.3,1.7c0,0.6-0.1,1.1-0.2,1.6
			c-0.1,0.5-0.4,0.9-0.7,1.2s-0.7,0.6-1.2,0.8s-1.1,0.3-1.8,0.3h-2.1v5.3H670.7z M672.1,201.2h2.2c0.8,0,1.4-0.2,1.9-0.7
			s0.7-1.1,0.7-2.1c0-0.7-0.1-1.2-0.4-1.6s-0.6-0.7-1-0.8s-0.9-0.2-1.4-0.2h-1.9V201.2z"/>
		<path d="M682.1,207.9c-0.2,0-0.5,0-0.7-0.1s-0.4-0.1-0.6-0.2s-0.4-0.2-0.5-0.3c-0.2-0.1-0.3-0.3-0.4-0.4c-0.2-0.3-0.3-0.5-0.4-0.8
			s-0.2-0.7-0.2-1c0-0.3,0-0.7,0.1-0.9c0.1-0.3,0.2-0.5,0.4-0.7c0.3-0.4,0.6-0.6,1.1-0.8s1-0.3,1.7-0.3h2.3v-1.2
			c0-0.5-0.1-0.9-0.4-1.2s-0.5-0.5-0.8-0.5c-0.3-0.1-0.6-0.1-0.8-0.1c-0.6,0-1,0.1-1.4,0.3s-0.6,0.5-0.8,0.9l-1.1-0.4
			c0.2-0.6,0.6-1.1,1.2-1.4s1.3-0.5,2.2-0.5c0.6,0,1.1,0.1,1.5,0.2c0.4,0.1,0.8,0.4,1.1,0.7c0.2,0.3,0.4,0.6,0.5,0.9
			s0.1,0.7,0.1,1.1v6.5h-1.3v-0.9c-0.3,0.3-0.6,0.6-0.9,0.7s-0.6,0.3-1,0.4S682.3,207.9,682.1,207.9z M682.5,206.8
			c0.5,0,0.9-0.1,1.3-0.3s0.7-0.5,0.8-0.8s0.3-0.6,0.3-0.9v-1.5h-1.9c-0.4,0-0.8,0-1.1,0.1s-0.6,0.2-0.7,0.3s-0.3,0.3-0.4,0.6
			s-0.1,0.5-0.1,0.7c0,0.3,0,0.5,0.1,0.7s0.2,0.4,0.3,0.5C681.2,206.6,681.8,206.8,682.5,206.8z"/>
		<path d="M691.3,207.8c-0.5,0-1-0.1-1.3-0.2s-0.6-0.3-0.8-0.6c-0.2-0.3-0.3-0.6-0.4-0.9c-0.1-0.4-0.1-0.8-0.1-1.2v-5.3h-1.2v-1h1.2
			V196h1.3v2.5h1.9v1H690v5.3c0,0.3,0,0.6,0,0.8s0.1,0.4,0.2,0.6s0.2,0.3,0.4,0.4s0.4,0.1,0.8,0.1c0.2,0,0.4,0,0.6-0.1v1.1
			C691.8,207.8,691.6,207.8,691.3,207.8z"/>
		<path d="M696.7,207.9c-0.5,0-0.9-0.1-1.2-0.2c-0.4-0.1-0.7-0.3-1-0.4c-0.3-0.2-0.5-0.4-0.7-0.7s-0.3-0.5-0.4-0.8
			c-0.1-0.4-0.2-0.8-0.3-1.2s-0.1-0.9-0.1-1.4c0-0.7,0-1.3,0.1-1.8s0.2-1,0.4-1.4s0.4-0.7,0.6-0.9c0.3-0.3,0.6-0.5,1-0.7
			c0.4-0.2,0.9-0.3,1.5-0.3c0.5,0,1,0.1,1.4,0.2s0.7,0.3,1,0.6c0.4,0.4,0.7,0.9,0.8,1.5s0.2,1.3,0.2,2.2v0.8h-5.7v0.2
			c0,0.6,0.1,1.1,0.2,1.5c0.1,0.4,0.3,0.7,0.5,1c0.2,0.2,0.5,0.4,0.8,0.5s0.6,0.1,1,0.1c0.4,0,0.7-0.1,1-0.2
			c0.3-0.1,0.5-0.3,0.7-0.5s0.3-0.3,0.4-0.5l1,0.6c-0.2,0.4-0.5,0.7-0.8,0.9c-0.3,0.3-0.7,0.4-1.1,0.5S697.2,207.9,696.7,207.9z
			 M694.4,202.4h4.4c0-0.9-0.1-1.6-0.3-2.1c-0.2-0.5-0.5-0.8-0.8-0.9s-0.7-0.2-1-0.2c-0.3,0-0.6,0-0.9,0.1s-0.5,0.3-0.7,0.5
			c-0.2,0.2-0.4,0.6-0.5,1C694.5,201.3,694.4,201.8,694.4,202.4z"/>
		<path d="M702.1,207.6v-9.1h1.3v1.3c0.4-0.6,0.8-1,1.3-1.2s1-0.4,1.6-0.4c0.5,0,1,0.1,1.4,0.3s0.7,0.6,0.9,1
			c0.2,0.4,0.3,0.9,0.3,1.4v6.7h-1.3v-6.2c0-0.7-0.1-1.2-0.4-1.5s-0.7-0.5-1.3-0.5c-0.4,0-0.7,0.1-1,0.2s-0.6,0.4-0.8,0.7
			c-0.2,0.3-0.4,0.6-0.5,0.9s-0.2,0.7-0.2,1v5.4H702.1z"/>
		<path d="M714,207.8c-0.5,0-1-0.1-1.3-0.2s-0.6-0.3-0.8-0.6c-0.2-0.3-0.3-0.6-0.4-0.9c-0.1-0.4-0.1-0.8-0.1-1.2v-5.3h-1.2v-1h1.2
			V196h1.3v2.5h1.9v1h-1.9v5.3c0,0.3,0,0.6,0,0.8s0.1,0.4,0.2,0.6s0.2,0.3,0.4,0.4s0.4,0.1,0.8,0.1c0.2,0,0.4,0,0.6-0.1v1.1
			C714.6,207.8,714.3,207.8,714,207.8z"/>
		<path d="M719.5,207.9c-0.5,0-0.9-0.1-1.2-0.2c-0.4-0.1-0.7-0.3-1-0.4c-0.3-0.2-0.5-0.4-0.7-0.7s-0.3-0.5-0.4-0.8
			c-0.1-0.4-0.2-0.8-0.3-1.2s-0.1-0.9-0.1-1.4c0-0.7,0-1.3,0.1-1.8s0.2-1,0.4-1.4s0.4-0.7,0.6-0.9c0.3-0.3,0.6-0.5,1-0.7
			c0.4-0.2,0.9-0.3,1.5-0.3c0.5,0,1,0.1,1.4,0.2s0.7,0.3,1,0.6c0.4,0.4,0.7,0.9,0.8,1.5s0.2,1.3,0.2,2.2v0.8h-5.7v0.2
			c0,0.6,0.1,1.1,0.2,1.5c0.1,0.4,0.3,0.7,0.5,1c0.2,0.2,0.5,0.4,0.8,0.5s0.6,0.1,1,0.1c0.4,0,0.7-0.1,1-0.2
			c0.3-0.1,0.5-0.3,0.7-0.5s0.3-0.3,0.4-0.5l1,0.6c-0.2,0.4-0.5,0.7-0.8,0.9c-0.3,0.3-0.7,0.4-1.1,0.5S720,207.9,719.5,207.9z
			 M717.2,202.4h4.4c0-0.9-0.1-1.6-0.3-2.1c-0.2-0.5-0.5-0.8-0.8-0.9s-0.7-0.2-1-0.2c-0.3,0-0.6,0-0.9,0.1s-0.5,0.3-0.7,0.5
			c-0.2,0.2-0.4,0.6-0.5,1C717.2,201.3,717.2,201.8,717.2,202.4z"/>
		<path d="M724.8,207.6v-9.1h1.3v2c0.2-0.5,0.5-1,0.9-1.3s0.7-0.5,1.1-0.6s0.6-0.1,0.9-0.1h0.2v1.3h-0.3c-0.5,0-1,0.1-1.3,0.4
			c-0.4,0.3-0.6,0.6-0.8,1s-0.3,0.8-0.4,1.2s-0.1,0.8-0.1,1.2v4.2H724.8z"/>
		<path d="M733.1,207.9c-0.5,0-0.9-0.1-1.2-0.2s-0.7-0.2-1-0.4c-0.5-0.4-0.9-0.8-1.1-1.4l1.1-0.5c0.2,0.3,0.3,0.6,0.6,0.8
			s0.5,0.4,0.8,0.5c0.3,0.1,0.6,0.1,0.9,0.1c0.4,0,0.8-0.1,1.1-0.2c0.3-0.1,0.5-0.3,0.7-0.5s0.2-0.5,0.2-0.8c0-0.3-0.1-0.6-0.2-0.8
			s-0.4-0.4-0.7-0.5c-0.6-0.2-1-0.4-1.2-0.4c-0.2-0.1-0.4-0.1-0.5-0.2c-0.5-0.2-0.9-0.4-1.2-0.6s-0.6-0.4-0.7-0.6s-0.3-0.4-0.3-0.7
			c-0.1-0.2-0.1-0.5-0.1-0.7c0-0.2,0-0.4,0.1-0.6c0-0.2,0.1-0.5,0.2-0.7c0.2-0.3,0.4-0.5,0.6-0.7c0.3-0.2,0.6-0.4,1-0.5
			s0.8-0.1,1.2-0.1c0.7,0,1.4,0.1,1.9,0.4s0.9,0.7,1.2,1.3l-1,0.5c-0.1-0.3-0.3-0.5-0.4-0.6s-0.3-0.3-0.5-0.4s-0.3-0.2-0.5-0.2
			s-0.4-0.1-0.6-0.1c-0.3,0-0.6,0-0.9,0.1s-0.5,0.2-0.6,0.3c-0.1,0.1-0.2,0.3-0.3,0.4s-0.1,0.4-0.1,0.6c0,0.2,0.1,0.4,0.2,0.6
			s0.3,0.3,0.5,0.5c0.2,0.1,0.5,0.3,0.8,0.4c0.3,0.1,0.7,0.3,1.2,0.4c0.7,0.2,1.2,0.4,1.5,0.7c0.3,0.2,0.5,0.4,0.6,0.6
			c0.1,0.1,0.2,0.3,0.2,0.5s0.1,0.5,0.1,0.8c0,0.4-0.1,0.7-0.2,0.9s-0.3,0.5-0.4,0.7c-0.3,0.3-0.6,0.6-1.2,0.7
			S733.6,207.9,733.1,207.9z"/>
		<path d="M740.9,207.8c-0.5,0-1-0.1-1.3-0.2s-0.6-0.3-0.8-0.6c-0.2-0.3-0.3-0.6-0.4-0.9c-0.1-0.4-0.1-0.8-0.1-1.2v-5.3h-1.2v-1h1.2
			V196h1.3v2.5h1.9v1h-1.9v5.3c0,0.3,0,0.6,0,0.8s0.1,0.4,0.2,0.6s0.2,0.3,0.4,0.4s0.4,0.1,0.8,0.1c0.2,0,0.4,0,0.6-0.1v1.1
			C741.4,207.8,741.2,207.8,740.9,207.8z"/>
		<path d="M745.5,207.9c-0.2,0-0.5,0-0.7-0.1s-0.4-0.1-0.6-0.2s-0.4-0.2-0.5-0.3c-0.2-0.1-0.3-0.3-0.4-0.4c-0.2-0.3-0.3-0.5-0.4-0.8
			s-0.2-0.7-0.2-1c0-0.3,0-0.7,0.1-0.9c0.1-0.3,0.2-0.5,0.4-0.7c0.3-0.4,0.6-0.6,1.1-0.8s1-0.3,1.7-0.3h2.3v-1.2
			c0-0.5-0.1-0.9-0.4-1.2s-0.5-0.5-0.8-0.5c-0.3-0.1-0.6-0.1-0.8-0.1c-0.6,0-1,0.1-1.4,0.3s-0.6,0.5-0.8,0.9l-1.1-0.4
			c0.2-0.6,0.6-1.1,1.2-1.4s1.3-0.5,2.2-0.5c0.6,0,1.1,0.1,1.5,0.2c0.4,0.1,0.8,0.4,1.1,0.7c0.2,0.3,0.4,0.6,0.5,0.9
			s0.1,0.7,0.1,1.1v6.5h-1.3v-0.9c-0.3,0.3-0.6,0.6-0.9,0.7s-0.6,0.3-1,0.4S745.8,207.9,745.5,207.9z M745.9,206.8
			c0.5,0,0.9-0.1,1.3-0.3s0.7-0.5,0.8-0.8s0.3-0.6,0.3-0.9v-1.5h-1.9c-0.4,0-0.8,0-1.1,0.1s-0.6,0.2-0.7,0.3s-0.3,0.3-0.4,0.6
			s-0.1,0.5-0.1,0.7c0,0.3,0,0.5,0.1,0.7s0.2,0.4,0.3,0.5C744.7,206.6,745.2,206.8,745.9,206.8z"/>
		<path d="M752,207.6v-9.1h1.3v1.3c0.4-0.6,0.8-1,1.3-1.2s1-0.4,1.6-0.4c0.5,0,1,0.1,1.4,0.3s0.7,0.6,0.9,1c0.2,0.4,0.3,0.9,0.3,1.4
			v6.7h-1.3v-6.2c0-0.7-0.1-1.2-0.4-1.5s-0.7-0.5-1.3-0.5c-0.4,0-0.7,0.1-1,0.2s-0.6,0.4-0.8,0.7c-0.2,0.3-0.4,0.6-0.5,0.9
			s-0.2,0.7-0.2,1v5.4H752z"/>
		<path d="M761.2,207.6v-9.1h1.3v1.3c0.2-0.4,0.5-0.7,0.9-1c0.3-0.2,0.7-0.4,1-0.5s0.7-0.1,0.9-0.1s0.5,0,0.8,0.1s0.5,0.1,0.7,0.3
			c0.2,0.1,0.4,0.3,0.5,0.5s0.3,0.5,0.4,0.8c0.3-0.4,0.6-0.8,0.9-1s0.7-0.4,1.1-0.5s0.7-0.1,0.9-0.1c0.6,0,1,0.1,1.4,0.3
			s0.7,0.5,0.8,1s0.2,0.9,0.2,1.4v6.7h-1.3v-6.2c0-0.6-0.1-1-0.2-1.3s-0.3-0.5-0.6-0.6c-0.3-0.1-0.5-0.1-0.8-0.1
			c-0.5,0-0.9,0.2-1.3,0.5c-0.4,0.4-0.7,0.7-0.8,1.2s-0.2,0.8-0.2,1.2v5.4h-1.3v-6.2c0-0.6-0.1-1-0.2-1.3s-0.3-0.5-0.6-0.6
			c-0.3-0.1-0.5-0.1-0.8-0.1c-0.5,0-0.9,0.2-1.3,0.5c-0.4,0.4-0.7,0.7-0.8,1.2s-0.2,0.8-0.2,1.2v5.4H761.2z"/>
		<path d="M778.7,207.9c-0.5,0-0.9-0.1-1.2-0.2c-0.4-0.1-0.7-0.3-1-0.4c-0.3-0.2-0.5-0.4-0.7-0.7s-0.3-0.5-0.4-0.8
			c-0.1-0.4-0.2-0.8-0.3-1.2s-0.1-0.9-0.1-1.4c0-0.7,0-1.3,0.1-1.8s0.2-1,0.4-1.4s0.4-0.7,0.6-0.9c0.3-0.3,0.6-0.5,1-0.7
			c0.4-0.2,0.9-0.3,1.5-0.3c0.5,0,1,0.1,1.4,0.2s0.7,0.3,1,0.6c0.4,0.4,0.7,0.9,0.8,1.5s0.2,1.3,0.2,2.2v0.8h-5.7v0.2
			c0,0.6,0.1,1.1,0.2,1.5c0.1,0.4,0.3,0.7,0.5,1c0.2,0.2,0.5,0.4,0.8,0.5s0.6,0.1,1,0.1c0.4,0,0.7-0.1,1-0.2
			c0.3-0.1,0.5-0.3,0.7-0.5s0.3-0.3,0.4-0.5l1,0.6c-0.2,0.4-0.5,0.7-0.8,0.9c-0.3,0.3-0.7,0.4-1.1,0.5S779.1,207.9,778.7,207.9z
			 M776.3,202.4h4.4c0-0.9-0.1-1.6-0.3-2.1c-0.2-0.5-0.5-0.8-0.8-0.9s-0.7-0.2-1-0.2c-0.3,0-0.6,0-0.9,0.1s-0.5,0.3-0.7,0.5
			c-0.2,0.2-0.4,0.6-0.5,1C776.4,201.3,776.3,201.8,776.3,202.4z"/>
		<path d="M784,207.6v-13h1.3v13H784z"/>
		<path d="M790.6,207.9c-0.3,0-0.6,0-0.8-0.1s-0.5-0.2-0.8-0.3c-0.2-0.2-0.5-0.4-0.7-0.6s-0.4-0.6-0.5-1c-0.1-0.4-0.2-0.8-0.3-1.2
			s-0.1-1-0.1-1.6c0-0.7,0.1-1.4,0.2-1.9s0.3-1,0.5-1.4c0.3-0.5,0.6-0.9,1.1-1.1c0.4-0.2,1-0.4,1.6-0.4c0.5,0,0.9,0.1,1.2,0.2
			s0.6,0.3,0.9,0.5c0.2,0.2,0.4,0.4,0.6,0.6v-4.8h1.3v13h-1.3v-1.2c-0.3,0.5-0.7,0.9-1.1,1.1S791.2,207.9,790.6,207.9z M791,206.8
			c0.5,0,1-0.1,1.3-0.4s0.6-0.6,0.8-1s0.2-0.8,0.2-1.2v-2.2c0-0.6-0.1-1.1-0.4-1.5s-0.6-0.7-1-0.8s-0.7-0.2-1-0.2
			c-0.5,0-0.8,0.1-1.1,0.3c-0.3,0.2-0.5,0.4-0.6,0.7s-0.2,0.5-0.2,0.7c-0.1,0.3-0.1,0.6-0.2,1c0,0.3,0,0.7,0,1.1
			c0,0.4,0,0.8,0.1,1.2s0.1,0.6,0.1,0.8c0.1,0.3,0.1,0.5,0.3,0.7s0.3,0.4,0.4,0.6s0.4,0.3,0.6,0.4
			C790.4,206.7,790.7,206.8,791,206.8z"/>
		<path d="M799.6,207.9c-0.3,0-0.7,0-1-0.1s-0.6-0.2-0.8-0.5s-0.4-0.5-0.6-0.8s-0.2-0.8-0.2-1.3v-6.7h1.3v6.2c0,0.4,0,0.7,0.1,0.9
			c0.1,0.3,0.2,0.5,0.3,0.6s0.3,0.3,0.6,0.4s0.5,0.1,0.8,0.1c0.4,0,0.7-0.1,1-0.2s0.6-0.4,0.8-0.6c0.2-0.3,0.4-0.6,0.5-0.9
			s0.2-0.7,0.2-1v-5.4h1.3v9.1h-1.3v-1.3c-0.4,0.6-0.8,1-1.3,1.2S800.2,207.9,799.6,207.9z"/>
		<path d="M806.2,207.6v-9.1h1.3v1.3c0.4-0.6,0.8-1,1.3-1.2s1-0.4,1.6-0.4c0.5,0,1,0.1,1.4,0.3s0.7,0.6,0.9,1
			c0.2,0.4,0.3,0.9,0.3,1.4v6.7h-1.3v-6.2c0-0.7-0.1-1.2-0.4-1.5s-0.7-0.5-1.3-0.5c-0.4,0-0.7,0.1-1,0.2s-0.6,0.4-0.8,0.7
			c-0.2,0.3-0.4,0.6-0.5,0.9s-0.2,0.7-0.2,1v5.4H806.2z"/>
		<path d="M818.8,211.4c-0.9,0-1.6-0.2-2.2-0.5s-1-0.8-1.2-1.4l1.1-0.4c0.2,0.4,0.5,0.7,0.9,0.9c0.4,0.2,0.9,0.3,1.4,0.3
			c0.3,0,0.7,0,1-0.1s0.6-0.2,0.8-0.4c0.2-0.2,0.3-0.4,0.3-0.6c0.1-0.2,0.1-0.6,0.1-1.1v-1.6c-0.3,0.3-0.6,0.6-0.9,0.8
			s-0.6,0.3-0.9,0.3s-0.6,0.1-0.9,0.1c-0.3,0-0.6,0-0.8-0.1s-0.5-0.2-0.8-0.3c-0.2-0.1-0.5-0.4-0.7-0.6s-0.4-0.6-0.5-1
			c-0.1-0.4-0.2-0.8-0.3-1.2s-0.1-1-0.1-1.6c0-0.7,0.1-1.3,0.2-1.8s0.3-1,0.5-1.4c0.3-0.5,0.6-0.9,1.1-1.1s1-0.4,1.6-0.4
			c0.6,0,1.2,0.1,1.6,0.3s0.8,0.6,1,1.1v-1.1h1.3v9.7c0,0.5-0.1,1-0.2,1.3s-0.3,0.7-0.5,1c-0.3,0.3-0.7,0.5-1.2,0.7
			S819.4,211.4,818.8,211.4z M818.7,206.6c0.5,0,1-0.1,1.3-0.4s0.6-0.6,0.8-1s0.2-0.8,0.2-1.2v-2.1c0-0.6-0.1-1.1-0.4-1.5
			s-0.6-0.7-1-0.8s-0.7-0.2-1-0.2c-0.5,0-0.8,0.1-1.1,0.3c-0.3,0.2-0.5,0.4-0.6,0.7s-0.2,0.5-0.2,0.7c-0.1,0.3-0.1,0.6-0.2,0.9
			c0,0.3,0,0.7,0,1c0,0.4,0,0.7,0,1.1c0,0.3,0.1,0.6,0.1,0.9c0.1,0.3,0.1,0.5,0.3,0.7s0.3,0.4,0.4,0.6s0.4,0.3,0.6,0.4
			C818.2,206.6,818.4,206.6,818.7,206.6z"/>
		<path d="M828.1,207.9c-0.5,0-0.9-0.1-1.2-0.2c-0.4-0.1-0.7-0.3-1-0.4c-0.3-0.2-0.5-0.4-0.7-0.7s-0.3-0.5-0.4-0.8
			c-0.1-0.4-0.2-0.8-0.3-1.2s-0.1-0.9-0.1-1.4c0-0.7,0-1.3,0.1-1.8s0.2-1,0.4-1.4s0.4-0.7,0.6-0.9c0.3-0.3,0.6-0.5,1-0.7
			c0.4-0.2,0.9-0.3,1.5-0.3c0.5,0,1,0.1,1.4,0.2s0.7,0.3,1,0.6c0.4,0.4,0.7,0.9,0.8,1.5s0.2,1.3,0.2,2.2v0.8h-5.7v0.2
			c0,0.6,0.1,1.1,0.2,1.5c0.1,0.4,0.3,0.7,0.5,1c0.2,0.2,0.5,0.4,0.8,0.5s0.6,0.1,1,0.1c0.4,0,0.7-0.1,1-0.2
			c0.3-0.1,0.5-0.3,0.7-0.5s0.3-0.3,0.4-0.5l1,0.6c-0.2,0.4-0.5,0.7-0.8,0.9c-0.3,0.3-0.7,0.4-1.1,0.5S828.5,207.9,828.1,207.9z
			 M825.7,202.4h4.4c0-0.9-0.1-1.6-0.3-2.1c-0.2-0.5-0.5-0.8-0.8-0.9s-0.7-0.2-1-0.2c-0.3,0-0.6,0-0.9,0.1s-0.5,0.3-0.7,0.5
			c-0.2,0.2-0.4,0.6-0.5,1C825.8,201.3,825.8,201.8,825.7,202.4z"/>
		<path d="M833.4,207.6v-9.1h1.3v1.3c0.4-0.6,0.8-1,1.3-1.2s1-0.4,1.6-0.4c0.5,0,1,0.1,1.4,0.3s0.7,0.6,0.9,1
			c0.2,0.4,0.3,0.9,0.3,1.4v6.7H839v-6.2c0-0.7-0.1-1.2-0.4-1.5s-0.7-0.5-1.3-0.5c-0.4,0-0.7,0.1-1,0.2s-0.6,0.4-0.8,0.7
			c-0.2,0.3-0.4,0.6-0.5,0.9s-0.2,0.7-0.2,1v5.4H833.4z"/>
		<path d="M661.3,227.9c-0.6,0-1.2-0.1-1.6-0.2s-0.9-0.4-1.2-0.7s-0.6-0.6-0.8-1s-0.4-0.8-0.6-1.3c-0.2-0.5-0.3-1.1-0.3-1.7
			s-0.1-1.2-0.1-1.9c0-0.8,0-1.5,0.1-2.1s0.2-1.1,0.3-1.5c0.2-0.7,0.5-1.3,1-1.8s0.9-0.8,1.5-1s1.2-0.3,1.8-0.3c1,0,1.9,0.2,2.5,0.7
			c0.6,0.4,1.1,1.1,1.3,1.9l-1.4,0.5c-0.1-0.3-0.2-0.6-0.4-0.8s-0.3-0.4-0.4-0.6c-0.2-0.2-0.5-0.3-0.7-0.4c-0.3-0.1-0.6-0.1-0.9-0.1
			c-0.5,0-0.9,0.1-1.3,0.2s-0.7,0.4-0.9,0.6s-0.4,0.5-0.5,0.8c-0.3,0.8-0.4,1.4-0.5,1.9s-0.1,1.2-0.1,1.9c0,0.7,0,1.4,0.1,1.9
			s0.1,0.9,0.2,1.2s0.2,0.5,0.3,0.8c0.2,0.6,0.6,1,1,1.3s1,0.4,1.6,0.4c0.5,0,1-0.1,1.4-0.3c0.4-0.2,0.7-0.5,0.9-0.9
			s0.3-0.8,0.3-1.3v-1.6h-2.6v-1.2h4v6.2h-1.2l0-0.9c-0.3,0.4-0.7,0.6-1.2,0.9C662.4,227.8,661.9,227.9,661.3,227.9z"/>
		<path d="M670.9,227.9c-0.5,0-0.9-0.1-1.2-0.2c-0.4-0.1-0.7-0.3-1-0.4c-0.3-0.2-0.5-0.4-0.7-0.7s-0.3-0.5-0.4-0.8
			c-0.1-0.4-0.2-0.8-0.3-1.2s-0.1-0.9-0.1-1.4c0-0.7,0-1.3,0.1-1.8s0.2-1,0.4-1.4s0.4-0.7,0.6-0.9c0.3-0.3,0.6-0.5,1-0.7
			c0.4-0.2,0.9-0.3,1.5-0.3c0.5,0,1,0.1,1.4,0.2s0.7,0.3,1,0.6c0.4,0.4,0.7,0.9,0.8,1.5s0.2,1.3,0.2,2.2v0.8h-5.7v0.2
			c0,0.6,0.1,1.1,0.2,1.5c0.1,0.4,0.3,0.7,0.5,1c0.2,0.2,0.5,0.4,0.8,0.5s0.6,0.1,1,0.1c0.4,0,0.7-0.1,1-0.2
			c0.3-0.1,0.5-0.3,0.7-0.5s0.3-0.3,0.4-0.5l1,0.6c-0.2,0.4-0.5,0.7-0.8,0.9c-0.3,0.3-0.7,0.4-1.1,0.5S671.3,227.9,670.9,227.9z
			 M668.5,222.4h4.4c0-0.9-0.1-1.6-0.3-2.1c-0.2-0.5-0.5-0.8-0.8-0.9s-0.7-0.2-1-0.2c-0.3,0-0.6,0-0.9,0.1s-0.5,0.3-0.7,0.5
			c-0.2,0.2-0.4,0.6-0.5,1C668.6,221.3,668.5,221.8,668.5,222.4z"/>
		<path d="M679.1,227.9c-0.5,0-0.9-0.1-1.2-0.2s-0.7-0.2-1-0.4c-0.5-0.4-0.9-0.8-1.1-1.4l1.1-0.5c0.2,0.3,0.3,0.6,0.6,0.8
			s0.5,0.4,0.8,0.5c0.3,0.1,0.6,0.1,0.9,0.1c0.4,0,0.8-0.1,1.1-0.2c0.3-0.1,0.5-0.3,0.7-0.5s0.2-0.5,0.2-0.8c0-0.3-0.1-0.6-0.2-0.8
			s-0.4-0.4-0.7-0.5c-0.6-0.2-1-0.4-1.2-0.4c-0.2-0.1-0.4-0.1-0.5-0.2c-0.5-0.2-0.9-0.4-1.2-0.6s-0.6-0.4-0.7-0.6s-0.3-0.4-0.3-0.7
			c-0.1-0.2-0.1-0.5-0.1-0.7c0-0.2,0-0.4,0.1-0.6c0-0.2,0.1-0.5,0.2-0.7c0.2-0.3,0.4-0.5,0.6-0.7c0.3-0.2,0.6-0.4,1-0.5
			s0.8-0.1,1.2-0.1c0.7,0,1.4,0.1,1.9,0.4s0.9,0.7,1.2,1.3l-1,0.5c-0.1-0.3-0.3-0.5-0.4-0.6s-0.3-0.3-0.5-0.4s-0.3-0.2-0.5-0.2
			s-0.4-0.1-0.6-0.1c-0.3,0-0.6,0-0.9,0.1s-0.5,0.2-0.6,0.3c-0.1,0.1-0.2,0.3-0.3,0.4s-0.1,0.4-0.1,0.6c0,0.2,0.1,0.4,0.2,0.6
			s0.3,0.3,0.5,0.5c0.2,0.1,0.5,0.3,0.8,0.4c0.3,0.1,0.7,0.3,1.2,0.4c0.7,0.2,1.2,0.4,1.5,0.7c0.3,0.2,0.5,0.4,0.6,0.6
			c0.1,0.1,0.2,0.3,0.2,0.5s0.1,0.5,0.1,0.8c0,0.4-0.1,0.7-0.2,0.9s-0.3,0.5-0.4,0.7c-0.3,0.3-0.6,0.6-1.2,0.7
			S679.6,227.9,679.1,227.9z"/>
		<path d="M687.6,227.9c-0.5,0-0.9-0.1-1.3-0.2s-0.7-0.3-1-0.5c-0.3-0.2-0.5-0.4-0.7-0.7s-0.3-0.6-0.4-0.9c-0.1-0.4-0.2-0.8-0.3-1.3
			s-0.1-0.9-0.1-1.3s0-0.8,0.1-1.3s0.1-0.9,0.3-1.3c0.2-0.6,0.5-1,0.8-1.4s0.7-0.6,1.2-0.7s0.9-0.2,1.4-0.2c0.6,0,1.1,0.1,1.6,0.3
			c0.4,0.2,0.8,0.5,1,0.8s0.4,0.7,0.5,1l-1.2,0.4c-0.1-0.3-0.2-0.5-0.3-0.7s-0.3-0.3-0.4-0.5s-0.3-0.2-0.5-0.3s-0.4-0.1-0.7-0.1
			c-0.4,0-0.8,0.1-1.1,0.3s-0.6,0.5-0.7,0.9c-0.2,0.4-0.3,0.8-0.3,1.1s-0.1,0.8-0.1,1.4c0,0.8,0,1.3,0.1,1.6
			c0.1,0.3,0.2,0.6,0.3,0.9c0.2,0.4,0.4,0.8,0.8,1s0.7,0.3,1.2,0.3c0.4,0,0.8-0.1,1.2-0.3s0.6-0.6,0.8-1.1l1.1,0.4
			c-0.2,0.5-0.5,0.9-0.8,1.3s-0.7,0.6-1.1,0.7S688,227.9,687.6,227.9z"/>
		<path d="M692.2,227.6v-13h1.3v5.1c0.4-0.6,0.8-1,1.3-1.2s1-0.4,1.6-0.4c0.5,0,1,0.1,1.4,0.3s0.7,0.6,0.9,1
			c0.2,0.4,0.3,0.9,0.3,1.4v6.7h-1.3v-6.2c0-0.7-0.1-1.2-0.4-1.5s-0.7-0.5-1.3-0.5c-0.4,0-0.7,0.1-1,0.2s-0.6,0.4-0.8,0.7
			c-0.2,0.3-0.4,0.6-0.5,0.9s-0.2,0.7-0.2,1v5.4H692.2z"/>
		<path d="M703.9,227.9c-0.2,0-0.5,0-0.7-0.1s-0.4-0.1-0.6-0.2s-0.4-0.2-0.5-0.3c-0.2-0.1-0.3-0.3-0.4-0.4c-0.2-0.3-0.3-0.5-0.4-0.8
			s-0.2-0.7-0.2-1c0-0.3,0-0.7,0.1-0.9c0.1-0.3,0.2-0.5,0.4-0.7c0.3-0.4,0.6-0.6,1.1-0.8s1-0.3,1.7-0.3h2.3v-1.2
			c0-0.5-0.1-0.9-0.4-1.2s-0.5-0.5-0.8-0.5c-0.3-0.1-0.6-0.1-0.8-0.1c-0.6,0-1,0.1-1.4,0.3s-0.6,0.5-0.8,0.9l-1.1-0.4
			c0.2-0.6,0.6-1.1,1.2-1.4s1.3-0.5,2.2-0.5c0.6,0,1.1,0.1,1.5,0.2c0.4,0.1,0.8,0.4,1.1,0.7c0.2,0.3,0.4,0.6,0.5,0.9
			s0.1,0.7,0.1,1.1v6.5h-1.3v-0.9c-0.3,0.3-0.6,0.6-0.9,0.7s-0.6,0.3-1,0.4S704.1,227.9,703.9,227.9z M704.3,226.8
			c0.5,0,0.9-0.1,1.3-0.3s0.7-0.5,0.8-0.8s0.3-0.6,0.3-0.9v-1.5h-1.9c-0.4,0-0.8,0-1.1,0.1s-0.6,0.2-0.7,0.3s-0.3,0.3-0.4,0.6
			s-0.1,0.5-0.1,0.7c0,0.3,0,0.5,0.1,0.7s0.2,0.4,0.3,0.5C703,226.6,703.6,226.8,704.3,226.8z M702.9,216.9v-1.5h1.3v1.5H702.9z
			 M705.6,216.9v-1.5h1.3v1.5H705.6z"/>
		<path d="M710.5,227.6v-8.1h-1.2v-1h1.2v-0.9c0-0.6,0.1-1.1,0.2-1.4s0.3-0.6,0.5-0.9c0.3-0.3,0.6-0.5,0.9-0.6s0.7-0.2,1.1-0.2
			c0.4,0,0.8,0,1,0.1v1.1c-0.2,0-0.5-0.1-0.8-0.1c-0.2,0-0.4,0-0.6,0.1s-0.4,0.2-0.6,0.4c-0.1,0.1-0.2,0.3-0.3,0.5
			c-0.1,0.2-0.1,0.5-0.1,1v0.8h2.1v1h-2.1v8.1H710.5z"/>
		<path d="M718.2,227.8c-0.5,0-1-0.1-1.3-0.2s-0.6-0.3-0.8-0.6c-0.2-0.3-0.3-0.6-0.4-0.9c-0.1-0.4-0.1-0.8-0.1-1.2v-5.3h-1.2v-1h1.2
			V216h1.3v2.5h1.9v1h-1.9v5.3c0,0.3,0,0.6,0,0.8s0.1,0.4,0.2,0.6s0.2,0.3,0.4,0.4s0.4,0.1,0.8,0.1c0.2,0,0.4,0,0.6-0.1v1.1
			C718.7,227.8,718.5,227.8,718.2,227.8z"/>
		<path d="M723.3,227.9c-0.5,0-0.9-0.1-1.2-0.2s-0.7-0.2-1-0.4c-0.5-0.4-0.9-0.8-1.1-1.4l1.1-0.5c0.2,0.3,0.3,0.6,0.6,0.8
			s0.5,0.4,0.8,0.5c0.3,0.1,0.6,0.1,0.9,0.1c0.4,0,0.8-0.1,1.1-0.2c0.3-0.1,0.5-0.3,0.7-0.5s0.2-0.5,0.2-0.8c0-0.3-0.1-0.6-0.2-0.8
			s-0.4-0.4-0.7-0.5c-0.6-0.2-1-0.4-1.2-0.4c-0.2-0.1-0.4-0.1-0.5-0.2c-0.5-0.2-0.9-0.4-1.2-0.6s-0.6-0.4-0.7-0.6s-0.3-0.4-0.3-0.7
			c-0.1-0.2-0.1-0.5-0.1-0.7c0-0.2,0-0.4,0.1-0.6c0-0.2,0.1-0.5,0.2-0.7c0.2-0.3,0.4-0.5,0.6-0.7c0.3-0.2,0.6-0.4,1-0.5
			s0.8-0.1,1.2-0.1c0.7,0,1.4,0.1,1.9,0.4s0.9,0.7,1.2,1.3l-1,0.5c-0.1-0.3-0.3-0.5-0.4-0.6s-0.3-0.3-0.5-0.4s-0.3-0.2-0.5-0.2
			s-0.4-0.1-0.6-0.1c-0.3,0-0.6,0-0.9,0.1s-0.5,0.2-0.6,0.3c-0.1,0.1-0.2,0.3-0.3,0.4s-0.1,0.4-0.1,0.6c0,0.2,0.1,0.4,0.2,0.6
			s0.3,0.3,0.5,0.5c0.2,0.1,0.5,0.3,0.8,0.4c0.3,0.1,0.7,0.3,1.2,0.4c0.7,0.2,1.2,0.4,1.5,0.7c0.3,0.2,0.5,0.4,0.6,0.6
			c0.1,0.1,0.2,0.3,0.2,0.5s0.1,0.5,0.1,0.8c0,0.4-0.1,0.7-0.2,0.9s-0.3,0.5-0.4,0.7c-0.3,0.3-0.6,0.6-1.2,0.7
			S723.7,227.9,723.3,227.9z"/>
		<path d="M727.1,231.1c-0.1,0-0.1,0-0.2,0s-0.1,0-0.2,0V230c0.1,0,0.1,0,0.1,0c0,0,0.1,0,0.1,0c0.5,0,0.8-0.1,1-0.3
			s0.3-0.4,0.4-0.7c0.1-0.3,0.1-0.5,0.1-0.8v-9.8h1.3v9.9c0,0.4,0,0.8-0.1,1.1s-0.2,0.6-0.5,0.8c-0.2,0.2-0.5,0.4-0.8,0.5
			S727.6,231.1,727.1,231.1z M728.4,216.2v-1.5h1.3v1.5H728.4z"/>
		<path d="M734.6,227.9c-0.2,0-0.5,0-0.7-0.1s-0.4-0.1-0.6-0.2s-0.4-0.2-0.5-0.3c-0.2-0.1-0.3-0.3-0.4-0.4c-0.2-0.3-0.3-0.5-0.4-0.8
			s-0.2-0.7-0.2-1c0-0.3,0-0.7,0.1-0.9c0.1-0.3,0.2-0.5,0.4-0.7c0.3-0.4,0.6-0.6,1.1-0.8s1-0.3,1.7-0.3h2.3v-1.2
			c0-0.5-0.1-0.9-0.4-1.2s-0.5-0.5-0.8-0.5c-0.3-0.1-0.6-0.1-0.8-0.1c-0.6,0-1,0.1-1.4,0.3s-0.6,0.5-0.8,0.9l-1.1-0.4
			c0.2-0.6,0.6-1.1,1.2-1.4s1.3-0.5,2.2-0.5c0.6,0,1.1,0.1,1.5,0.2c0.4,0.1,0.8,0.4,1.1,0.7c0.2,0.3,0.4,0.6,0.5,0.9
			s0.1,0.7,0.1,1.1v6.5h-1.3v-0.9c-0.3,0.3-0.6,0.6-0.9,0.7s-0.6,0.3-1,0.4S734.9,227.9,734.6,227.9z M735,226.8
			c0.5,0,0.9-0.1,1.3-0.3s0.7-0.5,0.8-0.8s0.3-0.6,0.3-0.9v-1.5h-1.9c-0.4,0-0.8,0-1.1,0.1s-0.6,0.2-0.7,0.3s-0.3,0.3-0.4,0.6
			s-0.1,0.5-0.1,0.7c0,0.3,0,0.5,0.1,0.7s0.2,0.4,0.3,0.5C733.8,226.6,734.3,226.8,735,226.8z"/>
		<path d="M741,227.6v-13h1.3v5.1c0.4-0.6,0.8-1,1.3-1.2s1-0.4,1.6-0.4c0.5,0,1,0.1,1.4,0.3s0.7,0.6,0.9,1c0.2,0.4,0.3,0.9,0.3,1.4
			v6.7h-1.3v-6.2c0-0.7-0.1-1.2-0.4-1.5s-0.7-0.5-1.3-0.5c-0.4,0-0.7,0.1-1,0.2s-0.6,0.4-0.8,0.7c-0.2,0.3-0.4,0.6-0.5,0.9
			s-0.2,0.7-0.2,1v5.4H741z"/>
		<path d="M750.2,227.6v-9.1h1.3v2c0.2-0.5,0.5-1,0.9-1.3s0.7-0.5,1.1-0.6s0.6-0.1,0.9-0.1h0.2v1.3h-0.3c-0.5,0-1,0.1-1.3,0.4
			c-0.4,0.3-0.6,0.6-0.8,1s-0.3,0.8-0.4,1.2s-0.1,0.8-0.1,1.2v4.2H750.2z"/>
		<path d="M760.3,227.6v-0.9l3.6-4.1c0.7-0.8,1.3-1.6,1.6-2.2s0.6-1.1,0.6-1.4s0.1-0.7,0.1-1.1c0-0.7-0.2-1.2-0.6-1.6
			s-0.9-0.6-1.7-0.6c-0.4,0-0.7,0.1-1,0.2s-0.5,0.3-0.7,0.5c-0.4,0.4-0.7,1.1-0.8,1.9l-1.3-0.3c0.1-0.5,0.2-0.9,0.3-1.3
			c0.2-0.4,0.4-0.7,0.7-1c0.4-0.4,0.8-0.6,1.3-0.8s1-0.2,1.6-0.2c0.6,0,1.2,0.1,1.6,0.3c0.4,0.2,0.8,0.4,1.1,0.7s0.5,0.6,0.6,1
			s0.2,0.8,0.2,1.2c0,0.6-0.1,1.2-0.3,1.7c-0.2,0.6-0.6,1.2-1,1.8c-0.5,0.6-1,1.3-1.6,1.9l-2.9,3.1h5.8v1.1H760.3z"/>
		<path d="M773.7,227.9c-0.6,0-1.1-0.1-1.6-0.2c-0.4-0.2-0.8-0.4-1.1-0.7c-0.4-0.4-0.7-0.9-0.9-1.6c-0.2-0.7-0.3-1.3-0.4-2.1
			c0-0.7-0.1-1.4-0.1-2c0-1,0-2,0.1-2.7s0.2-1.4,0.5-1.8c0.2-0.5,0.5-0.8,0.7-1.1c0.3-0.3,0.7-0.5,1.1-0.7c0.4-0.2,1-0.2,1.6-0.2
			s1.1,0.1,1.6,0.2s0.8,0.4,1.1,0.7c0.4,0.4,0.7,0.9,0.9,1.6s0.3,1.3,0.4,2.1s0.1,1.4,0.1,2c0,1.1,0,2-0.1,2.7
			c-0.1,0.7-0.2,1.3-0.5,1.8s-0.5,0.9-0.7,1.1c-0.3,0.3-0.7,0.5-1.1,0.7S774.3,227.9,773.7,227.9z M773.7,226.8c0.3,0,0.6,0,0.9-0.1
			c0.3-0.1,0.5-0.2,0.7-0.4c0.3-0.3,0.5-0.7,0.6-1.2s0.3-1.1,0.3-1.8c0-0.7,0.1-1.3,0.1-2c0-1.1,0-1.9-0.1-2.6
			c-0.1-0.7-0.2-1.2-0.4-1.6s-0.3-0.6-0.5-0.8c-0.2-0.2-0.4-0.3-0.7-0.4c-0.3-0.1-0.5-0.1-0.9-0.1c-0.3,0-0.6,0-0.9,0.1
			s-0.5,0.2-0.7,0.4c-0.3,0.3-0.5,0.7-0.6,1.2s-0.3,1.1-0.3,1.8c0,0.7-0.1,1.4-0.1,2c0,1.1,0,2,0.1,2.7s0.2,1.2,0.4,1.5
			s0.3,0.6,0.5,0.8c0.2,0.2,0.4,0.3,0.7,0.4S773.4,226.8,773.7,226.8z"/>
		<path d="M781.1,227.6v-1.1h2v-10.1l-1.9,1.2l-0.6-1l2.9-1.8h1v11.7h1.9v1.1H781.1z"/>
		<path d="M789,227.6v-0.9l3.6-4.1c0.7-0.8,1.3-1.6,1.6-2.2s0.6-1.1,0.6-1.4s0.1-0.7,0.1-1.1c0-0.7-0.2-1.2-0.6-1.6
			s-0.9-0.6-1.7-0.6c-0.4,0-0.7,0.1-1,0.2s-0.5,0.3-0.7,0.5c-0.4,0.4-0.7,1.1-0.8,1.9l-1.3-0.3c0.1-0.5,0.2-0.9,0.3-1.3
			c0.2-0.4,0.4-0.7,0.7-1c0.4-0.4,0.8-0.6,1.3-0.8s1-0.2,1.6-0.2c0.6,0,1.2,0.1,1.6,0.3c0.4,0.2,0.8,0.4,1.1,0.7s0.5,0.6,0.6,1
			s0.2,0.8,0.2,1.2c0,0.6-0.1,1.2-0.3,1.7c-0.2,0.6-0.6,1.2-1,1.8c-0.5,0.6-1,1.3-1.6,1.9l-2.9,3.1h5.8v1.1H789z"/>
		<path d="M797.8,227.6l4-13h1.1l-4,13H797.8z"/>
		<path d="M804,227.6v-0.9l3.6-4.1c0.7-0.8,1.3-1.6,1.6-2.2s0.6-1.1,0.6-1.4s0.1-0.7,0.1-1.1c0-0.7-0.2-1.2-0.6-1.6
			s-0.9-0.6-1.7-0.6c-0.4,0-0.7,0.1-1,0.2s-0.5,0.3-0.7,0.5c-0.4,0.4-0.7,1.1-0.8,1.9l-1.3-0.3c0.1-0.5,0.2-0.9,0.3-1.3
			c0.2-0.4,0.4-0.7,0.7-1c0.4-0.4,0.8-0.6,1.3-0.8s1-0.2,1.6-0.2c0.6,0,1.2,0.1,1.6,0.3c0.4,0.2,0.8,0.4,1.1,0.7s0.5,0.6,0.6,1
			s0.2,0.8,0.2,1.2c0,0.6-0.1,1.2-0.3,1.7c-0.2,0.6-0.6,1.2-1,1.8c-0.5,0.6-1,1.3-1.6,1.9l-2.9,3.1h5.8v1.1H804z"/>
		<path d="M817.5,227.9c-0.6,0-1.1-0.1-1.6-0.2c-0.4-0.2-0.8-0.4-1.1-0.7c-0.4-0.4-0.7-0.9-0.9-1.6c-0.2-0.7-0.3-1.3-0.4-2.1
			c0-0.7-0.1-1.4-0.1-2c0-1,0-2,0.1-2.7s0.2-1.4,0.5-1.8c0.2-0.5,0.5-0.8,0.7-1.1c0.3-0.3,0.7-0.5,1.1-0.7c0.4-0.2,1-0.2,1.6-0.2
			s1.1,0.1,1.6,0.2s0.8,0.4,1.1,0.7c0.4,0.4,0.7,0.9,0.9,1.6s0.3,1.3,0.4,2.1s0.1,1.4,0.1,2c0,1.1,0,2-0.1,2.7
			c-0.1,0.7-0.2,1.3-0.5,1.8s-0.5,0.9-0.7,1.1c-0.3,0.3-0.7,0.5-1.1,0.7S818.1,227.9,817.5,227.9z M817.5,226.8c0.3,0,0.6,0,0.9-0.1
			c0.3-0.1,0.5-0.2,0.7-0.4c0.3-0.3,0.5-0.7,0.6-1.2s0.3-1.1,0.3-1.8c0-0.7,0.1-1.3,0.1-2c0-1.1,0-1.9-0.1-2.6
			c-0.1-0.7-0.2-1.2-0.4-1.6s-0.3-0.6-0.5-0.8c-0.2-0.2-0.4-0.3-0.7-0.4c-0.3-0.1-0.5-0.1-0.9-0.1c-0.3,0-0.6,0-0.9,0.1
			s-0.5,0.2-0.7,0.4c-0.3,0.3-0.5,0.7-0.6,1.2s-0.3,1.1-0.3,1.8c0,0.7-0.1,1.4-0.1,2c0,1.1,0,2,0.1,2.7s0.2,1.2,0.4,1.5
			s0.3,0.6,0.5,0.8c0.2,0.2,0.4,0.3,0.7,0.4S817.2,226.8,817.5,226.8z"/>
		<path d="M824.9,227.6v-1.1h2v-10.1l-1.9,1.2l-0.6-1l2.9-1.8h1v11.7h1.9v1.1H824.9z"/>
		<path d="M836.4,227.9c-0.7,0-1.2-0.1-1.7-0.2s-0.8-0.4-1.1-0.7c-0.3-0.3-0.5-0.6-0.7-1s-0.3-0.8-0.4-1.3l1.2-0.1
			c0.2,0.8,0.4,1.4,0.8,1.7c0.4,0.4,1,0.5,1.7,0.5c0.3,0,0.6,0,0.9-0.1c0.3-0.1,0.5-0.2,0.7-0.4c0.4-0.4,0.6-0.8,0.7-1.2
			c0.1-0.5,0.2-1,0.2-1.6c0-0.5-0.1-0.9-0.2-1.3s-0.3-0.7-0.5-1c-0.2-0.2-0.5-0.4-0.9-0.5s-0.6-0.1-0.8-0.1c-0.5,0-0.9,0.1-1.4,0.3
			l-0.5-0.7l4-4.1H833V215h6.8v1.1l-3.4,3.6c0.1,0,0.3-0.1,0.7-0.1c0.5,0,0.9,0.1,1.3,0.3s0.7,0.4,0.9,0.6c0.3,0.3,0.5,0.6,0.6,0.9
			s0.2,0.7,0.3,1.1s0.1,0.8,0.1,1.2c0,0.5-0.1,1-0.2,1.5s-0.3,0.9-0.5,1.2c-0.2,0.3-0.4,0.6-0.7,0.8c-0.3,0.3-0.7,0.5-1.1,0.7
			C837.4,227.9,836.9,227.9,836.4,227.9z"/>
	</g>
	<g>
		<path d="M57.6,230.7c-2.1,0-3.9-0.3-5.4-0.8c-1.5-0.5-2.7-1.4-3.7-2.4c-0.7-0.8-1.2-1.6-1.6-2.7c-0.4-1-0.7-2.2-0.9-3.5l6.7-1.4
			c0.4,1.6,0.7,2.7,1.1,3.3c0.4,0.6,0.8,1,1.5,1.3c0.6,0.3,1.5,0.5,2.5,0.5c0.7,0,1.3-0.1,1.8-0.3s1-0.5,1.4-0.9
			c0.7-0.7,1.3-1.6,1.8-2.9s0.7-2.5,0.8-3.7c0.1-1.2,0.2-2.2,0.2-3c-1,1-2.1,1.7-3.3,2.2c-1.2,0.5-2.6,0.7-4.3,0.7
			c-1.7,0-3.1-0.2-4.4-0.6s-2.3-1.1-3.1-1.9c-1.1-1.1-1.9-2.4-2.5-4.1s-0.8-3.7-0.8-6.1c0-2.6,0.3-4.8,0.8-6.6
			c0.6-1.9,1.5-3.4,2.7-4.6c1-0.9,2.2-1.7,3.7-2.1c1.5-0.5,3.2-0.7,5.2-0.7c1.8,0,3.3,0.2,4.7,0.6c1.3,0.4,2.4,1,3.4,1.8
			c1.4,1.2,2.5,2.8,3.3,4.9s1.2,4.2,1.4,6.5s0.2,4.3,0.2,6.1c0,3.1-0.1,5.8-0.4,8c-0.3,2.2-0.8,4.2-1.6,5.9s-1.7,3-2.8,4
			c-1,0.8-2.1,1.5-3.5,2C61,230.4,59.4,230.7,57.6,230.7z M57.3,211.7c1.5,0,2.7-0.5,3.7-1.4c1-0.9,1.6-1.9,1.9-3.1
			c0.3-1.1,0.4-2.2,0.4-3.1c0-1.2-0.1-2.4-0.3-3.4c-0.2-1-0.5-1.9-1-2.6c-0.4-0.7-1-1.3-1.7-1.7c-0.7-0.4-1.6-0.6-2.6-0.6
			c-1.5,0-2.6,0.4-3.3,1.2c-0.8,0.8-1.3,1.8-1.5,3.1s-0.3,2.4-0.3,3.6c0,1.5,0.1,2.7,0.3,3.7s0.5,1.8,1,2.4c0.4,0.6,0.9,1.1,1.5,1.3
			C55.9,211.6,56.6,211.7,57.3,211.7z"/>
		<path d="M89.3,230.7c-2.2,0-4-0.3-5.5-0.8s-2.8-1.3-3.8-2.3c-1-1-1.8-2.3-2.4-3.7c-0.6-1.5-1-3.1-1.3-4.9l6.6-0.6
			c0.2,1.1,0.5,2.1,0.8,2.9c0.3,0.8,0.7,1.5,1.2,2c0.5,0.5,1,0.9,1.7,1.2c0.7,0.3,1.4,0.4,2.3,0.4c0.8,0,1.6-0.1,2.2-0.3
			s1.1-0.5,1.6-0.9c0.8-0.8,1.3-1.7,1.6-2.9c0.3-1.2,0.4-2.5,0.4-3.9c0-1.1-0.1-2.1-0.3-3.1c-0.2-0.9-0.6-1.7-1.2-2.2
			c-0.9-0.9-2.2-1.4-4-1.4c-1.3,0-2.8,0.3-4.7,1l-2.7-3.5L92,197.1H78v-6h22.2v5.4l-8,8.2c0.7,0.1,1.2,0.2,1.7,0.3
			c1.2,0.3,2.3,0.7,3.2,1.3c0.9,0.6,1.6,1.3,2.3,2.1c0.9,1.1,1.5,2.4,1.9,3.9c0.4,1.5,0.6,3,0.6,4.7c0,1.8-0.2,3.4-0.6,4.9
			c-0.4,1.5-0.9,2.7-1.6,3.7c-0.7,1-1.4,1.8-2.1,2.5c-1,0.8-2.1,1.4-3.4,1.9C92.6,230.5,91.1,230.7,89.3,230.7z"/>
	</g>
	<g>
		<path d="M619.8,117.7v-13h6.9v1.2h-5.5v4.5h5.2v1.2h-5.2v4.9h5.6v1.2H619.8z"/>
		<path d="M628.7,117.7v-9.1h1.3v2c0.2-0.5,0.5-1,0.9-1.3s0.7-0.5,1.1-0.6s0.6-0.1,0.9-0.1h0.2v1.3h-0.3c-0.5,0-1,0.1-1.3,0.4
			c-0.4,0.3-0.6,0.6-0.8,1s-0.3,0.8-0.4,1.2s-0.1,0.8-0.1,1.2v4.2H628.7z"/>
		<path d="M634.5,117.7v-8.1h-1.2v-1h1.2v-0.9c0-0.6,0.1-1.1,0.2-1.4s0.3-0.6,0.5-0.9c0.3-0.3,0.6-0.5,0.9-0.6s0.7-0.2,1.1-0.2
			c0.4,0,0.8,0,1,0.1v1.1c-0.2,0-0.5-0.1-0.8-0.1c-0.2,0-0.4,0-0.6,0.1s-0.4,0.2-0.6,0.4c-0.1,0.1-0.2,0.3-0.3,0.5
			c-0.1,0.2-0.1,0.5-0.1,1v0.8h2.1v1h-2.1v8.1H634.5z M639.1,106.3v-1.5h1.3v1.5H639.1z M639.1,117.7v-9.1h1.3v9.1H639.1z"/>
		<path d="M642.8,117.7v-9.1h1.3v1.3c0.4-0.6,0.8-1,1.3-1.2s1-0.4,1.6-0.4c0.5,0,1,0.1,1.4,0.3s0.7,0.6,0.9,1
			c0.2,0.4,0.3,0.9,0.3,1.4v6.7h-1.3v-6.2c0-0.7-0.1-1.2-0.4-1.5s-0.7-0.5-1.3-0.5c-0.4,0-0.7,0.1-1,0.2s-0.6,0.4-0.8,0.7
			c-0.2,0.3-0.4,0.6-0.5,0.9s-0.2,0.7-0.2,1v5.4H642.8z"/>
		<path d="M654.9,118c-0.3,0-0.6,0-0.8-0.1s-0.5-0.2-0.8-0.3c-0.2-0.2-0.5-0.4-0.7-0.6s-0.4-0.6-0.5-1c-0.1-0.4-0.2-0.8-0.3-1.2
			s-0.1-1-0.1-1.6c0-0.7,0.1-1.4,0.2-1.9s0.3-1,0.5-1.4c0.3-0.5,0.6-0.9,1.1-1.1c0.4-0.2,1-0.4,1.6-0.4c0.5,0,0.9,0.1,1.2,0.2
			s0.6,0.3,0.9,0.5c0.2,0.2,0.4,0.4,0.6,0.6v-4.8h1.3v13h-1.3v-1.2c-0.3,0.5-0.7,0.9-1.1,1.1S655.5,118,654.9,118z M655.3,116.9
			c0.5,0,1-0.1,1.3-0.4s0.6-0.6,0.8-1s0.2-0.8,0.2-1.2V112c0-0.6-0.1-1.1-0.4-1.5s-0.6-0.7-1-0.8s-0.7-0.2-1-0.2
			c-0.5,0-0.8,0.1-1.1,0.3c-0.3,0.2-0.5,0.4-0.6,0.7s-0.2,0.5-0.2,0.7c-0.1,0.3-0.1,0.6-0.2,1c0,0.3,0,0.7,0,1.1
			c0,0.4,0,0.8,0.1,1.2s0.1,0.6,0.1,0.8c0.1,0.3,0.1,0.5,0.3,0.7s0.3,0.4,0.4,0.6s0.4,0.3,0.6,0.4
			C654.7,116.9,655,116.9,655.3,116.9z"/>
		<path d="M663.9,118c-0.3,0-0.7,0-1-0.1s-0.6-0.2-0.8-0.5s-0.4-0.5-0.6-0.8s-0.2-0.8-0.2-1.3v-6.7h1.3v6.2c0,0.4,0,0.7,0.1,0.9
			c0.1,0.3,0.2,0.5,0.3,0.6s0.3,0.3,0.6,0.4s0.5,0.1,0.8,0.1c0.4,0,0.7-0.1,1-0.2s0.6-0.4,0.8-0.6c0.2-0.3,0.4-0.6,0.5-0.9
			s0.2-0.7,0.2-1v-5.4h1.3v9.1h-1.3v-1.3c-0.4,0.6-0.8,1-1.3,1.2S664.5,118,663.9,118z"/>
		<path d="M670.5,117.7v-9.1h1.3v1.3c0.4-0.6,0.8-1,1.3-1.2s1-0.4,1.6-0.4c0.5,0,1,0.1,1.4,0.3s0.7,0.6,0.9,1
			c0.2,0.4,0.3,0.9,0.3,1.4v6.7H676v-6.2c0-0.7-0.1-1.2-0.4-1.5s-0.7-0.5-1.3-0.5c-0.4,0-0.7,0.1-1,0.2s-0.6,0.4-0.8,0.7
			c-0.2,0.3-0.4,0.6-0.5,0.9s-0.2,0.7-0.2,1v5.4H670.5z"/>
		<path d="M683.1,121.6c-0.9,0-1.6-0.2-2.2-0.5s-1-0.8-1.2-1.4l1.1-0.4c0.2,0.4,0.5,0.7,0.9,0.9c0.4,0.2,0.9,0.3,1.4,0.3
			c0.3,0,0.7,0,1-0.1s0.6-0.2,0.8-0.4c0.2-0.2,0.3-0.4,0.3-0.6c0.1-0.2,0.1-0.6,0.1-1.1v-1.6c-0.3,0.3-0.6,0.6-0.9,0.8
			s-0.6,0.3-0.9,0.3s-0.6,0.1-0.9,0.1c-0.3,0-0.6,0-0.8-0.1s-0.5-0.2-0.8-0.3c-0.2-0.1-0.5-0.4-0.7-0.6s-0.4-0.6-0.5-1
			c-0.1-0.4-0.2-0.8-0.3-1.2s-0.1-1-0.1-1.6c0-0.7,0.1-1.3,0.2-1.9s0.3-1,0.5-1.4c0.3-0.5,0.6-0.9,1.1-1.1s1-0.4,1.6-0.4
			c0.6,0,1.2,0.1,1.6,0.3s0.8,0.6,1,1.1v-1.1h1.3v9.7c0,0.5-0.1,1-0.2,1.3s-0.3,0.7-0.5,1c-0.3,0.3-0.7,0.5-1.2,0.7
			S683.7,121.6,683.1,121.6z M683,116.8c0.5,0,1-0.1,1.3-0.4s0.6-0.6,0.8-1s0.2-0.8,0.2-1.2V112c0-0.6-0.1-1.1-0.4-1.5
			s-0.6-0.7-1-0.8s-0.7-0.2-1-0.2c-0.5,0-0.8,0.1-1.1,0.3c-0.3,0.2-0.5,0.4-0.6,0.7s-0.2,0.5-0.2,0.7c-0.1,0.3-0.1,0.6-0.2,0.9
			c0,0.3,0,0.7,0,1c0,0.4,0,0.7,0,1.1c0,0.3,0.1,0.6,0.1,0.9c0.1,0.3,0.1,0.5,0.3,0.7s0.3,0.4,0.4,0.6s0.4,0.3,0.6,0.4
			C682.5,116.7,682.7,116.8,683,116.8z"/>
		<path d="M692,118c-0.5,0-0.9-0.1-1.2-0.2s-0.7-0.2-1-0.4c-0.5-0.4-0.9-0.8-1.1-1.4l1.1-0.5c0.2,0.3,0.3,0.6,0.6,0.8
			s0.5,0.4,0.8,0.5c0.3,0.1,0.6,0.1,0.9,0.1c0.4,0,0.8-0.1,1.1-0.2c0.3-0.1,0.5-0.3,0.7-0.5s0.2-0.5,0.2-0.8c0-0.3-0.1-0.6-0.2-0.8
			s-0.4-0.4-0.7-0.5c-0.6-0.2-1-0.4-1.2-0.4c-0.2-0.1-0.4-0.1-0.5-0.2c-0.5-0.2-0.9-0.4-1.2-0.6s-0.6-0.4-0.7-0.6s-0.3-0.4-0.3-0.7
			c-0.1-0.2-0.1-0.5-0.1-0.7c0-0.2,0-0.4,0.1-0.6c0-0.2,0.1-0.5,0.2-0.7c0.2-0.3,0.4-0.5,0.6-0.7c0.3-0.2,0.6-0.4,1-0.5
			s0.8-0.1,1.2-0.1c0.7,0,1.4,0.1,1.9,0.4s0.9,0.7,1.2,1.3l-1,0.5c-0.1-0.3-0.3-0.5-0.4-0.6s-0.3-0.3-0.5-0.4s-0.3-0.2-0.5-0.2
			s-0.4-0.1-0.6-0.1c-0.3,0-0.6,0-0.9,0.1s-0.5,0.2-0.6,0.3c-0.1,0.1-0.2,0.3-0.3,0.4s-0.1,0.4-0.1,0.6c0,0.2,0.1,0.4,0.2,0.6
			s0.3,0.3,0.5,0.5c0.2,0.1,0.5,0.3,0.8,0.4c0.3,0.1,0.7,0.3,1.2,0.4c0.7,0.2,1.2,0.4,1.5,0.7c0.3,0.2,0.5,0.4,0.6,0.6
			c0.1,0.1,0.2,0.3,0.2,0.5s0.1,0.5,0.1,0.8c0,0.4-0.1,0.7-0.2,0.9s-0.3,0.5-0.4,0.7c-0.3,0.3-0.6,0.6-1.2,0.7S692.5,118,692,118z"
			/>
		<path d="M697.1,117.7v-9.1h1.3v1.3c0.2-0.4,0.5-0.7,0.9-1c0.3-0.2,0.7-0.4,1-0.5s0.7-0.1,0.9-0.1s0.5,0,0.8,0.1s0.5,0.1,0.7,0.3
			c0.2,0.1,0.4,0.3,0.5,0.5s0.3,0.5,0.4,0.8c0.3-0.4,0.6-0.8,0.9-1s0.7-0.4,1.1-0.5s0.7-0.1,0.9-0.1c0.6,0,1,0.1,1.4,0.3
			s0.7,0.5,0.8,1s0.2,0.9,0.2,1.4v6.7h-1.3v-6.2c0-0.6-0.1-1-0.2-1.3s-0.3-0.5-0.6-0.6c-0.3-0.1-0.5-0.1-0.8-0.1
			c-0.5,0-0.9,0.2-1.3,0.5c-0.4,0.4-0.7,0.7-0.8,1.2s-0.2,0.8-0.2,1.2v5.4h-1.3v-6.2c0-0.6-0.1-1-0.2-1.3s-0.3-0.5-0.6-0.6
			c-0.3-0.1-0.5-0.1-0.8-0.1c-0.5,0-0.9,0.2-1.3,0.5c-0.4,0.4-0.7,0.7-0.8,1.2s-0.2,0.8-0.2,1.2v5.4H697.1z"/>
		<path d="M714.6,118c-0.5,0-0.9-0.1-1.2-0.2c-0.4-0.1-0.7-0.3-1-0.4c-0.3-0.2-0.5-0.4-0.7-0.7s-0.3-0.5-0.4-0.8
			c-0.1-0.4-0.2-0.8-0.3-1.2s-0.1-0.9-0.1-1.4c0-0.7,0-1.3,0.1-1.9s0.2-1,0.4-1.4s0.4-0.7,0.6-0.9c0.3-0.3,0.6-0.5,1-0.7
			c0.4-0.2,0.9-0.3,1.5-0.3c0.5,0,1,0.1,1.4,0.2s0.7,0.3,1,0.6c0.4,0.4,0.7,0.9,0.8,1.5s0.2,1.3,0.2,2.2v0.8h-5.7v0.2
			c0,0.6,0.1,1.1,0.2,1.5c0.1,0.4,0.3,0.7,0.5,1c0.2,0.2,0.5,0.4,0.8,0.5s0.6,0.1,1,0.1c0.4,0,0.7-0.1,1-0.2
			c0.3-0.1,0.5-0.3,0.7-0.5s0.3-0.3,0.4-0.5l1,0.6c-0.2,0.4-0.5,0.7-0.8,0.9c-0.3,0.3-0.7,0.4-1.1,0.5S715,118,714.6,118z
			 M712.2,112.6h4.4c0-0.9-0.1-1.6-0.3-2.1c-0.2-0.5-0.5-0.8-0.8-0.9s-0.7-0.2-1-0.2c-0.3,0-0.6,0-0.9,0.1s-0.5,0.3-0.7,0.5
			c-0.2,0.2-0.4,0.6-0.5,1C712.3,111.4,712.2,111.9,712.2,112.6z"/>
		<path d="M719.9,117.7v-13h1.3v13H719.9z"/>
		<path d="M726.5,118c-0.3,0-0.6,0-0.8-0.1s-0.5-0.2-0.8-0.3c-0.2-0.2-0.5-0.4-0.7-0.6s-0.4-0.6-0.5-1c-0.1-0.4-0.2-0.8-0.3-1.2
			s-0.1-1-0.1-1.6c0-0.7,0.1-1.4,0.2-1.9s0.3-1,0.5-1.4c0.3-0.5,0.6-0.9,1.1-1.1c0.4-0.2,1-0.4,1.6-0.4c0.5,0,0.9,0.1,1.2,0.2
			s0.6,0.3,0.9,0.5c0.2,0.2,0.4,0.4,0.6,0.6v-4.8h1.3v13h-1.3v-1.2c-0.3,0.5-0.7,0.9-1.1,1.1S727.1,118,726.5,118z M726.9,116.9
			c0.5,0,1-0.1,1.3-0.4s0.6-0.6,0.8-1s0.2-0.8,0.2-1.2V112c0-0.6-0.1-1.1-0.4-1.5s-0.6-0.7-1-0.8s-0.7-0.2-1-0.2
			c-0.5,0-0.8,0.1-1.1,0.3c-0.3,0.2-0.5,0.4-0.6,0.7s-0.2,0.5-0.2,0.7c-0.1,0.3-0.1,0.6-0.2,1c0,0.3,0,0.7,0,1.1
			c0,0.4,0,0.8,0.1,1.2s0.1,0.6,0.1,0.8c0.1,0.3,0.1,0.5,0.3,0.7s0.3,0.4,0.4,0.6s0.4,0.3,0.6,0.4
			C726.3,116.9,726.6,116.9,726.9,116.9z"/>
		<path d="M735.5,118c-0.3,0-0.7,0-1-0.1s-0.6-0.2-0.8-0.5s-0.4-0.5-0.6-0.8s-0.2-0.8-0.2-1.3v-6.7h1.3v6.2c0,0.4,0,0.7,0.1,0.9
			c0.1,0.3,0.2,0.5,0.3,0.6s0.3,0.3,0.6,0.4s0.5,0.1,0.8,0.1c0.4,0,0.7-0.1,1-0.2s0.6-0.4,0.8-0.6c0.2-0.3,0.4-0.6,0.5-0.9
			s0.2-0.7,0.2-1v-5.4h1.3v9.1h-1.3v-1.3c-0.4,0.6-0.8,1-1.3,1.2S736.1,118,735.5,118z"/>
		<path d="M742.1,117.7v-9.1h1.3v1.3c0.4-0.6,0.8-1,1.3-1.2s1-0.4,1.6-0.4c0.5,0,1,0.1,1.4,0.3s0.7,0.6,0.9,1
			c0.2,0.4,0.3,0.9,0.3,1.4v6.7h-1.3v-6.2c0-0.7-0.1-1.2-0.4-1.5s-0.7-0.5-1.3-0.5c-0.4,0-0.7,0.1-1,0.2s-0.6,0.4-0.8,0.7
			c-0.2,0.3-0.4,0.6-0.5,0.9s-0.2,0.7-0.2,1v5.4H742.1z"/>
		<path d="M754.8,121.6c-0.9,0-1.6-0.2-2.2-0.5s-1-0.8-1.2-1.4l1.1-0.4c0.2,0.4,0.5,0.7,0.9,0.9c0.4,0.2,0.9,0.3,1.4,0.3
			c0.3,0,0.7,0,1-0.1s0.6-0.2,0.8-0.4c0.2-0.2,0.3-0.4,0.3-0.6c0.1-0.2,0.1-0.6,0.1-1.1v-1.6c-0.3,0.3-0.6,0.6-0.9,0.8
			s-0.6,0.3-0.9,0.3s-0.6,0.1-0.9,0.1c-0.3,0-0.6,0-0.8-0.1s-0.5-0.2-0.8-0.3c-0.2-0.1-0.5-0.4-0.7-0.6s-0.4-0.6-0.5-1
			c-0.1-0.4-0.2-0.8-0.3-1.2s-0.1-1-0.1-1.6c0-0.7,0.1-1.3,0.2-1.9s0.3-1,0.5-1.4c0.3-0.5,0.6-0.9,1.1-1.1s1-0.4,1.6-0.4
			c0.6,0,1.2,0.1,1.6,0.3s0.8,0.6,1,1.1v-1.1h1.3v9.7c0,0.5-0.1,1-0.2,1.3s-0.3,0.7-0.5,1c-0.3,0.3-0.7,0.5-1.2,0.7
			S755.3,121.6,754.8,121.6z M754.6,116.8c0.5,0,1-0.1,1.3-0.4s0.6-0.6,0.8-1s0.2-0.8,0.2-1.2V112c0-0.6-0.1-1.1-0.4-1.5
			s-0.6-0.7-1-0.8s-0.7-0.2-1-0.2c-0.5,0-0.8,0.1-1.1,0.3c-0.3,0.2-0.5,0.4-0.6,0.7s-0.2,0.5-0.2,0.7c-0.1,0.3-0.1,0.6-0.2,0.9
			c0,0.3,0,0.7,0,1c0,0.4,0,0.7,0,1.1c0,0.3,0.1,0.6,0.1,0.9c0.1,0.3,0.1,0.5,0.3,0.7s0.3,0.4,0.4,0.6s0.4,0.3,0.6,0.4
			C754.1,116.7,754.3,116.8,754.6,116.8z"/>
		<path d="M764,118c-0.5,0-0.9-0.1-1.2-0.2c-0.4-0.1-0.7-0.3-1-0.4c-0.3-0.2-0.5-0.4-0.7-0.7s-0.3-0.5-0.4-0.8
			c-0.1-0.4-0.2-0.8-0.3-1.2s-0.1-0.9-0.1-1.4c0-0.7,0-1.3,0.1-1.9s0.2-1,0.4-1.4s0.4-0.7,0.6-0.9c0.3-0.3,0.6-0.5,1-0.7
			c0.4-0.2,0.9-0.3,1.5-0.3c0.5,0,1,0.1,1.4,0.2s0.7,0.3,1,0.6c0.4,0.4,0.7,0.9,0.8,1.5s0.2,1.3,0.2,2.2v0.8h-5.7v0.2
			c0,0.6,0.1,1.1,0.2,1.5c0.1,0.4,0.3,0.7,0.5,1c0.2,0.2,0.5,0.4,0.8,0.5s0.6,0.1,1,0.1c0.4,0,0.7-0.1,1-0.2
			c0.3-0.1,0.5-0.3,0.7-0.5s0.3-0.3,0.4-0.5l1,0.6c-0.2,0.4-0.5,0.7-0.8,0.9c-0.3,0.3-0.7,0.4-1.1,0.5S764.5,118,764,118z
			 M761.7,112.6h4.4c0-0.9-0.1-1.6-0.3-2.1c-0.2-0.5-0.5-0.8-0.8-0.9s-0.7-0.2-1-0.2c-0.3,0-0.6,0-0.9,0.1s-0.5,0.3-0.7,0.5
			c-0.2,0.2-0.4,0.6-0.5,1C761.7,111.4,761.7,111.9,761.7,112.6z"/>
		<path d="M769.3,117.7v-9.1h1.3v1.3c0.4-0.6,0.8-1,1.3-1.2s1-0.4,1.6-0.4c0.5,0,1,0.1,1.4,0.3s0.7,0.6,0.9,1
			c0.2,0.4,0.3,0.9,0.3,1.4v6.7h-1.3v-6.2c0-0.7-0.1-1.2-0.4-1.5s-0.7-0.5-1.3-0.5c-0.4,0-0.7,0.1-1,0.2s-0.6,0.4-0.8,0.7
			c-0.2,0.3-0.4,0.6-0.5,0.9s-0.2,0.7-0.2,1v5.4H769.3z"/>
		<path d="M786.5,118c-0.5,0-0.9-0.1-1.2-0.2c-0.4-0.1-0.7-0.3-1-0.4c-0.3-0.2-0.5-0.4-0.7-0.7s-0.3-0.5-0.4-0.8
			c-0.1-0.4-0.2-0.8-0.3-1.2s-0.1-0.9-0.1-1.4c0-0.7,0-1.3,0.1-1.9s0.2-1,0.4-1.4s0.4-0.7,0.6-0.9c0.3-0.3,0.6-0.5,1-0.7
			c0.4-0.2,0.9-0.3,1.5-0.3c0.5,0,1,0.1,1.4,0.2s0.7,0.3,1,0.6c0.4,0.4,0.7,0.9,0.8,1.5s0.2,1.3,0.2,2.2v0.8h-5.7v0.2
			c0,0.6,0.1,1.1,0.2,1.5c0.1,0.4,0.3,0.7,0.5,1c0.2,0.2,0.5,0.4,0.8,0.5s0.6,0.1,1,0.1c0.4,0,0.7-0.1,1-0.2
			c0.3-0.1,0.5-0.3,0.7-0.5s0.3-0.3,0.4-0.5l1,0.6c-0.2,0.4-0.5,0.7-0.8,0.9c-0.3,0.3-0.7,0.4-1.1,0.5S787,118,786.5,118z
			 M784.2,112.6h4.4c0-0.9-0.1-1.6-0.3-2.1c-0.2-0.5-0.5-0.8-0.8-0.9s-0.7-0.2-1-0.2c-0.3,0-0.6,0-0.9,0.1s-0.5,0.3-0.7,0.5
			c-0.2,0.2-0.4,0.6-0.5,1C784.3,111.4,784.2,111.9,784.2,112.6z"/>
		<path d="M791.9,117.7v-9.1h1.3v2c0.2-0.5,0.5-1,0.9-1.3s0.7-0.5,1.1-0.6s0.6-0.1,0.9-0.1h0.2v1.3h-0.3c-0.5,0-1,0.1-1.3,0.4
			c-0.4,0.3-0.6,0.6-0.8,1s-0.3,0.8-0.4,1.2s-0.1,0.8-0.1,1.2v4.2H791.9z"/>
		<path d="M799.2,117.7l-2.6-9.1h1.3l1.9,7.4l1.9-7.4h1.3l1.9,7.4l1.9-7.4h1.2l-2.6,9.1h-1.2l-1.9-6.9l-1.9,6.9H799.2z"/>
		<path d="M811.8,118c-0.2,0-0.5,0-0.7-0.1s-0.4-0.1-0.6-0.2s-0.4-0.2-0.5-0.3c-0.2-0.1-0.3-0.3-0.4-0.4c-0.2-0.3-0.3-0.5-0.4-0.8
			s-0.2-0.7-0.2-1c0-0.3,0-0.7,0.1-0.9c0.1-0.3,0.2-0.5,0.4-0.7c0.3-0.4,0.6-0.6,1.1-0.8s1-0.3,1.7-0.3h2.3v-1.2
			c0-0.5-0.1-0.9-0.4-1.2s-0.5-0.5-0.8-0.5c-0.3-0.1-0.6-0.1-0.8-0.1c-0.6,0-1,0.1-1.4,0.3s-0.6,0.5-0.8,0.9l-1.1-0.4
			c0.2-0.6,0.6-1.1,1.2-1.4s1.3-0.5,2.2-0.5c0.6,0,1.1,0.1,1.5,0.2c0.4,0.1,0.8,0.4,1.1,0.7c0.2,0.3,0.4,0.6,0.5,0.9
			s0.1,0.7,0.1,1.1v6.5h-1.3v-0.9c-0.3,0.3-0.6,0.6-0.9,0.7s-0.6,0.3-1,0.4S812.1,118,811.8,118z M812.2,116.9
			c0.5,0,0.9-0.1,1.3-0.3s0.7-0.5,0.8-0.8s0.3-0.6,0.3-0.9v-1.5h-1.9c-0.4,0-0.8,0-1.1,0.1s-0.6,0.2-0.7,0.3s-0.3,0.3-0.4,0.6
			s-0.1,0.5-0.1,0.7c0,0.3,0,0.5,0.1,0.7s0.2,0.4,0.3,0.5C811,116.7,811.5,116.9,812.2,116.9z"/>
		<path d="M818.3,117.7v-9.1h1.3v2c0.2-0.5,0.5-1,0.9-1.3s0.7-0.5,1.1-0.6s0.6-0.1,0.9-0.1h0.2v1.3h-0.3c-0.5,0-1,0.1-1.3,0.4
			c-0.4,0.3-0.6,0.6-0.8,1s-0.3,0.8-0.4,1.2s-0.1,0.8-0.1,1.2v4.2H818.3z"/>
		<path d="M827,117.9c-0.5,0-1-0.1-1.3-0.2s-0.6-0.3-0.8-0.6c-0.2-0.3-0.3-0.6-0.4-0.9c-0.1-0.4-0.1-0.8-0.1-1.2v-5.3h-1.2v-1h1.2
			v-2.5h1.3v2.5h1.9v1h-1.9v5.3c0,0.3,0,0.6,0,0.8s0.1,0.4,0.2,0.6s0.2,0.3,0.4,0.4s0.4,0.1,0.8,0.1c0.2,0,0.4,0,0.6-0.1v1.1
			C827.5,117.9,827.2,117.9,827,117.9z"/>
		<path d="M832.4,118c-0.5,0-0.9-0.1-1.2-0.2c-0.4-0.1-0.7-0.3-1-0.4c-0.3-0.2-0.5-0.4-0.7-0.7s-0.3-0.5-0.4-0.8
			c-0.1-0.4-0.2-0.8-0.3-1.2s-0.1-0.9-0.1-1.4c0-0.7,0-1.3,0.1-1.9s0.2-1,0.4-1.4s0.4-0.7,0.6-0.9c0.3-0.3,0.6-0.5,1-0.7
			c0.4-0.2,0.9-0.3,1.5-0.3c0.5,0,1,0.1,1.4,0.2s0.7,0.3,1,0.6c0.4,0.4,0.7,0.9,0.8,1.5s0.2,1.3,0.2,2.2v0.8h-5.7v0.2
			c0,0.6,0.1,1.1,0.2,1.5c0.1,0.4,0.3,0.7,0.5,1c0.2,0.2,0.5,0.4,0.8,0.5s0.6,0.1,1,0.1c0.4,0,0.7-0.1,1-0.2
			c0.3-0.1,0.5-0.3,0.7-0.5s0.3-0.3,0.4-0.5l1,0.6c-0.2,0.4-0.5,0.7-0.8,0.9c-0.3,0.3-0.7,0.4-1.1,0.5S832.9,118,832.4,118z
			 M830.1,112.6h4.4c0-0.9-0.1-1.6-0.3-2.1c-0.2-0.5-0.5-0.8-0.8-0.9s-0.7-0.2-1-0.2c-0.3,0-0.6,0-0.9,0.1s-0.5,0.3-0.7,0.5
			c-0.2,0.2-0.4,0.6-0.5,1C830.2,111.4,830.1,111.9,830.1,112.6z"/>
		<path d="M840.5,117.9c-0.5,0-1-0.1-1.3-0.2s-0.6-0.3-0.8-0.6c-0.2-0.3-0.3-0.6-0.4-0.9c-0.1-0.4-0.1-0.8-0.1-1.2v-5.3h-1.2v-1h1.2
			v-2.5h1.3v2.5h1.9v1h-1.9v5.3c0,0.3,0,0.6,0,0.8s0.1,0.4,0.2,0.6s0.2,0.3,0.4,0.4s0.4,0.1,0.8,0.1c0.2,0,0.4,0,0.6-0.1v1.1
			C841,117.9,840.8,117.9,840.5,117.9z"/>
		<path d="M632.6,137.7v-8.1h-1.2v-1h1.2v-0.9c0-0.6,0.1-1.1,0.2-1.4s0.3-0.6,0.5-0.9c0.3-0.3,0.6-0.5,0.9-0.6s0.7-0.2,1.1-0.2
			c0.4,0,0.8,0,1,0.1v1.1c-0.2,0-0.5-0.1-0.8-0.1c-0.2,0-0.4,0-0.6,0.1s-0.4,0.2-0.6,0.4c-0.1,0.1-0.2,0.3-0.3,0.5
			c-0.1,0.2-0.1,0.5-0.1,1v0.8h2.1v1h-2.1v8.1H632.6z"/>
		<path d="M639.9,138c-0.3,0-0.7,0-1-0.1s-0.6-0.2-0.8-0.5s-0.4-0.5-0.6-0.8s-0.2-0.8-0.2-1.3v-6.7h1.3v6.2c0,0.4,0,0.7,0.1,0.9
			c0.1,0.3,0.2,0.5,0.3,0.6s0.3,0.3,0.6,0.4s0.5,0.1,0.8,0.1c0.4,0,0.7-0.1,1-0.2s0.6-0.4,0.8-0.6c0.2-0.3,0.4-0.6,0.5-0.9
			s0.2-0.7,0.2-1v-5.4h1.3v9.1h-1.3v-1.3c-0.4,0.6-0.8,1-1.3,1.2S640.5,138,639.9,138z M638.6,127v-1.5h1.3v1.5H638.6z M641.3,127
			v-1.5h1.3v1.5H641.3z"/>
		<path d="M646.5,137.7v-9.1h1.3v2c0.2-0.5,0.5-1,0.9-1.3s0.7-0.5,1.1-0.6s0.6-0.1,0.9-0.1h0.2v1.3h-0.3c-0.5,0-1,0.1-1.3,0.4
			c-0.4,0.3-0.6,0.6-0.8,1s-0.3,0.8-0.4,1.2s-0.1,0.8-0.1,1.2v4.2H646.5z"/>
		<path d="M661.3,138c-0.6,0-1.2-0.1-1.6-0.2s-0.9-0.4-1.2-0.7s-0.6-0.6-0.8-1s-0.4-0.8-0.6-1.3c-0.2-0.5-0.3-1.1-0.3-1.7
			s-0.1-1.2-0.1-1.9c0-0.8,0-1.5,0.1-2.1s0.2-1.1,0.3-1.5c0.2-0.7,0.5-1.3,1-1.8s0.9-0.8,1.5-1s1.2-0.3,1.8-0.3c1,0,1.9,0.2,2.5,0.7
			c0.6,0.4,1.1,1.1,1.3,1.9l-1.4,0.5c-0.1-0.3-0.2-0.6-0.4-0.8s-0.3-0.4-0.4-0.6c-0.2-0.2-0.5-0.3-0.7-0.4c-0.3-0.1-0.6-0.1-0.9-0.1
			c-0.5,0-0.9,0.1-1.3,0.2s-0.7,0.4-0.9,0.6s-0.4,0.5-0.5,0.8c-0.3,0.8-0.4,1.4-0.5,1.9s-0.1,1.2-0.1,1.9c0,0.7,0,1.4,0.1,1.9
			s0.1,0.9,0.2,1.2s0.2,0.5,0.3,0.8c0.2,0.6,0.6,1,1,1.3s1,0.4,1.6,0.4c0.5,0,1-0.1,1.4-0.3c0.4-0.2,0.7-0.5,0.9-0.9
			s0.3-0.8,0.3-1.3v-1.6h-2.6v-1.2h4v6.2h-1.2l0-0.9c-0.3,0.4-0.7,0.6-1.2,0.9C662.4,137.9,661.9,138,661.3,138z"/>
		<path d="M670.9,138c-0.5,0-0.9-0.1-1.2-0.2c-0.4-0.1-0.7-0.3-1-0.4c-0.3-0.2-0.5-0.4-0.7-0.7s-0.3-0.5-0.4-0.8
			c-0.1-0.4-0.2-0.8-0.3-1.2s-0.1-0.9-0.1-1.4c0-0.7,0-1.3,0.1-1.9s0.2-1,0.4-1.4s0.4-0.7,0.6-0.9c0.3-0.3,0.6-0.5,1-0.7
			c0.4-0.2,0.9-0.3,1.5-0.3c0.5,0,1,0.1,1.4,0.2s0.7,0.3,1,0.6c0.4,0.4,0.7,0.9,0.8,1.5s0.2,1.3,0.2,2.2v0.8h-5.7v0.2
			c0,0.6,0.1,1.1,0.2,1.5c0.1,0.4,0.3,0.7,0.5,1c0.2,0.2,0.5,0.4,0.8,0.5s0.6,0.1,1,0.1c0.4,0,0.7-0.1,1-0.2
			c0.3-0.1,0.5-0.3,0.7-0.5s0.3-0.3,0.4-0.5l1,0.6c-0.2,0.4-0.5,0.7-0.8,0.9c-0.3,0.3-0.7,0.4-1.1,0.5S671.3,138,670.9,138z
			 M668.5,132.6h4.4c0-0.9-0.1-1.6-0.3-2.1c-0.2-0.5-0.5-0.8-0.8-0.9s-0.7-0.2-1-0.2c-0.3,0-0.6,0-0.9,0.1s-0.5,0.3-0.7,0.5
			c-0.2,0.2-0.4,0.6-0.5,1C668.6,131.4,668.5,131.9,668.5,132.6z"/>
		<path d="M679.1,138c-0.5,0-0.9-0.1-1.2-0.2s-0.7-0.2-1-0.4c-0.5-0.4-0.9-0.8-1.1-1.4l1.1-0.5c0.2,0.3,0.3,0.6,0.6,0.8
			s0.5,0.4,0.8,0.5c0.3,0.1,0.6,0.1,0.9,0.1c0.4,0,0.8-0.1,1.1-0.2c0.3-0.1,0.5-0.3,0.7-0.5s0.2-0.5,0.2-0.8c0-0.3-0.1-0.6-0.2-0.8
			s-0.4-0.4-0.7-0.5c-0.6-0.2-1-0.4-1.2-0.4c-0.2-0.1-0.4-0.1-0.5-0.2c-0.5-0.2-0.9-0.4-1.2-0.6s-0.6-0.4-0.7-0.6s-0.3-0.4-0.3-0.7
			c-0.1-0.2-0.1-0.5-0.1-0.7c0-0.2,0-0.4,0.1-0.6c0-0.2,0.1-0.5,0.2-0.7c0.2-0.3,0.4-0.5,0.6-0.7c0.3-0.2,0.6-0.4,1-0.5
			s0.8-0.1,1.2-0.1c0.7,0,1.4,0.1,1.9,0.4s0.9,0.7,1.2,1.3l-1,0.5c-0.1-0.3-0.3-0.5-0.4-0.6s-0.3-0.3-0.5-0.4s-0.3-0.2-0.5-0.2
			s-0.4-0.1-0.6-0.1c-0.3,0-0.6,0-0.9,0.1s-0.5,0.2-0.6,0.3c-0.1,0.1-0.2,0.3-0.3,0.4s-0.1,0.4-0.1,0.6c0,0.2,0.1,0.4,0.2,0.6
			s0.3,0.3,0.5,0.5c0.2,0.1,0.5,0.3,0.8,0.4c0.3,0.1,0.7,0.3,1.2,0.4c0.7,0.2,1.2,0.4,1.5,0.7c0.3,0.2,0.5,0.4,0.6,0.6
			c0.1,0.1,0.2,0.3,0.2,0.5s0.1,0.5,0.1,0.8c0,0.4-0.1,0.7-0.2,0.9s-0.3,0.5-0.4,0.7c-0.3,0.3-0.6,0.6-1.2,0.7S679.6,138,679.1,138z
			"/>
		<path d="M687.6,138c-0.5,0-0.9-0.1-1.3-0.2s-0.7-0.3-1-0.5c-0.3-0.2-0.5-0.4-0.7-0.7s-0.3-0.6-0.4-0.9c-0.1-0.4-0.2-0.8-0.3-1.3
			s-0.1-0.9-0.1-1.3s0-0.8,0.1-1.3s0.1-0.9,0.3-1.3c0.2-0.6,0.5-1,0.8-1.4s0.7-0.6,1.2-0.7s0.9-0.2,1.4-0.2c0.6,0,1.1,0.1,1.6,0.3
			c0.4,0.2,0.8,0.5,1,0.8s0.4,0.7,0.5,1l-1.2,0.4c-0.1-0.3-0.2-0.5-0.3-0.7s-0.3-0.3-0.4-0.5s-0.3-0.2-0.5-0.3s-0.4-0.1-0.7-0.1
			c-0.4,0-0.8,0.1-1.1,0.3s-0.6,0.5-0.7,0.9c-0.2,0.4-0.3,0.8-0.3,1.1s-0.1,0.8-0.1,1.4c0,0.8,0,1.3,0.1,1.6
			c0.1,0.3,0.2,0.6,0.3,0.9c0.2,0.4,0.4,0.8,0.8,1s0.7,0.3,1.2,0.3c0.4,0,0.8-0.1,1.2-0.3s0.6-0.6,0.8-1.1l1.1,0.4
			c-0.2,0.5-0.5,0.9-0.8,1.3s-0.7,0.6-1.1,0.7S688,138,687.6,138z"/>
		<path d="M692.2,137.7v-13h1.3v5.1c0.4-0.6,0.8-1,1.3-1.2s1-0.4,1.6-0.4c0.5,0,1,0.1,1.4,0.3s0.7,0.6,0.9,1
			c0.2,0.4,0.3,0.9,0.3,1.4v6.7h-1.3v-6.2c0-0.7-0.1-1.2-0.4-1.5s-0.7-0.5-1.3-0.5c-0.4,0-0.7,0.1-1,0.2s-0.6,0.4-0.8,0.7
			c-0.2,0.3-0.4,0.6-0.5,0.9s-0.2,0.7-0.2,1v5.4H692.2z"/>
		<path d="M703.9,138c-0.2,0-0.5,0-0.7-0.1s-0.4-0.1-0.6-0.2s-0.4-0.2-0.5-0.3c-0.2-0.1-0.3-0.3-0.4-0.4c-0.2-0.3-0.3-0.5-0.4-0.8
			s-0.2-0.7-0.2-1c0-0.3,0-0.7,0.1-0.9c0.1-0.3,0.2-0.5,0.4-0.7c0.3-0.4,0.6-0.6,1.1-0.8s1-0.3,1.7-0.3h2.3v-1.2
			c0-0.5-0.1-0.9-0.4-1.2s-0.5-0.5-0.8-0.5c-0.3-0.1-0.6-0.1-0.8-0.1c-0.6,0-1,0.1-1.4,0.3s-0.6,0.5-0.8,0.9l-1.1-0.4
			c0.2-0.6,0.6-1.1,1.2-1.4s1.3-0.5,2.2-0.5c0.6,0,1.1,0.1,1.5,0.2c0.4,0.1,0.8,0.4,1.1,0.7c0.2,0.3,0.4,0.6,0.5,0.9
			s0.1,0.7,0.1,1.1v6.5h-1.3v-0.9c-0.3,0.3-0.6,0.6-0.9,0.7s-0.6,0.3-1,0.4S704.1,138,703.9,138z M704.3,136.9
			c0.5,0,0.9-0.1,1.3-0.3s0.7-0.5,0.8-0.8s0.3-0.6,0.3-0.9v-1.5h-1.9c-0.4,0-0.8,0-1.1,0.1s-0.6,0.2-0.7,0.3s-0.3,0.3-0.4,0.6
			s-0.1,0.5-0.1,0.7c0,0.3,0,0.5,0.1,0.7s0.2,0.4,0.3,0.5C703,136.7,703.6,136.9,704.3,136.9z M702.9,127v-1.5h1.3v1.5H702.9z
			 M705.6,127v-1.5h1.3v1.5H705.6z"/>
		<path d="M710.5,137.7v-8.1h-1.2v-1h1.2v-0.9c0-0.6,0.1-1.1,0.2-1.4s0.3-0.6,0.5-0.9c0.3-0.3,0.6-0.5,0.9-0.6s0.7-0.2,1.1-0.2
			c0.4,0,0.8,0,1,0.1v1.1c-0.2,0-0.5-0.1-0.8-0.1c-0.2,0-0.4,0-0.6,0.1s-0.4,0.2-0.6,0.4c-0.1,0.1-0.2,0.3-0.3,0.5
			c-0.1,0.2-0.1,0.5-0.1,1v0.8h2.1v1h-2.1v8.1H710.5z"/>
		<path d="M718.2,137.9c-0.5,0-1-0.1-1.3-0.2s-0.6-0.3-0.8-0.6c-0.2-0.3-0.3-0.6-0.4-0.9c-0.1-0.4-0.1-0.8-0.1-1.2v-5.3h-1.2v-1h1.2
			v-2.5h1.3v2.5h1.9v1h-1.9v5.3c0,0.3,0,0.6,0,0.8s0.1,0.4,0.2,0.6s0.2,0.3,0.4,0.4s0.4,0.1,0.8,0.1c0.2,0,0.4,0,0.6-0.1v1.1
			C718.7,137.9,718.5,137.9,718.2,137.9z"/>
		<path d="M723.3,138c-0.5,0-0.9-0.1-1.2-0.2s-0.7-0.2-1-0.4c-0.5-0.4-0.9-0.8-1.1-1.4l1.1-0.5c0.2,0.3,0.3,0.6,0.6,0.8
			s0.5,0.4,0.8,0.5c0.3,0.1,0.6,0.1,0.9,0.1c0.4,0,0.8-0.1,1.1-0.2c0.3-0.1,0.5-0.3,0.7-0.5s0.2-0.5,0.2-0.8c0-0.3-0.1-0.6-0.2-0.8
			s-0.4-0.4-0.7-0.5c-0.6-0.2-1-0.4-1.2-0.4c-0.2-0.1-0.4-0.1-0.5-0.2c-0.5-0.2-0.9-0.4-1.2-0.6s-0.6-0.4-0.7-0.6s-0.3-0.4-0.3-0.7
			c-0.1-0.2-0.1-0.5-0.1-0.7c0-0.2,0-0.4,0.1-0.6c0-0.2,0.1-0.5,0.2-0.7c0.2-0.3,0.4-0.5,0.6-0.7c0.3-0.2,0.6-0.4,1-0.5
			s0.8-0.1,1.2-0.1c0.7,0,1.4,0.1,1.9,0.4s0.9,0.7,1.2,1.3l-1,0.5c-0.1-0.3-0.3-0.5-0.4-0.6s-0.3-0.3-0.5-0.4s-0.3-0.2-0.5-0.2
			s-0.4-0.1-0.6-0.1c-0.3,0-0.6,0-0.9,0.1s-0.5,0.2-0.6,0.3c-0.1,0.1-0.2,0.3-0.3,0.4s-0.1,0.4-0.1,0.6c0,0.2,0.1,0.4,0.2,0.6
			s0.3,0.3,0.5,0.5c0.2,0.1,0.5,0.3,0.8,0.4c0.3,0.1,0.7,0.3,1.2,0.4c0.7,0.2,1.2,0.4,1.5,0.7c0.3,0.2,0.5,0.4,0.6,0.6
			c0.1,0.1,0.2,0.3,0.2,0.5s0.1,0.5,0.1,0.8c0,0.4-0.1,0.7-0.2,0.9s-0.3,0.5-0.4,0.7c-0.3,0.3-0.6,0.6-1.2,0.7S723.7,138,723.3,138z
			"/>
		<path d="M727.1,141.2c-0.1,0-0.1,0-0.2,0s-0.1,0-0.2,0v-1.1c0.1,0,0.1,0,0.1,0c0,0,0.1,0,0.1,0c0.5,0,0.8-0.1,1-0.3
			s0.3-0.4,0.4-0.7c0.1-0.3,0.1-0.5,0.1-0.8v-9.8h1.3v9.9c0,0.4,0,0.8-0.1,1.1s-0.2,0.6-0.5,0.8c-0.2,0.2-0.5,0.4-0.8,0.5
			S727.6,141.2,727.1,141.2z M728.4,126.3v-1.5h1.3v1.5H728.4z"/>
		<path d="M734.6,138c-0.2,0-0.5,0-0.7-0.1s-0.4-0.1-0.6-0.2s-0.4-0.2-0.5-0.3c-0.2-0.1-0.3-0.3-0.4-0.4c-0.2-0.3-0.3-0.5-0.4-0.8
			s-0.2-0.7-0.2-1c0-0.3,0-0.7,0.1-0.9c0.1-0.3,0.2-0.5,0.4-0.7c0.3-0.4,0.6-0.6,1.1-0.8s1-0.3,1.7-0.3h2.3v-1.2
			c0-0.5-0.1-0.9-0.4-1.2s-0.5-0.5-0.8-0.5c-0.3-0.1-0.6-0.1-0.8-0.1c-0.6,0-1,0.1-1.4,0.3s-0.6,0.5-0.8,0.9l-1.1-0.4
			c0.2-0.6,0.6-1.1,1.2-1.4s1.3-0.5,2.2-0.5c0.6,0,1.1,0.1,1.5,0.2c0.4,0.1,0.8,0.4,1.1,0.7c0.2,0.3,0.4,0.6,0.5,0.9
			s0.1,0.7,0.1,1.1v6.5h-1.3v-0.9c-0.3,0.3-0.6,0.6-0.9,0.7s-0.6,0.3-1,0.4S734.9,138,734.6,138z M735,136.9c0.5,0,0.9-0.1,1.3-0.3
			s0.7-0.5,0.8-0.8s0.3-0.6,0.3-0.9v-1.5h-1.9c-0.4,0-0.8,0-1.1,0.1s-0.6,0.2-0.7,0.3s-0.3,0.3-0.4,0.6s-0.1,0.5-0.1,0.7
			c0,0.3,0,0.5,0.1,0.7s0.2,0.4,0.3,0.5C733.8,136.7,734.3,136.9,735,136.9z"/>
		<path d="M741,137.7v-13h1.3v5.1c0.4-0.6,0.8-1,1.3-1.2s1-0.4,1.6-0.4c0.5,0,1,0.1,1.4,0.3s0.7,0.6,0.9,1c0.2,0.4,0.3,0.9,0.3,1.4
			v6.7h-1.3v-6.2c0-0.7-0.1-1.2-0.4-1.5s-0.7-0.5-1.3-0.5c-0.4,0-0.7,0.1-1,0.2s-0.6,0.4-0.8,0.7c-0.2,0.3-0.4,0.6-0.5,0.9
			s-0.2,0.7-0.2,1v5.4H741z"/>
		<path d="M750.2,137.7v-9.1h1.3v2c0.2-0.5,0.5-1,0.9-1.3s0.7-0.5,1.1-0.6s0.6-0.1,0.9-0.1h0.2v1.3h-0.3c-0.5,0-1,0.1-1.3,0.4
			c-0.4,0.3-0.6,0.6-0.8,1s-0.3,0.8-0.4,1.2s-0.1,0.8-0.1,1.2v4.2H750.2z"/>
		<path d="M760.3,137.7v-0.9l3.6-4.1c0.7-0.8,1.3-1.6,1.6-2.2s0.6-1.1,0.6-1.4s0.1-0.7,0.1-1.1c0-0.7-0.2-1.2-0.6-1.6
			s-0.9-0.6-1.7-0.6c-0.4,0-0.7,0.1-1,0.2s-0.5,0.3-0.7,0.5c-0.4,0.4-0.7,1.1-0.8,1.9l-1.3-0.3c0.1-0.5,0.2-0.9,0.3-1.3
			c0.2-0.4,0.4-0.7,0.7-1c0.4-0.4,0.8-0.6,1.3-0.8s1-0.2,1.6-0.2c0.6,0,1.2,0.1,1.6,0.3c0.4,0.2,0.8,0.4,1.1,0.7s0.5,0.6,0.6,1
			s0.2,0.8,0.2,1.2c0,0.6-0.1,1.2-0.3,1.7c-0.2,0.6-0.6,1.2-1,1.8c-0.5,0.6-1,1.3-1.6,1.9l-2.9,3.1h5.8v1.1H760.3z"/>
		<path d="M773.7,138c-0.6,0-1.1-0.1-1.6-0.2c-0.4-0.2-0.8-0.4-1.1-0.7c-0.4-0.4-0.7-0.9-0.9-1.6c-0.2-0.7-0.3-1.3-0.4-2.1
			c0-0.7-0.1-1.4-0.1-2c0-1,0-2,0.1-2.7c0.1-0.8,0.2-1.4,0.5-1.8c0.2-0.5,0.5-0.8,0.7-1.1c0.3-0.3,0.7-0.5,1.1-0.7
			c0.4-0.2,1-0.2,1.6-0.2s1.1,0.1,1.6,0.2s0.8,0.4,1.1,0.7c0.4,0.4,0.7,0.9,0.9,1.6s0.3,1.3,0.4,2.1s0.1,1.4,0.1,2
			c0,1.1,0,2-0.1,2.7c-0.1,0.7-0.2,1.3-0.5,1.8s-0.5,0.9-0.7,1.1c-0.3,0.3-0.7,0.5-1.1,0.7S774.3,138,773.7,138z M773.7,136.9
			c0.3,0,0.6,0,0.9-0.1c0.3-0.1,0.5-0.2,0.7-0.4c0.3-0.3,0.5-0.7,0.6-1.2s0.3-1.1,0.3-1.8c0-0.7,0.1-1.3,0.1-2c0-1.1,0-1.9-0.1-2.6
			c-0.1-0.7-0.2-1.2-0.4-1.6s-0.3-0.6-0.5-0.8c-0.2-0.2-0.4-0.3-0.7-0.4c-0.3-0.1-0.5-0.1-0.9-0.1c-0.3,0-0.6,0-0.9,0.1
			s-0.5,0.2-0.7,0.4c-0.3,0.3-0.5,0.7-0.6,1.2c-0.2,0.5-0.3,1.1-0.3,1.8c0,0.7-0.1,1.4-0.1,2c0,1.1,0,2,0.1,2.6s0.2,1.2,0.4,1.5
			s0.3,0.6,0.5,0.8c0.2,0.2,0.4,0.3,0.7,0.4S773.4,136.9,773.7,136.9z"/>
		<path d="M781.1,137.7v-1.1h2v-10.1l-1.9,1.2l-0.6-1l2.9-1.8h1v11.7h1.9v1.1H781.1z"/>
		<path d="M792.6,138c-0.7,0-1.2-0.1-1.7-0.2s-0.8-0.4-1.1-0.7c-0.3-0.3-0.5-0.6-0.7-1s-0.3-0.8-0.4-1.3l1.2-0.1
			c0.2,0.8,0.4,1.4,0.8,1.7c0.4,0.4,1,0.5,1.7,0.5c0.3,0,0.6,0,0.9-0.1c0.3-0.1,0.5-0.2,0.7-0.4c0.4-0.4,0.6-0.8,0.7-1.2
			c0.1-0.5,0.2-1,0.2-1.6c0-0.5-0.1-0.9-0.2-1.3s-0.3-0.7-0.5-1c-0.2-0.2-0.5-0.4-0.9-0.5s-0.6-0.1-0.8-0.1c-0.5,0-0.9,0.1-1.4,0.3
			l-0.5-0.7l4-4.1h-5.4v-1.1h6.8v1.1l-3.4,3.6c0.1,0,0.3-0.1,0.7-0.1c0.5,0,0.9,0.1,1.3,0.3s0.7,0.4,0.9,0.6
			c0.3,0.3,0.5,0.6,0.6,0.9s0.2,0.7,0.3,1.1s0.1,0.8,0.1,1.2c0,0.5-0.1,1-0.2,1.5s-0.3,0.9-0.5,1.2c-0.2,0.3-0.4,0.6-0.7,0.8
			c-0.3,0.3-0.7,0.5-1.1,0.7C793.6,138,793.1,138,792.6,138z"/>
		<path d="M797.8,137.7l4-13h1.1l-4,13H797.8z"/>
		<path d="M804,137.7v-0.9l3.6-4.1c0.7-0.8,1.3-1.6,1.6-2.2s0.6-1.1,0.6-1.4s0.1-0.7,0.1-1.1c0-0.7-0.2-1.2-0.6-1.6
			s-0.9-0.6-1.7-0.6c-0.4,0-0.7,0.1-1,0.2s-0.5,0.3-0.7,0.5c-0.4,0.4-0.7,1.1-0.8,1.9l-1.3-0.3c0.1-0.5,0.2-0.9,0.3-1.3
			c0.2-0.4,0.4-0.7,0.7-1c0.4-0.4,0.8-0.6,1.3-0.8s1-0.2,1.6-0.2c0.6,0,1.2,0.1,1.6,0.3c0.4,0.2,0.8,0.4,1.1,0.7s0.5,0.6,0.6,1
			s0.2,0.8,0.2,1.2c0,0.6-0.1,1.2-0.3,1.7c-0.2,0.6-0.6,1.2-1,1.8c-0.5,0.6-1,1.3-1.6,1.9l-2.9,3.1h5.8v1.1H804z"/>
		<path d="M817.5,138c-0.6,0-1.1-0.1-1.6-0.2c-0.4-0.2-0.8-0.4-1.1-0.7c-0.4-0.4-0.7-0.9-0.9-1.6c-0.2-0.7-0.3-1.3-0.4-2.1
			c0-0.7-0.1-1.4-0.1-2c0-1,0-2,0.1-2.7c0.1-0.8,0.2-1.4,0.5-1.8c0.2-0.5,0.5-0.8,0.7-1.1c0.3-0.3,0.7-0.5,1.1-0.7
			c0.4-0.2,1-0.2,1.6-0.2s1.1,0.1,1.6,0.2s0.8,0.4,1.1,0.7c0.4,0.4,0.7,0.9,0.9,1.6s0.3,1.3,0.4,2.1s0.1,1.4,0.1,2
			c0,1.1,0,2-0.1,2.7c-0.1,0.7-0.2,1.3-0.5,1.8s-0.5,0.9-0.7,1.1c-0.3,0.3-0.7,0.5-1.1,0.7S818.1,138,817.5,138z M817.5,136.9
			c0.3,0,0.6,0,0.9-0.1c0.3-0.1,0.5-0.2,0.7-0.4c0.3-0.3,0.5-0.7,0.6-1.2s0.3-1.1,0.3-1.8c0-0.7,0.1-1.3,0.1-2c0-1.1,0-1.9-0.1-2.6
			c-0.1-0.7-0.2-1.2-0.4-1.6s-0.3-0.6-0.5-0.8c-0.2-0.2-0.4-0.3-0.7-0.4c-0.3-0.1-0.5-0.1-0.9-0.1c-0.3,0-0.6,0-0.9,0.1
			s-0.5,0.2-0.7,0.4c-0.3,0.3-0.5,0.7-0.6,1.2c-0.2,0.5-0.3,1.1-0.3,1.8c0,0.7-0.1,1.4-0.1,2c0,1.1,0,2,0.1,2.6s0.2,1.2,0.4,1.5
			s0.3,0.6,0.5,0.8c0.2,0.2,0.4,0.3,0.7,0.4S817.2,136.9,817.5,136.9z"/>
		<path d="M824.9,137.7v-1.1h2v-10.1l-1.9,1.2l-0.6-1l2.9-1.8h1v11.7h1.9v1.1H824.9z"/>
		<path d="M838,137.7V135h-5.2v-1l5.2-9h1.2v8.9h1.3v1.1h-1.3v2.8H838z M834,133.9h4v-6.8L834,133.9z"/>
	</g>
	<g>
		<path d="M20.4,138.8v-5.7h6.1v-25.2l-6.1,3.5l-3-5l11.2-6.8h4.8v33.5h5.8v5.7H20.4z"/>
		<path d="M59.2,139.7c-2.2,0-4-0.3-5.5-0.8s-2.8-1.3-3.8-2.3c-1-1-1.8-2.3-2.4-3.7c-0.6-1.5-1-3.1-1.3-4.9l6.6-0.6
			c0.2,1.1,0.5,2.1,0.8,2.9c0.3,0.8,0.7,1.5,1.2,2c0.5,0.5,1,0.9,1.7,1.2c0.7,0.3,1.4,0.4,2.3,0.4c0.8,0,1.6-0.1,2.2-0.3
			s1.1-0.5,1.6-0.9c0.8-0.8,1.3-1.7,1.6-2.9c0.3-1.2,0.4-2.5,0.4-3.9c0-1.1-0.1-2.1-0.3-3.1c-0.2-0.9-0.6-1.7-1.2-2.2
			c-0.9-0.9-2.2-1.4-4-1.4c-1.3,0-2.8,0.3-4.7,1l-2.7-3.5l10.4-10.4h-14v-6H70v5.4l-8,8.2c0.7,0.1,1.2,0.2,1.7,0.3
			c1.2,0.3,2.3,0.7,3.2,1.3c0.9,0.6,1.6,1.3,2.3,2.1c0.9,1.1,1.5,2.4,1.9,3.9c0.4,1.5,0.6,3,0.6,4.7c0,1.8-0.2,3.4-0.6,4.9
			c-0.4,1.5-0.9,2.7-1.6,3.7c-0.7,1-1.4,1.8-2.1,2.5c-1,0.8-2.1,1.4-3.4,1.9C62.5,139.5,60.9,139.7,59.2,139.7z"/>
		<path d="M90.4,139.7c-2,0-3.6-0.2-5-0.7s-2.6-1.1-3.5-2c-1.1-0.9-2-2.1-2.6-3.4c-0.6-1.3-1.1-2.8-1.4-4.3
			c-0.3-1.5-0.5-3.2-0.5-4.8c-0.1-1.7-0.1-3.3-0.1-5c0-1.6,0-3.3,0.1-5c0.1-1.7,0.2-3.3,0.5-4.8c0.3-1.5,0.7-3,1.4-4.3
			c0.6-1.3,1.5-2.5,2.6-3.4c1-0.8,2.1-1.5,3.5-2c1.4-0.5,3.1-0.7,5-0.7c1.9,0,3.6,0.2,5,0.7c1.4,0.5,2.6,1.1,3.5,2
			c1.5,1.3,2.6,3.1,3.3,5.2c0.7,2.1,1.1,4.3,1.2,6.6c0.1,2.2,0.1,4.2,0.1,5.8c0,3.4-0.1,6.1-0.3,8.2c-0.2,2.1-0.7,3.9-1.5,5.6
			s-1.7,2.9-2.8,3.8c-1,0.8-2.1,1.5-3.5,2S92.3,139.7,90.4,139.7z M90.4,133.8c0.9,0,1.6-0.1,2.1-0.3c0.5-0.2,1-0.5,1.3-0.8
			c0.6-0.6,1.2-1.5,1.5-2.8c0.4-1.2,0.6-2.8,0.8-4.6c0.1-1.8,0.2-3.8,0.2-5.8c0-3.2-0.1-5.7-0.3-7.4c-0.2-1.7-0.5-3-0.9-3.8
			c-0.4-0.8-0.8-1.5-1.2-1.9c-0.4-0.3-0.8-0.6-1.3-0.8s-1.2-0.3-2.1-0.3s-1.6,0.1-2.1,0.3c-0.5,0.2-1,0.5-1.3,0.8
			c-0.7,0.6-1.2,1.6-1.6,2.8s-0.6,2.8-0.7,4.6c-0.1,1.8-0.2,3.8-0.2,5.8c0,3,0.1,5.4,0.3,7.3c0.2,1.9,0.5,3.3,0.9,4.1
			s0.8,1.4,1.3,1.8c0.4,0.3,0.8,0.6,1.3,0.8C88.8,133.7,89.5,133.8,90.4,133.8z"/>
	</g>
	<g>
		<path fill="#FFFFFF" d="M417,260.3c-19-3.9-24.4-8.8-26.3-36.1s-23.8-41.3-5.3-71.5s43.3-26.6,57.2-23.8
			c13.9,2.8,52,20.8,43.1,64.7s-37,41-44.5,62.4C433.7,277.5,417,260.3,417,260.3z"/>
		<g>
			<path fill="#1F7FB6" d="M445.5,119c-34.3-7-67.5,14-74.1,46.8c-7.9,39,17.1,54.4,12.5,77.1c-1.1,5.6,2.1,11.7,7.8,16.8
				c-1.6,0.8-2.6,1.9-2.8,3.2c-0.4,1.7,0.7,3.6,2.7,5.5c-2.5,0.9-4.1,2.2-4.4,3.9c-0.3,1.7,0.6,3.5,2.6,5.3
				c-2.6,0.9-4.2,2.2-4.6,3.9c-0.4,2.1,1.2,4.4,4.1,6.6c-1.5,0.9-2.5,2-2.8,3.4c-0.8,4,4.7,8.6,13.1,11.7c1,3.1,3.7,5.7,7.3,6.5
				c3.6,0.7,7.1-0.6,9.2-3.1c9.1,0.5,16-1.7,16.8-5.7c0.3-1.3-0.2-2.7-1.2-4.1c3.7-0.9,6.1-2.4,6.5-4.5c0.3-1.7-0.6-3.5-2.6-5.4
				c2.6-0.9,4.2-2.2,4.6-3.9c0.4-1.7-0.7-3.6-2.7-5.5c2.5-0.9,4.1-2.2,4.4-3.9c0.3-1.3-0.3-2.8-1.5-4.2c7.1-2.5,12.4-6.8,13.5-12.4
				c4.6-22.7,33.7-27.1,41.6-66.1C502.2,158.2,479.8,125.9,445.5,119z M458.4,221.8c-8,7.8-17.1,16.7-20.4,30.7
				c-2.6,1.9-11,4.2-20,2.4c-9.1-1.8-15.9-7.2-17.5-10c2.4-14.2-2.5-25.9-6.8-36.2c-4.9-11.5-9.4-22.4-6-39.5
				c4.8-23.8,29.3-39,54.6-33.9c25.3,5.1,41.9,28.7,37,52.5C475.8,204.8,467.3,213.1,458.4,221.8z"/>
			<path fill="#1F7FB6" d="M449.8,98.1c4.5,0.9,9.1-3.2,10.3-9.1l3.9-19.1c1.2-5.9-1.5-11.5-5.9-12.4c-4.5-0.9-9.1,3.2-10.3,9.1
				l-3.9,19.1C442.6,91.6,445.3,97.2,449.8,98.1z"/>
			<path fill="#1F7FB6" d="M405.9,100.8c4.3-1.4,6.3-7.3,4.4-13l-6.2-18.5c-1.9-5.7-7-9.2-11.3-7.8c-4.3,1.4-6.3,7.3-4.4,13
				l6.2,18.5C396.5,98.8,401.6,102.3,405.9,100.8z"/>
			<path fill="#1F7FB6" d="M366.5,111.6l-14.6-12.9c-4.5-4-10.7-4.5-13.7-1c-3,3.4-1.8,9.5,2.7,13.5l14.6,12.9
				c4.5,4,10.7,4.5,13.7,1C372.3,121.7,371,115.6,366.5,111.6z"/>
			<path fill="#1F7FB6" d="M524.8,251.6l-14.6-12.9c-4.5-4-10.7-4.5-13.7-1c-3,3.4-1.8,9.5,2.7,13.5l14.6,12.9
				c4.5,4,10.7,4.5,13.7,1C530.5,261.6,529.3,255.5,524.8,251.6z"/>
			<path fill="#1F7FB6" d="M349.7,164.4c0.9-4.5-3.2-9.1-9.1-10.3l-19.1-3.9c-5.9-1.2-11.5,1.5-12.4,5.9c-0.9,4.5,3.2,9.1,9.1,10.3
				l19.1,3.9C343.2,171.6,348.7,168.9,349.7,164.4z"/>
			<path fill="#1F7FB6" d="M547.6,196.2l-19.1-3.9c-5.9-1.2-11.5,1.5-12.4,5.9c-0.9,4.5,3.2,9.1,9.1,10.3l19.1,3.9
				c5.9,1.2,11.5-1.5,12.4-5.9C557.6,202,553.5,197.4,547.6,196.2z"/>
			<path fill="#1F7FB6" d="M339.3,203.9l-18.5,6.2c-5.7,1.9-9.2,7-7.8,11.3c1.4,4.3,7.3,6.3,13,4.4l18.5-6.2c5.7-1.9,9.2-7,7.8-11.3
				C350.9,204,345,202,339.3,203.9z"/>
			<path fill="#1F7FB6" d="M526.4,158.7l18.5-6.2c5.7-1.9,9.2-7,7.8-11.3c-1.4-4.3-7.3-6.3-13-4.4l-18.5,6.2
				c-5.7,1.9-9.2,7-7.8,11.3C514.8,158.7,520.7,160.6,526.4,158.7z"/>
			<path fill="#1F7FB6" d="M516.6,86.7c-3.4-3-9.5-1.8-13.5,2.7L490.2,104c-4,4.5-4.5,10.7-1,13.7c3.4,3,9.5,1.8,13.5-2.7l12.9-14.6
				C519.5,95.9,520,89.7,516.6,86.7z"/>
		</g>
	</g>
</g>
<g id="Lightbulb_Interface_Symbol">
</g>
<g id="Bright_Lightbulb">
</g>
<g id="Recycling_Symbol">
</g>
<g id="Global_Recycle_Symbol">
</g>
<g id="Globe_Grid">
</g>
<g id="Earth_Grid_Symbol">
	<g id="Recycling_Symbol_1_">
	</g>
</g>
<g id="Three_Curved_Arrows_Resembling_Recycling_Symbol">
</g>
<g id="Family_Of_Heterosexual_Couple">
</g>
<g id="Couple">
</g>
<g id="Woman_Standing_Silhouette_Black_Shape">
</g>
<g id="Woman_Searching_Job">
</g>
<g id="Couple_With_Baby">
</g>
<g id="Female_And_Male_Silhouettes_With_A_Vertical_Line_In_The_Middle">
</g>
<g id="Business_Woman">
</g>
<g id="Attention_Signal_And_Construction_Worker">
</g>
<g id="Handy_Man_Worker_Silhouette">
</g>
<g id="People_Working">
</g>
<g id="Tree_Silhouette">
	<g>
		<path fill="#1F7FB6" d="M359.9,36.7V16.5h2.2v20.2H359.9z"/>
		<path fill="#1F7FB6" d="M366.2,36.7V22.5h2v2c0.6-0.9,1.3-1.5,2-1.9s1.6-0.6,2.5-0.6c0.8,0,1.6,0.2,2.2,0.5
			c0.6,0.4,1.1,0.9,1.4,1.5c0.3,0.7,0.4,1.4,0.4,2.2v10.5h-2V27c0-1.1-0.2-1.9-0.7-2.4c-0.4-0.5-1.1-0.7-2.1-0.7
			c-0.5,0-1.1,0.1-1.5,0.4c-0.5,0.3-0.9,0.6-1.2,1c-0.3,0.4-0.6,0.9-0.8,1.4c-0.2,0.5-0.3,1.1-0.3,1.6v8.4H366.2z"/>
		<path fill="#1F7FB6" d="M380.5,36.7V22.5h2v2c0.6-0.9,1.3-1.5,2-1.9s1.6-0.6,2.5-0.6c0.8,0,1.6,0.2,2.2,0.5
			c0.6,0.4,1.1,0.9,1.4,1.5c0.3,0.7,0.4,1.4,0.4,2.2v10.5h-2V27c0-1.1-0.2-1.9-0.7-2.4c-0.4-0.5-1.1-0.7-2.1-0.7
			c-0.5,0-1.1,0.1-1.5,0.4c-0.5,0.3-0.9,0.6-1.2,1c-0.3,0.4-0.6,0.9-0.8,1.4c-0.2,0.5-0.3,1.1-0.3,1.6v8.4H380.5z"/>
		<path fill="#1F7FB6" d="M400.1,37.1c-0.7,0-1.4-0.1-1.9-0.3c-0.6-0.2-1.1-0.4-1.5-0.7s-0.8-0.7-1.1-1.1s-0.5-0.9-0.7-1.5
			c-0.2-0.7-0.3-1.3-0.4-2c-0.1-0.7-0.1-1.3-0.1-2s0-1.3,0.1-2c0.1-0.7,0.2-1.3,0.4-2c0.3-0.9,0.7-1.6,1.2-2.1
			c0.5-0.6,1.1-0.9,1.8-1.1c0.7-0.2,1.4-0.3,2.1-0.3c1,0,1.9,0.2,2.7,0.6c0.8,0.4,1.3,0.8,1.7,1.4c0.4,0.6,0.6,1.1,0.8,1.6
			c0.2,0.6,0.3,1.3,0.4,2c0.1,0.7,0.1,1.3,0.1,2s0,1.3-0.1,2c-0.1,0.7-0.2,1.3-0.4,2c-0.3,0.8-0.7,1.5-1.2,2.1
			c-0.5,0.5-1.1,0.9-1.8,1.2S400.8,37.1,400.1,37.1z M400.1,35.4c0.7,0,1.3-0.2,1.8-0.5c0.5-0.3,0.9-0.8,1.2-1.4
			c0.2-0.5,0.4-1.1,0.5-1.6c0.1-0.6,0.2-1.3,0.2-2.3s0-1.7-0.1-2.2c-0.1-0.5-0.3-1.1-0.5-1.7c-0.2-0.4-0.4-0.8-0.8-1.1
			c-0.3-0.3-0.7-0.5-1.1-0.6c-0.4-0.1-0.8-0.2-1.1-0.2c-0.6,0-1.2,0.2-1.8,0.5c-0.5,0.3-0.9,0.8-1.2,1.4c-0.2,0.6-0.4,1.2-0.5,1.7
			c-0.1,0.5-0.1,1.3-0.1,2.2c0,1,0,1.8,0.1,2.4s0.3,1.1,0.5,1.6c0.3,0.6,0.7,1.1,1.2,1.4C398.8,35.3,399.4,35.4,400.1,35.4z"/>
		<path fill="#1F7FB6" d="M412,36.7l-5.1-14.2h2.1l4.1,11.3l4-11.3h1.9l-5.1,14.2H412z"/>
		<path fill="#1F7FB6" d="M424.7,37c-0.4,0-0.7,0-1.1-0.1c-0.4-0.1-0.7-0.2-1-0.3c-0.3-0.1-0.6-0.3-0.9-0.5
			c-0.3-0.2-0.5-0.4-0.7-0.6c-0.3-0.4-0.5-0.8-0.7-1.3c-0.2-0.5-0.3-1-0.3-1.6c0-0.5,0.1-1,0.2-1.5c0.1-0.4,0.3-0.8,0.6-1.1
			c0.4-0.6,1-1,1.7-1.3c0.7-0.3,1.6-0.4,2.7-0.4h3.6v-1.9c0-0.8-0.2-1.4-0.5-1.8c-0.4-0.4-0.8-0.7-1.2-0.8c-0.5-0.1-0.9-0.2-1.3-0.2
			c-0.9,0-1.6,0.2-2.1,0.5c-0.5,0.3-0.9,0.8-1.2,1.5l-1.7-0.6c0.4-1,1-1.7,1.8-2.2c0.8-0.5,2-0.8,3.3-0.8c0.9,0,1.7,0.1,2.4,0.3
			s1.2,0.6,1.7,1.1c0.4,0.4,0.7,0.9,0.8,1.3c0.2,0.5,0.2,1.1,0.2,1.8v10.1H429v-1.4c-0.5,0.5-0.9,0.9-1.4,1.1
			c-0.5,0.3-1,0.5-1.5,0.5C425.6,37,425.1,37,424.7,37z M425.3,35.4c0.7,0,1.4-0.2,2-0.5c0.6-0.3,1-0.8,1.3-1.2s0.4-0.9,0.4-1.4
			v-2.4h-3c-0.7,0-1.2,0.1-1.7,0.2c-0.5,0.1-0.9,0.3-1.2,0.5c-0.3,0.2-0.5,0.5-0.7,0.9c-0.1,0.3-0.2,0.7-0.2,1.2
			c0,0.4,0.1,0.8,0.2,1.1c0.1,0.3,0.3,0.6,0.5,0.8C423.4,35.1,424.2,35.4,425.3,35.4z"/>
		<path fill="#1F7FB6" d="M439,36.9c-0.8,0-1.5-0.1-2-0.3s-0.9-0.5-1.2-0.9c-0.3-0.4-0.5-0.9-0.6-1.5c-0.1-0.6-0.2-1.2-0.2-1.9V24
			h-1.9v-1.6h1.9v-3.9h2v3.9h2.9V24H437v8.3c0,0.5,0,0.9,0.1,1.2c0,0.4,0.1,0.7,0.3,0.9c0.2,0.3,0.4,0.4,0.7,0.6
			c0.3,0.1,0.7,0.2,1.2,0.2c0.3,0,0.6,0,0.9-0.1v1.7C439.8,36.9,439.4,36.9,439,36.9z"/>
		<path fill="#1F7FB6" d="M442.3,18.9v-2.4h2.1v2.4H442.3z M442.3,36.7V22.5h2.1v14.2H442.3z"/>
		<path fill="#1F7FB6" d="M453.2,37.1c-0.7,0-1.4-0.1-1.9-0.3c-0.6-0.2-1.1-0.4-1.5-0.7s-0.8-0.7-1.1-1.1s-0.5-0.9-0.7-1.5
			c-0.2-0.7-0.3-1.3-0.4-2c-0.1-0.7-0.1-1.3-0.1-2s0-1.3,0.1-2c0.1-0.7,0.2-1.3,0.4-2c0.3-0.9,0.7-1.6,1.2-2.1
			c0.5-0.6,1.1-0.9,1.8-1.1c0.7-0.2,1.4-0.3,2.1-0.3c1,0,1.9,0.2,2.7,0.6c0.8,0.4,1.3,0.8,1.7,1.4c0.4,0.6,0.6,1.1,0.8,1.6
			c0.2,0.6,0.3,1.3,0.4,2c0.1,0.7,0.1,1.3,0.1,2s0,1.3-0.1,2c-0.1,0.7-0.2,1.3-0.4,2c-0.3,0.8-0.7,1.5-1.2,2.1
			c-0.5,0.5-1.1,0.9-1.8,1.2S453.9,37.1,453.2,37.1z M453.2,35.4c0.7,0,1.3-0.2,1.8-0.5c0.5-0.3,0.9-0.8,1.2-1.4
			c0.2-0.5,0.4-1.1,0.5-1.6c0.1-0.6,0.2-1.3,0.2-2.3s0-1.7-0.1-2.2c-0.1-0.5-0.3-1.1-0.5-1.7c-0.2-0.4-0.4-0.8-0.8-1.1
			c-0.3-0.3-0.7-0.5-1.1-0.6c-0.4-0.1-0.8-0.2-1.1-0.2c-0.6,0-1.2,0.2-1.8,0.5c-0.5,0.3-0.9,0.8-1.2,1.4c-0.2,0.6-0.4,1.2-0.5,1.7
			c-0.1,0.5-0.1,1.3-0.1,2.2c0,1,0,1.8,0.1,2.4s0.3,1.1,0.5,1.6c0.3,0.6,0.7,1.1,1.2,1.4C452,35.3,452.6,35.4,453.2,35.4z"/>
		<path fill="#1F7FB6" d="M462.1,36.7V22.5h2v2c0.6-0.9,1.3-1.5,2-1.9s1.6-0.6,2.5-0.6c0.8,0,1.6,0.2,2.2,0.5
			c0.6,0.4,1.1,0.9,1.4,1.5c0.3,0.7,0.4,1.4,0.4,2.2v10.5h-2V27c0-1.1-0.2-1.9-0.7-2.4c-0.4-0.5-1.1-0.7-2.1-0.7
			c-0.5,0-1.1,0.1-1.5,0.4c-0.5,0.3-0.9,0.6-1.2,1c-0.3,0.4-0.6,0.9-0.8,1.4c-0.2,0.5-0.3,1.1-0.3,1.6v8.4H462.1z"/>
		<path fill="#1F7FB6" d="M481.7,37.1c-0.7,0-1.4-0.1-1.9-0.3c-0.6-0.2-1.1-0.4-1.5-0.7c-0.4-0.3-0.8-0.6-1.1-1
			c-0.3-0.4-0.5-0.8-0.7-1.2c-0.2-0.6-0.4-1.2-0.5-1.9c-0.1-0.7-0.1-1.4-0.1-2.2c0-1.1,0.1-2.1,0.2-2.9c0.1-0.8,0.3-1.5,0.6-2.1
			c0.3-0.6,0.6-1.1,1-1.4c0.4-0.4,1-0.8,1.6-1.1s1.4-0.4,2.4-0.4c0.8,0,1.6,0.1,2.2,0.3c0.6,0.2,1.1,0.5,1.5,1
			c0.6,0.6,1,1.4,1.2,2.3c0.2,0.9,0.3,2.1,0.3,3.4v1.3H478v0.3c0,0.9,0.1,1.7,0.3,2.3c0.2,0.6,0.5,1.1,0.8,1.5
			c0.3,0.4,0.8,0.6,1.2,0.8c0.5,0.2,1,0.2,1.5,0.2c0.6,0,1.1-0.1,1.5-0.3c0.5-0.2,0.8-0.4,1.1-0.7c0.3-0.3,0.5-0.5,0.6-0.8l1.6,0.9
			c-0.3,0.6-0.8,1.1-1.2,1.5c-0.5,0.4-1.1,0.7-1.7,0.9C483.1,37,482.4,37.1,481.7,37.1z M478,28.6h6.9c0-1.4-0.2-2.5-0.5-3.2
			c-0.3-0.8-0.7-1.2-1.3-1.4c-0.5-0.2-1.1-0.3-1.6-0.3c-0.5,0-0.9,0.1-1.4,0.2c-0.4,0.2-0.8,0.4-1.1,0.8c-0.3,0.4-0.6,0.9-0.8,1.5
			C478.2,26.8,478,27.6,478,28.6z"/>
		<path fill="#1F7FB6" d="M490,36.7V22.5h2v2c0.6-0.9,1.3-1.5,2-1.9s1.6-0.6,2.5-0.6c0.8,0,1.6,0.2,2.2,0.5c0.6,0.4,1.1,0.9,1.4,1.5
			c0.3,0.7,0.4,1.4,0.4,2.2v10.5h-2V27c0-1.1-0.2-1.9-0.7-2.4c-0.4-0.5-1.1-0.7-2.1-0.7c-0.5,0-1.1,0.1-1.5,0.4
			c-0.5,0.3-0.9,0.6-1.2,1c-0.3,0.4-0.6,0.9-0.8,1.4c-0.2,0.5-0.3,1.1-0.3,1.6v8.4H490z"/>
	</g>
</g>
</svg>
