<?xml version="1.0" encoding="utf-8"?>
<!-- Generator: Adobe Illustrator 18.0.0, SVG Export Plug-In . SVG Version: 6.00 Build 0)  -->
<!DOCTYPE svg PUBLIC "-//W3C//DTD SVG 1.1//EN" "http://www.w3.org/Graphics/SVG/1.1/DTD/svg11.dtd">
<svg version="1.1" xmlns="http://www.w3.org/2000/svg" xmlns:xlink="http://www.w3.org/1999/xlink" x="0px" y="0px"
	 viewBox="0 0 860 320" enable-background="new 0 0 860 320" xml:space="preserve">
<g id="Ebene_1">
</g>
<g id="Mitarbeiter">
</g>
<g id="Ebene_8">
</g>
<g id="Stahl">
</g>
<g id="Ebene_7">
</g>
<g id="Patente">
</g>
<g id="Lightbulb_Interface_Symbol">
</g>
<g id="Bright_Lightbulb">
</g>
<g id="Recycling_Symbol">
</g>
<g id="Global_Recycle_Symbol">
</g>
<g id="Globe_Grid">
</g>
<g id="Earth_Grid_Symbol">
	<g id="Recycling_Symbol_1_">
		<g>
			<polyline fill="none" stroke="#BEBEBE" stroke-width="3" stroke-miterlimit="10" points="839.2,150.1 580.1,150.1 561.7,167.4 
				428.7,167.4 			"/>
			<polyline fill="none" stroke="#BEBEBE" stroke-width="3" stroke-miterlimit="10" points="17.7,150.1 278.7,150.1 297.1,167.4 
				430.1,167.4 			"/>
		</g>
		<g>
			<polyline fill="none" stroke="#BEBEBE" stroke-width="3" stroke-miterlimit="10" points="839.2,241.1 580.1,241.1 561.7,223.7 
				428.7,223.7 			"/>
			<polyline fill="none" stroke="#BEBEBE" stroke-width="3" stroke-miterlimit="10" points="17.7,241.1 278.7,241.1 297.1,223.7 
				430.1,223.7 			"/>
		</g>
		<g>
			<path d="M672.7,216.3v-1.5h1.3v1.5H672.7z M672.7,227.8v-9.1h1.3v9.1H672.7z"/>
			<path d="M676.4,227.8v-9.1h1.3v1.3c0.4-0.6,0.8-1,1.3-1.2s1-0.4,1.6-0.4c0.5,0,1,0.1,1.4,0.3s0.7,0.6,0.9,1
				c0.2,0.4,0.3,0.9,0.3,1.4v6.7h-1.3v-6.2c0-0.7-0.1-1.2-0.4-1.5s-0.7-0.5-1.3-0.5c-0.4,0-0.7,0.1-1,0.2s-0.6,0.4-0.8,0.7
				c-0.2,0.3-0.4,0.6-0.5,0.9s-0.2,0.7-0.2,1v5.4H676.4z"/>
			<path d="M688.5,228.1c-0.3,0-0.6,0-0.8-0.1s-0.5-0.2-0.8-0.3c-0.2-0.2-0.5-0.4-0.7-0.6s-0.4-0.6-0.5-1c-0.1-0.4-0.2-0.8-0.3-1.2
				s-0.1-1-0.1-1.6c0-0.7,0.1-1.4,0.2-1.9s0.3-1,0.5-1.4c0.3-0.5,0.6-0.9,1.1-1.1c0.4-0.2,1-0.4,1.6-0.4c0.5,0,0.9,0.1,1.2,0.2
				s0.6,0.3,0.9,0.5c0.2,0.2,0.4,0.4,0.6,0.6v-4.8h1.3v13h-1.3v-1.2c-0.3,0.5-0.7,0.9-1.1,1.1S689.1,228.1,688.5,228.1z
				 M688.9,226.9c0.5,0,1-0.1,1.3-0.4s0.6-0.6,0.8-1s0.2-0.8,0.2-1.2v-2.2c0-0.6-0.1-1.1-0.4-1.5s-0.6-0.7-1-0.8s-0.7-0.2-1-0.2
				c-0.5,0-0.8,0.1-1.1,0.3c-0.3,0.2-0.5,0.4-0.6,0.7s-0.2,0.5-0.2,0.7c-0.1,0.3-0.1,0.6-0.2,1c0,0.3,0,0.7,0,1.1
				c0,0.4,0,0.8,0.1,1.2s0.1,0.6,0.1,0.8c0.1,0.3,0.1,0.5,0.3,0.7s0.3,0.4,0.4,0.6s0.4,0.3,0.6,0.4
				C688.3,226.9,688.6,226.9,688.9,226.9z"/>
			<path d="M694.9,216.3v-1.5h1.3v1.5H694.9z M694.9,227.8v-9.1h1.3v9.1H694.9z"/>
			<path d="M700.8,227.8l-3.3-9.1h1.3l2.6,7.3l2.6-7.3h1.2l-3.3,9.1H700.8z"/>
			<path d="M706.7,216.3v-1.5h1.3v1.5H706.7z M706.7,227.8v-9.1h1.3v9.1H706.7z"/>
			<path d="M713.2,228.1c-0.3,0-0.6,0-0.8-0.1s-0.5-0.2-0.8-0.3c-0.2-0.2-0.5-0.4-0.7-0.6s-0.4-0.6-0.5-1c-0.1-0.4-0.2-0.8-0.3-1.2
				s-0.1-1-0.1-1.6c0-0.7,0.1-1.4,0.2-1.9s0.3-1,0.5-1.4c0.3-0.5,0.6-0.9,1.1-1.1c0.4-0.2,1-0.4,1.6-0.4c0.5,0,0.9,0.1,1.2,0.2
				s0.6,0.3,0.9,0.5c0.2,0.2,0.4,0.4,0.6,0.6v-4.8h1.3v13H716v-1.2c-0.3,0.5-0.7,0.9-1.1,1.1S713.8,228.1,713.2,228.1z M713.6,226.9
				c0.5,0,1-0.1,1.3-0.4s0.6-0.6,0.8-1s0.2-0.8,0.2-1.2v-2.2c0-0.6-0.1-1.1-0.4-1.5s-0.6-0.7-1-0.8s-0.7-0.2-1-0.2
				c-0.5,0-0.8,0.1-1.1,0.3c-0.3,0.2-0.5,0.4-0.6,0.7s-0.2,0.5-0.2,0.7c-0.1,0.3-0.1,0.6-0.2,1c0,0.3,0,0.7,0,1.1
				c0,0.4,0,0.8,0.1,1.2s0.1,0.6,0.1,0.8c0.1,0.3,0.1,0.5,0.3,0.7s0.3,0.4,0.4,0.6s0.4,0.3,0.6,0.4
				C713.1,226.9,713.3,226.9,713.6,226.9z"/>
			<path d="M722.3,228.1c-0.3,0-0.7,0-1-0.1s-0.6-0.2-0.8-0.5s-0.4-0.5-0.6-0.8s-0.2-0.8-0.2-1.3v-6.7h1.3v6.2c0,0.4,0,0.7,0.1,0.9
				c0.1,0.3,0.2,0.5,0.3,0.6s0.3,0.3,0.6,0.4s0.5,0.1,0.8,0.1c0.4,0,0.7-0.1,1-0.2s0.6-0.4,0.8-0.6c0.2-0.3,0.4-0.6,0.5-0.9
				s0.2-0.7,0.2-1v-5.4h1.3v9.1h-1.3v-1.3c-0.4,0.6-0.8,1-1.3,1.2S722.9,228.1,722.3,228.1z"/>
			<path d="M732.2,228.1c-0.5,0-0.9-0.1-1.2-0.2c-0.4-0.1-0.7-0.3-1-0.4c-0.3-0.2-0.5-0.4-0.7-0.7s-0.3-0.5-0.4-0.8
				c-0.1-0.4-0.2-0.8-0.3-1.2s-0.1-0.9-0.1-1.4c0-0.7,0-1.3,0.1-1.9s0.2-1,0.4-1.4s0.4-0.7,0.6-0.9c0.3-0.3,0.6-0.5,1-0.7
				c0.4-0.2,0.9-0.2,1.5-0.2c0.5,0,1,0.1,1.4,0.2s0.7,0.3,1,0.6c0.4,0.4,0.7,0.9,0.8,1.5s0.2,1.3,0.2,2.2v0.8h-5.7v0.2
				c0,0.6,0.1,1.1,0.2,1.5c0.1,0.4,0.3,0.7,0.5,1c0.2,0.2,0.5,0.4,0.8,0.5s0.6,0.1,1,0.1c0.4,0,0.7-0.1,1-0.2
				c0.3-0.1,0.5-0.3,0.7-0.5s0.3-0.3,0.4-0.5l1,0.6c-0.2,0.4-0.5,0.7-0.8,0.9c-0.3,0.3-0.7,0.4-1.1,0.5S732.7,228.1,732.2,228.1z
				 M729.9,222.6h4.4c0-0.9-0.1-1.6-0.3-2.1c-0.2-0.5-0.5-0.8-0.8-0.9s-0.7-0.2-1-0.2c-0.3,0-0.6,0-0.9,0.1s-0.5,0.3-0.7,0.5
				c-0.2,0.2-0.4,0.6-0.5,1C730,221.4,729.9,221.9,729.9,222.6z"/>
			<path d="M737.6,227.8v-13h1.3v13H737.6z"/>
			<path d="M741.3,227.8v-13h1.3v13H741.3z"/>
			<path d="M748.3,228.1c-0.5,0-0.9-0.1-1.2-0.2c-0.4-0.1-0.7-0.3-1-0.4c-0.3-0.2-0.5-0.4-0.7-0.7s-0.3-0.5-0.4-0.8
				c-0.1-0.4-0.2-0.8-0.3-1.2s-0.1-0.9-0.1-1.4c0-0.7,0-1.3,0.1-1.9s0.2-1,0.4-1.4s0.4-0.7,0.6-0.9c0.3-0.3,0.6-0.5,1-0.7
				c0.4-0.2,0.9-0.2,1.5-0.2c0.5,0,1,0.1,1.4,0.2s0.7,0.3,1,0.6c0.4,0.4,0.7,0.9,0.8,1.5s0.2,1.3,0.2,2.2v0.8h-5.7v0.2
				c0,0.6,0.1,1.1,0.2,1.5c0.1,0.4,0.3,0.7,0.5,1c0.2,0.2,0.5,0.4,0.8,0.5s0.6,0.1,1,0.1c0.4,0,0.7-0.1,1-0.2
				c0.3-0.1,0.5-0.3,0.7-0.5s0.3-0.3,0.4-0.5l1,0.6c-0.2,0.4-0.5,0.7-0.8,0.9c-0.3,0.3-0.7,0.4-1.1,0.5S748.8,228.1,748.3,228.1z
				 M746,222.6h4.4c0-0.9-0.1-1.6-0.3-2.1c-0.2-0.5-0.5-0.8-0.8-0.9s-0.7-0.2-1-0.2c-0.3,0-0.6,0-0.9,0.1s-0.5,0.3-0.7,0.5
				c-0.2,0.2-0.4,0.6-0.5,1C746,221.4,746,221.9,746,222.6z"/>
			<path d="M762.2,228.1c-0.6,0-1.1-0.1-1.6-0.2s-0.9-0.3-1.2-0.5c-0.4-0.2-0.7-0.5-0.9-0.8s-0.5-0.7-0.6-1.1l1.3-0.6
				c0.1,0.3,0.3,0.6,0.5,0.8s0.4,0.5,0.6,0.7s0.5,0.3,0.8,0.4s0.7,0.2,1.1,0.2c0.4,0,0.8-0.1,1.2-0.2s0.7-0.3,1-0.6
				c0.2-0.2,0.3-0.4,0.4-0.6c0.1-0.2,0.2-0.5,0.2-0.9c0-0.4-0.1-0.7-0.2-1s-0.3-0.5-0.5-0.6s-0.4-0.3-0.6-0.4
				c-0.1-0.1-0.3-0.1-0.5-0.2s-0.5-0.2-0.7-0.3s-0.5-0.2-0.7-0.3s-0.4-0.1-0.4-0.2c-0.7-0.3-1.2-0.5-1.6-0.8s-0.7-0.5-0.9-0.8
				c-0.2-0.3-0.4-0.6-0.5-0.9s-0.1-0.7-0.1-1c0-0.2,0-0.4,0-0.6s0.1-0.4,0.2-0.7s0.3-0.6,0.5-0.9c0.2-0.3,0.5-0.6,0.9-0.8
				c0.4-0.2,0.8-0.4,1.2-0.5c0.4-0.1,0.9-0.1,1.4-0.1c1,0,1.8,0.2,2.4,0.6c0.6,0.4,1.1,0.9,1.5,1.7l-1.2,0.6
				c-0.2-0.5-0.5-0.9-0.8-1.1s-0.7-0.4-1-0.5s-0.7-0.1-1-0.1c-0.5,0-0.9,0.1-1.3,0.2c-0.4,0.1-0.7,0.3-0.9,0.6
				c-0.2,0.2-0.3,0.5-0.4,0.7s-0.1,0.5-0.1,0.9c0,0.3,0.1,0.6,0.2,0.9s0.4,0.5,0.7,0.7s0.7,0.4,1.1,0.6c0.4,0.2,0.9,0.3,1.4,0.5
				c0.8,0.3,1.4,0.5,1.8,0.8s0.8,0.5,0.9,0.7c0.2,0.2,0.3,0.4,0.4,0.5c0.2,0.3,0.3,0.6,0.3,0.9c0.1,0.3,0.1,0.6,0.1,0.9
				c0,0.7-0.2,1.3-0.5,1.9s-0.9,1-1.5,1.3S762.9,228.1,762.2,228.1z"/>
			<path d="M771.2,227.9c-0.5,0-1-0.1-1.3-0.2s-0.6-0.3-0.8-0.6c-0.2-0.3-0.3-0.6-0.4-0.9c-0.1-0.4-0.1-0.8-0.1-1.2v-5.3h-1.2v-1
				h1.2v-2.5h1.3v2.5h1.9v1h-1.9v5.3c0,0.3,0,0.6,0,0.8s0.1,0.4,0.2,0.6s0.2,0.3,0.4,0.4s0.4,0.1,0.8,0.1c0.2,0,0.4,0,0.6-0.1v1.1
				C771.7,227.9,771.5,227.9,771.2,227.9z"/>
			<path d="M775.8,228c-0.2,0-0.5,0-0.7-0.1s-0.4-0.1-0.6-0.2s-0.4-0.2-0.5-0.3c-0.2-0.1-0.3-0.3-0.4-0.4c-0.2-0.3-0.3-0.5-0.4-0.8
				s-0.2-0.7-0.2-1c0-0.3,0-0.7,0.1-0.9c0.1-0.3,0.2-0.5,0.4-0.7c0.3-0.4,0.6-0.6,1.1-0.8s1-0.3,1.7-0.3h2.3v-1.2
				c0-0.5-0.1-0.9-0.4-1.2s-0.5-0.5-0.8-0.5c-0.3-0.1-0.6-0.1-0.8-0.1c-0.6,0-1,0.1-1.4,0.3s-0.6,0.5-0.8,0.9l-1.1-0.4
				c0.2-0.6,0.6-1.1,1.2-1.4s1.3-0.5,2.2-0.5c0.6,0,1.1,0.1,1.5,0.2c0.4,0.1,0.8,0.4,1.1,0.7c0.2,0.3,0.4,0.6,0.5,0.9
				s0.1,0.7,0.1,1.1v6.5h-1.3v-0.9c-0.3,0.3-0.6,0.6-0.9,0.7s-0.6,0.3-1,0.4S776.1,228,775.8,228z M776.2,226.9
				c0.5,0,0.9-0.1,1.3-0.3s0.7-0.5,0.8-0.8s0.3-0.6,0.3-0.9v-1.5h-1.9c-0.4,0-0.8,0-1.1,0.1s-0.6,0.2-0.7,0.3s-0.3,0.3-0.4,0.6
				s-0.1,0.5-0.1,0.7c0,0.3,0,0.5,0.1,0.7s0.2,0.4,0.3,0.5C775,226.7,775.5,226.9,776.2,226.9z"/>
			<path d="M782.2,227.8v-13h1.3v5.1c0.4-0.6,0.8-1,1.3-1.2s1-0.4,1.6-0.4c0.5,0,1,0.1,1.4,0.3s0.7,0.6,0.9,1
				c0.2,0.4,0.3,0.9,0.3,1.4v6.7h-1.3v-6.2c0-0.7-0.1-1.2-0.4-1.5s-0.7-0.5-1.3-0.5c-0.4,0-0.7,0.1-1,0.2s-0.6,0.4-0.8,0.7
				c-0.2,0.3-0.4,0.6-0.5,0.9s-0.2,0.7-0.2,1v5.4H782.2z"/>
			<path d="M791.4,227.8v-13h1.3v13H791.4z"/>
			<path d="M798.1,228.1c-0.5,0-0.9-0.1-1.2-0.2s-0.7-0.2-1-0.4c-0.5-0.4-0.9-0.8-1.1-1.4l1.1-0.5c0.2,0.3,0.3,0.6,0.6,0.8
				s0.5,0.4,0.8,0.5c0.3,0.1,0.6,0.1,0.9,0.1c0.4,0,0.8-0.1,1.1-0.2c0.3-0.1,0.5-0.3,0.7-0.5s0.2-0.5,0.2-0.8c0-0.3-0.1-0.6-0.2-0.8
				s-0.4-0.4-0.7-0.5c-0.6-0.2-1-0.4-1.2-0.4c-0.2-0.1-0.4-0.1-0.5-0.2c-0.5-0.2-0.9-0.4-1.2-0.6s-0.6-0.4-0.7-0.6s-0.3-0.4-0.3-0.7
				c-0.1-0.2-0.1-0.5-0.1-0.7c0-0.2,0-0.4,0.1-0.6c0-0.2,0.1-0.5,0.2-0.7c0.2-0.3,0.4-0.5,0.6-0.7c0.3-0.2,0.6-0.4,1-0.5
				s0.8-0.1,1.2-0.1c0.7,0,1.4,0.1,1.9,0.4s0.9,0.7,1.2,1.3l-1,0.5c-0.1-0.3-0.3-0.5-0.4-0.6s-0.3-0.3-0.5-0.4s-0.3-0.2-0.5-0.2
				s-0.4-0.1-0.6-0.1c-0.3,0-0.6,0-0.9,0.1s-0.5,0.2-0.6,0.3c-0.1,0.1-0.2,0.3-0.3,0.4s-0.1,0.4-0.1,0.6c0,0.2,0.1,0.4,0.2,0.6
				s0.3,0.3,0.5,0.5c0.2,0.1,0.5,0.3,0.8,0.4c0.3,0.1,0.7,0.3,1.2,0.4c0.7,0.2,1.2,0.4,1.5,0.7c0.3,0.2,0.5,0.4,0.6,0.6
				c0.1,0.1,0.2,0.3,0.2,0.5s0.1,0.5,0.1,0.8c0,0.4-0.1,0.7-0.2,0.9s-0.3,0.5-0.4,0.7c-0.3,0.3-0.6,0.6-1.2,0.7
				S798.6,228.1,798.1,228.1z"/>
			<path d="M806.5,228.1c-0.5,0-0.9-0.1-1.3-0.2c-0.4-0.1-0.7-0.3-1-0.5c-0.3-0.2-0.5-0.4-0.7-0.7c-0.2-0.3-0.3-0.6-0.4-0.9
				c-0.1-0.4-0.2-0.8-0.3-1.3s-0.1-0.9-0.1-1.3s0-0.8,0.1-1.3s0.1-0.9,0.3-1.3c0.2-0.6,0.4-1,0.8-1.4s0.7-0.6,1.2-0.7
				c0.4-0.1,0.9-0.2,1.4-0.2c0.7,0,1.2,0.1,1.7,0.4s0.9,0.5,1.1,0.9c0.2,0.4,0.4,0.7,0.5,1.1c0.1,0.4,0.2,0.8,0.3,1.3
				c0,0.4,0.1,0.9,0.1,1.3s0,0.8-0.1,1.3s-0.1,0.9-0.3,1.3c-0.2,0.5-0.5,1-0.8,1.3s-0.7,0.6-1.2,0.7
				C807.4,228,807,228.1,806.5,228.1z M806.5,227c0.4,0,0.8-0.1,1.1-0.3c0.3-0.2,0.6-0.5,0.8-0.9c0.1-0.3,0.2-0.7,0.3-1
				s0.1-0.9,0.1-1.5s0-1.1-0.1-1.4c-0.1-0.3-0.2-0.7-0.3-1.1c-0.1-0.3-0.3-0.5-0.5-0.7s-0.5-0.3-0.7-0.4c-0.3-0.1-0.5-0.1-0.7-0.1
				c-0.4,0-0.8,0.1-1.1,0.3s-0.6,0.5-0.8,0.9c-0.2,0.4-0.3,0.8-0.3,1.1s-0.1,0.8-0.1,1.4c0,0.7,0,1.2,0.1,1.5c0.1,0.3,0.2,0.7,0.3,1
				c0.2,0.4,0.4,0.7,0.8,0.9S806.1,227,806.5,227z"/>
			<path d="M812.2,227.8v-9.1h1.3v2c0.2-0.5,0.5-1,0.9-1.3s0.7-0.5,1.1-0.6s0.6-0.1,0.9-0.1h0.2v1.3h-0.3c-0.5,0-1,0.1-1.3,0.4
				c-0.4,0.3-0.6,0.6-0.8,1s-0.3,0.8-0.4,1.2s-0.1,0.8-0.1,1.2v4.2H812.2z"/>
			<path d="M820.9,227.9c-0.5,0-1-0.1-1.3-0.2s-0.6-0.3-0.8-0.6c-0.2-0.3-0.3-0.6-0.4-0.9c-0.1-0.4-0.1-0.8-0.1-1.2v-5.3h-1.2v-1
				h1.2v-2.5h1.3v2.5h1.9v1h-1.9v5.3c0,0.3,0,0.6,0,0.8s0.1,0.4,0.2,0.6s0.2,0.3,0.4,0.4s0.4,0.1,0.8,0.1c0.2,0,0.4,0,0.6-0.1v1.1
				C821.4,227.9,821.2,227.9,820.9,227.9z"/>
			<path d="M826.4,228.1c-0.5,0-0.9-0.1-1.2-0.2c-0.4-0.1-0.7-0.3-1-0.4c-0.3-0.2-0.5-0.4-0.7-0.7s-0.3-0.5-0.4-0.8
				c-0.1-0.4-0.2-0.8-0.3-1.2s-0.1-0.9-0.1-1.4c0-0.7,0-1.3,0.1-1.9s0.2-1,0.4-1.4s0.4-0.7,0.6-0.9c0.3-0.3,0.6-0.5,1-0.7
				c0.4-0.2,0.9-0.2,1.5-0.2c0.5,0,1,0.1,1.4,0.2s0.7,0.3,1,0.6c0.4,0.4,0.7,0.9,0.8,1.5s0.2,1.3,0.2,2.2v0.8H824v0.2
				c0,0.6,0.1,1.1,0.2,1.5c0.1,0.4,0.3,0.7,0.5,1c0.2,0.2,0.5,0.4,0.8,0.5s0.6,0.1,1,0.1c0.4,0,0.7-0.1,1-0.2
				c0.3-0.1,0.5-0.3,0.7-0.5s0.3-0.3,0.4-0.5l1,0.6c-0.2,0.4-0.5,0.7-0.8,0.9c-0.3,0.3-0.7,0.4-1.1,0.5S826.8,228.1,826.4,228.1z
				 M824,222.6h4.4c0-0.9-0.1-1.6-0.3-2.1c-0.2-0.5-0.5-0.8-0.8-0.9s-0.7-0.2-1-0.2c-0.3,0-0.6,0-0.9,0.1s-0.5,0.3-0.7,0.5
				c-0.2,0.2-0.4,0.6-0.5,1C824.1,221.4,824.1,221.9,824,222.6z"/>
			<path d="M831.7,227.8v-9.1h1.3v1.3c0.4-0.6,0.8-1,1.3-1.2s1-0.4,1.6-0.4c0.5,0,1,0.1,1.4,0.3s0.7,0.6,0.9,1
				c0.2,0.4,0.3,0.9,0.3,1.4v6.7h-1.3v-6.2c0-0.7-0.1-1.2-0.4-1.5s-0.7-0.5-1.3-0.5c-0.4,0-0.7,0.1-1,0.2s-0.6,0.4-0.8,0.7
				c-0.2,0.3-0.4,0.6-0.5,0.9s-0.2,0.7-0.2,1v5.4H831.7z"/>
		</g>
		<g>
			<path d="M22.1,229.9v-5.7h6.1v-25.2l-6.1,3.5l-3-5l11.2-6.8h4.8v33.5h5.8v5.7H22.1z"/>
			<path d="M48.4,229.9v-7.4h7.4v7.4H48.4z"/>
			<path d="M74.4,230.8c-1.7,0-3.3-0.2-4.9-0.6c-1.6-0.4-2.9-1.1-4.1-2c-1.2-0.9-2.2-2.2-2.9-3.7c-0.7-1.5-1.1-3.4-1.1-5.6
				c0-1.6,0.2-3,0.6-4.3c0.4-1.3,1.1-2.4,1.9-3.3c0.9-0.9,1.8-1.6,2.9-2.1c-0.9-0.6-1.6-1.3-2.2-2c-0.6-0.8-1-1.5-1.3-2.3
				c-0.3-0.8-0.5-1.5-0.6-2.2s-0.1-1.3-0.1-1.7c0-1.4,0.2-2.7,0.7-4s1.1-2.4,2.1-3.4c0.9-1,2.2-1.8,3.6-2.3c1.5-0.6,3.3-0.9,5.3-0.9
				c2.1,0,3.8,0.3,5.3,0.9c1.5,0.6,2.7,1.4,3.6,2.3c0.9,1,1.6,2.1,2.1,3.4c0.4,1.3,0.7,2.6,0.7,4c0,1-0.1,2.1-0.4,3.1
				c-0.3,1-0.8,2-1.4,2.9c-0.7,0.9-1.4,1.6-2.3,2.2c1.5,0.8,2.7,1.7,3.6,3c0.8,1.2,1.4,2.4,1.6,3.6s0.3,2.2,0.3,3.2
				c0,2.2-0.4,4.1-1.1,5.6c-0.7,1.5-1.7,2.7-2.9,3.7c-1.2,0.9-2.6,1.6-4.1,2C77.7,230.6,76.1,230.8,74.4,230.8z M74.4,225.1
				c1.5,0,2.7-0.3,3.6-0.8c1-0.5,1.6-1.3,1.9-2.3c0.3-1,0.5-2.1,0.5-3.3c0-1.5-0.3-2.7-0.8-3.6c-0.5-1-1.3-1.7-2.2-2
				c-1-0.4-2-0.6-3-0.6c-1.1,0-2,0.2-2.8,0.5s-1.4,0.7-1.9,1.3s-0.8,1.2-1.1,2c-0.2,0.8-0.3,1.6-0.3,2.6c0,1.2,0.1,2.2,0.4,3
				c0.3,0.8,0.7,1.5,1.2,2c0.5,0.5,1.2,0.9,1.9,1.1S73.5,225.1,74.4,225.1z M74.4,206.7c1.3,0,2.3-0.3,3-0.8
				c0.8-0.6,1.2-1.3,1.5-2.2s0.4-1.8,0.4-2.7c0-1.6-0.3-2.9-1.1-3.8c-0.8-0.9-2-1.4-3.8-1.4s-3,0.5-3.8,1.4
				c-0.8,0.9-1.2,2.2-1.2,3.8c0,1.8,0.4,3.2,1.2,4.2C71.4,206.2,72.7,206.7,74.4,206.7z"/>
			<path d="M105.6,230.8c-2,0-3.6-0.2-5-0.7c-1.4-0.5-2.6-1.1-3.5-2c-1.1-0.9-2-2.1-2.6-3.4c-0.6-1.3-1.1-2.8-1.4-4.3
				c-0.3-1.5-0.5-3.2-0.5-4.8c-0.1-1.7-0.1-3.3-0.1-5c0-1.6,0-3.3,0.1-5c0.1-1.7,0.2-3.3,0.5-4.8c0.3-1.5,0.7-3,1.4-4.3
				s1.5-2.5,2.6-3.4c1-0.8,2.1-1.5,3.5-2c1.4-0.5,3.1-0.7,5-0.7c1.9,0,3.6,0.2,5,0.7c1.4,0.5,2.6,1.1,3.5,2c1.5,1.3,2.6,3.1,3.3,5.2
				c0.7,2.1,1.1,4.3,1.2,6.6c0.1,2.2,0.1,4.2,0.1,5.8c0,3.4-0.1,6.1-0.3,8.2s-0.7,3.9-1.5,5.6s-1.7,2.9-2.8,3.8
				c-1,0.8-2.1,1.5-3.5,2C109.2,230.6,107.5,230.8,105.6,230.8z M105.6,224.9c0.9,0,1.6-0.1,2.1-0.3s1-0.5,1.3-0.8
				c0.6-0.6,1.2-1.5,1.5-2.8c0.4-1.2,0.6-2.8,0.8-4.6c0.1-1.8,0.2-3.8,0.2-5.8c0-3.2-0.1-5.7-0.3-7.4c-0.2-1.7-0.5-3-0.9-3.8
				c-0.4-0.8-0.8-1.5-1.2-1.9c-0.4-0.3-0.8-0.6-1.3-0.8s-1.2-0.3-2.1-0.3s-1.6,0.1-2.1,0.3c-0.5,0.2-1,0.5-1.3,0.8
				c-0.7,0.6-1.2,1.6-1.6,2.8s-0.6,2.8-0.7,4.6s-0.2,3.8-0.2,5.8c0,3,0.1,5.4,0.3,7.3s0.5,3.3,0.9,4.1s0.8,1.4,1.3,1.8
				c0.4,0.3,0.8,0.6,1.3,0.8C104,224.8,104.7,224.9,105.6,224.9z"/>
			<path d="M136.7,230.8c-2,0-3.6-0.2-5-0.7c-1.4-0.5-2.6-1.1-3.5-2c-1.1-0.9-2-2.1-2.6-3.4c-0.6-1.3-1.1-2.8-1.4-4.3
				c-0.3-1.5-0.5-3.2-0.5-4.8c-0.1-1.7-0.1-3.3-0.1-5c0-1.6,0-3.3,0.1-5c0.1-1.7,0.2-3.3,0.5-4.8c0.3-1.5,0.7-3,1.4-4.3
				s1.5-2.5,2.6-3.4c1-0.8,2.1-1.5,3.5-2c1.4-0.5,3.1-0.7,5-0.7c1.9,0,3.6,0.2,5,0.7c1.4,0.5,2.6,1.1,3.5,2c1.5,1.3,2.6,3.1,3.3,5.2
				c0.7,2.1,1.1,4.3,1.2,6.6c0.1,2.2,0.1,4.2,0.1,5.8c0,3.4-0.1,6.1-0.3,8.2s-0.7,3.9-1.5,5.6s-1.7,2.9-2.8,3.8
				c-1,0.8-2.1,1.5-3.5,2C140.3,230.6,138.6,230.8,136.7,230.8z M136.7,224.9c0.9,0,1.6-0.1,2.1-0.3s1-0.5,1.3-0.8
				c0.6-0.6,1.2-1.5,1.5-2.8c0.4-1.2,0.6-2.8,0.8-4.6c0.1-1.8,0.2-3.8,0.2-5.8c0-3.2-0.1-5.7-0.3-7.4c-0.2-1.7-0.5-3-0.9-3.8
				c-0.4-0.8-0.8-1.5-1.2-1.9c-0.4-0.3-0.8-0.6-1.3-0.8s-1.2-0.3-2.1-0.3s-1.6,0.1-2.1,0.3c-0.5,0.2-1,0.5-1.3,0.8
				c-0.7,0.6-1.2,1.6-1.6,2.8s-0.6,2.8-0.7,4.6s-0.2,3.8-0.2,5.8c0,3,0.1,5.4,0.3,7.3s0.5,3.3,0.9,4.1s0.8,1.4,1.3,1.8
				c0.4,0.3,0.8,0.6,1.3,0.8C135.1,224.8,135.8,224.9,136.7,224.9z"/>
		</g>
		<g>
			<path d="M696.8,137.9v-13h1.4v11.8h5.4v1.2H696.8z"/>
			<path d="M708.4,138.2c-0.5,0-0.9-0.1-1.2-0.2c-0.4-0.1-0.7-0.3-1-0.4c-0.3-0.2-0.5-0.4-0.7-0.7s-0.3-0.5-0.4-0.8
				c-0.1-0.4-0.2-0.8-0.3-1.2s-0.1-0.9-0.1-1.4c0-0.7,0-1.3,0.1-1.9s0.2-1,0.4-1.4s0.4-0.7,0.6-0.9c0.3-0.3,0.6-0.5,1-0.7
				c0.4-0.2,0.9-0.3,1.5-0.3c0.5,0,1,0.1,1.4,0.2s0.7,0.3,1,0.6c0.4,0.4,0.7,0.9,0.8,1.5s0.2,1.3,0.2,2.2v0.8h-5.7v0.2
				c0,0.6,0.1,1.1,0.2,1.5c0.1,0.4,0.3,0.7,0.5,1c0.2,0.2,0.5,0.4,0.8,0.5s0.6,0.1,1,0.1c0.4,0,0.7-0.1,1-0.2
				c0.3-0.1,0.5-0.3,0.7-0.5s0.3-0.3,0.4-0.5l1,0.6c-0.2,0.4-0.5,0.7-0.8,0.9c-0.3,0.3-0.7,0.4-1.1,0.5S708.9,138.2,708.4,138.2z
				 M706.1,132.7h4.4c0-0.9-0.1-1.6-0.3-2.1c-0.2-0.5-0.5-0.8-0.8-0.9s-0.7-0.2-1-0.2c-0.3,0-0.6,0-0.9,0.1s-0.5,0.3-0.7,0.5
				c-0.2,0.2-0.4,0.6-0.5,1C706.2,131.5,706.1,132.1,706.1,132.7z"/>
			<path d="M717.2,141.7c-0.9,0-1.6-0.2-2.2-0.5s-1-0.8-1.2-1.4l1.1-0.4c0.2,0.4,0.5,0.7,0.9,0.9c0.4,0.2,0.9,0.3,1.4,0.3
				c0.3,0,0.7,0,1-0.1s0.6-0.2,0.8-0.4c0.2-0.2,0.3-0.4,0.3-0.6c0.1-0.2,0.1-0.6,0.1-1.1v-1.6c-0.3,0.3-0.6,0.6-0.9,0.8
				s-0.6,0.3-0.9,0.3s-0.6,0.1-0.9,0.1c-0.3,0-0.6,0-0.8-0.1s-0.5-0.2-0.8-0.3c-0.2-0.1-0.5-0.4-0.7-0.6s-0.4-0.6-0.5-1
				c-0.1-0.4-0.2-0.8-0.3-1.2s-0.1-1-0.1-1.6c0-0.7,0.1-1.3,0.2-1.9s0.3-1,0.5-1.4c0.3-0.5,0.6-0.9,1.1-1.1s1-0.4,1.6-0.4
				c0.6,0,1.2,0.1,1.6,0.3s0.8,0.6,1,1.1v-1.1h1.3v9.7c0,0.5-0.1,1-0.2,1.3s-0.3,0.7-0.5,1c-0.3,0.3-0.7,0.5-1.2,0.7
				S717.8,141.7,717.2,141.7z M717.1,136.9c0.5,0,1-0.1,1.3-0.4s0.6-0.6,0.8-1s0.2-0.8,0.2-1.2v-2.1c0-0.6-0.1-1.1-0.4-1.5
				s-0.6-0.7-1-0.8s-0.7-0.2-1-0.2c-0.5,0-0.8,0.1-1.1,0.3c-0.3,0.2-0.5,0.4-0.6,0.7s-0.2,0.5-0.2,0.7c-0.1,0.3-0.1,0.6-0.2,0.9
				c0,0.3,0,0.7,0,1c0,0.4,0,0.7,0,1.1c0,0.3,0.1,0.6,0.1,0.9c0.1,0.3,0.1,0.5,0.3,0.7s0.3,0.4,0.4,0.6s0.4,0.3,0.6,0.4
				C716.5,136.8,716.8,136.9,717.1,136.9z"/>
			<path d="M723.1,126.4v-1.5h1.3v1.5H723.1z M723.1,137.9v-9.1h1.3v9.1H723.1z"/>
			<path d="M730.1,138.2c-0.5,0-0.9-0.1-1.2-0.2c-0.4-0.1-0.7-0.3-1-0.4c-0.3-0.2-0.5-0.4-0.7-0.7s-0.3-0.5-0.4-0.8
				c-0.1-0.4-0.2-0.8-0.3-1.2s-0.1-0.9-0.1-1.4c0-0.7,0-1.3,0.1-1.9s0.2-1,0.4-1.4s0.4-0.7,0.6-0.9c0.3-0.3,0.6-0.5,1-0.7
				c0.4-0.2,0.9-0.3,1.5-0.3c0.5,0,1,0.1,1.4,0.2s0.7,0.3,1,0.6c0.4,0.4,0.7,0.9,0.8,1.5s0.2,1.3,0.2,2.2v0.8h-5.7v0.2
				c0,0.6,0.1,1.1,0.2,1.5c0.1,0.4,0.3,0.7,0.5,1c0.2,0.2,0.5,0.4,0.8,0.5s0.6,0.1,1,0.1c0.4,0,0.7-0.1,1-0.2
				c0.3-0.1,0.5-0.3,0.7-0.5s0.3-0.3,0.4-0.5l1,0.6c-0.2,0.4-0.5,0.7-0.8,0.9c-0.3,0.3-0.7,0.4-1.1,0.5S730.6,138.2,730.1,138.2z
				 M727.8,132.7h4.4c0-0.9-0.1-1.6-0.3-2.1c-0.2-0.5-0.5-0.8-0.8-0.9s-0.7-0.2-1-0.2c-0.3,0-0.6,0-0.9,0.1s-0.5,0.3-0.7,0.5
				c-0.2,0.2-0.4,0.6-0.5,1C727.9,131.5,727.8,132.1,727.8,132.7z"/>
			<path d="M735.5,137.9v-9.1h1.3v2c0.2-0.5,0.5-1,0.9-1.3s0.7-0.5,1.1-0.6s0.6-0.1,0.9-0.1h0.2v1.3h-0.3c-0.5,0-1,0.1-1.3,0.4
				c-0.4,0.3-0.6,0.6-0.8,1s-0.3,0.8-0.4,1.2s-0.1,0.8-0.1,1.2v4.2H735.5z"/>
			<path d="M743.7,138.2c-0.3,0-0.7,0-1-0.1s-0.6-0.2-0.8-0.5s-0.4-0.5-0.6-0.8s-0.2-0.8-0.2-1.3v-6.7h1.3v6.2c0,0.4,0,0.7,0.1,0.9
				c0.1,0.3,0.2,0.5,0.3,0.6s0.3,0.3,0.6,0.4s0.5,0.1,0.8,0.1c0.4,0,0.7-0.1,1-0.2s0.6-0.4,0.8-0.6c0.2-0.3,0.4-0.6,0.5-0.9
				s0.2-0.7,0.2-1v-5.4h1.3v9.1h-1.3v-1.3c-0.4,0.6-0.8,1-1.3,1.2S744.3,138.2,743.7,138.2z"/>
			<path d="M750.3,137.9v-9.1h1.3v1.3c0.4-0.6,0.8-1,1.3-1.2s1-0.4,1.6-0.4c0.5,0,1,0.1,1.4,0.3s0.7,0.6,0.9,1
				c0.2,0.4,0.3,0.9,0.3,1.4v6.7h-1.3v-6.2c0-0.7-0.1-1.2-0.4-1.5s-0.7-0.5-1.3-0.5c-0.4,0-0.7,0.1-1,0.2s-0.6,0.4-0.8,0.7
				c-0.2,0.3-0.4,0.6-0.5,0.9s-0.2,0.7-0.2,1v5.4H750.3z"/>
			<path d="M763,141.7c-0.9,0-1.6-0.2-2.2-0.5s-1-0.8-1.2-1.4l1.1-0.4c0.2,0.4,0.5,0.7,0.9,0.9c0.4,0.2,0.9,0.3,1.4,0.3
				c0.3,0,0.7,0,1-0.1s0.6-0.2,0.8-0.4c0.2-0.2,0.3-0.4,0.3-0.6c0.1-0.2,0.1-0.6,0.1-1.1v-1.6c-0.3,0.3-0.6,0.6-0.9,0.8
				s-0.6,0.3-0.9,0.3s-0.6,0.1-0.9,0.1c-0.3,0-0.6,0-0.8-0.1s-0.5-0.2-0.8-0.3c-0.2-0.1-0.5-0.4-0.7-0.6s-0.4-0.6-0.5-1
				c-0.1-0.4-0.2-0.8-0.3-1.2s-0.1-1-0.1-1.6c0-0.7,0.1-1.3,0.2-1.9s0.3-1,0.5-1.4c0.3-0.5,0.6-0.9,1.1-1.1s1-0.4,1.6-0.4
				c0.6,0,1.2,0.1,1.6,0.3s0.8,0.6,1,1.1v-1.1h1.3v9.7c0,0.5-0.1,1-0.2,1.3s-0.3,0.7-0.5,1c-0.3,0.3-0.7,0.5-1.2,0.7
				S763.5,141.7,763,141.7z M762.8,136.9c0.5,0,1-0.1,1.3-0.4s0.6-0.6,0.8-1s0.2-0.8,0.2-1.2v-2.1c0-0.6-0.1-1.1-0.4-1.5
				s-0.6-0.7-1-0.8s-0.7-0.2-1-0.2c-0.5,0-0.8,0.1-1.1,0.3c-0.3,0.2-0.5,0.4-0.6,0.7s-0.2,0.5-0.2,0.7c-0.1,0.3-0.1,0.6-0.2,0.9
				c0,0.3,0,0.7,0,1c0,0.4,0,0.7,0,1.1c0,0.3,0.1,0.6,0.1,0.9c0.1,0.3,0.1,0.5,0.3,0.7s0.3,0.4,0.4,0.6s0.4,0.3,0.6,0.4
				C762.3,136.8,762.5,136.9,762.8,136.9z"/>
			<path d="M771.8,138.2c-0.5,0-0.9-0.1-1.2-0.2s-0.7-0.2-1-0.4c-0.5-0.4-0.9-0.8-1.1-1.4l1.1-0.5c0.2,0.3,0.3,0.6,0.6,0.8
				s0.5,0.4,0.8,0.5c0.3,0.1,0.6,0.1,0.9,0.1c0.4,0,0.8-0.1,1.1-0.2c0.3-0.1,0.5-0.3,0.7-0.5s0.2-0.5,0.2-0.8c0-0.3-0.1-0.6-0.2-0.8
				s-0.4-0.4-0.7-0.5c-0.6-0.2-1-0.4-1.2-0.4c-0.2-0.1-0.4-0.1-0.5-0.2c-0.5-0.2-0.9-0.4-1.2-0.6s-0.6-0.4-0.7-0.6s-0.3-0.4-0.3-0.7
				c-0.1-0.2-0.1-0.5-0.1-0.7c0-0.2,0-0.4,0.1-0.6c0-0.2,0.1-0.5,0.2-0.7c0.2-0.3,0.4-0.5,0.6-0.7c0.3-0.2,0.6-0.4,1-0.5
				s0.8-0.1,1.2-0.1c0.7,0,1.4,0.1,1.9,0.4s0.9,0.7,1.2,1.3l-1,0.5c-0.1-0.3-0.3-0.5-0.4-0.6s-0.3-0.3-0.5-0.4s-0.3-0.2-0.5-0.2
				s-0.4-0.1-0.6-0.1c-0.3,0-0.6,0-0.9,0.1s-0.5,0.2-0.6,0.3c-0.1,0.1-0.2,0.3-0.3,0.4s-0.1,0.4-0.1,0.6c0,0.2,0.1,0.4,0.2,0.6
				s0.3,0.3,0.5,0.5c0.2,0.1,0.5,0.3,0.8,0.4c0.3,0.1,0.7,0.3,1.2,0.4c0.7,0.2,1.2,0.4,1.5,0.7c0.3,0.2,0.5,0.4,0.6,0.6
				c0.1,0.1,0.2,0.3,0.2,0.5s0.1,0.5,0.1,0.8c0,0.4-0.1,0.7-0.2,0.9s-0.3,0.5-0.4,0.7c-0.3,0.3-0.6,0.6-1.2,0.7
				S772.3,138.2,771.8,138.2z"/>
			<path d="M776.9,137.9v-13h1.3v7.6l3.7-3.8h1.5l-2.9,3l3.1,6.1h-1.5l-2.6-5.1l-1.3,1.4v3.7H776.9z"/>
			<path d="M788,138.2c-0.5,0-0.9-0.1-1.3-0.2c-0.4-0.1-0.7-0.3-1-0.5c-0.3-0.2-0.5-0.4-0.7-0.7c-0.2-0.3-0.3-0.6-0.4-0.9
				c-0.1-0.4-0.2-0.8-0.3-1.3s-0.1-0.9-0.1-1.3s0-0.8,0.1-1.3s0.1-0.9,0.3-1.3c0.2-0.6,0.4-1,0.8-1.4s0.7-0.6,1.2-0.7
				c0.4-0.1,0.9-0.2,1.4-0.2c0.7,0,1.2,0.1,1.7,0.4s0.9,0.5,1.1,0.9c0.2,0.4,0.4,0.7,0.5,1.1c0.1,0.4,0.2,0.8,0.3,1.3
				c0,0.4,0.1,0.9,0.1,1.3s0,0.8-0.1,1.3s-0.1,0.9-0.3,1.3c-0.2,0.5-0.5,1-0.8,1.3s-0.7,0.6-1.2,0.7
				C788.9,138.1,788.4,138.2,788,138.2z M788,137.1c0.4,0,0.8-0.1,1.1-0.3c0.3-0.2,0.6-0.5,0.8-0.9c0.1-0.3,0.2-0.7,0.3-1
				s0.1-0.9,0.1-1.5s0-1.1-0.1-1.4c-0.1-0.3-0.2-0.7-0.3-1.1c-0.1-0.3-0.3-0.5-0.5-0.7s-0.5-0.3-0.7-0.4c-0.3-0.1-0.5-0.1-0.7-0.1
				c-0.4,0-0.8,0.1-1.1,0.3s-0.6,0.5-0.8,0.9c-0.2,0.4-0.3,0.8-0.3,1.1s-0.1,0.8-0.1,1.4c0,0.7,0,1.2,0.1,1.5c0.1,0.3,0.2,0.7,0.3,1
				c0.2,0.4,0.4,0.7,0.8,0.9S787.5,137.1,788,137.1z"/>
			<path d="M793.7,137.9v-9.1h1.3v1.3c0.4-0.6,0.8-1,1.3-1.2s1-0.4,1.6-0.4c0.5,0,1,0.1,1.4,0.3s0.7,0.6,0.9,1
				c0.2,0.4,0.3,0.9,0.3,1.4v6.7h-1.3v-6.2c0-0.7-0.1-1.2-0.4-1.5s-0.7-0.5-1.3-0.5c-0.4,0-0.7,0.1-1,0.2s-0.6,0.4-0.8,0.7
				c-0.2,0.3-0.4,0.6-0.5,0.9s-0.2,0.7-0.2,1v5.4H793.7z"/>
			<path d="M801.9,137.9v-1l4.5-7.1h-4.3v-1h5.7v1l-4.5,7.1h4.6v1H801.9z"/>
			<path d="M812.7,138.2c-0.5,0-0.9-0.1-1.2-0.2c-0.4-0.1-0.7-0.3-1-0.4c-0.3-0.2-0.5-0.4-0.7-0.7s-0.3-0.5-0.4-0.8
				c-0.1-0.4-0.2-0.8-0.3-1.2s-0.1-0.9-0.1-1.4c0-0.7,0-1.3,0.1-1.9s0.2-1,0.4-1.4s0.4-0.7,0.6-0.9c0.3-0.3,0.6-0.5,1-0.7
				c0.4-0.2,0.9-0.3,1.5-0.3c0.5,0,1,0.1,1.4,0.2s0.7,0.3,1,0.6c0.4,0.4,0.7,0.9,0.8,1.5s0.2,1.3,0.2,2.2v0.8h-5.7v0.2
				c0,0.6,0.1,1.1,0.2,1.5c0.1,0.4,0.3,0.7,0.5,1c0.2,0.2,0.5,0.4,0.8,0.5s0.6,0.1,1,0.1c0.4,0,0.7-0.1,1-0.2
				c0.3-0.1,0.5-0.3,0.7-0.5s0.3-0.3,0.4-0.5l1,0.6c-0.2,0.4-0.5,0.7-0.8,0.9c-0.3,0.3-0.7,0.4-1.1,0.5S813.2,138.2,812.7,138.2z
				 M810.4,132.7h4.4c0-0.9-0.1-1.6-0.3-2.1c-0.2-0.5-0.5-0.8-0.8-0.9s-0.7-0.2-1-0.2c-0.3,0-0.6,0-0.9,0.1s-0.5,0.3-0.7,0.5
				c-0.2,0.2-0.4,0.6-0.5,1C810.5,131.5,810.4,132.1,810.4,132.7z"/>
			<path d="M818.1,141.3v-12.6h1.3v1.2c0.6-1,1.5-1.5,2.8-1.5c0.6,0,1.1,0.1,1.6,0.4s0.8,0.6,1.1,1.1c0.2,0.4,0.3,0.8,0.4,1.4
				s0.1,1.2,0.1,1.9c0,0.7,0,1.2-0.1,1.7c-0.1,0.5-0.2,0.9-0.3,1.3c-0.2,0.5-0.5,0.9-0.8,1.2s-0.7,0.5-1,0.6s-0.7,0.1-0.9,0.1
				c-0.6,0-1.1-0.1-1.5-0.3c-0.4-0.2-0.8-0.5-1.2-0.9v4.4H818.1z M821.7,137c0.6,0,1.1-0.2,1.4-0.5s0.6-0.8,0.7-1.3
				c0-0.2,0.1-0.5,0.1-0.9s0.1-0.8,0.1-1.1c0-0.4,0-0.7,0-1.1c0-0.3-0.1-0.7-0.2-1c-0.1-0.4-0.2-0.7-0.4-0.9s-0.4-0.4-0.7-0.5
				c-0.3-0.1-0.6-0.2-0.9-0.2c-0.3,0-0.6,0.1-0.9,0.2s-0.5,0.3-0.8,0.5c-0.2,0.2-0.4,0.5-0.5,0.8c-0.1,0.3-0.2,0.7-0.2,1.1v2.2
				c0,0.4,0.1,0.7,0.2,1.1s0.3,0.6,0.5,0.8c0.2,0.2,0.4,0.4,0.7,0.5S821.4,137,821.7,137z"/>
			<path d="M830.1,138c-0.5,0-1-0.1-1.3-0.2s-0.6-0.3-0.8-0.6c-0.2-0.3-0.3-0.6-0.4-0.9c-0.1-0.4-0.1-0.8-0.1-1.2v-5.3h-1.2v-1h1.2
				v-2.5h1.3v2.5h1.9v1h-1.9v5.3c0,0.3,0,0.6,0,0.8s0.1,0.4,0.2,0.6s0.2,0.3,0.4,0.4s0.4,0.1,0.8,0.1c0.2,0,0.4,0,0.6-0.1v1.1
				C830.6,138,830.4,138,830.1,138z"/>
			<path d="M835.6,138.2c-0.5,0-0.9-0.1-1.2-0.2c-0.4-0.1-0.7-0.3-1-0.4c-0.3-0.2-0.5-0.4-0.7-0.7s-0.3-0.5-0.4-0.8
				c-0.1-0.4-0.2-0.8-0.3-1.2s-0.1-0.9-0.1-1.4c0-0.7,0-1.3,0.1-1.9s0.2-1,0.4-1.4s0.4-0.7,0.6-0.9c0.3-0.3,0.6-0.5,1-0.7
				c0.4-0.2,0.9-0.3,1.5-0.3c0.5,0,1,0.1,1.4,0.2s0.7,0.3,1,0.6c0.4,0.4,0.7,0.9,0.8,1.5s0.2,1.3,0.2,2.2v0.8h-5.7v0.2
				c0,0.6,0.1,1.1,0.2,1.5c0.1,0.4,0.3,0.7,0.5,1c0.2,0.2,0.5,0.4,0.8,0.5s0.6,0.1,1,0.1c0.4,0,0.7-0.1,1-0.2
				c0.3-0.1,0.5-0.3,0.7-0.5s0.3-0.3,0.4-0.5l1,0.6c-0.2,0.4-0.5,0.7-0.8,0.9c-0.3,0.3-0.7,0.4-1.1,0.5S836,138.2,835.6,138.2z
				 M833.2,132.7h4.4c0-0.9-0.1-1.6-0.3-2.1c-0.2-0.5-0.5-0.8-0.8-0.9s-0.7-0.2-1-0.2c-0.3,0-0.6,0-0.9,0.1s-0.5,0.3-0.7,0.5
				c-0.2,0.2-0.4,0.6-0.5,1C833.3,131.5,833.3,132.1,833.2,132.7z"/>
		</g>
		<g>
			<path d="M17.1,138.9v-5.7c0.3-0.3,0.7-0.7,1.2-1.2s1.2-1.2,1.9-1.9c0.7-0.7,1.5-1.5,2.4-2.4c0.8-0.9,1.7-1.8,2.6-2.8s1.8-2,2.6-3
				c0.9-1,1.7-2,2.4-2.9c0.7-1,1.4-1.9,2-2.8c0.6-0.9,1-1.7,1.3-2.4c0.6-1.5,0.9-2.8,0.9-3.9c0-0.9-0.2-1.7-0.6-2.5
				s-0.9-1.3-1.7-1.7c-0.8-0.4-1.7-0.6-2.6-0.6c-1.1,0-2,0.2-2.7,0.6s-1.3,0.9-1.7,1.5c-0.5,0.8-0.9,1.6-1,2.6
				c-0.2,1-0.3,1.9-0.5,2.8l-6.8-0.8c0.1-1.7,0.4-3.2,0.7-4.4c0.3-1.2,0.8-2.2,1.3-2.9s1-1.4,1.5-1.9c0.9-0.9,1.9-1.6,3-2.1
				c1.1-0.5,2.3-0.8,3.4-0.9c1.2-0.1,2.2-0.2,3.2-0.2c3.1,0,5.5,0.6,7.4,1.8s3,2.6,3.5,4.2c0.5,1.6,0.8,3.1,0.8,4.5
				c0,1.8-0.3,3.6-1,5.3c-0.6,1.7-1.7,3.5-3.1,5.3c-1.4,1.9-3,3.7-4.7,5.6l-6.3,6.7h15v6.1H17.1z"/>
			<path d="M48.4,138.9v-7.4h7.4v7.4H48.4z"/>
			<path d="M74.4,139.8c-2,0-3.6-0.2-5-0.7s-2.6-1.1-3.5-2c-1.1-0.9-2-2.1-2.6-3.4c-0.6-1.3-1.1-2.8-1.4-4.3
				c-0.3-1.5-0.5-3.2-0.5-4.8c-0.1-1.7-0.1-3.3-0.1-5c0-1.6,0-3.3,0.1-5c0.1-1.7,0.2-3.3,0.5-4.8c0.3-1.5,0.7-3,1.4-4.3
				c0.6-1.3,1.5-2.5,2.6-3.4c1-0.8,2.1-1.5,3.5-2c1.4-0.5,3.1-0.7,5-0.7c1.9,0,3.6,0.2,5,0.7c1.4,0.5,2.6,1.1,3.5,2
				c1.5,1.3,2.6,3.1,3.3,5.2c0.7,2.1,1.1,4.3,1.2,6.6c0.1,2.2,0.1,4.2,0.1,5.8c0,3.4-0.1,6.1-0.3,8.2c-0.2,2.1-0.7,3.9-1.5,5.6
				s-1.7,2.9-2.8,3.8c-1,0.8-2.1,1.5-3.5,2S76.4,139.8,74.4,139.8z M74.4,133.9c0.9,0,1.6-0.1,2.1-0.3c0.5-0.2,1-0.5,1.3-0.8
				c0.6-0.6,1.2-1.5,1.5-2.8c0.4-1.2,0.6-2.8,0.8-4.6c0.1-1.8,0.2-3.8,0.2-5.8c0-3.2-0.1-5.7-0.3-7.4c-0.2-1.7-0.5-3-0.9-3.8
				c-0.4-0.8-0.8-1.5-1.2-1.9c-0.4-0.3-0.8-0.6-1.3-0.8s-1.2-0.3-2.1-0.3s-1.6,0.1-2.1,0.3c-0.5,0.2-1,0.5-1.3,0.8
				c-0.7,0.6-1.2,1.6-1.6,2.8s-0.6,2.8-0.7,4.6c-0.1,1.8-0.2,3.8-0.2,5.8c0,3,0.1,5.4,0.3,7.3c0.2,1.9,0.5,3.3,0.9,4.1
				s0.8,1.4,1.3,1.8c0.4,0.3,0.8,0.6,1.3,0.8C72.9,133.8,73.6,133.9,74.4,133.9z"/>
			<path d="M105.6,139.8c-2,0-3.6-0.2-5-0.7s-2.6-1.1-3.5-2c-1.1-0.9-2-2.1-2.6-3.4c-0.6-1.3-1.1-2.8-1.4-4.3
				c-0.3-1.5-0.5-3.2-0.5-4.8c-0.1-1.7-0.1-3.3-0.1-5c0-1.6,0-3.3,0.1-5c0.1-1.7,0.2-3.3,0.5-4.8c0.3-1.5,0.7-3,1.4-4.3
				c0.6-1.3,1.5-2.5,2.6-3.4c1-0.8,2.1-1.5,3.5-2c1.4-0.5,3.1-0.7,5-0.7c1.9,0,3.6,0.2,5,0.7c1.4,0.5,2.6,1.1,3.5,2
				c1.5,1.3,2.6,3.1,3.3,5.2c0.7,2.1,1.1,4.3,1.2,6.6c0.1,2.2,0.1,4.2,0.1,5.8c0,3.4-0.1,6.1-0.3,8.2c-0.2,2.1-0.7,3.9-1.5,5.6
				s-1.7,2.9-2.8,3.8c-1,0.8-2.1,1.5-3.5,2S107.5,139.8,105.6,139.8z M105.6,133.9c0.9,0,1.6-0.1,2.1-0.3c0.5-0.2,1-0.5,1.3-0.8
				c0.6-0.6,1.2-1.5,1.5-2.8c0.4-1.2,0.6-2.8,0.8-4.6c0.1-1.8,0.2-3.8,0.2-5.8c0-3.2-0.1-5.7-0.3-7.4c-0.2-1.7-0.5-3-0.9-3.8
				c-0.4-0.8-0.8-1.5-1.2-1.9c-0.4-0.3-0.8-0.6-1.3-0.8s-1.2-0.3-2.1-0.3s-1.6,0.1-2.1,0.3c-0.5,0.2-1,0.5-1.3,0.8
				c-0.7,0.6-1.2,1.6-1.6,2.8s-0.6,2.8-0.7,4.6c-0.1,1.8-0.2,3.8-0.2,5.8c0,3,0.1,5.4,0.3,7.3c0.2,1.9,0.5,3.3,0.9,4.1
				s0.8,1.4,1.3,1.8c0.4,0.3,0.8,0.6,1.3,0.8C104,133.8,104.7,133.9,105.6,133.9z"/>
			<path d="M136.7,139.8c-2,0-3.6-0.2-5-0.7s-2.6-1.1-3.5-2c-1.1-0.9-2-2.1-2.6-3.4c-0.6-1.3-1.1-2.8-1.4-4.3
				c-0.3-1.5-0.5-3.2-0.5-4.8c-0.1-1.7-0.1-3.3-0.1-5c0-1.6,0-3.3,0.1-5c0.1-1.7,0.2-3.3,0.5-4.8c0.3-1.5,0.7-3,1.4-4.3
				c0.6-1.3,1.5-2.5,2.6-3.4c1-0.8,2.1-1.5,3.5-2c1.4-0.5,3.1-0.7,5-0.7c1.9,0,3.6,0.2,5,0.7c1.4,0.5,2.6,1.1,3.5,2
				c1.5,1.3,2.6,3.1,3.3,5.2c0.7,2.1,1.1,4.3,1.2,6.6c0.1,2.2,0.1,4.2,0.1,5.8c0,3.4-0.1,6.1-0.3,8.2c-0.2,2.1-0.7,3.9-1.5,5.6
				s-1.7,2.9-2.8,3.8c-1,0.8-2.1,1.5-3.5,2S138.6,139.8,136.7,139.8z M136.7,133.9c0.9,0,1.6-0.1,2.1-0.3c0.5-0.2,1-0.5,1.3-0.8
				c0.6-0.6,1.2-1.5,1.5-2.8c0.4-1.2,0.6-2.8,0.8-4.6c0.1-1.8,0.2-3.8,0.2-5.8c0-3.2-0.1-5.7-0.3-7.4c-0.2-1.7-0.5-3-0.9-3.8
				c-0.4-0.8-0.8-1.5-1.2-1.9c-0.4-0.3-0.8-0.6-1.3-0.8s-1.2-0.3-2.1-0.3s-1.6,0.1-2.1,0.3c-0.5,0.2-1,0.5-1.3,0.8
				c-0.7,0.6-1.2,1.6-1.6,2.8s-0.6,2.8-0.7,4.6c-0.1,1.8-0.2,3.8-0.2,5.8c0,3,0.1,5.4,0.3,7.3c0.2,1.9,0.5,3.3,0.9,4.1
				s0.8,1.4,1.3,1.8c0.4,0.3,0.8,0.6,1.3,0.8C135.1,133.8,135.8,133.9,136.7,133.9z"/>
		</g>
		<g>
			<path fill="#FFFFFF" d="M407.3,273.8c-5.1,1.5-10.7,2.4-16.7,2.6c-61.6,1.6-78.9-51.1-78.9-92.3c0-29.9,16.6-52.4,41.4-62.5
				l126-47c0,0,65.7,6.3,75.4,81.5L526,171.1c0,0,5,24.5-2.5,39.7C521.1,210.7,407.3,273.8,407.3,273.8z"/>
			<path fill="none" stroke="#1F7FB6" stroke-width="5" stroke-miterlimit="10" d="M398.3,214.9c-0.2,13.1-10.2,23.4-22.8,23.4
				c-13.1,0-24.6-11.2-25.1-25.3c-0.5-14.6,10.8-25.8,24.6-24.6C388.3,189.4,398.5,201.4,398.3,214.9z"/>
			<path fill="none" stroke="#1F7FB6" stroke-width="5" stroke-miterlimit="10" d="M414.7,214.1c-0.3,20.7-16.1,37-36,37
				c-20.8,0-38.9-17.7-39.7-40c-0.8-23.1,17-40.8,38.9-39C398.9,173.8,415,192.9,414.7,214.1z"/>
			<path fill="none" stroke="#1F7FB6" stroke-width="10" stroke-miterlimit="10" d="M445.3,212c-0.5,34.9-26.8,62.6-60,62.6
				c-34.6,0-64.8-29.8-66.1-67.7c-1.3-39,28.4-68.8,64.9-65.8C419.1,144,445.9,176.1,445.3,212z"/>
			<path fill="none" stroke="#1F7FB6" stroke-width="10" stroke-miterlimit="10" d="M525.8,170c3,14.2,1.7,28.8-3.3,41.9l-109.5,58
				c-4.2,1.7-10.7,5.7-21,6c-43,0-80.5-35.4-82.1-80.2c-1.7-46.2,35.3-81.7,80.6-78.1c42,3.3,74.5,39.1,76,79.9l87-40.5
				c-1.5-40.9-34-76.6-76-79.9l-118.1,44.4"/>
			<path fill="none" stroke="#1F7FB6" stroke-width="5" stroke-miterlimit="10" d="M429.8,212.7c-0.4,27.5-21.4,49.3-47.9,49.3
				c-27.6,0-51.8-23.5-52.8-53.3c-1.1-30.7,22.7-54.2,51.8-51.8C408.8,159.2,430.2,184.4,429.8,212.7z"/>
			<path fill="none" stroke="#1F7FB6" stroke-width="5" stroke-miterlimit="10" d="M384.8,215.2c-0.1,6.6-5.2,11.9-11.5,11.9
				c-6.6,0-12.5-5.7-12.7-12.8c-0.3-7.4,5.5-13,12.5-12.5C379.8,202.3,384.9,208.4,384.8,215.2z"/>
		</g>
	</g>
</g>
<g id="Three_Curved_Arrows_Resembling_Recycling_Symbol">
</g>
<g id="Family_Of_Heterosexual_Couple">
</g>
<g id="Couple">
</g>
<g id="Woman_Standing_Silhouette_Black_Shape">
</g>
<g id="Woman_Searching_Job">
</g>
<g id="Couple_With_Baby">
</g>
<g id="Female_And_Male_Silhouettes_With_A_Vertical_Line_In_The_Middle">
</g>
<g id="Business_Woman">
</g>
<g id="Attention_Signal_And_Construction_Worker">
</g>
<g id="Handy_Man_Worker_Silhouette">
</g>
<g id="People_Working">
</g>
<g id="Tree_Silhouette">
	<g>
		<path fill="#1F7FB6" d="M374.9,37.1c-0.9,0-1.7-0.1-2.5-0.3s-1.4-0.5-1.9-0.8c-0.6-0.4-1-0.8-1.4-1.3c-0.4-0.5-0.7-1.1-1-1.7
			l2-0.9c0.2,0.5,0.5,0.9,0.8,1.3c0.3,0.4,0.6,0.7,1,1c0.4,0.3,0.8,0.5,1.3,0.7s1,0.2,1.7,0.2c0.6,0,1.3-0.1,1.9-0.3
			s1.2-0.5,1.6-0.9c0.3-0.3,0.5-0.6,0.7-1c0.2-0.4,0.2-0.8,0.2-1.4c0-0.6-0.1-1.1-0.3-1.6s-0.5-0.8-0.8-1s-0.6-0.4-0.9-0.6
			c-0.2-0.1-0.4-0.2-0.8-0.3c-0.4-0.1-0.7-0.3-1.1-0.4c-0.4-0.1-0.7-0.3-1.1-0.4s-0.6-0.2-0.7-0.3c-1.1-0.4-1.9-0.8-2.5-1.2
			c-0.6-0.4-1.1-0.8-1.4-1.3c-0.3-0.4-0.6-0.9-0.7-1.4c-0.2-0.5-0.2-1.1-0.2-1.6c0-0.3,0-0.6,0-0.9s0.1-0.7,0.3-1.1s0.4-0.9,0.8-1.4
			c0.4-0.5,0.8-0.9,1.4-1.2c0.6-0.3,1.2-0.6,1.9-0.7c0.7-0.1,1.4-0.2,2.2-0.2c1.5,0,2.8,0.3,3.8,0.9c1,0.6,1.8,1.5,2.3,2.6l-1.9,1
			c-0.4-0.7-0.8-1.3-1.3-1.8c-0.5-0.4-1-0.7-1.5-0.8c-0.5-0.1-1-0.2-1.5-0.2c-0.7,0-1.4,0.1-2,0.3c-0.6,0.2-1.1,0.5-1.5,1
			c-0.3,0.4-0.5,0.8-0.6,1.2s-0.2,0.8-0.2,1.3c0,0.5,0.1,1,0.4,1.4s0.6,0.8,1.1,1.1c0.5,0.3,1,0.6,1.7,0.9s1.3,0.5,2.1,0.8
			c1.2,0.4,2.1,0.8,2.8,1.2c0.7,0.4,1.2,0.7,1.4,1c0.3,0.3,0.5,0.5,0.6,0.7c0.3,0.4,0.4,0.9,0.5,1.4c0.1,0.5,0.2,1,0.2,1.4
			c0,1.1-0.3,2.1-0.8,3c-0.6,0.9-1.3,1.5-2.4,2S376.2,37.1,374.9,37.1z"/>
		<path fill="#1F7FB6" d="M389,36.9c-0.8,0-1.5-0.1-2-0.3s-0.9-0.5-1.2-0.9c-0.3-0.4-0.5-0.9-0.6-1.5c-0.1-0.6-0.2-1.2-0.2-1.9V24
			h-1.9v-1.6h1.9v-3.9h2v3.9h2.9V24H387v8.3c0,0.5,0,0.9,0.1,1.2c0,0.4,0.1,0.7,0.3,0.9c0.2,0.3,0.4,0.4,0.7,0.6
			c0.3,0.1,0.7,0.2,1.2,0.2c0.3,0,0.6,0,0.9-0.1v1.7C389.8,36.9,389.4,36.9,389,36.9z"/>
		<path fill="#1F7FB6" d="M396.1,37c-0.4,0-0.7,0-1.1-0.1c-0.4-0.1-0.7-0.2-1-0.3s-0.6-0.3-0.9-0.5c-0.3-0.2-0.5-0.4-0.6-0.6
			c-0.3-0.4-0.5-0.8-0.7-1.3c-0.2-0.5-0.3-1-0.3-1.6c0-0.5,0.1-1,0.2-1.5s0.3-0.8,0.6-1.1c0.4-0.6,1-1,1.7-1.3s1.6-0.4,2.7-0.4h3.6
			v-1.9c0-0.8-0.2-1.4-0.5-1.8c-0.4-0.4-0.8-0.7-1.3-0.8c-0.5-0.1-0.9-0.2-1.3-0.2c-0.9,0-1.6,0.2-2.1,0.5c-0.5,0.3-0.9,0.8-1.2,1.5
			l-1.7-0.6c0.4-1,1-1.7,1.8-2.2c0.8-0.5,2-0.8,3.3-0.8c0.9,0,1.7,0.1,2.4,0.3s1.2,0.6,1.7,1.1c0.4,0.4,0.7,0.9,0.8,1.3
			c0.2,0.5,0.2,1.1,0.2,1.8v10.1h-2.1v-1.4c-0.5,0.5-0.9,0.9-1.4,1.1c-0.5,0.3-1,0.5-1.5,0.5C397,37,396.6,37,396.1,37z M396.8,35.4
			c0.7,0,1.4-0.2,2-0.5c0.6-0.3,1-0.8,1.3-1.2s0.4-0.9,0.4-1.4v-2.4h-3c-0.7,0-1.2,0.1-1.7,0.2s-0.9,0.3-1.2,0.5
			c-0.3,0.2-0.5,0.5-0.7,0.9c-0.1,0.3-0.2,0.7-0.2,1.2c0,0.4,0,0.8,0.2,1.1s0.3,0.6,0.5,0.8C394.9,35.1,395.7,35.4,396.8,35.4z"/>
		<path fill="#1F7FB6" d="M406.2,36.7V16.5h2v7.9c0.6-0.9,1.3-1.5,2-1.9s1.6-0.6,2.5-0.6c0.8,0,1.6,0.2,2.2,0.5s1.1,0.9,1.4,1.5
			c0.3,0.7,0.4,1.4,0.4,2.2v10.5h-2V27c0-1.1-0.2-1.9-0.7-2.4c-0.4-0.5-1.1-0.7-2.1-0.7c-0.5,0-1.1,0.1-1.5,0.4
			c-0.5,0.3-0.9,0.6-1.2,1c-0.3,0.4-0.6,0.9-0.8,1.4c-0.2,0.5-0.3,1.1-0.3,1.6v8.4H406.2z"/>
		<path fill="#1F7FB6" d="M420.5,36.7V16.5h2.1v20.2H420.5z"/>
		<path fill="#1F7FB6" d="M429.7,36.7l-5.1-14.2h2.1l4.1,11.3l4-11.3h1.9l-5.1,14.2H429.7z"/>
		<path fill="#1F7FB6" d="M438.8,18.9v-2.4h2.1v2.4H438.8z M438.8,36.7V22.5h2.1v14.2H438.8z"/>
		<path fill="#1F7FB6" d="M449.8,37.1c-0.7,0-1.4-0.1-1.9-0.3c-0.6-0.2-1.1-0.4-1.5-0.7c-0.4-0.3-0.8-0.6-1.1-1
			c-0.3-0.4-0.5-0.8-0.7-1.2c-0.2-0.6-0.4-1.2-0.5-1.9s-0.1-1.4-0.1-2.2c0-1.1,0.1-2.1,0.2-2.9c0.1-0.8,0.3-1.5,0.6-2.1
			c0.3-0.6,0.6-1.1,1-1.4c0.4-0.4,1-0.8,1.6-1.1s1.4-0.4,2.4-0.4c0.8,0,1.6,0.1,2.2,0.3c0.6,0.2,1.1,0.5,1.5,1
			c0.6,0.6,1,1.4,1.2,2.3s0.3,2.1,0.3,3.4v1.3h-8.9v0.3c0,0.9,0.1,1.7,0.3,2.3c0.2,0.6,0.5,1.1,0.8,1.5c0.3,0.4,0.8,0.6,1.2,0.8
			c0.5,0.2,1,0.2,1.5,0.2c0.6,0,1.1-0.1,1.5-0.3s0.8-0.4,1.1-0.7c0.3-0.3,0.5-0.5,0.6-0.8l1.6,0.9c-0.3,0.6-0.8,1.1-1.3,1.5
			s-1.1,0.7-1.7,0.9C451.2,37,450.5,37.1,449.8,37.1z M446.1,28.6h6.9c0-1.4-0.2-2.5-0.5-3.2c-0.3-0.8-0.7-1.2-1.3-1.4
			c-0.5-0.2-1.1-0.3-1.6-0.3c-0.5,0-0.9,0.1-1.4,0.2s-0.8,0.4-1.1,0.8c-0.3,0.4-0.6,0.9-0.8,1.5C446.3,26.8,446.2,27.6,446.1,28.6z"
			/>
		<path fill="#1F7FB6" d="M458.1,36.7V16.5h2.1v20.2H458.1z"/>
		<path fill="#1F7FB6" d="M464.1,36.7V24h-1.9v-1.6h1.9v-1.4c0-0.9,0.1-1.7,0.3-2.2s0.5-1,0.8-1.3c0.4-0.4,0.9-0.7,1.5-0.9
			s1.1-0.2,1.7-0.2c0.7,0,1.2,0,1.5,0.1v1.7c-0.3-0.1-0.8-0.1-1.3-0.1c-0.3,0-0.6,0-0.9,0.1c-0.3,0.1-0.6,0.3-0.9,0.6
			c-0.2,0.2-0.3,0.5-0.4,0.8c-0.1,0.4-0.2,0.8-0.2,1.5v1.3h3.3V24h-3.3v12.7H464.1z"/>
		<path fill="#1F7FB6" d="M474.9,37c-0.4,0-0.7,0-1.1-0.1c-0.4-0.1-0.7-0.2-1-0.3s-0.6-0.3-0.9-0.5c-0.3-0.2-0.5-0.4-0.6-0.6
			c-0.3-0.4-0.5-0.8-0.7-1.3c-0.2-0.5-0.3-1-0.3-1.6c0-0.5,0.1-1,0.2-1.5s0.3-0.8,0.6-1.1c0.4-0.6,1-1,1.7-1.3s1.6-0.4,2.7-0.4h3.6
			v-1.9c0-0.8-0.2-1.4-0.5-1.8c-0.4-0.4-0.8-0.7-1.3-0.8c-0.5-0.1-0.9-0.2-1.3-0.2c-0.9,0-1.6,0.2-2.1,0.5c-0.5,0.3-0.9,0.8-1.2,1.5
			L471,25c0.4-1,1-1.7,1.8-2.2c0.8-0.5,2-0.8,3.3-0.8c0.9,0,1.7,0.1,2.4,0.3s1.2,0.6,1.7,1.1c0.4,0.4,0.7,0.9,0.8,1.3
			c0.2,0.5,0.2,1.1,0.2,1.8v10.1h-2.1v-1.4c-0.5,0.5-0.9,0.9-1.4,1.1c-0.5,0.3-1,0.5-1.5,0.5C475.8,37,475.4,37,474.9,37z
			 M475.6,35.4c0.7,0,1.4-0.2,2-0.5c0.6-0.3,1-0.8,1.3-1.2s0.4-0.9,0.4-1.4v-2.4h-3c-0.7,0-1.2,0.1-1.7,0.2s-0.9,0.3-1.2,0.5
			c-0.3,0.2-0.5,0.5-0.7,0.9c-0.1,0.3-0.2,0.7-0.2,1.2c0,0.4,0,0.8,0.2,1.1s0.3,0.6,0.5,0.8C473.6,35.1,474.5,35.4,475.6,35.4z"/>
		<path fill="#1F7FB6" d="M485,36.7V16.5h2.1v20.2H485z"/>
		<path fill="#1F7FB6" d="M495,36.9c-0.8,0-1.5-0.1-2-0.3s-0.9-0.5-1.2-0.9c-0.3-0.4-0.5-0.9-0.6-1.5c-0.1-0.6-0.2-1.2-0.2-1.9V24
			h-1.9v-1.6h1.9v-3.9h2v3.9h2.9V24H493v8.3c0,0.5,0,0.9,0.1,1.2c0,0.4,0.1,0.7,0.3,0.9c0.2,0.3,0.4,0.4,0.7,0.6
			c0.3,0.1,0.7,0.2,1.2,0.2c0.3,0,0.6,0,0.9-0.1v1.7C495.8,36.9,495.4,36.9,495,36.9z"/>
	</g>
</g>
</svg>
